  0
SECTION
  2
HEADER
  9
$ACADVER
  1
AC1015
  9
$ACADMAINTVER
 70
     6
  9
$DWGCODEPAGE
  3
ANSI_1252
  9
$INSBASE
 10
0.0
 20
0.0
 30
0.0
  9
$EXTMIN
 10
0.0
 20
0.0
 30
0.0
  9
$EXTMAX
 10
48.0
 20
48.0
 30
0.0
  9
$LIMMIN
 10
0.0
 20
0.0
  9
$LIMMAX
 10
48.0
 20
48.0
  9
$ORTHOMODE
 70
     0
  9
$REGENMODE
 70
     1
  9
$FILLMODE
 70
     1
  9
$QTEXTMODE
 70
     0
  9
$MIRRTEXT
 70
     1
  9
$LTSCALE
 40
1.0
  9
$ATTMODE
 70
     1
  9
$TEXTSIZE
 40
0.1377952756
  9
$TRACEWID
 40
0.05
  9
$TEXTSTYLE
  7
Standard
  9
$CLAYER
  8
0
  9
$CELTYPE
  6
ByLayer
  9
$CECOLOR
 62
   256
  9
$CELTSCALE
 40
1.0
  9
$DISPSILH
 70
     0
  9
$DIMSCALE
 40
1.0
  9
$DIMASZ
 40
0.13
  9
$DIMEXO
 40
0.0393700787
  9
$DIMDLI
 40
0.38
  9
$DIMRND
 40
0.0
  9
$DIMDLE
 40
0.0
  9
$DIMEXE
 40
0.0393700787
  9
$DIMTP
 40
0.0
  9
$DIMTM
 40
0.0
  9
$DIMTXT
 40
0.1377952756
  9
$DIMCEN
 40
0.09
  9
$DIMTSZ
 40
0.0
  9
$DIMTOL
 70
     0
  9
$DIMLIM
 70
     0
  9
$DIMTIH
 70
     1
  9
$DIMTOH
 70
     1
  9
$DIMSE1
 70
     0
  9
$DIMSE2
 70
     0
  9
$DIMTAD
 70
     1
  9
$DIMZIN
 70
     0
  9
$DIMBLK
  1

  9
$DIMASO
 70
     1
  9
$DIMSHO
 70
     1
  9
$DIMPOST
  1

  9
$DIMAPOST
  1

  9
$DIMALT
 70
     0
  9
$DIMALTD
 70
     2
  9
$DIMALTF
 40
25.4
  9
$DIMLFAC
 40
1.0
  9
$DIMTOFL
 70
     0
  9
$DIMTVP
 40
0.0
  9
$DIMTIX
 70
     0
  9
$DIMSOXD
 70
     0
  9
$DIMSAH
 70
     0
  9
$DIMBLK1
  1

  9
$DIMBLK2
  1

  9
$DIMSTYLE
  2
Standard
  9
$DIMCLRD
 70
     0
  9
$DIMCLRE
 70
     0
  9
$DIMCLRT
 70
     0
  9
$DIMTFAC
 40
1.0
  9
$DIMGAP
 40
0.06
  9
$DIMJUST
 70
     0
  9
$DIMSD1
 70
     0
  9
$DIMSD2
 70
     0
  9
$DIMTOLJ
 70
     1
  9
$DIMTZIN
 70
     0
  9
$DIMALTZ
 70
     0
  9
$DIMALTTZ
 70
     0
  9
$DIMUPT
 70
     0
  9
$DIMDEC
 70
     3
  9
$DIMTDEC
 70
     3
  9
$DIMALTU
 70
     2
  9
$DIMALTTD
 70
     2
  9
$DIMTXSTY
  7
Standard
  9
$DIMAUNIT
 70
     0
  9
$DIMADEC
 70
     2
  9
$DIMALTRND
 40
0.0
  9
$DIMAZIN
 70
     0
  9
$DIMDSEP
 70
    46
  9
$DIMATFIT
 70
     3
  9
$DIMFRAC
 70
     0
  9
$DIMLDRBLK
  1

  9
$DIMLUNIT
 70
     2
  9
$DIMLWD
 70
    -2
  9
$DIMLWE
 70
    -2
  9
$DIMTMOVE
 70
     0
  9
$LUNITS
 70
     2
  9
$LUPREC
 70
     2
  9
$SKETCHINC
 40
0.1
  9
$FILLETRAD
 40
0.5
  9
$AUNITS
 70
     0
  9
$AUPREC
 70
     2
  9
$MENU
  1
.
  9
$ELEVATION
 40
0.0
  9
$PELEVATION
 40
0.0
  9
$THICKNESS
 40
0.0
  9
$LIMCHECK
 70
     0
  9
$CHAMFERA
 40
0.5
  9
$CHAMFERB
 40
0.5
  9
$CHAMFERC
 40
1.0
  9
$CHAMFERD
 40
0.0
  9
$SKPOLY
 70
     0
  9
$TDCREATE
 40
2455402.067616771
  9
$TDUCREATE
 40
2455402.359283437
  9
$TDUPDATE
 40
2455402.067616783
  9
$TDUUPDATE
 40
2455402.359283449
  9
$TDINDWG
 40
0.0000000116
  9
$TDUSRTIMER
 40
0.0000000116
  9
$USRTIMER
 70
     1
  9
$ANGBASE
 50
0.0
  9
$ANGDIR
 70
     0
  9
$PDMODE
 70
     0
  9
$PDSIZE
 40
-1.0
  9
$PLINEWID
 40
0.0
  9
$SPLFRAME
 70
     0
  9
$SPLINETYPE
 70
     6
  9
$SPLINESEGS
 70
     8
  9
$HANDSEED
  5
67
  9
$SURFTAB1
 70
     6
  9
$SURFTAB2
 70
     6
  9
$SURFTYPE
 70
     6
  9
$SURFU
 70
     6
  9
$SURFV
 70
     6
  9
$UCSBASE
  2

  9
$UCSNAME
  2

  9
$UCSORG
 10
0.0
 20
0.0
 30
0.0
  9
$UCSXDIR
 10
1.0
 20
0.0
 30
0.0
  9
$UCSYDIR
 10
0.0
 20
1.0
 30
0.0
  9
$UCSORTHOREF
  2

  9
$UCSORTHOVIEW
 70
     0
  9
$UCSORGTOP
 10
0.0
 20
0.0
 30
0.0
  9
$UCSORGBOTTOM
 10
0.0
 20
0.0
 30
0.0
  9
$UCSORGLEFT
 10
0.0
 20
0.0
 30
0.0
  9
$UCSORGRIGHT
 10
0.0
 20
0.0
 30
0.0
  9
$UCSORGFRONT
 10
0.0
 20
0.0
 30
0.0
  9
$UCSORGBACK
 10
0.0
 20
0.0
 30
0.0
  9
$PUCSBASE
  2

  9
$PUCSNAME
  2

  9
$PUCSORG
 10
0.0
 20
0.0
 30
0.0
  9
$PUCSXDIR
 10
1.0
 20
0.0
 30
0.0
  9
$PUCSYDIR
 10
0.0
 20
1.0
 30
0.0
  9
$PUCSORTHOREF
  2

  9
$PUCSORTHOVIEW
 70
     0
  9
$PUCSORGTOP
 10
0.0
 20
0.0
 30
0.0
  9
$PUCSORGBOTTOM
 10
0.0
 20
0.0
 30
0.0
  9
$PUCSORGLEFT
 10
0.0
 20
0.0
 30
0.0
  9
$PUCSORGRIGHT
 10
0.0
 20
0.0
 30
0.0
  9
$PUCSORGFRONT
 10
0.0
 20
0.0
 30
0.0
  9
$PUCSORGBACK
 10
0.0
 20
0.0
 30
0.0
  9
$USERI1
 70
     0
  9
$USERI2
 70
     0
  9
$USERI3
 70
     0
  9
$USERI4
 70
     0
  9
$USERI5
 70
     0
  9
$USERR1
 40
0.0
  9
$USERR2
 40
0.0
  9
$USERR3
 40
0.0
  9
$USERR4
 40
0.0
  9
$USERR5
 40
0.0
  9
$WORLDVIEW
 70
     1
  9
$SHADEDGE
 70
     3
  9
$SHADEDIF
 70
    70
  9
$TILEMODE
 70
     1
  9
$MAXACTVP
 70
    64
  9
$PINSBASE
 10
0.0
 20
0.0
 30
0.0
  9
$PLIMCHECK
 70
     0
  9
$PEXTMIN
 10
1.0000000000E+20
 20
1.0000000000E+20
 30
1.0000000000E+20
  9
$PEXTMAX
 10
-1.0000000000E+20
 20
-1.0000000000E+20
 30
-1.0000000000E+20
  9
$PLIMMIN
 10
0.0
 20
0.0
  9
$PLIMMAX
 10
12.0
 20
9.0
  9
$UNITMODE
 70
     0
  9
$VISRETAIN
 70
     1
  9
$PLINEGEN
 70
     0
  9
$PSLTSCALE
 70
     1
  9
$TREEDEPTH
 70
  3020
  9
$CMLSTYLE
  2
Standard
  9
$CMLJUST
 70
     0
  9
$CMLSCALE
 40
1.0
  9
$PROXYGRAPHICS
 70
     1
  9
$MEASUREMENT
 70
     0
  9
$CELWEIGHT
370
    -1
  9
$ENDCAPS
280
     0
  9
$JOINSTYLE
280
     0
  9
$LWDISPLAY
290
     1
  9
$INSUNITS
 70
     1
  9
$HYPERLINKBASE
  1

  9
$STYLESHEET
  1

  9
$XEDIT
290
     1
  9
$CEPSNTYPE
380
     0
  9
$PSTYLEMODE
290
     1
  9
$FINGERPRINTGUID
  2
{667F91AD-211B-41B0-B307-5D192D17028E}
  9
$VERSIONGUID
  2
{FAEB1C32-E019-11D5-929B-00C0DF256EC4}
  9
$EXTNAMES
290
     1
  9
$PSVPSCALE
 40
0.0
  9
$OLESTARTUP
290
     0
  0
ENDSEC
  0
SECTION
  2
CLASSES
  0
CLASS
  1
ACDBDICTIONARYWDFLT
  2
AcDbDictionaryWithDefault
  3
ObjectDBX Classes
 90
        0
280
     0
281
     0
  0
CLASS
  1
VISUALSTYLE
  2
AcDbVisualStyle
  3
ObjectDBX Classes
 90
     4095
280
     0
281
     0
  0
CLASS
  1
DICTIONARYVAR
  2
AcDbDictionaryVar
  3
ObjectDBX Classes
 90
        0
280
     0
281
     0
  0
CLASS
  1
ACDBPLACEHOLDER
  2
AcDbPlaceHolder
  3
ObjectDBX Classes
 90
        0
280
     0
281
     0
  0
CLASS
  1
LAYOUT
  2
AcDbLayout
  3
ObjectDBX Classes
 90
        0
280
     0
281
     0
  0
ENDSEC
  0
SECTION
  2
TABLES
  0
TABLE
  2
VPORT
  5
8
330
0
100
AcDbSymbolTable
 70
     1
  0
VPORT
  5
29
330
8
100
AcDbSymbolTableRecord
100
AcDbViewportTableRecord
  2
*Active
 70
     0
 10
0.0
 20
0.0
 11
1.0
 21
1.0
 12
24.0
 22
24.0
 13
0.0
 23
0.0
 14
0.5
 24
0.5
 15
0.5
 25
0.5
 16
0.0
 26
0.0
 36
1.0
 17
0.0
 27
0.0
 37
0.0
 40
48.0
 41
1.0
 42
50.0
 43
0.0
 44
0.0
 50
0.0
 51
0.0
 71
     0
 72
  2000
 73
     1
 74
     3
 75
     0
 76
     0
 77
     0
 78
     0
281
     0
 65
     1
110
0.0
120
0.0
130
0.0
111
1.0
121
0.0
131
0.0
112
0.0
122
1.0
132
0.0
 79
     0
146
0.0
  0
ENDTAB
  0
TABLE
  2
LTYPE
  5
5
330
0
100
AcDbSymbolTable
 70
     6
  0
LTYPE
  5
14
330
5
100
AcDbSymbolTableRecord
100
AcDbLinetypeTableRecord
  2
ByBlock
 70
     0
  3

 72
    65
 73
     0
 40
0.0
  0
LTYPE
  5
15
330
5
100
AcDbSymbolTableRecord
100
AcDbLinetypeTableRecord
  2
ByLayer
 70
     0
  3

 72
    65
 73
     0
 40
0.0
  0
LTYPE
  5
16
330
5
100
AcDbSymbolTableRecord
100
AcDbLinetypeTableRecord
  2
Continuous
 70
     0
  3
Solid line
 72
    65
 73
     0
 40
0.0
  0
LTYPE
  5
3B
330
5
100
AcDbSymbolTableRecord
100
AcDbLinetypeTableRecord
  2
HIDDEN
 70
     0
  3
Hidden __ __ __ __ __ __ __ __ __ __ __ __ __ __
 72
    65
 73
     2
 40
0.075
 49
0.05
 74
     0
 49
-0.025
 74
     0
  0
LTYPE
  5
3C
330
5
100
AcDbSymbolTableRecord
100
AcDbLinetypeTableRecord
  2
PHANTOM
 70
     0
  3
Phantom ______  __  __  ______  __  __  ______
 72
    65
 73
     6
 40
0.5
 49
0.25
 74
     0
 49
-0.05
 74
     0
 49
0.05
 74
     0
 49
-0.05
 74
     0
 49
0.05
 74
     0
 49
-0.05
 74
     0
  0
LTYPE
  5
3D
330
5
100
AcDbSymbolTableRecord
100
AcDbLinetypeTableRecord
  2
CENTER
 70
     0
  3
Center ____ _ ____ _ ____ _ ____ _ ____ _ ____
 72
    65
 73
     4
 40
0.4
 49
0.25
 74
     0
 49
-0.05
 74
     0
 49
0.05
 74
     0
 49
-0.05
 74
     0
  0
LTYPE
  5
3E
330
5
100
AcDbSymbolTableRecord
100
AcDbLinetypeTableRecord
  2
CENTERX2
 70
     0
  3
Center (2x) ________  __  ________  __  _____
 72
    65
 73
     4
 40
0.8
 49
0.5
 74
     0
 49
-0.1
 74
     0
 49
0.1
 74
     0
 49
-0.1
 74
     0
  0
LTYPE
  5
3F
330
5
100
AcDbSymbolTableRecord
100
AcDbLinetypeTableRecord
  2
DOT2
 70
     0
  3
Dot (.5x) ........................................
 72
    65
 73
     2
 40
0.025
 49
0.0
 74
     0
 49
-0.025
 74
     0
  0
ENDTAB
  0
TABLE
  2
LAYER
  5
2
330
0
100
AcDbSymbolTable
 70
     1
  0
LAYER
  5
10
330
2
100
AcDbSymbolTableRecord
100
AcDbLayerTableRecord
  2
0
 70
     0
 62
     7
  6
Continuous
370
    -3
390
F
  0
ENDTAB
  0
TABLE
  2
STYLE
  5
3
330
0
100
AcDbSymbolTable
 70
     1
  0
STYLE
  5
11
330
3
100
AcDbSymbolTableRecord
100
AcDbTextStyleTableRecord
  2
Standard
 70
     0
 40
0.0
 41
1.0
 50
0.0
 71
     0
 42
0.2
  3
txt
  4

  0
ENDTAB
  0
TABLE
  2
VIEW
  5
6
330
0
100
AcDbSymbolTable
 70
     0
  0
ENDTAB
  0
TABLE
  2
UCS
  5
7
330
0
100
AcDbSymbolTable
 70
     0
  0
ENDTAB
  0
TABLE
  2
APPID
  5
9
330
0
100
AcDbSymbolTable
 70
     1
  0
APPID
  5
12
330
9
100
AcDbSymbolTableRecord
100
AcDbRegAppTableRecord
  2
ACAD
 70
     0
  0
ENDTAB
  0
TABLE
  2
DIMSTYLE
  5
A
330
0
100
AcDbSymbolTable
 70
     1
100
AcDbDimStyleTable
  0
DIMSTYLE
105
27
330
A
100
AcDbSymbolTableRecord
100
AcDbDimStyleTableRecord
  2
Standard
 70
     0
340
11
  0
ENDTAB
  0
TABLE
  2
BLOCK_RECORD
  5
1
330
0
100
AcDbSymbolTable
 70
     1
  0
BLOCK_RECORD
  5
1F
330
1
100
AcDbSymbolTableRecord
100
AcDbBlockTableRecord
  2
*Model_Space
340
22
  0
BLOCK_RECORD
  5
1B
330
1
100
AcDbSymbolTableRecord
100
AcDbBlockTableRecord
  2
*Paper_Space
340
1E
  0
BLOCK_RECORD
  5
23
330
1
100
AcDbSymbolTableRecord
100
AcDbBlockTableRecord
  2
*Paper_Space0
340
26
  0
ENDTAB
  0
ENDSEC
  0
SECTION
  2
BLOCKS
  0
BLOCK
  5
20
330
1F
100
AcDbEntity
  8
0
100
AcDbBlockBegin
  2
*Model_Space
 70
     0
 10
0.0
 20
0.0
 30
0.0
  3
*Model_Space
  1

  0
ENDBLK
  5
21
330
1F
100
AcDbEntity
  8
0
100
AcDbBlockEnd
  0
BLOCK
  5
1C
330
1B
100
AcDbEntity
 67
     1
  8
0
100
AcDbBlockBegin
  2
*Paper_Space
 70
     0
 10
0.0
 20
0.0
 30
0.0
  3
*Paper_Space
  1

  0
ENDBLK
  5
1D
330
1B
100
AcDbEntity
 67
     1
  8
0
100
AcDbBlockEnd
  0
BLOCK
  5
24
330
23
100
AcDbEntity
  8
0
100
AcDbBlockBegin
  2
*Paper_Space0
 70
     0
 10
0.0
 20
0.0
 30
0.0
  3
*Paper_Space0
  1

  0
ENDBLK
  5
25
330
23
100
AcDbEntity
  8
0
100
AcDbBlockEnd
  0
ENDSEC
  0
SECTION
  2
ENTITIES
  0
LINE
  5
40
330
1F
100
AcDbEntity
  8
0
  6
Continuous
 62
     7
370
    15
100
AcDbLine
 10
16.9063782991
 20
26.0511181296
 30
0.0
 11
-1.5204228017
 21
26.0511181296
 31
0.0
  0
SPLINE
  5
41
330
1F
100
AcDbEntity
  8
0
  6
Continuous
 62
     7
370
    15
100
AcDbSpline
210
0.0
220
0.0
230
1.0
 70
     8
 71
     3
 72
    38
 73
    34
 74
     0
 42
0.00000001
 43
0.00000001
 40
0.0
 40
0.0
 40
0.0
 40
0.0
 40
0.1250000000000008
 40
0.1250000000000008
 40
0.2500000000000017
 40
0.2500000000000017
 40
0.3125000000000015
 40
0.3125000000000015
 40
0.3750000000000014
 40
0.3750000000000014
 40
0.4375000000000012
 40
0.4375000000000012
 40
0.5000000000000011
 40
0.5000000000000011
 40
0.6250000000000008
 40
0.6250000000000008
 40
0.6562500000000014
 40
0.6562500000000014
 40
0.6875000000000021
 40
0.6875000000000021
 40
0.7500000000000029
 40
0.7500000000000029
 40
0.7812500000000028
 40
0.7812500000000028
 40
0.8125000000000028
 40
0.8125000000000028
 40
0.8750000000000018
 40
0.8750000000000018
 40
0.9375000000000009
 40
0.9375000000000009
 40
0.9687500000000004
 40
0.9687500000000004
 40
1.0
 40
1.0
 40
1.0
 40
1.0
 10
-3.843621700879764
 20
26.59210678985605
 30
0.0
 10
-3.742367965484938
 20
26.63863416136959
 30
0.0
 10
-3.639417917739371
 20
26.68130356060618
 30
0.0
 10
-3.429139267548824
 20
26.75668408539459
 30
0.0
 10
-3.321827978195842
 20
26.78943458661262
 30
0.0
 10
-3.156338924619765
 20
26.82827555106766
 30
0.0
 10
-3.100271088715936
 20
26.83949713758401
 30
0.0
 10
-2.98833700066247
 20
26.85745572254431
 30
0.0
 10
-2.932262926546694
 20
26.86425241213782
 30
0.0
 10
-2.819869059788822
 20
26.8728349951123
 30
0.0
 10
-2.763549400538079
 20
26.87462360866617
 30
0.0
 10
-2.650622681469627
 20
26.87234004174257
 30
0.0
 10
-2.594015849862471
 20
26.86827251503123
 30
0.0
 10
-2.423678623052381
 20
26.84553251742892
 30
0.0
 10
-2.314145859765275
 20
26.81696293006567
 30
0.0
 10
-2.183212350829084
 20
26.7615344072078
 30
0.0
 10
-2.157262292805436
 20
26.74942490663502
 30
0.0
 10
-2.106269479475633
 20
26.72327144546985
 30
0.0
 10
-2.081419312923116
 20
26.70933236166547
 30
0.0
 10
-2.008753447766718
 20
26.66500022359822
 30
0.0
 10
-1.962820828177252
 20
26.63209435834784
 30
0.0
 10
-1.897503475522685
 20
26.57795624675789
 30
0.0
 10
-1.876328359750056
 20
26.55911311595988
 30
0.0
 10
-1.83514637457811
 20
26.51986792757401
 30
0.0
 10
-1.815076086557879
 20
26.49939533354205
 30
0.0
 10
-1.757054287056852
 20
26.43620988085605
 30
0.0
 10
-1.721500128751055
 20
26.39201915205066
 30
0.0
 10
-1.655706119883058
 20
26.30012473420438
 30
0.0
 10
-1.625469416167482
 20
26.25241896497779
 30
0.0
 10
-1.583576190042154
 20
26.17857190975438
 30
0.0
 10
-1.570190287725909
 20
26.15357380987636
 30
0.0
 10
-1.544503197919218
 20
26.10286057222306
 30
0.0
 10
-1.532178952139867
 20
26.07709340221145
 30
0.0
 10
-1.520422801707979
 20
26.05111812960562
 30
0.0
  0
LINE
  5
42
330
1F
100
AcDbEntity
  8
0
  6
Continuous
 62
     7
370
    15
100
AcDbLine
 10
-3.8436217009
 20
26.5921067899
 30
0.0
 11
-3.8436217009
 21
46.8011181296
 31
0.0
  0
LINE
  5
43
330
1F
100
AcDbEntity
  8
0
  6
Continuous
 62
     7
370
    15
100
AcDbLine
 10
-3.8436217009
 20
46.8011181296
 30
0.0
 11
16.9063782991
 21
46.8011181296
 31
0.0
  0
LINE
  5
44
330
1F
100
AcDbEntity
  8
0
  6
Continuous
 62
     7
370
    15
100
AcDbLine
 10
16.9063782991
 20
46.8011181296
 30
0.0
 11
16.9063782991
 21
26.0511181296
 31
0.0
  0
LINE
  5
45
330
1F
100
AcDbEntity
  8
0
  6
Continuous
 62
     7
370
    15
100
AcDbLine
 10
19.2062476772
 20
46.7335958358
 30
0.0
 11
39.9562476772
 21
46.7335958358
 31
0.0
  0
LINE
  5
46
330
1F
100
AcDbEntity
  8
0
  6
Continuous
 62
     7
370
    15
100
AcDbLine
 10
19.2062476772
 20
25.9835958358
 30
0.0
 11
19.2062476772
 21
46.7335958358
 31
0.0
  0
LINE
  5
47
330
1F
100
AcDbEntity
  8
0
  6
Continuous
 62
     7
370
    15
100
AcDbLine
 10
39.9562476772
 20
46.7335958358
 30
0.0
 11
39.9562476772
 21
25.9835958358
 31
0.0
  0
LINE
  5
48
330
1F
100
AcDbEntity
  8
0
  6
Continuous
 62
     7
370
    15
100
AcDbLine
 10
39.9562476772
 20
25.9835958358
 30
0.0
 11
19.2062476772
 21
25.9835958358
 31
0.0
  0
LINE
  5
49
330
1F
100
AcDbEntity
  8
0
  6
Continuous
 62
     7
370
    15
100
AcDbLine
 10
50.3690006699
 20
32.5135540669
 30
0.0
 11
57.8920933438
 21
27.3525541022
 31
0.0
  0
ARC
  5
4A
330
1F
100
AcDbEntity
  8
0
  6
Continuous
 62
     7
370
    15
100
AcDbCircle
 10
59.0234941517
 20
29.0017758011
 30
0.0
 40
2.000000000000005
100
AcDbArc
 50
235.5490572438
 51
316.1078039422
  0
LINE
  5
4B
330
1F
100
AcDbEntity
  8
0
  6
Continuous
 62
     7
370
    15
100
AcDbLine
 10
60.4647852505
 20
27.6151684419
 30
0.0
 11
62.6707316942
 21
29.9081109631
 31
0.0
  0
LINE
  5
4C
330
1F
100
AcDbEntity
  8
0
  6
Continuous
 62
     7
370
    15
100
AcDbLine
 10
52.3947209444
 20
46.5355821039
 30
0.0
 11
50.3690006699
 21
32.5135540669
 31
0.0
  0
LINE
  5
4D
330
1F
100
AcDbEntity
  8
0
  6
Continuous
 62
     7
370
    15
100
AcDbLine
 10
62.6707316942
 20
25.7855821039
 30
0.0
 11
41.9207316942
 21
25.7855821039
 31
0.0
  0
LINE
  5
4E
330
1F
100
AcDbEntity
  8
0
  6
Continuous
 62
     7
370
    15
100
AcDbLine
 10
41.9207316942
 20
25.7855821039
 30
0.0
 11
41.9207316942
 21
46.5355821039
 31
0.0
  0
LINE
  5
4F
330
1F
100
AcDbEntity
  8
0
  6
Continuous
 62
     7
370
    15
100
AcDbLine
 10
41.9207316942
 20
46.5355821039
 30
0.0
 11
52.3947209444
 21
46.5355821039
 31
0.0
  0
LINE
  5
50
330
1F
100
AcDbEntity
  8
0
  6
Continuous
 62
     7
370
    15
100
AcDbLine
 10
62.6707316942
 20
29.9081109631
 30
0.0
 11
62.6707316942
 21
25.7855821039
 31
0.0
  0
LINE
  5
51
330
1F
100
AcDbEntity
  8
0
  6
Continuous
 62
     7
370
    15
100
AcDbLine
 10
-3.8436217009
 20
21.4127921011
 30
0.0
 11
16.9063782991
 21
21.4127921011
 31
0.0
  0
LINE
  5
52
330
1F
100
AcDbEntity
  8
0
  6
Continuous
 62
     7
370
    15
100
AcDbLine
 10
16.9063782991
 20
21.4127921011
 30
0.0
 11
16.9063782991
 21
0.6627921011
 31
0.0
  0
LINE
  5
53
330
1F
100
AcDbEntity
  8
0
  6
Continuous
 62
     7
370
    15
100
AcDbLine
 10
16.9063782991
 20
0.6627921011
 30
0.0
 11
-3.8436217009
 21
0.6627921011
 31
0.0
  0
LINE
  5
54
330
1F
100
AcDbEntity
  8
0
  6
Continuous
 62
     7
370
    15
100
AcDbLine
 10
-3.8436217009
 20
0.6627921011
 30
0.0
 11
-3.8436217009
 21
21.4127921011
 31
0.0
  0
LINE
  5
55
330
1F
100
AcDbEntity
  8
0
  6
Continuous
 62
     7
370
    15
100
AcDbLine
 10
34.2634092954
 20
0.7914424454
 30
0.0
 11
19.2367372555
 21
0.7914424454
 31
0.0
  0
ELLIPSE
  5
56
330
1F
100
AcDbEntity
  8
0
  6
Continuous
 62
     7
370
    15
100
AcDbEllipse
 10
33.1853757831
 20
7.6437879442
 30
0.0
 11
-1.630992010441492
 21
2.011329867485034
 31
5.329070518200751E-15
210
-8.264827809565779E-16
220
-3.319722656461809E-15
230
1.0
 40
0.7530370554
 41
0.0
 42
6.283185307179586
  0
LINE
  5
57
330
1F
100
AcDbEntity
  8
0
  6
Continuous
 62
     7
370
    15
100
AcDbLine
 10
39.9867372555
 20
21.5414424454
 30
0.0
 11
39.9867372555
 21
1.7474355401
 31
0.0
  0
SPLINE
  5
58
330
1F
100
AcDbEntity
  8
0
  6
Continuous
 62
     7
370
    15
100
AcDbSpline
210
0.0
220
0.0
230
1.0
 70
     8
 71
     3
 72
    76
 73
    72
 74
     0
 42
0.00000001
 43
0.00000001
 40
0.0
 40
0.0
 40
0.0
 40
0.0
 40
0.0625000000000004
 40
0.0625000000000004
 40
0.1250000000000008
 40
0.1250000000000008
 40
0.1406250000000009
 40
0.1406250000000009
 40
0.156250000000001
 40
0.156250000000001
 40
0.1875000000000008
 40
0.1875000000000008
 40
0.2187500000000006
 40
0.2187500000000006
 40
0.2500000000000004
 40
0.2500000000000004
 40
0.2656250000000004
 40
0.2656250000000004
 40
0.2812500000000004
 40
0.2812500000000004
 40
0.3125000000000001
 40
0.3125000000000001
 40
0.3437499999999997
 40
0.3437499999999997
 40
0.3749999999999993
 40
0.3749999999999993
 40
0.406249999999999
 40
0.406249999999999
 40
0.4218749999999991
 40
0.4218749999999991
 40
0.4374999999999991
 40
0.4374999999999991
 40
0.4687499999999995
 40
0.4687499999999995
 40
0.4765624999999997
 40
0.4765624999999997
 40
0.4843749999999998
 40
0.4843749999999998
 40
0.5000000000000004
 40
0.5000000000000004
 40
0.5156250000000011
 40
0.5156250000000011
 40
0.5234375000000012
 40
0.5234375000000012
 40
0.5312500000000014
 40
0.5312500000000014
 40
0.5625000000000017
 40
0.5625000000000017
 40
0.5937500000000018
 40
0.5937500000000018
 40
0.609375000000002
 40
0.609375000000002
 40
0.6250000000000022
 40
0.6250000000000022
 40
0.6562500000000024
 40
0.6562500000000024
 40
0.6875000000000027
 40
0.6875000000000027
 40
0.7500000000000024
 40
0.7500000000000024
 40
0.7812500000000026
 40
0.7812500000000026
 40
0.7968750000000024
 40
0.7968750000000024
 40
0.8125000000000023
 40
0.8125000000000023
 40
0.8750000000000018
 40
0.8750000000000018
 40
0.9375000000000009
 40
0.9375000000000009
 40
1.0
 40
1.0
 40
1.0
 40
1.0
 10
34.26340929541696
 20
0.7914424454119628
 30
0.0
 10
34.25677596509374
 20
0.9827887729200281
 30
0.0
 10
34.25653280384538
 20
1.17452225444056
 30
0.0
 10
34.27139693075261
 20
1.55891923795685
 30
0.0
 10
34.28646592092257
 20
1.751580419635473
 30
0.0
 10
34.31751767854468
 20
1.993146984748944
 30
0.0
 10
34.32435486943334
 20
2.041560768884883
 30
0.0
 10
34.33930913989792
 20
2.138157617598699
 30
0.0
 10
34.34741466293728
 20
2.186277377088925
 30
0.0
 10
34.37371822380485
 20
2.330071708862644
 30
0.0
 10
34.39389689571851
 20
2.425183142076857
 30
0.0
 10
34.44021385343775
 20
2.613711555478851
 30
0.0
 10
34.46634877655924
 20
2.707129491753777
 30
0.0
 10
34.52548976130348
 20
2.892011744213531
 30
0.0
 10
34.55848981849431
 20
2.983477767594171
 30
0.0
 10
34.61410905326321
 20
3.118936990203967
 30
0.0
 10
34.63367737645716
 20
3.163810423316122
 30
0.0
 10
34.67505626994072
 20
3.252867802724642
 30
0.0
 10
34.69673286839569
 20
3.296762877604197
 30
0.0
 10
34.76493125720935
 20
3.426414303632377
 30
0.0
 10
34.81460398669861
 20
3.510148187800294
 30
0.0
 10
34.92381736888754
 20
3.671282114689374
 30
0.0
 10
34.98334673273921
 20
3.748692446004682
 30
0.0
 10
35.1144174270438
 20
3.895790911859436
 30
0.0
 10
35.18448508407134
 20
3.963786975100167
 30
0.0
 10
35.3346391272719
 20
4.087503748721679
 30
0.0
 10
35.41471920320433
 20
4.143232190664889
 30
0.0
 10
35.54340047314646
 20
4.216335378338201
 30
0.0
 10
35.58712791195791
 20
4.23860255649218
 30
0.0
 10
35.67593049498336
 20
4.278854302390276
 30
0.0
 10
35.72105323948858
 20
4.296865921209861
 30
0.0
 10
35.85855644849433
 20
4.344644125061641
 30
0.0
 10
35.95306792385783
 20
4.368165676025265
 30
0.0
 10
36.07472539132447
 20
4.387257578299651
 30
0.0
 10
36.09917737655042
 20
4.390548356028035
 30
0.0
 10
36.14797871350467
 20
4.396064155785298
 30
0.0
 10
36.17237809471867
 20
4.398297334999573
 30
0.0
 10
36.24557252736534
 20
4.403484178079118
 30
0.0
 10
36.29436387181719
 20
4.404926783787728
 30
0.0
 10
36.39193736830511
 20
4.404064936496747
 30
0.0
 10
36.44071951940994
 20
4.401760103889855
 30
0.0
 10
36.51388628361176
 20
4.395668596426404
 30
0.0
 10
36.53827412710455
 20
4.393198711737842
 30
0.0
 10
36.5870477214099
 20
4.387405913526546
 30
0.0
 10
36.61147479425378
 20
4.384076058255257
 30
0.0
 10
36.73292647088778
 20
4.36546317900412
 30
0.0
 10
36.82808567317161
 20
4.344337686874993
 30
0.0
 10
37.01515516230769
 20
4.291968723474677
 30
0.0
 10
37.10706100382207
 20
4.260711408249482
 30
0.0
 10
37.24285911482468
 20
4.207408024125484
 30
0.0
 10
37.28778021777184
 20
4.188566013841799
 30
0.0
 10
37.37698162299743
 20
4.148886371062294
 30
0.0
 10
37.42131936835469
 20
4.128019880897627
 30
0.0
 10
37.55304620905959
 20
4.062815201746978
 30
0.0
 10
37.63860099746229
 20
4.016174706888012
 30
0.0
 10
37.80595138562835
 20
3.917626930947503
 30
0.0
 10
37.8877434705242
 20
3.865714725384265
 30
0.0
 10
38.12828826734471
 20
3.70320902680739
 30
0.0
 10
38.28225063062352
 20
3.585904047707342
 30
0.0
 10
38.50571683760601
 20
3.39947050451053
 30
0.0
 10
38.57894695542424
 20
3.335562611960381
 30
0.0
 10
38.6870846790283
 20
3.237308557301345
 30
0.0
 10
38.72287820621656
 20
3.204126524238007
 30
0.0
 10
38.7937079960243
 20
3.137201916866883
 30
0.0
 10
38.82875270383428
 20
3.103453135403195
 30
0.0
 10
39.00223061671737
 20
2.933358335214761
 30
0.0
 10
39.13546383180396
 20
2.792988184903067
 30
0.0
 10
39.39284983130717
 20
2.505220784616633
 30
0.0
 10
39.51698988696186
 20
2.357813684197342
 30
0.0
 10
39.75748576389818
 20
2.056975474946838
 30
0.0
 10
39.87383519060953
 20
1.903539417530638
 30
0.0
 10
39.98673725550034
 20
1.747435540055238
 30
0.0
  0
LINE
  5
59
330
1F
100
AcDbEntity
  8
0
  6
Continuous
 62
     7
370
    15
100
AcDbLine
 10
19.2367372555
 20
0.7914424454
 30
0.0
 11
19.2367372555
 21
21.5414424454
 31
0.0
  0
LINE
  5
5A
330
1F
100
AcDbEntity
  8
0
  6
Continuous
 62
     7
370
    15
100
AcDbLine
 10
19.2367372555
 20
21.5414424454
 30
0.0
 11
39.9867372555
 21
21.5414424454
 31
0.0
  0
ELLIPSE
  5
5B
330
1F
100
AcDbEntity
  8
0
  6
Continuous
 62
     7
370
    15
100
AcDbEllipse
 10
33.2197718421
 20
7.6013709241
 30
0.0
 11
-1.630992010441492
 21
2.011329867485034
 31
7.105427357601002E-15
210
3.131343782712936E-16
220
-3.278779774046700E-15
230
1.0
 40
0.7530370554
 41
0.0
 42
1.560251610390036
  0
ELLIPSE
  5
5C
330
1F
100
AcDbEntity
  8
0
  6
Continuous
 62
     7
370
    15
100
AcDbEllipse
 10
33.2197718421
 20
7.6013709241
 30
0.0
 11
-1.630992010441492
 21
2.011329867485034
 31
7.105427357601002E-15
210
3.131343782712936E-16
220
-3.278779774046700E-15
230
1.0
 40
0.7530370554
 41
4.722933696793339
 42
6.283185307179586
  0
LINE
  5
5D
330
1F
100
AcDbEntity
  8
0
  6
Continuous
 62
     7
370
    15
100
AcDbLine
 10
45.2147076165
 20
22.1484210217
 30
0.0
 11
62.8005568248
 21
22.1484210217
 31
0.0
  0
LINE
  5
5E
330
1F
100
AcDbEntity
  8
0
  6
Continuous
 62
     7
370
    15
100
AcDbLine
 10
62.8005568248
 20
22.1484210217
 30
0.0
 11
62.8005568248
 21
1.3984210217
 31
0.0
  0
LINE
  5
5F
330
1F
100
AcDbEntity
  8
0
  6
Continuous
 62
     7
370
    15
100
AcDbLine
 10
62.8005568248
 20
1.3984210217
 30
0.0
 11
42.0505568248
 21
1.3984210217
 31
0.0
  0
SPLINE
  5
60
330
1F
100
AcDbEntity
  8
0
  6
Continuous
 62
     7
370
    15
100
AcDbSpline
210
0.0
220
0.0
230
1.0
 70
     8
 71
     3
 72
    86
 73
    82
 74
     0
 42
0.00000001
 43
0.00000001
 40
0.0
 40
0.0
 40
0.0
 40
0.0
 40
0.0625000000000019
 40
0.0625000000000019
 40
0.0937500000000029
 40
0.0937500000000029
 40
0.1093750000000033
 40
0.1093750000000033
 40
0.1250000000000038
 40
0.1250000000000038
 40
0.1289062500000038
 40
0.1289062500000038
 40
0.1328125000000039
 40
0.1328125000000039
 40
0.140625000000004
 40
0.140625000000004
 40
0.1562500000000042
 40
0.1562500000000042
 40
0.1875000000000049
 40
0.1875000000000049
 40
0.2187500000000056
 40
0.2187500000000056
 40
0.2500000000000063
 40
0.2500000000000063
 40
0.312500000000008
 40
0.312500000000008
 40
0.3437500000000088
 40
0.3437500000000088
 40
0.3593750000000091
 40
0.3593750000000091
 40
0.3671875000000093
 40
0.3671875000000093
 40
0.3750000000000094
 40
0.3750000000000094
 40
0.40625000000001
 40
0.40625000000001
 40
0.4375000000000108
 40
0.4375000000000108
 40
0.4687500000000114
 40
0.4687500000000114
 40
0.4843750000000116
 40
0.4843750000000116
 40
0.5000000000000118
 40
0.5000000000000118
 40
0.5312500000000121
 40
0.5312500000000121
 40
0.5468750000000122
 40
0.5468750000000122
 40
0.5546875000000122
 40
0.5546875000000122
 40
0.5625000000000122
 40
0.5625000000000122
 40
0.5937500000000119
 40
0.5937500000000119
 40
0.6250000000000115
 40
0.6250000000000115
 40
0.6406250000000111
 40
0.6406250000000111
 40
0.6562500000000108
 40
0.6562500000000108
 40
0.68750000000001
 40
0.68750000000001
 40
0.7187500000000093
 40
0.7187500000000093
 40
0.7343750000000089
 40
0.7343750000000089
 40
0.7500000000000083
 40
0.7500000000000083
 40
0.8125000000000062
 40
0.8125000000000062
 40
0.8437500000000052
 40
0.8437500000000052
 40
0.8750000000000042
 40
0.8750000000000042
 40
0.9375000000000019
 40
0.9375000000000019
 40
0.968750000000001
 40
0.968750000000001
 40
0.9843750000000006
 40
0.9843750000000006
 40
1.0
 40
1.0
 40
1.0
 40
1.0
 10
42.05055682475212
 20
16.22253667406821
 30
0.0
 10
42.25343110316942
 20
16.12923219769791
 30
0.0
 10
42.46181830372257
 20
16.05021069645836
 30
0.0
 10
42.78311350691185
 20
15.95425587071067
 30
0.0
 10
42.89167141710898
 20
15.9260522505967
 30
0.0
 10
43.05683050700681
 20
15.88976328055758
 30
0.0
 10
43.11234449648116
 20
15.87865867961126
 30
0.0
 10
43.2237965830481
 20
15.85860370160345
 30
0.0
 10
43.27969034202196
 20
15.84965794335952
 30
0.0
 10
43.34977134187434
 20
15.83985471769336
 30
0.0
 10
43.3637982370941
 20
15.83796305465792
 30
0.0
 10
43.39187354316073
 20
15.83431849983478
 30
0.0
 10
43.40596843557132
 20
15.83256006135795
 30
0.0
 10
43.44799079290424
 20
15.82752938338703
 30
0.0
 10
43.47599499458976
 20
15.82445921917913
 30
0.0
 10
43.55997542683956
 20
15.81610126452832
 30
0.0
 10
43.61591950023962
 20
15.81166559754968
 30
0.0
 10
43.78362201581817
 20
15.80179560215325
 30
0.0
 10
43.89525103074178
 20
15.79979092941318
 30
0.0
 10
44.11815179748556
 20
15.8052485963666
 30
0.0
 10
44.22942362057906
 20
15.81270904740852
 30
0.0
 10
44.45158844265806
 20
15.83766830079654
 30
0.0
 10
44.56248157596976
 20
15.85516354367153
 30
0.0
 10
44.89454141058432
 20
15.92406695589234
 30
0.0
 10
45.10751444498653
 20
15.99019634116708
 30
0.0
 10
45.41356543885099
 20
16.12117243012983
 30
0.0
 10
45.51334310363376
 20
16.17016305474255
 30
0.0
 10
45.65941791941996
 20
16.25220090695784
 30
0.0
 10
45.70750969983003
 20
16.28097506102855
 30
0.0
 10
45.77870574348962
 20
16.32637833787713
 30
0.0
 10
45.80228072087548
 20
16.34188667431906
 30
0.0
 10
45.84910831266432
 20
16.373670904407
 30
0.0
 10
45.87232392390825
 20
16.38992369079231
 30
0.0
 10
45.98671935564499
 20
16.47250927155191
 30
0.0
 10
46.07350546322749
 20
16.5432285040236
 30
0.0
 10
46.23769240592291
 20
16.69389456499457
 30
0.0
 10
46.31509351522701
 20
16.77384112390921
 30
0.0
 10
46.46030729663339
 20
16.94316158924718
 30
0.0
 10
46.52812173684471
 20
17.03253375726642
 30
0.0
 10
46.62227027290511
 20
17.17403790194606
 30
0.0
 10
46.652142271404
 20
17.22209122767932
 30
0.0
 10
46.70861871699642
 20
17.31941561393013
 30
0.0
 10
46.73527735306957
 20
17.36876779386066
 30
0.0
 10
46.81061789123888
 20
17.51884913173692
 30
0.0
 10
46.85467554213665
 20
17.62159823088871
 30
0.0
 10
46.91170604730779
 20
17.77967766154811
 30
0.0
 10
46.92920404009983
 20
17.83303134573167
 30
0.0
 10
46.95318262793404
 20
17.91405274321404
 30
0.0
 10
46.96079725426593
 20
17.94122509490018
 30
0.0
 10
46.97526796963293
 20
17.99590113856437
 30
0.0
 10
46.9821289434831
 20
18.02343064085871
 30
0.0
 10
47.01434595286648
 20
18.16107929056368
 30
0.0
 10
47.0336261845036
 20
18.2717904928296
 30
0.0
 10
47.06012143850617
 20
18.49431340539877
 30
0.0
 10
47.06733288012107
 20
18.60612544231424
 30
0.0
 10
47.06948644904621
 20
18.77463373298806
 30
0.0
 10
47.06875759045779
 20
18.83093512291066
 30
0.0
 10
47.06444053924972
 20
18.94379871216346
 30
0.0
 10
47.06084203464409
 20
19.00038266133239
 30
0.0
 10
47.04597595178701
 20
19.16887425966062
 30
0.0
 10
47.03063838636297
 20
19.28008374691658
 30
0.0
 10
46.98990957865532
 20
19.50043108006524
 30
0.0
 10
46.9645154447056
 20
19.60956833010678
 30
0.0
 10
46.91924483190397
 20
19.77179482933315
 30
0.0
 10
46.90295589227772
 20
19.82562331996726
 30
0.0
 10
46.86801747965684
 20
19.93279389425885
 30
0.0
 10
46.84932757200772
 20
19.98623862301675
 30
0.0
 10
46.75068497879084
 20
20.25056693360427
 30
0.0
 10
46.65524216873639
 20
20.45328858470304
 30
0.0
 10
46.49004161562699
 20
20.7457174431422
 30
0.0
 10
46.43127440110403
 20
20.84123684229349
 30
0.0
 10
46.30651734233882
 20
21.0284560509207
 30
0.0
 10
46.24033371509869
 20
21.12037198118817
 30
0.0
 10
46.03374138801318
 20
21.38704367044762
 30
0.0
 10
45.88475654207029
 20
21.55382006634074
 30
0.0
 10
45.64543744196042
 20
21.78849733296186
 30
0.0
 10
45.56300900923681
 20
21.86412711091744
 30
0.0
 10
45.43538755776966
 20
21.97368201197314
 30
0.0
 10
45.39218311139403
 20
22.0095512077363
 30
0.0
 10
45.30443692504964
 20
22.07998223124384
 30
0.0
 10
45.25982733069548
 20
22.1145944154997
 30
0.0
 10
45.21470761650054
 20
22.14842102168356
 30
0.0
  0
LINE
  5
61
330
1F
100
AcDbEntity
  8
0
  6
Continuous
 62
     7
370
    15
100
AcDbLine
 10
42.0505568248
 20
1.3984210217
 30
0.0
 11
42.0505568248
 21
16.2225366741
 31
0.0
  0
ENDSEC
  0
SECTION
  2
OBJECTS
  0
DICTIONARY
  5
C
330
0
100
AcDbDictionary
281
     1
  3
ACAD_GROUP
350
D
  3
ACAD_LAYOUT
350
1A
  3
ACAD_MLEADERSTYLE
350
64
  3
ACAD_MLINESTYLE
350
17
  3
ACAD_PLOTSETTINGS
350
19
  3
ACAD_PLOTSTYLENAME
350
E
  3
ACAD_VISUALSTYLE
350
2A
  3
AcDbVariableDictionary
350
62
  0
DICTIONARY
  5
D
102
{ACAD_REACTORS
330
C
102
}
330
C
100
AcDbDictionary
281
     1
  0
DICTIONARY
  5
1A
102
{ACAD_REACTORS
330
C
102
}
330
C
100
AcDbDictionary
281
     1
  3
Layout1
350
1E
  3
Layout2
350
26
  3
Model
350
22
  0
DICTIONARY
  5
64
102
{ACAD_REACTORS
330
C
102
}
330
C
100
AcDbDictionary
281
     1
  0
DICTIONARY
  5
17
102
{ACAD_REACTORS
330
C
102
}
330
C
100
AcDbDictionary
281
     1
  3
Standard
350
18
  0
DICTIONARY
  5
19
102
{ACAD_REACTORS
330
C
102
}
330
C
100
AcDbDictionary
281
     1
  0
ACDBDICTIONARYWDFLT
  5
E
102
{ACAD_REACTORS
330
C
102
}
330
C
100
AcDbDictionary
281
     1
  3
Normal
350
F
100
AcDbDictionaryWithDefault
340
F
  0
DICTIONARY
  5
2A
102
{ACAD_REACTORS
330
C
102
}
330
C
100
AcDbDictionary
281
     1
  3
2dWireframe
350
2F
  3
3D Hidden
350
31
  3
3dWireframe
350
30
  3
Basic
350
32
  3
Brighten
350
36
  3
ColorChange
350
3A
  3
Conceptual
350
34
  3
Dim
350
35
  3
Facepattern
350
39
  3
Flat
350
2B
  3
FlatWithEdges
350
2C
  3
Gouraud
350
2D
  3
GouraudWithEdges
350
2E
  3
Linepattern
350
38
  3
Realistic
350
33
  3
Thicken
350
37
  0
DICTIONARY
  5
62
102
{ACAD_REACTORS
330
C
102
}
330
C
100
AcDbDictionary
281
     1
  3
DIMASSOC
350
65
  3
HIDETEXT
350
66
  0
LAYOUT
  5
1E
102
{ACAD_REACTORS
330
1A
102
}
330
1A
100
AcDbPlotSettings
  1

  2
none_device
  4

  6

 40
0.0
 41
0.0
 42
0.0
 43
0.0
 44
0.0
 45
0.0
 46
0.0
 47
0.0
 48
0.0
 49
0.0
140
0.0
141
0.0
142
1.0
143
1.0
 70
   688
 72
     0
 73
     0
 74
     5
  7

 75
    16
147
1.0
148
0.0
149
0.0
100
AcDbLayout
  1
Layout1
 70
     1
 71
     1
 10
0.0
 20
0.0
 11
12.0
 21
9.0
 12
0.0
 22
0.0
 32
0.0
 14
1.0000000000E+20
 24
1.0000000000E+20
 34
1.0000000000E+20
 15
-1.0000000000E+20
 25
-1.0000000000E+20
 35
-1.0000000000E+20
146
0.0
 13
0.0
 23
0.0
 33
0.0
 16
1.0
 26
0.0
 36
0.0
 17
0.0
 27
1.0
 37
0.0
 76
     0
330
1B
  0
LAYOUT
  5
26
102
{ACAD_REACTORS
330
1A
102
}
330
1A
100
AcDbPlotSettings
  1

  2
none_device
  4

  6

 40
0.0
 41
0.0
 42
0.0
 43
0.0
 44
0.0
 45
0.0
 46
0.0
 47
0.0
 48
0.0
 49
0.0
140
0.0
141
0.0
142
1.0
143
1.0
 70
   688
 72
     0
 73
     0
 74
     5
  7

 75
    16
147
1.0
148
0.0
149
0.0
100
AcDbLayout
  1
Layout2
 70
     1
 71
     2
 10
0.0
 20
0.0
 11
0.0
 21
0.0
 12
0.0
 22
0.0
 32
0.0
 14
0.0
 24
0.0
 34
0.0
 15
0.0
 25
0.0
 35
0.0
146
0.0
 13
0.0
 23
0.0
 33
0.0
 16
1.0
 26
0.0
 36
0.0
 17
0.0
 27
1.0
 37
0.0
 76
     0
330
23
  0
LAYOUT
  5
22
102
{ACAD_REACTORS
330
1A
102
}
330
1A
100
AcDbPlotSettings
  1

  2
none_device
  4

  6

 40
0.0
 41
0.0
 42
0.0
 43
0.0
 44
0.0
 45
0.0
 46
0.0
 47
0.0
 48
0.0
 49
0.0
140
0.0
141
0.0
142
1.0
143
1.0
 70
  1712
 72
     0
 73
     0
 74
     0
  7

 75
     0
147
1.0
148
0.0
149
0.0
100
AcDbLayout
  1
Model
 70
     1
 71
     0
 10
0.0
 20
0.0
 11
48.0
 21
48.0
 12
0.0
 22
0.0
 32
0.0
 14
0.0
 24
0.0
 34
0.0
 15
48.0
 25
48.0
 35
0.0
146
0.0
 13
0.0
 23
0.0
 33
0.0
 16
1.0
 26
0.0
 36
0.0
 17
0.0
 27
1.0
 37
0.0
 76
     0
330
1F
331
29
  0
MLINESTYLE
  5
18
102
{ACAD_REACTORS
330
17
102
}
330
17
100
AcDbMlineStyle
  2
Standard
 70
     0
  3

 62
   256
 51
90.0
 52
90.0
 71
     2
 49
0.5
 62
   256
  6
BYLAYER
 49
-0.5
 62
   256
  6
BYLAYER
  0
ACDBPLACEHOLDER
  5
F
102
{ACAD_REACTORS
330
E
102
}
330
E
  0
VISUALSTYLE
  5
2F
102
{ACAD_REACTORS
330
2A
102
}
330
2A
100
AcDbVisualStyle
  2
2dWireframe
 70
     4
 71
     0
 72
     2
 73
     0
 90
        0
 40
-0.6
 41
-30.0
 62
     5
 63
     7
 74
     1
 91
        4
 64
     7
 65
   257
 75
     1
175
     1
 42
1.0
 92
        0
 66
   257
 43
1.0
 76
     1
 77
     6
 78
     2
 67
     7
 79
     5
170
     0
171
     0
290
     0
174
     0
 93
        1
 44
0.0
173
     0
291
     0
 45
0.0
1001
ACAD
1000
AcDbSavedByObjectVersion
1070
     0
  0
VISUALSTYLE
  5
31
102
{ACAD_REACTORS
330
2A
102
}
330
2A
100
AcDbVisualStyle
  2
3D Hidden
 70
     6
 71
     1
 72
     2
 73
     2
 90
        0
 40
-0.6
 41
-30.0
 62
     5
 63
     7
 74
     2
 91
        2
 64
     7
 65
   257
 75
     2
175
     1
 42
40.0
 92
        0
 66
   257
 43
1.0
 76
     1
 77
     6
 78
     2
 67
     7
 79
     3
170
     0
171
     0
290
     0
174
     0
 93
        1
 44
0.0
173
     0
291
     0
 45
0.0
1001
ACAD
1000
AcDbSavedByObjectVersion
1070
     0
  0
VISUALSTYLE
  5
30
102
{ACAD_REACTORS
330
2A
102
}
330
2A
100
AcDbVisualStyle
  2
3dWireframe
 70
     5
 71
     0
 72
     2
 73
     0
 90
        0
 40
-0.6
 41
-30.0
 62
     5
 63
     7
 74
     1
 91
        4
 64
     7
 65
   257
 75
     1
175
     1
 42
1.0
 92
        0
 66
   257
 43
1.0
 76
     1
 77
     6
 78
     2
 67
     7
 79
     5
170
     0
171
     0
290
     0
174
     0
 93
        1
 44
0.0
173
     0
291
     0
 45
0.0
1001
ACAD
1000
AcDbSavedByObjectVersion
1070
     0
  0
VISUALSTYLE
  5
32
102
{ACAD_REACTORS
330
2A
102
}
330
2A
100
AcDbVisualStyle
  2
Basic
 70
     7
 71
     1
 72
     0
 73
     1
 90
        0
 40
-0.6
 41
-30.0
 62
     5
 63
     7
 74
     0
 91
        4
 64
     7
 65
   257
 75
     1
175
     1
 42
1.0
 92
        8
 66
     7
 43
1.0
 76
     1
 77
     6
 78
     2
 67
     7
 79
     5
170
     0
171
     0
290
     0
174
     0
 93
        1
 44
0.0
173
     0
291
     1
 45
0.0
1001
ACAD
1000
AcDbSavedByObjectVersion
1070
     0
  0
VISUALSTYLE
  5
36
102
{ACAD_REACTORS
330
2A
102
}
330
2A
100
AcDbVisualStyle
  2
Brighten
 70
    12
 71
     2
 72
     2
 73
     0
 90
        0
 40
-0.6
 41
-30.0
 62
     5
 63
     7
 74
     1
 91
        4
 64
     7
 65
   257
 75
     1
175
     1
 42
1.0
 92
        8
 66
     7
 43
1.0
 76
     1
 77
     6
 78
     2
 67
     7
 79
     5
170
     0
171
     0
290
     0
174
     0
 93
        1
 44
50.0
173
     0
291
     1
 45
0.0
1001
ACAD
1000
AcDbSavedByObjectVersion
1070
     0
  0
VISUALSTYLE
  5
3A
102
{ACAD_REACTORS
330
2A
102
}
330
2A
100
AcDbVisualStyle
  2
ColorChange
 70
    16
 71
     2
 72
     2
 73
     3
 90
        0
 40
-0.6
 41
-30.0
 62
     5
 63
     8
 74
     1
 91
        4
 64
     7
 65
   257
 75
     1
175
     1
 42
1.0
 92
        8
 66
     8
 43
1.0
 76
     1
 77
     6
 78
     2
 67
     7
 79
     5
170
     0
171
     0
290
     0
174
     0
 93
        1
 44
0.0
173
     0
291
     1
 45
0.0
1001
ACAD
1000
AcDbSavedByObjectVersion
1070
     0
  0
VISUALSTYLE
  5
34
102
{ACAD_REACTORS
330
2A
102
}
330
2A
100
AcDbVisualStyle
  2
Conceptual
 70
     9
 71
     3
 72
     2
 73
     0
 90
        0
 40
-0.6
 41
-30.0
 62
     5
 63
     7
 74
     2
 91
        2
 64
     7
 65
   257
 75
     1
175
     1
 42
40.0
 92
        8
 66
     7
 43
1.0
 76
     1
 77
     6
 78
     2
 67
     7
 79
     3
170
     0
171
     0
290
     0
174
     0
 93
        1
 44
0.0
173
     0
291
     0
 45
0.0
1001
ACAD
1000
AcDbSavedByObjectVersion
1070
     0
  0
VISUALSTYLE
  5
35
102
{ACAD_REACTORS
330
2A
102
}
330
2A
100
AcDbVisualStyle
  2
Dim
 70
    11
 71
     2
 72
     2
 73
     0
 90
        0
 40
-0.6
 41
-30.0
 62
     5
 63
     7
 74
     1
 91
        4
 64
     7
 65
   257
 75
     1
175
     1
 42
1.0
 92
        8
 66
     7
 43
1.0
 76
     1
 77
     6
 78
     2
 67
     7
 79
     5
170
     0
171
     0
290
     0
174
     0
 93
        1
 44
-50.0
173
     0
291
     1
 45
0.0
1001
ACAD
1000
AcDbSavedByObjectVersion
1070
     0
  0
VISUALSTYLE
  5
39
102
{ACAD_REACTORS
330
2A
102
}
330
2A
100
AcDbVisualStyle
  2
Facepattern
 70
    15
 71
     2
 72
     2
 73
     0
 90
        0
 40
-0.6
 41
-30.0
 62
     5
 63
     7
 74
     1
 91
        4
 64
     7
 65
   257
 75
     1
175
     1
 42
1.0
 92
        8
 66
     7
 43
1.0
 76
     1
 77
     6
 78
     2
 67
     7
 79
     5
170
     0
171
     0
290
     0
174
     0
 93
        1
 44
0.0
173
     0
291
     1
 45
0.0
1001
ACAD
1000
AcDbSavedByObjectVersion
1070
     0
  0
VISUALSTYLE
  5
2B
102
{ACAD_REACTORS
330
2A
102
}
330
2A
100
AcDbVisualStyle
  2
Flat
 70
     0
 71
     2
 72
     1
 73
     1
 90
        2
 40
-0.6
 41
30.0
 62
     5
 63
     7
 74
     0
 91
        4
 64
     7
 65
   257
 75
     1
175
     1
 42
1.0
 92
        8
 66
     7
 43
1.0
 76
     1
 77
     6
 78
     2
 67
     7
 79
     5
170
     0
171
     0
290
     0
174
     0
 93
       13
 44
0.0
173
     0
291
     1
 45
0.0
1001
ACAD
1000
AcDbSavedByObjectVersion
1070
     0
  0
VISUALSTYLE
  5
2C
102
{ACAD_REACTORS
330
2A
102
}
330
2A
100
AcDbVisualStyle
  2
FlatWithEdges
 70
     1
 71
     2
 72
     1
 73
     1
 90
        2
 40
-0.6
 41
30.0
 62
     5
 63
     7
 74
     1
 91
        4
 64
     7
 65
   257
 75
     1
175
     1
 42
1.0
 92
        0
 66
   257
 43
1.0
 76
     1
 77
     6
 78
     2
 67
     7
 79
     5
170
     0
171
     0
290
     0
174
     0
 93
       13
 44
0.0
173
     0
291
     1
 45
0.0
1001
ACAD
1000
AcDbSavedByObjectVersion
1070
     0
  0
VISUALSTYLE
  5
2D
102
{ACAD_REACTORS
330
2A
102
}
330
2A
100
AcDbVisualStyle
  2
Gouraud
 70
     2
 71
     2
 72
     2
 73
     1
 90
        2
 40
-0.6
 41
30.0
 62
     5
 63
     7
 74
     0
 91
        4
 64
     7
 65
   257
 75
     1
175
     1
 42
1.0
 92
        0
 66
     7
 43
1.0
 76
     1
 77
     6
 78
     2
 67
     7
 79
     5
170
     0
171
     0
290
     0
174
     0
 93
       13
 44
0.0
173
     0
291
     1
 45
0.0
1001
ACAD
1000
AcDbSavedByObjectVersion
1070
     0
  0
VISUALSTYLE
  5
2E
102
{ACAD_REACTORS
330
2A
102
}
330
2A
100
AcDbVisualStyle
  2
GouraudWithEdges
 70
     3
 71
     2
 72
     2
 73
     1
 90
        2
 40
-0.6
 41
30.0
 62
     5
 63
     7
 74
     1
 91
        4
 64
     7
 65
   257
 75
     1
175
     1
 42
1.0
 92
        0
 66
   257
 43
1.0
 76
     1
 77
     6
 78
     2
 67
     7
 79
     5
170
     0
171
     0
290
     0
174
     0
 93
       13
 44
0.0
173
     0
291
     1
 45
0.0
1001
ACAD
1000
AcDbSavedByObjectVersion
1070
     0
  0
VISUALSTYLE
  5
38
102
{ACAD_REACTORS
330
2A
102
}
330
2A
100
AcDbVisualStyle
  2
Linepattern
 70
    14
 71
     2
 72
     2
 73
     0
 90
        0
 40
-0.6
 41
-30.0
 62
     5
 63
     7
 74
     1
 91
        4
 64
     7
 65
   257
 75
     7
175
     7
 42
1.0
 92
        8
 66
     7
 43
1.0
 76
     1
 77
     6
 78
     2
 67
     7
 79
     5
170
     0
171
     0
290
     0
174
     0
 93
        1
 44
0.0
173
     0
291
     1
 45
0.0
1001
ACAD
1000
AcDbSavedByObjectVersion
1070
     0
  0
VISUALSTYLE
  5
33
102
{ACAD_REACTORS
330
2A
102
}
330
2A
100
AcDbVisualStyle
  2
Realistic
 70
     8
 71
     2
 72
     2
 73
     0
 90
        0
 40
-0.6
 41
-30.0
 62
     5
 63
     7
 74
     1
 91
        0
 64
     7
 65
   257
 75
     1
175
     1
 42
1.0
 92
        8
 66
     8
 43
1.0
 76
     1
 77
     6
 78
     2
 67
     7
 79
     5
170
     0
171
     0
290
     0
174
     0
 93
       13
 44
0.0
173
     0
291
     0
 45
0.0
1001
ACAD
1000
AcDbSavedByObjectVersion
1070
     0
  0
VISUALSTYLE
  5
37
102
{ACAD_REACTORS
330
2A
102
}
330
2A
100
AcDbVisualStyle
  2
Thicken
 70
    13
 71
     2
 72
     2
 73
     0
 90
        0
 40
-0.6
 41
-30.0
 62
     5
 63
     7
 74
     1
 91
        4
 64
     7
 65
   257
 75
     1
175
     1
 42
1.0
 92
       12
 66
     7
 43
1.0
 76
     1
 77
     6
 78
     2
 67
     7
 79
     5
170
     0
171
     0
290
     0
174
     0
 93
        1
 44
0.0
173
     0
291
     1
 45
0.0
1001
ACAD
1000
AcDbSavedByObjectVersion
1070
     0
  0
DICTIONARYVAR
  5
65
102
{ACAD_REACTORS
330
62
102
}
330
62
100
DictionaryVariables
280
     0
  1
2
  0
DICTIONARYVAR
  5
66
102
{ACAD_REACTORS
330
62
102
}
330
62
100
DictionaryVariables
280
     0
  1
1
  0
ENDSEC
  0
EOF
