  0
SECTION
  2
HEADER
  9
$ACADVER
  1
AC1015
  9
$ACADMAINTVER
 70
     6
  9
$DWGCODEPAGE
  3
ANSI_1252
  9
$INSBASE
 10
0.0
 20
0.0
 30
0.0
  9
$EXTMIN
 10
0.0
 20
0.0
 30
0.0
  9
$EXTMAX
 10
48.0
 20
48.0
 30
0.0
  9
$LIMMIN
 10
0.0
 20
0.0
  9
$LIMMAX
 10
48.0
 20
48.0
  9
$ORTHOMODE
 70
     0
  9
$REGENMODE
 70
     1
  9
$FILLMODE
 70
     1
  9
$QTEXTMODE
 70
     0
  9
$MIRRTEXT
 70
     1
  9
$LTSCALE
 40
1.0
  9
$ATTMODE
 70
     1
  9
$TEXTSIZE
 40
0.1377952756
  9
$TRACEWID
 40
0.05
  9
$TEXTSTYLE
  7
Standard
  9
$CLAYER
  8
0
  9
$CELTYPE
  6
ByLayer
  9
$CECOLOR
 62
   256
  9
$CELTSCALE
 40
1.0
  9
$DISPSILH
 70
     0
  9
$DIMSCALE
 40
1.0
  9
$DIMASZ
 40
0.13
  9
$DIMEXO
 40
0.0393700787
  9
$DIMDLI
 40
0.38
  9
$DIMRND
 40
0.0
  9
$DIMDLE
 40
0.0
  9
$DIMEXE
 40
0.0393700787
  9
$DIMTP
 40
0.0
  9
$DIMTM
 40
0.0
  9
$DIMTXT
 40
0.1377952756
  9
$DIMCEN
 40
0.09
  9
$DIMTSZ
 40
0.0
  9
$DIMTOL
 70
     0
  9
$DIMLIM
 70
     0
  9
$DIMTIH
 70
     1
  9
$DIMTOH
 70
     1
  9
$DIMSE1
 70
     0
  9
$DIMSE2
 70
     0
  9
$DIMTAD
 70
     1
  9
$DIMZIN
 70
     0
  9
$DIMBLK
  1

  9
$DIMASO
 70
     1
  9
$DIMSHO
 70
     1
  9
$DIMPOST
  1

  9
$DIMAPOST
  1

  9
$DIMALT
 70
     0
  9
$DIMALTD
 70
     2
  9
$DIMALTF
 40
25.4
  9
$DIMLFAC
 40
2.0
  9
$DIMTOFL
 70
     0
  9
$DIMTVP
 40
0.0
  9
$DIMTIX
 70
     0
  9
$DIMSOXD
 70
     0
  9
$DIMSAH
 70
     0
  9
$DIMBLK1
  1

  9
$DIMBLK2
  1

  9
$DIMSTYLE
  2
Standard
  9
$DIMCLRD
 70
     0
  9
$DIMCLRE
 70
     0
  9
$DIMCLRT
 70
     0
  9
$DIMTFAC
 40
1.0
  9
$DIMGAP
 40
0.06
  9
$DIMJUST
 70
     0
  9
$DIMSD1
 70
     0
  9
$DIMSD2
 70
     0
  9
$DIMTOLJ
 70
     1
  9
$DIMTZIN
 70
     0
  9
$DIMALTZ
 70
     0
  9
$DIMALTTZ
 70
     0
  9
$DIMUPT
 70
     0
  9
$DIMDEC
 70
     3
  9
$DIMTDEC
 70
     3
  9
$DIMALTU
 70
     2
  9
$DIMALTTD
 70
     2
  9
$DIMTXSTY
  7
Standard
  9
$DIMAUNIT
 70
     0
  9
$DIMADEC
 70
     2
  9
$DIMALTRND
 40
0.0
  9
$DIMAZIN
 70
     0
  9
$DIMDSEP
 70
    46
  9
$DIMATFIT
 70
     3
  9
$DIMFRAC
 70
     0
  9
$DIMLDRBLK
  1

  9
$DIMLUNIT
 70
     2
  9
$DIMLWD
 70
    -2
  9
$DIMLWE
 70
    -2
  9
$DIMTMOVE
 70
     0
  9
$LUNITS
 70
     2
  9
$LUPREC
 70
     2
  9
$SKETCHINC
 40
0.1
  9
$FILLETRAD
 40
0.5
  9
$AUNITS
 70
     0
  9
$AUPREC
 70
     2
  9
$MENU
  1
.
  9
$ELEVATION
 40
0.0
  9
$PELEVATION
 40
0.0
  9
$THICKNESS
 40
0.0
  9
$LIMCHECK
 70
     0
  9
$CHAMFERA
 40
0.5
  9
$CHAMFERB
 40
0.5
  9
$CHAMFERC
 40
1.0
  9
$CHAMFERD
 40
0.0
  9
$SKPOLY
 70
     0
  9
$TDCREATE
 40
2455401.795182153
  9
$TDUCREATE
 40
2455402.08684882
  9
$TDUPDATE
 40
2455401.795182164
  9
$TDUUPDATE
 40
2455402.086848831
  9
$TDINDWG
 40
0.0000000116
  9
$TDUSRTIMER
 40
0.0000000116
  9
$USRTIMER
 70
     1
  9
$ANGBASE
 50
0.0
  9
$ANGDIR
 70
     0
  9
$PDMODE
 70
     0
  9
$PDSIZE
 40
-1.0
  9
$PLINEWID
 40
0.0
  9
$SPLFRAME
 70
     0
  9
$SPLINETYPE
 70
     6
  9
$SPLINESEGS
 70
     8
  9
$HANDSEED
  5
70
  9
$SURFTAB1
 70
     6
  9
$SURFTAB2
 70
     6
  9
$SURFTYPE
 70
     6
  9
$SURFU
 70
     6
  9
$SURFV
 70
     6
  9
$UCSBASE
  2

  9
$UCSNAME
  2

  9
$UCSORG
 10
0.0
 20
0.0
 30
0.0
  9
$UCSXDIR
 10
1.0
 20
0.0
 30
0.0
  9
$UCSYDIR
 10
0.0
 20
1.0
 30
0.0
  9
$UCSORTHOREF
  2

  9
$UCSORTHOVIEW
 70
     0
  9
$UCSORGTOP
 10
0.0
 20
0.0
 30
0.0
  9
$UCSORGBOTTOM
 10
0.0
 20
0.0
 30
0.0
  9
$UCSORGLEFT
 10
0.0
 20
0.0
 30
0.0
  9
$UCSORGRIGHT
 10
0.0
 20
0.0
 30
0.0
  9
$UCSORGFRONT
 10
0.0
 20
0.0
 30
0.0
  9
$UCSORGBACK
 10
0.0
 20
0.0
 30
0.0
  9
$PUCSBASE
  2

  9
$PUCSNAME
  2

  9
$PUCSORG
 10
0.0
 20
0.0
 30
0.0
  9
$PUCSXDIR
 10
1.0
 20
0.0
 30
0.0
  9
$PUCSYDIR
 10
0.0
 20
1.0
 30
0.0
  9
$PUCSORTHOREF
  2

  9
$PUCSORTHOVIEW
 70
     0
  9
$PUCSORGTOP
 10
0.0
 20
0.0
 30
0.0
  9
$PUCSORGBOTTOM
 10
0.0
 20
0.0
 30
0.0
  9
$PUCSORGLEFT
 10
0.0
 20
0.0
 30
0.0
  9
$PUCSORGRIGHT
 10
0.0
 20
0.0
 30
0.0
  9
$PUCSORGFRONT
 10
0.0
 20
0.0
 30
0.0
  9
$PUCSORGBACK
 10
0.0
 20
0.0
 30
0.0
  9
$USERI1
 70
     0
  9
$USERI2
 70
     0
  9
$USERI3
 70
     0
  9
$USERI4
 70
     0
  9
$USERI5
 70
     0
  9
$USERR1
 40
0.0
  9
$USERR2
 40
0.0
  9
$USERR3
 40
0.0
  9
$USERR4
 40
0.0
  9
$USERR5
 40
0.0
  9
$WORLDVIEW
 70
     1
  9
$SHADEDGE
 70
     3
  9
$SHADEDIF
 70
    70
  9
$TILEMODE
 70
     1
  9
$MAXACTVP
 70
    64
  9
$PINSBASE
 10
0.0
 20
0.0
 30
0.0
  9
$PLIMCHECK
 70
     0
  9
$PEXTMIN
 10
1.0000000000E+20
 20
1.0000000000E+20
 30
1.0000000000E+20
  9
$PEXTMAX
 10
-1.0000000000E+20
 20
-1.0000000000E+20
 30
-1.0000000000E+20
  9
$PLIMMIN
 10
0.0
 20
0.0
  9
$PLIMMAX
 10
12.0
 20
9.0
  9
$UNITMODE
 70
     0
  9
$VISRETAIN
 70
     1
  9
$PLINEGEN
 70
     0
  9
$PSLTSCALE
 70
     1
  9
$TREEDEPTH
 70
  3020
  9
$CMLSTYLE
  2
Standard
  9
$CMLJUST
 70
     0
  9
$CMLSCALE
 40
1.0
  9
$PROXYGRAPHICS
 70
     1
  9
$MEASUREMENT
 70
     0
  9
$CELWEIGHT
370
    -1
  9
$ENDCAPS
280
     0
  9
$JOINSTYLE
280
     0
  9
$LWDISPLAY
290
     1
  9
$INSUNITS
 70
     1
  9
$HYPERLINKBASE
  1

  9
$STYLESHEET
  1

  9
$XEDIT
290
     1
  9
$CEPSNTYPE
380
     0
  9
$PSTYLEMODE
290
     1
  9
$FINGERPRINTGUID
  2
{78A2EB7F-F262-4BDC-9764-AA238F8778A5}
  9
$VERSIONGUID
  2
{FAEB1C32-E019-11D5-929B-00C0DF256EC4}
  9
$EXTNAMES
290
     1
  9
$PSVPSCALE
 40
0.0
  9
$OLESTARTUP
290
     0
  0
ENDSEC
  0
SECTION
  2
CLASSES
  0
CLASS
  1
ACDBDICTIONARYWDFLT
  2
AcDbDictionaryWithDefault
  3
ObjectDBX Classes
 90
        0
280
     0
281
     0
  0
CLASS
  1
VISUALSTYLE
  2
AcDbVisualStyle
  3
ObjectDBX Classes
 90
     4095
280
     0
281
     0
  0
CLASS
  1
DICTIONARYVAR
  2
AcDbDictionaryVar
  3
ObjectDBX Classes
 90
        0
280
     0
281
     0
  0
CLASS
  1
ACDBPLACEHOLDER
  2
AcDbPlaceHolder
  3
ObjectDBX Classes
 90
        0
280
     0
281
     0
  0
CLASS
  1
LAYOUT
  2
AcDbLayout
  3
ObjectDBX Classes
 90
        0
280
     0
281
     0
  0
ENDSEC
  0
SECTION
  2
TABLES
  0
TABLE
  2
VPORT
  5
8
330
0
100
AcDbSymbolTable
 70
     1
  0
VPORT
  5
29
330
8
100
AcDbSymbolTableRecord
100
AcDbViewportTableRecord
  2
*Active
 70
     0
 10
0.0
 20
0.0
 11
1.0
 21
1.0
 12
24.0
 22
24.0
 13
0.0
 23
0.0
 14
0.5
 24
0.5
 15
0.5
 25
0.5
 16
0.0
 26
0.0
 36
1.0
 17
0.0
 27
0.0
 37
0.0
 40
48.0
 41
1.0
 42
50.0
 43
0.0
 44
0.0
 50
0.0
 51
0.0
 71
     0
 72
  2000
 73
     1
 74
     3
 75
     0
 76
     0
 77
     0
 78
     0
281
     0
 65
     1
110
0.0
120
0.0
130
0.0
111
1.0
121
0.0
131
0.0
112
0.0
122
1.0
132
0.0
 79
     0
146
0.0
  0
ENDTAB
  0
TABLE
  2
LTYPE
  5
5
330
0
100
AcDbSymbolTable
 70
     6
  0
LTYPE
  5
14
330
5
100
AcDbSymbolTableRecord
100
AcDbLinetypeTableRecord
  2
ByBlock
 70
     0
  3

 72
    65
 73
     0
 40
0.0
  0
LTYPE
  5
15
330
5
100
AcDbSymbolTableRecord
100
AcDbLinetypeTableRecord
  2
ByLayer
 70
     0
  3

 72
    65
 73
     0
 40
0.0
  0
LTYPE
  5
16
330
5
100
AcDbSymbolTableRecord
100
AcDbLinetypeTableRecord
  2
Continuous
 70
     0
  3
Solid line
 72
    65
 73
     0
 40
0.0
  0
LTYPE
  5
3B
330
5
100
AcDbSymbolTableRecord
100
AcDbLinetypeTableRecord
  2
HIDDEN
 70
     0
  3
Hidden __ __ __ __ __ __ __ __ __ __ __ __ __ __
 72
    65
 73
     2
 40
0.075
 49
0.05
 74
     0
 49
-0.025
 74
     0
  0
LTYPE
  5
3C
330
5
100
AcDbSymbolTableRecord
100
AcDbLinetypeTableRecord
  2
PHANTOM
 70
     0
  3
Phantom ______  __  __  ______  __  __  ______
 72
    65
 73
     6
 40
0.5
 49
0.25
 74
     0
 49
-0.05
 74
     0
 49
0.05
 74
     0
 49
-0.05
 74
     0
 49
0.05
 74
     0
 49
-0.05
 74
     0
  0
LTYPE
  5
3D
330
5
100
AcDbSymbolTableRecord
100
AcDbLinetypeTableRecord
  2
CENTER
 70
     0
  3
Center ____ _ ____ _ ____ _ ____ _ ____ _ ____
 72
    65
 73
     4
 40
0.4
 49
0.25
 74
     0
 49
-0.05
 74
     0
 49
0.05
 74
     0
 49
-0.05
 74
     0
  0
LTYPE
  5
3E
330
5
100
AcDbSymbolTableRecord
100
AcDbLinetypeTableRecord
  2
CENTERX2
 70
     0
  3
Center (2x) ________  __  ________  __  _____
 72
    65
 73
     4
 40
0.8
 49
0.5
 74
     0
 49
-0.1
 74
     0
 49
0.1
 74
     0
 49
-0.1
 74
     0
  0
LTYPE
  5
3F
330
5
100
AcDbSymbolTableRecord
100
AcDbLinetypeTableRecord
  2
DOT2
 70
     0
  3
Dot (.5x) ........................................
 72
    65
 73
     2
 40
0.025
 49
0.0
 74
     0
 49
-0.025
 74
     0
  0
ENDTAB
  0
TABLE
  2
LAYER
  5
2
330
0
100
AcDbSymbolTable
 70
     1
  0
LAYER
  5
10
330
2
100
AcDbSymbolTableRecord
100
AcDbLayerTableRecord
  2
0
 70
     0
 62
     7
  6
Continuous
370
    -3
390
F
  0
ENDTAB
  0
TABLE
  2
STYLE
  5
3
330
0
100
AcDbSymbolTable
 70
     1
  0
STYLE
  5
11
330
3
100
AcDbSymbolTableRecord
100
AcDbTextStyleTableRecord
  2
Standard
 70
     0
 40
0.0
 41
1.0
 50
0.0
 71
     0
 42
0.2
  3
txt
  4

  0
ENDTAB
  0
TABLE
  2
VIEW
  5
6
330
0
100
AcDbSymbolTable
 70
     0
  0
ENDTAB
  0
TABLE
  2
UCS
  5
7
330
0
100
AcDbSymbolTable
 70
     0
  0
ENDTAB
  0
TABLE
  2
APPID
  5
9
330
0
100
AcDbSymbolTable
 70
     1
  0
APPID
  5
12
330
9
100
AcDbSymbolTableRecord
100
AcDbRegAppTableRecord
  2
ACAD
 70
     0
  0
ENDTAB
  0
TABLE
  2
DIMSTYLE
  5
A
330
0
100
AcDbSymbolTable
 70
     1
100
AcDbDimStyleTable
  0
DIMSTYLE
105
27
330
A
100
AcDbSymbolTableRecord
100
AcDbDimStyleTableRecord
  2
Standard
 70
     0
340
11
  0
ENDTAB
  0
TABLE
  2
BLOCK_RECORD
  5
1
330
0
100
AcDbSymbolTable
 70
     1
  0
BLOCK_RECORD
  5
1F
330
1
100
AcDbSymbolTableRecord
100
AcDbBlockTableRecord
  2
*Model_Space
340
22
  0
BLOCK_RECORD
  5
1B
330
1
100
AcDbSymbolTableRecord
100
AcDbBlockTableRecord
  2
*Paper_Space
340
1E
  0
BLOCK_RECORD
  5
23
330
1
100
AcDbSymbolTableRecord
100
AcDbBlockTableRecord
  2
*Paper_Space0
340
26
  0
ENDTAB
  0
ENDSEC
  0
SECTION
  2
BLOCKS
  0
BLOCK
  5
20
330
1F
100
AcDbEntity
  8
0
100
AcDbBlockBegin
  2
*Model_Space
 70
     0
 10
0.0
 20
0.0
 30
0.0
  3
*Model_Space
  1

  0
ENDBLK
  5
21
330
1F
100
AcDbEntity
  8
0
100
AcDbBlockEnd
  0
BLOCK
  5
1C
330
1B
100
AcDbEntity
 67
     1
  8
0
100
AcDbBlockBegin
  2
*Paper_Space
 70
     0
 10
0.0
 20
0.0
 30
0.0
  3
*Paper_Space
  1

  0
ENDBLK
  5
1D
330
1B
100
AcDbEntity
 67
     1
  8
0
100
AcDbBlockEnd
  0
BLOCK
  5
24
330
23
100
AcDbEntity
  8
0
100
AcDbBlockBegin
  2
*Paper_Space0
 70
     0
 10
0.0
 20
0.0
 30
0.0
  3
*Paper_Space0
  1

  0
ENDBLK
  5
25
330
23
100
AcDbEntity
  8
0
100
AcDbBlockEnd
  0
ENDSEC
  0
SECTION
  2
ENTITIES
  0
LINE
  5
40
330
1F
100
AcDbEntity
  8
0
  6
Continuous
 62
     7
370
    15
100
AcDbLine
 10
2.8596260997
 20
41.088981615
 30
0.0
 11
2.8596260997
 21
45.8821920821
 31
0.0
  0
LINE
  5
41
330
1F
100
AcDbEntity
  8
0
  6
Continuous
 62
     7
370
    15
100
AcDbLine
 10
2.8596260997
 20
45.8821920821
 30
0.0
 11
11.7346260997
 21
45.8821920821
 31
0.0
  0
LINE
  5
42
330
1F
100
AcDbEntity
  8
0
  6
Continuous
 62
     7
370
    15
100
AcDbLine
 10
11.7346260997
 20
45.8821920821
 30
0.0
 11
11.7346260997
 21
37.0071920821
 31
0.0
  0
LINE
  5
43
330
1F
100
AcDbEntity
  8
0
  6
Continuous
 62
     7
370
    15
100
AcDbLine
 10
11.7346260997
 20
37.0071920821
 30
0.0
 11
5.2308971857
 21
37.0071920821
 31
0.0
  0
LINE
  5
44
330
1F
100
AcDbEntity
  8
0
  6
Continuous
 62
     7
370
    15
100
AcDbLine
 10
5.2308971857
 20
37.0071920821
 30
0.0
 11
2.8596260997
 21
41.088981615
 31
0.0
  0
LINE
  5
45
330
1F
100
AcDbEntity
  8
0
  6
Continuous
 62
     7
370
    15
100
AcDbLine
 10
17.6481304985
 20
45.8821920821
 30
0.0
 11
26.5231304985
 21
45.8821920821
 31
0.0
  0
SPLINE
  5
46
330
1F
100
AcDbEntity
  8
0
  6
Continuous
 62
     7
370
    15
100
AcDbSpline
210
0.0
220
0.0
230
1.0
 70
     8
 71
     3
 72
   170
 73
   166
 74
     0
 42
0.00000001
 43
0.00000001
 40
-0.0312499999999999
 40
-0.0312499999999999
 40
0.0
 40
0.0
 40
0.03125
 40
0.03125
 40
0.0468749999999999
 40
0.0468749999999999
 40
0.0546875
 40
0.0546875
 40
0.0625
 40
0.0625
 40
0.0937500000000001
 40
0.0937500000000001
 40
0.1093750000000001
 40
0.1093750000000001
 40
0.1250000000000001
 40
0.1250000000000001
 40
0.1406250000000001
 40
0.1406250000000001
 40
0.1562500000000001
 40
0.1562500000000001
 40
0.1640625000000001
 40
0.1640625000000001
 40
0.1718750000000001
 40
0.1718750000000001
 40
0.1875000000000001
 40
0.1875000000000001
 40
0.2031250000000001
 40
0.2031250000000001
 40
0.2109375000000001
 40
0.2109375000000001
 40
0.2148437500000001
 40
0.2148437500000001
 40
0.2187500000000001
 40
0.2187500000000001
 40
0.2343750000000001
 40
0.2343750000000001
 40
0.2500000000000001
 40
0.2500000000000001
 40
0.2656250000000001
 40
0.2656250000000001
 40
0.2734375
 40
0.2734375
 40
0.28125
 40
0.28125
 40
0.296875
 40
0.296875
 40
0.3124999999999999
 40
0.3124999999999999
 40
0.3203124999999999
 40
0.3203124999999999
 40
0.3242187499999999
 40
0.3242187499999999
 40
0.3281249999999998
 40
0.3281249999999998
 40
0.3437499999999998
 40
0.3437499999999998
 40
0.3593749999999998
 40
0.3593749999999998
 40
0.3749999999999998
 40
0.3749999999999998
 40
0.3828124999999998
 40
0.3828124999999998
 40
0.3906249999999998
 40
0.3906249999999998
 40
0.4062499999999998
 40
0.4062499999999998
 40
0.4218749999999998
 40
0.4218749999999998
 40
0.4296874999999999
 40
0.4296874999999999
 40
0.4374999999999998
 40
0.4374999999999998
 40
0.4687499999999999
 40
0.4687499999999999
 40
0.4765624999999999
 40
0.4765624999999999
 40
0.4804687499999999
 40
0.4804687499999999
 40
0.4843749999999999
 40
0.4843749999999999
 40
0.4999999999999999
 40
0.4999999999999999
 40
0.5312499999999999
 40
0.5312499999999999
 40
0.5351562499999999
 40
0.5351562499999999
 40
0.5390624999999999
 40
0.5390624999999999
 40
0.5468749999999998
 40
0.5468749999999998
 40
0.5624999999999998
 40
0.5624999999999998
 40
0.5781249999999998
 40
0.5781249999999998
 40
0.5859374999999998
 40
0.5859374999999998
 40
0.5898437499999998
 40
0.5898437499999998
 40
0.5937499999999998
 40
0.5937499999999998
 40
0.6093749999999999
 40
0.6093749999999999
 40
0.6249999999999999
 40
0.6249999999999999
 40
0.640625
 40
0.640625
 40
0.64453125
 40
0.64453125
 40
0.6484375
 40
0.6484375
 40
0.65625
 40
0.65625
 40
0.6718750000000001
 40
0.6875000000000002
 40
0.6875000000000002
 40
0.6953125000000002
 40
0.6953125000000002
 40
0.6992187500000002
 40
0.6992187500000002
 40
0.7031250000000002
 40
0.7031250000000002
 40
0.7187500000000002
 40
0.7187500000000002
 40
0.7343750000000003
 40
0.7343750000000003
 40
0.7500000000000004
 40
0.7500000000000004
 40
0.7578125000000004
 40
0.7578125000000004
 40
0.7656250000000004
 40
0.7656250000000004
 40
0.7812500000000006
 40
0.7968750000000006
 40
0.7968750000000006
 40
0.8046875000000006
 40
0.8046875000000006
 40
0.8085937500000006
 40
0.8085937500000006
 40
0.8125000000000006
 40
0.8125000000000006
 40
0.8281250000000006
 40
0.8281250000000006
 40
0.8437500000000006
 40
0.8437500000000006
 40
0.8593750000000006
 40
0.8593750000000006
 40
0.8750000000000004
 40
0.8750000000000004
 40
0.9062500000000004
 40
0.9062500000000004
 40
0.9101562500000004
 40
0.9101562500000004
 40
0.9140625000000004
 40
0.9140625000000004
 40
0.9218750000000004
 40
0.9218750000000004
 40
0.9375000000000003
 40
0.9375000000000003
 40
0.9531250000000002
 40
0.9531250000000002
 40
0.9609375000000001
 40
0.9609375000000001
 40
0.9687500000000001
 40
0.9687500000000001
 40
1.0
 40
1.0
 40
1.03125
 40
1.03125
 10
22.18658202655909
 20
39.82319022021788
 30
0.0
 10
22.39004919811744
 20
39.91792214668877
 30
0.0
 10
22.48556901090271
 20
39.97429345160113
 30
0.0
 10
22.61989655158647
 20
40.07182439855238
 30
0.0
 10
22.66316943824343
 20
40.10651288686536
 30
0.0
 10
22.72577256841435
 20
40.16188789098288
 30
0.0
 10
22.74625698427798
 20
40.18090596797917
 30
0.0
 10
22.7864312614545
 20
40.22007656110572
 30
0.0
 10
22.80595773397629
 20
40.2400696163946
 30
0.0
 10
22.90084217658556
 20
40.34203338788648
 30
0.0
 10
22.96803392074327
 20
40.42994320059854
 30
0.0
 10
23.0558452468889
 20
40.57124525826617
 30
0.0
 10
23.08294133496852
 20
40.61993638664367
 30
0.0
 10
23.13258875046426
 20
40.72058747672848
 30
0.0
 10
23.15472696507994
 20
40.77170870243619
 30
0.0
 10
23.19380133137694
 20
40.87549246514634
 30
0.0
 10
23.21073704203091
 20
40.92815513282009
 30
0.0
 10
23.23942056024994
 20
41.03501758406333
 30
0.0
 10
23.25116865842149
 20
41.08921728152944
 30
0.0
 10
23.2647978411152
 20
41.1716998971107
 30
0.0
 10
23.2686769184681
 20
41.19941565055036
 30
0.0
 10
23.27505761361897
 20
41.25515160761518
 30
0.0
 10
23.27753866516044
 20
41.28298140068605
 30
0.0
 10
23.28289564067213
 20
41.3663584689475
 30
0.0
 10
23.2836903655292
 20
41.42179370128871
 30
0.0
 10
23.27982198999166
 20
41.53237034002792
 30
0.0
 10
23.27515881672914
 20
41.58751174250303
 30
0.0
 10
23.26402236868038
 20
41.67000087545857
 30
0.0
 10
23.25961870598779
 20
41.69746002499283
 30
0.0
 10
23.25195827236955
 20
41.73859195586411
 30
0.0
 10
23.24922888723544
 20
41.75229312939409
 30
0.0
 10
23.24341430551827
 20
41.77967632108908
 30
0.0
 10
23.24032427793317
 20
41.79337760667536
 30
0.0
 10
23.22405208018818
 20
41.86151301677227
 30
0.0
 10
23.2084008755651
 20
41.91492527633519
 30
0.0
 10
23.17199729672213
 20
42.01962663422066
 30
0.0
 10
23.1512444895175
 20
42.07091555233031
 30
0.0
 10
23.1046495938583
 20
42.17137517536611
 30
0.0
 10
23.07880781000459
 20
42.22054600707037
 30
0.0
 10
23.03612488269417
 20
42.29267060409194
 30
0.0
 10
23.0211987456674
 20
42.31650230304744
 30
0.0
 10
22.99031506365234
 20
42.36315280191083
 30
0.0
 10
22.97434425279226
 20
42.38600229988277
 30
0.0
 10
22.92487501183597
 20
42.45315061219288
 30
0.0
 10
22.88982349837503
 20
42.49605259517224
 30
0.0
 10
22.815642175543
 20
42.57818857282637
 30
0.0
 10
22.77651233755608
 20
42.61742254176428
 30
0.0
 10
22.71471834073947
 20
42.67348606244853
 30
0.0
 10
22.69360287568399
 20
42.6917084975894
 30
0.0
 10
22.66113963893963
 20
42.71833159509158
 30
0.0
 10
22.65017105091727
 20
42.72709954729541
 30
0.0
 10
22.62806275443952
 20
42.74432220414771
 30
0.0
 10
22.61692294801955
 20
42.75277783365232
 30
0.0
 10
22.56080065762906
 20
42.79428663423657
 30
0.0
 10
22.51455159572339
 20
42.82503757549929
 30
0.0
 10
22.41942678967346
 20
42.88176499764482
 30
0.0
 10
22.37055086706312
 20
42.90774115413396
 30
0.0
 10
22.27017018257497
 20
42.95491508595014
 30
0.0
 10
22.21866561591507
 20
42.97611321612034
 30
0.0
 10
22.13937771191887
 20
43.00421861084486
 30
0.0
 10
22.11275655916426
 20
43.01291643877703
 30
0.0
 10
22.05934906621973
 20
43.02892752238075
 30
0.0
 10
22.03252895253186
 20
43.03625280920457
 30
0.0
 10
21.95172513624372
 20
43.05622079546409
 30
0.0
 10
21.89739876385222
 20
43.06686032905881
 30
0.0
 10
21.78784145626163
 20
43.08285153789728
 30
0.0
 10
21.73261053650688
 20
43.08820330342493
 30
0.0
 10
21.64907348054355
 20
43.0921934226745
 30
0.0
 10
21.62107667575324
 20
43.09284921663344
 30
0.0
 10
21.56500208651199
 20
43.09278590698719
 30
0.0
 10
21.53707811793963
 20
43.09206882570058
 30
0.0
 10
21.39801265769954
 20
43.08513036385246
 30
0.0
 10
21.28851868864798
 20
43.06894432275962
 30
0.0
 10
21.15381680821564
 20
43.03561375493469
 30
0.0
 10
21.1269856784281
 20
43.02828689032904
 30
0.0
 10
21.08690518896495
 20
43.01629133949496
 30
0.0
 10
21.07357273941369
 20
43.01212520321408
 30
0.0
 10
21.04696381533999
 20
43.00345437860165
 30
0.0
 10
21.03366941712949
 20
42.99894317254358
 30
0.0
 10
20.96762411783061
 20
42.9756333449662
 30
0.0
 10
20.91610141048544
 20
42.95457277658674
 30
0.0
 10
20.76534602837896
 20
42.88438780007302
 30
0.0
 10
20.6698907009977
 20
42.82832512988219
 30
0.0
 10
20.56829709761583
 20
42.75461282149863
 30
0.0
 10
20.55709014326601
 20
42.74627337247544
 30
0.0
 10
20.53484041787845
 20
42.72929290120059
 30
0.0
 10
20.52378317975493
 20
42.72063999154835
 30
0.0
 10
20.49101095242396
 20
42.6943453325297
 30
0.0
 10
20.46967353077538
 20
42.67635394089192
 30
0.0
 10
20.40716465449838
 20
42.62102094068861
 30
0.0
 10
20.36749306976146
 20
42.58232368725059
 30
0.0
 10
20.29208781298523
 20
42.50136993087754
 30
0.0
 10
20.2563541756538
 20
42.45911339657207
 30
0.0
 10
20.2057438714514
 20
42.39302597139196
 30
0.0
 10
20.18937300217107
 20
42.37054560288342
 30
0.0
 10
20.16557839292124
 20
42.33613659875522
 30
0.0
 10
20.15777386527029
 20
42.3245521349006
 30
0.0
 10
20.14242171576461
 20
42.30115100503346
 30
0.0
 10
20.13486398013725
 20
42.28931769437582
 30
0.0
 10
20.09789110080684
 20
42.2298321113822
 30
0.0
 10
20.07087415510791
 20
42.18117628553242
 30
0.0
 10
20.0218143257805
 20
42.08179186123864
 30
0.0
 10
19.99977180294271
 20
42.03106311244729
 30
0.0
 10
19.96065898807478
 20
41.9275336053874
 30
0.0
 10
19.94358836071758
 20
41.87473298685507
 30
0.0
 10
19.92544678528691
 20
41.80740009313558
 30
0.0
 10
19.92197868093383
 20
41.79386675197253
 30
0.0
 10
19.91536668765362
 20
41.76666496380336
 30
0.0
 10
19.91221899110991
 20
41.75297779813187
 30
0.0
 10
19.90331081929569
 20
41.71191095642344
 30
0.0
 10
19.89807540798625
 20
41.68449572289927
 30
0.0
 10
19.88444095573239
 20
41.60214003985033
 30
0.0
 10
19.87177657605988
 20
41.49203969933544
 30
0.0
 10
19.86998282759419
 20
41.38136228115108
 30
0.0
 10
19.87277324267034
 20
41.29813466859041
 30
0.0
 10
19.87439389879228
 20
41.27035547428606
 30
0.0
 10
19.87787975796202
 20
41.2286306837999
 30
0.0
 10
19.87921760822648
 20
41.214713082636
 30
0.0
 10
19.88224935002633
 20
41.18685897952285
 30
0.0
 10
19.88394470750687
 20
41.17291577520239
 30
0.0
 10
19.89326487920899
 20
41.10355042234819
 30
0.0
 10
19.90344348518437
 20
41.04886602785653
 30
0.0
 10
19.92908826797724
 20
40.94106631625752
 30
0.0
 10
19.94455482723455
 20
40.88795111263848
 30
0.0
 10
19.9807763820796
 20
40.78329003961685
 30
0.0
 10
20.00153099740327
 20
40.73174405737154
 30
0.0
 10
20.03674682912509
 20
40.65563697676663
 30
0.0
 10
20.04919895378143
 20
40.63041665687452
 30
0.0
 10
20.07521029177392
 20
40.58092269913988
 30
0.0
 10
20.08879175793929
 20
40.55659357274251
 30
0.0
 10
20.13123247419587
 20
40.48483720093288
 30
0.0
 10
20.19233557430627
 20
40.3924388934929
 30
0.0
 10
20.26234344534851
 20
40.30650272363824
 30
0.0
 10
20.31823935564525
 20
40.24451070352166
 30
0.0
 10
20.33743734152106
 20
40.2242574509898
 30
0.0
 10
20.36709934638476
 20
40.19450531628477
 30
0.0
 10
20.37714192719431
 20
40.18468264449213
 30
0.0
 10
20.39740929373913
 20
40.16535186280102
 30
0.0
 10
20.40764452410478
 20
40.15583274846895
 30
0.0
 10
20.45932261907451
 20
40.10896021565065
 30
0.0
 10
20.50226753407316
 20
40.07377047007511
 30
0.0
 10
20.59127658980461
 20
40.0078841598771
 30
0.0
 10
20.63734092032558
 20
39.97718786864062
 30
0.0
 10
20.73259559543657
 20
39.92029824557843
 30
0.0
 10
20.78179691273551
 20
39.89409927215651
 30
0.0
 10
20.88337935578465
 20
39.846367997308
 30
0.0
 10
20.93493279847673
 20
39.8252230351545
 30
0.0
 10
21.09179253145943
 20
39.76963871332615
 30
0.0
 10
21.19927788560047
 20
39.74297731283689
 30
0.0
 10
21.32350687817967
 20
39.72479071561747
 30
0.0
 10
21.337356479281
 20
39.72293553049194
 30
0.0
 10
21.36514931650349
 20
39.71955938145363
 30
0.0
 10
21.37910978885428
 20
39.71803702754043
 30
0.0
 10
21.42092923893544
 20
39.71399504235536
 30
0.0
 10
21.44876747605613
 20
39.71199335012852
 30
0.0
 10
21.53216060038245
 20
39.70802361416081
 30
0.0
 10
21.58759418739105
 20
39.70808610951504
 30
0.0
 10
21.6981442116757
 20
39.71352011823616
 30
0.0
 10
21.75326063982545
 20
39.71889178437515
 30
0.0
 10
21.83569543477905
 20
39.73096427508879
 30
0.0
 10
21.86313365513996
 20
39.73565877700911
 30
0.0
 10
21.91792880242084
 20
39.74640861549004
 30
0.0
 10
21.94534592722611
 20
39.75247985070479
 30
0.0
 10
22.08131550185193
 20
39.78607994598222
 30
0.0
 10
22.18658202655909
 20
39.82319022021788
 30
0.0
 10
22.39004919811744
 20
39.91792214668877
 30
0.0
  0
LINE
  5
47
330
1F
100
AcDbEntity
  8
0
  6
Continuous
 62
     7
370
    15
100
AcDbLine
 10
17.6481304985
 20
37.0071920821
 30
0.0
 11
17.6481304985
 21
45.8821920821
 31
0.0
  0
LINE
  5
48
330
1F
100
AcDbEntity
  8
0
  6
Continuous
 62
     7
370
    15
100
AcDbLine
 10
26.5231304985
 20
45.8821920821
 30
0.0
 11
26.5231304985
 21
37.0071920821
 31
0.0
  0
LINE
  5
49
330
1F
100
AcDbEntity
  8
0
  6
Continuous
 62
     7
370
    15
100
AcDbLine
 10
26.5231304985
 20
37.0071920821
 30
0.0
 11
17.6481304985
 21
37.0071920821
 31
0.0
  0
SPLINE
  5
4A
330
1F
100
AcDbEntity
  8
0
  6
Continuous
 62
     7
370
    15
100
AcDbSpline
210
0.0
220
0.0
230
1.0
 70
     8
 71
     3
 72
    45
 73
    41
 74
     0
 42
0.00000001
 43
0.00000001
 40
0.0
 40
0.0
 40
0.0
 40
0.0
 40
0.0192877752593929
 40
0.0463081318459229
 40
0.073913324125637
 40
0.1017210953049426
 40
0.1285565114753549
 40
0.1555794736017065
 40
0.183197149008076
 40
0.2110217974029426
 40
0.2376812198214838
 40
0.2645291706758102
 40
0.2919759605794037
 40
0.3196314747236764
 40
0.3459471943639438
 40
0.3724489833514841
 40
0.3995408133207793
 40
0.4268377930744225
 40
0.4528466783910924
 40
0.4790379915274506
 40
0.5058055451643111
 40
0.5327724543871577
 40
0.5586391410739262
 40
0.584685104848766
 40
0.6112948961429705
 40
0.6380987245733138
 40
0.6640375055949098
 40
0.6901541371563199
 40
0.7168283924559914
 40
0.7436938838492544
 40
0.7698839639836472
 40
0.7962526310657316
 40
0.823180854290693
 40
0.8503008947142204
 40
0.8768207288861554
 40
0.9035217200902468
 40
0.9307914591090035
 40
0.958256718223237
 40
0.9850515682299704
 40
1.0
 40
1.0
 40
1.0
 40
1.0
 10
22.32296177537349
 20
39.8884833939675
 30
0.0
 10
22.35364458481524
 20
39.90386085562459
 30
0.0
 10
22.42731112053142
 20
39.94078069279063
 30
0.0
 10
22.53815564875595
 20
40.01194612852547
 30
0.0
 10
22.65549258551011
 20
40.1000476742936
 30
0.0
 10
22.76441672070012
 20
40.19800119727627
 30
0.0
 10
22.86402986857932
 20
40.30392767660019
 30
0.0
 10
22.95424593915058
 20
40.41755146009154
 30
0.0
 10
23.03548791235706
 20
40.53988206601507
 30
0.0
 10
23.10556201149199
 20
40.66820542457263
 30
0.0
 10
23.16390475763487
 20
40.8007553371289
 30
0.0
 10
23.21071197025736
 20
40.93709859564576
 30
0.0
 10
23.24614230364263
 20
41.07866906735276
 30
0.0
 10
23.26898360282364
 20
41.2218534202722
 30
0.0
 10
23.27938692078392
 20
41.36476744719996
 30
0.0
 10
23.27778419516446
 20
41.50705186227968
 30
0.0
 10
23.26388417386282
 20
41.65042871170006
 30
0.0
 10
23.23776051104585
 20
41.79120184712387
 30
0.0
 10
23.20017602749668
 20
41.92767457266194
 30
0.0
 10
23.15165434987302
 20
42.05965272836702
 30
0.0
 10
23.09139774073965
 20
42.18859651625903
 30
0.0
 10
23.02056328630161
 20
42.31138396778834
 30
0.0
 10
22.94034927511552
 20
42.42667735542942
 30
0.0
 10
22.85125086971962
 20
42.53443170635185
 30
0.0
 10
22.7522418195795
 20
42.63551589682528
 30
0.0
 10
22.64513566343862
 20
42.72768910545993
 30
0.0
 10
22.53140500440885
 20
42.81004001689649
 30
0.0
 10
22.41146446698067
 20
42.88261074541833
 30
0.0
 10
22.28440507672585
 20
42.94566038303013
 30
0.0
 10
22.15235776955102
 20
42.99781942494212
 30
0.0
 10
22.01695639916605
 20
43.03863820391533
 30
0.0
 10
21.87854545526185
 20
43.06820535413373
 30
0.0
 10
21.73650646963942
 20
43.0863737314276
 30
0.0
 10
21.59317337124086
 20
43.09254746780412
 30
0.0
 10
21.45023262087462
 20
43.08680297830264
 30
0.0
 10
21.30800208010619
 20
43.06924073306753
 30
0.0
 10
21.1660038702661
 20
43.03968162472032
 30
0.0
 10
21.02710909095812
 20
42.9976856364076
 30
0.0
 10
20.91176668056114
 20
42.95393432741847
 30
0.0
 10
20.84553747779605
 20
42.92031738983809
 30
0.0
 10
20.8218205423617
 20
42.90827903357215
 30
0.0
  0
LINE
  5
4B
330
1F
100
AcDbEntity
  8
0
  6
Continuous
 62
     7
370
    15
100
AcDbLine
 10
41.5030718475
 20
36.3371627566
 30
0.0
 11
32.6280718475
 21
36.3371627566
 31
0.0
  0
LINE
  5
4C
330
1F
100
AcDbEntity
  8
0
  6
Continuous
 62
     7
370
    15
100
AcDbLine
 10
32.6280718475
 20
36.3371627566
 30
0.0
 11
32.6280718475
 21
45.2121627566
 31
0.0
  0
LINE
  5
4D
330
1F
100
AcDbEntity
  8
0
  6
Continuous
 62
     7
370
    15
100
AcDbLine
 10
32.6280718475
 20
45.2121627566
 30
0.0
 11
41.5030718475
 21
45.2121627566
 31
0.0
  0
LINE
  5
4E
330
1F
100
AcDbEntity
  8
0
  6
Continuous
 62
     7
370
    15
100
AcDbLine
 10
41.5030718475
 20
45.2121627566
 30
0.0
 11
41.5030718475
 21
36.3371627566
 31
0.0
  0
LINE
  5
4F
330
1F
100
AcDbEntity
  8
0
  6
Continuous
 62
     7
370
    15
100
AcDbLine
 10
2.8596260997
 20
33.6302272727
 30
0.0
 11
11.7346260997
 21
33.6302272727
 31
0.0
  0
LINE
  5
50
330
1F
100
AcDbEntity
  8
0
  6
Continuous
 62
     7
370
    15
100
AcDbLine
 10
11.7346260997
 20
29.0315803613
 30
0.0
 11
9.4294453339
 21
29.3352969559
 31
0.0
  0
LINE
  5
51
330
1F
100
AcDbEntity
  8
0
  6
Continuous
 62
     7
370
    15
100
AcDbLine
 10
11.7346260997
 20
27.3127357432
 30
0.0
 11
9.4294453339
 21
29.3352969559
 31
0.0
  0
LINE
  5
52
330
1F
100
AcDbEntity
  8
0
  6
Continuous
 62
     7
370
    15
100
AcDbLine
 10
11.7346260997
 20
33.6302272727
 30
0.0
 11
11.7346260997
 21
29.0315803613
 31
0.0
  0
LINE
  5
53
330
1F
100
AcDbEntity
  8
0
  6
Continuous
 62
     7
370
    15
100
AcDbLine
 10
11.7346260997
 20
24.7552272727
 30
0.0
 11
2.8596260997
 21
24.7552272727
 31
0.0
  0
LINE
  5
54
330
1F
100
AcDbEntity
  8
0
  6
Continuous
 62
     7
370
    15
100
AcDbLine
 10
2.8596260997
 20
24.7552272727
 30
0.0
 11
2.8596260997
 21
33.6302272727
 31
0.0
  0
LINE
  5
55
330
1F
100
AcDbEntity
  8
0
  6
Continuous
 62
     7
370
    15
100
AcDbLine
 10
11.7346260997
 20
27.3127357432
 30
0.0
 11
11.7346260997
 21
24.7552272727
 31
0.0
  0
LINE
  5
56
330
1F
100
AcDbEntity
  8
0
  6
Continuous
 62
     7
370
    15
100
AcDbLine
 10
17.8874266862
 20
24.7552272727
 30
0.0
 11
17.8874266862
 21
26.9331015448
 31
0.0
  0
LINE
  5
57
330
1F
100
AcDbEntity
  8
0
  6
Continuous
 62
     7
370
    15
100
AcDbLine
 10
20.4255271454
 20
24.7552272727
 30
0.0
 11
17.8874266862
 21
26.9331015448
 31
0.0
  0
LINE
  5
58
330
1F
100
AcDbEntity
  8
0
  6
Continuous
 62
     7
370
    15
100
AcDbLine
 10
20.4255271454
 20
24.7552272727
 30
0.0
 11
17.8874266862
 21
24.7552272727
 31
0.0
  0
LINE
  5
59
330
1F
100
AcDbEntity
  8
0
  6
Continuous
 62
     7
370
    15
100
AcDbLine
 10
20.45748096
 20
24.7552272727
 30
0.0
 11
17.8874266862
 21
26.9605202353
 31
0.0
  0
LINE
  5
5A
330
1F
100
AcDbEntity
  8
0
  6
Continuous
 62
     7
370
    15
100
AcDbLine
 10
20.45748096
 20
24.7552272727
 30
0.0
 11
20.4255271454
 21
24.7552272727
 31
0.0
  0
LINE
  5
5B
330
1F
100
AcDbEntity
  8
0
  6
Continuous
 62
     7
370
    15
100
AcDbLine
 10
17.8874266862
 20
26.9331015448
 30
0.0
 11
17.8874266862
 21
26.9605202353
 31
0.0
  0
LINE
  5
5C
330
1F
100
AcDbEntity
  8
0
  6
Continuous
 62
     7
370
    15
100
AcDbLine
 10
17.8874266862
 20
29.2871613045
 30
0.0
 11
17.8874266862
 21
33.6302272727
 31
0.0
  0
LINE
  5
5D
330
1F
100
AcDbEntity
  8
0
  6
Continuous
 62
     7
370
    15
100
AcDbLine
 10
17.8874266862
 20
33.6302272727
 30
0.0
 11
26.7624266862
 21
33.6302272727
 31
0.0
  0
LINE
  5
5E
330
1F
100
AcDbEntity
  8
0
  6
Continuous
 62
     7
370
    15
100
AcDbLine
 10
26.7624266862
 20
29.3436565618
 30
0.0
 11
20.7027585939
 21
32.9474417242
 31
0.0
  0
LINE
  5
5F
330
1F
100
AcDbEntity
  8
0
  6
Continuous
 62
     7
370
    15
100
AcDbLine
 10
20.7027585939
 20
32.9474417242
 30
0.0
 11
17.8874266862
 21
29.2871613045
 31
0.0
  0
LINE
  5
60
330
1F
100
AcDbEntity
  8
0
  6
Continuous
 62
     7
370
    15
100
AcDbLine
 10
26.7624266862
 20
33.6302272727
 30
0.0
 11
26.7624266862
 21
29.3436565618
 31
0.0
  0
LINE
  5
61
330
1F
100
AcDbEntity
  8
0
  6
Continuous
 62
     7
370
    15
100
AcDbLine
 10
26.7624266862
 20
29.2898643473
 30
0.0
 11
20.6743698121
 21
32.9105327893
 31
0.0
  0
LINE
  5
62
330
1F
100
AcDbEntity
  8
0
  6
Continuous
 62
     7
370
    15
100
AcDbLine
 10
26.7624266862
 20
29.2898643473
 30
0.0
 11
26.7624266862
 21
29.3436565618
 31
0.0
  0
LINE
  5
63
330
1F
100
AcDbEntity
  8
0
  6
Continuous
 62
     7
370
    15
100
AcDbLine
 10
36.025705145
 20
31.293950534
 30
0.0
 11
32.6280718475
 21
27.8197955029
 31
0.0
  0
LINE
  5
64
330
1F
100
AcDbEntity
  8
0
  6
Continuous
 62
     7
370
    15
100
AcDbLine
 10
36.025705145
 20
31.293950534
 30
0.0
 11
35.2020001965
 21
33.6780865103
 31
0.0
  0
LINE
  5
65
330
1F
100
AcDbEntity
  8
0
  6
Continuous
 62
     7
370
    15
100
AcDbLine
 10
35.2020001965
 20
33.6780865103
 30
0.0
 11
41.5030718475
 21
33.6780865103
 31
0.0
  0
LINE
  5
66
330
1F
100
AcDbEntity
  8
0
  6
Continuous
 62
     7
370
    15
100
AcDbLine
 10
41.5030718475
 20
33.6780865103
 30
0.0
 11
41.5030718475
 21
24.8030865103
 31
0.0
  0
LINE
  5
67
330
1F
100
AcDbEntity
  8
0
  6
Continuous
 62
     7
370
    15
100
AcDbLine
 10
41.5030718475
 20
24.8030865103
 30
0.0
 11
32.6280718475
 21
24.8030865103
 31
0.0
  0
LINE
  5
68
330
1F
100
AcDbEntity
  8
0
  6
Continuous
 62
     7
370
    15
100
AcDbLine
 10
32.6280718475
 20
24.8030865103
 30
0.0
 11
32.6280718475
 21
27.8197955029
 31
0.0
  0
LINE
  5
69
330
1F
100
AcDbEntity
  8
0
  6
Continuous
 62
     7
370
    15
100
AcDbLine
 10
36.0122900286
 20
31.2802332814
 30
0.0
 11
35.18384585
 21
33.6780865103
 31
0.0
  0
LINE
  5
6A
330
1F
100
AcDbEntity
  8
0
  6
Continuous
 62
     7
370
    15
100
AcDbLine
 10
35.2020001965
 20
33.6780865103
 30
0.0
 11
35.18384585
 21
33.6780865103
 31
0.0
  0
ENDSEC
  0
SECTION
  2
OBJECTS
  0
DICTIONARY
  5
C
330
0
100
AcDbDictionary
281
     1
  3
ACAD_GROUP
350
D
  3
ACAD_LAYOUT
350
1A
  3
ACAD_MLEADERSTYLE
350
6D
  3
ACAD_MLINESTYLE
350
17
  3
ACAD_PLOTSETTINGS
350
19
  3
ACAD_PLOTSTYLENAME
350
E
  3
ACAD_VISUALSTYLE
350
2A
  3
AcDbVariableDictionary
350
6B
  0
DICTIONARY
  5
D
102
{ACAD_REACTORS
330
C
102
}
330
C
100
AcDbDictionary
281
     1
  0
DICTIONARY
  5
1A
102
{ACAD_REACTORS
330
C
102
}
330
C
100
AcDbDictionary
281
     1
  3
Layout1
350
1E
  3
Layout2
350
26
  3
Model
350
22
  0
DICTIONARY
  5
6D
102
{ACAD_REACTORS
330
C
102
}
330
C
100
AcDbDictionary
281
     1
  0
DICTIONARY
  5
17
102
{ACAD_REACTORS
330
C
102
}
330
C
100
AcDbDictionary
281
     1
  3
Standard
350
18
  0
DICTIONARY
  5
19
102
{ACAD_REACTORS
330
C
102
}
330
C
100
AcDbDictionary
281
     1
  0
ACDBDICTIONARYWDFLT
  5
E
102
{ACAD_REACTORS
330
C
102
}
330
C
100
AcDbDictionary
281
     1
  3
Normal
350
F
100
AcDbDictionaryWithDefault
340
F
  0
DICTIONARY
  5
2A
102
{ACAD_REACTORS
330
C
102
}
330
C
100
AcDbDictionary
281
     1
  3
2dWireframe
350
2F
  3
3D Hidden
350
31
  3
3dWireframe
350
30
  3
Basic
350
32
  3
Brighten
350
36
  3
ColorChange
350
3A
  3
Conceptual
350
34
  3
Dim
350
35
  3
Facepattern
350
39
  3
Flat
350
2B
  3
FlatWithEdges
350
2C
  3
Gouraud
350
2D
  3
GouraudWithEdges
350
2E
  3
Linepattern
350
38
  3
Realistic
350
33
  3
Thicken
350
37
  0
DICTIONARY
  5
6B
102
{ACAD_REACTORS
330
C
102
}
330
C
100
AcDbDictionary
281
     1
  3
DIMASSOC
350
6E
  3
HIDETEXT
350
6F
  0
LAYOUT
  5
1E
102
{ACAD_REACTORS
330
1A
102
}
330
1A
100
AcDbPlotSettings
  1

  2
none_device
  4

  6

 40
0.0
 41
0.0
 42
0.0
 43
0.0
 44
0.0
 45
0.0
 46
0.0
 47
0.0
 48
0.0
 49
0.0
140
0.0
141
0.0
142
1.0
143
1.0
 70
   688
 72
     0
 73
     0
 74
     5
  7

 75
    16
147
1.0
148
0.0
149
0.0
100
AcDbLayout
  1
Layout1
 70
     1
 71
     1
 10
0.0
 20
0.0
 11
12.0
 21
9.0
 12
0.0
 22
0.0
 32
0.0
 14
1.0000000000E+20
 24
1.0000000000E+20
 34
1.0000000000E+20
 15
-1.0000000000E+20
 25
-1.0000000000E+20
 35
-1.0000000000E+20
146
0.0
 13
0.0
 23
0.0
 33
0.0
 16
1.0
 26
0.0
 36
0.0
 17
0.0
 27
1.0
 37
0.0
 76
     0
330
1B
  0
LAYOUT
  5
26
102
{ACAD_REACTORS
330
1A
102
}
330
1A
100
AcDbPlotSettings
  1

  2
none_device
  4

  6

 40
0.0
 41
0.0
 42
0.0
 43
0.0
 44
0.0
 45
0.0
 46
0.0
 47
0.0
 48
0.0
 49
0.0
140
0.0
141
0.0
142
1.0
143
1.0
 70
   688
 72
     0
 73
     0
 74
     5
  7

 75
    16
147
1.0
148
0.0
149
0.0
100
AcDbLayout
  1
Layout2
 70
     1
 71
     2
 10
0.0
 20
0.0
 11
0.0
 21
0.0
 12
0.0
 22
0.0
 32
0.0
 14
0.0
 24
0.0
 34
0.0
 15
0.0
 25
0.0
 35
0.0
146
0.0
 13
0.0
 23
0.0
 33
0.0
 16
1.0
 26
0.0
 36
0.0
 17
0.0
 27
1.0
 37
0.0
 76
     0
330
23
  0
LAYOUT
  5
22
102
{ACAD_REACTORS
330
1A
102
}
330
1A
100
AcDbPlotSettings
  1

  2
none_device
  4

  6

 40
0.0
 41
0.0
 42
0.0
 43
0.0
 44
0.0
 45
0.0
 46
0.0
 47
0.0
 48
0.0
 49
0.0
140
0.0
141
0.0
142
1.0
143
1.0
 70
  1712
 72
     0
 73
     0
 74
     0
  7

 75
     0
147
1.0
148
0.0
149
0.0
100
AcDbLayout
  1
Model
 70
     1
 71
     0
 10
0.0
 20
0.0
 11
48.0
 21
48.0
 12
0.0
 22
0.0
 32
0.0
 14
0.0
 24
0.0
 34
0.0
 15
48.0
 25
48.0
 35
0.0
146
0.0
 13
0.0
 23
0.0
 33
0.0
 16
1.0
 26
0.0
 36
0.0
 17
0.0
 27
1.0
 37
0.0
 76
     0
330
1F
331
29
  0
MLINESTYLE
  5
18
102
{ACAD_REACTORS
330
17
102
}
330
17
100
AcDbMlineStyle
  2
Standard
 70
     0
  3

 62
   256
 51
90.0
 52
90.0
 71
     2
 49
0.5
 62
   256
  6
BYLAYER
 49
-0.5
 62
   256
  6
BYLAYER
  0
ACDBPLACEHOLDER
  5
F
102
{ACAD_REACTORS
330
E
102
}
330
E
  0
VISUALSTYLE
  5
2F
102
{ACAD_REACTORS
330
2A
102
}
330
2A
100
AcDbVisualStyle
  2
2dWireframe
 70
     4
 71
     0
 72
     2
 73
     0
 90
        0
 40
-0.6
 41
-30.0
 62
     5
 63
     7
 74
     1
 91
        4
 64
     7
 65
   257
 75
     1
175
     1
 42
1.0
 92
        0
 66
   257
 43
1.0
 76
     1
 77
     6
 78
     2
 67
     7
 79
     5
170
     0
171
     0
290
     0
174
     0
 93
        1
 44
0.0
173
     0
291
     0
 45
0.0
1001
ACAD
1000
AcDbSavedByObjectVersion
1070
     0
  0
VISUALSTYLE
  5
31
102
{ACAD_REACTORS
330
2A
102
}
330
2A
100
AcDbVisualStyle
  2
3D Hidden
 70
     6
 71
     1
 72
     2
 73
     2
 90
        0
 40
-0.6
 41
-30.0
 62
     5
 63
     7
 74
     2
 91
        2
 64
     7
 65
   257
 75
     2
175
     1
 42
40.0
 92
        0
 66
   257
 43
1.0
 76
     1
 77
     6
 78
     2
 67
     7
 79
     3
170
     0
171
     0
290
     0
174
     0
 93
        1
 44
0.0
173
     0
291
     0
 45
0.0
1001
ACAD
1000
AcDbSavedByObjectVersion
1070
     0
  0
VISUALSTYLE
  5
30
102
{ACAD_REACTORS
330
2A
102
}
330
2A
100
AcDbVisualStyle
  2
3dWireframe
 70
     5
 71
     0
 72
     2
 73
     0
 90
        0
 40
-0.6
 41
-30.0
 62
     5
 63
     7
 74
     1
 91
        4
 64
     7
 65
   257
 75
     1
175
     1
 42
1.0
 92
        0
 66
   257
 43
1.0
 76
     1
 77
     6
 78
     2
 67
     7
 79
     5
170
     0
171
     0
290
     0
174
     0
 93
        1
 44
0.0
173
     0
291
     0
 45
0.0
1001
ACAD
1000
AcDbSavedByObjectVersion
1070
     0
  0
VISUALSTYLE
  5
32
102
{ACAD_REACTORS
330
2A
102
}
330
2A
100
AcDbVisualStyle
  2
Basic
 70
     7
 71
     1
 72
     0
 73
     1
 90
        0
 40
-0.6
 41
-30.0
 62
     5
 63
     7
 74
     0
 91
        4
 64
     7
 65
   257
 75
     1
175
     1
 42
1.0
 92
        8
 66
     7
 43
1.0
 76
     1
 77
     6
 78
     2
 67
     7
 79
     5
170
     0
171
     0
290
     0
174
     0
 93
        1
 44
0.0
173
     0
291
     1
 45
0.0
1001
ACAD
1000
AcDbSavedByObjectVersion
1070
     0
  0
VISUALSTYLE
  5
36
102
{ACAD_REACTORS
330
2A
102
}
330
2A
100
AcDbVisualStyle
  2
Brighten
 70
    12
 71
     2
 72
     2
 73
     0
 90
        0
 40
-0.6
 41
-30.0
 62
     5
 63
     7
 74
     1
 91
        4
 64
     7
 65
   257
 75
     1
175
     1
 42
1.0
 92
        8
 66
     7
 43
1.0
 76
     1
 77
     6
 78
     2
 67
     7
 79
     5
170
     0
171
     0
290
     0
174
     0
 93
        1
 44
50.0
173
     0
291
     1
 45
0.0
1001
ACAD
1000
AcDbSavedByObjectVersion
1070
     0
  0
VISUALSTYLE
  5
3A
102
{ACAD_REACTORS
330
2A
102
}
330
2A
100
AcDbVisualStyle
  2
ColorChange
 70
    16
 71
     2
 72
     2
 73
     3
 90
        0
 40
-0.6
 41
-30.0
 62
     5
 63
     8
 74
     1
 91
        4
 64
     7
 65
   257
 75
     1
175
     1
 42
1.0
 92
        8
 66
     8
 43
1.0
 76
     1
 77
     6
 78
     2
 67
     7
 79
     5
170
     0
171
     0
290
     0
174
     0
 93
        1
 44
0.0
173
     0
291
     1
 45
0.0
1001
ACAD
1000
AcDbSavedByObjectVersion
1070
     0
  0
VISUALSTYLE
  5
34
102
{ACAD_REACTORS
330
2A
102
}
330
2A
100
AcDbVisualStyle
  2
Conceptual
 70
     9
 71
     3
 72
     2
 73
     0
 90
        0
 40
-0.6
 41
-30.0
 62
     5
 63
     7
 74
     2
 91
        2
 64
     7
 65
   257
 75
     1
175
     1
 42
40.0
 92
        8
 66
     7
 43
1.0
 76
     1
 77
     6
 78
     2
 67
     7
 79
     3
170
     0
171
     0
290
     0
174
     0
 93
        1
 44
0.0
173
     0
291
     0
 45
0.0
1001
ACAD
1000
AcDbSavedByObjectVersion
1070
     0
  0
VISUALSTYLE
  5
35
102
{ACAD_REACTORS
330
2A
102
}
330
2A
100
AcDbVisualStyle
  2
Dim
 70
    11
 71
     2
 72
     2
 73
     0
 90
        0
 40
-0.6
 41
-30.0
 62
     5
 63
     7
 74
     1
 91
        4
 64
     7
 65
   257
 75
     1
175
     1
 42
1.0
 92
        8
 66
     7
 43
1.0
 76
     1
 77
     6
 78
     2
 67
     7
 79
     5
170
     0
171
     0
290
     0
174
     0
 93
        1
 44
-50.0
173
     0
291
     1
 45
0.0
1001
ACAD
1000
AcDbSavedByObjectVersion
1070
     0
  0
VISUALSTYLE
  5
39
102
{ACAD_REACTORS
330
2A
102
}
330
2A
100
AcDbVisualStyle
  2
Facepattern
 70
    15
 71
     2
 72
     2
 73
     0
 90
        0
 40
-0.6
 41
-30.0
 62
     5
 63
     7
 74
     1
 91
        4
 64
     7
 65
   257
 75
     1
175
     1
 42
1.0
 92
        8
 66
     7
 43
1.0
 76
     1
 77
     6
 78
     2
 67
     7
 79
     5
170
     0
171
     0
290
     0
174
     0
 93
        1
 44
0.0
173
     0
291
     1
 45
0.0
1001
ACAD
1000
AcDbSavedByObjectVersion
1070
     0
  0
VISUALSTYLE
  5
2B
102
{ACAD_REACTORS
330
2A
102
}
330
2A
100
AcDbVisualStyle
  2
Flat
 70
     0
 71
     2
 72
     1
 73
     1
 90
        2
 40
-0.6
 41
30.0
 62
     5
 63
     7
 74
     0
 91
        4
 64
     7
 65
   257
 75
     1
175
     1
 42
1.0
 92
        8
 66
     7
 43
1.0
 76
     1
 77
     6
 78
     2
 67
     7
 79
     5
170
     0
171
     0
290
     0
174
     0
 93
       13
 44
0.0
173
     0
291
     1
 45
0.0
1001
ACAD
1000
AcDbSavedByObjectVersion
1070
     0
  0
VISUALSTYLE
  5
2C
102
{ACAD_REACTORS
330
2A
102
}
330
2A
100
AcDbVisualStyle
  2
FlatWithEdges
 70
     1
 71
     2
 72
     1
 73
     1
 90
        2
 40
-0.6
 41
30.0
 62
     5
 63
     7
 74
     1
 91
        4
 64
     7
 65
   257
 75
     1
175
     1
 42
1.0
 92
        0
 66
   257
 43
1.0
 76
     1
 77
     6
 78
     2
 67
     7
 79
     5
170
     0
171
     0
290
     0
174
     0
 93
       13
 44
0.0
173
     0
291
     1
 45
0.0
1001
ACAD
1000
AcDbSavedByObjectVersion
1070
     0
  0
VISUALSTYLE
  5
2D
102
{ACAD_REACTORS
330
2A
102
}
330
2A
100
AcDbVisualStyle
  2
Gouraud
 70
     2
 71
     2
 72
     2
 73
     1
 90
        2
 40
-0.6
 41
30.0
 62
     5
 63
     7
 74
     0
 91
        4
 64
     7
 65
   257
 75
     1
175
     1
 42
1.0
 92
        0
 66
     7
 43
1.0
 76
     1
 77
     6
 78
     2
 67
     7
 79
     5
170
     0
171
     0
290
     0
174
     0
 93
       13
 44
0.0
173
     0
291
     1
 45
0.0
1001
ACAD
1000
AcDbSavedByObjectVersion
1070
     0
  0
VISUALSTYLE
  5
2E
102
{ACAD_REACTORS
330
2A
102
}
330
2A
100
AcDbVisualStyle
  2
GouraudWithEdges
 70
     3
 71
     2
 72
     2
 73
     1
 90
        2
 40
-0.6
 41
30.0
 62
     5
 63
     7
 74
     1
 91
        4
 64
     7
 65
   257
 75
     1
175
     1
 42
1.0
 92
        0
 66
   257
 43
1.0
 76
     1
 77
     6
 78
     2
 67
     7
 79
     5
170
     0
171
     0
290
     0
174
     0
 93
       13
 44
0.0
173
     0
291
     1
 45
0.0
1001
ACAD
1000
AcDbSavedByObjectVersion
1070
     0
  0
VISUALSTYLE
  5
38
102
{ACAD_REACTORS
330
2A
102
}
330
2A
100
AcDbVisualStyle
  2
Linepattern
 70
    14
 71
     2
 72
     2
 73
     0
 90
        0
 40
-0.6
 41
-30.0
 62
     5
 63
     7
 74
     1
 91
        4
 64
     7
 65
   257
 75
     7
175
     7
 42
1.0
 92
        8
 66
     7
 43
1.0
 76
     1
 77
     6
 78
     2
 67
     7
 79
     5
170
     0
171
     0
290
     0
174
     0
 93
        1
 44
0.0
173
     0
291
     1
 45
0.0
1001
ACAD
1000
AcDbSavedByObjectVersion
1070
     0
  0
VISUALSTYLE
  5
33
102
{ACAD_REACTORS
330
2A
102
}
330
2A
100
AcDbVisualStyle
  2
Realistic
 70
     8
 71
     2
 72
     2
 73
     0
 90
        0
 40
-0.6
 41
-30.0
 62
     5
 63
     7
 74
     1
 91
        0
 64
     7
 65
   257
 75
     1
175
     1
 42
1.0
 92
        8
 66
     8
 43
1.0
 76
     1
 77
     6
 78
     2
 67
     7
 79
     5
170
     0
171
     0
290
     0
174
     0
 93
       13
 44
0.0
173
     0
291
     0
 45
0.0
1001
ACAD
1000
AcDbSavedByObjectVersion
1070
     0
  0
VISUALSTYLE
  5
37
102
{ACAD_REACTORS
330
2A
102
}
330
2A
100
AcDbVisualStyle
  2
Thicken
 70
    13
 71
     2
 72
     2
 73
     0
 90
        0
 40
-0.6
 41
-30.0
 62
     5
 63
     7
 74
     1
 91
        4
 64
     7
 65
   257
 75
     1
175
     1
 42
1.0
 92
       12
 66
     7
 43
1.0
 76
     1
 77
     6
 78
     2
 67
     7
 79
     5
170
     0
171
     0
290
     0
174
     0
 93
        1
 44
0.0
173
     0
291
     1
 45
0.0
1001
ACAD
1000
AcDbSavedByObjectVersion
1070
     0
  0
DICTIONARYVAR
  5
6E
102
{ACAD_REACTORS
330
6B
102
}
330
6B
100
DictionaryVariables
280
     0
  1
2
  0
DICTIONARYVAR
  5
6F
102
{ACAD_REACTORS
330
6B
102
}
330
6B
100
DictionaryVariables
280
     0
  1
1
  0
ENDSEC
  0
EOF
