  0
SECTION
  2
HEADER
  9
$ACADVER
  1
AC1015
  9
$ACADMAINTVER
 70
     6
  9
$DWGCODEPAGE
  3
ANSI_1252
  9
$INSBASE
 10
0.0
 20
0.0
 30
0.0
  9
$EXTMIN
 10
0.0
 20
0.0
 30
0.0
  9
$EXTMAX
 10
48.0
 20
48.0
 30
0.0
  9
$LIMMIN
 10
0.0
 20
0.0
  9
$LIMMAX
 10
48.0
 20
48.0
  9
$ORTHOMODE
 70
     0
  9
$REGENMODE
 70
     1
  9
$FILLMODE
 70
     1
  9
$QTEXTMODE
 70
     0
  9
$MIRRTEXT
 70
     1
  9
$LTSCALE
 40
1.0
  9
$ATTMODE
 70
     1
  9
$TEXTSIZE
 40
0.1377952756
  9
$TRACEWID
 40
0.05
  9
$TEXTSTYLE
  7
Standard
  9
$CLAYER
  8
0
  9
$CELTYPE
  6
ByLayer
  9
$CECOLOR
 62
   256
  9
$CELTSCALE
 40
1.0
  9
$DISPSILH
 70
     0
  9
$DIMSCALE
 40
1.0
  9
$DIMASZ
 40
0.13
  9
$DIMEXO
 40
0.0393700787
  9
$DIMDLI
 40
0.38
  9
$DIMRND
 40
0.0
  9
$DIMDLE
 40
0.0
  9
$DIMEXE
 40
0.0393700787
  9
$DIMTP
 40
0.0
  9
$DIMTM
 40
0.0
  9
$DIMTXT
 40
0.1377952756
  9
$DIMCEN
 40
0.09
  9
$DIMTSZ
 40
0.0
  9
$DIMTOL
 70
     0
  9
$DIMLIM
 70
     0
  9
$DIMTIH
 70
     1
  9
$DIMTOH
 70
     1
  9
$DIMSE1
 70
     0
  9
$DIMSE2
 70
     0
  9
$DIMTAD
 70
     1
  9
$DIMZIN
 70
     0
  9
$DIMBLK
  1

  9
$DIMASO
 70
     1
  9
$DIMSHO
 70
     1
  9
$DIMPOST
  1

  9
$DIMAPOST
  1

  9
$DIMALT
 70
     0
  9
$DIMALTD
 70
     2
  9
$DIMALTF
 40
25.4
  9
$DIMLFAC
 40
1.0
  9
$DIMTOFL
 70
     0
  9
$DIMTVP
 40
0.0
  9
$DIMTIX
 70
     0
  9
$DIMSOXD
 70
     0
  9
$DIMSAH
 70
     0
  9
$DIMBLK1
  1

  9
$DIMBLK2
  1

  9
$DIMSTYLE
  2
Standard
  9
$DIMCLRD
 70
     0
  9
$DIMCLRE
 70
     0
  9
$DIMCLRT
 70
     0
  9
$DIMTFAC
 40
1.0
  9
$DIMGAP
 40
0.06
  9
$DIMJUST
 70
     0
  9
$DIMSD1
 70
     0
  9
$DIMSD2
 70
     0
  9
$DIMTOLJ
 70
     1
  9
$DIMTZIN
 70
     0
  9
$DIMALTZ
 70
     0
  9
$DIMALTTZ
 70
     0
  9
$DIMUPT
 70
     0
  9
$DIMDEC
 70
     3
  9
$DIMTDEC
 70
     3
  9
$DIMALTU
 70
     2
  9
$DIMALTTD
 70
     2
  9
$DIMTXSTY
  7
Standard
  9
$DIMAUNIT
 70
     0
  9
$DIMADEC
 70
     2
  9
$DIMALTRND
 40
0.0
  9
$DIMAZIN
 70
     0
  9
$DIMDSEP
 70
    46
  9
$DIMATFIT
 70
     3
  9
$DIMFRAC
 70
     0
  9
$DIMLDRBLK
  1

  9
$DIMLUNIT
 70
     2
  9
$DIMLWD
 70
    -2
  9
$DIMLWE
 70
    -2
  9
$DIMTMOVE
 70
     0
  9
$LUNITS
 70
     2
  9
$LUPREC
 70
     2
  9
$SKETCHINC
 40
0.1
  9
$FILLETRAD
 40
0.5
  9
$AUNITS
 70
     0
  9
$AUPREC
 70
     2
  9
$MENU
  1
.
  9
$ELEVATION
 40
0.0
  9
$PELEVATION
 40
0.0
  9
$THICKNESS
 40
0.0
  9
$LIMCHECK
 70
     0
  9
$CHAMFERA
 40
0.5
  9
$CHAMFERB
 40
0.5
  9
$CHAMFERC
 40
1.0
  9
$CHAMFERD
 40
0.0
  9
$SKPOLY
 70
     0
  9
$TDCREATE
 40
2455402.067608519
  9
$TDUCREATE
 40
2455402.359275185
  9
$TDUPDATE
 40
2455402.06760853
  9
$TDUUPDATE
 40
2455402.359275197
  9
$TDINDWG
 40
0.0000000116
  9
$TDUSRTIMER
 40
0.0000000116
  9
$USRTIMER
 70
     1
  9
$ANGBASE
 50
0.0
  9
$ANGDIR
 70
     0
  9
$PDMODE
 70
     0
  9
$PDSIZE
 40
-1.0
  9
$PLINEWID
 40
0.0
  9
$SPLFRAME
 70
     0
  9
$SPLINETYPE
 70
     6
  9
$SPLINESEGS
 70
     8
  9
$HANDSEED
  5
70
  9
$SURFTAB1
 70
     6
  9
$SURFTAB2
 70
     6
  9
$SURFTYPE
 70
     6
  9
$SURFU
 70
     6
  9
$SURFV
 70
     6
  9
$UCSBASE
  2

  9
$UCSNAME
  2

  9
$UCSORG
 10
0.0
 20
0.0
 30
0.0
  9
$UCSXDIR
 10
1.0
 20
0.0
 30
0.0
  9
$UCSYDIR
 10
0.0
 20
1.0
 30
0.0
  9
$UCSORTHOREF
  2

  9
$UCSORTHOVIEW
 70
     0
  9
$UCSORGTOP
 10
0.0
 20
0.0
 30
0.0
  9
$UCSORGBOTTOM
 10
0.0
 20
0.0
 30
0.0
  9
$UCSORGLEFT
 10
0.0
 20
0.0
 30
0.0
  9
$UCSORGRIGHT
 10
0.0
 20
0.0
 30
0.0
  9
$UCSORGFRONT
 10
0.0
 20
0.0
 30
0.0
  9
$UCSORGBACK
 10
0.0
 20
0.0
 30
0.0
  9
$PUCSBASE
  2

  9
$PUCSNAME
  2

  9
$PUCSORG
 10
0.0
 20
0.0
 30
0.0
  9
$PUCSXDIR
 10
1.0
 20
0.0
 30
0.0
  9
$PUCSYDIR
 10
0.0
 20
1.0
 30
0.0
  9
$PUCSORTHOREF
  2

  9
$PUCSORTHOVIEW
 70
     0
  9
$PUCSORGTOP
 10
0.0
 20
0.0
 30
0.0
  9
$PUCSORGBOTTOM
 10
0.0
 20
0.0
 30
0.0
  9
$PUCSORGLEFT
 10
0.0
 20
0.0
 30
0.0
  9
$PUCSORGRIGHT
 10
0.0
 20
0.0
 30
0.0
  9
$PUCSORGFRONT
 10
0.0
 20
0.0
 30
0.0
  9
$PUCSORGBACK
 10
0.0
 20
0.0
 30
0.0
  9
$USERI1
 70
     0
  9
$USERI2
 70
     0
  9
$USERI3
 70
     0
  9
$USERI4
 70
     0
  9
$USERI5
 70
     0
  9
$USERR1
 40
0.0
  9
$USERR2
 40
0.0
  9
$USERR3
 40
0.0
  9
$USERR4
 40
0.0
  9
$USERR5
 40
0.0
  9
$WORLDVIEW
 70
     1
  9
$SHADEDGE
 70
     3
  9
$SHADEDIF
 70
    70
  9
$TILEMODE
 70
     1
  9
$MAXACTVP
 70
    64
  9
$PINSBASE
 10
0.0
 20
0.0
 30
0.0
  9
$PLIMCHECK
 70
     0
  9
$PEXTMIN
 10
1.0000000000E+20
 20
1.0000000000E+20
 30
1.0000000000E+20
  9
$PEXTMAX
 10
-1.0000000000E+20
 20
-1.0000000000E+20
 30
-1.0000000000E+20
  9
$PLIMMIN
 10
0.0
 20
0.0
  9
$PLIMMAX
 10
12.0
 20
9.0
  9
$UNITMODE
 70
     0
  9
$VISRETAIN
 70
     1
  9
$PLINEGEN
 70
     0
  9
$PSLTSCALE
 70
     1
  9
$TREEDEPTH
 70
  3020
  9
$CMLSTYLE
  2
Standard
  9
$CMLJUST
 70
     0
  9
$CMLSCALE
 40
1.0
  9
$PROXYGRAPHICS
 70
     1
  9
$MEASUREMENT
 70
     0
  9
$CELWEIGHT
370
    -1
  9
$ENDCAPS
280
     0
  9
$JOINSTYLE
280
     0
  9
$LWDISPLAY
290
     1
  9
$INSUNITS
 70
     1
  9
$HYPERLINKBASE
  1

  9
$STYLESHEET
  1

  9
$XEDIT
290
     1
  9
$CEPSNTYPE
380
     0
  9
$PSTYLEMODE
290
     1
  9
$FINGERPRINTGUID
  2
{109811A0-8B04-4F0B-946D-671B38ED7456}
  9
$VERSIONGUID
  2
{FAEB1C32-E019-11D5-929B-00C0DF256EC4}
  9
$EXTNAMES
290
     1
  9
$PSVPSCALE
 40
0.0
  9
$OLESTARTUP
290
     0
  0
ENDSEC
  0
SECTION
  2
CLASSES
  0
CLASS
  1
ACDBDICTIONARYWDFLT
  2
AcDbDictionaryWithDefault
  3
ObjectDBX Classes
 90
        0
280
     0
281
     0
  0
CLASS
  1
VISUALSTYLE
  2
AcDbVisualStyle
  3
ObjectDBX Classes
 90
     4095
280
     0
281
     0
  0
CLASS
  1
DICTIONARYVAR
  2
AcDbDictionaryVar
  3
ObjectDBX Classes
 90
        0
280
     0
281
     0
  0
CLASS
  1
ACDBPLACEHOLDER
  2
AcDbPlaceHolder
  3
ObjectDBX Classes
 90
        0
280
     0
281
     0
  0
CLASS
  1
LAYOUT
  2
AcDbLayout
  3
ObjectDBX Classes
 90
        0
280
     0
281
     0
  0
ENDSEC
  0
SECTION
  2
TABLES
  0
TABLE
  2
VPORT
  5
8
330
0
100
AcDbSymbolTable
 70
     1
  0
VPORT
  5
29
330
8
100
AcDbSymbolTableRecord
100
AcDbViewportTableRecord
  2
*Active
 70
     0
 10
0.0
 20
0.0
 11
1.0
 21
1.0
 12
24.0
 22
24.0
 13
0.0
 23
0.0
 14
0.5
 24
0.5
 15
0.5
 25
0.5
 16
0.0
 26
0.0
 36
1.0
 17
0.0
 27
0.0
 37
0.0
 40
48.0
 41
1.0
 42
50.0
 43
0.0
 44
0.0
 50
0.0
 51
0.0
 71
     0
 72
  2000
 73
     1
 74
     3
 75
     0
 76
     0
 77
     0
 78
     0
281
     0
 65
     1
110
0.0
120
0.0
130
0.0
111
1.0
121
0.0
131
0.0
112
0.0
122
1.0
132
0.0
 79
     0
146
0.0
  0
ENDTAB
  0
TABLE
  2
LTYPE
  5
5
330
0
100
AcDbSymbolTable
 70
     6
  0
LTYPE
  5
14
330
5
100
AcDbSymbolTableRecord
100
AcDbLinetypeTableRecord
  2
ByBlock
 70
     0
  3

 72
    65
 73
     0
 40
0.0
  0
LTYPE
  5
15
330
5
100
AcDbSymbolTableRecord
100
AcDbLinetypeTableRecord
  2
ByLayer
 70
     0
  3

 72
    65
 73
     0
 40
0.0
  0
LTYPE
  5
16
330
5
100
AcDbSymbolTableRecord
100
AcDbLinetypeTableRecord
  2
Continuous
 70
     0
  3
Solid line
 72
    65
 73
     0
 40
0.0
  0
LTYPE
  5
3B
330
5
100
AcDbSymbolTableRecord
100
AcDbLinetypeTableRecord
  2
HIDDEN
 70
     0
  3
Hidden __ __ __ __ __ __ __ __ __ __ __ __ __ __
 72
    65
 73
     2
 40
0.075
 49
0.05
 74
     0
 49
-0.025
 74
     0
  0
LTYPE
  5
3C
330
5
100
AcDbSymbolTableRecord
100
AcDbLinetypeTableRecord
  2
PHANTOM
 70
     0
  3
Phantom ______  __  __  ______  __  __  ______
 72
    65
 73
     6
 40
0.5
 49
0.25
 74
     0
 49
-0.05
 74
     0
 49
0.05
 74
     0
 49
-0.05
 74
     0
 49
0.05
 74
     0
 49
-0.05
 74
     0
  0
LTYPE
  5
3D
330
5
100
AcDbSymbolTableRecord
100
AcDbLinetypeTableRecord
  2
CENTER
 70
     0
  3
Center ____ _ ____ _ ____ _ ____ _ ____ _ ____
 72
    65
 73
     4
 40
0.4
 49
0.25
 74
     0
 49
-0.05
 74
     0
 49
0.05
 74
     0
 49
-0.05
 74
     0
  0
LTYPE
  5
3E
330
5
100
AcDbSymbolTableRecord
100
AcDbLinetypeTableRecord
  2
CENTERX2
 70
     0
  3
Center (2x) ________  __  ________  __  _____
 72
    65
 73
     4
 40
0.8
 49
0.5
 74
     0
 49
-0.1
 74
     0
 49
0.1
 74
     0
 49
-0.1
 74
     0
  0
LTYPE
  5
3F
330
5
100
AcDbSymbolTableRecord
100
AcDbLinetypeTableRecord
  2
DOT2
 70
     0
  3
Dot (.5x) ........................................
 72
    65
 73
     2
 40
0.025
 49
0.0
 74
     0
 49
-0.025
 74
     0
  0
ENDTAB
  0
TABLE
  2
LAYER
  5
2
330
0
100
AcDbSymbolTable
 70
     1
  0
LAYER
  5
10
330
2
100
AcDbSymbolTableRecord
100
AcDbLayerTableRecord
  2
0
 70
     0
 62
     7
  6
Continuous
370
    -3
390
F
  0
ENDTAB
  0
TABLE
  2
STYLE
  5
3
330
0
100
AcDbSymbolTable
 70
     1
  0
STYLE
  5
11
330
3
100
AcDbSymbolTableRecord
100
AcDbTextStyleTableRecord
  2
Standard
 70
     0
 40
0.0
 41
1.0
 50
0.0
 71
     0
 42
0.2
  3
txt
  4

  0
ENDTAB
  0
TABLE
  2
VIEW
  5
6
330
0
100
AcDbSymbolTable
 70
     0
  0
ENDTAB
  0
TABLE
  2
UCS
  5
7
330
0
100
AcDbSymbolTable
 70
     0
  0
ENDTAB
  0
TABLE
  2
APPID
  5
9
330
0
100
AcDbSymbolTable
 70
     1
  0
APPID
  5
12
330
9
100
AcDbSymbolTableRecord
100
AcDbRegAppTableRecord
  2
ACAD
 70
     0
  0
ENDTAB
  0
TABLE
  2
DIMSTYLE
  5
A
330
0
100
AcDbSymbolTable
 70
     1
100
AcDbDimStyleTable
  0
DIMSTYLE
105
27
330
A
100
AcDbSymbolTableRecord
100
AcDbDimStyleTableRecord
  2
Standard
 70
     0
340
11
  0
ENDTAB
  0
TABLE
  2
BLOCK_RECORD
  5
1
330
0
100
AcDbSymbolTable
 70
     1
  0
BLOCK_RECORD
  5
1F
330
1
100
AcDbSymbolTableRecord
100
AcDbBlockTableRecord
  2
*Model_Space
340
22
  0
BLOCK_RECORD
  5
1B
330
1
100
AcDbSymbolTableRecord
100
AcDbBlockTableRecord
  2
*Paper_Space
340
1E
  0
BLOCK_RECORD
  5
23
330
1
100
AcDbSymbolTableRecord
100
AcDbBlockTableRecord
  2
*Paper_Space0
340
26
  0
ENDTAB
  0
ENDSEC
  0
SECTION
  2
BLOCKS
  0
BLOCK
  5
20
330
1F
100
AcDbEntity
  8
0
100
AcDbBlockBegin
  2
*Model_Space
 70
     0
 10
0.0
 20
0.0
 30
0.0
  3
*Model_Space
  1

  0
ENDBLK
  5
21
330
1F
100
AcDbEntity
  8
0
100
AcDbBlockEnd
  0
BLOCK
  5
1C
330
1B
100
AcDbEntity
 67
     1
  8
0
100
AcDbBlockBegin
  2
*Paper_Space
 70
     0
 10
0.0
 20
0.0
 30
0.0
  3
*Paper_Space
  1

  0
ENDBLK
  5
1D
330
1B
100
AcDbEntity
 67
     1
  8
0
100
AcDbBlockEnd
  0
BLOCK
  5
24
330
23
100
AcDbEntity
  8
0
100
AcDbBlockBegin
  2
*Paper_Space0
 70
     0
 10
0.0
 20
0.0
 30
0.0
  3
*Paper_Space0
  1

  0
ENDBLK
  5
25
330
23
100
AcDbEntity
  8
0
100
AcDbBlockEnd
  0
ENDSEC
  0
SECTION
  2
ENTITIES
  0
LINE
  5
40
330
1F
100
AcDbEntity
  8
0
  6
Continuous
 62
     7
370
    15
100
AcDbLine
 10
-6.5138492967
 20
34.4653658825
 30
0.0
 11
-6.5138492967
 21
44.0517868168
 31
0.0
  0
LINE
  5
41
330
1F
100
AcDbEntity
  8
0
  6
Continuous
 62
     7
370
    15
100
AcDbLine
 10
-6.5138492967
 20
44.0517868168
 30
0.0
 11
11.2361507033
 21
44.0517868168
 31
0.0
  0
LINE
  5
42
330
1F
100
AcDbEntity
  8
0
  6
Continuous
 62
     7
370
    15
100
AcDbLine
 10
11.2361507033
 20
44.0517868168
 30
0.0
 11
11.2361507033
 21
26.3017868168
 31
0.0
  0
LINE
  5
43
330
1F
100
AcDbEntity
  8
0
  6
Continuous
 62
     7
370
    15
100
AcDbLine
 10
11.2361507033
 20
26.3017868168
 30
0.0
 11
-1.7713071247
 21
26.3017868168
 31
0.0
  0
LINE
  5
44
330
1F
100
AcDbEntity
  8
0
  6
Continuous
 62
     7
370
    15
100
AcDbLine
 10
-1.7713071247
 20
26.3017868168
 30
0.0
 11
-6.5138492967
 21
34.4653658825
 31
0.0
  0
LINE
  5
45
330
1F
100
AcDbEntity
  8
0
  6
Continuous
 62
     7
370
    15
100
AcDbLine
 10
13.2106304985
 20
44.0517868168
 30
0.0
 11
30.9606304985
 21
44.0517868168
 31
0.0
  0
SPLINE
  5
46
330
1F
100
AcDbEntity
  8
0
  6
Continuous
 62
     7
370
    15
100
AcDbSpline
210
0.0
220
0.0
230
1.0
 70
     8
 71
     3
 72
   170
 73
   166
 74
     0
 42
0.00000001
 43
0.00000001
 40
-0.0312499999999999
 40
-0.0312499999999999
 40
0.0
 40
0.0
 40
0.03125
 40
0.03125
 40
0.0468749999999999
 40
0.0468749999999999
 40
0.0546875
 40
0.0546875
 40
0.0625
 40
0.0625
 40
0.0937500000000001
 40
0.0937500000000001
 40
0.1093750000000001
 40
0.1093750000000001
 40
0.1250000000000001
 40
0.1250000000000001
 40
0.1406250000000001
 40
0.1406250000000001
 40
0.1562500000000001
 40
0.1562500000000001
 40
0.1640625000000001
 40
0.1640625000000001
 40
0.1718750000000001
 40
0.1718750000000001
 40
0.1875000000000001
 40
0.1875000000000001
 40
0.2031250000000001
 40
0.2031250000000001
 40
0.2109375000000001
 40
0.2109375000000001
 40
0.2148437500000001
 40
0.2148437500000001
 40
0.2187500000000001
 40
0.2187500000000001
 40
0.2343750000000001
 40
0.2343750000000001
 40
0.2500000000000001
 40
0.2500000000000001
 40
0.2656250000000001
 40
0.2656250000000001
 40
0.2734375
 40
0.2734375
 40
0.28125
 40
0.28125
 40
0.296875
 40
0.296875
 40
0.3124999999999999
 40
0.3124999999999999
 40
0.3203124999999999
 40
0.3203124999999999
 40
0.3242187499999999
 40
0.3242187499999999
 40
0.3281249999999998
 40
0.3281249999999998
 40
0.3437499999999998
 40
0.3437499999999998
 40
0.3593749999999998
 40
0.3593749999999998
 40
0.3749999999999998
 40
0.3749999999999998
 40
0.3828124999999998
 40
0.3828124999999998
 40
0.3906249999999998
 40
0.3906249999999998
 40
0.4062499999999998
 40
0.4062499999999998
 40
0.4218749999999998
 40
0.4218749999999998
 40
0.4296874999999999
 40
0.4296874999999999
 40
0.4374999999999998
 40
0.4374999999999998
 40
0.4687499999999999
 40
0.4687499999999999
 40
0.4765624999999999
 40
0.4765624999999999
 40
0.4804687499999999
 40
0.4804687499999999
 40
0.4843749999999999
 40
0.4843749999999999
 40
0.4999999999999999
 40
0.4999999999999999
 40
0.5312499999999999
 40
0.5312499999999999
 40
0.5351562499999999
 40
0.5351562499999999
 40
0.5390624999999999
 40
0.5390624999999999
 40
0.5468749999999998
 40
0.5468749999999998
 40
0.5624999999999998
 40
0.5624999999999998
 40
0.5781249999999998
 40
0.5781249999999998
 40
0.5859374999999998
 40
0.5859374999999998
 40
0.5898437499999998
 40
0.5898437499999998
 40
0.5937499999999998
 40
0.5937499999999998
 40
0.6093749999999999
 40
0.6093749999999999
 40
0.6249999999999999
 40
0.6249999999999999
 40
0.640625
 40
0.640625
 40
0.64453125
 40
0.64453125
 40
0.6484375
 40
0.6484375
 40
0.65625
 40
0.65625
 40
0.6718750000000001
 40
0.6875000000000002
 40
0.6875000000000002
 40
0.6953125000000002
 40
0.6953125000000002
 40
0.6992187500000002
 40
0.6992187500000002
 40
0.7031250000000002
 40
0.7031250000000002
 40
0.7187500000000002
 40
0.7187500000000002
 40
0.7343750000000003
 40
0.7343750000000003
 40
0.7500000000000004
 40
0.7500000000000004
 40
0.7578125000000004
 40
0.7578125000000004
 40
0.7656250000000004
 40
0.7656250000000004
 40
0.7812500000000006
 40
0.7968750000000006
 40
0.7968750000000006
 40
0.8046875000000006
 40
0.8046875000000006
 40
0.8085937500000006
 40
0.8085937500000006
 40
0.8125000000000006
 40
0.8125000000000006
 40
0.8281250000000006
 40
0.8281250000000006
 40
0.8437500000000006
 40
0.8437500000000006
 40
0.8593750000000006
 40
0.8593750000000006
 40
0.8750000000000004
 40
0.8750000000000004
 40
0.9062500000000004
 40
0.9062500000000004
 40
0.9101562500000004
 40
0.9101562500000004
 40
0.9140625000000004
 40
0.9140625000000004
 40
0.9218750000000004
 40
0.9218750000000004
 40
0.9375000000000003
 40
0.9375000000000003
 40
0.9531250000000002
 40
0.9531250000000002
 40
0.9609375000000001
 40
0.9609375000000001
 40
0.9687500000000001
 40
0.9687500000000001
 40
1.0
 40
1.0
 40
1.03125
 40
1.03125
 10
22.28753355458445
 20
31.93378309298337
 30
0.0
 10
22.69446789770116
 20
32.12324694592516
 30
0.0
 10
22.88550752327169
 20
32.23598955574987
 30
0.0
 10
23.15416260463923
 20
32.43105144965237
 30
0.0
 10
23.24070837795315
 20
32.50042842627833
 30
0.0
 10
23.36591463829499
 20
32.61117843451336
 30
0.0
 10
23.40688347002224
 20
32.64921458850595
 30
0.0
 10
23.48723202437527
 20
32.72755577475905
 30
0.0
 10
23.52628496941885
 20
32.76754188533681
 30
0.0
 10
23.71605385463739
 20
32.97146942832058
 30
0.0
 10
23.85043734295281
 20
33.1472890537447
 30
0.0
 10
24.02605999524406
 20
33.42989316907996
 30
0.0
 10
24.08025217140331
 20
33.52727542583494
 30
0.0
 10
24.1795470023948
 20
33.72857760600457
 30
0.0
 10
24.22382343162616
 20
33.83082005741999
 30
0.0
 10
24.30197216422016
 20
34.03838758284028
 30
0.0
 10
24.3358435855281
 20
34.1437129181878
 30
0.0
 10
24.39321062196615
 20
34.35743782067426
 30
0.0
 10
24.41670681830927
 20
34.46583721560648
 30
0.0
 10
24.44396518369668
 20
34.63080244676901
 30
0.0
 10
24.45172333840248
 20
34.68623395364833
 30
0.0
 10
24.46448472870421
 20
34.79770586777798
 30
0.0
 10
24.46944683178714
 20
34.85336545391973
 30
0.0
 10
24.48016078281054
 20
35.0201195904426
 30
0.0
 10
24.48175023252467
 20
35.13099005512503
 30
0.0
 10
24.47401348144958
 20
35.35214333260346
 30
0.0
 10
24.46468713492456
 20
35.46242613755368
 30
0.0
 10
24.44241423882703
 20
35.62740440346475
 30
0.0
 10
24.43360691344185
 20
35.68232270253326
 30
0.0
 10
24.41828604620537
 20
35.76458656427584
 30
0.0
 10
24.41282727593715
 20
35.79198891133579
 30
0.0
 10
24.40119811250282
 20
35.84675529472578
 30
0.0
 10
24.39501805733261
 20
35.87415786589833
 30
0.0
 10
24.36247366184264
 20
36.01042868609214
 30
0.0
 10
24.33117125259647
 20
36.117253205218
 30
0.0
 10
24.25836409491053
 20
36.32665592098892
 30
0.0
 10
24.21685848050127
 20
36.42923375720823
 30
0.0
 10
24.12366868918289
 20
36.63015300327983
 30
0.0
 10
24.07198512147545
 20
36.72849466668834
 30
0.0
 10
23.9866192668546
 20
36.8727438607315
 30
0.0
 10
23.95676699280108
 20
36.92040725864248
 30
0.0
 10
23.89499962877095
 20
37.01370825636928
 30
0.0
 10
23.86305800705081
 20
37.05940725231316
 30
0.0
 10
23.76411952513821
 20
37.19370387693338
 30
0.0
 10
23.69401649821634
 20
37.27950784289211
 30
0.0
 10
23.54565385255227
 20
37.44377979820035
 30
0.0
 10
23.46739417657844
 20
37.52224773607617
 30
0.0
 10
23.34380618294522
 20
37.63437477744466
 30
0.0
 10
23.30157525283425
 20
37.6708196477264
 30
0.0
 10
23.23664877934552
 20
37.72406584273078
 30
0.0
 10
23.21471160330081
 20
37.74160174713844
 30
0.0
 10
23.1704950103453
 20
37.77604706084304
 30
0.0
 10
23.14821539750538
 20
37.79295831985225
 30
0.0
 10
23.03597081672439
 20
37.87597592102075
 30
0.0
 10
22.94347269291307
 20
37.93747780354619
 30
0.0
 10
22.75322308081319
 20
38.05093264783726
 30
0.0
 10
22.65547123559252
 20
38.10288496081553
 30
0.0
 10
22.45470986661621
 20
38.19723282444788
 30
0.0
 10
22.35170073329641
 20
38.2396290847883
 30
0.0
 10
22.19312492530402
 20
38.29583987423732
 30
0.0
 10
22.13988261979479
 20
38.31323553010166
 30
0.0
 10
22.03306763390573
 20
38.34525769730912
 30
0.0
 10
21.97942740653
 20
38.35990827095676
 30
0.0
 10
21.81781977395371
 20
38.3998442434758
 30
0.0
 10
21.7091670291707
 20
38.42112331066523
 30
0.0
 10
21.49005241398953
 20
38.45310572834217
 30
0.0
 10
21.37959057448004
 20
38.46380925939748
 30
0.0
 10
21.21251646255337
 20
38.47178949789662
 30
0.0
 10
21.15652285297275
 20
38.47310108581449
 30
0.0
 10
21.04437367449025
 20
38.47297446652199
 30
0.0
 10
20.98852573734554
 20
38.47154030394877
 30
0.0
 10
20.71039481686534
 20
38.45766338025253
 30
0.0
 10
20.49140687876224
 20
38.42529129806686
 30
0.0
 10
20.22200311789755
 20
38.35863016241699
 30
0.0
 10
20.16834085832248
 20
38.34397643320569
 30
0.0
 10
20.08817987939617
 20
38.31998533153753
 30
0.0
 10
20.06151498029366
 20
38.31165305897579
 30
0.0
 10
20.00829713214624
 20
38.29431140975091
 30
0.0
 10
19.98170833572525
 20
38.28528899763478
 30
0.0
 10
19.84961773712749
 20
38.23866934248002
 30
0.0
 10
19.74657232243715
 20
38.1965482057211
 30
0.0
 10
19.4450615582242
 20
38.05617825269366
 30
0.0
 10
19.25415090346169
 20
37.944052912312
 30
0.0
 10
19.05096369669794
 20
37.79662829554486
 30
0.0
 10
19.02854978799829
 20
37.7799493974985
 30
0.0
 10
18.98405033722316
 20
37.74598845494879
 30
0.0
 10
18.96193586097614
 20
37.7286826356443
 30
0.0
 10
18.89639140631419
 20
37.67609331760702
 30
0.0
 10
18.85371656301702
 20
37.64011053433144
 30
0.0
 10
18.72869881046304
 20
37.52944453392483
 30
0.0
 10
18.6493556409892
 20
37.4520500270488
 30
0.0
 10
18.49854512743674
 20
37.29014251430269
 30
0.0
 10
18.42707785277388
 20
37.20562944569176
 30
0.0
 10
18.32585724436908
 20
37.07345459533153
 30
0.0
 10
18.29311550580841
 20
37.02849385831446
 30
0.0
 10
18.24552628730877
 20
36.95967585005806
 30
0.0
 10
18.22991723200686
 20
36.9365069223488
 30
0.0
 10
18.19921293299549
 20
36.88970466261453
 30
0.0
 10
18.18409746174078
 20
36.86603804129926
 30
0.0
 10
18.11015170307996
 20
36.74706687531203
 30
0.0
 10
18.05611781168209
 20
36.64975522361247
 30
0.0
 10
17.95799815302728
 20
36.4509863750249
 30
0.0
 10
17.91391310735171
 20
36.3495288774422
 30
0.0
 10
17.83568747761584
 20
36.1424698633224
 30
0.0
 10
17.80154622290145
 20
36.03686862625777
 30
0.0
 10
17.76526307204009
 20
35.90220283881875
 30
0.0
 10
17.75832686333394
 20
35.87513615649267
 30
0.0
 10
17.74510287677352
 20
35.82073258015435
 30
0.0
 10
17.7388074836861
 20
35.79335824881136
 30
0.0
 10
17.72099114005766
 20
35.71122456539451
 30
0.0
 10
17.71052031743877
 20
35.65639409834615
 30
0.0
 10
17.68325141293106
 20
35.49168273224829
 30
0.0
 10
17.65792265358603
 20
35.27148205121851
 30
0.0
 10
17.65433515665464
 20
35.05012721484978
 30
0.0
 10
17.65991598680696
 20
34.88367198972844
 30
0.0
 10
17.66315729905083
 20
34.82811360111973
 30
0.0
 10
17.67012901739032
 20
34.74466402014741
 30
0.0
 10
17.67280471791925
 20
34.7168288178196
 30
0.0
 10
17.67886820151893
 20
34.66112061159332
 30
0.0
 10
17.68225891648001
 20
34.63323420295239
 30
0.0
 10
17.70089925988425
 20
34.49450349724399
 30
0.0
 10
17.72125647183501
 20
34.38513470826069
 30
0.0
 10
17.77254603742076
 20
34.16953528506264
 30
0.0
 10
17.80347915593537
 20
34.06330487782458
 30
0.0
 10
17.87592226562549
 20
33.85398273178131
 30
0.0
 10
17.91743149627282
 20
33.75089076729071
 30
0.0
 10
17.98786315971646
 20
33.59867660608087
 30
0.0
 10
18.01276740902913
 20
33.54823596629664
 30
0.0
 10
18.06479008501412
 20
33.44924805082739
 30
0.0
 10
18.09195301734486
 20
33.40058979803263
 30
0.0
 10
18.17683444985802
 20
33.25707705441337
 30
0.0
 10
18.29904065007882
 20
33.07228043953341
 30
0.0
 10
18.4390563921633
 20
32.90040809982408
 30
0.0
 10
18.55084821275678
 20
32.77642405959093
 30
0.0
 10
18.5892441845084
 20
32.73591755452721
 30
0.0
 10
18.6485681942358
 20
32.67641328511715
 30
0.0
 10
18.6686533558549
 20
32.65676794153187
 30
0.0
 10
18.70918808894454
 20
32.61810637814965
 30
0.0
 10
18.72965854967584
 20
32.59906814948552
 30
0.0
 10
18.8330147396153
 20
32.50532308384891
 30
0.0
 10
18.91890456961259
 20
32.43494359269783
 30
0.0
 10
19.09692268107549
 20
32.30317097230183
 30
0.0
 10
19.18905134211744
 20
32.24177838982885
 30
0.0
 10
19.37956069233942
 20
32.12799914370447
 30
0.0
 10
19.47796332693731
 20
32.07560119686063
 30
0.0
 10
19.68112821303559
 20
31.98013864716362
 30
0.0
 10
19.78423509841974
 20
31.93784872285661
 30
0.0
 10
20.09795456438514
 20
31.82668007919992
 30
0.0
 10
20.31292527266721
 20
31.77335727822137
 30
0.0
 10
20.56138325782562
 20
31.73698408378256
 30
0.0
 10
20.58908246002826
 20
31.73327371353148
 30
0.0
 10
20.64466813447325
 20
31.72652141545487
 30
0.0
 10
20.67258907917484
 20
31.72347670762847
 30
0.0
 10
20.75622797933717
 20
31.71539273725834
 30
0.0
 10
20.81190445357853
 20
31.71138935280465
 30
0.0
 10
20.97869070223117
 20
31.70344988086923
 30
0.0
 10
21.08955787624838
 20
31.7035748715777
 30
0.0
 10
21.31065792481767
 20
31.71444288901994
 30
0.0
 10
21.42089078111717
 20
31.72518622129789
 30
0.0
 10
21.58576037102439
 20
31.74933120272519
 30
0.0
 10
21.6406368117462
 20
31.75872020656584
 30
0.0
 10
21.75022710630796
 20
31.7802198835277
 30
0.0
 10
21.80506135591849
 20
31.79236235395719
 30
0.0
 10
22.07700050517014
 20
31.85956254451207
 30
0.0
 10
22.28753355458445
 20
31.93378309298337
 30
0.0
 10
22.69446789770116
 20
32.12324694592516
 30
0.0
  0
LINE
  5
47
330
1F
100
AcDbEntity
  8
0
  6
Continuous
 62
     7
370
    15
100
AcDbLine
 10
13.2106304985
 20
26.3017868168
 30
0.0
 11
13.2106304985
 21
44.0517868168
 31
0.0
  0
LINE
  5
48
330
1F
100
AcDbEntity
  8
0
  6
Continuous
 62
     7
370
    15
100
AcDbLine
 10
30.9606304985
 20
44.0517868168
 30
0.0
 11
30.9606304985
 21
26.3017868168
 31
0.0
  0
LINE
  5
49
330
1F
100
AcDbEntity
  8
0
  6
Continuous
 62
     7
370
    15
100
AcDbLine
 10
30.9606304985
 20
26.3017868168
 30
0.0
 11
13.2106304985
 21
26.3017868168
 31
0.0
  0
SPLINE
  5
4A
330
1F
100
AcDbEntity
  8
0
  6
Continuous
 62
     7
370
    15
100
AcDbSpline
210
0.0
220
0.0
230
1.0
 70
     8
 71
     3
 72
    45
 73
    41
 74
     0
 42
0.00000001
 43
0.00000001
 40
0.0
 40
0.0
 40
0.0
 40
0.0
 40
0.0192877752593929
 40
0.0463081318459229
 40
0.073913324125637
 40
0.1017210953049426
 40
0.1285565114753549
 40
0.1555794736017065
 40
0.183197149008076
 40
0.2110217974029426
 40
0.2376812198214838
 40
0.2645291706758102
 40
0.2919759605794037
 40
0.3196314747236764
 40
0.3459471943639438
 40
0.3724489833514841
 40
0.3995408133207793
 40
0.4268377930744225
 40
0.4528466783910924
 40
0.4790379915274506
 40
0.5058055451643111
 40
0.5327724543871577
 40
0.5586391410739262
 40
0.584685104848766
 40
0.6112948961429705
 40
0.6380987245733138
 40
0.6640375055949098
 40
0.6901541371563199
 40
0.7168283924559914
 40
0.7436938838492544
 40
0.7698839639836472
 40
0.7962526310657316
 40
0.823180854290693
 40
0.8503008947142204
 40
0.8768207288861554
 40
0.9035217200902468
 40
0.9307914591090035
 40
0.958256718223237
 40
0.9850515682299704
 40
1.0
 40
1.0
 40
1.0
 40
1.0
 10
22.56029305221325
 20
32.06436944048261
 30
0.0
 10
22.62165867109675
 20
32.09512436379678
 30
0.0
 10
22.76899174252912
 20
32.16896403812886
 30
0.0
 10
22.99068079897816
 20
32.31129490959854
 30
0.0
 10
23.22535467248649
 20
32.4874980011348
 30
0.0
 10
23.44320294286652
 20
32.68340504710016
 30
0.0
 10
23.64242923862492
 20
32.895258005748
 30
0.0
 10
23.82286137976744
 20
33.12250557273069
 30
0.0
 10
23.98534532618038
 20
33.36716678457773
 30
0.0
 10
24.12549352445026
 20
33.62381350169286
 30
0.0
 10
24.242179016736
 20
33.8889133268054
 30
0.0
 10
24.33579344198099
 20
34.16159984383913
 30
0.0
 10
24.40665410875154
 20
34.44474078725312
 30
0.0
 10
24.45233670711355
 20
34.73110949309202
 30
0.0
 10
24.47314334303413
 20
35.01693754694754
 30
0.0
 10
24.46993789179521
 20
35.30150637710699
 30
0.0
 10
24.44213784919192
 20
35.58826007594773
 30
0.0
 10
24.38989052355797
 20
35.86980634679535
 30
0.0
 10
24.31472155645965
 20
36.14275179787149
 30
0.0
 10
24.21767820121231
 20
36.40670810928167
 30
0.0
 10
24.09716498294558
 20
36.66459568506567
 30
0.0
 10
23.95549607406949
 20
36.9101705881243
 30
0.0
 10
23.79506805169731
 20
37.14075736340646
 30
0.0
 10
23.61687124090552
 20
37.35626606525131
 30
0.0
 10
23.41885314062528
 20
37.55843444619817
 30
0.0
 10
23.20464082834351
 20
37.74278086346747
 30
0.0
 10
22.97717951028398
 20
37.9074826863406
 30
0.0
 10
22.73729843542761
 20
38.05262414338428
 30
0.0
 10
22.48317965491799
 20
38.17872341860787
 30
0.0
 10
22.21908504056831
 20
38.28304150243185
 30
0.0
 10
21.94828229979837
 20
38.36467906037826
 30
0.0
 10
21.67146041198998
 20
38.42381336081507
 30
0.0
 10
21.38738244074512
 20
38.46015011540282
 30
0.0
 10
21.10071624394799
 20
38.47249758815586
 30
0.0
 10
20.81483474321551
 20
38.46100860915291
 30
0.0
 10
20.53037366167866
 20
38.42588411868267
 30
0.0
 10
20.24637724199846
 20
38.36676590198824
 30
0.0
 10
19.96858768338251
 20
38.28277392536283
 30
0.0
 10
19.73790286258856
 20
38.19527130738456
 30
0.0
 10
19.60544445705838
 20
38.12803743222378
 30
0.0
 10
19.55801058618968
 20
38.10396071969193
 30
0.0
  0
LINE
  5
4B
330
1F
100
AcDbEntity
  8
0
  6
Continuous
 62
     7
370
    15
100
AcDbLine
 10
50.7198496123
 20
26.180199202
 30
0.0
 11
32.9698496123
 21
26.180199202
 31
0.0
  0
LINE
  5
4C
330
1F
100
AcDbEntity
  8
0
  6
Continuous
 62
     7
370
    15
100
AcDbLine
 10
32.9698496123
 20
26.180199202
 30
0.0
 11
32.9698496123
 21
43.930199202
 31
0.0
  0
LINE
  5
4D
330
1F
100
AcDbEntity
  8
0
  6
Continuous
 62
     7
370
    15
100
AcDbLine
 10
32.9698496123
 20
43.930199202
 30
0.0
 11
50.7198496123
 21
43.930199202
 31
0.0
  0
LINE
  5
4E
330
1F
100
AcDbEntity
  8
0
  6
Continuous
 62
     7
370
    15
100
AcDbLine
 10
50.7198496123
 20
43.930199202
 30
0.0
 11
50.7198496123
 21
26.180199202
 31
0.0
  0
LINE
  5
4F
330
1F
100
AcDbEntity
  8
0
  6
Continuous
 62
     7
370
    15
100
AcDbLine
 10
-6.5138492967
 20
20.830987793
 30
0.0
 11
11.2361507033
 21
20.830987793
 31
0.0
  0
LINE
  5
50
330
1F
100
AcDbEntity
  8
0
  6
Continuous
 62
     7
370
    15
100
AcDbLine
 10
11.2361507033
 20
11.6336939702
 30
0.0
 11
6.6257891717
 21
12.2411271595
 31
0.0
  0
LINE
  5
51
330
1F
100
AcDbEntity
  8
0
  6
Continuous
 62
     7
370
    15
100
AcDbLine
 10
11.2361507033
 20
8.1960047339
 30
0.0
 11
6.6257891717
 21
12.2411271595
 31
0.0
  0
LINE
  5
52
330
1F
100
AcDbEntity
  8
0
  6
Continuous
 62
     7
370
    15
100
AcDbLine
 10
11.2361507033
 20
20.830987793
 30
0.0
 11
11.2361507033
 21
11.6336939702
 31
0.0
  0
LINE
  5
53
330
1F
100
AcDbEntity
  8
0
  6
Continuous
 62
     7
370
    15
100
AcDbLine
 10
11.2361507033
 20
3.080987793
 30
0.0
 11
-6.5138492967
 21
3.080987793
 31
0.0
  0
LINE
  5
54
330
1F
100
AcDbEntity
  8
0
  6
Continuous
 62
     7
370
    15
100
AcDbLine
 10
-6.5138492967
 20
3.080987793
 30
0.0
 11
-6.5138492967
 21
20.830987793
 31
0.0
  0
LINE
  5
55
330
1F
100
AcDbEntity
  8
0
  6
Continuous
 62
     7
370
    15
100
AcDbLine
 10
11.2361507033
 20
8.1960047339
 30
0.0
 11
11.2361507033
 21
3.080987793
 31
0.0
  0
LINE
  5
56
330
1F
100
AcDbEntity
  8
0
  6
Continuous
 62
     7
370
    15
100
AcDbLine
 10
13.8416707653
 20
3.080987793
 30
0.0
 11
13.8416707653
 21
7.4367363372
 31
0.0
  0
LINE
  5
57
330
1F
100
AcDbEntity
  8
0
  6
Continuous
 62
     7
370
    15
100
AcDbLine
 10
18.9178716836
 20
3.080987793
 30
0.0
 11
13.8416707653
 21
7.4367363372
 31
0.0
  0
LINE
  5
58
330
1F
100
AcDbEntity
  8
0
  6
Continuous
 62
     7
370
    15
100
AcDbLine
 10
18.9178716836
 20
3.080987793
 30
0.0
 11
13.8416707653
 21
3.080987793
 31
0.0
  0
LINE
  5
59
330
1F
100
AcDbEntity
  8
0
  6
Continuous
 62
     7
370
    15
100
AcDbLine
 10
18.9817793129
 20
3.080987793
 30
0.0
 11
13.8416707653
 21
7.4915737182
 31
0.0
  0
LINE
  5
5A
330
1F
100
AcDbEntity
  8
0
  6
Continuous
 62
     7
370
    15
100
AcDbLine
 10
18.9817793129
 20
3.080987793
 30
0.0
 11
18.9178716836
 21
3.080987793
 31
0.0
  0
LINE
  5
5B
330
1F
100
AcDbEntity
  8
0
  6
Continuous
 62
     7
370
    15
100
AcDbLine
 10
13.8416707653
 20
7.4367363372
 30
0.0
 11
13.8416707653
 21
7.4915737182
 31
0.0
  0
LINE
  5
5C
330
1F
100
AcDbEntity
  8
0
  6
Continuous
 62
     7
370
    15
100
AcDbLine
 10
13.8416707653
 20
12.1448558566
 30
0.0
 11
13.8416707653
 21
20.830987793
 31
0.0
  0
LINE
  5
5D
330
1F
100
AcDbEntity
  8
0
  6
Continuous
 62
     7
370
    15
100
AcDbLine
 10
13.8416707653
 20
20.830987793
 30
0.0
 11
31.5916707653
 21
20.830987793
 31
0.0
  0
LINE
  5
5E
330
1F
100
AcDbEntity
  8
0
  6
Continuous
 62
     7
370
    15
100
AcDbLine
 10
31.5916707653
 20
12.2578463713
 30
0.0
 11
19.4723345806
 21
19.465416696
 31
0.0
  0
LINE
  5
5F
330
1F
100
AcDbEntity
  8
0
  6
Continuous
 62
     7
370
    15
100
AcDbLine
 10
19.4723345806
 20
19.465416696
 30
0.0
 11
13.8416707653
 21
12.1448558566
 31
0.0
  0
LINE
  5
60
330
1F
100
AcDbEntity
  8
0
  6
Continuous
 62
     7
370
    15
100
AcDbLine
 10
31.5916707653
 20
20.830987793
 30
0.0
 11
31.5916707653
 21
12.2578463713
 31
0.0
  0
LINE
  5
61
330
1F
100
AcDbEntity
  8
0
  6
Continuous
 62
     7
370
    15
100
AcDbLine
 10
31.5916707653
 20
12.1502619422
 30
0.0
 11
19.415557017
 21
19.3915988262
 31
0.0
  0
LINE
  5
62
330
1F
100
AcDbEntity
  8
0
  6
Continuous
 62
     7
370
    15
100
AcDbLine
 10
31.5916707653
 20
12.1502619422
 30
0.0
 11
31.5916707653
 21
12.2578463713
 31
0.0
  0
LINE
  5
63
330
1F
100
AcDbEntity
  8
0
  6
Continuous
 62
     7
370
    15
100
AcDbLine
 10
39.7651162074
 20
15.4054357358
 30
0.0
 11
32.9698496123
 21
8.4571256735
 31
0.0
  0
LINE
  5
64
330
1F
100
AcDbEntity
  8
0
  6
Continuous
 62
     7
370
    15
100
AcDbLine
 10
39.7651162074
 20
15.4054357358
 30
0.0
 11
38.1177063103
 21
20.1737076882
 31
0.0
  0
LINE
  5
65
330
1F
100
AcDbEntity
  8
0
  6
Continuous
 62
     7
370
    15
100
AcDbLine
 10
38.1177063103
 20
20.1737076882
 30
0.0
 11
50.7198496123
 21
20.1737076882
 31
0.0
  0
LINE
  5
66
330
1F
100
AcDbEntity
  8
0
  6
Continuous
 62
     7
370
    15
100
AcDbLine
 10
50.7198496123
 20
20.1737076882
 30
0.0
 11
50.7198496123
 21
2.4237076882
 31
0.0
  0
LINE
  5
67
330
1F
100
AcDbEntity
  8
0
  6
Continuous
 62
     7
370
    15
100
AcDbLine
 10
50.7198496123
 20
2.4237076882
 30
0.0
 11
32.9698496123
 21
2.4237076882
 31
0.0
  0
LINE
  5
68
330
1F
100
AcDbEntity
  8
0
  6
Continuous
 62
     7
370
    15
100
AcDbLine
 10
32.9698496123
 20
2.4237076882
 30
0.0
 11
32.9698496123
 21
8.4571256735
 31
0.0
  0
LINE
  5
69
330
1F
100
AcDbEntity
  8
0
  6
Continuous
 62
     7
370
    15
100
AcDbLine
 10
39.7382859745
 20
15.3780012305
 30
0.0
 11
38.0813976173
 21
20.1737076882
 31
0.0
  0
LINE
  5
6A
330
1F
100
AcDbEntity
  8
0
  6
Continuous
 62
     7
370
    15
100
AcDbLine
 10
38.1177063103
 20
20.1737076882
 30
0.0
 11
38.0813976173
 21
20.1737076882
 31
0.0
  0
ENDSEC
  0
SECTION
  2
OBJECTS
  0
DICTIONARY
  5
C
330
0
100
AcDbDictionary
281
     1
  3
ACAD_GROUP
350
D
  3
ACAD_LAYOUT
350
1A
  3
ACAD_MLEADERSTYLE
350
6D
  3
ACAD_MLINESTYLE
350
17
  3
ACAD_PLOTSETTINGS
350
19
  3
ACAD_PLOTSTYLENAME
350
E
  3
ACAD_VISUALSTYLE
350
2A
  3
AcDbVariableDictionary
350
6B
  0
DICTIONARY
  5
D
102
{ACAD_REACTORS
330
C
102
}
330
C
100
AcDbDictionary
281
     1
  0
DICTIONARY
  5
1A
102
{ACAD_REACTORS
330
C
102
}
330
C
100
AcDbDictionary
281
     1
  3
Layout1
350
1E
  3
Layout2
350
26
  3
Model
350
22
  0
DICTIONARY
  5
6D
102
{ACAD_REACTORS
330
C
102
}
330
C
100
AcDbDictionary
281
     1
  0
DICTIONARY
  5
17
102
{ACAD_REACTORS
330
C
102
}
330
C
100
AcDbDictionary
281
     1
  3
Standard
350
18
  0
DICTIONARY
  5
19
102
{ACAD_REACTORS
330
C
102
}
330
C
100
AcDbDictionary
281
     1
  0
ACDBDICTIONARYWDFLT
  5
E
102
{ACAD_REACTORS
330
C
102
}
330
C
100
AcDbDictionary
281
     1
  3
Normal
350
F
100
AcDbDictionaryWithDefault
340
F
  0
DICTIONARY
  5
2A
102
{ACAD_REACTORS
330
C
102
}
330
C
100
AcDbDictionary
281
     1
  3
2dWireframe
350
2F
  3
3D Hidden
350
31
  3
3dWireframe
350
30
  3
Basic
350
32
  3
Brighten
350
36
  3
ColorChange
350
3A
  3
Conceptual
350
34
  3
Dim
350
35
  3
Facepattern
350
39
  3
Flat
350
2B
  3
FlatWithEdges
350
2C
  3
Gouraud
350
2D
  3
GouraudWithEdges
350
2E
  3
Linepattern
350
38
  3
Realistic
350
33
  3
Thicken
350
37
  0
DICTIONARY
  5
6B
102
{ACAD_REACTORS
330
C
102
}
330
C
100
AcDbDictionary
281
     1
  3
DIMASSOC
350
6E
  3
HIDETEXT
350
6F
  0
LAYOUT
  5
1E
102
{ACAD_REACTORS
330
1A
102
}
330
1A
100
AcDbPlotSettings
  1

  2
none_device
  4

  6

 40
0.0
 41
0.0
 42
0.0
 43
0.0
 44
0.0
 45
0.0
 46
0.0
 47
0.0
 48
0.0
 49
0.0
140
0.0
141
0.0
142
1.0
143
1.0
 70
   688
 72
     0
 73
     0
 74
     5
  7

 75
    16
147
1.0
148
0.0
149
0.0
100
AcDbLayout
  1
Layout1
 70
     1
 71
     1
 10
0.0
 20
0.0
 11
12.0
 21
9.0
 12
0.0
 22
0.0
 32
0.0
 14
1.0000000000E+20
 24
1.0000000000E+20
 34
1.0000000000E+20
 15
-1.0000000000E+20
 25
-1.0000000000E+20
 35
-1.0000000000E+20
146
0.0
 13
0.0
 23
0.0
 33
0.0
 16
1.0
 26
0.0
 36
0.0
 17
0.0
 27
1.0
 37
0.0
 76
     0
330
1B
  0
LAYOUT
  5
26
102
{ACAD_REACTORS
330
1A
102
}
330
1A
100
AcDbPlotSettings
  1

  2
none_device
  4

  6

 40
0.0
 41
0.0
 42
0.0
 43
0.0
 44
0.0
 45
0.0
 46
0.0
 47
0.0
 48
0.0
 49
0.0
140
0.0
141
0.0
142
1.0
143
1.0
 70
   688
 72
     0
 73
     0
 74
     5
  7

 75
    16
147
1.0
148
0.0
149
0.0
100
AcDbLayout
  1
Layout2
 70
     1
 71
     2
 10
0.0
 20
0.0
 11
0.0
 21
0.0
 12
0.0
 22
0.0
 32
0.0
 14
0.0
 24
0.0
 34
0.0
 15
0.0
 25
0.0
 35
0.0
146
0.0
 13
0.0
 23
0.0
 33
0.0
 16
1.0
 26
0.0
 36
0.0
 17
0.0
 27
1.0
 37
0.0
 76
     0
330
23
  0
LAYOUT
  5
22
102
{ACAD_REACTORS
330
1A
102
}
330
1A
100
AcDbPlotSettings
  1

  2
none_device
  4

  6

 40
0.0
 41
0.0
 42
0.0
 43
0.0
 44
0.0
 45
0.0
 46
0.0
 47
0.0
 48
0.0
 49
0.0
140
0.0
141
0.0
142
1.0
143
1.0
 70
  1712
 72
     0
 73
     0
 74
     0
  7

 75
     0
147
1.0
148
0.0
149
0.0
100
AcDbLayout
  1
Model
 70
     1
 71
     0
 10
0.0
 20
0.0
 11
48.0
 21
48.0
 12
0.0
 22
0.0
 32
0.0
 14
0.0
 24
0.0
 34
0.0
 15
48.0
 25
48.0
 35
0.0
146
0.0
 13
0.0
 23
0.0
 33
0.0
 16
1.0
 26
0.0
 36
0.0
 17
0.0
 27
1.0
 37
0.0
 76
     0
330
1F
331
29
  0
MLINESTYLE
  5
18
102
{ACAD_REACTORS
330
17
102
}
330
17
100
AcDbMlineStyle
  2
Standard
 70
     0
  3

 62
   256
 51
90.0
 52
90.0
 71
     2
 49
0.5
 62
   256
  6
BYLAYER
 49
-0.5
 62
   256
  6
BYLAYER
  0
ACDBPLACEHOLDER
  5
F
102
{ACAD_REACTORS
330
E
102
}
330
E
  0
VISUALSTYLE
  5
2F
102
{ACAD_REACTORS
330
2A
102
}
330
2A
100
AcDbVisualStyle
  2
2dWireframe
 70
     4
 71
     0
 72
     2
 73
     0
 90
        0
 40
-0.6
 41
-30.0
 62
     5
 63
     7
 74
     1
 91
        4
 64
     7
 65
   257
 75
     1
175
     1
 42
1.0
 92
        0
 66
   257
 43
1.0
 76
     1
 77
     6
 78
     2
 67
     7
 79
     5
170
     0
171
     0
290
     0
174
     0
 93
        1
 44
0.0
173
     0
291
     0
 45
0.0
1001
ACAD
1000
AcDbSavedByObjectVersion
1070
     0
  0
VISUALSTYLE
  5
31
102
{ACAD_REACTORS
330
2A
102
}
330
2A
100
AcDbVisualStyle
  2
3D Hidden
 70
     6
 71
     1
 72
     2
 73
     2
 90
        0
 40
-0.6
 41
-30.0
 62
     5
 63
     7
 74
     2
 91
        2
 64
     7
 65
   257
 75
     2
175
     1
 42
40.0
 92
        0
 66
   257
 43
1.0
 76
     1
 77
     6
 78
     2
 67
     7
 79
     3
170
     0
171
     0
290
     0
174
     0
 93
        1
 44
0.0
173
     0
291
     0
 45
0.0
1001
ACAD
1000
AcDbSavedByObjectVersion
1070
     0
  0
VISUALSTYLE
  5
30
102
{ACAD_REACTORS
330
2A
102
}
330
2A
100
AcDbVisualStyle
  2
3dWireframe
 70
     5
 71
     0
 72
     2
 73
     0
 90
        0
 40
-0.6
 41
-30.0
 62
     5
 63
     7
 74
     1
 91
        4
 64
     7
 65
   257
 75
     1
175
     1
 42
1.0
 92
        0
 66
   257
 43
1.0
 76
     1
 77
     6
 78
     2
 67
     7
 79
     5
170
     0
171
     0
290
     0
174
     0
 93
        1
 44
0.0
173
     0
291
     0
 45
0.0
1001
ACAD
1000
AcDbSavedByObjectVersion
1070
     0
  0
VISUALSTYLE
  5
32
102
{ACAD_REACTORS
330
2A
102
}
330
2A
100
AcDbVisualStyle
  2
Basic
 70
     7
 71
     1
 72
     0
 73
     1
 90
        0
 40
-0.6
 41
-30.0
 62
     5
 63
     7
 74
     0
 91
        4
 64
     7
 65
   257
 75
     1
175
     1
 42
1.0
 92
        8
 66
     7
 43
1.0
 76
     1
 77
     6
 78
     2
 67
     7
 79
     5
170
     0
171
     0
290
     0
174
     0
 93
        1
 44
0.0
173
     0
291
     1
 45
0.0
1001
ACAD
1000
AcDbSavedByObjectVersion
1070
     0
  0
VISUALSTYLE
  5
36
102
{ACAD_REACTORS
330
2A
102
}
330
2A
100
AcDbVisualStyle
  2
Brighten
 70
    12
 71
     2
 72
     2
 73
     0
 90
        0
 40
-0.6
 41
-30.0
 62
     5
 63
     7
 74
     1
 91
        4
 64
     7
 65
   257
 75
     1
175
     1
 42
1.0
 92
        8
 66
     7
 43
1.0
 76
     1
 77
     6
 78
     2
 67
     7
 79
     5
170
     0
171
     0
290
     0
174
     0
 93
        1
 44
50.0
173
     0
291
     1
 45
0.0
1001
ACAD
1000
AcDbSavedByObjectVersion
1070
     0
  0
VISUALSTYLE
  5
3A
102
{ACAD_REACTORS
330
2A
102
}
330
2A
100
AcDbVisualStyle
  2
ColorChange
 70
    16
 71
     2
 72
     2
 73
     3
 90
        0
 40
-0.6
 41
-30.0
 62
     5
 63
     8
 74
     1
 91
        4
 64
     7
 65
   257
 75
     1
175
     1
 42
1.0
 92
        8
 66
     8
 43
1.0
 76
     1
 77
     6
 78
     2
 67
     7
 79
     5
170
     0
171
     0
290
     0
174
     0
 93
        1
 44
0.0
173
     0
291
     1
 45
0.0
1001
ACAD
1000
AcDbSavedByObjectVersion
1070
     0
  0
VISUALSTYLE
  5
34
102
{ACAD_REACTORS
330
2A
102
}
330
2A
100
AcDbVisualStyle
  2
Conceptual
 70
     9
 71
     3
 72
     2
 73
     0
 90
        0
 40
-0.6
 41
-30.0
 62
     5
 63
     7
 74
     2
 91
        2
 64
     7
 65
   257
 75
     1
175
     1
 42
40.0
 92
        8
 66
     7
 43
1.0
 76
     1
 77
     6
 78
     2
 67
     7
 79
     3
170
     0
171
     0
290
     0
174
     0
 93
        1
 44
0.0
173
     0
291
     0
 45
0.0
1001
ACAD
1000
AcDbSavedByObjectVersion
1070
     0
  0
VISUALSTYLE
  5
35
102
{ACAD_REACTORS
330
2A
102
}
330
2A
100
AcDbVisualStyle
  2
Dim
 70
    11
 71
     2
 72
     2
 73
     0
 90
        0
 40
-0.6
 41
-30.0
 62
     5
 63
     7
 74
     1
 91
        4
 64
     7
 65
   257
 75
     1
175
     1
 42
1.0
 92
        8
 66
     7
 43
1.0
 76
     1
 77
     6
 78
     2
 67
     7
 79
     5
170
     0
171
     0
290
     0
174
     0
 93
        1
 44
-50.0
173
     0
291
     1
 45
0.0
1001
ACAD
1000
AcDbSavedByObjectVersion
1070
     0
  0
VISUALSTYLE
  5
39
102
{ACAD_REACTORS
330
2A
102
}
330
2A
100
AcDbVisualStyle
  2
Facepattern
 70
    15
 71
     2
 72
     2
 73
     0
 90
        0
 40
-0.6
 41
-30.0
 62
     5
 63
     7
 74
     1
 91
        4
 64
     7
 65
   257
 75
     1
175
     1
 42
1.0
 92
        8
 66
     7
 43
1.0
 76
     1
 77
     6
 78
     2
 67
     7
 79
     5
170
     0
171
     0
290
     0
174
     0
 93
        1
 44
0.0
173
     0
291
     1
 45
0.0
1001
ACAD
1000
AcDbSavedByObjectVersion
1070
     0
  0
VISUALSTYLE
  5
2B
102
{ACAD_REACTORS
330
2A
102
}
330
2A
100
AcDbVisualStyle
  2
Flat
 70
     0
 71
     2
 72
     1
 73
     1
 90
        2
 40
-0.6
 41
30.0
 62
     5
 63
     7
 74
     0
 91
        4
 64
     7
 65
   257
 75
     1
175
     1
 42
1.0
 92
        8
 66
     7
 43
1.0
 76
     1
 77
     6
 78
     2
 67
     7
 79
     5
170
     0
171
     0
290
     0
174
     0
 93
       13
 44
0.0
173
     0
291
     1
 45
0.0
1001
ACAD
1000
AcDbSavedByObjectVersion
1070
     0
  0
VISUALSTYLE
  5
2C
102
{ACAD_REACTORS
330
2A
102
}
330
2A
100
AcDbVisualStyle
  2
FlatWithEdges
 70
     1
 71
     2
 72
     1
 73
     1
 90
        2
 40
-0.6
 41
30.0
 62
     5
 63
     7
 74
     1
 91
        4
 64
     7
 65
   257
 75
     1
175
     1
 42
1.0
 92
        0
 66
   257
 43
1.0
 76
     1
 77
     6
 78
     2
 67
     7
 79
     5
170
     0
171
     0
290
     0
174
     0
 93
       13
 44
0.0
173
     0
291
     1
 45
0.0
1001
ACAD
1000
AcDbSavedByObjectVersion
1070
     0
  0
VISUALSTYLE
  5
2D
102
{ACAD_REACTORS
330
2A
102
}
330
2A
100
AcDbVisualStyle
  2
Gouraud
 70
     2
 71
     2
 72
     2
 73
     1
 90
        2
 40
-0.6
 41
30.0
 62
     5
 63
     7
 74
     0
 91
        4
 64
     7
 65
   257
 75
     1
175
     1
 42
1.0
 92
        0
 66
     7
 43
1.0
 76
     1
 77
     6
 78
     2
 67
     7
 79
     5
170
     0
171
     0
290
     0
174
     0
 93
       13
 44
0.0
173
     0
291
     1
 45
0.0
1001
ACAD
1000
AcDbSavedByObjectVersion
1070
     0
  0
VISUALSTYLE
  5
2E
102
{ACAD_REACTORS
330
2A
102
}
330
2A
100
AcDbVisualStyle
  2
GouraudWithEdges
 70
     3
 71
     2
 72
     2
 73
     1
 90
        2
 40
-0.6
 41
30.0
 62
     5
 63
     7
 74
     1
 91
        4
 64
     7
 65
   257
 75
     1
175
     1
 42
1.0
 92
        0
 66
   257
 43
1.0
 76
     1
 77
     6
 78
     2
 67
     7
 79
     5
170
     0
171
     0
290
     0
174
     0
 93
       13
 44
0.0
173
     0
291
     1
 45
0.0
1001
ACAD
1000
AcDbSavedByObjectVersion
1070
     0
  0
VISUALSTYLE
  5
38
102
{ACAD_REACTORS
330
2A
102
}
330
2A
100
AcDbVisualStyle
  2
Linepattern
 70
    14
 71
     2
 72
     2
 73
     0
 90
        0
 40
-0.6
 41
-30.0
 62
     5
 63
     7
 74
     1
 91
        4
 64
     7
 65
   257
 75
     7
175
     7
 42
1.0
 92
        8
 66
     7
 43
1.0
 76
     1
 77
     6
 78
     2
 67
     7
 79
     5
170
     0
171
     0
290
     0
174
     0
 93
        1
 44
0.0
173
     0
291
     1
 45
0.0
1001
ACAD
1000
AcDbSavedByObjectVersion
1070
     0
  0
VISUALSTYLE
  5
33
102
{ACAD_REACTORS
330
2A
102
}
330
2A
100
AcDbVisualStyle
  2
Realistic
 70
     8
 71
     2
 72
     2
 73
     0
 90
        0
 40
-0.6
 41
-30.0
 62
     5
 63
     7
 74
     1
 91
        0
 64
     7
 65
   257
 75
     1
175
     1
 42
1.0
 92
        8
 66
     8
 43
1.0
 76
     1
 77
     6
 78
     2
 67
     7
 79
     5
170
     0
171
     0
290
     0
174
     0
 93
       13
 44
0.0
173
     0
291
     0
 45
0.0
1001
ACAD
1000
AcDbSavedByObjectVersion
1070
     0
  0
VISUALSTYLE
  5
37
102
{ACAD_REACTORS
330
2A
102
}
330
2A
100
AcDbVisualStyle
  2
Thicken
 70
    13
 71
     2
 72
     2
 73
     0
 90
        0
 40
-0.6
 41
-30.0
 62
     5
 63
     7
 74
     1
 91
        4
 64
     7
 65
   257
 75
     1
175
     1
 42
1.0
 92
       12
 66
     7
 43
1.0
 76
     1
 77
     6
 78
     2
 67
     7
 79
     5
170
     0
171
     0
290
     0
174
     0
 93
        1
 44
0.0
173
     0
291
     1
 45
0.0
1001
ACAD
1000
AcDbSavedByObjectVersion
1070
     0
  0
DICTIONARYVAR
  5
6E
102
{ACAD_REACTORS
330
6B
102
}
330
6B
100
DictionaryVariables
280
     0
  1
2
  0
DICTIONARYVAR
  5
6F
102
{ACAD_REACTORS
330
6B
102
}
330
6B
100
DictionaryVariables
280
     0
  1
1
  0
ENDSEC
  0
EOF
