  0
SECTION
  2
HEADER
  9
$ACADVER
  1
AC1018
  9
$ACADMAINTVER
 70
     0
  9
$DWGCODEPAGE
  3
ANSI_1252
  9
$INSBASE
 10
0.0
 20
0.0
 30
0.0
  9
$EXTMIN
 10
3.1811277408
 20
1.09346565012
 30
0.0
  9
$EXTMAX
 10
14.3446642975
 20
20.7504791607
 30
0.0
  9
$LIMMIN
 10
0.0
 20
0.0
  9
$LIMMAX
 10
12.0
 20
9.0
  9
$ORTHOMODE
 70
     0
  9
$REGENMODE
 70
     1
  9
$FILLMODE
 70
     1
  9
$QTEXTMODE
 70
     0
  9
$MIRRTEXT
 70
     1
  9
$LTSCALE
 40
0.0393700787401575
  9
$ATTMODE
 70
     1
  9
$TEXTSIZE
 40
0.2
  9
$TRACEWID
 40
0.05
  9
$TEXTSTYLE
  7
Standard
  9
$CLAYER
  8
0
  9
$CELTYPE
  6
ByLayer
  9
$CECOLOR
 62
   256
  9
$CELTSCALE
 40
1.0
  9
$DISPSILH
 70
     0
  9
$DIMSCALE
 40
1.0
  9
$DIMASZ
 40
0.18
  9
$DIMEXO
 40
0.0625
  9
$DIMDLI
 40
0.38
  9
$DIMRND
 40
0.0
  9
$DIMDLE
 40
0.0
  9
$DIMEXE
 40
0.18
  9
$DIMTP
 40
0.0
  9
$DIMTM
 40
0.0
  9
$DIMTXT
 40
0.18
  9
$DIMCEN
 40
0.09
  9
$DIMTSZ
 40
0.0
  9
$DIMTOL
 70
     0
  9
$DIMLIM
 70
     0
  9
$DIMTIH
 70
     1
  9
$DIMTOH
 70
     1
  9
$DIMSE1
 70
     0
  9
$DIMSE2
 70
     0
  9
$DIMTAD
 70
     0
  9
$DIMZIN
 70
     0
  9
$DIMBLK
  1

  9
$DIMASO
 70
     1
  9
$DIMSHO
 70
     1
  9
$DIMPOST
  1

  9
$DIMAPOST
  1

  9
$DIMALT
 70
     0
  9
$DIMALTD
 70
     2
  9
$DIMALTF
 40
25.4
  9
$DIMLFAC
 40
1.0
  9
$DIMTOFL
 70
     0
  9
$DIMTVP
 40
0.0
  9
$DIMTIX
 70
     0
  9
$DIMSOXD
 70
     0
  9
$DIMSAH
 70
     0
  9
$DIMBLK1
  1

  9
$DIMBLK2
  1

  9
$DIMSTYLE
  2
Standard
  9
$DIMCLRD
 70
     0
  9
$DIMCLRE
 70
     0
  9
$DIMCLRT
 70
     0
  9
$DIMTFAC
 40
1.0
  9
$DIMGAP
 40
0.09
  9
$DIMJUST
 70
     0
  9
$DIMSD1
 70
     0
  9
$DIMSD2
 70
     0
  9
$DIMTOLJ
 70
     1
  9
$DIMTZIN
 70
     0
  9
$DIMALTZ
 70
     0
  9
$DIMALTTZ
 70
     0
  9
$DIMUPT
 70
     0
  9
$DIMDEC
 70
     4
  9
$DIMTDEC
 70
     4
  9
$DIMALTU
 70
     2
  9
$DIMALTTD
 70
     2
  9
$DIMTXSTY
  7
Standard
  9
$DIMAUNIT
 70
     0
  9
$DIMADEC
 70
     0
  9
$DIMALTRND
 40
0.0
  9
$DIMAZIN
 70
     0
  9
$DIMDSEP
 70
    46
  9
$DIMATFIT
 70
     3
  9
$DIMFRAC
 70
     0
  9
$DIMLDRBLK
  1

  9
$DIMLUNIT
 70
     2
  9
$DIMLWD
 70
    -2
  9
$DIMLWE
 70
    -2
  9
$DIMTMOVE
 70
     2
  9
$LUNITS
 70
     2
  9
$LUPREC
 70
     2
  9
$SKETCHINC
 40
0.1
  9
$FILLETRAD
 40
0.5
  9
$AUNITS
 70
     0
  9
$AUPREC
 70
     0
  9
$MENU
  1
.
  9
$ELEVATION
 40
0.0
  9
$PELEVATION
 40
0.0
  9
$THICKNESS
 40
0.0
  9
$LIMCHECK
 70
     0
  9
$CHAMFERA
 40
0.5
  9
$CHAMFERB
 40
0.5
  9
$CHAMFERC
 40
1.0
  9
$CHAMFERD
 40
0.0
  9
$SKPOLY
 70
     0
  9
$TDCREATE
 40
2455388.580892107
  9
$TDUCREATE
 40
2455388.872558773
  9
$TDUPDATE
 40
2455388.580892118
  9
$TDUUPDATE
 40
2455388.872558785
  9
$TDINDWG
 40
0.0000000116
  9
$TDUSRTIMER
 40
0.0000000116
  9
$USRTIMER
 70
     1
  9
$ANGBASE
 50
0.0
  9
$ANGDIR
 70
     0
  9
$PDMODE
 70
     0
  9
$PDSIZE
 40
0.0
  9
$PLINEWID
 40
0.0
  9
$SPLFRAME
 70
     0
  9
$SPLINETYPE
 70
     6
  9
$SPLINESEGS
 70
     8
  9
$HANDSEED
  5
104
  9
$SURFTAB1
 70
     6
  9
$SURFTAB2
 70
     6
  9
$SURFTYPE
 70
     6
  9
$SURFU
 70
     6
  9
$SURFV
 70
     6
  9
$UCSBASE
  2

  9
$UCSNAME
  2

  9
$UCSORG
 10
0.0
 20
0.0
 30
0.0
  9
$UCSXDIR
 10
1.0
 20
0.0
 30
0.0
  9
$UCSYDIR
 10
0.0
 20
1.0
 30
0.0
  9
$UCSORTHOREF
  2

  9
$UCSORTHOVIEW
 70
     0
  9
$UCSORGTOP
 10
0.0
 20
0.0
 30
0.0
  9
$UCSORGBOTTOM
 10
0.0
 20
0.0
 30
0.0
  9
$UCSORGLEFT
 10
0.0
 20
0.0
 30
0.0
  9
$UCSORGRIGHT
 10
0.0
 20
0.0
 30
0.0
  9
$UCSORGFRONT
 10
0.0
 20
0.0
 30
0.0
  9
$UCSORGBACK
 10
0.0
 20
0.0
 30
0.0
  9
$PUCSBASE
  2

  9
$PUCSNAME
  2

  9
$PUCSORG
 10
0.0
 20
0.0
 30
0.0
  9
$PUCSXDIR
 10
1.0
 20
0.0
 30
0.0
  9
$PUCSYDIR
 10
0.0
 20
1.0
 30
0.0
  9
$PUCSORTHOREF
  2

  9
$PUCSORTHOVIEW
 70
     0
  9
$PUCSORGTOP
 10
0.0
 20
0.0
 30
0.0
  9
$PUCSORGBOTTOM
 10
0.0
 20
0.0
 30
0.0
  9
$PUCSORGLEFT
 10
0.0
 20
0.0
 30
0.0
  9
$PUCSORGRIGHT
 10
0.0
 20
0.0
 30
0.0
  9
$PUCSORGFRONT
 10
0.0
 20
0.0
 30
0.0
  9
$PUCSORGBACK
 10
0.0
 20
0.0
 30
0.0
  9
$USERI1
 70
     0
  9
$USERI2
 70
     0
  9
$USERI3
 70
     0
  9
$USERI4
 70
     0
  9
$USERI5
 70
     0
  9
$USERR1
 40
0.0
  9
$USERR2
 40
0.0
  9
$USERR3
 40
0.0
  9
$USERR4
 40
0.0
  9
$USERR5
 40
0.0
  9
$WORLDVIEW
 70
     1
  9
$SHADEDGE
 70
     3
  9
$SHADEDIF
 70
    70
  9
$TILEMODE
 70
     0
  9
$MAXACTVP
 70
    64
  9
$PINSBASE
 10
0.0
 20
0.0
 30
0.0
  9
$PLIMCHECK
 70
     0
  9
$PEXTMIN
 10
0.0
 20
0.0
 30
0.0
  9
$PEXTMAX
 10
0.0
 20
0.0
 30
0.0
  9
$PLIMMIN
 10
0.0
 20
0.0
  9
$PLIMMAX
 10
12.0
 20
9.0
  9
$UNITMODE
 70
     0
  9
$VISRETAIN
 70
     1
  9
$PLINEGEN
 70
     0
  9
$PSLTSCALE
 70
     1
  9
$TREEDEPTH
 70
  3020
  9
$CMLSTYLE
  2
Standard
  9
$CMLJUST
 70
     0
  9
$CMLSCALE
 40
1.0
  9
$PROXYGRAPHICS
 70
     1
  9
$MEASUREMENT
 70
     0
  9
$CELWEIGHT
370
    -1
  9
$ENDCAPS
280
     0
  9
$JOINSTYLE
280
     0
  9
$LWDISPLAY
290
     0
  9
$INSUNITS
 70
     1
  9
$HYPERLINKBASE
  1

  9
$STYLESHEET
  1

  9
$XEDIT
290
     1
  9
$CEPSNTYPE
380
     0
  9
$PSTYLEMODE
290
     1
  9
$FINGERPRINTGUID
  2
{3B27FDDC-5E3F-46C9-8DF0-093440073C25}
  9
$VERSIONGUID
  2
{FAEB1C32-E019-11D5-929B-00C0DF256EC4}
  9
$EXTNAMES
290
     1
  9
$PSVPSCALE
 40
0.0
  9
$OLESTARTUP
290
     0
  9
$SORTENTS
280
   127
  9
$INDEXCTL
280
     0
  9
$HIDETEXT
280
     1
  9
$XCLIPFRAME
290
     0
  9
$HALOGAP
280
     0
  9
$OBSCOLOR
 70
   257
  9
$OBSLTYPE
280
     0
  9
$INTERSECTIONDISPLAY
280
     0
  9
$INTERSECTIONCOLOR
 70
   257
  9
$DIMASSOC
280
     2
  9
$PROJECTNAME
  1

  0
ENDSEC
  0
SECTION
  2
CLASSES
  0
CLASS
  1
ACDBDICTIONARYWDFLT
  2
AcDbDictionaryWithDefault
  3
ObjectDBX Classes
 90
        0
 91
        4
280
     0
281
     0
  0
CLASS
  1
VISUALSTYLE
  2
AcDbVisualStyle
  3
ObjectDBX Classes
 90
     4095
 91
        4
280
     0
281
     0
  0
CLASS
  1
SCALE
  2
AcDbScale
  3
ObjectDBX Classes
 90
     1153
 91
        4
280
     0
281
     0
  0
CLASS
  1
DICTIONARYVAR
  2
AcDbDictionaryVar
  3
ObjectDBX Classes
 90
        0
 91
        4
280
     0
281
     0
  0
ENDSEC
  0
SECTION
  2
TABLES
  0
TABLE
  2
VPORT
  5
8
330
0
100
AcDbSymbolTable
 70
     1
  0
VPORT
  5
29
330
8
100
AcDbSymbolTableRecord
100
AcDbViewportTableRecord
  2
*Active
 70
     0
 10
0.0
 20
0.0
 11
1.0
 21
1.0
 12
8.76289601915
 22
10.92585363900607
 13
0.0
 23
0.0
 14
0.5
 24
0.5
 15
0.5
 25
0.5
 16
0.0
 26
0.0
 36
1.0
 17
0.0
 27
0.0
 37
0.0
 40
20.04223606425563
 41
0.5681405633247594
 42
50.0
 43
0.0
 44
0.0
 50
0.0
 51
0.0
 71
     0
 72
   100
 73
     1
 74
     3
 75
     0
 76
     0
 77
     0
 78
     0
281
     0
 65
     1
110
0.0
120
0.0
130
0.0
111
1.0
121
0.0
131
0.0
112
0.0
122
1.0
132
0.0
 79
     0
146
0.0
  0
ENDTAB
  0
TABLE
  2
LTYPE
  5
5
330
0
100
AcDbSymbolTable
 70
     1
  0
LTYPE
  5
14
330
5
100
AcDbSymbolTableRecord
100
AcDbLinetypeTableRecord
  2
ByBlock
 70
     0
  3

 72
    65
 73
     0
 40
0.0
  0
LTYPE
  5
15
330
5
100
AcDbSymbolTableRecord
100
AcDbLinetypeTableRecord
  2
ByLayer
 70
     0
  3

 72
    65
 73
     0
 40
0.0
  0
LTYPE
  5
16
330
5
100
AcDbSymbolTableRecord
100
AcDbLinetypeTableRecord
  2
Continuous
 70
     0
  3
Solid line
 72
    65
 73
     0
 40
0.0
  0
ENDTAB
  0
TABLE
  2
LAYER
  5
2
330
0
100
AcDbSymbolTable
 70
     1
  0
LAYER
  5
10
330
2
100
AcDbSymbolTableRecord
100
AcDbLayerTableRecord
  2
0
 70
     0
 62
     7
  6
Continuous
370
    -3
390
F
  0
ENDTAB
  0
TABLE
  2
STYLE
  5
3
330
0
100
AcDbSymbolTable
 70
     1
  0
STYLE
  5
11
330
3
100
AcDbSymbolTableRecord
100
AcDbTextStyleTableRecord
  2
Standard
 70
     0
 40
0.0
 41
1.0
 50
0.0
 71
     0
 42
0.2
  3
txt
  4

  0
ENDTAB
  0
TABLE
  2
VIEW
  5
6
330
0
100
AcDbSymbolTable
 70
     0
  0
ENDTAB
  0
TABLE
  2
UCS
  5
7
330
0
100
AcDbSymbolTable
 70
     0
  0
ENDTAB
  0
TABLE
  2
APPID
  5
9
330
0
100
AcDbSymbolTable
 70
     1
  0
APPID
  5
12
330
9
100
AcDbSymbolTableRecord
100
AcDbRegAppTableRecord
  2
ACAD
 70
     0
  0
ENDTAB
  0
TABLE
  2
DIMSTYLE
  5
A
330
0
100
AcDbSymbolTable
 70
     1
100
AcDbDimStyleTable
  0
DIMSTYLE
105
27
330
A
100
AcDbSymbolTableRecord
100
AcDbDimStyleTableRecord
  2
Standard
 70
     0
340
11
  0
ENDTAB
  0
TABLE
  2
BLOCK_RECORD
  5
1
330
0
100
AcDbSymbolTable
 70
     3
  0
BLOCK_RECORD
  5
1F
330
1
100
AcDbSymbolTableRecord
100
AcDbBlockTableRecord
  2
*Model_Space
340
22
  0
BLOCK_RECORD
  5
FB
330
1
100
AcDbSymbolTableRecord
100
AcDbBlockTableRecord
  2
*Paper_Space
340
FC
  0
BLOCK_RECORD
  5
23
330
1
100
AcDbSymbolTableRecord
100
AcDbBlockTableRecord
  2
*Paper_Space0
340
26
  0
BLOCK_RECORD
  5
1B
330
1
100
AcDbSymbolTableRecord
100
AcDbBlockTableRecord
  2
*Paper_Space1
340
1E
  0
BLOCK_RECORD
  5
F6
330
1
100
AcDbSymbolTableRecord
100
AcDbBlockTableRecord
  2
*Paper_Space2
340
F7
  0
ENDTAB
  0
ENDSEC
  0
SECTION
  2
BLOCKS
  0
BLOCK
  5
20
330
1F
100
AcDbEntity
  8
0
100
AcDbBlockBegin
  2
*Model_Space
 70
     0
 10
0.0
 20
0.0
 30
0.0
  3
*Model_Space
  1

  0
ENDBLK
  5
21
330
1F
100
AcDbEntity
  8
0
100
AcDbBlockEnd
  0
BLOCK
  5
FD
330
FB
100
AcDbEntity
 67
     1
  8
0
100
AcDbBlockBegin
  2
*Paper_Space
 70
     0
 10
0.0
 20
0.0
 30
0.0
  3
*Paper_Space
  1

  0
ENDBLK
  5
FE
330
FB
100
AcDbEntity
 67
     1
  8
0
100
AcDbBlockEnd
  0
BLOCK
  5
24
330
23
100
AcDbEntity
  8
0
100
AcDbBlockBegin
  2
*Paper_Space0
 70
     0
 10
0.0
 20
0.0
 30
0.0
  3
*Paper_Space0
  1

  0
ENDBLK
  5
25
330
23
100
AcDbEntity
  8
0
100
AcDbBlockEnd
  0
BLOCK
  5
1C
330
1B
100
AcDbEntity
  8
0
100
AcDbBlockBegin
  2
*Paper_Space1
 70
     0
 10
0.0
 20
0.0
 30
0.0
  3
*Paper_Space1
  1

  0
ENDBLK
  5
1D
330
1B
100
AcDbEntity
  8
0
100
AcDbBlockEnd
  0
BLOCK
  5
F8
330
F6
100
AcDbEntity
  8
0
100
AcDbBlockBegin
  2
*Paper_Space2
 70
     0
 10
0.0
 20
0.0
 30
0.0
  3
*Paper_Space2
  1

  0
VIEWPORT
  5
FA
330
F6
100
AcDbEntity
  8
0
100
AcDbViewport
 10
6.0
 20
4.5
 30
0.0
 40
12.696
 41
9.522
 68
     1
 69
     1
 12
6.0
 22
4.5
 13
0.0
 23
0.0
 14
0.5
 24
0.5
 15
0.5
 25
0.5
 16
0.0
 26
0.0
 36
1.0
 17
0.0
 27
0.0
 37
0.0
 42
50.0
 43
0.0
 44
0.0
 45
9.522
 50
0.0
 51
0.0
 72
   100
 90
   557152
  1

281
     0
 71
     1
 74
     0
110
0.0
120
0.0
130
0.0
111
1.0
121
0.0
131
0.0
112
0.0
122
1.0
132
0.0
 79
     0
146
0.0
170
     0
  0
ENDBLK
  5
F9
330
F6
100
AcDbEntity
  8
0
100
AcDbBlockEnd
  0
ENDSEC
  0
SECTION
  2
ENTITIES
  0
LINE
  5
3B
330
1F
100
AcDbEntity
  8
0
 62
   255
370
    15
100
AcDbLine
 10
4.020596331
 20
5.6242315519
 30
0.0
 11
4.020596331
 21
4.9575648853
 31
0.0
  0
LINE
  5
3C
330
1F
100
AcDbEntity
  8
0
 62
   255
370
    15
100
AcDbLine
 10
4.020596331
 20
4.9575648853
 30
0.0
 11
3.893596331
 21
4.9575648853
 31
0.0
  0
LINE
  5
3D
330
1F
100
AcDbEntity
  8
0
 62
   255
370
    15
100
AcDbLine
 10
3.893596331
 20
4.9575648853
 30
0.0
 11
3.893596331
 21
4.2948982186
 31
0.0
  0
LINE
  5
3E
330
1F
100
AcDbEntity
  8
0
 62
   255
370
    15
100
AcDbLine
 10
3.893596331
 20
4.2948982186
 30
0.0
 11
4.020596331
 21
4.2948982186
 31
0.0
  0
LINE
  5
3F
330
1F
100
AcDbEntity
  8
0
 62
   255
370
    15
100
AcDbLine
 10
4.020596331
 20
4.2948982186
 30
0.0
 11
4.02059633097893
 21
3.995908901185659
 31
0.0
  0
SPLINE
  5
40
330
1F
100
AcDbEntity
  8
0
 62
   255
370
    15
100
AcDbSpline
210
0.0
220
0.0
230
1.0
 70
     8
 71
     3
 72
    16
 73
    12
 74
     0
 42
0.0000000001
 43
0.0000000001
 40
-1.0
 40
-1.0
 40
-1.0
 40
-1.0
 40
-0.9418650538399908
 40
-0.8227166435350258
 40
-0.7034819066803389
 40
-0.5842504889851146
 40
-0.465106608109052
 40
-0.3488709412601045
 40
-0.2325446766236325
 40
-0.1162257087914893
 40
0.0
 40
0.0
 40
0.0
 40
0.0
 10
4.02059633097893
 20
3.995908901185659
 30
0.0
 10
4.053984765580263
 20
4.001864487211825
 30
0.0
 10
4.155803278263184
 20
4.020026132693219
 30
0.0
 10
4.327059560638501
 20
4.04478158389053
 30
0.0
 10
4.534519950190487
 20
4.067194051839528
 30
0.0
 10
4.742698594321971
 20
4.081598194516553
 30
0.0
 10
4.949523873876
 20
4.087932891532067
 30
0.0
 10
5.154750908800805
 20
4.086310572658807
 30
0.0
 10
5.358090093628064
 20
4.076640089580509
 30
0.0
 10
5.56097793299339
 20
4.059526287416675
 30
0.0
 10
5.695408168806611
 20
4.041147892245499
 30
0.0
 10
5.762596330957861
 20
4.031962379868981
 30
0.0
  0
LINE
  5
41
330
1F
100
AcDbEntity
  8
0
 62
   255
370
    15
100
AcDbLine
 10
5.762596331
 20
4.0319623799
 30
0.0
 11
5.762596331
 21
4.2948982186
 31
0.0
  0
LINE
  5
42
330
1F
100
AcDbEntity
  8
0
 62
   255
370
    15
100
AcDbLine
 10
5.762596331
 20
4.2948982186
 30
0.0
 11
5.889596331
 21
4.2948982186
 31
0.0
  0
LINE
  5
43
330
1F
100
AcDbEntity
  8
0
 62
   255
370
    15
100
AcDbLine
 10
5.889596331
 20
4.2948982186
 30
0.0
 11
5.889596331
 21
4.9575648853
 31
0.0
  0
LINE
  5
44
330
1F
100
AcDbEntity
  8
0
 62
   255
370
    15
100
AcDbLine
 10
5.889596331
 20
4.9575648853
 30
0.0
 11
5.762596331
 21
4.9575648853
 31
0.0
  0
LINE
  5
45
330
1F
100
AcDbEntity
  8
0
 62
   255
370
    15
100
AcDbLine
 10
5.762596331
 20
4.9575648853
 30
0.0
 11
5.762596331
 21
5.6242315519
 31
0.0
  0
LINE
  5
46
330
1F
100
AcDbEntity
  8
0
 62
   255
370
    15
100
AcDbLine
 10
5.762596331
 20
5.6242315519
 30
0.0
 11
5.2269296643
 21
5.6242315519
 31
0.0
  0
LINE
  5
47
330
1F
100
AcDbEntity
  8
0
 62
   255
370
    15
100
AcDbLine
 10
5.2269296643
 20
5.6242315519
 30
0.0
 11
5.2269296643
 21
5.4972315519
 31
0.0
  0
LINE
  5
48
330
1F
100
AcDbEntity
  8
0
 62
   255
370
    15
100
AcDbLine
 10
5.2269296643
 20
5.4972315519
 30
0.0
 11
4.5562629976
 21
5.4972315519
 31
0.0
  0
LINE
  5
49
330
1F
100
AcDbEntity
  8
0
 62
   255
370
    15
100
AcDbLine
 10
4.5562629976
 20
5.4972315519
 30
0.0
 11
4.5562629976
 21
5.6242315519
 31
0.0
  0
LINE
  5
4A
330
1F
100
AcDbEntity
  8
0
 62
   255
370
    15
100
AcDbLine
 10
4.5562629976
 20
5.6242315519
 30
0.0
 11
4.020596331
 21
5.6242315519
 31
0.0
  0
LINE
  5
4B
330
1F
100
AcDbEntity
  8
0
 62
   255
370
    15
100
AcDbLine
 10
4.466596331
 20
4.9512315519
 30
0.0
 11
4.466596331
 21
4.3012315519
 31
0.0
  0
ARC
  5
4C
330
1F
100
AcDbEntity
  8
0
 62
   255
370
    15
100
AcDbCircle
 10
4.566596331
 20
4.3012315519
 30
0.0
 40
0.1000000000000005
100
AcDbArc
 50
180.0
 51
270.0
  0
LINE
  5
4D
330
1F
100
AcDbEntity
  8
0
 62
   255
370
    15
100
AcDbLine
 10
4.566596331
 20
4.2012315519
 30
0.0
 11
5.216596331
 21
4.201231551899999
 31
0.0
  0
ARC
  5
4E
330
1F
100
AcDbEntity
  8
0
 62
   255
370
    15
100
AcDbCircle
 10
5.216596331
 20
4.3012315519
 30
0.0
 40
0.1000000000000005
100
AcDbArc
 50
270.0
 51
0.0
  0
LINE
  5
4F
330
1F
100
AcDbEntity
  8
0
 62
   255
370
    15
100
AcDbLine
 10
5.316596331
 20
4.3012315519
 30
0.0
 11
5.316596331
 21
4.9512315519
 31
0.0
  0
ARC
  5
50
330
1F
100
AcDbEntity
  8
0
 62
   255
370
    15
100
AcDbCircle
 10
5.216596331
 20
4.9512315519
 30
0.0
 40
0.1000000000000005
100
AcDbArc
 50
0.0
 51
90.0
  0
LINE
  5
51
330
1F
100
AcDbEntity
  8
0
 62
   255
370
    15
100
AcDbLine
 10
5.216596331
 20
5.051231551900001
 30
0.0
 11
4.566596331
 21
5.051231551900001
 31
0.0
  0
ARC
  5
52
330
1F
100
AcDbEntity
  8
0
 62
   255
370
    15
100
AcDbCircle
 10
4.566596331
 20
4.9512315519
 30
0.0
 40
0.1000000000000005
100
AcDbArc
 50
90.0
 51
180.0
  0
SPLINE
  5
53
330
1F
100
AcDbEntity
  8
0
 62
   255
370
    15
100
AcDbSpline
210
0.0
220
0.0
230
1.0
 70
     8
 71
     3
 72
    16
 73
    12
 74
     0
 42
0.0000000001
 43
0.0000000001
 40
-1.0
 40
-1.0
 40
-1.0
 40
-1.0
 40
-0.8897911900815766
 40
-0.7795151558496719
 40
-0.6692273255571285
 40
-0.5590024206041616
 40
-0.450430869542644
 40
-0.3418137391628538
 40
-0.2331912536968226
 40
-0.1246123972450555
 40
0.0
 40
0.0
 40
0.0
 40
0.0
 10
12.30938854561462
 20
3.774173301405476
 30
0.0
 10
12.38105231562854
 20
3.792954870329341
 30
0.0
 10
12.52442356853668
 20
3.830529464401584
 30
0.0
 10
12.74192533404025
 20
3.876936044890881
 30
0.0
 10
12.96075019230312
 20
3.9164629024661
 30
0.0
 10
13.17964673106755
 20
3.948525103197409
 30
0.0
 10
13.39829685585539
 20
3.973732466330523
 30
0.0
 10
13.6165247150156
 20
3.992394422803275
 30
0.0
 10
13.8351966981075
 20
4.004696026065068
 30
0.0
 10
14.06488027564169
 20
4.011709544378784
 30
0.0
 10
14.2216266499596
 20
4.010713036654034
 30
0.0
 10
14.30538854562924
 20
4.010180524329983
 30
0.0
  0
LINE
  5
54
330
1F
100
AcDbEntity
  8
0
 62
   255
370
    15
100
AcDbLine
 10
14.3053885456
 20
4.0101805243
 30
0.0
 11
14.3053885456
 21
4.3304652672
 31
0.0
  0
LINE
  5
55
330
1F
100
AcDbEntity
  8
0
 62
   255
370
    15
100
AcDbLine
 10
14.3053885456
 20
4.3304652672
 30
0.0
 11
14.1783885456
 21
4.3304652672
 31
0.0
  0
LINE
  5
56
330
1F
100
AcDbEntity
  8
0
 62
   255
370
    15
100
AcDbLine
 10
14.1783885456
 20
4.3304652672
 30
0.0
 11
14.1783885456
 21
5.0011319339
 31
0.0
  0
LINE
  5
57
330
1F
100
AcDbEntity
  8
0
 62
   255
370
    15
100
AcDbLine
 10
14.1783885456
 20
5.0011319339
 30
0.0
 11
14.3053885456
 21
5.0011319339
 31
0.0
  0
LINE
  5
58
330
1F
100
AcDbEntity
  8
0
 62
   255
370
    15
100
AcDbLine
 10
14.3053885456
 20
5.0011319339
 30
0.0
 11
14.3053885456
 21
5.6637986006
 31
0.0
  0
LINE
  5
59
330
1F
100
AcDbEntity
  8
0
 62
   255
370
    15
100
AcDbLine
 10
14.3053885456
 20
5.6637986006
 30
0.0
 11
13.642721879
 21
5.6637986006
 31
0.0
  0
LINE
  5
5A
330
1F
100
AcDbEntity
  8
0
 62
   255
370
    15
100
AcDbLine
 10
13.642721879
 20
5.6637986006
 30
0.0
 11
13.642721879
 21
5.5367986006
 31
0.0
  0
LINE
  5
5B
330
1F
100
AcDbEntity
  8
0
 62
   255
370
    15
100
AcDbLine
 10
13.642721879
 20
5.5367986006
 30
0.0
 11
12.9720552123
 21
5.5367986006
 31
0.0
  0
LINE
  5
5C
330
1F
100
AcDbEntity
  8
0
 62
   255
370
    15
100
AcDbLine
 10
12.9720552123
 20
5.5367986006
 30
0.0
 11
12.9720552123
 21
5.6637986006
 31
0.0
  0
LINE
  5
5D
330
1F
100
AcDbEntity
  8
0
 62
   255
370
    15
100
AcDbLine
 10
12.9720552123
 20
5.6637986006
 30
0.0
 11
12.3093885456
 21
5.6637986006
 31
0.0
  0
LINE
  5
5E
330
1F
100
AcDbEntity
  8
0
 62
   255
370
    15
100
AcDbLine
 10
12.3093885456
 20
5.6637986006
 30
0.0
 11
12.3093885456
 21
5.0011319339
 31
0.0
  0
LINE
  5
5F
330
1F
100
AcDbEntity
  8
0
 62
   255
370
    15
100
AcDbLine
 10
12.3093885456
 20
5.0011319339
 30
0.0
 11
12.4363885456
 21
5.0011319339
 31
0.0
  0
LINE
  5
60
330
1F
100
AcDbEntity
  8
0
 62
   255
370
    15
100
AcDbLine
 10
12.4363885456
 20
5.0011319339
 30
0.0
 11
12.4363885456
 21
4.3304652672
 31
0.0
  0
LINE
  5
61
330
1F
100
AcDbEntity
  8
0
 62
   255
370
    15
100
AcDbLine
 10
12.4363885456
 20
4.3304652672
 30
0.0
 11
12.3093885456
 21
4.3304652672
 31
0.0
  0
LINE
  5
62
330
1F
100
AcDbEntity
  8
0
 62
   255
370
    15
100
AcDbLine
 10
12.3093885456
 20
4.3304652672
 30
0.0
 11
12.30938854561462
 21
3.774173301405476
 31
0.0
  0
LINE
  5
63
330
1F
100
AcDbEntity
  8
0
 62
   255
370
    15
100
AcDbLine
 10
12.9823885456
 20
4.2407986006
 30
0.0
 11
13.6323885456
 21
4.2407986006
 31
0.0
  0
ARC
  5
64
330
1F
100
AcDbEntity
  8
0
 62
   255
370
    15
100
AcDbCircle
 10
13.6323885456
 20
4.3407986006
 30
0.0
 40
0.1000000000000005
100
AcDbArc
 50
270.0
 51
0.0
  0
LINE
  5
65
330
1F
100
AcDbEntity
  8
0
 62
   255
370
    15
100
AcDbLine
 10
13.7323885456
 20
4.3407986006
 30
0.0
 11
13.7323885456
 21
4.9907986006
 31
0.0
  0
ARC
  5
66
330
1F
100
AcDbEntity
  8
0
 62
   255
370
    15
100
AcDbCircle
 10
13.6323885456
 20
4.9907986006
 30
0.0
 40
0.0999999999999996
100
AcDbArc
 50
0.0
 51
90.0
  0
LINE
  5
67
330
1F
100
AcDbEntity
  8
0
 62
   255
370
    15
100
AcDbLine
 10
13.6323885456
 20
5.090798600599999
 30
0.0
 11
12.9823885456
 21
5.0907986006
 31
0.0
  0
ARC
  5
68
330
1F
100
AcDbEntity
  8
0
 62
   255
370
    15
100
AcDbCircle
 10
12.9823885456
 20
4.9907986006
 30
0.0
 40
0.0999999999999996
100
AcDbArc
 50
90.0
 51
180.0
  0
LINE
  5
69
330
1F
100
AcDbEntity
  8
0
 62
   255
370
    15
100
AcDbLine
 10
12.8823885456
 20
4.9907986006
 30
0.0
 11
12.8823885456
 21
4.3407986006
 31
0.0
  0
ARC
  5
6A
330
1F
100
AcDbEntity
  8
0
 62
   255
370
    15
100
AcDbCircle
 10
12.9823885456
 20
4.3407986006
 30
0.0
 40
0.0999999999999996
100
AcDbArc
 50
180.0
 51
270.0
  0
LINE
  5
6B
330
1F
100
AcDbEntity
  8
0
 62
   255
370
    15
100
AcDbLine
 10
4.0205729478
 20
12.644078489
 30
0.0
 11
4.0205729478
 21
12.1084118224
 31
0.0
  0
LINE
  5
6C
330
1F
100
AcDbEntity
  8
0
 62
   255
370
    15
100
AcDbLine
 10
4.0205729478
 20
12.1084118224
 30
0.0
 11
4.1475729478
 21
12.1084118224
 31
0.0
  0
LINE
  5
6D
330
1F
100
AcDbEntity
  8
0
 62
   255
370
    15
100
AcDbLine
 10
4.1475729478
 20
12.1084118224
 30
0.0
 11
4.1475729478
 21
11.4377451557
 31
0.0
  0
LINE
  5
6E
330
1F
100
AcDbEntity
  8
0
 62
   255
370
    15
100
AcDbLine
 10
4.1475729478
 20
11.4377451557
 30
0.0
 11
4.0205729478
 21
11.4377451557
 31
0.0
  0
LINE
  5
6F
330
1F
100
AcDbEntity
  8
0
 62
   255
370
    15
100
AcDbLine
 10
4.0205729478
 20
11.4377451557
 30
0.0
 11
4.0205729478
 21
10.902078489
 31
0.0
  0
LINE
  5
70
330
1F
100
AcDbEntity
  8
0
 62
   255
370
    15
100
AcDbLine
 10
4.0205729478
 20
10.902078489
 30
0.0
 11
4.6872396145
 21
10.902078489
 31
0.0
  0
LINE
  5
71
330
1F
100
AcDbEntity
  8
0
 62
   255
370
    15
100
AcDbLine
 10
4.6872396145
 20
10.902078489
 30
0.0
 11
4.6872396145
 21
10.775078489
 31
0.0
  0
LINE
  5
72
330
1F
100
AcDbEntity
  8
0
 62
   255
370
    15
100
AcDbLine
 10
4.6872396145
 20
10.775078489
 30
0.0
 11
5.3499062811
 21
10.775078489
 31
0.0
  0
LINE
  5
73
330
1F
100
AcDbEntity
  8
0
 62
   255
370
    15
100
AcDbLine
 10
5.3499062811
 20
10.775078489
 30
0.0
 11
5.3499062811
 21
10.902078489
 31
0.0
  0
LINE
  5
74
330
1F
100
AcDbEntity
  8
0
 62
   255
370
    15
100
AcDbLine
 10
5.3499062811
 20
10.902078489
 30
0.0
 11
5.8895729478
 21
10.902078489
 31
0.0
  0
LINE
  5
75
330
1F
100
AcDbEntity
  8
0
 62
   255
370
    15
100
AcDbLine
 10
5.8895729478
 20
10.902078489
 30
0.0
 11
5.8895729478
 21
11.4417451557
 31
0.0
  0
LINE
  5
76
330
1F
100
AcDbEntity
  8
0
 62
   255
370
    15
100
AcDbLine
 10
5.8895729478
 20
11.4417451557
 30
0.0
 11
6.0165729478
 21
11.4417451557
 31
0.0
  0
LINE
  5
77
330
1F
100
AcDbEntity
  8
0
 62
   255
370
    15
100
AcDbLine
 10
6.0165729478
 20
11.4417451557
 30
0.0
 11
6.0165729478
 21
12.1044118224
 31
0.0
  0
LINE
  5
78
330
1F
100
AcDbEntity
  8
0
 62
   255
370
    15
100
AcDbLine
 10
6.0165729478
 20
12.1044118224
 30
0.0
 11
5.8895729478
 21
12.1044118224
 31
0.0
  0
LINE
  5
79
330
1F
100
AcDbEntity
  8
0
 62
   255
370
    15
100
AcDbLine
 10
5.8895729478
 20
12.1044118224
 30
0.0
 11
5.8895729478
 21
12.644078489
 31
0.0
  0
LINE
  5
7A
330
1F
100
AcDbEntity
  8
0
 62
   255
370
    15
100
AcDbLine
 10
5.8895729478
 20
12.644078489
 30
0.0
 11
5.3499062811
 21
12.644078489
 31
0.0
  0
LINE
  5
7B
330
1F
100
AcDbEntity
  8
0
 62
   255
370
    15
100
AcDbLine
 10
5.3499062811
 20
12.644078489
 30
0.0
 11
5.3499062811
 21
12.771078489
 31
0.0
  0
LINE
  5
7C
330
1F
100
AcDbEntity
  8
0
 62
   255
370
    15
100
AcDbLine
 10
5.3499062811
 20
12.771078489
 30
0.0
 11
4.6872396145
 21
12.771078489
 31
0.0
  0
LINE
  5
7D
330
1F
100
AcDbEntity
  8
0
 62
   255
370
    15
100
AcDbLine
 10
4.6872396145
 20
12.771078489
 30
0.0
 11
4.6872396145
 21
12.644078489
 31
0.0
  0
LINE
  5
7E
330
1F
100
AcDbEntity
  8
0
 62
   255
370
    15
100
AcDbLine
 10
4.6872396145
 20
12.644078489
 30
0.0
 11
4.0205729478
 21
12.644078489
 31
0.0
  0
LINE
  5
7F
330
1F
100
AcDbEntity
  8
0
 62
   255
370
    15
100
AcDbLine
 10
4.6935729478
 20
11.348078489
 30
0.0
 11
5.3435729478
 21
11.348078489
 31
0.0
  0
ARC
  5
80
330
1F
100
AcDbEntity
  8
0
 62
   255
370
    15
100
AcDbCircle
 10
5.3435729478
 20
11.448078489
 30
0.0
 40
0.0999999999999996
100
AcDbArc
 50
270.0
 51
0.0
  0
LINE
  5
81
330
1F
100
AcDbEntity
  8
0
 62
   255
370
    15
100
AcDbLine
 10
5.4435729478
 20
11.448078489
 30
0.0
 11
5.4435729478
 21
12.098078489
 31
0.0
  0
ARC
  5
82
330
1F
100
AcDbEntity
  8
0
 62
   255
370
    15
100
AcDbCircle
 10
5.3435729478
 20
12.098078489
 30
0.0
 40
0.0999999999999996
100
AcDbArc
 50
0.0
 51
90.0
  0
LINE
  5
83
330
1F
100
AcDbEntity
  8
0
 62
   255
370
    15
100
AcDbLine
 10
5.3435729478
 20
12.198078489
 30
0.0
 11
4.6935729478
 21
12.198078489
 31
0.0
  0
ARC
  5
84
330
1F
100
AcDbEntity
  8
0
 62
   255
370
    15
100
AcDbCircle
 10
4.6935729478
 20
12.098078489
 30
0.0
 40
0.1000000000000005
100
AcDbArc
 50
90.0
 51
180.0
  0
LINE
  5
85
330
1F
100
AcDbEntity
  8
0
 62
   255
370
    15
100
AcDbLine
 10
4.593572947799999
 20
12.098078489
 30
0.0
 11
4.5935729478
 21
11.448078489
 31
0.0
  0
ARC
  5
86
330
1F
100
AcDbEntity
  8
0
 62
   255
370
    15
100
AcDbCircle
 10
4.693572947799999
 20
11.448078489
 30
0.0
 40
0.0999999999999996
100
AcDbArc
 50
180.0
 51
270.0000000000005
  0
SPLINE
  5
87
330
1F
100
AcDbEntity
  8
0
 62
   255
370
    15
100
AcDbSpline
210
0.0
220
0.0
230
1.0
 70
     8
 71
     3
 72
    12
 73
     8
 74
     0
 42
0.0000000001
 43
0.0000000001
 40
-1.0
 40
-1.0
 40
-1.0
 40
-1.0
 40
-0.7846197101002587
 40
-0.5692404883687469
 40
-0.3552077480546435
 40
-0.1411768201024343
 40
0.0
 40
0.0
 40
0.0
 40
0.0
 10
13.2985683619477
 20
11.5386311402746
 30
0.0
 10
13.36671086751794
 20
11.5156518217615
 30
0.0
 10
13.50299554070892
 20
11.46969329870013
 30
0.0
 10
13.70341804967192
 20
11.39091419141842
 30
0.0
 10
13.90030589288736
 20
11.30492907146809
 30
0.0
 10
14.07149909419986
 20
11.22224577286059
 30
0.0
 10
14.17609342697719
 20
11.16635442974021
 30
0.0
 10
14.21766429749982
 20
11.14414049399485
 30
0.0
  0
LINE
  5
88
330
1F
100
AcDbEntity
  8
0
 62
   255
370
    15
100
AcDbLine
 10
14.21766429749982
 20
11.14414049399485
 30
0.0
 11
14.2176642975
 21
11.6322978069
 31
0.0
  0
LINE
  5
89
330
1F
100
AcDbEntity
  8
0
 62
   255
370
    15
100
AcDbLine
 10
14.2176642975
 20
11.6322978069
 30
0.0
 11
14.3446642975
 21
11.6322978069
 31
0.0
  0
LINE
  5
8A
330
1F
100
AcDbEntity
  8
0
 62
   255
370
    15
100
AcDbLine
 10
14.3446642975
 20
11.6322978069
 30
0.0
 11
14.3446642975
 21
12.2949644736
 31
0.0
  0
LINE
  5
8B
330
1F
100
AcDbEntity
  8
0
 62
   255
370
    15
100
AcDbLine
 10
14.3446642975
 20
12.2949644736
 30
0.0
 11
14.2176642975
 21
12.2949644736
 31
0.0
  0
LINE
  5
8C
330
1F
100
AcDbEntity
  8
0
 62
   255
370
    15
100
AcDbLine
 10
14.2176642975
 20
12.2949644736
 30
0.0
 11
14.2176642975
 21
12.8346311403
 31
0.0
  0
LINE
  5
8D
330
1F
100
AcDbEntity
  8
0
 62
   255
370
    15
100
AcDbLine
 10
14.2176642975
 20
12.8346311403
 30
0.0
 11
13.6779976308
 21
12.8346311403
 31
0.0
  0
LINE
  5
8E
330
1F
100
AcDbEntity
  8
0
 62
   255
370
    15
100
AcDbLine
 10
13.6779976308
 20
12.8346311403
 30
0.0
 11
13.6779976308
 21
12.9616311403
 31
0.0
  0
LINE
  5
8F
330
1F
100
AcDbEntity
  8
0
 62
   255
370
    15
100
AcDbLine
 10
13.6779976308
 20
12.9616311403
 30
0.0
 11
13.0153309642
 21
12.9616311403
 31
0.0
  0
LINE
  5
90
330
1F
100
AcDbEntity
  8
0
 62
   255
370
    15
100
AcDbLine
 10
13.0153309642
 20
12.9616311403
 30
0.0
 11
13.0153309642
 21
12.8346311403
 31
0.0
  0
LINE
  5
91
330
1F
100
AcDbEntity
  8
0
 62
   255
370
    15
100
AcDbLine
 10
13.0153309642
 20
12.8346311403
 30
0.0
 11
12.4756642975
 21
12.8346311403
 31
0.0
  0
LINE
  5
92
330
1F
100
AcDbEntity
  8
0
 62
   255
370
    15
100
AcDbLine
 10
12.4756642975
 20
12.8346311403
 30
0.0
 11
12.4756642975
 21
12.2949644736
 31
0.0
  0
LINE
  5
93
330
1F
100
AcDbEntity
  8
0
 62
   255
370
    15
100
AcDbLine
 10
12.4756642975
 20
12.2949644736
 30
0.0
 11
12.3486642975
 21
12.2949644736
 31
0.0
  0
LINE
  5
94
330
1F
100
AcDbEntity
  8
0
 62
   255
370
    15
100
AcDbLine
 10
12.3486642975
 20
12.2949644736
 30
0.0
 11
12.34866429749981
 21
11.75779437230048
 31
0.0
  0
SPLINE
  5
95
330
1F
100
AcDbEntity
  8
0
 62
   255
370
    15
100
AcDbSpline
210
0.0
220
0.0
230
1.0
 70
     8
 71
     3
 72
    10
 73
     6
 74
     0
 42
0.0000000001
 43
0.0000000001
 40
-1.0
 40
-1.0
 40
-1.0
 40
-1.0
 40
-0.7366272401242868
 40
-0.3680417889726383
 40
0.0
 40
0.0
 40
0.0
 40
0.0
 10
12.34866429749981
 20
11.75779437230048
 30
0.0
 10
12.39936925306026
 20
11.75023838517623
 30
0.0
 10
12.52103488401404
 20
11.73210792966461
 30
0.0
 10
12.71241426905454
 20
11.69611361490525
 30
0.0
 10
12.85194861543896
 20
11.66307856991956
 30
0.0
 10
12.92166429749981
 20
11.64657323807926
 30
0.0
  0
LINE
  5
96
330
1F
100
AcDbEntity
  8
0
 62
   255
370
    15
100
AcDbLine
 10
12.92166429749981
 20
11.64657323807926
 30
0.0
 11
12.9216642975
 21
12.2886311403
 31
0.0
  0
ARC
  5
97
330
1F
100
AcDbEntity
  8
0
 62
   255
370
    15
100
AcDbCircle
 10
13.0216642975
 20
12.2886311403
 30
0.0
 40
0.0999999999999996
100
AcDbArc
 50
90.0
 51
180.0
  0
LINE
  5
98
330
1F
100
AcDbEntity
  8
0
 62
   255
370
    15
100
AcDbLine
 10
13.0216642975
 20
12.3886311403
 30
0.0
 11
13.6716642975
 21
12.3886311403
 31
0.0
  0
ARC
  5
99
330
1F
100
AcDbEntity
  8
0
 62
   255
370
    15
100
AcDbCircle
 10
13.6716642975
 20
12.2886311403
 30
0.0
 40
0.0999999999999996
100
AcDbArc
 50
0.0
 51
90.0
  0
LINE
  5
9A
330
1F
100
AcDbEntity
  8
0
 62
   255
370
    15
100
AcDbLine
 10
13.7716642975
 20
12.2886311403
 30
0.0
 11
13.7716642975
 21
11.6386311403
 31
0.0
  0
ARC
  5
9B
330
1F
100
AcDbEntity
  8
0
 62
   255
370
    15
100
AcDbCircle
 10
13.6716642975
 20
11.6386311403
 30
0.0
 40
0.0999999999999996
100
AcDbArc
 50
270.0
 51
0.0
  0
LINE
  5
9C
330
1F
100
AcDbEntity
  8
0
 62
   255
370
    15
100
AcDbLine
 10
13.6716642975
 20
11.5386311403
 30
0.0
 11
13.2985683619477
 21
11.5386311402746
 31
0.0
  0
LINE
  5
9D
330
1F
100
AcDbEntity
  8
0
 62
   255
370
    15
100
AcDbLine
 10
13.6803679601
 20
20.6498086784
 30
0.0
 11
13.6803679601
 21
20.5228086784
 31
0.0
  0
LINE
  5
9E
330
1F
100
AcDbEntity
  8
0
 62
   255
370
    15
100
AcDbLine
 10
13.6803679601
 20
20.5228086784
 30
0.0
 11
13.0097012934
 21
20.5228086784
 31
0.0
  0
LINE
  5
9F
330
1F
100
AcDbEntity
  8
0
 62
   255
370
    15
100
AcDbLine
 10
13.0097012934
 20
20.5228086784
 30
0.0
 11
13.0097012934
 21
20.6498086784
 31
0.0
  0
LINE
  5
A0
330
1F
100
AcDbEntity
  8
0
 62
   255
370
    15
100
AcDbLine
 10
13.0097012934
 20
20.6498086784
 30
0.0
 11
12.3470346268
 21
20.6498086784
 31
0.0
  0
LINE
  5
A1
330
1F
100
AcDbEntity
  8
0
 62
   255
370
    15
100
AcDbLine
 10
12.3470346268
 20
20.6498086784
 30
0.0
 11
12.3470346268
 21
19.9871420117
 31
0.0
  0
LINE
  5
A2
330
1F
100
AcDbEntity
  8
0
 62
   255
370
    15
100
AcDbLine
 10
12.3470346268
 20
19.9871420117
 30
0.0
 11
12.4740346268
 21
19.9871420117
 31
0.0
  0
LINE
  5
A3
330
1F
100
AcDbEntity
  8
0
 62
   255
370
    15
100
AcDbLine
 10
12.4740346268
 20
19.9871420117
 30
0.0
 11
12.4740346268
 21
19.3164753451
 31
0.0
  0
LINE
  5
A4
330
1F
100
AcDbEntity
  8
0
 62
   255
370
    15
100
AcDbLine
 10
12.4740346268
 20
19.3164753451
 30
0.0
 11
12.3470346268
 21
19.3164753451
 31
0.0
  0
LINE
  5
A5
330
1F
100
AcDbEntity
  8
0
 62
   255
370
    15
100
AcDbLine
 10
12.3470346268
 20
19.3164753451
 30
0.0
 11
12.3470346268
 21
19.0372006638
 31
0.0
  0
SPLINE
  5
A6
330
1F
100
AcDbEntity
  8
0
 62
   255
370
    15
100
AcDbSpline
210
0.0
220
0.0
230
1.0
 70
     8
 71
     3
 72
    11
 73
     7
 74
     0
 42
0.0000000001
 43
0.0000000001
 40
-1.0
 40
-1.0
 40
-1.0
 40
-1.0
 40
-0.7547324283638863
 40
-0.5095587369180277
 40
-0.2547285842761592
 40
0.0
 40
0.0
 40
0.0
 40
0.0
 10
12.34703462675238
 20
19.03720066376469
 30
0.0
 10
12.40084785800688
 20
19.05458204734994
 30
0.0
 10
12.50845372261802
 20
19.08933816151048
 30
0.0
 10
12.6732595935174
 20
19.13801082664319
 30
0.0
 10
12.84096949533626
 20
19.18446751095879
 30
0.0
 10
12.95496098212818
 20
19.2129153245702
 30
0.0
 10
13.01194536483138
 20
19.22713639619068
 30
0.0
  0
ARC
  5
A7
330
1F
100
AcDbEntity
  8
0
 62
   255
370
    15
100
AcDbCircle
 10
13.0200346268
 20
19.3268086784
 30
0.0
 40
0.1000000000000535
100
AcDbArc
 50
180.0
 51
265.3601246242998
  0
LINE
  5
A8
330
1F
100
AcDbEntity
  8
0
 62
   255
370
    15
100
AcDbLine
 10
12.92003462679995
 20
19.3268086784
 30
0.0
 11
12.9200346268
 21
19.9768086784
 31
0.0
  0
ARC
  5
A9
330
1F
100
AcDbEntity
  8
0
 62
   255
370
    15
100
AcDbCircle
 10
13.0200346268
 20
19.9768086784
 30
0.0
 40
0.1000000000000014
100
AcDbArc
 50
90.0
 51
180.0
  0
LINE
  5
AA
330
1F
100
AcDbEntity
  8
0
 62
   255
370
    15
100
AcDbLine
 10
13.0200346268
 20
20.0768086784
 30
0.0
 11
13.6700346268
 21
20.0768086784
 31
0.0
  0
ARC
  5
AB
330
1F
100
AcDbEntity
  8
0
 62
   255
370
    15
100
AcDbCircle
 10
13.6700346268
 20
19.9768086784
 30
0.0
 40
0.1000000000000014
100
AcDbArc
 50
0.0
 51
90.0
  0
LINE
  5
AC
330
1F
100
AcDbEntity
  8
0
 62
   255
370
    15
100
AcDbLine
 10
13.7700346268
 20
19.9768086784
 30
0.0
 11
13.77003462677619
 21
19.37727425708962
 31
0.0
  0
SPLINE
  5
AD
330
1F
100
AcDbEntity
  8
0
 62
   255
370
    15
100
AcDbSpline
210
0.0
220
0.0
230
1.0
 70
     8
 71
     3
 72
     9
 73
     5
 74
     0
 42
0.0000000001
 43
0.0000000001
 40
-0.9999999999999999
 40
-0.9999999999999999
 40
-0.9999999999999999
 40
-0.9999999999999999
 40
-0.4998372764586154
 40
0.0
 40
0.0
 40
0.0
 40
0.0
 10
13.77003462677619
 20
19.37727425708962
 30
0.0
 10
13.84421113293855
 20
19.38817170054816
 30
0.0
 10
13.99251587991409
 20
19.40995949670368
 30
0.0
 10
14.14154454478769
 20
19.42606724409345
 30
0.0
 10
14.21603462677619
 20
19.43411849668932
 30
0.0
  0
LINE
  5
AE
330
1F
100
AcDbEntity
  8
0
 62
   255
370
    15
100
AcDbLine
 10
14.21603462677619
 20
19.43411849668932
 30
0.0
 11
14.2160346268
 21
19.9871420117
 31
0.0
  0
LINE
  5
AF
330
1F
100
AcDbEntity
  8
0
 62
   255
370
    15
100
AcDbLine
 10
14.2160346268
 20
19.9871420117
 30
0.0
 11
14.3430346268
 21
19.9871420117
 31
0.0
  0
LINE
  5
B0
330
1F
100
AcDbEntity
  8
0
 62
   255
370
    15
100
AcDbLine
 10
14.3430346268
 20
19.9871420117
 30
0.0
 11
14.3430346268
 21
20.6498086784
 31
0.0
  0
LINE
  5
B1
330
1F
100
AcDbEntity
  8
0
 62
   255
370
    15
100
AcDbLine
 10
14.3430346268
 20
20.6498086784
 30
0.0
 11
13.6803679601
 21
20.6498086784
 31
0.0
  0
LINE
  5
B2
330
1F
100
AcDbEntity
  8
0
 62
   255
370
    15
100
AcDbLine
 10
5.2580529522
 20
20.1774791607
 30
0.0
 11
4.6080529522
 21
20.1774791607
 31
0.0
  0
ARC
  5
B3
330
1F
100
AcDbEntity
  8
0
 62
   255
370
    15
100
AcDbCircle
 10
4.6080529522
 20
20.0774791607
 30
0.0
 40
0.1000000000000014
100
AcDbArc
 50
90.0
 51
180.0
  0
LINE
  5
B4
330
1F
100
AcDbEntity
  8
0
 62
   255
370
    15
100
AcDbLine
 10
4.508052952199999
 20
20.0774791607
 30
0.0
 11
4.508052952199999
 21
19.4274791607
 31
0.0
  0
ARC
  5
B5
330
1F
100
AcDbEntity
  8
0
 62
   255
370
    15
100
AcDbCircle
 10
4.6080529522
 20
19.4274791607
 30
0.0
 40
0.1000000000000014
100
AcDbArc
 50
180.0
 51
270.0
  0
LINE
  5
B6
330
1F
100
AcDbEntity
  8
0
 62
   255
370
    15
100
AcDbLine
 10
4.6080529522
 20
19.3274791607
 30
0.0
 11
5.2580529522
 21
19.3274791607
 31
0.0
  0
ARC
  5
B7
330
1F
100
AcDbEntity
  8
0
 62
   255
370
    15
100
AcDbCircle
 10
5.2580529522
 20
19.4274791607
 30
0.0
 40
0.1000000000000014
100
AcDbArc
 50
270.0
 51
0.0
  0
LINE
  5
B8
330
1F
100
AcDbEntity
  8
0
 62
   255
370
    15
100
AcDbLine
 10
5.358052952200001
 20
19.4274791607
 30
0.0
 11
5.358052952200001
 21
20.0774791607
 31
0.0
  0
ARC
  5
B9
330
1F
100
AcDbEntity
  8
0
 62
   255
370
    15
100
AcDbCircle
 10
5.258052952200005
 20
20.0774791607
 30
0.0
 40
0.0999999999999961
100
AcDbArc
 50
0.0
 51
90.00000000000306
  0
LINE
  5
BA
330
1F
100
AcDbEntity
  8
0
 62
   255
370
    15
100
AcDbLine
 10
4.0620529522
 20
19.4211458274
 30
0.0
 11
4.0620529522
 21
18.8814791607
 31
0.0
  0
LINE
  5
BB
330
1F
100
AcDbEntity
  8
0
 62
   255
370
    15
100
AcDbLine
 10
4.0620529522
 20
18.8814791607
 30
0.0
 11
4.6017196189
 21
18.8814791607
 31
0.0
  0
LINE
  5
BC
330
1F
100
AcDbEntity
  8
0
 62
   255
370
    15
100
AcDbLine
 10
4.6017196189
 20
18.8814791607
 30
0.0
 11
4.6017196189
 21
18.7544791607
 31
0.0
  0
LINE
  5
BD
330
1F
100
AcDbEntity
  8
0
 62
   255
370
    15
100
AcDbLine
 10
4.6017196189
 20
18.7544791607
 30
0.0
 11
5.2643862856
 21
18.7544791607
 31
0.0
  0
LINE
  5
BE
330
1F
100
AcDbEntity
  8
0
 62
   255
370
    15
100
AcDbLine
 10
5.2643862856
 20
18.7544791607
 30
0.0
 11
5.2643862856
 21
18.8814791607
 31
0.0
  0
LINE
  5
BF
330
1F
100
AcDbEntity
  8
0
 62
   255
370
    15
100
AcDbLine
 10
5.2643862856
 20
18.8814791607
 30
0.0
 11
5.9310529522
 21
18.8814791607
 31
0.0
  0
LINE
  5
C0
330
1F
100
AcDbEntity
  8
0
 62
   255
370
    15
100
AcDbLine
 10
5.9310529522
 20
18.8814791607
 30
0.0
 11
5.9310529522
 21
19.4171458274
 31
0.0
  0
LINE
  5
C1
330
1F
100
AcDbEntity
  8
0
 62
   255
370
    15
100
AcDbLine
 10
5.9310529522
 20
19.4171458274
 30
0.0
 11
5.8040529522
 21
19.4171458274
 31
0.0
  0
LINE
  5
C2
330
1F
100
AcDbEntity
  8
0
 62
   255
370
    15
100
AcDbLine
 10
5.8040529522
 20
19.4171458274
 30
0.0
 11
5.8040529522
 21
20.0878124941
 31
0.0
  0
LINE
  5
C3
330
1F
100
AcDbEntity
  8
0
 62
   255
370
    15
100
AcDbLine
 10
5.8040529522
 20
20.0878124941
 30
0.0
 11
5.9310529522
 21
20.0878124941
 31
0.0
  0
LINE
  5
C4
330
1F
100
AcDbEntity
  8
0
 62
   255
370
    15
100
AcDbLine
 10
5.9310529522
 20
20.0878124941
 30
0.0
 11
5.9310529522
 21
20.6234791607
 31
0.0
  0
LINE
  5
C5
330
1F
100
AcDbEntity
  8
0
 62
   255
370
    15
100
AcDbLine
 10
5.9310529522
 20
20.6234791607
 30
0.0
 11
5.2643862856
 21
20.6234791607
 31
0.0
  0
LINE
  5
C6
330
1F
100
AcDbEntity
  8
0
 62
   255
370
    15
100
AcDbLine
 10
5.2643862856
 20
20.6234791607
 30
0.0
 11
5.2643862856
 21
20.7504791607
 31
0.0
  0
LINE
  5
C7
330
1F
100
AcDbEntity
  8
0
 62
   255
370
    15
100
AcDbLine
 10
5.2643862856
 20
20.7504791607
 30
0.0
 11
4.6017196189
 21
20.7504791607
 31
0.0
  0
LINE
  5
C8
330
1F
100
AcDbEntity
  8
0
 62
   255
370
    15
100
AcDbLine
 10
4.6017196189
 20
20.7504791607
 30
0.0
 11
4.6017196189
 21
20.6234791607
 31
0.0
  0
LINE
  5
C9
330
1F
100
AcDbEntity
  8
0
 62
   255
370
    15
100
AcDbLine
 10
4.6017196189
 20
20.6234791607
 30
0.0
 11
4.0620529522
 21
20.6234791607
 31
0.0
  0
LINE
  5
CA
330
1F
100
AcDbEntity
  8
0
 62
   255
370
    15
100
AcDbLine
 10
4.0620529522
 20
20.6234791607
 30
0.0
 11
4.0620529522
 21
20.0838124941
 31
0.0
  0
LINE
  5
CB
330
1F
100
AcDbEntity
  8
0
 62
   255
370
    15
100
AcDbLine
 10
4.0620529522
 20
20.0838124941
 30
0.0
 11
3.9350529522
 21
20.0838124941
 31
0.0
  0
LINE
  5
CC
330
1F
100
AcDbEntity
  8
0
 62
   255
370
    15
100
AcDbLine
 10
3.9350529522
 20
20.0838124941
 30
0.0
 11
3.9350529522
 21
19.4211458274
 31
0.0
  0
LINE
  5
CD
330
1F
100
AcDbEntity
  8
0
 62
   255
370
    15
100
AcDbLine
 10
3.9350529522
 20
19.4211458274
 30
0.0
 11
4.0620529522
 21
19.4211458274
 31
0.0
  0
MTEXT
  5
CE
330
1F
100
AcDbEntity
  8
0
 62
   255
370
     0
100
AcDbMText
 10
11.6575759016
 20
1.21782753372
 30
0.0
 40
0.1377952756
 41
0.855824874359036
 71
     7
 72
     1
  1
\fArial;cube_10
 73
     2
 44
0.9638554216867471
  0
MTEXT
  5
F1
330
1F
100
AcDbEntity
  8
0
 62
   255
370
     0
100
AcDbMText
 10
3.3388743193
 20
1.09346565012
 30
0.0
 40
0.1377952756
 41
0.855824874359036
 71
     7
 72
     1
  1
\fArial;cube_10
 73
     2
 44
0.9638554216867471
  0
MTEXT
  5
F2
330
1F
100
AcDbEntity
  8
0
 62
   255
370
     0
100
AcDbMText
 10
11.7981568612
 20
8.51202905612
 30
0.0
 40
0.1377952756
 41
0.855824874359036
 71
     7
 72
     1
  1
\fArial;cube_10
 73
     2
 44
0.9638554216867471
  0
MTEXT
  5
F3
330
1F
100
AcDbEntity
  8
0
 62
   255
370
     0
100
AcDbMText
 10
3.3983408701
 20
8.43379719522
 30
0.0
 40
0.1377952756
 41
0.855824874359036
 71
     7
 72
     1
  1
\fArial;cube_10
 73
     2
 44
0.9638554216867471
  0
MTEXT
  5
F4
330
1F
100
AcDbEntity
  8
0
 62
   255
370
     0
100
AcDbMText
 10
11.9255534149
 20
16.29402732522
 30
0.0
 40
0.1377952756
 41
0.855824874359036
 71
     7
 72
     1
  1
\fArial;cube_10
 73
     2
 44
0.9638554216867471
  0
MTEXT
  5
F5
330
1F
100
AcDbEntity
  8
0
 62
   255
370
     0
100
AcDbMText
 10
3.1811277408
 20
18.02861719922
 30
0.0
 40
0.1377952756
 41
1.730741865216867
 71
     7
 72
     1
  1
\fArial;acrylic_R^ cube_10
 73
     2
 44
0.9638554216867471
  0
VIEWPORT
  5
FF
330
FB
100
AcDbEntity
 67
     1
  8
0
100
AcDbViewport
 10
6.0
 20
4.5
 30
0.0
 40
12.696
 41
9.522
 68
     1
 69
     1
 12
6.0
 22
4.5
 13
0.0
 23
0.0
 14
0.5
 24
0.5
 15
0.5
 25
0.5
 16
0.0
 26
0.0
 36
1.0
 17
0.0
 27
0.0
 37
0.0
 42
50.0
 43
0.0
 44
0.0
 45
9.522
 50
0.0
 51
0.0
 72
   100
 90
   557152
  1

281
     0
 71
     1
 74
     0
110
0.0
120
0.0
130
0.0
111
1.0
121
0.0
131
0.0
112
0.0
122
1.0
132
0.0
 79
     0
146
0.0
170
     0
  0
ENDSEC
  0
SECTION
  2
OBJECTS
  0
DICTIONARY
  5
C
330
0
100
AcDbDictionary
281
     1
  3
ACAD_GROUP
350
D
  3
ACAD_LAYOUT
350
1A
  3
ACAD_MLEADERSTYLE
350
103
  3
ACAD_MLINESTYLE
350
17
  3
ACAD_PLOTSETTINGS
350
19
  3
ACAD_PLOTSTYLENAME
350
E
  3
ACAD_SCALELIST
350
CF
  3
ACAD_TABLESTYLE
350
102
  3
ACAD_VISUALSTYLE
350
2A
  3
AcDbVariableDictionary
350
100
  0
DICTIONARY
  5
D
102
{ACAD_REACTORS
330
C
102
}
330
C
100
AcDbDictionary
281
     1
  0
DICTIONARY
  5
1A
102
{ACAD_REACTORS
330
C
102
}
330
C
100
AcDbDictionary
281
     1
  3
LAYOUT1
350
F7
  3
LAYOUT2
350
FC
  3
Model
350
22
  0
DICTIONARY
  5
103
102
{ACAD_REACTORS
330
C
102
}
330
C
100
AcDbDictionary
281
     1
  0
DICTIONARY
  5
17
102
{ACAD_REACTORS
330
C
102
}
330
C
100
AcDbDictionary
281
     1
  3
Standard
350
18
  0
DICTIONARY
  5
19
102
{ACAD_REACTORS
330
C
102
}
330
C
100
AcDbDictionary
281
     1
  0
ACDBDICTIONARYWDFLT
  5
E
102
{ACAD_REACTORS
330
C
102
}
330
C
100
AcDbDictionary
281
     1
  3
Normal
350
F
100
AcDbDictionaryWithDefault
340
F
  0
DICTIONARY
  5
CF
102
{ACAD_REACTORS
330
C
102
}
330
C
100
AcDbDictionary
281
     1
  3
A0
350
D0
  3
A1
350
D1
  3
A2
350
D2
  3
A3
350
D3
  3
A4
350
D4
  3
A5
350
D5
  3
A6
350
D6
  3
A7
350
D7
  3
A8
350
D8
  3
A9
350
D9
  3
B0
350
DA
  3
B1
350
DB
  3
B2
350
DC
  3
B3
350
DD
  3
B4
350
DE
  3
B5
350
DF
  3
B6
350
E0
  3
B7
350
E1
  3
B8
350
E2
  3
B9
350
E3
  3
C0
350
E4
  3
C1
350
E5
  3
C2
350
E6
  3
C3
350
E7
  3
C4
350
E8
  3
C5
350
E9
  3
C6
350
EA
  3
C7
350
EB
  3
C8
350
EC
  3
C9
350
ED
  3
D0
350
EE
  3
D1
350
EF
  3
D2
350
F0
  0
DICTIONARY
  5
102
102
{ACAD_REACTORS
330
C
102
}
330
C
100
AcDbDictionary
281
     1
  0
DICTIONARY
  5
2A
102
{ACAD_REACTORS
330
C
102
}
330
C
100
AcDbDictionary
281
     1
  3
2dWireframe
350
2F
  3
3D Hidden
350
31
  3
3dWireframe
350
30
  3
Basic
350
32
  3
Brighten
350
36
  3
ColorChange
350
3A
  3
Conceptual
350
34
  3
Dim
350
35
  3
Facepattern
350
39
  3
Flat
350
2B
  3
FlatWithEdges
350
2C
  3
Gouraud
350
2D
  3
GouraudWithEdges
350
2E
  3
Linepattern
350
38
  3
Realistic
350
33
  3
Thicken
350
37
  0
DICTIONARY
  5
100
102
{ACAD_REACTORS
330
C
102
}
330
C
100
AcDbDictionary
281
     1
  3
CANNOSCALE
350
101
  0
LAYOUT
  5
F7
102
{ACAD_REACTORS
330
1A
102
}
330
1A
100
AcDbPlotSettings
  1

  2
none_device
  4
Letter_(8.50_x_11.00_Inches)
  6

 40
6.35
 41
6.35
 42
6.35000508
 43
6.35000508
 44
215.9
 45
279.4
 46
0.0
 47
0.0
 48
0.0
 49
0.0
140
0.0
141
0.0
142
1.0
143
1.0
 70
   688
 72
     0
 73
     1
 74
     5
  7

 75
    16
 76
     0
 77
     2
 78
   300
147
1.0
148
0.0
149
0.0
100
AcDbLayout
  1
LAYOUT1
 70
     1
 71
     1
 10
0.0
 20
0.0
 11
0.0
 21
0.0
 12
0.0
 22
0.0
 32
0.0
 14
0.0
 24
0.0
 34
0.0
 15
0.0
 25
0.0
 35
0.0
146
0.0
 13
0.0
 23
0.0
 33
0.0
 16
1.0
 26
0.0
 36
0.0
 17
0.0
 27
1.0
 37
0.0
 76
     0
330
F6
331
FA
  0
LAYOUT
  5
FC
102
{ACAD_REACTORS
330
1A
102
}
330
1A
100
AcDbPlotSettings
  1

  2
none_device
  4
Letter_(8.50_x_11.00_Inches)
  6

 40
6.35
 41
6.35
 42
6.35000508
 43
6.35000508
 44
215.9
 45
279.4
 46
0.0
 47
0.0
 48
0.0
 49
0.0
140
0.0
141
0.0
142
1.0
143
1.0
 70
   688
 72
     0
 73
     1
 74
     5
  7

 75
    16
 76
     0
 77
     2
 78
   300
147
1.0
148
0.0
149
0.0
100
AcDbLayout
  1
LAYOUT2
 70
     1
 71
     2
 10
0.0
 20
0.0
 11
0.0
 21
0.0
 12
0.0
 22
0.0
 32
0.0
 14
0.0
 24
0.0
 34
0.0
 15
0.0
 25
0.0
 35
0.0
146
0.0
 13
0.0
 23
0.0
 33
0.0
 16
1.0
 26
0.0
 36
0.0
 17
0.0
 27
1.0
 37
0.0
 76
     0
330
FB
331
FF
  0
LAYOUT
  5
22
102
{ACAD_REACTORS
330
1A
102
}
330
1A
100
AcDbPlotSettings
  1

  2
none_device
  4

  6

 40
0.0
 41
0.0
 42
0.0
 43
0.0
 44
0.0
 45
0.0
 46
0.0
 47
0.0
 48
0.0
 49
0.0
140
0.0
141
0.0
142
1.0
143
1.0
 70
  1712
 72
     0
 73
     0
 74
     0
  7

 75
     0
 76
     0
 77
     2
 78
   300
147
1.0
148
0.0
149
0.0
100
AcDbLayout
  1
Model
 70
     1
 71
     0
 10
0.0
 20
0.0
 11
12.0
 21
9.0
 12
0.0
 22
0.0
 32
0.0
 14
3.1811277408
 24
1.09346565012
 34
0.0
 15
14.3446642975
 25
20.7504791607
 35
0.0
146
0.0
 13
0.0
 23
0.0
 33
0.0
 16
1.0
 26
0.0
 36
0.0
 17
0.0
 27
1.0
 37
0.0
 76
     0
330
1F
331
29
  0
MLINESTYLE
  5
18
102
{ACAD_REACTORS
330
17
102
}
330
17
100
AcDbMlineStyle
  2
Standard
 70
     0
  3

 62
   256
 51
90.0
 52
90.0
 71
     2
 49
0.5
 62
   256
  6
BYLAYER
 49
-0.5
 62
   256
  6
BYLAYER
  0
ACDBPLACEHOLDER
  5
F
102
{ACAD_REACTORS
330
E
102
}
330
E
  0
SCALE
  5
D0
102
{ACAD_REACTORS
330
CF
102
}
330
CF
100
AcDbScale
 70
     0
300
1:1
140
1.0
141
1.0
290
     1
  0
SCALE
  5
D1
102
{ACAD_REACTORS
330
CF
102
}
330
CF
100
AcDbScale
 70
     0
300
1:2
140
1.0
141
2.0
290
     0
  0
SCALE
  5
D2
102
{ACAD_REACTORS
330
CF
102
}
330
CF
100
AcDbScale
 70
     0
300
1:4
140
1.0
141
4.0
290
     0
  0
SCALE
  5
D3
102
{ACAD_REACTORS
330
CF
102
}
330
CF
100
AcDbScale
 70
     0
300
1:5
140
1.0
141
5.0
290
     0
  0
SCALE
  5
D4
102
{ACAD_REACTORS
330
CF
102
}
330
CF
100
AcDbScale
 70
     0
300
1:8
140
1.0
141
8.0
290
     0
  0
SCALE
  5
D5
102
{ACAD_REACTORS
330
CF
102
}
330
CF
100
AcDbScale
 70
     0
300
1:10
140
1.0
141
10.0
290
     0
  0
SCALE
  5
D6
102
{ACAD_REACTORS
330
CF
102
}
330
CF
100
AcDbScale
 70
     0
300
1:16
140
1.0
141
16.0
290
     0
  0
SCALE
  5
D7
102
{ACAD_REACTORS
330
CF
102
}
330
CF
100
AcDbScale
 70
     0
300
1:20
140
1.0
141
20.0
290
     0
  0
SCALE
  5
D8
102
{ACAD_REACTORS
330
CF
102
}
330
CF
100
AcDbScale
 70
     0
300
1:30
140
1.0
141
30.0
290
     0
  0
SCALE
  5
D9
102
{ACAD_REACTORS
330
CF
102
}
330
CF
100
AcDbScale
 70
     0
300
1:40
140
1.0
141
40.0
290
     0
  0
SCALE
  5
DA
102
{ACAD_REACTORS
330
CF
102
}
330
CF
100
AcDbScale
 70
     0
300
1:50
140
1.0
141
50.0
290
     0
  0
SCALE
  5
DB
102
{ACAD_REACTORS
330
CF
102
}
330
CF
100
AcDbScale
 70
     0
300
1:100
140
1.0
141
100.0
290
     0
  0
SCALE
  5
DC
102
{ACAD_REACTORS
330
CF
102
}
330
CF
100
AcDbScale
 70
     0
300
2:1
140
2.0
141
1.0
290
     0
  0
SCALE
  5
DD
102
{ACAD_REACTORS
330
CF
102
}
330
CF
100
AcDbScale
 70
     0
300
4:1
140
4.0
141
1.0
290
     0
  0
SCALE
  5
DE
102
{ACAD_REACTORS
330
CF
102
}
330
CF
100
AcDbScale
 70
     0
300
8:1
140
8.0
141
1.0
290
     0
  0
SCALE
  5
DF
102
{ACAD_REACTORS
330
CF
102
}
330
CF
100
AcDbScale
 70
     0
300
10:1
140
10.0
141
1.0
290
     0
  0
SCALE
  5
E0
102
{ACAD_REACTORS
330
CF
102
}
330
CF
100
AcDbScale
 70
     0
300
100:1
140
100.0
141
1.0
290
     0
  0
SCALE
  5
E1
102
{ACAD_REACTORS
330
CF
102
}
330
CF
100
AcDbScale
 70
     0
300
1/128" = 1'-0"
140
0.0078125
141
12.0
290
     0
  0
SCALE
  5
E2
102
{ACAD_REACTORS
330
CF
102
}
330
CF
100
AcDbScale
 70
     0
300
1/64" = 1'-0"
140
0.015625
141
12.0
290
     0
  0
SCALE
  5
E3
102
{ACAD_REACTORS
330
CF
102
}
330
CF
100
AcDbScale
 70
     0
300
1/32" = 1'-0"
140
0.03125
141
12.0
290
     0
  0
SCALE
  5
E4
102
{ACAD_REACTORS
330
CF
102
}
330
CF
100
AcDbScale
 70
     0
300
1/16" = 1'-0"
140
0.0625
141
12.0
290
     0
  0
SCALE
  5
E5
102
{ACAD_REACTORS
330
CF
102
}
330
CF
100
AcDbScale
 70
     0
300
3/32" = 1'-0"
140
0.09375
141
12.0
290
     0
  0
SCALE
  5
E6
102
{ACAD_REACTORS
330
CF
102
}
330
CF
100
AcDbScale
 70
     0
300
1/8" = 1'-0"
140
0.125
141
12.0
290
     0
  0
SCALE
  5
E7
102
{ACAD_REACTORS
330
CF
102
}
330
CF
100
AcDbScale
 70
     0
300
3/16" = 1'-0"
140
0.1875
141
12.0
290
     0
  0
SCALE
  5
E8
102
{ACAD_REACTORS
330
CF
102
}
330
CF
100
AcDbScale
 70
     0
300
1/4" = 1'-0"
140
0.25
141
12.0
290
     0
  0
SCALE
  5
E9
102
{ACAD_REACTORS
330
CF
102
}
330
CF
100
AcDbScale
 70
     0
300
3/8" = 1'-0"
140
0.375
141
12.0
290
     0
  0
SCALE
  5
EA
102
{ACAD_REACTORS
330
CF
102
}
330
CF
100
AcDbScale
 70
     0
300
1/2" = 1'-0"
140
0.5
141
12.0
290
     0
  0
SCALE
  5
EB
102
{ACAD_REACTORS
330
CF
102
}
330
CF
100
AcDbScale
 70
     0
300
3/4" = 1'-0"
140
0.75
141
12.0
290
     0
  0
SCALE
  5
EC
102
{ACAD_REACTORS
330
CF
102
}
330
CF
100
AcDbScale
 70
     0
300
1" = 1'-0"
140
1.0
141
12.0
290
     0
  0
SCALE
  5
ED
102
{ACAD_REACTORS
330
CF
102
}
330
CF
100
AcDbScale
 70
     0
300
1-1/2" = 1'-0"
140
1.5
141
12.0
290
     0
  0
SCALE
  5
EE
102
{ACAD_REACTORS
330
CF
102
}
330
CF
100
AcDbScale
 70
     0
300
3" = 1'-0"
140
3.0
141
12.0
290
     0
  0
SCALE
  5
EF
102
{ACAD_REACTORS
330
CF
102
}
330
CF
100
AcDbScale
 70
     0
300
6" = 1'-0"
140
6.0
141
12.0
290
     0
  0
SCALE
  5
F0
102
{ACAD_REACTORS
330
CF
102
}
330
CF
100
AcDbScale
 70
     0
300
1'-0" = 1'-0"
140
12.0
141
12.0
290
     0
  0
VISUALSTYLE
  5
2F
102
{ACAD_REACTORS
330
2A
102
}
330
2A
100
AcDbVisualStyle
  2
2dWireframe
 70
     4
 71
     0
 72
     2
 73
     0
 90
        0
 40
-0.6
 41
-30.0
 62
     5
 63
     7
421
 16777215
 74
     1
 91
        4
 64
     7
 65
   257
 75
     1
175
     1
 42
1.0
 92
        0
 66
   257
 43
1.0
 76
     1
 77
     6
 78
     2
 67
     7
 79
     5
170
     0
171
     0
290
     0
174
     0
 93
        1
 44
0.0
173
     0
291
     0
 45
0.0
1001
ACAD
1000
AcDbSavedByObjectVersion
1070
     0
  0
VISUALSTYLE
  5
31
102
{ACAD_REACTORS
330
2A
102
}
330
2A
100
AcDbVisualStyle
  2
3D Hidden
 70
     6
 71
     1
 72
     2
 73
     2
 90
        0
 40
-0.6
 41
-30.0
 62
     5
 63
     7
421
 16777215
 74
     2
 91
        2
 64
     7
 65
   257
 75
     2
175
     1
 42
40.0
 92
        0
 66
   257
 43
1.0
 76
     1
 77
     6
 78
     2
 67
     7
 79
     3
170
     0
171
     0
290
     0
174
     0
 93
        1
 44
0.0
173
     0
291
     0
 45
0.0
1001
ACAD
1000
AcDbSavedByObjectVersion
1070
     0
  0
VISUALSTYLE
  5
30
102
{ACAD_REACTORS
330
2A
102
}
330
2A
100
AcDbVisualStyle
  2
3dWireframe
 70
     5
 71
     0
 72
     2
 73
     0
 90
        0
 40
-0.6
 41
-30.0
 62
     5
 63
     7
421
 16777215
 74
     1
 91
        4
 64
     7
 65
   257
 75
     1
175
     1
 42
1.0
 92
        0
 66
   257
 43
1.0
 76
     1
 77
     6
 78
     2
 67
     7
 79
     5
170
     0
171
     0
290
     0
174
     0
 93
        1
 44
0.0
173
     0
291
     0
 45
0.0
1001
ACAD
1000
AcDbSavedByObjectVersion
1070
     0
  0
VISUALSTYLE
  5
32
102
{ACAD_REACTORS
330
2A
102
}
330
2A
100
AcDbVisualStyle
  2
Basic
 70
     7
 71
     1
 72
     0
 73
     1
 90
        0
 40
-0.6
 41
-30.0
 62
     5
 63
     7
421
 16777215
 74
     0
 91
        4
 64
     7
 65
   257
 75
     1
175
     1
 42
1.0
 92
        8
 66
     7
 43
1.0
 76
     1
 77
     6
 78
     2
 67
     7
 79
     5
170
     0
171
     0
290
     0
174
     0
 93
        1
 44
0.0
173
     0
291
     1
 45
0.0
1001
ACAD
1000
AcDbSavedByObjectVersion
1070
     0
  0
VISUALSTYLE
  5
36
102
{ACAD_REACTORS
330
2A
102
}
330
2A
100
AcDbVisualStyle
  2
Brighten
 70
    12
 71
     2
 72
     2
 73
     0
 90
        0
 40
-0.6
 41
-30.0
 62
     5
 63
     7
421
 16777215
 74
     1
 91
        4
 64
     7
 65
   257
 75
     1
175
     1
 42
1.0
 92
        8
 66
     7
 43
1.0
 76
     1
 77
     6
 78
     2
 67
     7
 79
     5
170
     0
171
     0
290
     0
174
     0
 93
        1
 44
50.0
173
     0
291
     1
 45
0.0
1001
ACAD
1000
AcDbSavedByObjectVersion
1070
     0
  0
VISUALSTYLE
  5
3A
102
{ACAD_REACTORS
330
2A
102
}
330
2A
100
AcDbVisualStyle
  2
ColorChange
 70
    16
 71
     2
 72
     2
 73
     3
 90
        0
 40
-0.6
 41
-30.0
 62
     5
 63
     8
421
  8421504
 74
     1
 91
        4
 64
     7
 65
   257
 75
     1
175
     1
 42
1.0
 92
        8
 66
     8
424
  8421504
 43
1.0
 76
     1
 77
     6
 78
     2
 67
     7
 79
     5
170
     0
171
     0
290
     0
174
     0
 93
        1
 44
0.0
173
     0
291
     1
 45
0.0
1001
ACAD
1000
AcDbSavedByObjectVersion
1070
     0
  0
VISUALSTYLE
  5
34
102
{ACAD_REACTORS
330
2A
102
}
330
2A
100
AcDbVisualStyle
  2
Conceptual
 70
     9
 71
     3
 72
     2
 73
     0
 90
        0
 40
-0.6
 41
-30.0
 62
     5
 63
     7
421
 16777215
 74
     2
 91
        2
 64
     7
 65
   257
 75
     1
175
     1
 42
40.0
 92
        8
 66
     7
 43
1.0
 76
     1
 77
     6
 78
     2
 67
     7
 79
     3
170
     0
171
     0
290
     0
174
     0
 93
        1
 44
0.0
173
     0
291
     0
 45
0.0
1001
ACAD
1000
AcDbSavedByObjectVersion
1070
     0
  0
VISUALSTYLE
  5
35
102
{ACAD_REACTORS
330
2A
102
}
330
2A
100
AcDbVisualStyle
  2
Dim
 70
    11
 71
     2
 72
     2
 73
     0
 90
        0
 40
-0.6
 41
-30.0
 62
     5
 63
     7
421
 16777215
 74
     1
 91
        4
 64
     7
 65
   257
 75
     1
175
     1
 42
1.0
 92
        8
 66
     7
 43
1.0
 76
     1
 77
     6
 78
     2
 67
     7
 79
     5
170
     0
171
     0
290
     0
174
     0
 93
        1
 44
-50.0
173
     0
291
     1
 45
0.0
1001
ACAD
1000
AcDbSavedByObjectVersion
1070
     0
  0
VISUALSTYLE
  5
39
102
{ACAD_REACTORS
330
2A
102
}
330
2A
100
AcDbVisualStyle
  2
Facepattern
 70
    15
 71
     2
 72
     2
 73
     0
 90
        0
 40
-0.6
 41
-30.0
 62
     5
 63
     7
421
 16777215
 74
     1
 91
        4
 64
     7
 65
   257
 75
     1
175
     1
 42
1.0
 92
        8
 66
     7
 43
1.0
 76
     1
 77
     6
 78
     2
 67
     7
 79
     5
170
     0
171
     0
290
     0
174
     0
 93
        1
 44
0.0
173
     0
291
     1
 45
0.0
1001
ACAD
1000
AcDbSavedByObjectVersion
1070
     0
  0
VISUALSTYLE
  5
2B
102
{ACAD_REACTORS
330
2A
102
}
330
2A
100
AcDbVisualStyle
  2
Flat
 70
     0
 71
     2
 72
     1
 73
     1
 90
        2
 40
-0.6
 41
30.0
 62
     5
 63
     7
421
 16777215
 74
     0
 91
        4
 64
     7
 65
   257
 75
     1
175
     1
 42
1.0
 92
        8
 66
     7
 43
1.0
 76
     1
 77
     6
 78
     2
 67
     7
 79
     5
170
     0
171
     0
290
     0
174
     0
 93
       13
 44
0.0
173
     0
291
     1
 45
0.0
1001
ACAD
1000
AcDbSavedByObjectVersion
1070
     0
  0
VISUALSTYLE
  5
2C
102
{ACAD_REACTORS
330
2A
102
}
330
2A
100
AcDbVisualStyle
  2
FlatWithEdges
 70
     1
 71
     2
 72
     1
 73
     1
 90
        2
 40
-0.6
 41
30.0
 62
     5
 63
     7
421
 16777215
 74
     1
 91
        4
 64
     7
 65
   257
 75
     1
175
     1
 42
1.0
 92
        0
 66
   257
 43
1.0
 76
     1
 77
     6
 78
     2
 67
     7
 79
     5
170
     0
171
     0
290
     0
174
     0
 93
       13
 44
0.0
173
     0
291
     1
 45
0.0
1001
ACAD
1000
AcDbSavedByObjectVersion
1070
     0
  0
VISUALSTYLE
  5
2D
102
{ACAD_REACTORS
330
2A
102
}
330
2A
100
AcDbVisualStyle
  2
Gouraud
 70
     2
 71
     2
 72
     2
 73
     1
 90
        2
 40
-0.6
 41
30.0
 62
     5
 63
     7
421
 16777215
 74
     0
 91
        4
 64
     7
 65
   257
 75
     1
175
     1
 42
1.0
 92
        0
 66
     7
 43
1.0
 76
     1
 77
     6
 78
     2
 67
     7
 79
     5
170
     0
171
     0
290
     0
174
     0
 93
       13
 44
0.0
173
     0
291
     1
 45
0.0
1001
ACAD
1000
AcDbSavedByObjectVersion
1070
     0
  0
VISUALSTYLE
  5
2E
102
{ACAD_REACTORS
330
2A
102
}
330
2A
100
AcDbVisualStyle
  2
GouraudWithEdges
 70
     3
 71
     2
 72
     2
 73
     1
 90
        2
 40
-0.6
 41
30.0
 62
     5
 63
     7
421
 16777215
 74
     1
 91
        4
 64
     7
 65
   257
 75
     1
175
     1
 42
1.0
 92
        0
 66
   257
 43
1.0
 76
     1
 77
     6
 78
     2
 67
     7
 79
     5
170
     0
171
     0
290
     0
174
     0
 93
       13
 44
0.0
173
     0
291
     1
 45
0.0
1001
ACAD
1000
AcDbSavedByObjectVersion
1070
     0
  0
VISUALSTYLE
  5
38
102
{ACAD_REACTORS
330
2A
102
}
330
2A
100
AcDbVisualStyle
  2
Linepattern
 70
    14
 71
     2
 72
     2
 73
     0
 90
        0
 40
-0.6
 41
-30.0
 62
     5
 63
     7
421
 16777215
 74
     1
 91
        4
 64
     7
 65
   257
 75
     7
175
     7
 42
1.0
 92
        8
 66
     7
 43
1.0
 76
     1
 77
     6
 78
     2
 67
     7
 79
     5
170
     0
171
     0
290
     0
174
     0
 93
        1
 44
0.0
173
     0
291
     1
 45
0.0
1001
ACAD
1000
AcDbSavedByObjectVersion
1070
     0
  0
VISUALSTYLE
  5
33
102
{ACAD_REACTORS
330
2A
102
}
330
2A
100
AcDbVisualStyle
  2
Realistic
 70
     8
 71
     2
 72
     2
 73
     0
 90
        0
 40
-0.6
 41
-30.0
 62
     5
 63
     7
421
 16777215
 74
     1
 91
        0
 64
     7
 65
   257
 75
     1
175
     1
 42
1.0
 92
        8
 66
     8
424
  7895160
 43
1.0
 76
     1
 77
     6
 78
     2
 67
     7
 79
     5
170
     0
171
     0
290
     0
174
     0
 93
       13
 44
0.0
173
     0
291
     0
 45
0.0
1001
ACAD
1000
AcDbSavedByObjectVersion
1070
     0
  0
VISUALSTYLE
  5
37
102
{ACAD_REACTORS
330
2A
102
}
330
2A
100
AcDbVisualStyle
  2
Thicken
 70
    13
 71
     2
 72
     2
 73
     0
 90
        0
 40
-0.6
 41
-30.0
 62
     5
 63
     7
421
 16777215
 74
     1
 91
        4
 64
     7
 65
   257
 75
     1
175
     1
 42
1.0
 92
       12
 66
     7
 43
1.0
 76
     1
 77
     6
 78
     2
 67
     7
 79
     5
170
     0
171
     0
290
     0
174
     0
 93
        1
 44
0.0
173
     0
291
     1
 45
0.0
1001
ACAD
1000
AcDbSavedByObjectVersion
1070
     0
  0
DICTIONARYVAR
  5
101
102
{ACAD_REACTORS
330
100
102
}
330
100
100
DictionaryVariables
280
     0
  1
1:1
  0
ENDSEC
  0
EOF
