  0
SECTION
  2
HEADER
  9
$ACADVER
  1
AC1018
  9
$ACADMAINTVER
 70
     0
  9
$DWGCODEPAGE
  3
ANSI_1252
  9
$INSBASE
 10
0.0
 20
0.0
 30
0.0
  9
$EXTMIN
 10
2.7435962915
 20
1.09346565012
 30
0.0
  9
$EXTMAX
 10
15.4930346662
 20
21.9004792002
 30
0.0
  9
$LIMMIN
 10
0.0
 20
0.0
  9
$LIMMAX
 10
12.0
 20
9.0
  9
$ORTHOMODE
 70
     0
  9
$REGENMODE
 70
     1
  9
$FILLMODE
 70
     1
  9
$QTEXTMODE
 70
     0
  9
$MIRRTEXT
 70
     1
  9
$LTSCALE
 40
0.0393700787401575
  9
$ATTMODE
 70
     1
  9
$TEXTSIZE
 40
0.2
  9
$TRACEWID
 40
0.05
  9
$TEXTSTYLE
  7
Standard
  9
$CLAYER
  8
0
  9
$CELTYPE
  6
ByLayer
  9
$CECOLOR
 62
   256
  9
$CELTSCALE
 40
1.0
  9
$DISPSILH
 70
     0
  9
$DIMSCALE
 40
1.0
  9
$DIMASZ
 40
0.18
  9
$DIMEXO
 40
0.0625
  9
$DIMDLI
 40
0.38
  9
$DIMRND
 40
0.0
  9
$DIMDLE
 40
0.0
  9
$DIMEXE
 40
0.18
  9
$DIMTP
 40
0.0
  9
$DIMTM
 40
0.0
  9
$DIMTXT
 40
0.18
  9
$DIMCEN
 40
0.09
  9
$DIMTSZ
 40
0.0
  9
$DIMTOL
 70
     0
  9
$DIMLIM
 70
     0
  9
$DIMTIH
 70
     1
  9
$DIMTOH
 70
     1
  9
$DIMSE1
 70
     0
  9
$DIMSE2
 70
     0
  9
$DIMTAD
 70
     0
  9
$DIMZIN
 70
     0
  9
$DIMBLK
  1

  9
$DIMASO
 70
     1
  9
$DIMSHO
 70
     1
  9
$DIMPOST
  1

  9
$DIMAPOST
  1

  9
$DIMALT
 70
     0
  9
$DIMALTD
 70
     2
  9
$DIMALTF
 40
25.4
  9
$DIMLFAC
 40
1.0
  9
$DIMTOFL
 70
     0
  9
$DIMTVP
 40
0.0
  9
$DIMTIX
 70
     0
  9
$DIMSOXD
 70
     0
  9
$DIMSAH
 70
     0
  9
$DIMBLK1
  1

  9
$DIMBLK2
  1

  9
$DIMSTYLE
  2
Standard
  9
$DIMCLRD
 70
     0
  9
$DIMCLRE
 70
     0
  9
$DIMCLRT
 70
     0
  9
$DIMTFAC
 40
1.0
  9
$DIMGAP
 40
0.09
  9
$DIMJUST
 70
     0
  9
$DIMSD1
 70
     0
  9
$DIMSD2
 70
     0
  9
$DIMTOLJ
 70
     1
  9
$DIMTZIN
 70
     0
  9
$DIMALTZ
 70
     0
  9
$DIMALTTZ
 70
     0
  9
$DIMUPT
 70
     0
  9
$DIMDEC
 70
     4
  9
$DIMTDEC
 70
     4
  9
$DIMALTU
 70
     2
  9
$DIMALTTD
 70
     2
  9
$DIMTXSTY
  7
Standard
  9
$DIMAUNIT
 70
     0
  9
$DIMADEC
 70
     0
  9
$DIMALTRND
 40
0.0
  9
$DIMAZIN
 70
     0
  9
$DIMDSEP
 70
    46
  9
$DIMATFIT
 70
     3
  9
$DIMFRAC
 70
     0
  9
$DIMLDRBLK
  1

  9
$DIMLUNIT
 70
     2
  9
$DIMLWD
 70
    -2
  9
$DIMLWE
 70
    -2
  9
$DIMTMOVE
 70
     2
  9
$LUNITS
 70
     2
  9
$LUPREC
 70
     2
  9
$SKETCHINC
 40
0.1
  9
$FILLETRAD
 40
0.5
  9
$AUNITS
 70
     0
  9
$AUPREC
 70
     0
  9
$MENU
  1
.
  9
$ELEVATION
 40
0.0
  9
$PELEVATION
 40
0.0
  9
$THICKNESS
 40
0.0
  9
$LIMCHECK
 70
     0
  9
$CHAMFERA
 40
0.5
  9
$CHAMFERB
 40
0.5
  9
$CHAMFERC
 40
1.0
  9
$CHAMFERD
 40
0.0
  9
$SKPOLY
 70
     0
  9
$TDCREATE
 40
2455388.592080891
  9
$TDUCREATE
 40
2455388.883747558
  9
$TDUPDATE
 40
2455388.592080903
  9
$TDUUPDATE
 40
2455388.883747569
  9
$TDINDWG
 40
0.0000000116
  9
$TDUSRTIMER
 40
0.0000000116
  9
$USRTIMER
 70
     1
  9
$ANGBASE
 50
0.0
  9
$ANGDIR
 70
     0
  9
$PDMODE
 70
     0
  9
$PDSIZE
 40
0.0
  9
$PLINEWID
 40
0.0
  9
$SPLFRAME
 70
     0
  9
$SPLINETYPE
 70
     6
  9
$SPLINESEGS
 70
     8
  9
$HANDSEED
  5
10D
  9
$SURFTAB1
 70
     6
  9
$SURFTAB2
 70
     6
  9
$SURFTYPE
 70
     6
  9
$SURFU
 70
     6
  9
$SURFV
 70
     6
  9
$UCSBASE
  2

  9
$UCSNAME
  2

  9
$UCSORG
 10
0.0
 20
0.0
 30
0.0
  9
$UCSXDIR
 10
1.0
 20
0.0
 30
0.0
  9
$UCSYDIR
 10
0.0
 20
1.0
 30
0.0
  9
$UCSORTHOREF
  2

  9
$UCSORTHOVIEW
 70
     0
  9
$UCSORGTOP
 10
0.0
 20
0.0
 30
0.0
  9
$UCSORGBOTTOM
 10
0.0
 20
0.0
 30
0.0
  9
$UCSORGLEFT
 10
0.0
 20
0.0
 30
0.0
  9
$UCSORGRIGHT
 10
0.0
 20
0.0
 30
0.0
  9
$UCSORGFRONT
 10
0.0
 20
0.0
 30
0.0
  9
$UCSORGBACK
 10
0.0
 20
0.0
 30
0.0
  9
$PUCSBASE
  2

  9
$PUCSNAME
  2

  9
$PUCSORG
 10
0.0
 20
0.0
 30
0.0
  9
$PUCSXDIR
 10
1.0
 20
0.0
 30
0.0
  9
$PUCSYDIR
 10
0.0
 20
1.0
 30
0.0
  9
$PUCSORTHOREF
  2

  9
$PUCSORTHOVIEW
 70
     0
  9
$PUCSORGTOP
 10
0.0
 20
0.0
 30
0.0
  9
$PUCSORGBOTTOM
 10
0.0
 20
0.0
 30
0.0
  9
$PUCSORGLEFT
 10
0.0
 20
0.0
 30
0.0
  9
$PUCSORGRIGHT
 10
0.0
 20
0.0
 30
0.0
  9
$PUCSORGFRONT
 10
0.0
 20
0.0
 30
0.0
  9
$PUCSORGBACK
 10
0.0
 20
0.0
 30
0.0
  9
$USERI1
 70
     0
  9
$USERI2
 70
     0
  9
$USERI3
 70
     0
  9
$USERI4
 70
     0
  9
$USERI5
 70
     0
  9
$USERR1
 40
0.0
  9
$USERR2
 40
0.0
  9
$USERR3
 40
0.0
  9
$USERR4
 40
0.0
  9
$USERR5
 40
0.0
  9
$WORLDVIEW
 70
     1
  9
$SHADEDGE
 70
     3
  9
$SHADEDIF
 70
    70
  9
$TILEMODE
 70
     0
  9
$MAXACTVP
 70
    64
  9
$PINSBASE
 10
0.0
 20
0.0
 30
0.0
  9
$PLIMCHECK
 70
     0
  9
$PEXTMIN
 10
0.0
 20
0.0
 30
0.0
  9
$PEXTMAX
 10
0.0
 20
0.0
 30
0.0
  9
$PLIMMIN
 10
0.0
 20
0.0
  9
$PLIMMAX
 10
12.0
 20
9.0
  9
$UNITMODE
 70
     0
  9
$VISRETAIN
 70
     1
  9
$PLINEGEN
 70
     0
  9
$PSLTSCALE
 70
     1
  9
$TREEDEPTH
 70
  3020
  9
$CMLSTYLE
  2
Standard
  9
$CMLJUST
 70
     0
  9
$CMLSCALE
 40
1.0
  9
$PROXYGRAPHICS
 70
     1
  9
$MEASUREMENT
 70
     0
  9
$CELWEIGHT
370
    -1
  9
$ENDCAPS
280
     0
  9
$JOINSTYLE
280
     0
  9
$LWDISPLAY
290
     0
  9
$INSUNITS
 70
     1
  9
$HYPERLINKBASE
  1

  9
$STYLESHEET
  1

  9
$XEDIT
290
     1
  9
$CEPSNTYPE
380
     0
  9
$PSTYLEMODE
290
     1
  9
$FINGERPRINTGUID
  2
{B271F4C4-35D6-43DB-8AB3-402B5DDE2222}
  9
$VERSIONGUID
  2
{FAEB1C32-E019-11D5-929B-00C0DF256EC4}
  9
$EXTNAMES
290
     1
  9
$PSVPSCALE
 40
0.0
  9
$OLESTARTUP
290
     0
  9
$SORTENTS
280
   127
  9
$INDEXCTL
280
     0
  9
$HIDETEXT
280
     1
  9
$XCLIPFRAME
290
     0
  9
$HALOGAP
280
     0
  9
$OBSCOLOR
 70
   257
  9
$OBSLTYPE
280
     0
  9
$INTERSECTIONDISPLAY
280
     0
  9
$INTERSECTIONCOLOR
 70
   257
  9
$DIMASSOC
280
     2
  9
$PROJECTNAME
  1

  0
ENDSEC
  0
SECTION
  2
CLASSES
  0
CLASS
  1
ACDBDICTIONARYWDFLT
  2
AcDbDictionaryWithDefault
  3
ObjectDBX Classes
 90
        0
 91
        4
280
     0
281
     0
  0
CLASS
  1
VISUALSTYLE
  2
AcDbVisualStyle
  3
ObjectDBX Classes
 90
     4095
 91
        4
280
     0
281
     0
  0
CLASS
  1
SCALE
  2
AcDbScale
  3
ObjectDBX Classes
 90
     1153
 91
        4
280
     0
281
     0
  0
CLASS
  1
DICTIONARYVAR
  2
AcDbDictionaryVar
  3
ObjectDBX Classes
 90
        0
 91
        4
280
     0
281
     0
  0
ENDSEC
  0
SECTION
  2
TABLES
  0
TABLE
  2
VPORT
  5
8
330
0
100
AcDbSymbolTable
 70
     1
  0
VPORT
  5
29
330
8
100
AcDbSymbolTableRecord
100
AcDbViewportTableRecord
  2
*Active
 70
     0
 10
0.0
 20
0.0
 11
1.0
 21
1.0
 12
9.11831547885
 22
11.50085365875607
 13
0.0
 23
0.0
 14
0.5
 24
0.5
 15
0.5
 25
0.5
 16
0.0
 26
0.0
 36
1.0
 17
0.0
 27
0.0
 37
0.0
 40
21.21523610454562
 41
0.6129758385959062
 42
50.0
 43
0.0
 44
0.0
 50
0.0
 51
0.0
 71
     0
 72
   100
 73
     1
 74
     3
 75
     0
 76
     0
 77
     0
 78
     0
281
     0
 65
     1
110
0.0
120
0.0
130
0.0
111
1.0
121
0.0
131
0.0
112
0.0
122
1.0
132
0.0
 79
     0
146
0.0
  0
ENDTAB
  0
TABLE
  2
LTYPE
  5
5
330
0
100
AcDbSymbolTable
 70
     1
  0
LTYPE
  5
14
330
5
100
AcDbSymbolTableRecord
100
AcDbLinetypeTableRecord
  2
ByBlock
 70
     0
  3

 72
    65
 73
     0
 40
0.0
  0
LTYPE
  5
15
330
5
100
AcDbSymbolTableRecord
100
AcDbLinetypeTableRecord
  2
ByLayer
 70
     0
  3

 72
    65
 73
     0
 40
0.0
  0
LTYPE
  5
16
330
5
100
AcDbSymbolTableRecord
100
AcDbLinetypeTableRecord
  2
Continuous
 70
     0
  3
Solid line
 72
    65
 73
     0
 40
0.0
  0
ENDTAB
  0
TABLE
  2
LAYER
  5
2
330
0
100
AcDbSymbolTable
 70
     1
  0
LAYER
  5
10
330
2
100
AcDbSymbolTableRecord
100
AcDbLayerTableRecord
  2
0
 70
     0
 62
     7
  6
Continuous
370
    -3
390
F
  0
ENDTAB
  0
TABLE
  2
STYLE
  5
3
330
0
100
AcDbSymbolTable
 70
     1
  0
STYLE
  5
11
330
3
100
AcDbSymbolTableRecord
100
AcDbTextStyleTableRecord
  2
Standard
 70
     0
 40
0.0
 41
1.0
 50
0.0
 71
     0
 42
0.2
  3
txt
  4

  0
ENDTAB
  0
TABLE
  2
VIEW
  5
6
330
0
100
AcDbSymbolTable
 70
     0
  0
ENDTAB
  0
TABLE
  2
UCS
  5
7
330
0
100
AcDbSymbolTable
 70
     0
  0
ENDTAB
  0
TABLE
  2
APPID
  5
9
330
0
100
AcDbSymbolTable
 70
     1
  0
APPID
  5
12
330
9
100
AcDbSymbolTableRecord
100
AcDbRegAppTableRecord
  2
ACAD
 70
     0
  0
ENDTAB
  0
TABLE
  2
DIMSTYLE
  5
A
330
0
100
AcDbSymbolTable
 70
     1
100
AcDbDimStyleTable
  0
DIMSTYLE
105
27
330
A
100
AcDbSymbolTableRecord
100
AcDbDimStyleTableRecord
  2
Standard
 70
     0
340
11
  0
ENDTAB
  0
TABLE
  2
BLOCK_RECORD
  5
1
330
0
100
AcDbSymbolTable
 70
     3
  0
BLOCK_RECORD
  5
1F
330
1
100
AcDbSymbolTableRecord
100
AcDbBlockTableRecord
  2
*Model_Space
340
22
  0
BLOCK_RECORD
  5
104
330
1
100
AcDbSymbolTableRecord
100
AcDbBlockTableRecord
  2
*Paper_Space
340
105
  0
BLOCK_RECORD
  5
23
330
1
100
AcDbSymbolTableRecord
100
AcDbBlockTableRecord
  2
*Paper_Space0
340
26
  0
BLOCK_RECORD
  5
1B
330
1
100
AcDbSymbolTableRecord
100
AcDbBlockTableRecord
  2
*Paper_Space1
340
1E
  0
BLOCK_RECORD
  5
FF
330
1
100
AcDbSymbolTableRecord
100
AcDbBlockTableRecord
  2
*Paper_Space2
340
100
  0
ENDTAB
  0
ENDSEC
  0
SECTION
  2
BLOCKS
  0
BLOCK
  5
20
330
1F
100
AcDbEntity
  8
0
100
AcDbBlockBegin
  2
*Model_Space
 70
     0
 10
0.0
 20
0.0
 30
0.0
  3
*Model_Space
  1

  0
ENDBLK
  5
21
330
1F
100
AcDbEntity
  8
0
100
AcDbBlockEnd
  0
BLOCK
  5
106
330
104
100
AcDbEntity
 67
     1
  8
0
100
AcDbBlockBegin
  2
*Paper_Space
 70
     0
 10
0.0
 20
0.0
 30
0.0
  3
*Paper_Space
  1

  0
ENDBLK
  5
107
330
104
100
AcDbEntity
 67
     1
  8
0
100
AcDbBlockEnd
  0
BLOCK
  5
24
330
23
100
AcDbEntity
  8
0
100
AcDbBlockBegin
  2
*Paper_Space0
 70
     0
 10
0.0
 20
0.0
 30
0.0
  3
*Paper_Space0
  1

  0
ENDBLK
  5
25
330
23
100
AcDbEntity
  8
0
100
AcDbBlockEnd
  0
BLOCK
  5
1C
330
1B
100
AcDbEntity
  8
0
100
AcDbBlockBegin
  2
*Paper_Space1
 70
     0
 10
0.0
 20
0.0
 30
0.0
  3
*Paper_Space1
  1

  0
ENDBLK
  5
1D
330
1B
100
AcDbEntity
  8
0
100
AcDbBlockEnd
  0
BLOCK
  5
101
330
FF
100
AcDbEntity
  8
0
100
AcDbBlockBegin
  2
*Paper_Space2
 70
     0
 10
0.0
 20
0.0
 30
0.0
  3
*Paper_Space2
  1

  0
VIEWPORT
  5
103
330
FF
100
AcDbEntity
  8
0
100
AcDbViewport
 10
6.0
 20
4.5
 30
0.0
 40
12.696
 41
9.522
 68
     1
 69
     1
 12
6.0
 22
4.5
 13
0.0
 23
0.0
 14
0.5
 24
0.5
 15
0.5
 25
0.5
 16
0.0
 26
0.0
 36
1.0
 17
0.0
 27
0.0
 37
0.0
 42
50.0
 43
0.0
 44
0.0
 45
9.522
 50
0.0
 51
0.0
 72
   100
 90
   557152
  1

281
     0
 71
     1
 74
     0
110
0.0
120
0.0
130
0.0
111
1.0
121
0.0
131
0.0
112
0.0
122
1.0
132
0.0
 79
     0
146
0.0
170
     0
  0
ENDBLK
  5
102
330
FF
100
AcDbEntity
  8
0
100
AcDbBlockEnd
  0
ENDSEC
  0
SECTION
  2
ENTITIES
  0
MTEXT
  5
3B
330
1F
100
AcDbEntity
  8
0
 62
   255
370
     0
100
AcDbMText
 10
11.6575759016
 20
1.21782753372
 30
0.0
 40
0.1377952756
 41
0.855824874359036
 71
     7
 72
     1
  1
\fArial;cube_19
 73
     2
 44
0.9638554216867471
  0
LINE
  5
5E
330
1F
100
AcDbEntity
  8
0
 62
   255
370
    15
100
AcDbLine
 10
11.1593885062
 20
2.5177985611
 30
0.0
 11
12.5887218944
 21
2.5177985611
 31
0.0
  0
SPLINE
  5
5F
330
1F
100
AcDbEntity
  8
0
 62
   255
370
    15
100
AcDbSpline
210
0.0
220
0.0
230
1.0
 70
     8
 71
     3
 72
    10
 73
     6
 74
     0
 42
0.0000000001
 43
0.0000000001
 40
0.0
 40
0.0
 40
0.0
 40
0.0
 40
0.3320988454928033
 40
0.6658053941628372
 40
1.0
 40
1.0
 40
1.0
 40
1.0
 10
11.15938850617566
 20
3.582469515288067
 30
0.0
 10
11.24769361133595
 20
3.565741481008168
 30
0.0
 10
11.42473131003858
 20
3.532204431396417
 30
0.0
 10
11.69250872944481
 20
3.49225518484733
 30
0.0
 10
11.87238484037809
 20
3.474337853431666
 30
0.0
 10
11.96238861651652
 20
3.465372641334481
 30
0.0
  0
LINE
  5
60
330
1F
100
AcDbEntity
  8
0
 62
   255
370
    15
100
AcDbLine
 10
11.1593885062
 20
3.5824695153
 30
0.0
 11
11.1593885062
 21
2.5177985611
 31
0.0
  0
LINE
  5
61
330
1F
100
AcDbEntity
  8
0
 62
   255
370
    15
100
AcDbLine
 10
12.5887218944
 20
2.5177985611
 30
0.0
 11
12.5887218944
 21
2.6447985473
 31
0.0
  0
LINE
  5
62
330
1F
100
AcDbEntity
  8
0
 62
   255
370
    15
100
AcDbLine
 10
12.5887218944
 20
2.6447985473
 30
0.0
 11
14.0260551969
 21
2.6447985473
 31
0.0
  0
LINE
  5
63
330
1F
100
AcDbEntity
  8
0
 62
   255
370
    15
100
AcDbLine
 10
14.0260551969
 20
2.6447985473
 30
0.0
 11
14.0260551969
 21
2.5177985611
 31
0.0
  0
LINE
  5
64
330
1F
100
AcDbEntity
  8
0
 62
   255
370
    15
100
AcDbLine
 10
14.0260551969
 20
2.5177985611
 30
0.0
 11
15.4553885851
 21
2.5177985611
 31
0.0
  0
LINE
  5
65
330
1F
100
AcDbEntity
  8
0
 62
   255
370
    15
100
AcDbLine
 10
15.4553885851
 20
2.5177985611
 30
0.0
 11
15.4553885851
 21
3.9471319493
 31
0.0
  0
LINE
  5
66
330
1F
100
AcDbEntity
  8
0
 62
   255
370
    15
100
AcDbLine
 10
15.4553885851
 20
3.9471319493
 30
0.0
 11
15.3283885989
 21
3.9471319493
 31
0.0
  0
LINE
  5
67
330
1F
100
AcDbEntity
  8
0
 62
   255
370
    15
100
AcDbLine
 10
15.3283885989
 20
3.9471319493
 30
0.0
 11
15.3283885989
 21
5.3844652518
 31
0.0
  0
LINE
  5
68
330
1F
100
AcDbEntity
  8
0
 62
   255
370
    15
100
AcDbLine
 10
15.3283885989
 20
5.3844652518
 30
0.0
 11
15.4553885851
 21
5.3844652518
 31
0.0
  0
LINE
  5
69
330
1F
100
AcDbEntity
  8
0
 62
   255
370
    15
100
AcDbLine
 10
15.4553885851
 20
5.3844652518
 30
0.0
 11
15.4553885851
 21
6.81379864
 31
0.0
  0
LINE
  5
6A
330
1F
100
AcDbEntity
  8
0
 62
   255
370
    15
100
AcDbLine
 10
15.4553885851
 20
6.81379864
 30
0.0
 11
14.0260551969
 21
6.81379864
 31
0.0
  0
LINE
  5
6B
330
1F
100
AcDbEntity
  8
0
 62
   255
370
    15
100
AcDbLine
 10
14.0260551969
 20
6.81379864
 30
0.0
 11
14.0260551969
 21
6.6867986538
 31
0.0
  0
LINE
  5
6C
330
1F
100
AcDbEntity
  8
0
 62
   255
370
    15
100
AcDbLine
 10
14.0260551969
 20
6.6867986538
 30
0.0
 11
13.7568385502
 21
6.6867986538
 31
0.0
  0
SPLINE
  5
6D
330
1F
100
AcDbEntity
  8
0
 62
   255
370
    15
100
AcDbSpline
210
0.0
220
0.0
230
1.0
 70
     8
 71
     3
 72
    11
 73
     7
 74
     0
 42
0.0000000001
 43
0.0000000001
 40
0.0
 40
0.0
 40
0.0
 40
0.0
 40
0.2494969910239573
 40
0.4990044767403782
 40
0.7494991649111546
 40
1.0
 40
1.0
 40
1.0
 40
1.0
 10
14.0799045614583
 20
6.010798529690742
 30
0.0
 10
14.05615165368592
 20
6.068451126674748
 30
0.0
 10
14.00864483901303
 20
6.183758745707174
 30
0.0
 10
13.92965462843518
 20
6.353632437691819
 30
0.0
 10
13.8462132816752
 20
6.521623088136436
 30
0.0
 10
13.78663037104813
 20
6.631739681565676
 30
0.0
 10
13.7568385502111
 20
6.686798653812956
 30
0.0
  0
LINE
  5
6E
330
1F
100
AcDbEntity
  8
0
 62
   255
370
    15
100
AcDbLine
 10
14.5523884833
 20
6.0107985297
 30
0.0
 11
14.0799045615
 21
6.0107985297
 31
0.0
  0
ARC
  5
6F
330
1F
100
AcDbEntity
  8
0
 62
   255
370
    15
100
AcDbCircle
 10
14.5523885456
 20
5.9107986006
 30
0.0
 40
0.1000000000000005
100
AcDbArc
 50
0.0
 51
90.0
  0
LINE
  5
70
330
1F
100
AcDbEntity
  8
0
 62
   255
370
    15
100
AcDbLine
 10
14.6523884747
 20
3.4207986629
 30
0.0
 11
14.6523884747
 21
5.9107985382
 31
0.0
  0
ARC
  5
71
330
1F
100
AcDbEntity
  8
0
 62
   255
370
    15
100
AcDbCircle
 10
14.5523885456
 20
3.4207986006
 30
0.0
 40
0.1000000000000001
100
AcDbArc
 50
270.0
 51
0.0
  0
LINE
  5
72
330
1F
100
AcDbEntity
  8
0
 62
   255
370
    15
100
AcDbLine
 10
12.062388608
 20
3.3207986715
 30
0.0
 11
14.5523884833
 21
3.3207986715
 31
0.0
  0
ARC
  5
73
330
1F
100
AcDbEntity
  8
0
 62
   255
370
    15
100
AcDbCircle
 10
12.0623885456
 20
3.4207986006
 30
0.0
 40
0.1000000000000001
100
AcDbArc
 50
180.0
 51
270.0
  0
LINE
  5
74
330
1F
100
AcDbEntity
  8
0
 62
   255
370
    15
100
AcDbLine
 10
11.9623886165
 20
3.4653726413
 30
0.0
 11
11.9623886165
 21
3.4207986629
 31
0.0
  0
MTEXT
  5
75
330
1F
100
AcDbEntity
  8
0
 62
   255
370
     0
100
AcDbMText
 10
3.3388743193
 20
1.09346565012
 30
0.0
 40
0.1377952756
 41
0.855824874359036
 71
     7
 72
     1
  1
\fArial;cube_19
 73
     2
 44
0.9638554216867471
  0
LINE
  5
76
330
1F
100
AcDbEntity
  8
0
 62
   255
370
    15
100
AcDbLine
 10
6.9125963842
 20
6.7742315914
 30
0.0
 11
5.6102629822
 21
6.7742315914
 31
0.0
  0
LINE
  5
77
330
1F
100
AcDbEntity
  8
0
 62
   255
370
    15
100
AcDbLine
 10
6.9125963842
 20
5.3408982094
 30
0.0
 11
6.9125963842
 21
6.7742315914
 31
0.0
  0
LINE
  5
78
330
1F
100
AcDbEntity
  8
0
 62
   255
370
    15
100
AcDbLine
 10
5.6102629822
 20
6.7742315914
 30
0.0
 11
5.6102629822
 21
6.6472316052
 31
0.0
  0
LINE
  5
79
330
1F
100
AcDbEntity
  8
0
 62
   255
370
    15
100
AcDbLine
 10
5.6102629822
 20
6.6472316052
 30
0.0
 11
4.1729296797
 21
6.6472316052
 31
0.0
  0
LINE
  5
7A
330
1F
100
AcDbEntity
  8
0
 62
   255
370
    15
100
AcDbLine
 10
4.1729296797
 20
6.6472316052
 30
0.0
 11
4.1729296797
 21
6.7742315914
 31
0.0
  0
LINE
  5
7B
330
1F
100
AcDbEntity
  8
0
 62
   255
370
    15
100
AcDbLine
 10
4.1729296797
 20
6.7742315914
 30
0.0
 11
2.8705962777
 21
6.7742315914
 31
0.0
  0
LINE
  5
7C
330
1F
100
AcDbEntity
  8
0
 62
   255
370
    15
100
AcDbLine
 10
2.8705962777
 20
6.7742315914
 30
0.0
 11
2.8705962777
 21
5.3408982094
 31
0.0
  0
LINE
  5
7D
330
1F
100
AcDbEntity
  8
0
 62
   255
370
    15
100
AcDbLine
 10
2.8705962777
 20
5.3408982094
 30
0.0
 11
2.7435962915
 21
5.3408982094
 31
0.0
  0
LINE
  5
7E
330
1F
100
AcDbEntity
  8
0
 62
   255
370
    15
100
AcDbLine
 10
2.7435962915
 20
5.3408982094
 30
0.0
 11
2.7435962915
 21
3.9115648945
 31
0.0
  0
LINE
  5
7F
330
1F
100
AcDbEntity
  8
0
 62
   255
370
    15
100
AcDbLine
 10
2.7435962915
 20
3.9115648945
 30
0.0
 11
2.8705962777
 21
3.9115648945
 31
0.0
  0
LINE
  5
80
330
1F
100
AcDbEntity
  8
0
 62
   255
370
    15
100
AcDbLine
 10
2.8705962777
 20
3.9115648945
 30
0.0
 11
2.8705962777
 21
2.6052314987
 31
0.0
  0
LINE
  5
81
330
1F
100
AcDbEntity
  8
0
 62
   255
370
    15
100
AcDbLine
 10
2.8705962777
 20
2.6052314987
 30
0.0
 11
4.1769296735
 21
2.6052314987
 31
0.0
  0
LINE
  5
82
330
1F
100
AcDbEntity
  8
0
 62
   255
370
    15
100
AcDbLine
 10
4.1769296735
 20
2.6052314987
 30
0.0
 11
4.1769296735
 21
2.4782315125
 31
0.0
  0
LINE
  5
83
330
1F
100
AcDbEntity
  8
0
 62
   255
370
    15
100
AcDbLine
 10
4.1769296735
 20
2.4782315125
 30
0.0
 11
5.6062629884
 21
2.4782315125
 31
0.0
  0
LINE
  5
84
330
1F
100
AcDbEntity
  8
0
 62
   255
370
    15
100
AcDbLine
 10
5.6062629884
 20
2.4782315125
 30
0.0
 11
5.6062629884
 21
2.6052314987
 31
0.0
  0
LINE
  5
85
330
1F
100
AcDbEntity
  8
0
 62
   255
370
    15
100
AcDbLine
 10
5.6062629884
 20
2.6052314987
 30
0.0
 11
6.9125963842
 21
2.6052314987
 31
0.0
  0
LINE
  5
86
330
1F
100
AcDbEntity
  8
0
 62
   255
370
    15
100
AcDbLine
 10
6.9125963842
 20
2.6052314987
 30
0.0
 11
6.9125963842
 21
3.9115648945
 31
0.0
  0
LINE
  5
87
330
1F
100
AcDbEntity
  8
0
 62
   255
370
    15
100
AcDbLine
 10
6.9125963842
 20
3.9115648945
 30
0.0
 11
7.0395963704
 21
3.9115648945
 31
0.0
  0
LINE
  5
88
330
1F
100
AcDbEntity
  8
0
 62
   255
370
    15
100
AcDbLine
 10
7.0395963704
 20
3.9115648945
 30
0.0
 11
7.0395963704
 21
5.3408982094
 31
0.0
  0
LINE
  5
89
330
1F
100
AcDbEntity
  8
0
 62
   255
370
    15
100
AcDbLine
 10
7.0395963704
 20
5.3408982094
 30
0.0
 11
6.9125963842
 21
5.3408982094
 31
0.0
  0
LINE
  5
8A
330
1F
100
AcDbEntity
  8
0
 62
   255
370
    15
100
AcDbLine
 10
3.5465964018
 20
5.8712314896
 30
0.0
 11
3.5465964018
 21
3.3812316143
 31
0.0
  0
ARC
  5
8B
330
1F
100
AcDbEntity
  8
0
 62
   255
370
    15
100
AcDbCircle
 10
3.646596331
 20
5.8712315519
 30
0.0
 40
0.0999999999999996
100
AcDbArc
 50
90.0
 51
180.0
  0
LINE
  5
8C
330
1F
100
AcDbEntity
  8
0
 62
   255
370
    15
100
AcDbLine
 10
6.1365962686
 20
5.971231481
 30
0.0
 11
3.6465963933
 21
5.971231481
 31
0.0
  0
ARC
  5
8D
330
1F
100
AcDbEntity
  8
0
 62
   255
370
    15
100
AcDbCircle
 10
6.136596331
 20
5.8712315519
 30
0.0
 40
0.0999999999999996
100
AcDbArc
 50
0.0
 51
90.0
  0
LINE
  5
8E
330
1F
100
AcDbEntity
  8
0
 62
   255
370
    15
100
AcDbLine
 10
6.2365962601
 20
3.3812316143
 30
0.0
 11
6.2365962601
 21
5.8712314896
 31
0.0
  0
ARC
  5
8F
330
1F
100
AcDbEntity
  8
0
 62
   255
370
    15
100
AcDbCircle
 10
6.136596331
 20
3.3812315519
 30
0.0
 40
0.1000000000000005
100
AcDbArc
 50
270.0
 51
0.0
  0
LINE
  5
90
330
1F
100
AcDbEntity
  8
0
 62
   255
370
    15
100
AcDbLine
 10
3.6465963933
 20
3.2812316228
 30
0.0
 11
6.1365962686
 21
3.2812316228
 31
0.0
  0
ARC
  5
91
330
1F
100
AcDbEntity
  8
0
 62
   255
370
    15
100
AcDbCircle
 10
3.646596331
 20
3.3812315519
 30
0.0
 40
0.1000000000000005
100
AcDbArc
 50
180.0
 51
270.0
  0
MTEXT
  5
92
330
1F
100
AcDbEntity
  8
0
 62
   255
370
     0
100
AcDbMText
 10
11.7981568612
 20
8.51202905612
 30
0.0
 40
0.1377952756
 41
0.855824874359036
 71
     7
 72
     1
  1
\fArial;cube_19
 73
     2
 44
0.9638554216867471
  0
SPLINE
  5
93
330
1F
100
AcDbEntity
  8
0
 62
   255
370
    15
100
AcDbSpline
210
0.0
220
0.0
230
1.0
 70
     8
 71
     3
 72
    10
 73
     6
 74
     0
 42
0.0000000001
 43
0.0000000001
 40
0.0
 40
0.0
 40
0.0
 40
0.0
 40
0.3071364025190831
 40
0.6151770000071164
 40
1.0
 40
1.0
 40
1.0
 40
1.0
 10
14.02111864614544
 20
14.11163117972858
 30
0.0
 10
14.02897644981531
 20
14.02856024237864
 30
0.0
 10
14.04471519015551
 20
13.86217381078808
 30
0.0
 10
14.08784382919284
 20
13.59372071179613
 30
0.0
 10
14.13078025385523
 20
13.41043158515517
 30
0.0
 10
14.15462755050585
 20
13.30863106938771
 30
0.0
  0
LINE
  5
94
330
1F
100
AcDbEntity
  8
0
 62
   255
370
    15
100
AcDbLine
 10
14.0211186461
 20
14.1116311797
 30
0.0
 11
12.6319976401
 21
14.1116311797
 31
0.0
  0
LINE
  5
95
330
1F
100
AcDbEntity
  8
0
 62
   255
370
    15
100
AcDbLine
 10
12.6319976401
 20
14.1116311797
 30
0.0
 11
12.6319976401
 21
13.9846311935
 31
0.0
  0
LINE
  5
96
330
1F
100
AcDbEntity
  8
0
 62
   255
370
    15
100
AcDbLine
 10
12.6319976401
 20
13.9846311935
 30
0.0
 11
11.3256642443
 21
13.9846311935
 31
0.0
  0
LINE
  5
97
330
1F
100
AcDbEntity
  8
0
 62
   255
370
    15
100
AcDbLine
 10
11.3256642443
 20
13.9846311935
 30
0.0
 11
11.3256642443
 21
12.6782977977
 31
0.0
  0
LINE
  5
98
330
1F
100
AcDbEntity
  8
0
 62
   255
370
    15
100
AcDbLine
 10
11.3256642443
 20
12.6782977977
 30
0.0
 11
11.198664258
 21
12.6782977977
 31
0.0
  0
LINE
  5
99
330
1F
100
AcDbEntity
  8
0
 62
   255
370
    15
100
AcDbLine
 10
11.198664258
 20
12.6782977977
 30
0.0
 11
11.198664258
 21
11.2489644828
 31
0.0
  0
LINE
  5
9A
330
1F
100
AcDbEntity
  8
0
 62
   255
370
    15
100
AcDbLine
 10
11.198664258
 20
11.2489644828
 30
0.0
 11
11.3256642443
 21
11.2489644828
 31
0.0
  0
LINE
  5
9B
330
1F
100
AcDbEntity
  8
0
 62
   255
370
    15
100
AcDbLine
 10
11.3256642443
 20
11.2489644828
 30
0.0
 11
11.3256642443
 21
9.8156311008
 31
0.0
  0
LINE
  5
9C
330
1F
100
AcDbEntity
  8
0
 62
   255
370
    15
100
AcDbLine
 10
11.3256642443
 20
9.8156311008
 30
0.0
 11
12.6279976463
 21
9.8156311008
 31
0.0
  0
LINE
  5
9D
330
1F
100
AcDbEntity
  8
0
 62
   255
370
    15
100
AcDbLine
 10
12.6279976463
 20
9.8156311008
 30
0.0
 11
12.6279976463
 21
9.942631087
 31
0.0
  0
LINE
  5
9E
330
1F
100
AcDbEntity
  8
0
 62
   255
370
    15
100
AcDbLine
 10
12.6279976463
 20
9.942631087
 30
0.0
 11
14.0653309487
 21
9.942631087
 31
0.0
  0
LINE
  5
9F
330
1F
100
AcDbEntity
  8
0
 62
   255
370
    15
100
AcDbLine
 10
14.0653309487
 20
9.942631087
 30
0.0
 11
14.0653309487
 21
9.8156311008
 31
0.0
  0
LINE
  5
A0
330
1F
100
AcDbEntity
  8
0
 62
   255
370
    15
100
AcDbLine
 10
14.0653309487
 20
9.8156311008
 30
0.0
 11
15.3676643507
 21
9.8156311008
 31
0.0
  0
LINE
  5
A1
330
1F
100
AcDbEntity
  8
0
 62
   255
370
    15
100
AcDbLine
 10
15.3676643507
 20
9.8156311008
 30
0.0
 11
15.3676643507
 21
11.0229003743
 31
0.0
  0
SPLINE
  5
A2
330
1F
100
AcDbEntity
  8
0
 62
   255
370
    15
100
AcDbSpline
210
0.0
220
0.0
230
1.0
 70
     8
 71
     3
 72
    11
 73
     7
 74
     0
 42
0.0000000001
 43
0.0000000001
 40
0.0
 40
0.0
 40
0.0
 40
0.0
 40
0.2486745913231791
 40
0.4973496630650151
 40
0.7486759173312254
 40
1.0
 40
1.0
 40
1.0
 40
1.0
 10
14.69166422661234
 20
11.97738086685365
 30
0.0
 10
14.74061020079665
 20
11.89347798099644
 30
0.0
 10
14.83850224372482
 20
11.72567204718861
 30
0.0
 10
15.00215465106629
 20
11.48319561281418
 30
0.0
 10
15.17691804460381
 20
11.24730098400099
 30
0.0
 10
15.30408243182017
 20
11.09770036212326
 30
0.0
 10
15.36766435073456
 20
11.02290037434375
 30
0.0
  0
LINE
  5
A3
330
1F
100
AcDbEntity
  8
0
 62
   255
370
    15
100
AcDbLine
 10
14.6916642266
 20
10.7186312026
 30
0.0
 11
14.6916642266
 21
11.9773808669
 31
0.0
  0
ARC
  5
A4
330
1F
100
AcDbEntity
  8
0
 62
   255
370
    15
100
AcDbCircle
 10
14.5916642975
 20
10.7186311403
 30
0.0
 40
0.1000000000000014
100
AcDbArc
 50
270.0
 51
0.0
  0
LINE
  5
A5
330
1F
100
AcDbEntity
  8
0
 62
   255
370
    15
100
AcDbLine
 10
12.1016643598
 20
10.6186312112
 30
0.0
 11
14.5916642352
 21
10.6186312112
 31
0.0
  0
ARC
  5
A6
330
1F
100
AcDbEntity
  8
0
 62
   255
370
    15
100
AcDbCircle
 10
12.1016642975
 20
10.7186311403
 30
0.0
 40
0.1000000000000014
100
AcDbArc
 50
180.0
 51
270.0
  0
LINE
  5
A7
330
1F
100
AcDbEntity
  8
0
 62
   255
370
    15
100
AcDbLine
 10
12.0016643684
 20
13.2086310779
 30
0.0
 11
12.0016643684
 21
10.7186312026
 31
0.0
  0
ARC
  5
A8
330
1F
100
AcDbEntity
  8
0
 62
   255
370
    15
100
AcDbCircle
 10
12.1016642975
 20
13.2086311403
 30
0.0
 40
0.0999999999999996
100
AcDbArc
 50
90.0
 51
180.0
  0
LINE
  5
A9
330
1F
100
AcDbEntity
  8
0
 62
   255
370
    15
100
AcDbLine
 10
14.1546275505
 20
13.3086310694
 30
0.0
 11
12.1016643598
 21
13.3086310694
 31
0.0
  0
MTEXT
  5
AA
330
1F
100
AcDbEntity
  8
0
 62
   255
370
     0
100
AcDbMText
 10
3.3983408701
 20
8.43379719522
 30
0.0
 40
0.1377952756
 41
0.855824874359036
 71
     7
 72
     1
  1
\fArial;cube_19
 73
     2
 44
0.9638554216867471
  0
LINE
  5
AB
330
1F
100
AcDbEntity
  8
0
 62
   255
370
    15
100
AcDbLine
 10
2.8705729084
 20
13.7940785423
 30
0.0
 11
2.8705729084
 21
12.4917451403
 31
0.0
  0
LINE
  5
AC
330
1F
100
AcDbEntity
  8
0
 62
   255
370
    15
100
AcDbLine
 10
4.3039062904
 20
13.7940785423
 30
0.0
 11
2.8705729084
 21
13.7940785423
 31
0.0
  0
LINE
  5
AD
330
1F
100
AcDbEntity
  8
0
 62
   255
370
    15
100
AcDbLine
 10
2.8705729084
 20
12.4917451403
 30
0.0
 11
2.9975728946
 21
12.4917451403
 31
0.0
  0
LINE
  5
AE
330
1F
100
AcDbEntity
  8
0
 62
   255
370
    15
100
AcDbLine
 10
2.9975728946
 20
12.4917451403
 30
0.0
 11
2.9975728946
 21
11.0544118378
 31
0.0
  0
LINE
  5
AF
330
1F
100
AcDbEntity
  8
0
 62
   255
370
    15
100
AcDbLine
 10
2.9975728946
 20
11.0544118378
 30
0.0
 11
2.8705729084
 21
11.0544118378
 31
0.0
  0
LINE
  5
B0
330
1F
100
AcDbEntity
  8
0
 62
   255
370
    15
100
AcDbLine
 10
2.8705729084
 20
11.0544118378
 30
0.0
 11
2.8705729084
 21
9.7520784358
 31
0.0
  0
LINE
  5
B1
330
1F
100
AcDbEntity
  8
0
 62
   255
370
    15
100
AcDbLine
 10
2.8705729084
 20
9.7520784358
 30
0.0
 11
4.3039062904
 21
9.7520784358
 31
0.0
  0
LINE
  5
B2
330
1F
100
AcDbEntity
  8
0
 62
   255
370
    15
100
AcDbLine
 10
4.3039062904
 20
9.7520784358
 30
0.0
 11
4.3039062904
 21
9.6250784496
 31
0.0
  0
LINE
  5
B3
330
1F
100
AcDbEntity
  8
0
 62
   255
370
    15
100
AcDbLine
 10
4.3039062904
 20
9.6250784496
 30
0.0
 11
5.7332396053
 21
9.6250784496
 31
0.0
  0
LINE
  5
B4
330
1F
100
AcDbEntity
  8
0
 62
   255
370
    15
100
AcDbLine
 10
5.7332396053
 20
9.6250784496
 30
0.0
 11
5.7332396053
 21
9.7520784358
 31
0.0
  0
LINE
  5
B5
330
1F
100
AcDbEntity
  8
0
 62
   255
370
    15
100
AcDbLine
 10
5.7332396053
 20
9.7520784358
 30
0.0
 11
7.039573001
 21
9.7520784358
 31
0.0
  0
LINE
  5
B6
330
1F
100
AcDbEntity
  8
0
 62
   255
370
    15
100
AcDbLine
 10
7.039573001
 20
9.7520784358
 30
0.0
 11
7.039573001
 21
11.0584118316
 31
0.0
  0
LINE
  5
B7
330
1F
100
AcDbEntity
  8
0
 62
   255
370
    15
100
AcDbLine
 10
7.039573001
 20
11.0584118316
 30
0.0
 11
7.1665729873
 21
11.0584118316
 31
0.0
  0
LINE
  5
B8
330
1F
100
AcDbEntity
  8
0
 62
   255
370
    15
100
AcDbLine
 10
7.1665729873
 20
11.0584118316
 30
0.0
 11
7.1665729873
 21
12.4877451465
 31
0.0
  0
LINE
  5
B9
330
1F
100
AcDbEntity
  8
0
 62
   255
370
    15
100
AcDbLine
 10
7.1665729873
 20
12.4877451465
 30
0.0
 11
7.039573001
 21
12.4877451465
 31
0.0
  0
LINE
  5
BA
330
1F
100
AcDbEntity
  8
0
 62
   255
370
    15
100
AcDbLine
 10
7.039573001
 20
12.4877451465
 30
0.0
 11
7.039573001
 21
13.7940785423
 31
0.0
  0
LINE
  5
BB
330
1F
100
AcDbEntity
  8
0
 62
   255
370
    15
100
AcDbLine
 10
7.039573001
 20
13.7940785423
 30
0.0
 11
5.7332396053
 21
13.7940785423
 31
0.0
  0
LINE
  5
BC
330
1F
100
AcDbEntity
  8
0
 62
   255
370
    15
100
AcDbLine
 10
5.7332396053
 20
13.7940785423
 30
0.0
 11
5.7332396053
 21
13.9210785285
 31
0.0
  0
LINE
  5
BD
330
1F
100
AcDbEntity
  8
0
 62
   255
370
    15
100
AcDbLine
 10
5.7332396053
 20
13.9210785285
 30
0.0
 11
4.3039062904
 21
13.9210785285
 31
0.0
  0
LINE
  5
BE
330
1F
100
AcDbEntity
  8
0
 62
   255
370
    15
100
AcDbLine
 10
4.3039062904
 20
13.9210785285
 30
0.0
 11
4.3039062904
 21
13.7940785423
 31
0.0
  0
LINE
  5
BF
330
1F
100
AcDbEntity
  8
0
 62
   255
370
    15
100
AcDbLine
 10
3.7735730102
 20
10.4280785599
 30
0.0
 11
6.2635728855
 21
10.4280785599
 31
0.0
  0
ARC
  5
C0
330
1F
100
AcDbEntity
  8
0
 62
   255
370
    15
100
AcDbCircle
 10
3.7735729478
 20
10.528078489
 30
0.0
 40
0.0999999999999996
100
AcDbArc
 50
180.0
 51
270.0
  0
LINE
  5
C1
330
1F
100
AcDbEntity
  8
0
 62
   255
370
    15
100
AcDbLine
 10
3.6735730187
 20
13.0180784267
 30
0.0
 11
3.6735730187
 21
10.5280785514
 31
0.0
  0
ARC
  5
C2
330
1F
100
AcDbEntity
  8
0
 62
   255
370
    15
100
AcDbCircle
 10
3.7735729478
 20
13.018078489
 30
0.0
 40
0.0999999999999996
100
AcDbArc
 50
90.0
 51
180.0
  0
LINE
  5
C3
330
1F
100
AcDbEntity
  8
0
 62
   255
370
    15
100
AcDbLine
 10
6.2635728855
 20
13.1180784181
 30
0.0
 11
3.7735730102
 21
13.1180784181
 31
0.0
  0
ARC
  5
C4
330
1F
100
AcDbEntity
  8
0
 62
   255
370
    15
100
AcDbCircle
 10
6.2635729478
 20
13.018078489
 30
0.0
 40
0.1000000000000005
100
AcDbArc
 50
0.0
 51
90.0
  0
LINE
  5
C5
330
1F
100
AcDbEntity
  8
0
 62
   255
370
    15
100
AcDbLine
 10
6.3635728769
 20
10.5280785514
 30
0.0
 11
6.3635728769
 21
13.0180784267
 31
0.0
  0
ARC
  5
C6
330
1F
100
AcDbEntity
  8
0
 62
   255
370
    15
100
AcDbCircle
 10
6.2635729478
 20
10.528078489
 30
0.0
 40
0.1000000000000005
100
AcDbArc
 50
270.0
 51
0.0
  0
MTEXT
  5
C7
330
1F
100
AcDbEntity
  8
0
 62
   255
370
     0
100
AcDbMText
 10
11.9255534149
 20
16.29402732522
 30
0.0
 40
0.1377952756
 41
0.855824874359036
 71
     7
 72
     1
  1
\fArial;cube_19
 73
     2
 44
0.9638554216867471
  0
LINE
  5
C8
330
1F
100
AcDbEntity
  8
0
 62
   255
370
    15
100
AcDbLine
 10
12.6263679755
 20
21.6728087316
 30
0.0
 11
12.6263679755
 21
21.7998087178
 31
0.0
  0
LINE
  5
C9
330
1F
100
AcDbEntity
  8
0
 62
   255
370
    15
100
AcDbLine
 10
14.5900345644
 20
20.9968086075
 30
0.0
 11
12.1000346891
 21
20.9968086075
 31
0.0
  0
ARC
  5
CA
330
1F
100
AcDbEntity
  8
0
 62
   255
370
    15
100
AcDbCircle
 10
14.5900346268
 20
20.8968086784
 30
0.0
 40
0.1000000000000014
100
AcDbArc
 50
0.0
 51
90.0
  0
LINE
  5
CB
330
1F
100
AcDbEntity
  8
0
 62
   255
370
    15
100
AcDbLine
 10
14.6900345559
 20
18.4068087407
 30
0.0
 11
14.6900345559
 21
20.896808616
 31
0.0
  0
ARC
  5
CC
330
1F
100
AcDbEntity
  8
0
 62
   255
370
    15
100
AcDbCircle
 10
14.5900346268
 20
18.4068086784
 30
0.0
 40
0.1000000000000014
100
AcDbArc
 50
270.0
 51
0.0
  0
LINE
  5
CD
330
1F
100
AcDbEntity
  8
0
 62
   255
370
    15
100
AcDbLine
 10
12.1000346891
 20
18.3068087493
 30
0.0
 11
14.5900345644
 21
18.3068087493
 31
0.0
  0
ARC
  5
CE
330
1F
100
AcDbEntity
  8
0
 62
   255
370
    15
100
AcDbCircle
 10
12.1000346268
 20
18.4068086784
 30
0.0
 40
0.1000000000000014
100
AcDbArc
 50
180.0
 51
270.0
  0
LINE
  5
CF
330
1F
100
AcDbEntity
  8
0
 62
   255
370
    15
100
AcDbLine
 10
12.0000346976
 20
20.896808616
 30
0.0
 11
12.0000346976
 21
18.4068087407
 31
0.0
  0
ARC
  5
D0
330
1F
100
AcDbEntity
  8
0
 62
   255
370
    15
100
AcDbCircle
 10
12.1000346268
 20
20.8968086784
 30
0.0
 40
0.1000000000000014
100
AcDbArc
 50
90.0
 51
180.0
  0
LINE
  5
D1
330
1F
100
AcDbEntity
  8
0
 62
   255
370
    15
100
AcDbLine
 10
11.3240345735
 20
20.3704753296
 30
0.0
 11
11.3240345735
 21
18.9331420272
 31
0.0
  0
LINE
  5
D2
330
1F
100
AcDbEntity
  8
0
 62
   255
370
    15
100
AcDbLine
 10
11.3240345735
 20
18.9331420272
 30
0.0
 11
11.1970345873
 21
18.9331420272
 31
0.0
  0
LINE
  5
D3
330
1F
100
AcDbEntity
  8
0
 62
   255
370
    15
100
AcDbLine
 10
11.1970345873
 20
18.9331420272
 30
0.0
 11
11.1970345873
 21
17.5038086389
 31
0.0
  0
LINE
  5
D4
330
1F
100
AcDbEntity
  8
0
 62
   255
370
    15
100
AcDbLine
 10
11.1970345873
 20
17.5038086389
 30
0.0
 11
12.6263679755
 21
17.5038086389
 31
0.0
  0
LINE
  5
D5
330
1F
100
AcDbEntity
  8
0
 62
   255
370
    15
100
AcDbLine
 10
12.6263679755
 20
17.5038086389
 30
0.0
 11
12.6263679755
 21
17.6308086252
 31
0.0
  0
LINE
  5
D6
330
1F
100
AcDbEntity
  8
0
 62
   255
370
    15
100
AcDbLine
 10
12.6263679755
 20
17.6308086252
 30
0.0
 11
14.063701278
 21
17.6308086252
 31
0.0
  0
LINE
  5
D7
330
1F
100
AcDbEntity
  8
0
 62
   255
370
    15
100
AcDbLine
 10
14.063701278
 20
17.6308086252
 30
0.0
 11
14.063701278
 21
17.5038086389
 31
0.0
  0
LINE
  5
D8
330
1F
100
AcDbEntity
  8
0
 62
   255
370
    15
100
AcDbLine
 10
14.063701278
 20
17.5038086389
 30
0.0
 11
15.4930346662
 21
17.5038086389
 31
0.0
  0
LINE
  5
D9
330
1F
100
AcDbEntity
  8
0
 62
   255
370
    15
100
AcDbLine
 10
15.4930346662
 20
17.5038086389
 30
0.0
 11
15.4930346662
 21
18.9331420272
 31
0.0
  0
LINE
  5
DA
330
1F
100
AcDbEntity
  8
0
 62
   255
370
    15
100
AcDbLine
 10
15.4930346662
 20
18.9331420272
 30
0.0
 11
15.36603468
 21
18.9331420272
 31
0.0
  0
LINE
  5
DB
330
1F
100
AcDbEntity
  8
0
 62
   255
370
    15
100
AcDbLine
 10
15.36603468
 20
18.9331420272
 30
0.0
 11
15.36603468
 21
20.3704753296
 31
0.0
  0
LINE
  5
DC
330
1F
100
AcDbEntity
  8
0
 62
   255
370
    15
100
AcDbLine
 10
15.36603468
 20
20.3704753296
 30
0.0
 11
15.4930346662
 21
20.3704753296
 31
0.0
  0
LINE
  5
DD
330
1F
100
AcDbEntity
  8
0
 62
   255
370
    15
100
AcDbLine
 10
15.4930346662
 20
20.3704753296
 30
0.0
 11
15.4930346662
 21
21.7998087178
 31
0.0
  0
LINE
  5
DE
330
1F
100
AcDbEntity
  8
0
 62
   255
370
    15
100
AcDbLine
 10
15.4930346662
 20
21.7998087178
 30
0.0
 11
14.063701278
 21
21.7998087178
 31
0.0
  0
LINE
  5
DF
330
1F
100
AcDbEntity
  8
0
 62
   255
370
    15
100
AcDbLine
 10
14.063701278
 20
21.7998087178
 30
0.0
 11
14.063701278
 21
21.6728087316
 31
0.0
  0
LINE
  5
E0
330
1F
100
AcDbEntity
  8
0
 62
   255
370
    15
100
AcDbLine
 10
14.063701278
 20
21.6728087316
 30
0.0
 11
12.6263679755
 21
21.6728087316
 31
0.0
  0
LINE
  5
E1
330
1F
100
AcDbEntity
  8
0
 62
   255
370
    15
100
AcDbLine
 10
12.6263679755
 20
21.7998087178
 30
0.0
 11
11.1970345873
 21
21.7998087178
 31
0.0
  0
LINE
  5
E2
330
1F
100
AcDbEntity
  8
0
 62
   255
370
    15
100
AcDbLine
 10
11.1970345873
 20
21.7998087178
 30
0.0
 11
11.1970345873
 21
20.3704753296
 31
0.0
  0
LINE
  5
E3
330
1F
100
AcDbEntity
  8
0
 62
   255
370
    15
100
AcDbLine
 10
11.1970345873
 20
20.3704753296
 30
0.0
 11
11.3240345735
 21
20.3704753296
 31
0.0
  0
MTEXT
  5
E4
330
1F
100
AcDbEntity
  8
0
 62
   255
370
     0
100
AcDbMText
 10
3.329522735
 20
17.10483066882
 30
0.0
 40
0.1377952756
 41
1.730741865216867
 71
     7
 72
     1
  1
\fArial;acrylic_R^ cube_19
 73
     2
 44
0.9638554216867471
  0
SPLINE
  5
E5
330
1F
100
AcDbEntity
  8
0
 62
   255
370
    15
100
AcDbSpline
210
0.0
220
0.0
230
1.0
 70
     8
 71
     3
 72
    12
 73
     8
 74
     0
 42
0.0000000001
 43
0.0000000001
 40
0.0
 40
0.0
 40
0.0
 40
0.0
 40
0.2499999999999999
 40
0.2499999999999999
 40
0.4999999999999999
 40
0.4999999999999999
 40
1.0
 40
1.0
 40
1.0
 40
1.0
 10
4.558805391608351
 20
21.90047916072723
 30
0.0
 10
4.654072922670056
 20
21.82670550923721
 30
0.0
 10
4.750893814382895
 20
21.75446826866923
 30
0.0
 10
4.94628555614706
 20
21.61378233431646
 30
0.0
 10
5.04495890980724
 20
21.54524921794271
 30
0.0
 10
5.34375203405366
 20
21.3447843130183
 30
0.0
 10
5.546633984151274
 20
21.2179668169316
 30
0.0
 10
5.752934619073119
 20
21.09747916072723
 30
0.0
  0
LINE
  5
E6
330
1F
100
AcDbEntity
  8
0
 62
   255
370
    15
100
AcDbLine
 10
4.5588053756
 20
21.9004792002
 30
0.0
 11
4.2183862948
 21
21.9004792002
 31
0.0
  0
LINE
  5
E7
330
1F
100
AcDbEntity
  8
0
 62
   255
370
    15
100
AcDbLine
 10
4.2183862948
 20
21.9004792002
 30
0.0
 11
4.2183862948
 21
21.773479214
 31
0.0
  0
LINE
  5
E8
330
1F
100
AcDbEntity
  8
0
 62
   255
370
    15
100
AcDbLine
 10
4.2183862948
 20
21.773479214
 30
0.0
 11
2.912052899
 21
21.773479214
 31
0.0
  0
LINE
  5
E9
330
1F
100
AcDbEntity
  8
0
 62
   255
370
    15
100
AcDbLine
 10
2.912052899
 20
21.773479214
 30
0.0
 11
2.912052899
 21
20.4671458182
 31
0.0
  0
LINE
  5
EA
330
1F
100
AcDbEntity
  8
0
 62
   255
370
    15
100
AcDbLine
 10
2.912052899
 20
20.4671458182
 30
0.0
 11
2.7850529128
 21
20.4671458182
 31
0.0
  0
LINE
  5
EB
330
1F
100
AcDbEntity
  8
0
 62
   255
370
    15
100
AcDbLine
 10
2.7850529128
 20
20.4671458182
 30
0.0
 11
2.7850529128
 21
19.0378125033
 31
0.0
  0
LINE
  5
EC
330
1F
100
AcDbEntity
  8
0
 62
   255
370
    15
100
AcDbLine
 10
2.7850529128
 20
19.0378125033
 30
0.0
 11
2.912052899
 21
19.0378125033
 31
0.0
  0
LINE
  5
ED
330
1F
100
AcDbEntity
  8
0
 62
   255
370
    15
100
AcDbLine
 10
2.912052899
 20
19.0378125033
 30
0.0
 11
2.912052899
 21
17.7314791075
 31
0.0
  0
LINE
  5
EE
330
1F
100
AcDbEntity
  8
0
 62
   255
370
    15
100
AcDbLine
 10
2.912052899
 20
17.7314791075
 30
0.0
 11
4.2183862948
 21
17.7314791075
 31
0.0
  0
LINE
  5
EF
330
1F
100
AcDbEntity
  8
0
 62
   255
370
    15
100
AcDbLine
 10
4.2183862948
 20
17.7314791075
 30
0.0
 11
4.2183862948
 21
17.6044791213
 31
0.0
  0
LINE
  5
F0
330
1F
100
AcDbEntity
  8
0
 62
   255
370
    15
100
AcDbLine
 10
4.2183862948
 20
17.6044791213
 30
0.0
 11
5.6477196097
 21
17.6044791213
 31
0.0
  0
LINE
  5
F1
330
1F
100
AcDbEntity
  8
0
 62
   255
370
    15
100
AcDbLine
 10
5.6477196097
 20
17.6044791213
 30
0.0
 11
5.6477196097
 21
17.7314791075
 31
0.0
  0
LINE
  5
F2
330
1F
100
AcDbEntity
  8
0
 62
   255
370
    15
100
AcDbLine
 10
5.6477196097
 20
17.7314791075
 30
0.0
 11
7.0810529917
 21
17.7314791075
 31
0.0
  0
LINE
  5
F3
330
1F
100
AcDbEntity
  8
0
 62
   255
370
    15
100
AcDbLine
 10
7.0810529917
 20
17.7314791075
 30
0.0
 11
7.0810529917
 21
19.0338125095
 31
0.0
  0
LINE
  5
F4
330
1F
100
AcDbEntity
  8
0
 62
   255
370
    15
100
AcDbLine
 10
7.0810529917
 20
19.0338125095
 30
0.0
 11
6.9540530055
 21
19.0338125095
 31
0.0
  0
LINE
  5
F5
330
1F
100
AcDbEntity
  8
0
 62
   255
370
    15
100
AcDbLine
 10
6.9540530055
 20
19.0338125095
 30
0.0
 11
6.9540530055
 21
20.471145812
 31
0.0
  0
LINE
  5
F6
330
1F
100
AcDbEntity
  8
0
 62
   255
370
    15
100
AcDbLine
 10
6.9540530055
 20
20.471145812
 30
0.0
 11
6.9811417325
 21
20.471145812
 31
0.0
  0
SPLINE
  5
F7
330
1F
100
AcDbEntity
  8
0
 62
   255
370
    15
100
AcDbSpline
210
0.0
220
0.0
230
1.0
 70
     8
 71
     3
 72
     8
 73
     4
 74
     0
 42
0.0000000001
 43
0.0000000001
 40
0.0
 40
0.0
 40
0.0
 40
0.0
 40
1.0
 40
1.0
 40
1.0
 40
1.0
 10
6.27805295222621
 20
20.8081507968187
 30
0.0
 10
6.508482466852501
 20
20.68853290997734
 30
0.0
 10
6.742837565767753
 20
20.57618340886653
 30
0.0
 10
6.981141761211163
 20
20.4711458273939
 30
0.0
  0
LINE
  5
F8
330
1F
100
AcDbEntity
  8
0
 62
   255
370
    15
100
AcDbLine
 10
6.2780528813
 20
18.5074792231
 30
0.0
 11
6.2780528813
 21
20.8081508255
 31
0.0
  0
ARC
  5
F9
330
1F
100
AcDbEntity
  8
0
 62
   255
370
    15
100
AcDbCircle
 10
6.1780529522
 20
18.5074791607
 30
0.0
 40
0.1000000000000005
100
AcDbArc
 50
270.0
 51
0.0
  0
LINE
  5
FA
330
1F
100
AcDbEntity
  8
0
 62
   255
370
    15
100
AcDbLine
 10
3.6880530146
 20
18.4074792316
 30
0.0
 11
6.1780528899
 21
18.4074792316
 31
0.0
  0
ARC
  5
FB
330
1F
100
AcDbEntity
  8
0
 62
   255
370
    15
100
AcDbCircle
 10
3.6880529522
 20
18.5074791607
 30
0.0
 40
0.1000000000000001
100
AcDbArc
 50
180.0
 51
270.0
  0
LINE
  5
FC
330
1F
100
AcDbEntity
  8
0
 62
   255
370
    15
100
AcDbLine
 10
3.5880530231
 20
20.9974790984
 30
0.0
 11
3.5880530231
 21
18.5074792231
 31
0.0
  0
ARC
  5
FD
330
1F
100
AcDbEntity
  8
0
 62
   255
370
    15
100
AcDbCircle
 10
3.6880529522
 20
20.9974791607
 30
0.0
 40
0.1000000000000014
100
AcDbArc
 50
90.0
 51
180.0
  0
LINE
  5
FE
330
1F
100
AcDbEntity
  8
0
 62
   255
370
    15
100
AcDbLine
 10
5.7529346409
 20
21.0974790898
 30
0.0
 11
3.6880530146
 21
21.0974790898
 31
0.0
  0
VIEWPORT
  5
108
330
104
100
AcDbEntity
 67
     1
  8
0
100
AcDbViewport
 10
6.0
 20
4.5
 30
0.0
 40
12.696
 41
9.522
 68
     1
 69
     1
 12
6.0
 22
4.5
 13
0.0
 23
0.0
 14
0.5
 24
0.5
 15
0.5
 25
0.5
 16
0.0
 26
0.0
 36
1.0
 17
0.0
 27
0.0
 37
0.0
 42
50.0
 43
0.0
 44
0.0
 45
9.522
 50
0.0
 51
0.0
 72
   100
 90
   557152
  1

281
     0
 71
     1
 74
     0
110
0.0
120
0.0
130
0.0
111
1.0
121
0.0
131
0.0
112
0.0
122
1.0
132
0.0
 79
     0
146
0.0
170
     0
  0
ENDSEC
  0
SECTION
  2
OBJECTS
  0
DICTIONARY
  5
C
330
0
100
AcDbDictionary
281
     1
  3
ACAD_GROUP
350
D
  3
ACAD_LAYOUT
350
1A
  3
ACAD_MLEADERSTYLE
350
10C
  3
ACAD_MLINESTYLE
350
17
  3
ACAD_PLOTSETTINGS
350
19
  3
ACAD_PLOTSTYLENAME
350
E
  3
ACAD_SCALELIST
350
3C
  3
ACAD_TABLESTYLE
350
10B
  3
ACAD_VISUALSTYLE
350
2A
  3
AcDbVariableDictionary
350
109
  0
DICTIONARY
  5
D
102
{ACAD_REACTORS
330
C
102
}
330
C
100
AcDbDictionary
281
     1
  0
DICTIONARY
  5
1A
102
{ACAD_REACTORS
330
C
102
}
330
C
100
AcDbDictionary
281
     1
  3
LAYOUT1
350
100
  3
LAYOUT2
350
105
  3
Model
350
22
  0
DICTIONARY
  5
10C
102
{ACAD_REACTORS
330
C
102
}
330
C
100
AcDbDictionary
281
     1
  0
DICTIONARY
  5
17
102
{ACAD_REACTORS
330
C
102
}
330
C
100
AcDbDictionary
281
     1
  3
Standard
350
18
  0
DICTIONARY
  5
19
102
{ACAD_REACTORS
330
C
102
}
330
C
100
AcDbDictionary
281
     1
  0
ACDBDICTIONARYWDFLT
  5
E
102
{ACAD_REACTORS
330
C
102
}
330
C
100
AcDbDictionary
281
     1
  3
Normal
350
F
100
AcDbDictionaryWithDefault
340
F
  0
DICTIONARY
  5
3C
102
{ACAD_REACTORS
330
C
102
}
330
C
100
AcDbDictionary
281
     1
  3
A0
350
3D
  3
A1
350
3E
  3
A2
350
3F
  3
A3
350
40
  3
A4
350
41
  3
A5
350
42
  3
A6
350
43
  3
A7
350
44
  3
A8
350
45
  3
A9
350
46
  3
B0
350
47
  3
B1
350
48
  3
B2
350
49
  3
B3
350
4A
  3
B4
350
4B
  3
B5
350
4C
  3
B6
350
4D
  3
B7
350
4E
  3
B8
350
4F
  3
B9
350
50
  3
C0
350
51
  3
C1
350
52
  3
C2
350
53
  3
C3
350
54
  3
C4
350
55
  3
C5
350
56
  3
C6
350
57
  3
C7
350
58
  3
C8
350
59
  3
C9
350
5A
  3
D0
350
5B
  3
D1
350
5C
  3
D2
350
5D
  0
DICTIONARY
  5
10B
102
{ACAD_REACTORS
330
C
102
}
330
C
100
AcDbDictionary
281
     1
  0
DICTIONARY
  5
2A
102
{ACAD_REACTORS
330
C
102
}
330
C
100
AcDbDictionary
281
     1
  3
2dWireframe
350
2F
  3
3D Hidden
350
31
  3
3dWireframe
350
30
  3
Basic
350
32
  3
Brighten
350
36
  3
ColorChange
350
3A
  3
Conceptual
350
34
  3
Dim
350
35
  3
Facepattern
350
39
  3
Flat
350
2B
  3
FlatWithEdges
350
2C
  3
Gouraud
350
2D
  3
GouraudWithEdges
350
2E
  3
Linepattern
350
38
  3
Realistic
350
33
  3
Thicken
350
37
  0
DICTIONARY
  5
109
102
{ACAD_REACTORS
330
C
102
}
330
C
100
AcDbDictionary
281
     1
  3
CANNOSCALE
350
10A
  0
LAYOUT
  5
100
102
{ACAD_REACTORS
330
1A
102
}
330
1A
100
AcDbPlotSettings
  1

  2
none_device
  4
Letter_(8.50_x_11.00_Inches)
  6

 40
6.35
 41
6.35
 42
6.35000508
 43
6.35000508
 44
215.9
 45
279.4
 46
0.0
 47
0.0
 48
0.0
 49
0.0
140
0.0
141
0.0
142
1.0
143
1.0
 70
   688
 72
     0
 73
     1
 74
     5
  7

 75
    16
 76
     0
 77
     2
 78
   300
147
1.0
148
0.0
149
0.0
100
AcDbLayout
  1
LAYOUT1
 70
     1
 71
     1
 10
0.0
 20
0.0
 11
0.0
 21
0.0
 12
0.0
 22
0.0
 32
0.0
 14
0.0
 24
0.0
 34
0.0
 15
0.0
 25
0.0
 35
0.0
146
0.0
 13
0.0
 23
0.0
 33
0.0
 16
1.0
 26
0.0
 36
0.0
 17
0.0
 27
1.0
 37
0.0
 76
     0
330
FF
331
103
  0
LAYOUT
  5
105
102
{ACAD_REACTORS
330
1A
102
}
330
1A
100
AcDbPlotSettings
  1

  2
none_device
  4
Letter_(8.50_x_11.00_Inches)
  6

 40
6.35
 41
6.35
 42
6.35000508
 43
6.35000508
 44
215.9
 45
279.4
 46
0.0
 47
0.0
 48
0.0
 49
0.0
140
0.0
141
0.0
142
1.0
143
1.0
 70
   688
 72
     0
 73
     1
 74
     5
  7

 75
    16
 76
     0
 77
     2
 78
   300
147
1.0
148
0.0
149
0.0
100
AcDbLayout
  1
LAYOUT2
 70
     1
 71
     2
 10
0.0
 20
0.0
 11
0.0
 21
0.0
 12
0.0
 22
0.0
 32
0.0
 14
0.0
 24
0.0
 34
0.0
 15
0.0
 25
0.0
 35
0.0
146
0.0
 13
0.0
 23
0.0
 33
0.0
 16
1.0
 26
0.0
 36
0.0
 17
0.0
 27
1.0
 37
0.0
 76
     0
330
104
331
108
  0
LAYOUT
  5
22
102
{ACAD_REACTORS
330
1A
102
}
330
1A
100
AcDbPlotSettings
  1

  2
none_device
  4

  6

 40
0.0
 41
0.0
 42
0.0
 43
0.0
 44
0.0
 45
0.0
 46
0.0
 47
0.0
 48
0.0
 49
0.0
140
0.0
141
0.0
142
1.0
143
1.0
 70
  1712
 72
     0
 73
     0
 74
     0
  7

 75
     0
 76
     0
 77
     2
 78
   300
147
1.0
148
0.0
149
0.0
100
AcDbLayout
  1
Model
 70
     1
 71
     0
 10
0.0
 20
0.0
 11
12.0
 21
9.0
 12
0.0
 22
0.0
 32
0.0
 14
2.7435962915
 24
1.09346565012
 34
0.0
 15
15.4930346662
 25
21.9004792002
 35
0.0
146
0.0
 13
0.0
 23
0.0
 33
0.0
 16
1.0
 26
0.0
 36
0.0
 17
0.0
 27
1.0
 37
0.0
 76
     0
330
1F
331
29
  0
MLINESTYLE
  5
18
102
{ACAD_REACTORS
330
17
102
}
330
17
100
AcDbMlineStyle
  2
Standard
 70
     0
  3

 62
   256
 51
90.0
 52
90.0
 71
     2
 49
0.5
 62
   256
  6
BYLAYER
 49
-0.5
 62
   256
  6
BYLAYER
  0
ACDBPLACEHOLDER
  5
F
102
{ACAD_REACTORS
330
E
102
}
330
E
  0
SCALE
  5
3D
102
{ACAD_REACTORS
330
3C
102
}
330
3C
100
AcDbScale
 70
     0
300
1:1
140
1.0
141
1.0
290
     1
  0
SCALE
  5
3E
102
{ACAD_REACTORS
330
3C
102
}
330
3C
100
AcDbScale
 70
     0
300
1:2
140
1.0
141
2.0
290
     0
  0
SCALE
  5
3F
102
{ACAD_REACTORS
330
3C
102
}
330
3C
100
AcDbScale
 70
     0
300
1:4
140
1.0
141
4.0
290
     0
  0
SCALE
  5
40
102
{ACAD_REACTORS
330
3C
102
}
330
3C
100
AcDbScale
 70
     0
300
1:5
140
1.0
141
5.0
290
     0
  0
SCALE
  5
41
102
{ACAD_REACTORS
330
3C
102
}
330
3C
100
AcDbScale
 70
     0
300
1:8
140
1.0
141
8.0
290
     0
  0
SCALE
  5
42
102
{ACAD_REACTORS
330
3C
102
}
330
3C
100
AcDbScale
 70
     0
300
1:10
140
1.0
141
10.0
290
     0
  0
SCALE
  5
43
102
{ACAD_REACTORS
330
3C
102
}
330
3C
100
AcDbScale
 70
     0
300
1:16
140
1.0
141
16.0
290
     0
  0
SCALE
  5
44
102
{ACAD_REACTORS
330
3C
102
}
330
3C
100
AcDbScale
 70
     0
300
1:20
140
1.0
141
20.0
290
     0
  0
SCALE
  5
45
102
{ACAD_REACTORS
330
3C
102
}
330
3C
100
AcDbScale
 70
     0
300
1:30
140
1.0
141
30.0
290
     0
  0
SCALE
  5
46
102
{ACAD_REACTORS
330
3C
102
}
330
3C
100
AcDbScale
 70
     0
300
1:40
140
1.0
141
40.0
290
     0
  0
SCALE
  5
47
102
{ACAD_REACTORS
330
3C
102
}
330
3C
100
AcDbScale
 70
     0
300
1:50
140
1.0
141
50.0
290
     0
  0
SCALE
  5
48
102
{ACAD_REACTORS
330
3C
102
}
330
3C
100
AcDbScale
 70
     0
300
1:100
140
1.0
141
100.0
290
     0
  0
SCALE
  5
49
102
{ACAD_REACTORS
330
3C
102
}
330
3C
100
AcDbScale
 70
     0
300
2:1
140
2.0
141
1.0
290
     0
  0
SCALE
  5
4A
102
{ACAD_REACTORS
330
3C
102
}
330
3C
100
AcDbScale
 70
     0
300
4:1
140
4.0
141
1.0
290
     0
  0
SCALE
  5
4B
102
{ACAD_REACTORS
330
3C
102
}
330
3C
100
AcDbScale
 70
     0
300
8:1
140
8.0
141
1.0
290
     0
  0
SCALE
  5
4C
102
{ACAD_REACTORS
330
3C
102
}
330
3C
100
AcDbScale
 70
     0
300
10:1
140
10.0
141
1.0
290
     0
  0
SCALE
  5
4D
102
{ACAD_REACTORS
330
3C
102
}
330
3C
100
AcDbScale
 70
     0
300
100:1
140
100.0
141
1.0
290
     0
  0
SCALE
  5
4E
102
{ACAD_REACTORS
330
3C
102
}
330
3C
100
AcDbScale
 70
     0
300
1/128" = 1'-0"
140
0.0078125
141
12.0
290
     0
  0
SCALE
  5
4F
102
{ACAD_REACTORS
330
3C
102
}
330
3C
100
AcDbScale
 70
     0
300
1/64" = 1'-0"
140
0.015625
141
12.0
290
     0
  0
SCALE
  5
50
102
{ACAD_REACTORS
330
3C
102
}
330
3C
100
AcDbScale
 70
     0
300
1/32" = 1'-0"
140
0.03125
141
12.0
290
     0
  0
SCALE
  5
51
102
{ACAD_REACTORS
330
3C
102
}
330
3C
100
AcDbScale
 70
     0
300
1/16" = 1'-0"
140
0.0625
141
12.0
290
     0
  0
SCALE
  5
52
102
{ACAD_REACTORS
330
3C
102
}
330
3C
100
AcDbScale
 70
     0
300
3/32" = 1'-0"
140
0.09375
141
12.0
290
     0
  0
SCALE
  5
53
102
{ACAD_REACTORS
330
3C
102
}
330
3C
100
AcDbScale
 70
     0
300
1/8" = 1'-0"
140
0.125
141
12.0
290
     0
  0
SCALE
  5
54
102
{ACAD_REACTORS
330
3C
102
}
330
3C
100
AcDbScale
 70
     0
300
3/16" = 1'-0"
140
0.1875
141
12.0
290
     0
  0
SCALE
  5
55
102
{ACAD_REACTORS
330
3C
102
}
330
3C
100
AcDbScale
 70
     0
300
1/4" = 1'-0"
140
0.25
141
12.0
290
     0
  0
SCALE
  5
56
102
{ACAD_REACTORS
330
3C
102
}
330
3C
100
AcDbScale
 70
     0
300
3/8" = 1'-0"
140
0.375
141
12.0
290
     0
  0
SCALE
  5
57
102
{ACAD_REACTORS
330
3C
102
}
330
3C
100
AcDbScale
 70
     0
300
1/2" = 1'-0"
140
0.5
141
12.0
290
     0
  0
SCALE
  5
58
102
{ACAD_REACTORS
330
3C
102
}
330
3C
100
AcDbScale
 70
     0
300
3/4" = 1'-0"
140
0.75
141
12.0
290
     0
  0
SCALE
  5
59
102
{ACAD_REACTORS
330
3C
102
}
330
3C
100
AcDbScale
 70
     0
300
1" = 1'-0"
140
1.0
141
12.0
290
     0
  0
SCALE
  5
5A
102
{ACAD_REACTORS
330
3C
102
}
330
3C
100
AcDbScale
 70
     0
300
1-1/2" = 1'-0"
140
1.5
141
12.0
290
     0
  0
SCALE
  5
5B
102
{ACAD_REACTORS
330
3C
102
}
330
3C
100
AcDbScale
 70
     0
300
3" = 1'-0"
140
3.0
141
12.0
290
     0
  0
SCALE
  5
5C
102
{ACAD_REACTORS
330
3C
102
}
330
3C
100
AcDbScale
 70
     0
300
6" = 1'-0"
140
6.0
141
12.0
290
     0
  0
SCALE
  5
5D
102
{ACAD_REACTORS
330
3C
102
}
330
3C
100
AcDbScale
 70
     0
300
1'-0" = 1'-0"
140
12.0
141
12.0
290
     0
  0
VISUALSTYLE
  5
2F
102
{ACAD_REACTORS
330
2A
102
}
330
2A
100
AcDbVisualStyle
  2
2dWireframe
 70
     4
 71
     0
 72
     2
 73
     0
 90
        0
 40
-0.6
 41
-30.0
 62
     5
 63
     7
421
 16777215
 74
     1
 91
        4
 64
     7
 65
   257
 75
     1
175
     1
 42
1.0
 92
        0
 66
   257
 43
1.0
 76
     1
 77
     6
 78
     2
 67
     7
 79
     5
170
     0
171
     0
290
     0
174
     0
 93
        1
 44
0.0
173
     0
291
     0
 45
0.0
1001
ACAD
1000
AcDbSavedByObjectVersion
1070
     0
  0
VISUALSTYLE
  5
31
102
{ACAD_REACTORS
330
2A
102
}
330
2A
100
AcDbVisualStyle
  2
3D Hidden
 70
     6
 71
     1
 72
     2
 73
     2
 90
        0
 40
-0.6
 41
-30.0
 62
     5
 63
     7
421
 16777215
 74
     2
 91
        2
 64
     7
 65
   257
 75
     2
175
     1
 42
40.0
 92
        0
 66
   257
 43
1.0
 76
     1
 77
     6
 78
     2
 67
     7
 79
     3
170
     0
171
     0
290
     0
174
     0
 93
        1
 44
0.0
173
     0
291
     0
 45
0.0
1001
ACAD
1000
AcDbSavedByObjectVersion
1070
     0
  0
VISUALSTYLE
  5
30
102
{ACAD_REACTORS
330
2A
102
}
330
2A
100
AcDbVisualStyle
  2
3dWireframe
 70
     5
 71
     0
 72
     2
 73
     0
 90
        0
 40
-0.6
 41
-30.0
 62
     5
 63
     7
421
 16777215
 74
     1
 91
        4
 64
     7
 65
   257
 75
     1
175
     1
 42
1.0
 92
        0
 66
   257
 43
1.0
 76
     1
 77
     6
 78
     2
 67
     7
 79
     5
170
     0
171
     0
290
     0
174
     0
 93
        1
 44
0.0
173
     0
291
     0
 45
0.0
1001
ACAD
1000
AcDbSavedByObjectVersion
1070
     0
  0
VISUALSTYLE
  5
32
102
{ACAD_REACTORS
330
2A
102
}
330
2A
100
AcDbVisualStyle
  2
Basic
 70
     7
 71
     1
 72
     0
 73
     1
 90
        0
 40
-0.6
 41
-30.0
 62
     5
 63
     7
421
 16777215
 74
     0
 91
        4
 64
     7
 65
   257
 75
     1
175
     1
 42
1.0
 92
        8
 66
     7
 43
1.0
 76
     1
 77
     6
 78
     2
 67
     7
 79
     5
170
     0
171
     0
290
     0
174
     0
 93
        1
 44
0.0
173
     0
291
     1
 45
0.0
1001
ACAD
1000
AcDbSavedByObjectVersion
1070
     0
  0
VISUALSTYLE
  5
36
102
{ACAD_REACTORS
330
2A
102
}
330
2A
100
AcDbVisualStyle
  2
Brighten
 70
    12
 71
     2
 72
     2
 73
     0
 90
        0
 40
-0.6
 41
-30.0
 62
     5
 63
     7
421
 16777215
 74
     1
 91
        4
 64
     7
 65
   257
 75
     1
175
     1
 42
1.0
 92
        8
 66
     7
 43
1.0
 76
     1
 77
     6
 78
     2
 67
     7
 79
     5
170
     0
171
     0
290
     0
174
     0
 93
        1
 44
50.0
173
     0
291
     1
 45
0.0
1001
ACAD
1000
AcDbSavedByObjectVersion
1070
     0
  0
VISUALSTYLE
  5
3A
102
{ACAD_REACTORS
330
2A
102
}
330
2A
100
AcDbVisualStyle
  2
ColorChange
 70
    16
 71
     2
 72
     2
 73
     3
 90
        0
 40
-0.6
 41
-30.0
 62
     5
 63
     8
421
  8421504
 74
     1
 91
        4
 64
     7
 65
   257
 75
     1
175
     1
 42
1.0
 92
        8
 66
     8
424
  8421504
 43
1.0
 76
     1
 77
     6
 78
     2
 67
     7
 79
     5
170
     0
171
     0
290
     0
174
     0
 93
        1
 44
0.0
173
     0
291
     1
 45
0.0
1001
ACAD
1000
AcDbSavedByObjectVersion
1070
     0
  0
VISUALSTYLE
  5
34
102
{ACAD_REACTORS
330
2A
102
}
330
2A
100
AcDbVisualStyle
  2
Conceptual
 70
     9
 71
     3
 72
     2
 73
     0
 90
        0
 40
-0.6
 41
-30.0
 62
     5
 63
     7
421
 16777215
 74
     2
 91
        2
 64
     7
 65
   257
 75
     1
175
     1
 42
40.0
 92
        8
 66
     7
 43
1.0
 76
     1
 77
     6
 78
     2
 67
     7
 79
     3
170
     0
171
     0
290
     0
174
     0
 93
        1
 44
0.0
173
     0
291
     0
 45
0.0
1001
ACAD
1000
AcDbSavedByObjectVersion
1070
     0
  0
VISUALSTYLE
  5
35
102
{ACAD_REACTORS
330
2A
102
}
330
2A
100
AcDbVisualStyle
  2
Dim
 70
    11
 71
     2
 72
     2
 73
     0
 90
        0
 40
-0.6
 41
-30.0
 62
     5
 63
     7
421
 16777215
 74
     1
 91
        4
 64
     7
 65
   257
 75
     1
175
     1
 42
1.0
 92
        8
 66
     7
 43
1.0
 76
     1
 77
     6
 78
     2
 67
     7
 79
     5
170
     0
171
     0
290
     0
174
     0
 93
        1
 44
-50.0
173
     0
291
     1
 45
0.0
1001
ACAD
1000
AcDbSavedByObjectVersion
1070
     0
  0
VISUALSTYLE
  5
39
102
{ACAD_REACTORS
330
2A
102
}
330
2A
100
AcDbVisualStyle
  2
Facepattern
 70
    15
 71
     2
 72
     2
 73
     0
 90
        0
 40
-0.6
 41
-30.0
 62
     5
 63
     7
421
 16777215
 74
     1
 91
        4
 64
     7
 65
   257
 75
     1
175
     1
 42
1.0
 92
        8
 66
     7
 43
1.0
 76
     1
 77
     6
 78
     2
 67
     7
 79
     5
170
     0
171
     0
290
     0
174
     0
 93
        1
 44
0.0
173
     0
291
     1
 45
0.0
1001
ACAD
1000
AcDbSavedByObjectVersion
1070
     0
  0
VISUALSTYLE
  5
2B
102
{ACAD_REACTORS
330
2A
102
}
330
2A
100
AcDbVisualStyle
  2
Flat
 70
     0
 71
     2
 72
     1
 73
     1
 90
        2
 40
-0.6
 41
30.0
 62
     5
 63
     7
421
 16777215
 74
     0
 91
        4
 64
     7
 65
   257
 75
     1
175
     1
 42
1.0
 92
        8
 66
     7
 43
1.0
 76
     1
 77
     6
 78
     2
 67
     7
 79
     5
170
     0
171
     0
290
     0
174
     0
 93
       13
 44
0.0
173
     0
291
     1
 45
0.0
1001
ACAD
1000
AcDbSavedByObjectVersion
1070
     0
  0
VISUALSTYLE
  5
2C
102
{ACAD_REACTORS
330
2A
102
}
330
2A
100
AcDbVisualStyle
  2
FlatWithEdges
 70
     1
 71
     2
 72
     1
 73
     1
 90
        2
 40
-0.6
 41
30.0
 62
     5
 63
     7
421
 16777215
 74
     1
 91
        4
 64
     7
 65
   257
 75
     1
175
     1
 42
1.0
 92
        0
 66
   257
 43
1.0
 76
     1
 77
     6
 78
     2
 67
     7
 79
     5
170
     0
171
     0
290
     0
174
     0
 93
       13
 44
0.0
173
     0
291
     1
 45
0.0
1001
ACAD
1000
AcDbSavedByObjectVersion
1070
     0
  0
VISUALSTYLE
  5
2D
102
{ACAD_REACTORS
330
2A
102
}
330
2A
100
AcDbVisualStyle
  2
Gouraud
 70
     2
 71
     2
 72
     2
 73
     1
 90
        2
 40
-0.6
 41
30.0
 62
     5
 63
     7
421
 16777215
 74
     0
 91
        4
 64
     7
 65
   257
 75
     1
175
     1
 42
1.0
 92
        0
 66
     7
 43
1.0
 76
     1
 77
     6
 78
     2
 67
     7
 79
     5
170
     0
171
     0
290
     0
174
     0
 93
       13
 44
0.0
173
     0
291
     1
 45
0.0
1001
ACAD
1000
AcDbSavedByObjectVersion
1070
     0
  0
VISUALSTYLE
  5
2E
102
{ACAD_REACTORS
330
2A
102
}
330
2A
100
AcDbVisualStyle
  2
GouraudWithEdges
 70
     3
 71
     2
 72
     2
 73
     1
 90
        2
 40
-0.6
 41
30.0
 62
     5
 63
     7
421
 16777215
 74
     1
 91
        4
 64
     7
 65
   257
 75
     1
175
     1
 42
1.0
 92
        0
 66
   257
 43
1.0
 76
     1
 77
     6
 78
     2
 67
     7
 79
     5
170
     0
171
     0
290
     0
174
     0
 93
       13
 44
0.0
173
     0
291
     1
 45
0.0
1001
ACAD
1000
AcDbSavedByObjectVersion
1070
     0
  0
VISUALSTYLE
  5
38
102
{ACAD_REACTORS
330
2A
102
}
330
2A
100
AcDbVisualStyle
  2
Linepattern
 70
    14
 71
     2
 72
     2
 73
     0
 90
        0
 40
-0.6
 41
-30.0
 62
     5
 63
     7
421
 16777215
 74
     1
 91
        4
 64
     7
 65
   257
 75
     7
175
     7
 42
1.0
 92
        8
 66
     7
 43
1.0
 76
     1
 77
     6
 78
     2
 67
     7
 79
     5
170
     0
171
     0
290
     0
174
     0
 93
        1
 44
0.0
173
     0
291
     1
 45
0.0
1001
ACAD
1000
AcDbSavedByObjectVersion
1070
     0
  0
VISUALSTYLE
  5
33
102
{ACAD_REACTORS
330
2A
102
}
330
2A
100
AcDbVisualStyle
  2
Realistic
 70
     8
 71
     2
 72
     2
 73
     0
 90
        0
 40
-0.6
 41
-30.0
 62
     5
 63
     7
421
 16777215
 74
     1
 91
        0
 64
     7
 65
   257
 75
     1
175
     1
 42
1.0
 92
        8
 66
     8
424
  7895160
 43
1.0
 76
     1
 77
     6
 78
     2
 67
     7
 79
     5
170
     0
171
     0
290
     0
174
     0
 93
       13
 44
0.0
173
     0
291
     0
 45
0.0
1001
ACAD
1000
AcDbSavedByObjectVersion
1070
     0
  0
VISUALSTYLE
  5
37
102
{ACAD_REACTORS
330
2A
102
}
330
2A
100
AcDbVisualStyle
  2
Thicken
 70
    13
 71
     2
 72
     2
 73
     0
 90
        0
 40
-0.6
 41
-30.0
 62
     5
 63
     7
421
 16777215
 74
     1
 91
        4
 64
     7
 65
   257
 75
     1
175
     1
 42
1.0
 92
       12
 66
     7
 43
1.0
 76
     1
 77
     6
 78
     2
 67
     7
 79
     5
170
     0
171
     0
290
     0
174
     0
 93
        1
 44
0.0
173
     0
291
     1
 45
0.0
1001
ACAD
1000
AcDbSavedByObjectVersion
1070
     0
  0
DICTIONARYVAR
  5
10A
102
{ACAD_REACTORS
330
109
102
}
330
109
100
DictionaryVariables
280
     0
  1
1:1
  0
ENDSEC
  0
EOF
