  0
SECTION
  2
HEADER
  9
$ACADVER
  1
AC1018
  9
$ACADMAINTVER
 70
     0
  9
$DWGCODEPAGE
  3
ANSI_1252
  9
$INSBASE
 10
0.0
 20
0.0
 30
0.0
  9
$EXTMIN
 10
3.0850528871
 20
1.09346565012
 30
0.0
  9
$EXTMAX
 10
15.1946643626
 20
21.6004792258
 30
0.0
  9
$LIMMIN
 10
0.0
 20
0.0
  9
$LIMMAX
 10
12.0
 20
9.0
  9
$ORTHOMODE
 70
     0
  9
$REGENMODE
 70
     1
  9
$FILLMODE
 70
     1
  9
$QTEXTMODE
 70
     0
  9
$MIRRTEXT
 70
     1
  9
$LTSCALE
 40
0.0393700787401575
  9
$ATTMODE
 70
     1
  9
$TEXTSIZE
 40
0.2
  9
$TRACEWID
 40
0.05
  9
$TEXTSTYLE
  7
Standard
  9
$CLAYER
  8
0
  9
$CELTYPE
  6
ByLayer
  9
$CECOLOR
 62
   256
  9
$CELTSCALE
 40
1.0
  9
$DISPSILH
 70
     0
  9
$DIMSCALE
 40
1.0
  9
$DIMASZ
 40
0.18
  9
$DIMEXO
 40
0.0625
  9
$DIMDLI
 40
0.38
  9
$DIMRND
 40
0.0
  9
$DIMDLE
 40
0.0
  9
$DIMEXE
 40
0.18
  9
$DIMTP
 40
0.0
  9
$DIMTM
 40
0.0
  9
$DIMTXT
 40
0.18
  9
$DIMCEN
 40
0.09
  9
$DIMTSZ
 40
0.0
  9
$DIMTOL
 70
     0
  9
$DIMLIM
 70
     0
  9
$DIMTIH
 70
     1
  9
$DIMTOH
 70
     1
  9
$DIMSE1
 70
     0
  9
$DIMSE2
 70
     0
  9
$DIMTAD
 70
     0
  9
$DIMZIN
 70
     0
  9
$DIMBLK
  1

  9
$DIMASO
 70
     1
  9
$DIMSHO
 70
     1
  9
$DIMPOST
  1

  9
$DIMAPOST
  1

  9
$DIMALT
 70
     0
  9
$DIMALTD
 70
     2
  9
$DIMALTF
 40
25.4
  9
$DIMLFAC
 40
1.0
  9
$DIMTOFL
 70
     0
  9
$DIMTVP
 40
0.0
  9
$DIMTIX
 70
     0
  9
$DIMSOXD
 70
     0
  9
$DIMSAH
 70
     0
  9
$DIMBLK1
  1

  9
$DIMBLK2
  1

  9
$DIMSTYLE
  2
Standard
  9
$DIMCLRD
 70
     0
  9
$DIMCLRE
 70
     0
  9
$DIMCLRT
 70
     0
  9
$DIMTFAC
 40
1.0
  9
$DIMGAP
 40
0.09
  9
$DIMJUST
 70
     0
  9
$DIMSD1
 70
     0
  9
$DIMSD2
 70
     0
  9
$DIMTOLJ
 70
     1
  9
$DIMTZIN
 70
     0
  9
$DIMALTZ
 70
     0
  9
$DIMALTTZ
 70
     0
  9
$DIMUPT
 70
     0
  9
$DIMDEC
 70
     4
  9
$DIMTDEC
 70
     4
  9
$DIMALTU
 70
     2
  9
$DIMALTTD
 70
     2
  9
$DIMTXSTY
  7
Standard
  9
$DIMAUNIT
 70
     0
  9
$DIMADEC
 70
     0
  9
$DIMALTRND
 40
0.0
  9
$DIMAZIN
 70
     0
  9
$DIMDSEP
 70
    46
  9
$DIMATFIT
 70
     3
  9
$DIMFRAC
 70
     0
  9
$DIMLDRBLK
  1

  9
$DIMLUNIT
 70
     2
  9
$DIMLWD
 70
    -2
  9
$DIMLWE
 70
    -2
  9
$DIMTMOVE
 70
     2
  9
$LUNITS
 70
     2
  9
$LUPREC
 70
     2
  9
$SKETCHINC
 40
0.1
  9
$FILLETRAD
 40
0.5
  9
$AUNITS
 70
     0
  9
$AUPREC
 70
     0
  9
$MENU
  1
.
  9
$ELEVATION
 40
0.0
  9
$PELEVATION
 40
0.0
  9
$THICKNESS
 40
0.0
  9
$LIMCHECK
 70
     0
  9
$CHAMFERA
 40
0.5
  9
$CHAMFERB
 40
0.5
  9
$CHAMFERC
 40
1.0
  9
$CHAMFERD
 40
0.0
  9
$SKPOLY
 70
     0
  9
$TDCREATE
 40
2455388.571641806
  9
$TDUCREATE
 40
2455388.863308472
  9
$TDUPDATE
 40
2455388.571641817
  9
$TDUUPDATE
 40
2455388.863308484
  9
$TDINDWG
 40
0.0000000116
  9
$TDUSRTIMER
 40
0.0000000116
  9
$USRTIMER
 70
     1
  9
$ANGBASE
 50
0.0
  9
$ANGDIR
 70
     0
  9
$PDMODE
 70
     0
  9
$PDSIZE
 40
0.0
  9
$PLINEWID
 40
0.0
  9
$SPLFRAME
 70
     0
  9
$SPLINETYPE
 70
     6
  9
$SPLINESEGS
 70
     8
  9
$HANDSEED
  5
103
  9
$SURFTAB1
 70
     6
  9
$SURFTAB2
 70
     6
  9
$SURFTYPE
 70
     6
  9
$SURFU
 70
     6
  9
$SURFV
 70
     6
  9
$UCSBASE
  2

  9
$UCSNAME
  2

  9
$UCSORG
 10
0.0
 20
0.0
 30
0.0
  9
$UCSXDIR
 10
1.0
 20
0.0
 30
0.0
  9
$UCSYDIR
 10
0.0
 20
1.0
 30
0.0
  9
$UCSORTHOREF
  2

  9
$UCSORTHOVIEW
 70
     0
  9
$UCSORGTOP
 10
0.0
 20
0.0
 30
0.0
  9
$UCSORGBOTTOM
 10
0.0
 20
0.0
 30
0.0
  9
$UCSORGLEFT
 10
0.0
 20
0.0
 30
0.0
  9
$UCSORGRIGHT
 10
0.0
 20
0.0
 30
0.0
  9
$UCSORGFRONT
 10
0.0
 20
0.0
 30
0.0
  9
$UCSORGBACK
 10
0.0
 20
0.0
 30
0.0
  9
$PUCSBASE
  2

  9
$PUCSNAME
  2

  9
$PUCSORG
 10
0.0
 20
0.0
 30
0.0
  9
$PUCSXDIR
 10
1.0
 20
0.0
 30
0.0
  9
$PUCSYDIR
 10
0.0
 20
1.0
 30
0.0
  9
$PUCSORTHOREF
  2

  9
$PUCSORTHOVIEW
 70
     0
  9
$PUCSORGTOP
 10
0.0
 20
0.0
 30
0.0
  9
$PUCSORGBOTTOM
 10
0.0
 20
0.0
 30
0.0
  9
$PUCSORGLEFT
 10
0.0
 20
0.0
 30
0.0
  9
$PUCSORGRIGHT
 10
0.0
 20
0.0
 30
0.0
  9
$PUCSORGFRONT
 10
0.0
 20
0.0
 30
0.0
  9
$PUCSORGBACK
 10
0.0
 20
0.0
 30
0.0
  9
$USERI1
 70
     0
  9
$USERI2
 70
     0
  9
$USERI3
 70
     0
  9
$USERI4
 70
     0
  9
$USERI5
 70
     0
  9
$USERR1
 40
0.0
  9
$USERR2
 40
0.0
  9
$USERR3
 40
0.0
  9
$USERR4
 40
0.0
  9
$USERR5
 40
0.0
  9
$WORLDVIEW
 70
     1
  9
$SHADEDGE
 70
     3
  9
$SHADEDIF
 70
    70
  9
$TILEMODE
 70
     0
  9
$MAXACTVP
 70
    64
  9
$PINSBASE
 10
0.0
 20
0.0
 30
0.0
  9
$PLIMCHECK
 70
     0
  9
$PEXTMIN
 10
0.0
 20
0.0
 30
0.0
  9
$PEXTMAX
 10
0.0
 20
0.0
 30
0.0
  9
$PLIMMIN
 10
0.0
 20
0.0
  9
$PLIMMAX
 10
12.0
 20
9.0
  9
$UNITMODE
 70
     0
  9
$VISRETAIN
 70
     1
  9
$PLINEGEN
 70
     0
  9
$PSLTSCALE
 70
     1
  9
$TREEDEPTH
 70
  3020
  9
$CMLSTYLE
  2
Standard
  9
$CMLJUST
 70
     0
  9
$CMLSCALE
 40
1.0
  9
$PROXYGRAPHICS
 70
     1
  9
$MEASUREMENT
 70
     0
  9
$CELWEIGHT
370
    -1
  9
$ENDCAPS
280
     0
  9
$JOINSTYLE
280
     0
  9
$LWDISPLAY
290
     0
  9
$INSUNITS
 70
     1
  9
$HYPERLINKBASE
  1

  9
$STYLESHEET
  1

  9
$XEDIT
290
     1
  9
$CEPSNTYPE
380
     0
  9
$PSTYLEMODE
290
     1
  9
$FINGERPRINTGUID
  2
{18E8D12F-32EA-4947-BCFF-DD27A541EF71}
  9
$VERSIONGUID
  2
{FAEB1C32-E019-11D5-929B-00C0DF256EC4}
  9
$EXTNAMES
290
     1
  9
$PSVPSCALE
 40
0.0
  9
$OLESTARTUP
290
     0
  9
$SORTENTS
280
   127
  9
$INDEXCTL
280
     0
  9
$HIDETEXT
280
     1
  9
$XCLIPFRAME
290
     0
  9
$HALOGAP
280
     0
  9
$OBSCOLOR
 70
   257
  9
$OBSLTYPE
280
     0
  9
$INTERSECTIONDISPLAY
280
     0
  9
$INTERSECTIONCOLOR
 70
   257
  9
$DIMASSOC
280
     2
  9
$PROJECTNAME
  1

  0
ENDSEC
  0
SECTION
  2
CLASSES
  0
CLASS
  1
ACDBDICTIONARYWDFLT
  2
AcDbDictionaryWithDefault
  3
ObjectDBX Classes
 90
        0
 91
        4
280
     0
281
     0
  0
CLASS
  1
VISUALSTYLE
  2
AcDbVisualStyle
  3
ObjectDBX Classes
 90
     4095
 91
        4
280
     0
281
     0
  0
CLASS
  1
SCALE
  2
AcDbScale
  3
ObjectDBX Classes
 90
     1153
 91
        4
280
     0
281
     0
  0
CLASS
  1
DICTIONARYVAR
  2
AcDbDictionaryVar
  3
ObjectDBX Classes
 90
        0
 91
        4
280
     0
281
     0
  0
ENDSEC
  0
SECTION
  2
TABLES
  0
TABLE
  2
VPORT
  5
8
330
0
100
AcDbSymbolTable
 70
     1
  0
VPORT
  5
29
330
8
100
AcDbSymbolTableRecord
100
AcDbViewportTableRecord
  2
*Active
 70
     0
 10
0.0
 20
0.0
 11
1.0
 21
1.0
 12
9.13985862485
 22
11.35085367155607
 13
0.0
 23
0.0
 14
0.5
 24
0.5
 15
0.5
 25
0.5
 16
0.0
 26
0.0
 36
1.0
 17
0.0
 27
0.0
 37
0.0
 40
20.90923613065763
 41
0.5907343351916853
 42
50.0
 43
0.0
 44
0.0
 50
0.0
 51
0.0
 71
     0
 72
   100
 73
     1
 74
     3
 75
     0
 76
     0
 77
     0
 78
     0
281
     0
 65
     1
110
0.0
120
0.0
130
0.0
111
1.0
121
0.0
131
0.0
112
0.0
122
1.0
132
0.0
 79
     0
146
0.0
  0
ENDTAB
  0
TABLE
  2
LTYPE
  5
5
330
0
100
AcDbSymbolTable
 70
     1
  0
LTYPE
  5
14
330
5
100
AcDbSymbolTableRecord
100
AcDbLinetypeTableRecord
  2
ByBlock
 70
     0
  3

 72
    65
 73
     0
 40
0.0
  0
LTYPE
  5
15
330
5
100
AcDbSymbolTableRecord
100
AcDbLinetypeTableRecord
  2
ByLayer
 70
     0
  3

 72
    65
 73
     0
 40
0.0
  0
LTYPE
  5
16
330
5
100
AcDbSymbolTableRecord
100
AcDbLinetypeTableRecord
  2
Continuous
 70
     0
  3
Solid line
 72
    65
 73
     0
 40
0.0
  0
ENDTAB
  0
TABLE
  2
LAYER
  5
2
330
0
100
AcDbSymbolTable
 70
     1
  0
LAYER
  5
10
330
2
100
AcDbSymbolTableRecord
100
AcDbLayerTableRecord
  2
0
 70
     0
 62
     7
  6
Continuous
370
    -3
390
F
  0
ENDTAB
  0
TABLE
  2
STYLE
  5
3
330
0
100
AcDbSymbolTable
 70
     1
  0
STYLE
  5
11
330
3
100
AcDbSymbolTableRecord
100
AcDbTextStyleTableRecord
  2
Standard
 70
     0
 40
0.0
 41
1.0
 50
0.0
 71
     0
 42
0.2
  3
txt
  4

  0
ENDTAB
  0
TABLE
  2
VIEW
  5
6
330
0
100
AcDbSymbolTable
 70
     0
  0
ENDTAB
  0
TABLE
  2
UCS
  5
7
330
0
100
AcDbSymbolTable
 70
     0
  0
ENDTAB
  0
TABLE
  2
APPID
  5
9
330
0
100
AcDbSymbolTable
 70
     1
  0
APPID
  5
12
330
9
100
AcDbSymbolTableRecord
100
AcDbRegAppTableRecord
  2
ACAD
 70
     0
  0
ENDTAB
  0
TABLE
  2
DIMSTYLE
  5
A
330
0
100
AcDbSymbolTable
 70
     1
100
AcDbDimStyleTable
  0
DIMSTYLE
105
27
330
A
100
AcDbSymbolTableRecord
100
AcDbDimStyleTableRecord
  2
Standard
 70
     0
340
11
  0
ENDTAB
  0
TABLE
  2
BLOCK_RECORD
  5
1
330
0
100
AcDbSymbolTable
 70
     3
  0
BLOCK_RECORD
  5
1F
330
1
100
AcDbSymbolTableRecord
100
AcDbBlockTableRecord
  2
*Model_Space
340
22
  0
BLOCK_RECORD
  5
FA
330
1
100
AcDbSymbolTableRecord
100
AcDbBlockTableRecord
  2
*Paper_Space
340
FB
  0
BLOCK_RECORD
  5
23
330
1
100
AcDbSymbolTableRecord
100
AcDbBlockTableRecord
  2
*Paper_Space0
340
26
  0
BLOCK_RECORD
  5
1B
330
1
100
AcDbSymbolTableRecord
100
AcDbBlockTableRecord
  2
*Paper_Space1
340
1E
  0
BLOCK_RECORD
  5
F5
330
1
100
AcDbSymbolTableRecord
100
AcDbBlockTableRecord
  2
*Paper_Space2
340
F6
  0
ENDTAB
  0
ENDSEC
  0
SECTION
  2
BLOCKS
  0
BLOCK
  5
20
330
1F
100
AcDbEntity
  8
0
100
AcDbBlockBegin
  2
*Model_Space
 70
     0
 10
0.0
 20
0.0
 30
0.0
  3
*Model_Space
  1

  0
ENDBLK
  5
21
330
1F
100
AcDbEntity
  8
0
100
AcDbBlockEnd
  0
BLOCK
  5
FC
330
FA
100
AcDbEntity
 67
     1
  8
0
100
AcDbBlockBegin
  2
*Paper_Space
 70
     0
 10
0.0
 20
0.0
 30
0.0
  3
*Paper_Space
  1

  0
ENDBLK
  5
FD
330
FA
100
AcDbEntity
 67
     1
  8
0
100
AcDbBlockEnd
  0
BLOCK
  5
24
330
23
100
AcDbEntity
  8
0
100
AcDbBlockBegin
  2
*Paper_Space0
 70
     0
 10
0.0
 20
0.0
 30
0.0
  3
*Paper_Space0
  1

  0
ENDBLK
  5
25
330
23
100
AcDbEntity
  8
0
100
AcDbBlockEnd
  0
BLOCK
  5
1C
330
1B
100
AcDbEntity
  8
0
100
AcDbBlockBegin
  2
*Paper_Space1
 70
     0
 10
0.0
 20
0.0
 30
0.0
  3
*Paper_Space1
  1

  0
ENDBLK
  5
1D
330
1B
100
AcDbEntity
  8
0
100
AcDbBlockEnd
  0
BLOCK
  5
F7
330
F5
100
AcDbEntity
  8
0
100
AcDbBlockBegin
  2
*Paper_Space2
 70
     0
 10
0.0
 20
0.0
 30
0.0
  3
*Paper_Space2
  1

  0
VIEWPORT
  5
F9
330
F5
100
AcDbEntity
  8
0
100
AcDbViewport
 10
6.0
 20
4.5
 30
0.0
 40
12.696
 41
9.522
 68
     1
 69
     1
 12
6.0
 22
4.5
 13
0.0
 23
0.0
 14
0.5
 24
0.5
 15
0.5
 25
0.5
 16
0.0
 26
0.0
 36
1.0
 17
0.0
 27
0.0
 37
0.0
 42
50.0
 43
0.0
 44
0.0
 45
9.522
 50
0.0
 51
0.0
 72
   100
 90
   557152
  1

281
     0
 71
     1
 74
     0
110
0.0
120
0.0
130
0.0
111
1.0
121
0.0
131
0.0
112
0.0
122
1.0
132
0.0
 79
     0
146
0.0
170
     0
  0
ENDBLK
  5
F8
330
F5
100
AcDbEntity
  8
0
100
AcDbBlockEnd
  0
ENDSEC
  0
SECTION
  2
ENTITIES
  0
LINE
  5
3B
330
1F
100
AcDbEntity
  8
0
 62
   255
370
    15
100
AcDbLine
 10
5.5102629907
 20
6.474231617
 30
0.0
 11
5.5102629907
 21
6.3472314841
 31
0.0
  0
LINE
  5
3C
330
1F
100
AcDbEntity
  8
0
 62
   255
370
    15
100
AcDbLine
 10
5.5102629907
 20
6.3472314841
 30
0.0
 11
4.371925300904305
 21
6.347231484115071
 31
0.0
  0
SPLINE
  5
3D
330
1F
100
AcDbEntity
  8
0
 62
   255
370
    15
100
AcDbSpline
210
0.0
220
0.0
230
1.0
 70
     8
 71
     3
 72
     9
 73
     5
 74
     0
 42
0.0000000001
 43
0.0000000001
 40
0.0
 40
0.0
 40
0.0
 40
0.0
 40
0.4999446723595938
 40
1.0
 40
1.0
 40
1.0
 40
1.0
 10
4.371925300904305
 20
6.347231484115071
 30
0.0
 10
4.365919457212201
 20
6.244497556343727
 30
0.0
 10
4.35390644051732
 20
6.039006962182044
 30
0.0
 10
4.337368818369043
 20
5.833830928807096
 30
0.0
 10
4.329099092303647
 20
5.731231560206915
 30
0.0
  0
LINE
  5
3E
330
1F
100
AcDbEntity
  8
0
 62
   255
370
    15
100
AcDbLine
 10
4.329099092303647
 20
5.731231560206915
 30
0.0
 11
5.896596331
 21
5.7312315519
 31
0.0
  0
ARC
  5
3F
330
1F
100
AcDbEntity
  8
0
 62
   255
370
    15
100
AcDbCircle
 10
5.896596331
 20
5.6312315519
 30
0.0
 40
0.0999999999999996
100
AcDbArc
 50
0.0
 51
90.0
  0
LINE
  5
40
330
1F
100
AcDbEntity
  8
0
 62
   255
370
    15
100
AcDbLine
 10
5.9965963392
 20
5.6312315688
 30
0.0
 11
5.996596331
 21
3.6212315519
 31
0.0
  0
ARC
  5
41
330
1F
100
AcDbEntity
  8
0
 62
   255
370
    15
100
AcDbCircle
 10
5.896596331
 20
3.6212315519
 30
0.0
 40
0.1000000000000001
100
AcDbArc
 50
270.0
 51
0.0
  0
LINE
  5
42
330
1F
100
AcDbEntity
  8
0
 62
   255
370
    15
100
AcDbLine
 10
5.896596331
 20
3.5212315519
 30
0.0
 11
4.047984469783701
 21
3.52123154367797
 31
0.0
  0
SPLINE
  5
43
330
1F
100
AcDbEntity
  8
0
 62
   255
370
    15
100
AcDbSpline
210
0.0
220
0.0
230
1.0
 70
     8
 71
     3
 72
     9
 73
     5
 74
     0
 42
0.0000000001
 43
0.0000000001
 40
0.0
 40
0.0
 40
0.0
 40
0.0
 40
0.5854413102252429
 40
1.0
 40
1.0
 40
1.0
 40
1.0
 10
4.047984469783701
 20
3.52123154367797
 30
0.0
 10
4.027739726642664
 20
3.400888790784354
 30
0.0
 10
3.993159414711909
 20
3.195329752210045
 30
0.0
 10
3.955850618466541
 20
2.990249443724144
 30
0.0
 10
3.940383932788993
 20
2.905231619719813
 30
0.0
  0
LINE
  5
44
330
1F
100
AcDbEntity
  8
0
 62
   255
370
    15
100
AcDbLine
 10
3.940383932788993
 20
2.905231619719813
 30
0.0
 11
4.276929665
 21
2.9052316197
 31
0.0
  0
LINE
  5
45
330
1F
100
AcDbEntity
  8
0
 62
   255
370
    15
100
AcDbLine
 10
4.276929665
 20
2.9052316197
 30
0.0
 11
4.276929665
 21
2.7782314869
 31
0.0
  0
LINE
  5
46
330
1F
100
AcDbEntity
  8
0
 62
   255
370
    15
100
AcDbLine
 10
4.276929665
 20
2.7782314869
 30
0.0
 11
5.5062629969
 21
2.7782314869
 31
0.0
  0
LINE
  5
47
330
1F
100
AcDbEntity
  8
0
 62
   255
370
    15
100
AcDbLine
 10
5.5062629969
 20
2.7782314869
 30
0.0
 11
5.5062629969
 21
2.9052316197
 31
0.0
  0
LINE
  5
48
330
1F
100
AcDbEntity
  8
0
 62
   255
370
    15
100
AcDbLine
 10
5.5062629969
 20
2.9052316197
 30
0.0
 11
6.6125962632
 21
2.9052316197
 31
0.0
  0
LINE
  5
49
330
1F
100
AcDbEntity
  8
0
 62
   255
370
    15
100
AcDbLine
 10
6.6125962632
 20
2.9052316197
 30
0.0
 11
6.6125962632
 21
4.0115648859
 31
0.0
  0
LINE
  5
4A
330
1F
100
AcDbEntity
  8
0
 62
   255
370
    15
100
AcDbLine
 10
6.6125962632
 20
4.0115648859
 30
0.0
 11
6.739596396
 21
4.0115648859
 31
0.0
  0
LINE
  5
4B
330
1F
100
AcDbEntity
  8
0
 62
   255
370
    15
100
AcDbLine
 10
6.739596396
 20
4.0115648859
 30
0.0
 11
6.739596396
 21
5.2408982179
 31
0.0
  0
LINE
  5
4C
330
1F
100
AcDbEntity
  8
0
 62
   255
370
    15
100
AcDbLine
 10
6.739596396
 20
5.2408982179
 30
0.0
 11
6.6125962632
 21
5.2408982179
 31
0.0
  0
LINE
  5
4D
330
1F
100
AcDbEntity
  8
0
 62
   255
370
    15
100
AcDbLine
 10
6.6125962632
 20
5.2408982179
 30
0.0
 11
6.6125962632
 21
6.474231617
 31
0.0
  0
LINE
  5
4E
330
1F
100
AcDbEntity
  8
0
 62
   255
370
    15
100
AcDbLine
 10
6.6125962632
 20
6.474231617
 30
0.0
 11
5.5102629907
 21
6.474231617
 31
0.0
  0
LINE
  5
4F
330
1F
100
AcDbEntity
  8
0
 62
   255
370
    15
100
AcDbLine
 10
14.3500346268
 20
20.7568086784
 30
0.0
 11
12.3400346099
 21
20.7568086867
 31
0.0
  0
ARC
  5
50
330
1F
100
AcDbEntity
  8
0
 62
   255
370
    15
100
AcDbCircle
 10
12.3400346268
 20
20.6568086784
 30
0.0
 40
0.0999999999999996
100
AcDbArc
 50
90.0
 51
180.0
  0
LINE
  5
51
330
1F
100
AcDbEntity
  8
0
 62
   255
370
    15
100
AcDbLine
 10
12.2400346268
 20
20.6568086784
 30
0.0
 11
12.2400346268
 21
18.6468086784
 31
0.0
  0
ARC
  5
52
330
1F
100
AcDbEntity
  8
0
 62
   255
370
    15
100
AcDbCircle
 10
12.3400346268
 20
18.6468086784
 30
0.0
 40
0.1000000000000014
100
AcDbArc
 50
180.0
 51
270.0
  0
LINE
  5
53
330
1F
100
AcDbEntity
  8
0
 62
   255
370
    15
100
AcDbLine
 10
12.3400346268
 20
18.5468086784
 30
0.0
 11
14.3500346268
 21
18.5468086784
 31
0.0
  0
ARC
  5
54
330
1F
100
AcDbEntity
  8
0
 62
   255
370
    15
100
AcDbCircle
 10
14.3500346268
 20
18.6468086784
 30
0.0
 40
0.1000000000000014
100
AcDbArc
 50
270.0
 51
0.0
  0
LINE
  5
55
330
1F
100
AcDbEntity
  8
0
 62
   255
370
    15
100
AcDbLine
 10
14.4500346268
 20
18.6468086784
 30
0.0
 11
14.4500346268
 21
20.6568086784
 31
0.0
  0
ARC
  5
56
330
1F
100
AcDbEntity
  8
0
 62
   255
370
    15
100
AcDbCircle
 10
14.3500346268
 20
20.6568086784
 30
0.0
 40
0.0999999999999979
100
AcDbArc
 50
0.0
 51
90.00000000000102
  0
LINE
  5
57
330
1F
100
AcDbEntity
  8
0
 62
   255
370
    15
100
AcDbLine
 10
12.726367967
 20
21.3728086106
 30
0.0
 11
12.726367967
 21
21.4998087435
 31
0.0
  0
LINE
  5
58
330
1F
100
AcDbEntity
  8
0
 62
   255
370
    15
100
AcDbLine
 10
12.726367967
 20
21.4998087435
 30
0.0
 11
11.4970345617
 21
21.4998087435
 31
0.0
  0
LINE
  5
59
330
1F
100
AcDbEntity
  8
0
 62
   255
370
    15
100
AcDbLine
 10
11.4970345617
 20
21.4998087435
 30
0.0
 11
11.4970345617
 21
20.2704753382
 31
0.0
  0
LINE
  5
5A
330
1F
100
AcDbEntity
  8
0
 62
   255
370
    15
100
AcDbLine
 10
11.4970345617
 20
20.2704753382
 30
0.0
 11
11.6240346946
 21
20.2704753382
 31
0.0
  0
LINE
  5
5B
330
1F
100
AcDbEntity
  8
0
 62
   255
370
    15
100
AcDbLine
 10
11.6240346946
 20
20.2704753382
 30
0.0
 11
11.6240346946
 21
19.0331420186
 31
0.0
  0
LINE
  5
5C
330
1F
100
AcDbEntity
  8
0
 62
   255
370
    15
100
AcDbLine
 10
11.6240346946
 20
19.0331420186
 30
0.0
 11
11.4970345617
 21
19.0331420186
 31
0.0
  0
LINE
  5
5D
330
1F
100
AcDbEntity
  8
0
 62
   255
370
    15
100
AcDbLine
 10
11.4970345617
 20
19.0331420186
 30
0.0
 11
11.4970345617
 21
17.8038086133
 31
0.0
  0
LINE
  5
5E
330
1F
100
AcDbEntity
  8
0
 62
   255
370
    15
100
AcDbLine
 10
11.4970345617
 20
17.8038086133
 30
0.0
 11
12.726367967
 21
17.8038086133
 31
0.0
  0
LINE
  5
5F
330
1F
100
AcDbEntity
  8
0
 62
   255
370
    15
100
AcDbLine
 10
12.726367967
 20
17.8038086133
 30
0.0
 11
12.726367967
 21
17.9308087462
 31
0.0
  0
LINE
  5
60
330
1F
100
AcDbEntity
  8
0
 62
   255
370
    15
100
AcDbLine
 10
12.726367967
 20
17.9308087462
 30
0.0
 11
13.9637012865
 21
17.9308087462
 31
0.0
  0
LINE
  5
61
330
1F
100
AcDbEntity
  8
0
 62
   255
370
    15
100
AcDbLine
 10
13.9637012865
 20
17.9308087462
 30
0.0
 11
13.9637012865
 21
17.8038086133
 31
0.0
  0
LINE
  5
62
330
1F
100
AcDbEntity
  8
0
 62
   255
370
    15
100
AcDbLine
 10
13.9637012865
 20
17.8038086133
 30
0.0
 11
15.1930346918
 21
17.8038086133
 31
0.0
  0
LINE
  5
63
330
1F
100
AcDbEntity
  8
0
 62
   255
370
    15
100
AcDbLine
 10
15.1930346918
 20
17.8038086133
 30
0.0
 11
15.1930346918
 21
19.0331420186
 31
0.0
  0
LINE
  5
64
330
1F
100
AcDbEntity
  8
0
 62
   255
370
    15
100
AcDbLine
 10
15.1930346918
 20
19.0331420186
 30
0.0
 11
15.0660345589
 21
19.0331420186
 31
0.0
  0
LINE
  5
65
330
1F
100
AcDbEntity
  8
0
 62
   255
370
    15
100
AcDbLine
 10
15.0660345589
 20
19.0331420186
 30
0.0
 11
15.0660345589
 21
20.2704753382
 31
0.0
  0
LINE
  5
66
330
1F
100
AcDbEntity
  8
0
 62
   255
370
    15
100
AcDbLine
 10
15.0660345589
 20
20.2704753382
 30
0.0
 11
15.1930346918
 21
20.2704753382
 31
0.0
  0
LINE
  5
67
330
1F
100
AcDbEntity
  8
0
 62
   255
370
    15
100
AcDbLine
 10
15.1930346918
 20
20.2704753382
 30
0.0
 11
15.1930346918
 21
21.4998087435
 31
0.0
  0
LINE
  5
68
330
1F
100
AcDbEntity
  8
0
 62
   255
370
    15
100
AcDbLine
 10
15.1930346918
 20
21.4998087435
 30
0.0
 11
13.9637012865
 21
21.4998087435
 31
0.0
  0
LINE
  5
69
330
1F
100
AcDbEntity
  8
0
 62
   255
370
    15
100
AcDbLine
 10
13.9637012865
 20
21.4998087435
 30
0.0
 11
13.9637012865
 21
21.3728086106
 31
0.0
  0
LINE
  5
6A
330
1F
100
AcDbEntity
  8
0
 62
   255
370
    15
100
AcDbLine
 10
13.9637012865
 20
21.3728086106
 30
0.0
 11
12.726367967
 21
21.3728086106
 31
0.0
  0
LINE
  5
6B
330
1F
100
AcDbEntity
  8
0
 62
   255
370
    15
100
AcDbLine
 10
5.9380529522
 20
20.85747916070001
 30
0.0
 11
3.9280529354
 21
20.857479169
 31
0.0
  0
ARC
  5
6C
330
1F
100
AcDbEntity
  8
0
 62
   255
370
    15
100
AcDbCircle
 10
3.9280529522
 20
20.7574791607
 30
0.0
 40
0.0999999999999996
100
AcDbArc
 50
90.0
 51
180.0
  0
LINE
  5
6D
330
1F
100
AcDbEntity
  8
0
 62
   255
370
    15
100
AcDbLine
 10
3.8280529522
 20
20.7574791607
 30
0.0
 11
3.828052952199998
 21
18.7474791607
 31
0.0
  0
ARC
  5
6E
330
1F
100
AcDbEntity
  8
0
 62
   255
370
    15
100
AcDbCircle
 10
3.9280529522
 20
18.7474791607
 30
0.0
 40
0.1000000000000014
100
AcDbArc
 50
180.0
 51
270.0
  0
LINE
  5
6F
330
1F
100
AcDbEntity
  8
0
 62
   255
370
    15
100
AcDbLine
 10
3.9280529522
 20
18.6474791607
 30
0.0
 11
5.9380529522
 21
18.6474791607
 31
0.0
  0
ARC
  5
70
330
1F
100
AcDbEntity
  8
0
 62
   255
370
    15
100
AcDbCircle
 10
5.9380529522
 20
18.7474791607
 30
0.0
 40
0.1000000000000014
100
AcDbArc
 50
270.0
 51
0.0
  0
LINE
  5
71
330
1F
100
AcDbEntity
  8
0
 62
   255
370
    15
100
AcDbLine
 10
6.038052952200001
 20
18.7474791607
 30
0.0
 11
6.038052952200005
 21
20.7574791607
 31
0.0
  0
ARC
  5
72
330
1F
100
AcDbEntity
  8
0
 62
   255
370
    15
100
AcDbCircle
 10
5.938052952199998
 20
20.7574791607
 30
0.0
 40
0.1000000000000068
100
AcDbArc
 50
0.0
 51
89.99999999999898
  0
LINE
  5
73
330
1F
100
AcDbEntity
  8
0
 62
   255
370
    15
100
AcDbLine
 10
4.3183862862
 20
18.0314792285
 30
0.0
 11
4.3183862862
 21
17.9044790956
 31
0.0
  0
LINE
  5
74
330
1F
100
AcDbEntity
  8
0
 62
   255
370
    15
100
AcDbLine
 10
4.3183862862
 20
17.9044790956
 30
0.0
 11
5.5477196182
 21
17.9044790956
 31
0.0
  0
LINE
  5
75
330
1F
100
AcDbEntity
  8
0
 62
   255
370
    15
100
AcDbLine
 10
5.5477196182
 20
17.9044790956
 30
0.0
 11
5.5477196182
 21
18.0314792285
 31
0.0
  0
LINE
  5
76
330
1F
100
AcDbEntity
  8
0
 62
   255
370
    15
100
AcDbLine
 10
5.5477196182
 20
18.0314792285
 30
0.0
 11
6.7810530173
 21
18.0314792285
 31
0.0
  0
LINE
  5
77
330
1F
100
AcDbEntity
  8
0
 62
   255
370
    15
100
AcDbLine
 10
6.7810530173
 20
18.0314792285
 30
0.0
 11
6.7810530173
 21
19.133812501
 31
0.0
  0
LINE
  5
78
330
1F
100
AcDbEntity
  8
0
 62
   255
370
    15
100
AcDbLine
 10
6.7810530173
 20
19.133812501
 30
0.0
 11
6.6540528844
 21
19.133812501
 31
0.0
  0
LINE
  5
79
330
1F
100
AcDbEntity
  8
0
 62
   255
370
    15
100
AcDbLine
 10
6.6540528844
 20
19.133812501
 30
0.0
 11
6.6540528844
 21
20.3711458205
 31
0.0
  0
LINE
  5
7A
330
1F
100
AcDbEntity
  8
0
 62
   255
370
    15
100
AcDbLine
 10
6.6540528844
 20
20.3711458205
 30
0.0
 11
6.7810530173
 21
20.3711458205
 31
0.0
  0
LINE
  5
7B
330
1F
100
AcDbEntity
  8
0
 62
   255
370
    15
100
AcDbLine
 10
6.7810530173
 20
20.3711458205
 30
0.0
 11
6.7810530173
 21
21.4734790929
 31
0.0
  0
LINE
  5
7C
330
1F
100
AcDbEntity
  8
0
 62
   255
370
    15
100
AcDbLine
 10
6.7810530173
 20
21.4734790929
 30
0.0
 11
5.5477196182
 21
21.4734790929
 31
0.0
  0
LINE
  5
7D
330
1F
100
AcDbEntity
  8
0
 62
   255
370
    15
100
AcDbLine
 10
5.5477196182
 20
21.4734790929
 30
0.0
 11
5.5477196182
 21
21.6004792258
 31
0.0
  0
LINE
  5
7E
330
1F
100
AcDbEntity
  8
0
 62
   255
370
    15
100
AcDbLine
 10
5.5477196182
 20
21.6004792258
 30
0.0
 11
4.480001993587357
 21
21.60047919326361
 31
0.0
  0
SPLINE
  5
7F
330
1F
100
AcDbEntity
  8
0
 62
   255
370
    15
100
AcDbSpline
210
0.0
220
0.0
230
1.0
 70
     8
 71
     3
 72
    18
 73
    14
 74
     0
 42
0.0000000001
 43
0.0000000001
 40
0.0
 40
0.0
 40
0.0
 40
0.0
 40
0.2499999999999998
 40
0.2499999999999998
 40
0.3749999999999997
 40
0.3749999999999997
 40
0.4999999999999998
 40
0.4999999999999998
 40
0.6249999999999999
 40
0.6249999999999999
 40
0.75
 40
0.75
 40
1.0
 40
1.0
 40
1.0
 40
1.0
 10
4.480001993587357
 20
21.60047919326361
 30
0.0
 10
4.393851822732207
 20
21.46295646970855
 30
0.0
 10
4.299300715899176
 20
21.33145866376724
 30
0.0
 10
4.145203146894646
 20
21.14301226281233
 30
0.0
 10
4.091785013604014
 20
21.0816686240012
 30
0.0
 10
3.980815263475529
 20
20.96194575014699
 30
0.0
 10
3.923179624885718
 20
20.90349611677039
 30
0.0
 10
3.804529739247489
 20
20.79038529658873
 30
0.0
 10
3.743632354332073
 20
20.73582472842774
 30
0.0
 10
3.619227065815386
 20
20.63097828307487
 30
0.0
 10
3.555650471419193
 20
20.58062672762934
 30
0.0
 10
3.360877593307819
 20
20.43566831401132
 30
0.0
 10
3.225655730131452
 20
20.34713129842292
 30
0.0
 10
3.085052952226218
 20
20.26670772480671
 30
0.0
  0
LINE
  5
80
330
1F
100
AcDbEntity
  8
0
 62
   255
370
    15
100
AcDbLine
 10
3.0850528871
 20
20.2667077103
 30
0.0
 11
3.0850528871
 21
19.1378124947
 31
0.0
  0
LINE
  5
81
330
1F
100
AcDbEntity
  8
0
 62
   255
370
    15
100
AcDbLine
 10
3.0850528871
 20
19.1378124947
 30
0.0
 11
3.21205302
 21
19.1378124947
 31
0.0
  0
LINE
  5
82
330
1F
100
AcDbEntity
  8
0
 62
   255
370
    15
100
AcDbLine
 10
3.21205302
 20
19.1378124947
 30
0.0
 11
3.21205302
 21
18.0314792285
 31
0.0
  0
LINE
  5
83
330
1F
100
AcDbEntity
  8
0
 62
   255
370
    15
100
AcDbLine
 10
3.21205302
 20
18.0314792285
 30
0.0
 11
4.3183862862
 21
18.0314792285
 31
0.0
  0
LINE
  5
84
330
1F
100
AcDbEntity
  8
0
 62
   255
370
    15
100
AcDbLine
 10
14.4516642975
 20
10.9586311403
 30
0.0
 11
14.4516642975
 21
12.9686311403
 31
0.0
  0
ARC
  5
85
330
1F
100
AcDbEntity
  8
0
 62
   255
370
    15
100
AcDbCircle
 10
14.3516642975
 20
12.9686311403
 30
0.0
 40
0.0999999999999996
100
AcDbArc
 50
0.0
 51
90.0
  0
LINE
  5
86
330
1F
100
AcDbEntity
  8
0
 62
   255
370
    15
100
AcDbLine
 10
14.3516642975
 20
13.0686311403
 30
0.0
 11
12.3416642975
 21
13.0686311403
 31
0.0
  0
ARC
  5
87
330
1F
100
AcDbEntity
  8
0
 62
   255
370
    15
100
AcDbCircle
 10
12.3416642975
 20
12.9686311403
 30
0.0
 40
0.0999999999999996
100
AcDbArc
 50
90.0
 51
180.0
  0
LINE
  5
88
330
1F
100
AcDbEntity
  8
0
 62
   255
370
    15
100
AcDbLine
 10
12.2416642975
 20
12.9686311403
 30
0.0
 11
12.2416642975
 21
10.9586311403
 31
0.0
  0
ARC
  5
89
330
1F
100
AcDbEntity
  8
0
 62
   255
370
    15
100
AcDbCircle
 10
12.3416642975
 20
10.9586311403
 30
0.0
 40
0.0999999999999996
100
AcDbArc
 50
180.0
 51
270.0
  0
LINE
  5
8A
330
1F
100
AcDbEntity
  8
0
 62
   255
370
    15
100
AcDbLine
 10
12.3416642975
 20
10.8586311403
 30
0.0
 11
14.3516643143
 21
10.858631132
 31
0.0
  0
ARC
  5
8B
330
1F
100
AcDbEntity
  8
0
 62
   255
370
    15
100
AcDbCircle
 10
14.3516642975
 20
10.9586311403
 30
0.0
 40
0.0999999999999979
100
AcDbArc
 50
270.0
 51
0.0000000000010178
  0
LINE
  5
8C
330
1F
100
AcDbEntity
  8
0
 62
   255
370
    15
100
AcDbLine
 10
11.6256643653
 20
10.1156310752
 30
0.0
 11
12.7279976377
 21
10.1156310752
 31
0.0
  0
LINE
  5
8D
330
1F
100
AcDbEntity
  8
0
 62
   255
370
    15
100
AcDbLine
 10
12.7279976377
 20
10.1156310752
 30
0.0
 11
12.7279976377
 21
10.2426312081
 31
0.0
  0
LINE
  5
8E
330
1F
100
AcDbEntity
  8
0
 62
   255
370
    15
100
AcDbLine
 10
12.7279976377
 20
10.2426312081
 30
0.0
 11
13.9653309573
 21
10.2426312081
 31
0.0
  0
LINE
  5
8F
330
1F
100
AcDbEntity
  8
0
 62
   255
370
    15
100
AcDbLine
 10
13.9653309573
 20
10.2426312081
 30
0.0
 11
13.9653309573
 21
10.1156310752
 31
0.0
  0
LINE
  5
90
330
1F
100
AcDbEntity
  8
0
 62
   255
370
    15
100
AcDbLine
 10
13.9653309573
 20
10.1156310752
 30
0.0
 11
15.0676642297
 21
10.1156310752
 31
0.0
  0
LINE
  5
91
330
1F
100
AcDbEntity
  8
0
 62
   255
370
    15
100
AcDbLine
 10
15.0676642297
 20
10.1156310752
 30
0.0
 11
15.0676642297
 21
11.3489644743
 31
0.0
  0
LINE
  5
92
330
1F
100
AcDbEntity
  8
0
 62
   255
370
    15
100
AcDbLine
 10
15.0676642297
 20
11.3489644743
 30
0.0
 11
15.1946643626
 21
11.3489644743
 31
0.0
  0
LINE
  5
93
330
1F
100
AcDbEntity
  8
0
 62
   255
370
    15
100
AcDbLine
 10
15.1946643626
 20
11.3489644743
 30
0.0
 11
15.1946643626
 21
12.5782978063
 31
0.0
  0
LINE
  5
94
330
1F
100
AcDbEntity
  8
0
 62
   255
370
    15
100
AcDbLine
 10
15.1946643626
 20
12.5782978063
 30
0.0
 11
15.0676642297
 21
12.5782978063
 31
0.0
  0
LINE
  5
95
330
1F
100
AcDbEntity
  8
0
 62
   255
370
    15
100
AcDbLine
 10
15.0676642297
 20
12.5782978063
 30
0.0
 11
15.0676642297
 21
13.6846310725
 31
0.0
  0
LINE
  5
96
330
1F
100
AcDbEntity
  8
0
 62
   255
370
    15
100
AcDbLine
 10
15.0676642297
 20
13.6846310725
 30
0.0
 11
13.9613309635
 21
13.6846310725
 31
0.0
  0
LINE
  5
97
330
1F
100
AcDbEntity
  8
0
 62
   255
370
    15
100
AcDbLine
 10
13.9613309635
 20
13.6846310725
 30
0.0
 11
13.9613309635
 21
13.8116312054
 31
0.0
  0
LINE
  5
98
330
1F
100
AcDbEntity
  8
0
 62
   255
370
    15
100
AcDbLine
 10
13.9613309635
 20
13.8116312054
 30
0.0
 11
12.7319976315
 21
13.8116312054
 31
0.0
  0
LINE
  5
99
330
1F
100
AcDbEntity
  8
0
 62
   255
370
    15
100
AcDbLine
 10
12.7319976315
 20
13.8116312054
 30
0.0
 11
12.7319976315
 21
13.6846310725
 31
0.0
  0
LINE
  5
9A
330
1F
100
AcDbEntity
  8
0
 62
   255
370
    15
100
AcDbLine
 10
12.7319976315
 20
13.6846310725
 30
0.0
 11
11.6256643653
 21
13.6846310725
 31
0.0
  0
LINE
  5
9B
330
1F
100
AcDbEntity
  8
0
 62
   255
370
    15
100
AcDbLine
 10
11.6256643653
 20
13.6846310725
 30
0.0
 11
11.6256643653
 21
12.5782978063
 31
0.0
  0
LINE
  5
9C
330
1F
100
AcDbEntity
  8
0
 62
   255
370
    15
100
AcDbLine
 10
11.6256643653
 20
12.5782978063
 30
0.0
 11
11.4986642324
 21
12.5782978063
 31
0.0
  0
LINE
  5
9D
330
1F
100
AcDbEntity
  8
0
 62
   255
370
    15
100
AcDbLine
 10
11.4986642324
 20
12.5782978063
 30
0.0
 11
11.4986642324
 21
11.3489644743
 31
0.0
  0
LINE
  5
9E
330
1F
100
AcDbEntity
  8
0
 62
   255
370
    15
100
AcDbLine
 10
11.4986642324
 20
11.3489644743
 30
0.0
 11
11.6256643653
 21
11.3489644743
 31
0.0
  0
LINE
  5
9F
330
1F
100
AcDbEntity
  8
0
 62
   255
370
    15
100
AcDbLine
 10
11.6256643653
 20
11.3489644743
 30
0.0
 11
11.6256643653
 21
10.1156310752
 31
0.0
  0
LINE
  5
A0
330
1F
100
AcDbEntity
  8
0
 62
   255
370
    15
100
AcDbLine
 10
4.0135729478
 20
10.668078489
 30
0.0
 11
6.0235729478
 21
10.668078489
 31
0.0
  0
ARC
  5
A1
330
1F
100
AcDbEntity
  8
0
 62
   255
370
    15
100
AcDbCircle
 10
6.0235729478
 20
10.768078489
 30
0.0
 40
0.0999999999999996
100
AcDbArc
 50
270.0
 51
0.0
  0
LINE
  5
A2
330
1F
100
AcDbEntity
  8
0
 62
   255
370
    15
100
AcDbLine
 10
6.1235729561
 20
10.7680784722
 30
0.0
 11
6.1235729478
 21
12.778078489
 31
0.0
  0
ARC
  5
A3
330
1F
100
AcDbEntity
  8
0
 62
   255
370
    15
100
AcDbCircle
 10
6.0235729478
 20
12.778078489
 30
0.0
 40
0.1000000000000005
100
AcDbArc
 50
0.0
 51
90.0
  0
LINE
  5
A4
330
1F
100
AcDbEntity
  8
0
 62
   255
370
    15
100
AcDbLine
 10
6.0235729478
 20
12.878078489
 30
0.0
 11
4.0135729478
 21
12.878078489
 31
0.0
  0
ARC
  5
A5
330
1F
100
AcDbEntity
  8
0
 62
   255
370
    15
100
AcDbCircle
 10
4.0135729478
 20
12.778078489
 30
0.0
 40
0.1000000000000005
100
AcDbArc
 50
90.0
 51
180.0
  0
LINE
  5
A6
330
1F
100
AcDbEntity
  8
0
 62
   255
370
    15
100
AcDbLine
 10
3.9135729478
 20
12.778078489
 30
0.0
 11
3.9135729478
 21
10.768078489
 31
0.0
  0
ARC
  5
A7
330
1F
100
AcDbEntity
  8
0
 62
   255
370
    15
100
AcDbCircle
 10
4.013572947799999
 20
10.768078489
 30
0.0
 40
0.0999999999999996
100
AcDbArc
 50
180.0
 51
270.0000000000005
  0
LINE
  5
A8
330
1F
100
AcDbEntity
  8
0
 62
   255
370
    15
100
AcDbLine
 10
3.1705728827
 20
11.1544118292
 30
0.0
 11
3.170572882715194
 21
10.7976482572853
 31
0.0
  0
SPLINE
  5
A9
330
1F
100
AcDbEntity
  8
0
 62
   255
370
    15
100
AcDbSpline
210
0.0
220
0.0
230
1.0
 70
     8
 71
     3
 72
    18
 73
    14
 74
     0
 42
0.0000000001
 43
0.0000000001
 40
0.0
 40
0.0
 40
0.0
 40
0.0
 40
0.0965047782605341
 40
0.1930105480604573
 40
0.2907061772479265
 40
0.3884025955480496
 40
0.4877919392277185
 40
0.5872581061834934
 40
0.6866486013540107
 40
0.788905350008691
 40
0.8912443117785382
 40
0.9935003763903094
 40
1.0
 40
1.0
 40
1.0
 40
1.0
 10
3.170572882715194
 20
10.7976482572853
 30
0.0
 10
3.239174064128476
 20
10.78685793789487
 30
0.0
 10
3.376377131768233
 20
10.76527718827818
 30
0.0
 10
3.580345958270008
 20
10.71834273207778
 30
0.0
 10
3.782392069696395
 20
10.66081057262956
 30
0.0
 10
3.982894765765831
 20
10.59137610204304
 30
0.0
 10
4.180443388506355
 20
10.51053313421769
 30
0.0
 10
4.374321178783338
 20
10.41836261328828
 30
0.0
 10
4.564645169601238
 20
10.31467916884538
 30
0.0
 10
4.750617106354414
 20
10.19938247524634
 30
0.0
 10
4.931436036358595
 20
10.07255605688935
 30
0.0
 10
5.050753438649865
 20
9.978449994069537
 30
0.0
 10
5.110629933294556
 20
9.92808822115991
 30
0.0
 10
5.11420836385412
 20
9.925078423938428
 30
0.0
  0
LINE
  5
AA
330
1F
100
AcDbEntity
  8
0
 62
   255
370
    15
100
AcDbLine
 10
5.1142083639
 20
9.9250784239
 30
0.0
 11
5.6332396138
 21
9.9250784239
 31
0.0
  0
LINE
  5
AB
330
1F
100
AcDbEntity
  8
0
 62
   255
370
    15
100
AcDbLine
 10
5.6332396138
 20
9.9250784239
 30
0.0
 11
5.6332396138
 21
10.0520785568
 31
0.0
  0
LINE
  5
AC
330
1F
100
AcDbEntity
  8
0
 62
   255
370
    15
100
AcDbLine
 10
5.6332396138
 20
10.0520785568
 30
0.0
 11
6.73957288
 21
10.0520785568
 31
0.0
  0
LINE
  5
AD
330
1F
100
AcDbEntity
  8
0
 62
   255
370
    15
100
AcDbLine
 10
6.73957288
 20
10.0520785568
 30
0.0
 11
6.73957288
 21
11.158411823
 31
0.0
  0
LINE
  5
AE
330
1F
100
AcDbEntity
  8
0
 62
   255
370
    15
100
AcDbLine
 10
6.73957288
 20
11.158411823
 30
0.0
 11
6.8665730129
 21
11.158411823
 31
0.0
  0
LINE
  5
AF
330
1F
100
AcDbEntity
  8
0
 62
   255
370
    15
100
AcDbLine
 10
6.8665730129
 20
11.158411823
 30
0.0
 11
6.8665730129
 21
12.387745155
 31
0.0
  0
LINE
  5
B0
330
1F
100
AcDbEntity
  8
0
 62
   255
370
    15
100
AcDbLine
 10
6.8665730129
 20
12.387745155
 30
0.0
 11
6.73957288
 21
12.387745155
 31
0.0
  0
LINE
  5
B1
330
1F
100
AcDbEntity
  8
0
 62
   255
370
    15
100
AcDbLine
 10
6.73957288
 20
12.387745155
 30
0.0
 11
6.73957288
 21
13.4940784212
 31
0.0
  0
LINE
  5
B2
330
1F
100
AcDbEntity
  8
0
 62
   255
370
    15
100
AcDbLine
 10
6.73957288
 20
13.4940784212
 30
0.0
 11
5.6332396138
 21
13.4940784212
 31
0.0
  0
LINE
  5
B3
330
1F
100
AcDbEntity
  8
0
 62
   255
370
    15
100
AcDbLine
 10
5.6332396138
 20
13.4940784212
 30
0.0
 11
5.6332396138
 21
13.6210785541
 31
0.0
  0
LINE
  5
B4
330
1F
100
AcDbEntity
  8
0
 62
   255
370
    15
100
AcDbLine
 10
5.6332396138
 20
13.6210785541
 30
0.0
 11
4.4039062818
 21
13.6210785541
 31
0.0
  0
LINE
  5
B5
330
1F
100
AcDbEntity
  8
0
 62
   255
370
    15
100
AcDbLine
 10
4.4039062818
 20
13.6210785541
 30
0.0
 11
4.4039062818
 21
13.4940784212
 31
0.0
  0
LINE
  5
B6
330
1F
100
AcDbEntity
  8
0
 62
   255
370
    15
100
AcDbLine
 10
4.4039062818
 20
13.4940784212
 30
0.0
 11
3.1705728827
 21
13.4940784212
 31
0.0
  0
LINE
  5
B7
330
1F
100
AcDbEntity
  8
0
 62
   255
370
    15
100
AcDbLine
 10
3.1705728827
 20
13.4940784212
 30
0.0
 11
3.1705728827
 21
12.3917451488
 31
0.0
  0
LINE
  5
B8
330
1F
100
AcDbEntity
  8
0
 62
   255
370
    15
100
AcDbLine
 10
3.1705728827
 20
12.3917451488
 30
0.0
 11
3.2975730156
 21
12.3917451488
 31
0.0
  0
LINE
  5
B9
330
1F
100
AcDbEntity
  8
0
 62
   255
370
    15
100
AcDbLine
 10
3.2975730156
 20
12.3917451488
 30
0.0
 11
3.2975730156
 21
11.1544118292
 31
0.0
  0
LINE
  5
BA
330
1F
100
AcDbEntity
  8
0
 62
   255
370
    15
100
AcDbLine
 10
3.2975730156
 20
11.1544118292
 30
0.0
 11
3.1705728827
 21
11.1544118292
 31
0.0
  0
LINE
  5
BB
330
1F
100
AcDbEntity
  8
0
 62
   255
370
    15
100
AcDbLine
 10
12.6887218859
 20
2.9447986684
 30
0.0
 11
13.21922657159195
 21
2.944798668391386
 31
0.0
  0
SPLINE
  5
BC
330
1F
100
AcDbEntity
  8
0
 62
   255
370
    15
100
AcDbSpline
210
0.0
220
0.0
230
1.0
 70
     8
 71
     3
 72
     9
 73
     5
 74
     0
 42
0.0000000001
 43
0.0000000001
 40
0.0
 40
0.0
 40
0.0
 40
0.0
 40
0.5701354400600044
 40
1.0
 40
1.0
 40
1.0
 40
1.0
 10
13.21922657159195
 20
2.944798668391386
 30
0.0
 10
13.22904413222511
 20
3.061975969997729
 30
0.0
 10
13.2462638311785
 20
3.267501347605189
 30
0.0
 10
13.26773817599931
 20
3.472623743747524
 30
0.0
 10
13.27696923579285
 20
3.560798592299543
 30
0.0
  0
LINE
  5
BD
330
1F
100
AcDbEntity
  8
0
 62
   255
370
    15
100
AcDbLine
 10
13.27696923579285
 20
3.560798592299543
 30
0.0
 11
12.3023885288
 21
3.5607985923
 31
0.0
  0
ARC
  5
BE
330
1F
100
AcDbEntity
  8
0
 62
   255
370
    15
100
AcDbCircle
 10
12.3023885456
 20
3.6607986006
 30
0.0
 40
0.1000000000000005
100
AcDbArc
 50
180.0
 51
270.0
  0
LINE
  5
BF
330
1F
100
AcDbEntity
  8
0
 62
   255
370
    15
100
AcDbLine
 10
12.2023885456
 20
3.6607986006
 30
0.0
 11
12.2023885456
 21
5.6707986006
 31
0.0
  0
ARC
  5
C0
330
1F
100
AcDbEntity
  8
0
 62
   255
370
    15
100
AcDbCircle
 10
12.3023885456
 20
5.6707986006
 30
0.0
 40
0.0999999999999996
100
AcDbArc
 50
90.0
 51
180.0
  0
LINE
  5
C1
330
1F
100
AcDbEntity
  8
0
 62
   255
370
    15
100
AcDbLine
 10
12.3023885456
 20
5.7707986006
 30
0.0
 11
13.6088663713
 21
5.7707986089
 31
0.0
  0
LINE
  5
C2
330
1F
100
AcDbEntity
  8
0
 62
   255
370
    15
100
AcDbLine
 10
13.6088663713
 20
5.7707986089
 30
0.0
 11
13.731865942
 21
6.3867985328
 31
0.0
  0
LINE
  5
C3
330
1F
100
AcDbEntity
  8
0
 62
   255
370
    15
100
AcDbLine
 10
13.731865942
 20
6.3867985328
 30
0.0
 11
12.6887218859
 21
6.3867985328
 31
0.0
  0
LINE
  5
C4
330
1F
100
AcDbEntity
  8
0
 62
   255
370
    15
100
AcDbLine
 10
12.6887218859
 20
6.3867985328
 30
0.0
 11
12.6887218859
 21
6.5137986657
 31
0.0
  0
LINE
  5
C5
330
1F
100
AcDbEntity
  8
0
 62
   255
370
    15
100
AcDbLine
 10
12.6887218859
 20
6.5137986657
 30
0.0
 11
11.4593884806
 21
6.5137986657
 31
0.0
  0
LINE
  5
C6
330
1F
100
AcDbEntity
  8
0
 62
   255
370
    15
100
AcDbLine
 10
11.4593884806
 20
6.5137986657
 30
0.0
 11
11.4593884806
 21
5.2844652604
 31
0.0
  0
LINE
  5
C7
330
1F
100
AcDbEntity
  8
0
 62
   255
370
    15
100
AcDbLine
 10
11.4593884806
 20
5.2844652604
 30
0.0
 11
11.5863886134
 21
5.2844652604
 31
0.0
  0
LINE
  5
C8
330
1F
100
AcDbEntity
  8
0
 62
   255
370
    15
100
AcDbLine
 10
11.5863886134
 20
5.2844652604
 30
0.0
 11
11.5863886134
 21
4.0471319408
 31
0.0
  0
LINE
  5
C9
330
1F
100
AcDbEntity
  8
0
 62
   255
370
    15
100
AcDbLine
 10
11.5863886134
 20
4.0471319408
 30
0.0
 11
11.4593884806
 21
4.0471319408
 31
0.0
  0
LINE
  5
CA
330
1F
100
AcDbEntity
  8
0
 62
   255
370
    15
100
AcDbLine
 10
11.4593884806
 20
4.0471319408
 30
0.0
 11
11.4593884806
 21
2.8177985355
 31
0.0
  0
LINE
  5
CB
330
1F
100
AcDbEntity
  8
0
 62
   255
370
    15
100
AcDbLine
 10
11.4593884806
 20
2.8177985355
 30
0.0
 11
12.6887218859
 21
2.8177985355
 31
0.0
  0
LINE
  5
CC
330
1F
100
AcDbEntity
  8
0
 62
   255
370
    15
100
AcDbLine
 10
12.6887218859
 20
2.8177985355
 30
0.0
 11
12.6887218859
 21
2.9447986684
 31
0.0
  0
MTEXT
  5
CD
330
1F
100
AcDbEntity
  8
0
 62
   255
370
     0
100
AcDbMText
 10
11.6575759016
 20
1.21782753372
 30
0.0
 40
0.1377952756
 41
0.855824874359036
 71
     7
 72
     1
  1
\fArial;cube_07
 73
     2
 44
0.9638554216867471
  0
MTEXT
  5
F0
330
1F
100
AcDbEntity
  8
0
 62
   255
370
     0
100
AcDbMText
 10
3.3388743193
 20
1.09346565012
 30
0.0
 40
0.1377952756
 41
0.855824874359036
 71
     7
 72
     1
  1
\fArial;cube_07
 73
     2
 44
0.9638554216867471
  0
MTEXT
  5
F1
330
1F
100
AcDbEntity
  8
0
 62
   255
370
     0
100
AcDbMText
 10
11.7981568612
 20
8.51202905612
 30
0.0
 40
0.1377952756
 41
0.855824874359036
 71
     7
 72
     1
  1
\fArial;cube_07
 73
     2
 44
0.9638554216867471
  0
MTEXT
  5
F2
330
1F
100
AcDbEntity
  8
0
 62
   255
370
     0
100
AcDbMText
 10
3.3983408701
 20
8.43379719522
 30
0.0
 40
0.1377952756
 41
0.855824874359036
 71
     7
 72
     1
  1
\fArial;cube_07
 73
     2
 44
0.9638554216867471
  0
MTEXT
  5
F3
330
1F
100
AcDbEntity
  8
0
 62
   255
370
     0
100
AcDbMText
 10
11.9255534149
 20
16.29402732522
 30
0.0
 40
0.1377952756
 41
0.855824874359036
 71
     7
 72
     1
  1
\fArial;cube_07
 73
     2
 44
0.9638554216867471
  0
MTEXT
  5
F4
330
1F
100
AcDbEntity
  8
0
 62
   255
370
     0
100
AcDbMText
 10
3.2908109974
 20
17.34581845932
 30
0.0
 40
0.1377952756
 41
1.730741865216867
 71
     7
 72
     1
  1
\fArial;acrylic_R^ cube_07
 73
     2
 44
0.9638554216867471
  0
VIEWPORT
  5
FE
330
FA
100
AcDbEntity
 67
     1
  8
0
100
AcDbViewport
 10
6.0
 20
4.5
 30
0.0
 40
12.696
 41
9.522
 68
     1
 69
     1
 12
6.0
 22
4.5
 13
0.0
 23
0.0
 14
0.5
 24
0.5
 15
0.5
 25
0.5
 16
0.0
 26
0.0
 36
1.0
 17
0.0
 27
0.0
 37
0.0
 42
50.0
 43
0.0
 44
0.0
 45
9.522
 50
0.0
 51
0.0
 72
   100
 90
   557152
  1

281
     0
 71
     1
 74
     0
110
0.0
120
0.0
130
0.0
111
1.0
121
0.0
131
0.0
112
0.0
122
1.0
132
0.0
 79
     0
146
0.0
170
     0
  0
ENDSEC
  0
SECTION
  2
OBJECTS
  0
DICTIONARY
  5
C
330
0
100
AcDbDictionary
281
     1
  3
ACAD_GROUP
350
D
  3
ACAD_LAYOUT
350
1A
  3
ACAD_MLEADERSTYLE
350
102
  3
ACAD_MLINESTYLE
350
17
  3
ACAD_PLOTSETTINGS
350
19
  3
ACAD_PLOTSTYLENAME
350
E
  3
ACAD_SCALELIST
350
CE
  3
ACAD_TABLESTYLE
350
101
  3
ACAD_VISUALSTYLE
350
2A
  3
AcDbVariableDictionary
350
FF
  0
DICTIONARY
  5
D
102
{ACAD_REACTORS
330
C
102
}
330
C
100
AcDbDictionary
281
     1
  0
DICTIONARY
  5
1A
102
{ACAD_REACTORS
330
C
102
}
330
C
100
AcDbDictionary
281
     1
  3
LAYOUT1
350
F6
  3
LAYOUT2
350
FB
  3
Model
350
22
  0
DICTIONARY
  5
102
102
{ACAD_REACTORS
330
C
102
}
330
C
100
AcDbDictionary
281
     1
  0
DICTIONARY
  5
17
102
{ACAD_REACTORS
330
C
102
}
330
C
100
AcDbDictionary
281
     1
  3
Standard
350
18
  0
DICTIONARY
  5
19
102
{ACAD_REACTORS
330
C
102
}
330
C
100
AcDbDictionary
281
     1
  0
ACDBDICTIONARYWDFLT
  5
E
102
{ACAD_REACTORS
330
C
102
}
330
C
100
AcDbDictionary
281
     1
  3
Normal
350
F
100
AcDbDictionaryWithDefault
340
F
  0
DICTIONARY
  5
CE
102
{ACAD_REACTORS
330
C
102
}
330
C
100
AcDbDictionary
281
     1
  3
A0
350
CF
  3
A1
350
D0
  3
A2
350
D1
  3
A3
350
D2
  3
A4
350
D3
  3
A5
350
D4
  3
A6
350
D5
  3
A7
350
D6
  3
A8
350
D7
  3
A9
350
D8
  3
B0
350
D9
  3
B1
350
DA
  3
B2
350
DB
  3
B3
350
DC
  3
B4
350
DD
  3
B5
350
DE
  3
B6
350
DF
  3
B7
350
E0
  3
B8
350
E1
  3
B9
350
E2
  3
C0
350
E3
  3
C1
350
E4
  3
C2
350
E5
  3
C3
350
E6
  3
C4
350
E7
  3
C5
350
E8
  3
C6
350
E9
  3
C7
350
EA
  3
C8
350
EB
  3
C9
350
EC
  3
D0
350
ED
  3
D1
350
EE
  3
D2
350
EF
  0
DICTIONARY
  5
101
102
{ACAD_REACTORS
330
C
102
}
330
C
100
AcDbDictionary
281
     1
  0
DICTIONARY
  5
2A
102
{ACAD_REACTORS
330
C
102
}
330
C
100
AcDbDictionary
281
     1
  3
2dWireframe
350
2F
  3
3D Hidden
350
31
  3
3dWireframe
350
30
  3
Basic
350
32
  3
Brighten
350
36
  3
ColorChange
350
3A
  3
Conceptual
350
34
  3
Dim
350
35
  3
Facepattern
350
39
  3
Flat
350
2B
  3
FlatWithEdges
350
2C
  3
Gouraud
350
2D
  3
GouraudWithEdges
350
2E
  3
Linepattern
350
38
  3
Realistic
350
33
  3
Thicken
350
37
  0
DICTIONARY
  5
FF
102
{ACAD_REACTORS
330
C
102
}
330
C
100
AcDbDictionary
281
     1
  3
CANNOSCALE
350
100
  0
LAYOUT
  5
F6
102
{ACAD_REACTORS
330
1A
102
}
330
1A
100
AcDbPlotSettings
  1

  2
none_device
  4
Letter_(8.50_x_11.00_Inches)
  6

 40
6.35
 41
6.35
 42
6.35000508
 43
6.35000508
 44
215.9
 45
279.4
 46
0.0
 47
0.0
 48
0.0
 49
0.0
140
0.0
141
0.0
142
1.0
143
1.0
 70
   688
 72
     0
 73
     1
 74
     5
  7

 75
    16
 76
     0
 77
     2
 78
   300
147
1.0
148
0.0
149
0.0
100
AcDbLayout
  1
LAYOUT1
 70
     1
 71
     1
 10
0.0
 20
0.0
 11
0.0
 21
0.0
 12
0.0
 22
0.0
 32
0.0
 14
0.0
 24
0.0
 34
0.0
 15
0.0
 25
0.0
 35
0.0
146
0.0
 13
0.0
 23
0.0
 33
0.0
 16
1.0
 26
0.0
 36
0.0
 17
0.0
 27
1.0
 37
0.0
 76
     0
330
F5
331
F9
  0
LAYOUT
  5
FB
102
{ACAD_REACTORS
330
1A
102
}
330
1A
100
AcDbPlotSettings
  1

  2
none_device
  4
Letter_(8.50_x_11.00_Inches)
  6

 40
6.35
 41
6.35
 42
6.35000508
 43
6.35000508
 44
215.9
 45
279.4
 46
0.0
 47
0.0
 48
0.0
 49
0.0
140
0.0
141
0.0
142
1.0
143
1.0
 70
   688
 72
     0
 73
     1
 74
     5
  7

 75
    16
 76
     0
 77
     2
 78
   300
147
1.0
148
0.0
149
0.0
100
AcDbLayout
  1
LAYOUT2
 70
     1
 71
     2
 10
0.0
 20
0.0
 11
0.0
 21
0.0
 12
0.0
 22
0.0
 32
0.0
 14
0.0
 24
0.0
 34
0.0
 15
0.0
 25
0.0
 35
0.0
146
0.0
 13
0.0
 23
0.0
 33
0.0
 16
1.0
 26
0.0
 36
0.0
 17
0.0
 27
1.0
 37
0.0
 76
     0
330
FA
331
FE
  0
LAYOUT
  5
22
102
{ACAD_REACTORS
330
1A
102
}
330
1A
100
AcDbPlotSettings
  1

  2
none_device
  4

  6

 40
0.0
 41
0.0
 42
0.0
 43
0.0
 44
0.0
 45
0.0
 46
0.0
 47
0.0
 48
0.0
 49
0.0
140
0.0
141
0.0
142
1.0
143
1.0
 70
  1712
 72
     0
 73
     0
 74
     0
  7

 75
     0
 76
     0
 77
     2
 78
   300
147
1.0
148
0.0
149
0.0
100
AcDbLayout
  1
Model
 70
     1
 71
     0
 10
0.0
 20
0.0
 11
12.0
 21
9.0
 12
0.0
 22
0.0
 32
0.0
 14
3.0850528871
 24
1.09346565012
 34
0.0
 15
15.1946643626
 25
21.6004792258
 35
0.0
146
0.0
 13
0.0
 23
0.0
 33
0.0
 16
1.0
 26
0.0
 36
0.0
 17
0.0
 27
1.0
 37
0.0
 76
     0
330
1F
331
29
  0
MLINESTYLE
  5
18
102
{ACAD_REACTORS
330
17
102
}
330
17
100
AcDbMlineStyle
  2
Standard
 70
     0
  3

 62
   256
 51
90.0
 52
90.0
 71
     2
 49
0.5
 62
   256
  6
BYLAYER
 49
-0.5
 62
   256
  6
BYLAYER
  0
ACDBPLACEHOLDER
  5
F
102
{ACAD_REACTORS
330
E
102
}
330
E
  0
SCALE
  5
CF
102
{ACAD_REACTORS
330
CE
102
}
330
CE
100
AcDbScale
 70
     0
300
1:1
140
1.0
141
1.0
290
     1
  0
SCALE
  5
D0
102
{ACAD_REACTORS
330
CE
102
}
330
CE
100
AcDbScale
 70
     0
300
1:2
140
1.0
141
2.0
290
     0
  0
SCALE
  5
D1
102
{ACAD_REACTORS
330
CE
102
}
330
CE
100
AcDbScale
 70
     0
300
1:4
140
1.0
141
4.0
290
     0
  0
SCALE
  5
D2
102
{ACAD_REACTORS
330
CE
102
}
330
CE
100
AcDbScale
 70
     0
300
1:5
140
1.0
141
5.0
290
     0
  0
SCALE
  5
D3
102
{ACAD_REACTORS
330
CE
102
}
330
CE
100
AcDbScale
 70
     0
300
1:8
140
1.0
141
8.0
290
     0
  0
SCALE
  5
D4
102
{ACAD_REACTORS
330
CE
102
}
330
CE
100
AcDbScale
 70
     0
300
1:10
140
1.0
141
10.0
290
     0
  0
SCALE
  5
D5
102
{ACAD_REACTORS
330
CE
102
}
330
CE
100
AcDbScale
 70
     0
300
1:16
140
1.0
141
16.0
290
     0
  0
SCALE
  5
D6
102
{ACAD_REACTORS
330
CE
102
}
330
CE
100
AcDbScale
 70
     0
300
1:20
140
1.0
141
20.0
290
     0
  0
SCALE
  5
D7
102
{ACAD_REACTORS
330
CE
102
}
330
CE
100
AcDbScale
 70
     0
300
1:30
140
1.0
141
30.0
290
     0
  0
SCALE
  5
D8
102
{ACAD_REACTORS
330
CE
102
}
330
CE
100
AcDbScale
 70
     0
300
1:40
140
1.0
141
40.0
290
     0
  0
SCALE
  5
D9
102
{ACAD_REACTORS
330
CE
102
}
330
CE
100
AcDbScale
 70
     0
300
1:50
140
1.0
141
50.0
290
     0
  0
SCALE
  5
DA
102
{ACAD_REACTORS
330
CE
102
}
330
CE
100
AcDbScale
 70
     0
300
1:100
140
1.0
141
100.0
290
     0
  0
SCALE
  5
DB
102
{ACAD_REACTORS
330
CE
102
}
330
CE
100
AcDbScale
 70
     0
300
2:1
140
2.0
141
1.0
290
     0
  0
SCALE
  5
DC
102
{ACAD_REACTORS
330
CE
102
}
330
CE
100
AcDbScale
 70
     0
300
4:1
140
4.0
141
1.0
290
     0
  0
SCALE
  5
DD
102
{ACAD_REACTORS
330
CE
102
}
330
CE
100
AcDbScale
 70
     0
300
8:1
140
8.0
141
1.0
290
     0
  0
SCALE
  5
DE
102
{ACAD_REACTORS
330
CE
102
}
330
CE
100
AcDbScale
 70
     0
300
10:1
140
10.0
141
1.0
290
     0
  0
SCALE
  5
DF
102
{ACAD_REACTORS
330
CE
102
}
330
CE
100
AcDbScale
 70
     0
300
100:1
140
100.0
141
1.0
290
     0
  0
SCALE
  5
E0
102
{ACAD_REACTORS
330
CE
102
}
330
CE
100
AcDbScale
 70
     0
300
1/128" = 1'-0"
140
0.0078125
141
12.0
290
     0
  0
SCALE
  5
E1
102
{ACAD_REACTORS
330
CE
102
}
330
CE
100
AcDbScale
 70
     0
300
1/64" = 1'-0"
140
0.015625
141
12.0
290
     0
  0
SCALE
  5
E2
102
{ACAD_REACTORS
330
CE
102
}
330
CE
100
AcDbScale
 70
     0
300
1/32" = 1'-0"
140
0.03125
141
12.0
290
     0
  0
SCALE
  5
E3
102
{ACAD_REACTORS
330
CE
102
}
330
CE
100
AcDbScale
 70
     0
300
1/16" = 1'-0"
140
0.0625
141
12.0
290
     0
  0
SCALE
  5
E4
102
{ACAD_REACTORS
330
CE
102
}
330
CE
100
AcDbScale
 70
     0
300
3/32" = 1'-0"
140
0.09375
141
12.0
290
     0
  0
SCALE
  5
E5
102
{ACAD_REACTORS
330
CE
102
}
330
CE
100
AcDbScale
 70
     0
300
1/8" = 1'-0"
140
0.125
141
12.0
290
     0
  0
SCALE
  5
E6
102
{ACAD_REACTORS
330
CE
102
}
330
CE
100
AcDbScale
 70
     0
300
3/16" = 1'-0"
140
0.1875
141
12.0
290
     0
  0
SCALE
  5
E7
102
{ACAD_REACTORS
330
CE
102
}
330
CE
100
AcDbScale
 70
     0
300
1/4" = 1'-0"
140
0.25
141
12.0
290
     0
  0
SCALE
  5
E8
102
{ACAD_REACTORS
330
CE
102
}
330
CE
100
AcDbScale
 70
     0
300
3/8" = 1'-0"
140
0.375
141
12.0
290
     0
  0
SCALE
  5
E9
102
{ACAD_REACTORS
330
CE
102
}
330
CE
100
AcDbScale
 70
     0
300
1/2" = 1'-0"
140
0.5
141
12.0
290
     0
  0
SCALE
  5
EA
102
{ACAD_REACTORS
330
CE
102
}
330
CE
100
AcDbScale
 70
     0
300
3/4" = 1'-0"
140
0.75
141
12.0
290
     0
  0
SCALE
  5
EB
102
{ACAD_REACTORS
330
CE
102
}
330
CE
100
AcDbScale
 70
     0
300
1" = 1'-0"
140
1.0
141
12.0
290
     0
  0
SCALE
  5
EC
102
{ACAD_REACTORS
330
CE
102
}
330
CE
100
AcDbScale
 70
     0
300
1-1/2" = 1'-0"
140
1.5
141
12.0
290
     0
  0
SCALE
  5
ED
102
{ACAD_REACTORS
330
CE
102
}
330
CE
100
AcDbScale
 70
     0
300
3" = 1'-0"
140
3.0
141
12.0
290
     0
  0
SCALE
  5
EE
102
{ACAD_REACTORS
330
CE
102
}
330
CE
100
AcDbScale
 70
     0
300
6" = 1'-0"
140
6.0
141
12.0
290
     0
  0
SCALE
  5
EF
102
{ACAD_REACTORS
330
CE
102
}
330
CE
100
AcDbScale
 70
     0
300
1'-0" = 1'-0"
140
12.0
141
12.0
290
     0
  0
VISUALSTYLE
  5
2F
102
{ACAD_REACTORS
330
2A
102
}
330
2A
100
AcDbVisualStyle
  2
2dWireframe
 70
     4
 71
     0
 72
     2
 73
     0
 90
        0
 40
-0.6
 41
-30.0
 62
     5
 63
     7
421
 16777215
 74
     1
 91
        4
 64
     7
 65
   257
 75
     1
175
     1
 42
1.0
 92
        0
 66
   257
 43
1.0
 76
     1
 77
     6
 78
     2
 67
     7
 79
     5
170
     0
171
     0
290
     0
174
     0
 93
        1
 44
0.0
173
     0
291
     0
 45
0.0
1001
ACAD
1000
AcDbSavedByObjectVersion
1070
     0
  0
VISUALSTYLE
  5
31
102
{ACAD_REACTORS
330
2A
102
}
330
2A
100
AcDbVisualStyle
  2
3D Hidden
 70
     6
 71
     1
 72
     2
 73
     2
 90
        0
 40
-0.6
 41
-30.0
 62
     5
 63
     7
421
 16777215
 74
     2
 91
        2
 64
     7
 65
   257
 75
     2
175
     1
 42
40.0
 92
        0
 66
   257
 43
1.0
 76
     1
 77
     6
 78
     2
 67
     7
 79
     3
170
     0
171
     0
290
     0
174
     0
 93
        1
 44
0.0
173
     0
291
     0
 45
0.0
1001
ACAD
1000
AcDbSavedByObjectVersion
1070
     0
  0
VISUALSTYLE
  5
30
102
{ACAD_REACTORS
330
2A
102
}
330
2A
100
AcDbVisualStyle
  2
3dWireframe
 70
     5
 71
     0
 72
     2
 73
     0
 90
        0
 40
-0.6
 41
-30.0
 62
     5
 63
     7
421
 16777215
 74
     1
 91
        4
 64
     7
 65
   257
 75
     1
175
     1
 42
1.0
 92
        0
 66
   257
 43
1.0
 76
     1
 77
     6
 78
     2
 67
     7
 79
     5
170
     0
171
     0
290
     0
174
     0
 93
        1
 44
0.0
173
     0
291
     0
 45
0.0
1001
ACAD
1000
AcDbSavedByObjectVersion
1070
     0
  0
VISUALSTYLE
  5
32
102
{ACAD_REACTORS
330
2A
102
}
330
2A
100
AcDbVisualStyle
  2
Basic
 70
     7
 71
     1
 72
     0
 73
     1
 90
        0
 40
-0.6
 41
-30.0
 62
     5
 63
     7
421
 16777215
 74
     0
 91
        4
 64
     7
 65
   257
 75
     1
175
     1
 42
1.0
 92
        8
 66
     7
 43
1.0
 76
     1
 77
     6
 78
     2
 67
     7
 79
     5
170
     0
171
     0
290
     0
174
     0
 93
        1
 44
0.0
173
     0
291
     1
 45
0.0
1001
ACAD
1000
AcDbSavedByObjectVersion
1070
     0
  0
VISUALSTYLE
  5
36
102
{ACAD_REACTORS
330
2A
102
}
330
2A
100
AcDbVisualStyle
  2
Brighten
 70
    12
 71
     2
 72
     2
 73
     0
 90
        0
 40
-0.6
 41
-30.0
 62
     5
 63
     7
421
 16777215
 74
     1
 91
        4
 64
     7
 65
   257
 75
     1
175
     1
 42
1.0
 92
        8
 66
     7
 43
1.0
 76
     1
 77
     6
 78
     2
 67
     7
 79
     5
170
     0
171
     0
290
     0
174
     0
 93
        1
 44
50.0
173
     0
291
     1
 45
0.0
1001
ACAD
1000
AcDbSavedByObjectVersion
1070
     0
  0
VISUALSTYLE
  5
3A
102
{ACAD_REACTORS
330
2A
102
}
330
2A
100
AcDbVisualStyle
  2
ColorChange
 70
    16
 71
     2
 72
     2
 73
     3
 90
        0
 40
-0.6
 41
-30.0
 62
     5
 63
     8
421
  8421504
 74
     1
 91
        4
 64
     7
 65
   257
 75
     1
175
     1
 42
1.0
 92
        8
 66
     8
424
  8421504
 43
1.0
 76
     1
 77
     6
 78
     2
 67
     7
 79
     5
170
     0
171
     0
290
     0
174
     0
 93
        1
 44
0.0
173
     0
291
     1
 45
0.0
1001
ACAD
1000
AcDbSavedByObjectVersion
1070
     0
  0
VISUALSTYLE
  5
34
102
{ACAD_REACTORS
330
2A
102
}
330
2A
100
AcDbVisualStyle
  2
Conceptual
 70
     9
 71
     3
 72
     2
 73
     0
 90
        0
 40
-0.6
 41
-30.0
 62
     5
 63
     7
421
 16777215
 74
     2
 91
        2
 64
     7
 65
   257
 75
     1
175
     1
 42
40.0
 92
        8
 66
     7
 43
1.0
 76
     1
 77
     6
 78
     2
 67
     7
 79
     3
170
     0
171
     0
290
     0
174
     0
 93
        1
 44
0.0
173
     0
291
     0
 45
0.0
1001
ACAD
1000
AcDbSavedByObjectVersion
1070
     0
  0
VISUALSTYLE
  5
35
102
{ACAD_REACTORS
330
2A
102
}
330
2A
100
AcDbVisualStyle
  2
Dim
 70
    11
 71
     2
 72
     2
 73
     0
 90
        0
 40
-0.6
 41
-30.0
 62
     5
 63
     7
421
 16777215
 74
     1
 91
        4
 64
     7
 65
   257
 75
     1
175
     1
 42
1.0
 92
        8
 66
     7
 43
1.0
 76
     1
 77
     6
 78
     2
 67
     7
 79
     5
170
     0
171
     0
290
     0
174
     0
 93
        1
 44
-50.0
173
     0
291
     1
 45
0.0
1001
ACAD
1000
AcDbSavedByObjectVersion
1070
     0
  0
VISUALSTYLE
  5
39
102
{ACAD_REACTORS
330
2A
102
}
330
2A
100
AcDbVisualStyle
  2
Facepattern
 70
    15
 71
     2
 72
     2
 73
     0
 90
        0
 40
-0.6
 41
-30.0
 62
     5
 63
     7
421
 16777215
 74
     1
 91
        4
 64
     7
 65
   257
 75
     1
175
     1
 42
1.0
 92
        8
 66
     7
 43
1.0
 76
     1
 77
     6
 78
     2
 67
     7
 79
     5
170
     0
171
     0
290
     0
174
     0
 93
        1
 44
0.0
173
     0
291
     1
 45
0.0
1001
ACAD
1000
AcDbSavedByObjectVersion
1070
     0
  0
VISUALSTYLE
  5
2B
102
{ACAD_REACTORS
330
2A
102
}
330
2A
100
AcDbVisualStyle
  2
Flat
 70
     0
 71
     2
 72
     1
 73
     1
 90
        2
 40
-0.6
 41
30.0
 62
     5
 63
     7
421
 16777215
 74
     0
 91
        4
 64
     7
 65
   257
 75
     1
175
     1
 42
1.0
 92
        8
 66
     7
 43
1.0
 76
     1
 77
     6
 78
     2
 67
     7
 79
     5
170
     0
171
     0
290
     0
174
     0
 93
       13
 44
0.0
173
     0
291
     1
 45
0.0
1001
ACAD
1000
AcDbSavedByObjectVersion
1070
     0
  0
VISUALSTYLE
  5
2C
102
{ACAD_REACTORS
330
2A
102
}
330
2A
100
AcDbVisualStyle
  2
FlatWithEdges
 70
     1
 71
     2
 72
     1
 73
     1
 90
        2
 40
-0.6
 41
30.0
 62
     5
 63
     7
421
 16777215
 74
     1
 91
        4
 64
     7
 65
   257
 75
     1
175
     1
 42
1.0
 92
        0
 66
   257
 43
1.0
 76
     1
 77
     6
 78
     2
 67
     7
 79
     5
170
     0
171
     0
290
     0
174
     0
 93
       13
 44
0.0
173
     0
291
     1
 45
0.0
1001
ACAD
1000
AcDbSavedByObjectVersion
1070
     0
  0
VISUALSTYLE
  5
2D
102
{ACAD_REACTORS
330
2A
102
}
330
2A
100
AcDbVisualStyle
  2
Gouraud
 70
     2
 71
     2
 72
     2
 73
     1
 90
        2
 40
-0.6
 41
30.0
 62
     5
 63
     7
421
 16777215
 74
     0
 91
        4
 64
     7
 65
   257
 75
     1
175
     1
 42
1.0
 92
        0
 66
     7
 43
1.0
 76
     1
 77
     6
 78
     2
 67
     7
 79
     5
170
     0
171
     0
290
     0
174
     0
 93
       13
 44
0.0
173
     0
291
     1
 45
0.0
1001
ACAD
1000
AcDbSavedByObjectVersion
1070
     0
  0
VISUALSTYLE
  5
2E
102
{ACAD_REACTORS
330
2A
102
}
330
2A
100
AcDbVisualStyle
  2
GouraudWithEdges
 70
     3
 71
     2
 72
     2
 73
     1
 90
        2
 40
-0.6
 41
30.0
 62
     5
 63
     7
421
 16777215
 74
     1
 91
        4
 64
     7
 65
   257
 75
     1
175
     1
 42
1.0
 92
        0
 66
   257
 43
1.0
 76
     1
 77
     6
 78
     2
 67
     7
 79
     5
170
     0
171
     0
290
     0
174
     0
 93
       13
 44
0.0
173
     0
291
     1
 45
0.0
1001
ACAD
1000
AcDbSavedByObjectVersion
1070
     0
  0
VISUALSTYLE
  5
38
102
{ACAD_REACTORS
330
2A
102
}
330
2A
100
AcDbVisualStyle
  2
Linepattern
 70
    14
 71
     2
 72
     2
 73
     0
 90
        0
 40
-0.6
 41
-30.0
 62
     5
 63
     7
421
 16777215
 74
     1
 91
        4
 64
     7
 65
   257
 75
     7
175
     7
 42
1.0
 92
        8
 66
     7
 43
1.0
 76
     1
 77
     6
 78
     2
 67
     7
 79
     5
170
     0
171
     0
290
     0
174
     0
 93
        1
 44
0.0
173
     0
291
     1
 45
0.0
1001
ACAD
1000
AcDbSavedByObjectVersion
1070
     0
  0
VISUALSTYLE
  5
33
102
{ACAD_REACTORS
330
2A
102
}
330
2A
100
AcDbVisualStyle
  2
Realistic
 70
     8
 71
     2
 72
     2
 73
     0
 90
        0
 40
-0.6
 41
-30.0
 62
     5
 63
     7
421
 16777215
 74
     1
 91
        0
 64
     7
 65
   257
 75
     1
175
     1
 42
1.0
 92
        8
 66
     8
424
  7895160
 43
1.0
 76
     1
 77
     6
 78
     2
 67
     7
 79
     5
170
     0
171
     0
290
     0
174
     0
 93
       13
 44
0.0
173
     0
291
     0
 45
0.0
1001
ACAD
1000
AcDbSavedByObjectVersion
1070
     0
  0
VISUALSTYLE
  5
37
102
{ACAD_REACTORS
330
2A
102
}
330
2A
100
AcDbVisualStyle
  2
Thicken
 70
    13
 71
     2
 72
     2
 73
     0
 90
        0
 40
-0.6
 41
-30.0
 62
     5
 63
     7
421
 16777215
 74
     1
 91
        4
 64
     7
 65
   257
 75
     1
175
     1
 42
1.0
 92
       12
 66
     7
 43
1.0
 76
     1
 77
     6
 78
     2
 67
     7
 79
     5
170
     0
171
     0
290
     0
174
     0
 93
        1
 44
0.0
173
     0
291
     1
 45
0.0
1001
ACAD
1000
AcDbSavedByObjectVersion
1070
     0
  0
DICTIONARYVAR
  5
100
102
{ACAD_REACTORS
330
FF
102
}
330
FF
100
DictionaryVariables
280
     0
  1
1:1
  0
ENDSEC
  0
EOF
