  0
SECTION
  2
HEADER
  9
$ACADVER
  1
AC1018
  9
$ACADMAINTVER
 70
     0
  9
$DWGCODEPAGE
  3
ANSI_1252
  9
$INSBASE
 10
0.0
 20
0.0
 30
0.0
  9
$EXTMIN
 10
3.1166081781
 20
1.09346565012
 30
0.0
  9
$EXTMAX
 10
13.8446642946
 20
20.25047916069853
 30
0.0
  9
$LIMMIN
 10
0.0
 20
0.0
  9
$LIMMAX
 10
12.0
 20
9.0
  9
$ORTHOMODE
 70
     0
  9
$REGENMODE
 70
     1
  9
$FILLMODE
 70
     1
  9
$QTEXTMODE
 70
     0
  9
$MIRRTEXT
 70
     1
  9
$LTSCALE
 40
0.0393700787401575
  9
$ATTMODE
 70
     1
  9
$TEXTSIZE
 40
0.2
  9
$TRACEWID
 40
0.05
  9
$TEXTSTYLE
  7
Standard
  9
$CLAYER
  8
0
  9
$CELTYPE
  6
ByLayer
  9
$CECOLOR
 62
   256
  9
$CELTSCALE
 40
1.0
  9
$DISPSILH
 70
     0
  9
$DIMSCALE
 40
1.0
  9
$DIMASZ
 40
0.18
  9
$DIMEXO
 40
0.0625
  9
$DIMDLI
 40
0.38
  9
$DIMRND
 40
0.0
  9
$DIMDLE
 40
0.0
  9
$DIMEXE
 40
0.18
  9
$DIMTP
 40
0.0
  9
$DIMTM
 40
0.0
  9
$DIMTXT
 40
0.18
  9
$DIMCEN
 40
0.09
  9
$DIMTSZ
 40
0.0
  9
$DIMTOL
 70
     0
  9
$DIMLIM
 70
     0
  9
$DIMTIH
 70
     1
  9
$DIMTOH
 70
     1
  9
$DIMSE1
 70
     0
  9
$DIMSE2
 70
     0
  9
$DIMTAD
 70
     0
  9
$DIMZIN
 70
     0
  9
$DIMBLK
  1

  9
$DIMASO
 70
     1
  9
$DIMSHO
 70
     1
  9
$DIMPOST
  1

  9
$DIMAPOST
  1

  9
$DIMALT
 70
     0
  9
$DIMALTD
 70
     2
  9
$DIMALTF
 40
25.4
  9
$DIMLFAC
 40
1.0
  9
$DIMTOFL
 70
     0
  9
$DIMTVP
 40
0.0
  9
$DIMTIX
 70
     0
  9
$DIMSOXD
 70
     0
  9
$DIMSAH
 70
     0
  9
$DIMBLK1
  1

  9
$DIMBLK2
  1

  9
$DIMSTYLE
  2
Standard
  9
$DIMCLRD
 70
     0
  9
$DIMCLRE
 70
     0
  9
$DIMCLRT
 70
     0
  9
$DIMTFAC
 40
1.0
  9
$DIMGAP
 40
0.09
  9
$DIMJUST
 70
     0
  9
$DIMSD1
 70
     0
  9
$DIMSD2
 70
     0
  9
$DIMTOLJ
 70
     1
  9
$DIMTZIN
 70
     0
  9
$DIMALTZ
 70
     0
  9
$DIMALTTZ
 70
     0
  9
$DIMUPT
 70
     0
  9
$DIMDEC
 70
     4
  9
$DIMTDEC
 70
     4
  9
$DIMALTU
 70
     2
  9
$DIMALTTD
 70
     2
  9
$DIMTXSTY
  7
Standard
  9
$DIMAUNIT
 70
     0
  9
$DIMADEC
 70
     0
  9
$DIMALTRND
 40
0.0
  9
$DIMAZIN
 70
     0
  9
$DIMDSEP
 70
    46
  9
$DIMATFIT
 70
     3
  9
$DIMFRAC
 70
     0
  9
$DIMLDRBLK
  1

  9
$DIMLUNIT
 70
     2
  9
$DIMLWD
 70
    -2
  9
$DIMLWE
 70
    -2
  9
$DIMTMOVE
 70
     2
  9
$LUNITS
 70
     2
  9
$LUPREC
 70
     2
  9
$SKETCHINC
 40
0.1
  9
$FILLETRAD
 40
0.5
  9
$AUNITS
 70
     0
  9
$AUPREC
 70
     0
  9
$MENU
  1
.
  9
$ELEVATION
 40
0.0
  9
$PELEVATION
 40
0.0
  9
$THICKNESS
 40
0.0
  9
$LIMCHECK
 70
     0
  9
$CHAMFERA
 40
0.5
  9
$CHAMFERB
 40
0.5
  9
$CHAMFERC
 40
1.0
  9
$CHAMFERD
 40
0.0
  9
$SKPOLY
 70
     0
  9
$TDCREATE
 40
2455388.587974213
  9
$TDUCREATE
 40
2455388.87964088
  9
$TDUPDATE
 40
2455388.587974225
  9
$TDUUPDATE
 40
2455388.879640891
  9
$TDINDWG
 40
0.0000000116
  9
$TDUSRTIMER
 40
0.0000000116
  9
$USRTIMER
 70
     1
  9
$ANGBASE
 50
0.0
  9
$ANGDIR
 70
     0
  9
$PDMODE
 70
     0
  9
$PDSIZE
 40
0.0
  9
$PLINEWID
 40
0.0
  9
$SPLFRAME
 70
     0
  9
$SPLINETYPE
 70
     6
  9
$SPLINESEGS
 70
     8
  9
$HANDSEED
  5
E8
  9
$SURFTAB1
 70
     6
  9
$SURFTAB2
 70
     6
  9
$SURFTYPE
 70
     6
  9
$SURFU
 70
     6
  9
$SURFV
 70
     6
  9
$UCSBASE
  2

  9
$UCSNAME
  2

  9
$UCSORG
 10
0.0
 20
0.0
 30
0.0
  9
$UCSXDIR
 10
1.0
 20
0.0
 30
0.0
  9
$UCSYDIR
 10
0.0
 20
1.0
 30
0.0
  9
$UCSORTHOREF
  2

  9
$UCSORTHOVIEW
 70
     0
  9
$UCSORGTOP
 10
0.0
 20
0.0
 30
0.0
  9
$UCSORGBOTTOM
 10
0.0
 20
0.0
 30
0.0
  9
$UCSORGLEFT
 10
0.0
 20
0.0
 30
0.0
  9
$UCSORGRIGHT
 10
0.0
 20
0.0
 30
0.0
  9
$UCSORGFRONT
 10
0.0
 20
0.0
 30
0.0
  9
$UCSORGBACK
 10
0.0
 20
0.0
 30
0.0
  9
$PUCSBASE
  2

  9
$PUCSNAME
  2

  9
$PUCSORG
 10
0.0
 20
0.0
 30
0.0
  9
$PUCSXDIR
 10
1.0
 20
0.0
 30
0.0
  9
$PUCSYDIR
 10
0.0
 20
1.0
 30
0.0
  9
$PUCSORTHOREF
  2

  9
$PUCSORTHOVIEW
 70
     0
  9
$PUCSORGTOP
 10
0.0
 20
0.0
 30
0.0
  9
$PUCSORGBOTTOM
 10
0.0
 20
0.0
 30
0.0
  9
$PUCSORGLEFT
 10
0.0
 20
0.0
 30
0.0
  9
$PUCSORGRIGHT
 10
0.0
 20
0.0
 30
0.0
  9
$PUCSORGFRONT
 10
0.0
 20
0.0
 30
0.0
  9
$PUCSORGBACK
 10
0.0
 20
0.0
 30
0.0
  9
$USERI1
 70
     0
  9
$USERI2
 70
     0
  9
$USERI3
 70
     0
  9
$USERI4
 70
     0
  9
$USERI5
 70
     0
  9
$USERR1
 40
0.0
  9
$USERR2
 40
0.0
  9
$USERR3
 40
0.0
  9
$USERR4
 40
0.0
  9
$USERR5
 40
0.0
  9
$WORLDVIEW
 70
     1
  9
$SHADEDGE
 70
     3
  9
$SHADEDIF
 70
    70
  9
$TILEMODE
 70
     0
  9
$MAXACTVP
 70
    64
  9
$PINSBASE
 10
0.0
 20
0.0
 30
0.0
  9
$PLIMCHECK
 70
     0
  9
$PEXTMIN
 10
0.0
 20
0.0
 30
0.0
  9
$PEXTMAX
 10
0.0
 20
0.0
 30
0.0
  9
$PLIMMIN
 10
0.0
 20
0.0
  9
$PLIMMAX
 10
12.0
 20
9.0
  9
$UNITMODE
 70
     0
  9
$VISRETAIN
 70
     1
  9
$PLINEGEN
 70
     0
  9
$PSLTSCALE
 70
     1
  9
$TREEDEPTH
 70
  3020
  9
$CMLSTYLE
  2
Standard
  9
$CMLJUST
 70
     0
  9
$CMLSCALE
 40
1.0
  9
$PROXYGRAPHICS
 70
     1
  9
$MEASUREMENT
 70
     0
  9
$CELWEIGHT
370
    -1
  9
$ENDCAPS
280
     0
  9
$JOINSTYLE
280
     0
  9
$LWDISPLAY
290
     0
  9
$INSUNITS
 70
     1
  9
$HYPERLINKBASE
  1

  9
$STYLESHEET
  1

  9
$XEDIT
290
     1
  9
$CEPSNTYPE
380
     0
  9
$PSTYLEMODE
290
     1
  9
$FINGERPRINTGUID
  2
{8066F471-05C6-4D5E-834B-4E2DFC4D6CE3}
  9
$VERSIONGUID
  2
{FAEB1C32-E019-11D5-929B-00C0DF256EC4}
  9
$EXTNAMES
290
     1
  9
$PSVPSCALE
 40
0.0
  9
$OLESTARTUP
290
     0
  9
$SORTENTS
280
   127
  9
$INDEXCTL
280
     0
  9
$HIDETEXT
280
     1
  9
$XCLIPFRAME
290
     0
  9
$HALOGAP
280
     0
  9
$OBSCOLOR
 70
   257
  9
$OBSLTYPE
280
     0
  9
$INTERSECTIONDISPLAY
280
     0
  9
$INTERSECTIONCOLOR
 70
   257
  9
$DIMASSOC
280
     2
  9
$PROJECTNAME
  1

  0
ENDSEC
  0
SECTION
  2
CLASSES
  0
CLASS
  1
ACDBDICTIONARYWDFLT
  2
AcDbDictionaryWithDefault
  3
ObjectDBX Classes
 90
        0
 91
        4
280
     0
281
     0
  0
CLASS
  1
VISUALSTYLE
  2
AcDbVisualStyle
  3
ObjectDBX Classes
 90
     4095
 91
        4
280
     0
281
     0
  0
CLASS
  1
SCALE
  2
AcDbScale
  3
ObjectDBX Classes
 90
     1153
 91
        4
280
     0
281
     0
  0
CLASS
  1
DICTIONARYVAR
  2
AcDbDictionaryVar
  3
ObjectDBX Classes
 90
        0
 91
        4
280
     0
281
     0
  0
ENDSEC
  0
SECTION
  2
TABLES
  0
TABLE
  2
VPORT
  5
8
330
0
100
AcDbSymbolTable
 70
     1
  0
VPORT
  5
29
330
8
100
AcDbSymbolTableRecord
100
AcDbViewportTableRecord
  2
*Active
 70
     0
 10
0.0
 20
0.0
 11
1.0
 21
1.0
 12
8.48063623635
 22
10.67585363900533
 13
0.0
 23
0.0
 14
0.5
 24
0.5
 15
0.5
 25
0.5
 16
0.0
 26
0.0
 36
1.0
 17
0.0
 27
0.0
 37
0.0
 40
19.53223606425412
 41
0.5602337183941803
 42
50.0
 43
0.0
 44
0.0
 50
0.0
 51
0.0
 71
     0
 72
   100
 73
     1
 74
     3
 75
     0
 76
     0
 77
     0
 78
     0
281
     0
 65
     1
110
0.0
120
0.0
130
0.0
111
1.0
121
0.0
131
0.0
112
0.0
122
1.0
132
0.0
 79
     0
146
0.0
  0
ENDTAB
  0
TABLE
  2
LTYPE
  5
5
330
0
100
AcDbSymbolTable
 70
     1
  0
LTYPE
  5
14
330
5
100
AcDbSymbolTableRecord
100
AcDbLinetypeTableRecord
  2
ByBlock
 70
     0
  3

 72
    65
 73
     0
 40
0.0
  0
LTYPE
  5
15
330
5
100
AcDbSymbolTableRecord
100
AcDbLinetypeTableRecord
  2
ByLayer
 70
     0
  3

 72
    65
 73
     0
 40
0.0
  0
LTYPE
  5
16
330
5
100
AcDbSymbolTableRecord
100
AcDbLinetypeTableRecord
  2
Continuous
 70
     0
  3
Solid line
 72
    65
 73
     0
 40
0.0
  0
ENDTAB
  0
TABLE
  2
LAYER
  5
2
330
0
100
AcDbSymbolTable
 70
     1
  0
LAYER
  5
10
330
2
100
AcDbSymbolTableRecord
100
AcDbLayerTableRecord
  2
0
 70
     0
 62
     7
  6
Continuous
370
    -3
390
F
  0
ENDTAB
  0
TABLE
  2
STYLE
  5
3
330
0
100
AcDbSymbolTable
 70
     1
  0
STYLE
  5
11
330
3
100
AcDbSymbolTableRecord
100
AcDbTextStyleTableRecord
  2
Standard
 70
     0
 40
0.0
 41
1.0
 50
0.0
 71
     0
 42
0.2
  3
txt
  4

  0
ENDTAB
  0
TABLE
  2
VIEW
  5
6
330
0
100
AcDbSymbolTable
 70
     0
  0
ENDTAB
  0
TABLE
  2
UCS
  5
7
330
0
100
AcDbSymbolTable
 70
     0
  0
ENDTAB
  0
TABLE
  2
APPID
  5
9
330
0
100
AcDbSymbolTable
 70
     1
  0
APPID
  5
12
330
9
100
AcDbSymbolTableRecord
100
AcDbRegAppTableRecord
  2
ACAD
 70
     0
  0
ENDTAB
  0
TABLE
  2
DIMSTYLE
  5
A
330
0
100
AcDbSymbolTable
 70
     1
100
AcDbDimStyleTable
  0
DIMSTYLE
105
27
330
A
100
AcDbSymbolTableRecord
100
AcDbDimStyleTableRecord
  2
Standard
 70
     0
340
11
  0
ENDTAB
  0
TABLE
  2
BLOCK_RECORD
  5
1
330
0
100
AcDbSymbolTable
 70
     3
  0
BLOCK_RECORD
  5
1F
330
1
100
AcDbSymbolTableRecord
100
AcDbBlockTableRecord
  2
*Model_Space
340
22
  0
BLOCK_RECORD
  5
DF
330
1
100
AcDbSymbolTableRecord
100
AcDbBlockTableRecord
  2
*Paper_Space
340
E0
  0
BLOCK_RECORD
  5
23
330
1
100
AcDbSymbolTableRecord
100
AcDbBlockTableRecord
  2
*Paper_Space0
340
26
  0
BLOCK_RECORD
  5
1B
330
1
100
AcDbSymbolTableRecord
100
AcDbBlockTableRecord
  2
*Paper_Space1
340
1E
  0
BLOCK_RECORD
  5
DA
330
1
100
AcDbSymbolTableRecord
100
AcDbBlockTableRecord
  2
*Paper_Space2
340
DB
  0
ENDTAB
  0
ENDSEC
  0
SECTION
  2
BLOCKS
  0
BLOCK
  5
20
330
1F
100
AcDbEntity
  8
0
100
AcDbBlockBegin
  2
*Model_Space
 70
     0
 10
0.0
 20
0.0
 30
0.0
  3
*Model_Space
  1

  0
ENDBLK
  5
21
330
1F
100
AcDbEntity
  8
0
100
AcDbBlockEnd
  0
BLOCK
  5
E1
330
DF
100
AcDbEntity
 67
     1
  8
0
100
AcDbBlockBegin
  2
*Paper_Space
 70
     0
 10
0.0
 20
0.0
 30
0.0
  3
*Paper_Space
  1

  0
ENDBLK
  5
E2
330
DF
100
AcDbEntity
 67
     1
  8
0
100
AcDbBlockEnd
  0
BLOCK
  5
24
330
23
100
AcDbEntity
  8
0
100
AcDbBlockBegin
  2
*Paper_Space0
 70
     0
 10
0.0
 20
0.0
 30
0.0
  3
*Paper_Space0
  1

  0
ENDBLK
  5
25
330
23
100
AcDbEntity
  8
0
100
AcDbBlockEnd
  0
BLOCK
  5
1C
330
1B
100
AcDbEntity
  8
0
100
AcDbBlockBegin
  2
*Paper_Space1
 70
     0
 10
0.0
 20
0.0
 30
0.0
  3
*Paper_Space1
  1

  0
ENDBLK
  5
1D
330
1B
100
AcDbEntity
  8
0
100
AcDbBlockEnd
  0
BLOCK
  5
DC
330
DA
100
AcDbEntity
  8
0
100
AcDbBlockBegin
  2
*Paper_Space2
 70
     0
 10
0.0
 20
0.0
 30
0.0
  3
*Paper_Space2
  1

  0
VIEWPORT
  5
DE
330
DA
100
AcDbEntity
  8
0
100
AcDbViewport
 10
6.0
 20
4.5
 30
0.0
 40
12.696
 41
9.522
 68
     1
 69
     1
 12
6.0
 22
4.5
 13
0.0
 23
0.0
 14
0.5
 24
0.5
 15
0.5
 25
0.5
 16
0.0
 26
0.0
 36
1.0
 17
0.0
 27
0.0
 37
0.0
 42
50.0
 43
0.0
 44
0.0
 45
9.522
 50
0.0
 51
0.0
 72
   100
 90
   557152
  1

281
     0
 71
     1
 74
     0
110
0.0
120
0.0
130
0.0
111
1.0
121
0.0
131
0.0
112
0.0
122
1.0
132
0.0
 79
     0
146
0.0
170
     0
  0
ENDBLK
  5
DD
330
DA
100
AcDbEntity
  8
0
100
AcDbBlockEnd
  0
ENDSEC
  0
SECTION
  2
ENTITIES
  0
MTEXT
  5
3B
330
1F
100
AcDbEntity
  8
0
 62
   255
370
     0
100
AcDbMText
 10
11.6575759016
 20
1.21782753372
 30
0.0
 40
0.1377952756
 41
0.855824874359036
 71
     7
 72
     1
  1
\fArial;cube_13
 73
     2
 44
0.9638554216867471
  0
LINE
  5
5E
330
1F
100
AcDbEntity
  8
0
 62
   255
370
    15
100
AcDbLine
 10
13.4328840151
 20
5.0367986114
 30
0.0
 11
13.6957017331
 21
4.8344652621
 31
0.0
  0
LINE
  5
5F
330
1F
100
AcDbEntity
  8
0
 62
   255
370
    15
100
AcDbLine
 10
13.4328840151
 20
5.0367986114
 30
0.0
 11
13.1387218841
 21
5.0367986114
 31
0.0
  0
LINE
  5
60
330
1F
100
AcDbEntity
  8
0
 62
   255
370
    15
100
AcDbLine
 10
13.1387218841
 20
5.0367986114
 30
0.0
 11
13.1387218841
 21
5.1637985976
 31
0.0
  0
LINE
  5
61
330
1F
100
AcDbEntity
  8
0
 62
   255
370
    15
100
AcDbLine
 10
13.1387218841
 20
5.1637985976
 30
0.0
 11
12.8093885486
 21
5.1637985976
 31
0.0
  0
LINE
  5
62
330
1F
100
AcDbEntity
  8
0
 62
   255
370
    15
100
AcDbLine
 10
12.8093885486
 20
5.1637985976
 30
0.0
 11
12.8093885486
 21
4.8344652621
 31
0.0
  0
LINE
  5
63
330
1F
100
AcDbEntity
  8
0
 62
   255
370
    15
100
AcDbLine
 10
12.8093885486
 20
4.8344652621
 30
0.0
 11
12.9363885348
 21
4.8344652621
 31
0.0
  0
LINE
  5
64
330
1F
100
AcDbEntity
  8
0
 62
   255
370
    15
100
AcDbLine
 10
12.9363885348
 20
4.8344652621
 30
0.0
 11
12.9363885348
 21
4.497131939
 31
0.0
  0
LINE
  5
65
330
1F
100
AcDbEntity
  8
0
 62
   255
370
    15
100
AcDbLine
 10
12.9363885348
 20
4.497131939
 30
0.0
 11
12.8093885486
 21
4.497131939
 31
0.0
  0
LINE
  5
66
330
1F
100
AcDbEntity
  8
0
 62
   255
370
    15
100
AcDbLine
 10
12.8093885486
 20
4.497131939
 30
0.0
 11
12.8093885486
 21
4.1677986035
 31
0.0
  0
LINE
  5
67
330
1F
100
AcDbEntity
  8
0
 62
   255
370
    15
100
AcDbLine
 10
12.8093885486
 20
4.1677986035
 30
0.0
 11
13.1387218841
 21
4.1677986035
 31
0.0
  0
LINE
  5
68
330
1F
100
AcDbEntity
  8
0
 62
   255
370
    15
100
AcDbLine
 10
13.1387218841
 20
4.1677986035
 30
0.0
 11
13.1387218841
 21
4.2947985897
 31
0.0
  0
LINE
  5
69
330
1F
100
AcDbEntity
  8
0
 62
   255
370
    15
100
AcDbLine
 10
13.1387218841
 20
4.2947985897
 30
0.0
 11
13.4760552072
 21
4.2947985897
 31
0.0
  0
LINE
  5
6A
330
1F
100
AcDbEntity
  8
0
 62
   255
370
    15
100
AcDbLine
 10
13.4760552072
 20
4.2947985897
 30
0.0
 11
13.4760552072
 21
4.1677986035
 31
0.0
  0
LINE
  5
6B
330
1F
100
AcDbEntity
  8
0
 62
   255
370
    15
100
AcDbLine
 10
13.4760552072
 20
4.1677986035
 30
0.0
 11
13.8053885427
 21
4.1677986035
 31
0.0
  0
LINE
  5
6C
330
1F
100
AcDbEntity
  8
0
 62
   255
370
    15
100
AcDbLine
 10
13.8053885427
 20
4.1677986035
 30
0.0
 11
13.8053885427
 21
4.497131939
 31
0.0
  0
LINE
  5
6D
330
1F
100
AcDbEntity
  8
0
 62
   255
370
    15
100
AcDbLine
 10
13.8053885427
 20
4.497131939
 30
0.0
 11
13.6783885565
 21
4.497131939
 31
0.0
  0
LINE
  5
6E
330
1F
100
AcDbEntity
  8
0
 62
   255
370
    15
100
AcDbLine
 10
13.6783885565
 20
4.497131939
 30
0.0
 11
13.6783885565
 21
4.8344652621
 31
0.0
  0
LINE
  5
6F
330
1F
100
AcDbEntity
  8
0
 62
   255
370
    15
100
AcDbLine
 10
13.6783885565
 20
4.8344652621
 30
0.0
 11
13.6957017331
 21
4.8344652621
 31
0.0
  0
MTEXT
  5
70
330
1F
100
AcDbEntity
  8
0
 62
   255
370
     0
100
AcDbMText
 10
3.3388743193
 20
1.09346565012
 30
0.0
 40
0.1377952756
 41
0.855824874359036
 71
     7
 72
     1
  1
\fArial;cube_13
 73
     2
 44
0.9638554216867471
  0
LINE
  5
71
330
1F
100
AcDbEntity
  8
0
 62
   255
370
    15
100
AcDbLine
 10
5.2625963418
 20
5.124231549
 30
0.0
 11
5.0602629925
 21
5.124231549
 31
0.0
  0
LINE
  5
72
330
1F
100
AcDbEntity
  8
0
 62
   255
370
    15
100
AcDbLine
 10
5.2625963418
 20
4.7908982197
 30
0.0
 11
5.2625963418
 21
5.124231549
 31
0.0
  0
LINE
  5
73
330
1F
100
AcDbEntity
  8
0
 62
   255
370
    15
100
AcDbLine
 10
5.0602629925
 20
5.124231549
 30
0.0
 11
5.0602629925
 21
4.9972315628
 31
0.0
  0
LINE
  5
74
330
1F
100
AcDbEntity
  8
0
 62
   255
370
    15
100
AcDbLine
 10
4.7229296694
 20
4.9972315628
 30
0.0
 11
4.7229296694
 21
5.0982904387
 31
0.0
  0
LINE
  5
75
330
1F
100
AcDbEntity
  8
0
 62
   255
370
    15
100
AcDbLine
 10
4.3935963339
 20
4.7110052901
 30
0.0
 11
4.4702742848
 21
4.7908982197
 31
0.0
  0
LINE
  5
76
330
1F
100
AcDbEntity
  8
0
 62
   255
370
    15
100
AcDbLine
 10
4.3935963339
 20
4.7110052901
 30
0.0
 11
4.3935963339
 21
4.4615648842
 31
0.0
  0
LINE
  5
77
330
1F
100
AcDbEntity
  8
0
 62
   255
370
    15
100
AcDbLine
 10
4.3935963339
 20
4.4615648842
 30
0.0
 11
4.5205963201
 21
4.4615648842
 31
0.0
  0
LINE
  5
78
330
1F
100
AcDbEntity
  8
0
 62
   255
370
    15
100
AcDbLine
 10
4.5205963201
 20
4.4615648842
 30
0.0
 11
4.5205963201
 21
4.2552315411
 31
0.0
  0
LINE
  5
79
330
1F
100
AcDbEntity
  8
0
 62
   255
370
    15
100
AcDbLine
 10
4.5205963201
 20
4.2552315411
 30
0.0
 11
4.7269296632
 21
4.2552315411
 31
0.0
  0
LINE
  5
7A
330
1F
100
AcDbEntity
  8
0
 62
   255
370
    15
100
AcDbLine
 10
4.7269296632
 20
4.2552315411
 30
0.0
 11
4.7269296632
 21
4.1282315549
 31
0.0
  0
LINE
  5
7B
330
1F
100
AcDbEntity
  8
0
 62
   255
370
    15
100
AcDbLine
 10
4.7269296632
 20
4.1282315549
 30
0.0
 11
5.0562629987
 21
4.1282315549
 31
0.0
  0
LINE
  5
7C
330
1F
100
AcDbEntity
  8
0
 62
   255
370
    15
100
AcDbLine
 10
5.0562629987
 20
4.1282315549
 30
0.0
 11
5.0562629987
 21
4.2552315411
 31
0.0
  0
LINE
  5
7D
330
1F
100
AcDbEntity
  8
0
 62
   255
370
    15
100
AcDbLine
 10
5.0562629987
 20
4.2552315411
 30
0.0
 11
5.2625963418
 21
4.2552315411
 31
0.0
  0
LINE
  5
7E
330
1F
100
AcDbEntity
  8
0
 62
   255
370
    15
100
AcDbLine
 10
5.2625963418
 20
4.2552315411
 30
0.0
 11
5.2625963418
 21
4.4615648842
 31
0.0
  0
LINE
  5
7F
330
1F
100
AcDbEntity
  8
0
 62
   255
370
    15
100
AcDbLine
 10
5.2625963418
 20
4.4615648842
 30
0.0
 11
5.389596328
 21
4.4615648842
 31
0.0
  0
LINE
  5
80
330
1F
100
AcDbEntity
  8
0
 62
   255
370
    15
100
AcDbLine
 10
5.389596328
 20
4.4615648842
 30
0.0
 11
5.389596328
 21
4.7908982197
 31
0.0
  0
LINE
  5
81
330
1F
100
AcDbEntity
  8
0
 62
   255
370
    15
100
AcDbLine
 10
5.389596328
 20
4.7908982197
 30
0.0
 11
5.2625963418
 21
4.7908982197
 31
0.0
  0
LINE
  5
82
330
1F
100
AcDbEntity
  8
0
 62
   255
370
    15
100
AcDbLine
 10
5.0602629925
 20
4.9972315628
 30
0.0
 11
4.7229296694
 21
4.9972315628
 31
0.0
  0
SPLINE
  5
83
330
1F
100
AcDbEntity
  8
0
 62
   255
370
    15
100
AcDbSpline
210
0.0
220
0.0
230
1.0
 70
     8
 71
     3
 72
    11
 73
     7
 74
     0
 42
0.0000000001
 43
0.0000000001
 40
0.0
 40
0.0
 40
0.0
 40
0.0
 40
0.2497118011763242
 40
0.4994241276009211
 40
0.7497117504791133
 40
1.0
 40
1.0
 40
1.0
 40
1.0
 10
4.520596320114977
 20
4.846414248365585
 30
0.0
 10
4.538294816223863
 20
4.866676380684658
 30
0.0
 10
4.573691845668968
 20
4.907200687942534
 30
0.0
 10
4.624912400169027
 20
4.969662981196599
 30
0.0
 10
4.6748794823724
 20
5.033210802027397
 30
0.0
 10
4.706912927030197
 20
5.076597208351695
 30
0.0
 10
4.722929669409528
 20
5.098290438670341
 30
0.0
  0
LINE
  5
84
330
1F
100
AcDbEntity
  8
0
 62
   255
370
    15
100
AcDbLine
 10
4.5205963201
 20
4.8464142484
 30
0.0
 11
4.5205963201
 21
4.7908982197
 31
0.0
  0
LINE
  5
85
330
1F
100
AcDbEntity
  8
0
 62
   255
370
    15
100
AcDbLine
 10
4.5205963201
 20
4.7908982197
 30
0.0
 11
4.4702742848
 21
4.7908982197
 31
0.0
  0
MTEXT
  5
86
330
1F
100
AcDbEntity
  8
0
 62
   255
370
     0
100
AcDbMText
 10
11.7981568612
 20
8.51202905612
 30
0.0
 40
0.1377952756
 41
0.855824874359036
 71
     7
 72
     1
  1
\fArial;cube_13
 73
     2
 44
0.9638554216867471
  0
LINE
  5
87
330
1F
100
AcDbEntity
  8
0
 62
   255
370
    15
100
AcDbLine
 10
12.9756642867
 20
11.7989644725
 30
0.0
 11
12.9756642867
 21
11.4656311432
 31
0.0
  0
LINE
  5
88
330
1F
100
AcDbEntity
  8
0
 62
   255
370
    15
100
AcDbLine
 10
13.7176643083
 20
11.4656311432
 30
0.0
 11
13.7176643083
 21
11.7989644725
 31
0.0
  0
LINE
  5
89
330
1F
100
AcDbEntity
  8
0
 62
   255
370
    15
100
AcDbLine
 10
13.177997636
 20
11.4656311432
 30
0.0
 11
13.177997636
 21
11.5926311294
 31
0.0
  0
LINE
  5
8A
330
1F
100
AcDbEntity
  8
0
 62
   255
370
    15
100
AcDbLine
 10
13.515330959
 20
11.5926311294
 30
0.0
 11
13.515330959
 21
11.4656311432
 31
0.0
  0
LINE
  5
8B
330
1F
100
AcDbEntity
  8
0
 62
   255
370
    15
100
AcDbLine
 10
13.515330959
 20
11.4656311432
 30
0.0
 11
13.7176643083
 21
11.4656311432
 31
0.0
  0
LINE
  5
8C
330
1F
100
AcDbEntity
  8
0
 62
   255
370
    15
100
AcDbLine
 10
12.9756642867
 20
11.4656311432
 30
0.0
 11
13.177997636
 21
11.4656311432
 31
0.0
  0
LINE
  5
8D
330
1F
100
AcDbEntity
  8
0
 62
   255
370
    15
100
AcDbLine
 10
13.177997636
 20
11.5926311294
 30
0.0
 11
13.515330959
 21
11.5926311294
 31
0.0
  0
LINE
  5
8E
330
1F
100
AcDbEntity
  8
0
 62
   255
370
    15
100
AcDbLine
 10
13.7176643083
 20
11.7989644725
 30
0.0
 11
13.8446642946
 21
11.7989644725
 31
0.0
  0
LINE
  5
8F
330
1F
100
AcDbEntity
  8
0
 62
   255
370
    15
100
AcDbLine
 10
13.8446642946
 20
11.7989644725
 30
0.0
 11
13.8446642946
 21
12.128297808
 31
0.0
  0
LINE
  5
90
330
1F
100
AcDbEntity
  8
0
 62
   255
370
    15
100
AcDbLine
 10
13.8446642946
 20
12.128297808
 30
0.0
 11
13.7176643083
 21
12.128297808
 31
0.0
  0
LINE
  5
91
330
1F
100
AcDbEntity
  8
0
 62
   255
370
    15
100
AcDbLine
 10
13.7176643083
 20
12.128297808
 30
0.0
 11
13.7176643083
 21
12.3346311511
 31
0.0
  0
LINE
  5
92
330
1F
100
AcDbEntity
  8
0
 62
   255
370
    15
100
AcDbLine
 10
13.7176643083
 20
12.3346311511
 30
0.0
 11
13.5113309653
 21
12.3346311511
 31
0.0
  0
LINE
  5
93
330
1F
100
AcDbEntity
  8
0
 62
   255
370
    15
100
AcDbLine
 10
13.5113309653
 20
12.3346311511
 30
0.0
 11
13.5113309653
 21
12.4616311373
 31
0.0
  0
LINE
  5
94
330
1F
100
AcDbEntity
  8
0
 62
   255
370
    15
100
AcDbLine
 10
13.5113309653
 20
12.4616311373
 30
0.0
 11
13.1819976297
 21
12.4616311373
 31
0.0
  0
LINE
  5
95
330
1F
100
AcDbEntity
  8
0
 62
   255
370
    15
100
AcDbLine
 10
13.1819976297
 20
12.4616311373
 30
0.0
 11
13.1819976297
 21
12.3346311511
 31
0.0
  0
LINE
  5
96
330
1F
100
AcDbEntity
  8
0
 62
   255
370
    15
100
AcDbLine
 10
13.1819976297
 20
12.3346311511
 30
0.0
 11
12.9756642867
 21
12.3346311511
 31
0.0
  0
LINE
  5
97
330
1F
100
AcDbEntity
  8
0
 62
   255
370
    15
100
AcDbLine
 10
12.9756642867
 20
12.3346311511
 30
0.0
 11
12.9756642867
 21
12.128297808
 31
0.0
  0
LINE
  5
98
330
1F
100
AcDbEntity
  8
0
 62
   255
370
    15
100
AcDbLine
 10
12.9756642867
 20
12.128297808
 30
0.0
 11
12.8486643004
 21
12.128297808
 31
0.0
  0
LINE
  5
99
330
1F
100
AcDbEntity
  8
0
 62
   255
370
    15
100
AcDbLine
 10
12.8486643004
 20
12.128297808
 30
0.0
 11
12.8486643004
 21
11.7989644725
 31
0.0
  0
LINE
  5
9A
330
1F
100
AcDbEntity
  8
0
 62
   255
370
    15
100
AcDbLine
 10
12.8486643004
 20
11.7989644725
 30
0.0
 11
12.9756642867
 21
11.7989644725
 31
0.0
  0
MTEXT
  5
9B
330
1F
100
AcDbEntity
  8
0
 62
   255
370
     0
100
AcDbMText
 10
3.3983408701
 20
8.43379719522
 30
0.0
 40
0.1377952756
 41
0.855824874359036
 71
     7
 72
     1
  1
\fArial;cube_13
 73
     2
 44
0.9638554216867471
  0
LINE
  5
9C
330
1F
100
AcDbEntity
  8
0
 62
   255
370
    15
100
AcDbLine
 10
4.8539062801
 20
12.1440784999
 30
0.0
 11
4.5205729507
 21
12.1440784999
 31
0.0
  0
LINE
  5
9D
330
1F
100
AcDbEntity
  8
0
 62
   255
370
    15
100
AcDbLine
 10
4.5205729507
 20
11.4020784782
 30
0.0
 11
4.8539062801
 21
11.4020784782
 31
0.0
  0
LINE
  5
9E
330
1F
100
AcDbEntity
  8
0
 62
   255
370
    15
100
AcDbLine
 10
4.5205729507
 20
11.9417451506
 30
0.0
 11
4.647572937
 21
11.9417451506
 31
0.0
  0
LINE
  5
9F
330
1F
100
AcDbEntity
  8
0
 62
   255
370
    15
100
AcDbLine
 10
4.647572937
 20
11.6044118275
 30
0.0
 11
4.5205729507
 21
11.6044118275
 31
0.0
  0
LINE
  5
A0
330
1F
100
AcDbEntity
  8
0
 62
   255
370
    15
100
AcDbLine
 10
4.5205729507
 20
11.6044118275
 30
0.0
 11
4.5205729507
 21
11.4020784782
 31
0.0
  0
LINE
  5
A1
330
1F
100
AcDbEntity
  8
0
 62
   255
370
    15
100
AcDbLine
 10
4.5205729507
 20
12.1440784999
 30
0.0
 11
4.5205729507
 21
11.9417451506
 31
0.0
  0
LINE
  5
A2
330
1F
100
AcDbEntity
  8
0
 62
   255
370
    15
100
AcDbLine
 10
4.647572937
 20
11.9417451506
 30
0.0
 11
4.647572937
 21
11.6044118275
 31
0.0
  0
LINE
  5
A3
330
1F
100
AcDbEntity
  8
0
 62
   255
370
    15
100
AcDbLine
 10
4.8539062801
 20
11.4020784782
 30
0.0
 11
4.8539062801
 21
11.275078492
 31
0.0
  0
LINE
  5
A4
330
1F
100
AcDbEntity
  8
0
 62
   255
370
    15
100
AcDbLine
 10
4.8539062801
 20
11.275078492
 30
0.0
 11
5.1832396156
 21
11.275078492
 31
0.0
  0
LINE
  5
A5
330
1F
100
AcDbEntity
  8
0
 62
   255
370
    15
100
AcDbLine
 10
5.1832396156
 20
11.275078492
 30
0.0
 11
5.1832396156
 21
11.4020784782
 31
0.0
  0
LINE
  5
A6
330
1F
100
AcDbEntity
  8
0
 62
   255
370
    15
100
AcDbLine
 10
5.1832396156
 20
11.4020784782
 30
0.0
 11
5.3895729587
 21
11.4020784782
 31
0.0
  0
LINE
  5
A7
330
1F
100
AcDbEntity
  8
0
 62
   255
370
    15
100
AcDbLine
 10
5.3895729587
 20
11.4020784782
 30
0.0
 11
5.3895729587
 21
11.6084118213
 31
0.0
  0
LINE
  5
A8
330
1F
100
AcDbEntity
  8
0
 62
   255
370
    15
100
AcDbLine
 10
5.3895729587
 20
11.6084118213
 30
0.0
 11
5.5165729449
 21
11.6084118213
 31
0.0
  0
LINE
  5
A9
330
1F
100
AcDbEntity
  8
0
 62
   255
370
    15
100
AcDbLine
 10
5.5165729449
 20
11.6084118213
 30
0.0
 11
5.5165729449
 21
11.9377451568
 31
0.0
  0
LINE
  5
AA
330
1F
100
AcDbEntity
  8
0
 62
   255
370
    15
100
AcDbLine
 10
5.5165729449
 20
11.9377451568
 30
0.0
 11
5.3895729587
 21
11.9377451568
 31
0.0
  0
LINE
  5
AB
330
1F
100
AcDbEntity
  8
0
 62
   255
370
    15
100
AcDbLine
 10
5.3895729587
 20
11.9377451568
 30
0.0
 11
5.3895729587
 21
12.1440784999
 31
0.0
  0
LINE
  5
AC
330
1F
100
AcDbEntity
  8
0
 62
   255
370
    15
100
AcDbLine
 10
5.3895729587
 20
12.1440784999
 30
0.0
 11
5.1832396156
 21
12.1440784999
 31
0.0
  0
LINE
  5
AD
330
1F
100
AcDbEntity
  8
0
 62
   255
370
    15
100
AcDbLine
 10
5.1832396156
 20
12.1440784999
 30
0.0
 11
5.1832396156
 21
12.2710784861
 31
0.0
  0
LINE
  5
AE
330
1F
100
AcDbEntity
  8
0
 62
   255
370
    15
100
AcDbLine
 10
5.1832396156
 20
12.2710784861
 30
0.0
 11
4.8539062801
 21
12.2710784861
 31
0.0
  0
LINE
  5
AF
330
1F
100
AcDbEntity
  8
0
 62
   255
370
    15
100
AcDbLine
 10
4.8539062801
 20
12.2710784861
 30
0.0
 11
4.8539062801
 21
12.1440784999
 31
0.0
  0
MTEXT
  5
B0
330
1F
100
AcDbEntity
  8
0
 62
   255
370
     0
100
AcDbMText
 10
11.9255534149
 20
16.29402732522
 30
0.0
 40
0.1377952756
 41
0.855824874359036
 71
     7
 72
     1
  1
\fArial;cube_13
 73
     2
 44
0.9638554216867471
  0
LINE
  5
B1
330
1F
100
AcDbEntity
  8
0
 62
   255
370
    15
100
AcDbLine
 10
12.9740346159
 20
19.8204753399
 30
0.0
 11
12.9740346159
 21
19.4831420168
 31
0.0
  0
LINE
  5
B2
330
1F
100
AcDbEntity
  8
0
 62
   255
370
    15
100
AcDbLine
 10
12.9740346159
 20
19.4831420168
 30
0.0
 11
12.8470346297
 21
19.4831420168
 31
0.0
  0
LINE
  5
B3
330
1F
100
AcDbEntity
  8
0
 62
   255
370
    15
100
AcDbLine
 10
12.8470346297
 20
19.4831420168
 30
0.0
 11
12.8470346297
 21
19.1538086813
 31
0.0
  0
LINE
  5
B4
330
1F
100
AcDbEntity
  8
0
 62
   255
370
    15
100
AcDbLine
 10
12.8470346297
 20
19.1538086813
 30
0.0
 11
13.1763679652
 21
19.1538086813
 31
0.0
  0
LINE
  5
B5
330
1F
100
AcDbEntity
  8
0
 62
   255
370
    15
100
AcDbLine
 10
13.1763679652
 20
19.1538086813
 30
0.0
 11
13.1763679652
 21
19.2808086675
 31
0.0
  0
LINE
  5
B6
330
1F
100
AcDbEntity
  8
0
 62
   255
370
    15
100
AcDbLine
 10
13.1763679652
 20
19.2808086675
 30
0.0
 11
13.5137012883
 21
19.2808086675
 31
0.0
  0
LINE
  5
B7
330
1F
100
AcDbEntity
  8
0
 62
   255
370
    15
100
AcDbLine
 10
13.5137012883
 20
19.2808086675
 30
0.0
 11
13.5137012883
 21
19.1538086813
 31
0.0
  0
LINE
  5
B8
330
1F
100
AcDbEntity
  8
0
 62
   255
370
    15
100
AcDbLine
 10
13.5137012883
 20
19.1538086813
 30
0.0
 11
13.8430346238
 21
19.1538086813
 31
0.0
  0
LINE
  5
B9
330
1F
100
AcDbEntity
  8
0
 62
   255
370
    15
100
AcDbLine
 10
13.8430346238
 20
19.1538086813
 30
0.0
 11
13.8430346238
 21
19.4831420168
 31
0.0
  0
LINE
  5
BA
330
1F
100
AcDbEntity
  8
0
 62
   255
370
    15
100
AcDbLine
 10
13.8430346238
 20
19.4831420168
 30
0.0
 11
13.7160346376
 21
19.4831420168
 31
0.0
  0
LINE
  5
BB
330
1F
100
AcDbEntity
  8
0
 62
   255
370
    15
100
AcDbLine
 10
13.7160346376
 20
19.4831420168
 30
0.0
 11
13.7160346376
 21
19.8204753399
 31
0.0
  0
LINE
  5
BC
330
1F
100
AcDbEntity
  8
0
 62
   255
370
    15
100
AcDbLine
 10
13.7160346376
 20
19.8204753399
 30
0.0
 11
13.8430346238
 21
19.8204753399
 31
0.0
  0
LINE
  5
BD
330
1F
100
AcDbEntity
  8
0
 62
   255
370
    15
100
AcDbLine
 10
13.8430346238
 20
19.8204753399
 30
0.0
 11
13.8430346238
 21
20.1498086755
 31
0.0
  0
LINE
  5
BE
330
1F
100
AcDbEntity
  8
0
 62
   255
370
    15
100
AcDbLine
 10
13.8430346238
 20
20.1498086755
 30
0.0
 11
13.5137012883
 21
20.1498086755
 31
0.0
  0
LINE
  5
BF
330
1F
100
AcDbEntity
  8
0
 62
   255
370
    15
100
AcDbLine
 10
13.5137012883
 20
20.1498086755
 30
0.0
 11
13.5137012883
 21
20.0228086892
 31
0.0
  0
LINE
  5
C0
330
1F
100
AcDbEntity
  8
0
 62
   255
370
    15
100
AcDbLine
 10
13.5137012883
 20
20.0228086892
 30
0.0
 11
13.1763679652
 21
20.0228086892
 31
0.0
  0
LINE
  5
C1
330
1F
100
AcDbEntity
  8
0
 62
   255
370
    15
100
AcDbLine
 10
13.1763679652
 20
20.0228086892
 30
0.0
 11
13.1763679652
 21
20.1498086755
 31
0.0
  0
LINE
  5
C2
330
1F
100
AcDbEntity
  8
0
 62
   255
370
    15
100
AcDbLine
 10
13.1763679652
 20
20.1498086755
 30
0.0
 11
12.8470346297
 21
20.1498086755
 31
0.0
  0
LINE
  5
C3
330
1F
100
AcDbEntity
  8
0
 62
   255
370
    15
100
AcDbLine
 10
12.8470346297
 20
20.1498086755
 30
0.0
 11
12.8470346297
 21
19.8204753399
 31
0.0
  0
LINE
  5
C4
330
1F
100
AcDbEntity
  8
0
 62
   255
370
    15
100
AcDbLine
 10
12.8470346297
 20
19.8204753399
 30
0.0
 11
12.9740346159
 21
19.8204753399
 31
0.0
  0
MTEXT
  5
C5
330
1F
100
AcDbEntity
  8
0
 62
   255
370
     0
100
AcDbMText
 10
3.1166081781
 20
18.43026351682
 30
0.0
 40
0.1377952756
 41
1.730741865216867
 71
     7
 72
     1
  1
\fArial;acrylic_R^ cube_13
 73
     2
 44
0.9638554216867471
  0
SPLINE
  5
C6
330
1F
100
AcDbEntity
  8
0
 62
   255
370
    15
100
AcDbSpline
210
0.0
220
0.0
230
1.0
 70
     8
 71
     3
 72
     8
 73
     4
 74
     0
 42
0.0000000001
 43
0.0000000001
 40
0.0
 40
0.0
 40
0.0
 40
0.0
 40
1.0
 40
1.0
 40
1.0
 40
1.0
 10
4.435052952226226
 20
19.90218234398617
 30
0.0
 10
4.443558930319887
 20
19.90715172897138
 30
0.0
 10
4.452056998047408
 20
19.91213949711884
 30
0.0
 10
4.460547078398954
 20
19.91714582739425
 30
0.0
  0
LINE
  5
C7
330
1F
100
AcDbEntity
  8
0
 62
   255
370
    15
100
AcDbLine
 10
4.4350529552
 20
19.9021823438
 30
0.0
 11
4.4350529552
 21
19.587812493
 31
0.0
  0
LINE
  5
C8
330
1F
100
AcDbEntity
  8
0
 62
   255
370
    15
100
AcDbLine
 10
4.4350529552
 20
19.587812493
 30
0.0
 11
4.5620529414
 21
19.587812493
 31
0.0
  0
LINE
  5
C9
330
1F
100
AcDbEntity
  8
0
 62
   255
370
    15
100
AcDbLine
 10
4.5620529414
 20
19.587812493
 30
0.0
 11
4.5620529414
 21
19.3814791499
 31
0.0
  0
LINE
  5
CA
330
1F
100
AcDbEntity
  8
0
 62
   255
370
    15
100
AcDbLine
 10
4.5620529414
 20
19.3814791499
 30
0.0
 11
4.7683862845
 21
19.3814791499
 31
0.0
  0
LINE
  5
CB
330
1F
100
AcDbEntity
  8
0
 62
   255
370
    15
100
AcDbLine
 10
4.7683862845
 20
19.3814791499
 30
0.0
 11
4.7683862845
 21
19.2544791637
 31
0.0
  0
LINE
  5
CC
330
1F
100
AcDbEntity
  8
0
 62
   255
370
    15
100
AcDbLine
 10
4.7683862845
 20
19.2544791637
 30
0.0
 11
5.09771962
 21
19.2544791637
 31
0.0
  0
LINE
  5
CD
330
1F
100
AcDbEntity
  8
0
 62
   255
370
    15
100
AcDbLine
 10
5.09771962
 20
19.2544791637
 30
0.0
 11
5.09771962
 21
19.3814791499
 31
0.0
  0
LINE
  5
CE
330
1F
100
AcDbEntity
  8
0
 62
   255
370
    15
100
AcDbLine
 10
5.09771962
 20
19.3814791499
 30
0.0
 11
5.4310529493
 21
19.3814791499
 31
0.0
  0
LINE
  5
CF
330
1F
100
AcDbEntity
  8
0
 62
   255
370
    15
100
AcDbLine
 10
5.4310529493
 20
19.3814791499
 30
0.0
 11
5.4310529493
 21
19.5838124992
 31
0.0
  0
LINE
  5
D0
330
1F
100
AcDbEntity
  8
0
 62
   255
370
    15
100
AcDbLine
 10
5.4310529493
 20
19.5838124992
 30
0.0
 11
5.3040529631
 21
19.5838124992
 31
0.0
  0
LINE
  5
D1
330
1F
100
AcDbEntity
  8
0
 62
   255
370
    15
100
AcDbLine
 10
5.3040529631
 20
19.5838124992
 30
0.0
 11
5.3040529631
 21
19.9211458223
 31
0.0
  0
LINE
  5
D2
330
1F
100
AcDbEntity
  8
0
 62
   255
370
    15
100
AcDbLine
 10
5.3040529631
 20
19.9211458223
 30
0.0
 11
5.4310529493
 21
19.9211458223
 31
0.0
  0
LINE
  5
D3
330
1F
100
AcDbEntity
  8
0
 62
   255
370
    15
100
AcDbLine
 10
5.4310529493
 20
19.9211458223
 30
0.0
 11
5.4310529493
 21
20.1234791716
 31
0.0
  0
LINE
  5
D4
330
1F
100
AcDbEntity
  8
0
 62
   255
370
    15
100
AcDbLine
 10
5.4310529493
 20
20.1234791716
 30
0.0
 11
5.09771962
 21
20.1234791716
 31
0.0
  0
LINE
  5
D5
330
1F
100
AcDbEntity
  8
0
 62
   255
370
    15
100
AcDbLine
 10
5.09771962
 20
20.1234791716
 30
0.0
 11
5.09771962
 21
20.2504791578
 31
0.0
  0
LINE
  5
D6
330
1F
100
AcDbEntity
  8
0
 62
   255
370
    15
100
AcDbLine
 10
5.09771962
 20
20.2504791578
 30
0.0
 11
4.972169307
 21
20.2504791578
 31
0.0
  0
SPLINE
  5
D7
330
1F
100
AcDbEntity
  8
0
 62
   255
370
    15
100
AcDbSpline
210
0.0
220
0.0
230
1.0
 70
     8
 71
     3
 72
    10
 73
     6
 74
     0
 42
0.0000000001
 43
0.0000000001
 40
0.0
 40
0.0
 40
0.0
 40
0.0
 40
0.5
 40
0.5
 40
1.0
 40
1.0
 40
1.0
 40
1.0
 10
4.562052952226231
 20
19.97813293494579
 30
0.0
 10
4.632181640450908
 20
20.02106693616865
 30
0.0
 10
4.701722216736107
 20
20.06533897908555
 30
0.0
 10
4.838509892781363
 20
20.15609410311677
 30
0.0
 10
4.905885267883835
 20
20.20265345710069
 30
0.0
 10
4.972169308648684
 20
20.25047916072722
 30
0.0
  0
LINE
  5
D8
330
1F
100
AcDbEntity
  8
0
 62
   255
370
    15
100
AcDbLine
 10
4.5620529414
 20
19.9781329373
 30
0.0
 11
4.5620529414
 21
19.9171458285
 31
0.0
  0
LINE
  5
D9
330
1F
100
AcDbEntity
  8
0
 62
   255
370
    15
100
AcDbLine
 10
4.5620529414
 20
19.9171458285
 30
0.0
 11
4.4605470673
 21
19.9171458285
 31
0.0
  0
VIEWPORT
  5
E3
330
DF
100
AcDbEntity
 67
     1
  8
0
100
AcDbViewport
 10
6.0
 20
4.5
 30
0.0
 40
12.696
 41
9.522
 68
     1
 69
     1
 12
6.0
 22
4.5
 13
0.0
 23
0.0
 14
0.5
 24
0.5
 15
0.5
 25
0.5
 16
0.0
 26
0.0
 36
1.0
 17
0.0
 27
0.0
 37
0.0
 42
50.0
 43
0.0
 44
0.0
 45
9.522
 50
0.0
 51
0.0
 72
   100
 90
   557152
  1

281
     0
 71
     1
 74
     0
110
0.0
120
0.0
130
0.0
111
1.0
121
0.0
131
0.0
112
0.0
122
1.0
132
0.0
 79
     0
146
0.0
170
     0
  0
ENDSEC
  0
SECTION
  2
OBJECTS
  0
DICTIONARY
  5
C
330
0
100
AcDbDictionary
281
     1
  3
ACAD_GROUP
350
D
  3
ACAD_LAYOUT
350
1A
  3
ACAD_MLEADERSTYLE
350
E7
  3
ACAD_MLINESTYLE
350
17
  3
ACAD_PLOTSETTINGS
350
19
  3
ACAD_PLOTSTYLENAME
350
E
  3
ACAD_SCALELIST
350
3C
  3
ACAD_TABLESTYLE
350
E6
  3
ACAD_VISUALSTYLE
350
2A
  3
AcDbVariableDictionary
350
E4
  0
DICTIONARY
  5
D
102
{ACAD_REACTORS
330
C
102
}
330
C
100
AcDbDictionary
281
     1
  0
DICTIONARY
  5
1A
102
{ACAD_REACTORS
330
C
102
}
330
C
100
AcDbDictionary
281
     1
  3
LAYOUT1
350
DB
  3
LAYOUT2
350
E0
  3
Model
350
22
  0
DICTIONARY
  5
E7
102
{ACAD_REACTORS
330
C
102
}
330
C
100
AcDbDictionary
281
     1
  0
DICTIONARY
  5
17
102
{ACAD_REACTORS
330
C
102
}
330
C
100
AcDbDictionary
281
     1
  3
Standard
350
18
  0
DICTIONARY
  5
19
102
{ACAD_REACTORS
330
C
102
}
330
C
100
AcDbDictionary
281
     1
  0
ACDBDICTIONARYWDFLT
  5
E
102
{ACAD_REACTORS
330
C
102
}
330
C
100
AcDbDictionary
281
     1
  3
Normal
350
F
100
AcDbDictionaryWithDefault
340
F
  0
DICTIONARY
  5
3C
102
{ACAD_REACTORS
330
C
102
}
330
C
100
AcDbDictionary
281
     1
  3
A0
350
3D
  3
A1
350
3E
  3
A2
350
3F
  3
A3
350
40
  3
A4
350
41
  3
A5
350
42
  3
A6
350
43
  3
A7
350
44
  3
A8
350
45
  3
A9
350
46
  3
B0
350
47
  3
B1
350
48
  3
B2
350
49
  3
B3
350
4A
  3
B4
350
4B
  3
B5
350
4C
  3
B6
350
4D
  3
B7
350
4E
  3
B8
350
4F
  3
B9
350
50
  3
C0
350
51
  3
C1
350
52
  3
C2
350
53
  3
C3
350
54
  3
C4
350
55
  3
C5
350
56
  3
C6
350
57
  3
C7
350
58
  3
C8
350
59
  3
C9
350
5A
  3
D0
350
5B
  3
D1
350
5C
  3
D2
350
5D
  0
DICTIONARY
  5
E6
102
{ACAD_REACTORS
330
C
102
}
330
C
100
AcDbDictionary
281
     1
  0
DICTIONARY
  5
2A
102
{ACAD_REACTORS
330
C
102
}
330
C
100
AcDbDictionary
281
     1
  3
2dWireframe
350
2F
  3
3D Hidden
350
31
  3
3dWireframe
350
30
  3
Basic
350
32
  3
Brighten
350
36
  3
ColorChange
350
3A
  3
Conceptual
350
34
  3
Dim
350
35
  3
Facepattern
350
39
  3
Flat
350
2B
  3
FlatWithEdges
350
2C
  3
Gouraud
350
2D
  3
GouraudWithEdges
350
2E
  3
Linepattern
350
38
  3
Realistic
350
33
  3
Thicken
350
37
  0
DICTIONARY
  5
E4
102
{ACAD_REACTORS
330
C
102
}
330
C
100
AcDbDictionary
281
     1
  3
CANNOSCALE
350
E5
  0
LAYOUT
  5
DB
102
{ACAD_REACTORS
330
1A
102
}
330
1A
100
AcDbPlotSettings
  1

  2
none_device
  4
Letter_(8.50_x_11.00_Inches)
  6

 40
6.35
 41
6.35
 42
6.35000508
 43
6.35000508
 44
215.9
 45
279.4
 46
0.0
 47
0.0
 48
0.0
 49
0.0
140
0.0
141
0.0
142
1.0
143
1.0
 70
   688
 72
     0
 73
     1
 74
     5
  7

 75
    16
 76
     0
 77
     2
 78
   300
147
1.0
148
0.0
149
0.0
100
AcDbLayout
  1
LAYOUT1
 70
     1
 71
     1
 10
0.0
 20
0.0
 11
0.0
 21
0.0
 12
0.0
 22
0.0
 32
0.0
 14
0.0
 24
0.0
 34
0.0
 15
0.0
 25
0.0
 35
0.0
146
0.0
 13
0.0
 23
0.0
 33
0.0
 16
1.0
 26
0.0
 36
0.0
 17
0.0
 27
1.0
 37
0.0
 76
     0
330
DA
331
DE
  0
LAYOUT
  5
E0
102
{ACAD_REACTORS
330
1A
102
}
330
1A
100
AcDbPlotSettings
  1

  2
none_device
  4
Letter_(8.50_x_11.00_Inches)
  6

 40
6.35
 41
6.35
 42
6.35000508
 43
6.35000508
 44
215.9
 45
279.4
 46
0.0
 47
0.0
 48
0.0
 49
0.0
140
0.0
141
0.0
142
1.0
143
1.0
 70
   688
 72
     0
 73
     1
 74
     5
  7

 75
    16
 76
     0
 77
     2
 78
   300
147
1.0
148
0.0
149
0.0
100
AcDbLayout
  1
LAYOUT2
 70
     1
 71
     2
 10
0.0
 20
0.0
 11
0.0
 21
0.0
 12
0.0
 22
0.0
 32
0.0
 14
0.0
 24
0.0
 34
0.0
 15
0.0
 25
0.0
 35
0.0
146
0.0
 13
0.0
 23
0.0
 33
0.0
 16
1.0
 26
0.0
 36
0.0
 17
0.0
 27
1.0
 37
0.0
 76
     0
330
DF
331
E3
  0
LAYOUT
  5
22
102
{ACAD_REACTORS
330
1A
102
}
330
1A
100
AcDbPlotSettings
  1

  2
none_device
  4

  6

 40
0.0
 41
0.0
 42
0.0
 43
0.0
 44
0.0
 45
0.0
 46
0.0
 47
0.0
 48
0.0
 49
0.0
140
0.0
141
0.0
142
1.0
143
1.0
 70
  1712
 72
     0
 73
     0
 74
     0
  7

 75
     0
 76
     0
 77
     2
 78
   300
147
1.0
148
0.0
149
0.0
100
AcDbLayout
  1
Model
 70
     1
 71
     0
 10
0.0
 20
0.0
 11
12.0
 21
9.0
 12
0.0
 22
0.0
 32
0.0
 14
3.1166081781
 24
1.09346565012
 34
0.0
 15
13.8446642946
 25
20.25047916069853
 35
0.0
146
0.0
 13
0.0
 23
0.0
 33
0.0
 16
1.0
 26
0.0
 36
0.0
 17
0.0
 27
1.0
 37
0.0
 76
     0
330
1F
331
29
  0
MLINESTYLE
  5
18
102
{ACAD_REACTORS
330
17
102
}
330
17
100
AcDbMlineStyle
  2
Standard
 70
     0
  3

 62
   256
 51
90.0
 52
90.0
 71
     2
 49
0.5
 62
   256
  6
BYLAYER
 49
-0.5
 62
   256
  6
BYLAYER
  0
ACDBPLACEHOLDER
  5
F
102
{ACAD_REACTORS
330
E
102
}
330
E
  0
SCALE
  5
3D
102
{ACAD_REACTORS
330
3C
102
}
330
3C
100
AcDbScale
 70
     0
300
1:1
140
1.0
141
1.0
290
     1
  0
SCALE
  5
3E
102
{ACAD_REACTORS
330
3C
102
}
330
3C
100
AcDbScale
 70
     0
300
1:2
140
1.0
141
2.0
290
     0
  0
SCALE
  5
3F
102
{ACAD_REACTORS
330
3C
102
}
330
3C
100
AcDbScale
 70
     0
300
1:4
140
1.0
141
4.0
290
     0
  0
SCALE
  5
40
102
{ACAD_REACTORS
330
3C
102
}
330
3C
100
AcDbScale
 70
     0
300
1:5
140
1.0
141
5.0
290
     0
  0
SCALE
  5
41
102
{ACAD_REACTORS
330
3C
102
}
330
3C
100
AcDbScale
 70
     0
300
1:8
140
1.0
141
8.0
290
     0
  0
SCALE
  5
42
102
{ACAD_REACTORS
330
3C
102
}
330
3C
100
AcDbScale
 70
     0
300
1:10
140
1.0
141
10.0
290
     0
  0
SCALE
  5
43
102
{ACAD_REACTORS
330
3C
102
}
330
3C
100
AcDbScale
 70
     0
300
1:16
140
1.0
141
16.0
290
     0
  0
SCALE
  5
44
102
{ACAD_REACTORS
330
3C
102
}
330
3C
100
AcDbScale
 70
     0
300
1:20
140
1.0
141
20.0
290
     0
  0
SCALE
  5
45
102
{ACAD_REACTORS
330
3C
102
}
330
3C
100
AcDbScale
 70
     0
300
1:30
140
1.0
141
30.0
290
     0
  0
SCALE
  5
46
102
{ACAD_REACTORS
330
3C
102
}
330
3C
100
AcDbScale
 70
     0
300
1:40
140
1.0
141
40.0
290
     0
  0
SCALE
  5
47
102
{ACAD_REACTORS
330
3C
102
}
330
3C
100
AcDbScale
 70
     0
300
1:50
140
1.0
141
50.0
290
     0
  0
SCALE
  5
48
102
{ACAD_REACTORS
330
3C
102
}
330
3C
100
AcDbScale
 70
     0
300
1:100
140
1.0
141
100.0
290
     0
  0
SCALE
  5
49
102
{ACAD_REACTORS
330
3C
102
}
330
3C
100
AcDbScale
 70
     0
300
2:1
140
2.0
141
1.0
290
     0
  0
SCALE
  5
4A
102
{ACAD_REACTORS
330
3C
102
}
330
3C
100
AcDbScale
 70
     0
300
4:1
140
4.0
141
1.0
290
     0
  0
SCALE
  5
4B
102
{ACAD_REACTORS
330
3C
102
}
330
3C
100
AcDbScale
 70
     0
300
8:1
140
8.0
141
1.0
290
     0
  0
SCALE
  5
4C
102
{ACAD_REACTORS
330
3C
102
}
330
3C
100
AcDbScale
 70
     0
300
10:1
140
10.0
141
1.0
290
     0
  0
SCALE
  5
4D
102
{ACAD_REACTORS
330
3C
102
}
330
3C
100
AcDbScale
 70
     0
300
100:1
140
100.0
141
1.0
290
     0
  0
SCALE
  5
4E
102
{ACAD_REACTORS
330
3C
102
}
330
3C
100
AcDbScale
 70
     0
300
1/128" = 1'-0"
140
0.0078125
141
12.0
290
     0
  0
SCALE
  5
4F
102
{ACAD_REACTORS
330
3C
102
}
330
3C
100
AcDbScale
 70
     0
300
1/64" = 1'-0"
140
0.015625
141
12.0
290
     0
  0
SCALE
  5
50
102
{ACAD_REACTORS
330
3C
102
}
330
3C
100
AcDbScale
 70
     0
300
1/32" = 1'-0"
140
0.03125
141
12.0
290
     0
  0
SCALE
  5
51
102
{ACAD_REACTORS
330
3C
102
}
330
3C
100
AcDbScale
 70
     0
300
1/16" = 1'-0"
140
0.0625
141
12.0
290
     0
  0
SCALE
  5
52
102
{ACAD_REACTORS
330
3C
102
}
330
3C
100
AcDbScale
 70
     0
300
3/32" = 1'-0"
140
0.09375
141
12.0
290
     0
  0
SCALE
  5
53
102
{ACAD_REACTORS
330
3C
102
}
330
3C
100
AcDbScale
 70
     0
300
1/8" = 1'-0"
140
0.125
141
12.0
290
     0
  0
SCALE
  5
54
102
{ACAD_REACTORS
330
3C
102
}
330
3C
100
AcDbScale
 70
     0
300
3/16" = 1'-0"
140
0.1875
141
12.0
290
     0
  0
SCALE
  5
55
102
{ACAD_REACTORS
330
3C
102
}
330
3C
100
AcDbScale
 70
     0
300
1/4" = 1'-0"
140
0.25
141
12.0
290
     0
  0
SCALE
  5
56
102
{ACAD_REACTORS
330
3C
102
}
330
3C
100
AcDbScale
 70
     0
300
3/8" = 1'-0"
140
0.375
141
12.0
290
     0
  0
SCALE
  5
57
102
{ACAD_REACTORS
330
3C
102
}
330
3C
100
AcDbScale
 70
     0
300
1/2" = 1'-0"
140
0.5
141
12.0
290
     0
  0
SCALE
  5
58
102
{ACAD_REACTORS
330
3C
102
}
330
3C
100
AcDbScale
 70
     0
300
3/4" = 1'-0"
140
0.75
141
12.0
290
     0
  0
SCALE
  5
59
102
{ACAD_REACTORS
330
3C
102
}
330
3C
100
AcDbScale
 70
     0
300
1" = 1'-0"
140
1.0
141
12.0
290
     0
  0
SCALE
  5
5A
102
{ACAD_REACTORS
330
3C
102
}
330
3C
100
AcDbScale
 70
     0
300
1-1/2" = 1'-0"
140
1.5
141
12.0
290
     0
  0
SCALE
  5
5B
102
{ACAD_REACTORS
330
3C
102
}
330
3C
100
AcDbScale
 70
     0
300
3" = 1'-0"
140
3.0
141
12.0
290
     0
  0
SCALE
  5
5C
102
{ACAD_REACTORS
330
3C
102
}
330
3C
100
AcDbScale
 70
     0
300
6" = 1'-0"
140
6.0
141
12.0
290
     0
  0
SCALE
  5
5D
102
{ACAD_REACTORS
330
3C
102
}
330
3C
100
AcDbScale
 70
     0
300
1'-0" = 1'-0"
140
12.0
141
12.0
290
     0
  0
VISUALSTYLE
  5
2F
102
{ACAD_REACTORS
330
2A
102
}
330
2A
100
AcDbVisualStyle
  2
2dWireframe
 70
     4
 71
     0
 72
     2
 73
     0
 90
        0
 40
-0.6
 41
-30.0
 62
     5
 63
     7
421
 16777215
 74
     1
 91
        4
 64
     7
 65
   257
 75
     1
175
     1
 42
1.0
 92
        0
 66
   257
 43
1.0
 76
     1
 77
     6
 78
     2
 67
     7
 79
     5
170
     0
171
     0
290
     0
174
     0
 93
        1
 44
0.0
173
     0
291
     0
 45
0.0
1001
ACAD
1000
AcDbSavedByObjectVersion
1070
     0
  0
VISUALSTYLE
  5
31
102
{ACAD_REACTORS
330
2A
102
}
330
2A
100
AcDbVisualStyle
  2
3D Hidden
 70
     6
 71
     1
 72
     2
 73
     2
 90
        0
 40
-0.6
 41
-30.0
 62
     5
 63
     7
421
 16777215
 74
     2
 91
        2
 64
     7
 65
   257
 75
     2
175
     1
 42
40.0
 92
        0
 66
   257
 43
1.0
 76
     1
 77
     6
 78
     2
 67
     7
 79
     3
170
     0
171
     0
290
     0
174
     0
 93
        1
 44
0.0
173
     0
291
     0
 45
0.0
1001
ACAD
1000
AcDbSavedByObjectVersion
1070
     0
  0
VISUALSTYLE
  5
30
102
{ACAD_REACTORS
330
2A
102
}
330
2A
100
AcDbVisualStyle
  2
3dWireframe
 70
     5
 71
     0
 72
     2
 73
     0
 90
        0
 40
-0.6
 41
-30.0
 62
     5
 63
     7
421
 16777215
 74
     1
 91
        4
 64
     7
 65
   257
 75
     1
175
     1
 42
1.0
 92
        0
 66
   257
 43
1.0
 76
     1
 77
     6
 78
     2
 67
     7
 79
     5
170
     0
171
     0
290
     0
174
     0
 93
        1
 44
0.0
173
     0
291
     0
 45
0.0
1001
ACAD
1000
AcDbSavedByObjectVersion
1070
     0
  0
VISUALSTYLE
  5
32
102
{ACAD_REACTORS
330
2A
102
}
330
2A
100
AcDbVisualStyle
  2
Basic
 70
     7
 71
     1
 72
     0
 73
     1
 90
        0
 40
-0.6
 41
-30.0
 62
     5
 63
     7
421
 16777215
 74
     0
 91
        4
 64
     7
 65
   257
 75
     1
175
     1
 42
1.0
 92
        8
 66
     7
 43
1.0
 76
     1
 77
     6
 78
     2
 67
     7
 79
     5
170
     0
171
     0
290
     0
174
     0
 93
        1
 44
0.0
173
     0
291
     1
 45
0.0
1001
ACAD
1000
AcDbSavedByObjectVersion
1070
     0
  0
VISUALSTYLE
  5
36
102
{ACAD_REACTORS
330
2A
102
}
330
2A
100
AcDbVisualStyle
  2
Brighten
 70
    12
 71
     2
 72
     2
 73
     0
 90
        0
 40
-0.6
 41
-30.0
 62
     5
 63
     7
421
 16777215
 74
     1
 91
        4
 64
     7
 65
   257
 75
     1
175
     1
 42
1.0
 92
        8
 66
     7
 43
1.0
 76
     1
 77
     6
 78
     2
 67
     7
 79
     5
170
     0
171
     0
290
     0
174
     0
 93
        1
 44
50.0
173
     0
291
     1
 45
0.0
1001
ACAD
1000
AcDbSavedByObjectVersion
1070
     0
  0
VISUALSTYLE
  5
3A
102
{ACAD_REACTORS
330
2A
102
}
330
2A
100
AcDbVisualStyle
  2
ColorChange
 70
    16
 71
     2
 72
     2
 73
     3
 90
        0
 40
-0.6
 41
-30.0
 62
     5
 63
     8
421
  8421504
 74
     1
 91
        4
 64
     7
 65
   257
 75
     1
175
     1
 42
1.0
 92
        8
 66
     8
424
  8421504
 43
1.0
 76
     1
 77
     6
 78
     2
 67
     7
 79
     5
170
     0
171
     0
290
     0
174
     0
 93
        1
 44
0.0
173
     0
291
     1
 45
0.0
1001
ACAD
1000
AcDbSavedByObjectVersion
1070
     0
  0
VISUALSTYLE
  5
34
102
{ACAD_REACTORS
330
2A
102
}
330
2A
100
AcDbVisualStyle
  2
Conceptual
 70
     9
 71
     3
 72
     2
 73
     0
 90
        0
 40
-0.6
 41
-30.0
 62
     5
 63
     7
421
 16777215
 74
     2
 91
        2
 64
     7
 65
   257
 75
     1
175
     1
 42
40.0
 92
        8
 66
     7
 43
1.0
 76
     1
 77
     6
 78
     2
 67
     7
 79
     3
170
     0
171
     0
290
     0
174
     0
 93
        1
 44
0.0
173
     0
291
     0
 45
0.0
1001
ACAD
1000
AcDbSavedByObjectVersion
1070
     0
  0
VISUALSTYLE
  5
35
102
{ACAD_REACTORS
330
2A
102
}
330
2A
100
AcDbVisualStyle
  2
Dim
 70
    11
 71
     2
 72
     2
 73
     0
 90
        0
 40
-0.6
 41
-30.0
 62
     5
 63
     7
421
 16777215
 74
     1
 91
        4
 64
     7
 65
   257
 75
     1
175
     1
 42
1.0
 92
        8
 66
     7
 43
1.0
 76
     1
 77
     6
 78
     2
 67
     7
 79
     5
170
     0
171
     0
290
     0
174
     0
 93
        1
 44
-50.0
173
     0
291
     1
 45
0.0
1001
ACAD
1000
AcDbSavedByObjectVersion
1070
     0
  0
VISUALSTYLE
  5
39
102
{ACAD_REACTORS
330
2A
102
}
330
2A
100
AcDbVisualStyle
  2
Facepattern
 70
    15
 71
     2
 72
     2
 73
     0
 90
        0
 40
-0.6
 41
-30.0
 62
     5
 63
     7
421
 16777215
 74
     1
 91
        4
 64
     7
 65
   257
 75
     1
175
     1
 42
1.0
 92
        8
 66
     7
 43
1.0
 76
     1
 77
     6
 78
     2
 67
     7
 79
     5
170
     0
171
     0
290
     0
174
     0
 93
        1
 44
0.0
173
     0
291
     1
 45
0.0
1001
ACAD
1000
AcDbSavedByObjectVersion
1070
     0
  0
VISUALSTYLE
  5
2B
102
{ACAD_REACTORS
330
2A
102
}
330
2A
100
AcDbVisualStyle
  2
Flat
 70
     0
 71
     2
 72
     1
 73
     1
 90
        2
 40
-0.6
 41
30.0
 62
     5
 63
     7
421
 16777215
 74
     0
 91
        4
 64
     7
 65
   257
 75
     1
175
     1
 42
1.0
 92
        8
 66
     7
 43
1.0
 76
     1
 77
     6
 78
     2
 67
     7
 79
     5
170
     0
171
     0
290
     0
174
     0
 93
       13
 44
0.0
173
     0
291
     1
 45
0.0
1001
ACAD
1000
AcDbSavedByObjectVersion
1070
     0
  0
VISUALSTYLE
  5
2C
102
{ACAD_REACTORS
330
2A
102
}
330
2A
100
AcDbVisualStyle
  2
FlatWithEdges
 70
     1
 71
     2
 72
     1
 73
     1
 90
        2
 40
-0.6
 41
30.0
 62
     5
 63
     7
421
 16777215
 74
     1
 91
        4
 64
     7
 65
   257
 75
     1
175
     1
 42
1.0
 92
        0
 66
   257
 43
1.0
 76
     1
 77
     6
 78
     2
 67
     7
 79
     5
170
     0
171
     0
290
     0
174
     0
 93
       13
 44
0.0
173
     0
291
     1
 45
0.0
1001
ACAD
1000
AcDbSavedByObjectVersion
1070
     0
  0
VISUALSTYLE
  5
2D
102
{ACAD_REACTORS
330
2A
102
}
330
2A
100
AcDbVisualStyle
  2
Gouraud
 70
     2
 71
     2
 72
     2
 73
     1
 90
        2
 40
-0.6
 41
30.0
 62
     5
 63
     7
421
 16777215
 74
     0
 91
        4
 64
     7
 65
   257
 75
     1
175
     1
 42
1.0
 92
        0
 66
     7
 43
1.0
 76
     1
 77
     6
 78
     2
 67
     7
 79
     5
170
     0
171
     0
290
     0
174
     0
 93
       13
 44
0.0
173
     0
291
     1
 45
0.0
1001
ACAD
1000
AcDbSavedByObjectVersion
1070
     0
  0
VISUALSTYLE
  5
2E
102
{ACAD_REACTORS
330
2A
102
}
330
2A
100
AcDbVisualStyle
  2
GouraudWithEdges
 70
     3
 71
     2
 72
     2
 73
     1
 90
        2
 40
-0.6
 41
30.0
 62
     5
 63
     7
421
 16777215
 74
     1
 91
        4
 64
     7
 65
   257
 75
     1
175
     1
 42
1.0
 92
        0
 66
   257
 43
1.0
 76
     1
 77
     6
 78
     2
 67
     7
 79
     5
170
     0
171
     0
290
     0
174
     0
 93
       13
 44
0.0
173
     0
291
     1
 45
0.0
1001
ACAD
1000
AcDbSavedByObjectVersion
1070
     0
  0
VISUALSTYLE
  5
38
102
{ACAD_REACTORS
330
2A
102
}
330
2A
100
AcDbVisualStyle
  2
Linepattern
 70
    14
 71
     2
 72
     2
 73
     0
 90
        0
 40
-0.6
 41
-30.0
 62
     5
 63
     7
421
 16777215
 74
     1
 91
        4
 64
     7
 65
   257
 75
     7
175
     7
 42
1.0
 92
        8
 66
     7
 43
1.0
 76
     1
 77
     6
 78
     2
 67
     7
 79
     5
170
     0
171
     0
290
     0
174
     0
 93
        1
 44
0.0
173
     0
291
     1
 45
0.0
1001
ACAD
1000
AcDbSavedByObjectVersion
1070
     0
  0
VISUALSTYLE
  5
33
102
{ACAD_REACTORS
330
2A
102
}
330
2A
100
AcDbVisualStyle
  2
Realistic
 70
     8
 71
     2
 72
     2
 73
     0
 90
        0
 40
-0.6
 41
-30.0
 62
     5
 63
     7
421
 16777215
 74
     1
 91
        0
 64
     7
 65
   257
 75
     1
175
     1
 42
1.0
 92
        8
 66
     8
424
  7895160
 43
1.0
 76
     1
 77
     6
 78
     2
 67
     7
 79
     5
170
     0
171
     0
290
     0
174
     0
 93
       13
 44
0.0
173
     0
291
     0
 45
0.0
1001
ACAD
1000
AcDbSavedByObjectVersion
1070
     0
  0
VISUALSTYLE
  5
37
102
{ACAD_REACTORS
330
2A
102
}
330
2A
100
AcDbVisualStyle
  2
Thicken
 70
    13
 71
     2
 72
     2
 73
     0
 90
        0
 40
-0.6
 41
-30.0
 62
     5
 63
     7
421
 16777215
 74
     1
 91
        4
 64
     7
 65
   257
 75
     1
175
     1
 42
1.0
 92
       12
 66
     7
 43
1.0
 76
     1
 77
     6
 78
     2
 67
     7
 79
     5
170
     0
171
     0
290
     0
174
     0
 93
        1
 44
0.0
173
     0
291
     1
 45
0.0
1001
ACAD
1000
AcDbSavedByObjectVersion
1070
     0
  0
DICTIONARYVAR
  5
E5
102
{ACAD_REACTORS
330
E4
102
}
330
E4
100
DictionaryVariables
280
     0
  1
1:1
  0
ENDSEC
  0
EOF
