  0
SECTION
  2
HEADER
  9
$ACADVER
  1
AC1018
  9
$ACADMAINTVER
 70
     0
  9
$DWGCODEPAGE
  3
ANSI_1252
  9
$INSBASE
 10
0.0
 20
0.0
 30
0.0
  9
$EXTMIN
 10
3.1295120906
 20
1.09346565012
 30
0.0
  9
$EXTMAX
 10
13.944664286
 20
20.3504791492
 30
0.0
  9
$LIMMIN
 10
0.0
 20
0.0
  9
$LIMMAX
 10
12.0
 20
9.0
  9
$ORTHOMODE
 70
     0
  9
$REGENMODE
 70
     1
  9
$FILLMODE
 70
     1
  9
$QTEXTMODE
 70
     0
  9
$MIRRTEXT
 70
     1
  9
$LTSCALE
 40
0.0393700787401575
  9
$ATTMODE
 70
     1
  9
$TEXTSIZE
 40
0.2
  9
$TRACEWID
 40
0.05
  9
$TEXTSTYLE
  7
Standard
  9
$CLAYER
  8
0
  9
$CELTYPE
  6
ByLayer
  9
$CECOLOR
 62
   256
  9
$CELTSCALE
 40
1.0
  9
$DISPSILH
 70
     0
  9
$DIMSCALE
 40
1.0
  9
$DIMASZ
 40
0.18
  9
$DIMEXO
 40
0.0625
  9
$DIMDLI
 40
0.38
  9
$DIMRND
 40
0.0
  9
$DIMDLE
 40
0.0
  9
$DIMEXE
 40
0.18
  9
$DIMTP
 40
0.0
  9
$DIMTM
 40
0.0
  9
$DIMTXT
 40
0.18
  9
$DIMCEN
 40
0.09
  9
$DIMTSZ
 40
0.0
  9
$DIMTOL
 70
     0
  9
$DIMLIM
 70
     0
  9
$DIMTIH
 70
     1
  9
$DIMTOH
 70
     1
  9
$DIMSE1
 70
     0
  9
$DIMSE2
 70
     0
  9
$DIMTAD
 70
     0
  9
$DIMZIN
 70
     0
  9
$DIMBLK
  1

  9
$DIMASO
 70
     1
  9
$DIMSHO
 70
     1
  9
$DIMPOST
  1

  9
$DIMAPOST
  1

  9
$DIMALT
 70
     0
  9
$DIMALTD
 70
     2
  9
$DIMALTF
 40
25.4
  9
$DIMLFAC
 40
1.0
  9
$DIMTOFL
 70
     0
  9
$DIMTVP
 40
0.0
  9
$DIMTIX
 70
     0
  9
$DIMSOXD
 70
     0
  9
$DIMSAH
 70
     0
  9
$DIMBLK1
  1

  9
$DIMBLK2
  1

  9
$DIMSTYLE
  2
Standard
  9
$DIMCLRD
 70
     0
  9
$DIMCLRE
 70
     0
  9
$DIMCLRT
 70
     0
  9
$DIMTFAC
 40
1.0
  9
$DIMGAP
 40
0.09
  9
$DIMJUST
 70
     0
  9
$DIMSD1
 70
     0
  9
$DIMSD2
 70
     0
  9
$DIMTOLJ
 70
     1
  9
$DIMTZIN
 70
     0
  9
$DIMALTZ
 70
     0
  9
$DIMALTTZ
 70
     0
  9
$DIMUPT
 70
     0
  9
$DIMDEC
 70
     4
  9
$DIMTDEC
 70
     4
  9
$DIMALTU
 70
     2
  9
$DIMALTTD
 70
     2
  9
$DIMTXSTY
  7
Standard
  9
$DIMAUNIT
 70
     0
  9
$DIMADEC
 70
     0
  9
$DIMALTRND
 40
0.0
  9
$DIMAZIN
 70
     0
  9
$DIMDSEP
 70
    46
  9
$DIMATFIT
 70
     3
  9
$DIMFRAC
 70
     0
  9
$DIMLDRBLK
  1

  9
$DIMLUNIT
 70
     2
  9
$DIMLWD
 70
    -2
  9
$DIMLWE
 70
    -2
  9
$DIMTMOVE
 70
     2
  9
$LUNITS
 70
     2
  9
$LUPREC
 70
     2
  9
$SKETCHINC
 40
0.1
  9
$FILLETRAD
 40
0.5
  9
$AUNITS
 70
     0
  9
$AUPREC
 70
     0
  9
$MENU
  1
.
  9
$ELEVATION
 40
0.0
  9
$PELEVATION
 40
0.0
  9
$THICKNESS
 40
0.0
  9
$LIMCHECK
 70
     0
  9
$CHAMFERA
 40
0.5
  9
$CHAMFERB
 40
0.5
  9
$CHAMFERC
 40
1.0
  9
$CHAMFERD
 40
0.0
  9
$SKPOLY
 70
     0
  9
$TDCREATE
 40
2455388.587078241
  9
$TDUCREATE
 40
2455388.878744907
  9
$TDUPDATE
 40
2455388.587078252
  9
$TDUUPDATE
 40
2455388.878744919
  9
$TDINDWG
 40
0.0000000116
  9
$TDUSRTIMER
 40
0.0000000116
  9
$USRTIMER
 70
     1
  9
$ANGBASE
 50
0.0
  9
$ANGDIR
 70
     0
  9
$PDMODE
 70
     0
  9
$PDSIZE
 40
0.0
  9
$PLINEWID
 40
0.0
  9
$SPLFRAME
 70
     0
  9
$SPLINETYPE
 70
     6
  9
$SPLINESEGS
 70
     8
  9
$HANDSEED
  5
114
  9
$SURFTAB1
 70
     6
  9
$SURFTAB2
 70
     6
  9
$SURFTYPE
 70
     6
  9
$SURFU
 70
     6
  9
$SURFV
 70
     6
  9
$UCSBASE
  2

  9
$UCSNAME
  2

  9
$UCSORG
 10
0.0
 20
0.0
 30
0.0
  9
$UCSXDIR
 10
1.0
 20
0.0
 30
0.0
  9
$UCSYDIR
 10
0.0
 20
1.0
 30
0.0
  9
$UCSORTHOREF
  2

  9
$UCSORTHOVIEW
 70
     0
  9
$UCSORGTOP
 10
0.0
 20
0.0
 30
0.0
  9
$UCSORGBOTTOM
 10
0.0
 20
0.0
 30
0.0
  9
$UCSORGLEFT
 10
0.0
 20
0.0
 30
0.0
  9
$UCSORGRIGHT
 10
0.0
 20
0.0
 30
0.0
  9
$UCSORGFRONT
 10
0.0
 20
0.0
 30
0.0
  9
$UCSORGBACK
 10
0.0
 20
0.0
 30
0.0
  9
$PUCSBASE
  2

  9
$PUCSNAME
  2

  9
$PUCSORG
 10
0.0
 20
0.0
 30
0.0
  9
$PUCSXDIR
 10
1.0
 20
0.0
 30
0.0
  9
$PUCSYDIR
 10
0.0
 20
1.0
 30
0.0
  9
$PUCSORTHOREF
  2

  9
$PUCSORTHOVIEW
 70
     0
  9
$PUCSORGTOP
 10
0.0
 20
0.0
 30
0.0
  9
$PUCSORGBOTTOM
 10
0.0
 20
0.0
 30
0.0
  9
$PUCSORGLEFT
 10
0.0
 20
0.0
 30
0.0
  9
$PUCSORGRIGHT
 10
0.0
 20
0.0
 30
0.0
  9
$PUCSORGFRONT
 10
0.0
 20
0.0
 30
0.0
  9
$PUCSORGBACK
 10
0.0
 20
0.0
 30
0.0
  9
$USERI1
 70
     0
  9
$USERI2
 70
     0
  9
$USERI3
 70
     0
  9
$USERI4
 70
     0
  9
$USERI5
 70
     0
  9
$USERR1
 40
0.0
  9
$USERR2
 40
0.0
  9
$USERR3
 40
0.0
  9
$USERR4
 40
0.0
  9
$USERR5
 40
0.0
  9
$WORLDVIEW
 70
     1
  9
$SHADEDGE
 70
     3
  9
$SHADEDIF
 70
    70
  9
$TILEMODE
 70
     0
  9
$MAXACTVP
 70
    64
  9
$PINSBASE
 10
0.0
 20
0.0
 30
0.0
  9
$PLIMCHECK
 70
     0
  9
$PEXTMIN
 10
0.0
 20
0.0
 30
0.0
  9
$PEXTMAX
 10
0.0
 20
0.0
 30
0.0
  9
$PLIMMIN
 10
0.0
 20
0.0
  9
$PLIMMAX
 10
12.0
 20
9.0
  9
$UNITMODE
 70
     0
  9
$VISRETAIN
 70
     1
  9
$PLINEGEN
 70
     0
  9
$PSLTSCALE
 70
     1
  9
$TREEDEPTH
 70
  3020
  9
$CMLSTYLE
  2
Standard
  9
$CMLJUST
 70
     0
  9
$CMLSCALE
 40
1.0
  9
$PROXYGRAPHICS
 70
     1
  9
$MEASUREMENT
 70
     0
  9
$CELWEIGHT
370
    -1
  9
$ENDCAPS
280
     0
  9
$JOINSTYLE
280
     0
  9
$LWDISPLAY
290
     0
  9
$INSUNITS
 70
     1
  9
$HYPERLINKBASE
  1

  9
$STYLESHEET
  1

  9
$XEDIT
290
     1
  9
$CEPSNTYPE
380
     0
  9
$PSTYLEMODE
290
     1
  9
$FINGERPRINTGUID
  2
{AC419BBE-9A8A-4684-959D-EBEF576941F2}
  9
$VERSIONGUID
  2
{FAEB1C32-E019-11D5-929B-00C0DF256EC4}
  9
$EXTNAMES
290
     1
  9
$PSVPSCALE
 40
0.0
  9
$OLESTARTUP
290
     0
  9
$SORTENTS
280
   127
  9
$INDEXCTL
280
     0
  9
$HIDETEXT
280
     1
  9
$XCLIPFRAME
290
     0
  9
$HALOGAP
280
     0
  9
$OBSCOLOR
 70
   257
  9
$OBSLTYPE
280
     0
  9
$INTERSECTIONDISPLAY
280
     0
  9
$INTERSECTIONCOLOR
 70
   257
  9
$DIMASSOC
280
     2
  9
$PROJECTNAME
  1

  0
ENDSEC
  0
SECTION
  2
CLASSES
  0
CLASS
  1
ACDBDICTIONARYWDFLT
  2
AcDbDictionaryWithDefault
  3
ObjectDBX Classes
 90
        0
 91
        4
280
     0
281
     0
  0
CLASS
  1
VISUALSTYLE
  2
AcDbVisualStyle
  3
ObjectDBX Classes
 90
     4095
 91
        4
280
     0
281
     0
  0
CLASS
  1
SCALE
  2
AcDbScale
  3
ObjectDBX Classes
 90
     1153
 91
        4
280
     0
281
     0
  0
CLASS
  1
DICTIONARYVAR
  2
AcDbDictionaryVar
  3
ObjectDBX Classes
 90
        0
 91
        4
280
     0
281
     0
  0
ENDSEC
  0
SECTION
  2
TABLES
  0
TABLE
  2
VPORT
  5
8
330
0
100
AcDbSymbolTable
 70
     1
  0
VPORT
  5
29
330
8
100
AcDbSymbolTableRecord
100
AcDbViewportTableRecord
  2
*Active
 70
     0
 10
0.0
 20
0.0
 11
1.0
 21
1.0
 12
8.5370881883
 22
10.72585363325607
 13
0.0
 23
0.0
 14
0.5
 24
0.5
 15
0.5
 25
0.5
 16
0.0
 26
0.0
 36
1.0
 17
0.0
 27
0.0
 37
0.0
 40
19.63423605252563
 41
0.5618479481349101
 42
50.0
 43
0.0
 44
0.0
 50
0.0
 51
0.0
 71
     0
 72
   100
 73
     1
 74
     3
 75
     0
 76
     0
 77
     0
 78
     0
281
     0
 65
     1
110
0.0
120
0.0
130
0.0
111
1.0
121
0.0
131
0.0
112
0.0
122
1.0
132
0.0
 79
     0
146
0.0
  0
ENDTAB
  0
TABLE
  2
LTYPE
  5
5
330
0
100
AcDbSymbolTable
 70
     1
  0
LTYPE
  5
14
330
5
100
AcDbSymbolTableRecord
100
AcDbLinetypeTableRecord
  2
ByBlock
 70
     0
  3

 72
    65
 73
     0
 40
0.0
  0
LTYPE
  5
15
330
5
100
AcDbSymbolTableRecord
100
AcDbLinetypeTableRecord
  2
ByLayer
 70
     0
  3

 72
    65
 73
     0
 40
0.0
  0
LTYPE
  5
16
330
5
100
AcDbSymbolTableRecord
100
AcDbLinetypeTableRecord
  2
Continuous
 70
     0
  3
Solid line
 72
    65
 73
     0
 40
0.0
  0
ENDTAB
  0
TABLE
  2
LAYER
  5
2
330
0
100
AcDbSymbolTable
 70
     1
  0
LAYER
  5
10
330
2
100
AcDbSymbolTableRecord
100
AcDbLayerTableRecord
  2
0
 70
     0
 62
     7
  6
Continuous
370
    -3
390
F
  0
ENDTAB
  0
TABLE
  2
STYLE
  5
3
330
0
100
AcDbSymbolTable
 70
     1
  0
STYLE
  5
11
330
3
100
AcDbSymbolTableRecord
100
AcDbTextStyleTableRecord
  2
Standard
 70
     0
 40
0.0
 41
1.0
 50
0.0
 71
     0
 42
0.2
  3
txt
  4

  0
ENDTAB
  0
TABLE
  2
VIEW
  5
6
330
0
100
AcDbSymbolTable
 70
     0
  0
ENDTAB
  0
TABLE
  2
UCS
  5
7
330
0
100
AcDbSymbolTable
 70
     0
  0
ENDTAB
  0
TABLE
  2
APPID
  5
9
330
0
100
AcDbSymbolTable
 70
     1
  0
APPID
  5
12
330
9
100
AcDbSymbolTableRecord
100
AcDbRegAppTableRecord
  2
ACAD
 70
     0
  0
ENDTAB
  0
TABLE
  2
DIMSTYLE
  5
A
330
0
100
AcDbSymbolTable
 70
     1
100
AcDbDimStyleTable
  0
DIMSTYLE
105
27
330
A
100
AcDbSymbolTableRecord
100
AcDbDimStyleTableRecord
  2
Standard
 70
     0
340
11
  0
ENDTAB
  0
TABLE
  2
BLOCK_RECORD
  5
1
330
0
100
AcDbSymbolTable
 70
     3
  0
BLOCK_RECORD
  5
1F
330
1
100
AcDbSymbolTableRecord
100
AcDbBlockTableRecord
  2
*Model_Space
340
22
  0
BLOCK_RECORD
  5
10B
330
1
100
AcDbSymbolTableRecord
100
AcDbBlockTableRecord
  2
*Paper_Space
340
10C
  0
BLOCK_RECORD
  5
23
330
1
100
AcDbSymbolTableRecord
100
AcDbBlockTableRecord
  2
*Paper_Space0
340
26
  0
BLOCK_RECORD
  5
1B
330
1
100
AcDbSymbolTableRecord
100
AcDbBlockTableRecord
  2
*Paper_Space1
340
1E
  0
BLOCK_RECORD
  5
106
330
1
100
AcDbSymbolTableRecord
100
AcDbBlockTableRecord
  2
*Paper_Space2
340
107
  0
ENDTAB
  0
ENDSEC
  0
SECTION
  2
BLOCKS
  0
BLOCK
  5
20
330
1F
100
AcDbEntity
  8
0
100
AcDbBlockBegin
  2
*Model_Space
 70
     0
 10
0.0
 20
0.0
 30
0.0
  3
*Model_Space
  1

  0
ENDBLK
  5
21
330
1F
100
AcDbEntity
  8
0
100
AcDbBlockEnd
  0
BLOCK
  5
10D
330
10B
100
AcDbEntity
 67
     1
  8
0
100
AcDbBlockBegin
  2
*Paper_Space
 70
     0
 10
0.0
 20
0.0
 30
0.0
  3
*Paper_Space
  1

  0
ENDBLK
  5
10E
330
10B
100
AcDbEntity
 67
     1
  8
0
100
AcDbBlockEnd
  0
BLOCK
  5
24
330
23
100
AcDbEntity
  8
0
100
AcDbBlockBegin
  2
*Paper_Space0
 70
     0
 10
0.0
 20
0.0
 30
0.0
  3
*Paper_Space0
  1

  0
ENDBLK
  5
25
330
23
100
AcDbEntity
  8
0
100
AcDbBlockEnd
  0
BLOCK
  5
1C
330
1B
100
AcDbEntity
  8
0
100
AcDbBlockBegin
  2
*Paper_Space1
 70
     0
 10
0.0
 20
0.0
 30
0.0
  3
*Paper_Space1
  1

  0
ENDBLK
  5
1D
330
1B
100
AcDbEntity
  8
0
100
AcDbBlockEnd
  0
BLOCK
  5
108
330
106
100
AcDbEntity
  8
0
100
AcDbBlockBegin
  2
*Paper_Space2
 70
     0
 10
0.0
 20
0.0
 30
0.0
  3
*Paper_Space2
  1

  0
VIEWPORT
  5
10A
330
106
100
AcDbEntity
  8
0
100
AcDbViewport
 10
6.0
 20
4.5
 30
0.0
 40
12.696
 41
9.522
 68
     1
 69
     1
 12
6.0
 22
4.5
 13
0.0
 23
0.0
 14
0.5
 24
0.5
 15
0.5
 25
0.5
 16
0.0
 26
0.0
 36
1.0
 17
0.0
 27
0.0
 37
0.0
 42
50.0
 43
0.0
 44
0.0
 45
9.522
 50
0.0
 51
0.0
 72
   100
 90
   557152
  1

281
     0
 71
     1
 74
     0
110
0.0
120
0.0
130
0.0
111
1.0
121
0.0
131
0.0
112
0.0
122
1.0
132
0.0
 79
     0
146
0.0
170
     0
  0
ENDBLK
  5
109
330
106
100
AcDbEntity
  8
0
100
AcDbBlockEnd
  0
ENDSEC
  0
SECTION
  2
ENTITIES
  0
LINE
  5
3B
330
1F
100
AcDbEntity
  8
0
 62
   255
370
    15
100
AcDbLine
 10
4.7865963289
 20
4.6312315522
 30
0.0
 11
4.786596330999999
 21
4.6212315519
 31
0.0
  0
ARC
  5
3C
330
1F
100
AcDbEntity
  8
0
 62
   255
370
    15
100
AcDbCircle
 10
4.886596331
 20
4.6212315519
 30
0.0
 40
0.1000000000000005
100
AcDbArc
 50
180.0
 51
270.0
  0
LINE
  5
3D
330
1F
100
AcDbEntity
  8
0
 62
   255
370
    15
100
AcDbLine
 10
4.886596331
 20
4.5212315519
 30
0.0
 11
4.896596331
 21
4.521231551900001
 31
0.0
  0
ARC
  5
3E
330
1F
100
AcDbEntity
  8
0
 62
   255
370
    15
100
AcDbCircle
 10
4.896596331
 20
4.6212315519
 30
0.0
 40
0.0999999999999996
100
AcDbArc
 50
270.0
 51
0.0
  0
LINE
  5
3F
330
1F
100
AcDbEntity
  8
0
 62
   255
370
    15
100
AcDbLine
 10
4.996596330999999
 20
4.6212315519
 30
0.0
 11
4.996596331
 21
4.6312315519
 31
0.0
  0
ARC
  5
40
330
1F
100
AcDbEntity
  8
0
 62
   255
370
    15
100
AcDbCircle
 10
4.896596331
 20
4.6312315519
 30
0.0
 40
0.1000000000000005
100
AcDbArc
 50
0.0
 51
90.0
  0
LINE
  5
41
330
1F
100
AcDbEntity
  8
0
 62
   255
370
    15
100
AcDbLine
 10
4.896596331
 20
4.731231551900001
 30
0.0
 11
4.886596331
 21
4.731231551900001
 31
0.0
  0
ARC
  5
42
330
1F
100
AcDbEntity
  8
0
 62
   255
370
    15
100
AcDbCircle
 10
4.886596331
 20
4.631231549800001
 30
0.0
 40
0.1000000020999998
100
AcDbArc
 50
90.0
 51
179.9999986249017
  0
LINE
  5
43
330
1F
100
AcDbEntity
  8
0
 62
   255
370
    15
100
AcDbLine
 10
13.3023885456
 20
4.5607986006
 30
0.0
 11
13.3123885456
 21
4.5607986006
 31
0.0
  0
ARC
  5
44
330
1F
100
AcDbEntity
  8
0
 62
   255
370
    15
100
AcDbCircle
 10
13.3123885456
 20
4.6607986006
 30
0.0
 40
0.0999999999999996
100
AcDbArc
 50
270.0
 51
0.0
  0
LINE
  5
45
330
1F
100
AcDbEntity
  8
0
 62
   255
370
    15
100
AcDbLine
 10
13.4123885477
 20
4.6607986003
 30
0.0
 11
13.4123885456
 21
4.6707986006
 31
0.0
  0
ARC
  5
46
330
1F
100
AcDbEntity
  8
0
 62
   255
370
    15
100
AcDbCircle
 10
13.3123885456
 20
4.6707986006
 30
0.0
 40
0.0999999999999996
100
AcDbArc
 50
0.0
 51
90.0
  0
LINE
  5
47
330
1F
100
AcDbEntity
  8
0
 62
   255
370
    15
100
AcDbLine
 10
13.3123885456
 20
4.7707986006
 30
0.0
 11
13.3023885456
 21
4.7707986006
 31
0.0
  0
ARC
  5
48
330
1F
100
AcDbEntity
  8
0
 62
   255
370
    15
100
AcDbCircle
 10
13.3023885456
 20
4.6707986006
 30
0.0
 40
0.0999999999999996
100
AcDbArc
 50
90.0
 51
180.0
  0
LINE
  5
49
330
1F
100
AcDbEntity
  8
0
 62
   255
370
    15
100
AcDbLine
 10
13.2023885456
 20
4.6707986006
 30
0.0
 11
13.2023885456
 21
4.6607986006
 31
0.0
  0
ARC
  5
4A
330
1F
100
AcDbEntity
  8
0
 62
   255
370
    15
100
AcDbCircle
 10
13.3023885456
 20
4.6607986006
 30
0.0
 40
0.0999999999999996
100
AcDbArc
 50
180.0
 51
270.0
  0
LINE
  5
4B
330
1F
100
AcDbEntity
  8
0
 62
   255
370
    15
100
AcDbLine
 10
13.5093885438
 20
4.0677986121
 30
0.0
 11
13.9053885341
 21
4.0677986121
 31
0.0
  0
LINE
  5
4C
330
1F
100
AcDbEntity
  8
0
 62
   255
370
    15
100
AcDbLine
 10
13.9053885341
 20
4.0677986121
 30
0.0
 11
13.9053885341
 21
4.4637986024
 31
0.0
  0
LINE
  5
4D
330
1F
100
AcDbEntity
  8
0
 62
   255
370
    15
100
AcDbLine
 10
13.9053885341
 20
4.4637986024
 30
0.0
 11
13.7783885479
 21
4.4637986024
 31
0.0
  0
LINE
  5
4E
330
1F
100
AcDbEntity
  8
0
 62
   255
370
    15
100
AcDbLine
 10
13.7783885479
 20
4.4637986024
 30
0.0
 11
13.7783885479
 21
4.7048694251
 31
0.0
  0
SPLINE
  5
4F
330
1F
100
AcDbEntity
  8
0
 62
   255
370
    15
100
AcDbSpline
210
0.0
220
0.0
230
1.0
 70
     8
 71
     3
 72
    13
 73
     9
 74
     0
 42
0.0000000001
 43
0.0000000001
 40
-1.0
 40
-1.0
 40
-1.0
 40
-1.0
 40
-0.832480808982319
 40
-0.664916543168973
 40
-0.4974002765882884
 40
-0.3316150906205949
 40
-0.1657825617293866
 40
0.0
 40
0.0
 40
0.0
 40
0.0
 10
13.77838854793035
 20
4.704869425061865
 30
0.0
 10
13.76100296078215
 20
4.734683720013727
 30
0.0
 10
13.72622710850358
 20
4.794320332122218
 30
0.0
 10
13.67784669830348
 20
4.885891938775039
 30
0.0
 10
13.6324876573248
 20
4.978587444273232
 30
0.0
 10
13.59056337969768
 20
5.072494962751223
 30
0.0
 10
13.55173212324194
 20
5.167351883744861
 30
0.0
 10
13.52864100223155
 20
5.231652916901263
 30
0.0
 10
13.51709718139525
 20
5.2637985890989
 30
0.0
  0
LINE
  5
50
330
1F
100
AcDbEntity
  8
0
 62
   255
370
    15
100
AcDbLine
 10
13.51709718139525
 20
5.2637985890989
 30
0.0
 11
13.5093885438
 21
5.2637985891
 31
0.0
  0
LINE
  5
51
330
1F
100
AcDbEntity
  8
0
 62
   255
370
    15
100
AcDbLine
 10
13.5093885438
 20
5.2637985891
 30
0.0
 11
13.5093885438
 21
5.1367986029
 31
0.0
  0
LINE
  5
52
330
1F
100
AcDbEntity
  8
0
 62
   255
370
    15
100
AcDbLine
 10
13.5093885438
 20
5.1367986029
 30
0.0
 11
13.1053885475
 21
5.1367986029
 31
0.0
  0
LINE
  5
53
330
1F
100
AcDbEntity
  8
0
 62
   255
370
    15
100
AcDbLine
 10
13.1053885475
 20
5.1367986029
 30
0.0
 11
13.1053885475
 21
5.2637985891
 31
0.0
  0
LINE
  5
54
330
1F
100
AcDbEntity
  8
0
 62
   255
370
    15
100
AcDbLine
 10
13.1053885475
 20
5.2637985891
 30
0.0
 11
12.7093885571
 21
5.2637985891
 31
0.0
  0
LINE
  5
55
330
1F
100
AcDbEntity
  8
0
 62
   255
370
    15
100
AcDbLine
 10
12.7093885571
 20
5.2637985891
 30
0.0
 11
12.7093885571
 21
4.8677985987
 31
0.0
  0
LINE
  5
56
330
1F
100
AcDbEntity
  8
0
 62
   255
370
    15
100
AcDbLine
 10
12.7093885571
 20
4.8677985987
 30
0.0
 11
12.8363885433
 21
4.8677985987
 31
0.0
  0
LINE
  5
57
330
1F
100
AcDbEntity
  8
0
 62
   255
370
    15
100
AcDbLine
 10
12.8363885433
 20
4.8677985987
 30
0.0
 11
12.8363885433
 21
4.4637986024
 31
0.0
  0
LINE
  5
58
330
1F
100
AcDbEntity
  8
0
 62
   255
370
    15
100
AcDbLine
 10
12.8363885433
 20
4.4637986024
 30
0.0
 11
12.7093885571
 21
4.4637986024
 31
0.0
  0
LINE
  5
59
330
1F
100
AcDbEntity
  8
0
 62
   255
370
    15
100
AcDbLine
 10
12.7093885571
 20
4.4637986024
 30
0.0
 11
12.7093885571
 21
4.0677986121
 31
0.0
  0
LINE
  5
5A
330
1F
100
AcDbEntity
  8
0
 62
   255
370
    15
100
AcDbLine
 10
12.7093885571
 20
4.0677986121
 30
0.0
 11
13.1053885475
 21
4.0677986121
 31
0.0
  0
LINE
  5
5B
330
1F
100
AcDbEntity
  8
0
 62
   255
370
    15
100
AcDbLine
 10
13.1053885475
 20
4.0677986121
 30
0.0
 11
13.1053885475
 21
4.1947985983
 31
0.0
  0
LINE
  5
5C
330
1F
100
AcDbEntity
  8
0
 62
   255
370
    15
100
AcDbLine
 10
13.1053885475
 20
4.1947985983
 30
0.0
 11
13.5093885438
 21
4.1947985983
 31
0.0
  0
LINE
  5
5D
330
1F
100
AcDbEntity
  8
0
 62
   255
370
    15
100
AcDbLine
 10
13.5093885438
 20
4.1947985983
 30
0.0
 11
13.5093885438
 21
4.0677986121
 31
0.0
  0
LINE
  5
5E
330
1F
100
AcDbEntity
  8
0
 62
   255
370
    15
100
AcDbLine
 10
5.3625963333
 20
4.8242315563
 30
0.0
 11
5.3625963333
 21
5.2242315405
 31
0.0
  0
LINE
  5
5F
330
1F
100
AcDbEntity
  8
0
 62
   255
370
    15
100
AcDbLine
 10
5.3625963333
 20
5.2242315405
 30
0.0
 11
5.0935963291
 21
5.2242315405
 31
0.0
  0
LINE
  5
60
330
1F
100
AcDbEntity
  8
0
 62
   255
370
    15
100
AcDbLine
 10
5.0935963291
 20
5.2242315405
 30
0.0
 11
5.0935963291
 21
5.0972315542
 31
0.0
  0
LINE
  5
61
330
1F
100
AcDbEntity
  8
0
 62
   255
370
    15
100
AcDbLine
 10
5.0935963291
 20
5.0972315542
 30
0.0
 11
4.832314789108311
 21
5.097231554217999
 31
0.0
  0
SPLINE
  5
62
330
1F
100
AcDbEntity
  8
0
 62
   255
370
    15
100
AcDbSpline
210
0.0
220
0.0
230
1.0
 70
     8
 71
     3
 72
    14
 73
    10
 74
     0
 42
0.0000000001
 43
0.0000000001
 40
-1.0
 40
-1.0
 40
-1.0
 40
-1.0
 40
-0.8554889694524714
 40
-0.7108950930782919
 40
-0.5663638472039096
 40
-0.4238937736203899
 40
-0.281368422330372
 40
-0.138885061086891
 40
0.0
 40
0.0
 40
0.0
 40
0.0
 10
4.832314789108311
 20
5.097231554217999
 30
0.0
 10
4.810571852209875
 20
5.063607169947166
 30
0.0
 10
4.767073513544801
 20
4.99633912508931
 30
0.0
 10
4.695958317291932
 20
4.899438969992851
 30
0.0
 10
4.621413207641756
 20
4.805923685763739
 30
0.0
 10
4.543434855131774
 20
4.715994107834188
 30
0.0
 10
4.4624710286438
 20
4.629538668881007
 30
0.0
 10
4.379344612995729
 20
4.546540790465263
 30
0.0
 10
4.321934367616739
 20
4.493804766765156
 30
0.0
 10
4.29359634243809
 20
4.467773964117127
 30
0.0
  0
LINE
  5
63
330
1F
100
AcDbEntity
  8
0
 62
   255
370
    15
100
AcDbLine
 10
4.2935963424
 20
4.4677739641
 30
0.0
 11
4.2935963424
 21
4.4282315476
 31
0.0
  0
LINE
  5
64
330
1F
100
AcDbEntity
  8
0
 62
   255
370
    15
100
AcDbLine
 10
4.2935963424
 20
4.4282315476
 30
0.0
 11
4.4205963287
 21
4.4282315476
 31
0.0
  0
LINE
  5
65
330
1F
100
AcDbEntity
  8
0
 62
   255
370
    15
100
AcDbLine
 10
4.4205963287
 20
4.4282315476
 30
0.0
 11
4.4205963287
 21
4.1552315496
 31
0.0
  0
LINE
  5
66
330
1F
100
AcDbEntity
  8
0
 62
   255
370
    15
100
AcDbLine
 10
4.4205963287
 20
4.1552315496
 30
0.0
 11
4.6935963266
 21
4.1552315496
 31
0.0
  0
LINE
  5
67
330
1F
100
AcDbEntity
  8
0
 62
   255
370
    15
100
AcDbLine
 10
4.6935963266
 20
4.1552315496
 30
0.0
 11
4.6935963266
 21
4.0282315634
 31
0.0
  0
LINE
  5
68
330
1F
100
AcDbEntity
  8
0
 62
   255
370
    15
100
AcDbLine
 10
4.6935963266
 20
4.0282315634
 30
0.0
 11
5.0895963353
 21
4.0282315634
 31
0.0
  0
LINE
  5
69
330
1F
100
AcDbEntity
  8
0
 62
   255
370
    15
100
AcDbLine
 10
5.0895963353
 20
4.0282315634
 30
0.0
 11
5.0895963353
 21
4.1552315496
 31
0.0
  0
LINE
  5
6A
330
1F
100
AcDbEntity
  8
0
 62
   255
370
    15
100
AcDbLine
 10
5.0895963353
 20
4.1552315496
 30
0.0
 11
5.3625963333
 21
4.1552315496
 31
0.0
  0
LINE
  5
6B
330
1F
100
AcDbEntity
  8
0
 62
   255
370
    15
100
AcDbLine
 10
5.3625963333
 20
4.1552315496
 30
0.0
 11
5.3625963333
 21
4.4282315476
 31
0.0
  0
LINE
  5
6C
330
1F
100
AcDbEntity
  8
0
 62
   255
370
    15
100
AcDbLine
 10
5.3625963333
 20
4.4282315476
 30
0.0
 11
5.4895963195
 21
4.4282315476
 31
0.0
  0
LINE
  5
6D
330
1F
100
AcDbEntity
  8
0
 62
   255
370
    15
100
AcDbLine
 10
5.4895963195
 20
4.4282315476
 30
0.0
 11
5.4895963195
 21
4.8242315563
 31
0.0
  0
LINE
  5
6E
330
1F
100
AcDbEntity
  8
0
 62
   255
370
    15
100
AcDbLine
 10
5.4895963195
 20
4.8242315563
 30
0.0
 11
5.3625963333
 21
4.8242315563
 31
0.0
  0
LINE
  5
6F
330
1F
100
AcDbEntity
  8
0
 62
   255
370
    15
100
AcDbLine
 10
13.4516642975
 20
11.9586311403
 30
0.0
 11
13.4516642975
 21
11.9686311403
 31
0.0
  0
ARC
  5
70
330
1F
100
AcDbEntity
  8
0
 62
   255
370
    15
100
AcDbCircle
 10
13.3516642975
 20
11.9686311403
 30
0.0
 40
0.0999999999999996
100
AcDbArc
 50
0.0
 51
90.0
  0
LINE
  5
71
330
1F
100
AcDbEntity
  8
0
 62
   255
370
    15
100
AcDbLine
 10
13.3516642975
 20
12.0686311403
 30
0.0
 11
13.3416642975
 21
12.0686311403
 31
0.0
  0
ARC
  5
72
330
1F
100
AcDbEntity
  8
0
 62
   255
370
    15
100
AcDbCircle
 10
13.3416642975
 20
11.9686311403
 30
0.0
 40
0.0999999999999996
100
AcDbArc
 50
90.0
 51
180.0
  0
LINE
  5
73
330
1F
100
AcDbEntity
  8
0
 62
   255
370
    15
100
AcDbLine
 10
13.2416642975
 20
11.9686311403
 30
0.0
 11
13.2416642975
 21
11.9586311403
 31
0.0
  0
ARC
  5
74
330
1F
100
AcDbEntity
  8
0
 62
   255
370
    15
100
AcDbCircle
 10
13.3416642975
 20
11.9586311403
 30
0.0
 40
0.1000000000000014
100
AcDbArc
 50
180.0
 51
270.0
  0
LINE
  5
75
330
1F
100
AcDbEntity
  8
0
 62
   255
370
    15
100
AcDbLine
 10
13.3416642975
 20
11.8586311403
 30
0.0
 11
13.3516642978
 21
11.8586311382
 31
0.0
  0
ARC
  5
76
330
1F
100
AcDbEntity
  8
0
 62
   255
370
    15
100
AcDbCircle
 10
13.3516642975
 20
11.9586311403
 30
0.0
 40
0.1000000000000014
100
AcDbArc
 50
270.0
 51
0.0
  0
LINE
  5
77
330
1F
100
AcDbEntity
  8
0
 62
   255
370
    15
100
AcDbLine
 10
5.0135729475
 20
11.668078487
 30
0.0
 11
5.0235729478
 21
11.668078489
 31
0.0
  0
ARC
  5
78
330
1F
100
AcDbEntity
  8
0
 62
   255
370
    15
100
AcDbCircle
 10
5.0235729478
 20
11.768078489
 30
0.0
 40
0.1000000000000005
100
AcDbArc
 50
270.0
 51
0.0
  0
LINE
  5
79
330
1F
100
AcDbEntity
  8
0
 62
   255
370
    15
100
AcDbLine
 10
5.1235729478
 20
11.768078489
 30
0.0
 11
5.1235729478
 21
11.778078489
 31
0.0
  0
ARC
  5
7A
330
1F
100
AcDbEntity
  8
0
 62
   255
370
    15
100
AcDbCircle
 10
5.0235729478
 20
11.778078489
 30
0.0
 40
0.1000000000000005
100
AcDbArc
 50
0.0
 51
90.0
  0
LINE
  5
7B
330
1F
100
AcDbEntity
  8
0
 62
   255
370
    15
100
AcDbLine
 10
5.0235729478
 20
11.878078489
 30
0.0
 11
5.0135729478
 21
11.878078489
 31
0.0
  0
ARC
  5
7C
330
1F
100
AcDbEntity
  8
0
 62
   255
370
    15
100
AcDbCircle
 10
5.0135729478
 20
11.778078489
 30
0.0
 40
0.1000000000000005
100
AcDbArc
 50
90.0
 51
180.0
  0
LINE
  5
7D
330
1F
100
AcDbEntity
  8
0
 62
   255
370
    15
100
AcDbLine
 10
4.9135729478
 20
11.778078489
 30
0.0
 11
4.9135729478
 21
11.768078489
 31
0.0
  0
ARC
  5
7E
330
1F
100
AcDbEntity
  8
0
 62
   255
370
    15
100
AcDbCircle
 10
5.013572949800001
 20
11.768078489
 30
0.0
 40
0.1000000020000016
100
AcDbArc
 50
180.0
 51
269.9999986821965
  0
LINE
  5
7F
330
1F
100
AcDbEntity
  8
0
 62
   255
370
    15
100
AcDbLine
 10
12.8756642952
 20
11.3656311518
 30
0.0
 11
13.1446642994
 21
11.3656311518
 31
0.0
  0
LINE
  5
80
330
1F
100
AcDbEntity
  8
0
 62
   255
370
    15
100
AcDbLine
 10
13.1446642994
 20
11.3656311518
 30
0.0
 11
13.1446642994
 21
11.492631138
 31
0.0
  0
LINE
  5
81
330
1F
100
AcDbEntity
  8
0
 62
   255
370
    15
100
AcDbLine
 10
13.1446642994
 20
11.492631138
 30
0.0
 11
13.5486642956
 21
11.492631138
 31
0.0
  0
LINE
  5
82
330
1F
100
AcDbEntity
  8
0
 62
   255
370
    15
100
AcDbLine
 10
13.5486642956
 20
11.492631138
 30
0.0
 11
13.5486642956
 21
11.3656311518
 31
0.0
  0
LINE
  5
83
330
1F
100
AcDbEntity
  8
0
 62
   255
370
    15
100
AcDbLine
 10
13.5486642956
 20
11.3656311518
 30
0.0
 11
13.8176642998
 21
11.3656311518
 31
0.0
  0
LINE
  5
84
330
1F
100
AcDbEntity
  8
0
 62
   255
370
    15
100
AcDbLine
 10
13.8176642998
 20
11.3656311518
 30
0.0
 11
13.8176642998
 21
11.7656311359
 31
0.0
  0
LINE
  5
85
330
1F
100
AcDbEntity
  8
0
 62
   255
370
    15
100
AcDbLine
 10
13.8176642998
 20
11.7656311359
 30
0.0
 11
13.944664286
 21
11.7656311359
 31
0.0
  0
LINE
  5
86
330
1F
100
AcDbEntity
  8
0
 62
   255
370
    15
100
AcDbLine
 10
13.944664286
 20
11.7656311359
 30
0.0
 11
13.944664286
 21
12.1616311446
 31
0.0
  0
LINE
  5
87
330
1F
100
AcDbEntity
  8
0
 62
   255
370
    15
100
AcDbLine
 10
13.944664286
 20
12.1616311446
 30
0.0
 11
13.8176642998
 21
12.1616311446
 31
0.0
  0
LINE
  5
88
330
1F
100
AcDbEntity
  8
0
 62
   255
370
    15
100
AcDbLine
 10
13.8176642998
 20
12.1616311446
 30
0.0
 11
13.8176642998
 21
12.4346311426
 31
0.0
  0
LINE
  5
89
330
1F
100
AcDbEntity
  8
0
 62
   255
370
    15
100
AcDbLine
 10
13.8176642998
 20
12.4346311426
 30
0.0
 11
13.5446643019
 21
12.4346311426
 31
0.0
  0
LINE
  5
8A
330
1F
100
AcDbEntity
  8
0
 62
   255
370
    15
100
AcDbLine
 10
13.5446643019
 20
12.4346311426
 30
0.0
 11
13.5446643019
 21
12.5616311288
 31
0.0
  0
LINE
  5
8B
330
1F
100
AcDbEntity
  8
0
 62
   255
370
    15
100
AcDbLine
 10
13.5446643019
 20
12.5616311288
 30
0.0
 11
13.1486642931
 21
12.5616311288
 31
0.0
  0
LINE
  5
8C
330
1F
100
AcDbEntity
  8
0
 62
   255
370
    15
100
AcDbLine
 10
13.1486642931
 20
12.5616311288
 30
0.0
 11
13.1486642931
 21
12.4346311426
 31
0.0
  0
LINE
  5
8D
330
1F
100
AcDbEntity
  8
0
 62
   255
370
    15
100
AcDbLine
 10
13.1486642931
 20
12.4346311426
 30
0.0
 11
12.8756642952
 21
12.4346311426
 31
0.0
  0
LINE
  5
8E
330
1F
100
AcDbEntity
  8
0
 62
   255
370
    15
100
AcDbLine
 10
12.8756642952
 20
12.4346311426
 30
0.0
 11
12.8756642952
 21
12.1616311446
 31
0.0
  0
LINE
  5
8F
330
1F
100
AcDbEntity
  8
0
 62
   255
370
    15
100
AcDbLine
 10
12.8756642952
 20
12.1616311446
 30
0.0
 11
12.748664309
 21
12.1616311446
 31
0.0
  0
LINE
  5
90
330
1F
100
AcDbEntity
  8
0
 62
   255
370
    15
100
AcDbLine
 10
12.748664309
 20
12.1616311446
 30
0.0
 11
12.748664309
 21
11.7656311359
 31
0.0
  0
LINE
  5
91
330
1F
100
AcDbEntity
  8
0
 62
   255
370
    15
100
AcDbLine
 10
12.748664309
 20
11.7656311359
 30
0.0
 11
12.8756642952
 21
11.7656311359
 31
0.0
  0
LINE
  5
92
330
1F
100
AcDbEntity
  8
0
 62
   255
370
    15
100
AcDbLine
 10
12.8756642952
 20
11.7656311359
 30
0.0
 11
12.8756642952
 21
11.3656311518
 31
0.0
  0
LINE
  5
93
330
1F
100
AcDbEntity
  8
0
 62
   255
370
    15
100
AcDbLine
 10
4.4205729593
 20
12.2440784913
 30
0.0
 11
4.4205729593
 21
11.9750784872
 31
0.0
  0
LINE
  5
94
330
1F
100
AcDbEntity
  8
0
 62
   255
370
    15
100
AcDbLine
 10
4.4205729593
 20
11.9750784872
 30
0.0
 11
4.5475729455
 21
11.9750784872
 31
0.0
  0
LINE
  5
95
330
1F
100
AcDbEntity
  8
0
 62
   255
370
    15
100
AcDbLine
 10
4.5475729455
 20
11.9750784872
 30
0.0
 11
4.5475729455
 21
11.5710784909
 31
0.0
  0
LINE
  5
96
330
1F
100
AcDbEntity
  8
0
 62
   255
370
    15
100
AcDbLine
 10
4.5475729455
 20
11.5710784909
 30
0.0
 11
4.4205729593
 21
11.5710784909
 31
0.0
  0
LINE
  5
97
330
1F
100
AcDbEntity
  8
0
 62
   255
370
    15
100
AcDbLine
 10
4.4205729593
 20
11.5710784909
 30
0.0
 11
4.4205729593
 21
11.3020784867
 31
0.0
  0
LINE
  5
98
330
1F
100
AcDbEntity
  8
0
 62
   255
370
    15
100
AcDbLine
 10
4.4205729593
 20
11.3020784867
 30
0.0
 11
4.8205729435
 21
11.3020784867
 31
0.0
  0
LINE
  5
99
330
1F
100
AcDbEntity
  8
0
 62
   255
370
    15
100
AcDbLine
 10
4.8205729435
 20
11.3020784867
 30
0.0
 11
4.8205729435
 21
11.1750785005
 31
0.0
  0
LINE
  5
9A
330
1F
100
AcDbEntity
  8
0
 62
   255
370
    15
100
AcDbLine
 10
4.8205729435
 20
11.1750785005
 30
0.0
 11
5.2165729522
 21
11.1750785005
 31
0.0
  0
LINE
  5
9B
330
1F
100
AcDbEntity
  8
0
 62
   255
370
    15
100
AcDbLine
 10
5.2165729522
 20
11.1750785005
 30
0.0
 11
5.2165729522
 21
11.3020784867
 31
0.0
  0
LINE
  5
9C
330
1F
100
AcDbEntity
  8
0
 62
   255
370
    15
100
AcDbLine
 10
5.2165729522
 20
11.3020784867
 30
0.0
 11
5.4895729501
 21
11.3020784867
 31
0.0
  0
LINE
  5
9D
330
1F
100
AcDbEntity
  8
0
 62
   255
370
    15
100
AcDbLine
 10
5.4895729501
 20
11.3020784867
 30
0.0
 11
5.4895729501
 21
11.5750784847
 31
0.0
  0
LINE
  5
9E
330
1F
100
AcDbEntity
  8
0
 62
   255
370
    15
100
AcDbLine
 10
5.4895729501
 20
11.5750784847
 30
0.0
 11
5.6165729363
 21
11.5750784847
 31
0.0
  0
LINE
  5
9F
330
1F
100
AcDbEntity
  8
0
 62
   255
370
    15
100
AcDbLine
 10
5.6165729363
 20
11.5750784847
 30
0.0
 11
5.6165729363
 21
11.9710784934
 31
0.0
  0
LINE
  5
A0
330
1F
100
AcDbEntity
  8
0
 62
   255
370
    15
100
AcDbLine
 10
5.6165729363
 20
11.9710784934
 30
0.0
 11
5.4895729501
 21
11.9710784934
 31
0.0
  0
LINE
  5
A1
330
1F
100
AcDbEntity
  8
0
 62
   255
370
    15
100
AcDbLine
 10
5.4895729501
 20
11.9710784934
 30
0.0
 11
5.4895729501
 21
12.2440784913
 31
0.0
  0
LINE
  5
A2
330
1F
100
AcDbEntity
  8
0
 62
   255
370
    15
100
AcDbLine
 10
5.4895729501
 20
12.2440784913
 30
0.0
 11
5.2165729522
 21
12.2440784913
 31
0.0
  0
LINE
  5
A3
330
1F
100
AcDbEntity
  8
0
 62
   255
370
    15
100
AcDbLine
 10
5.2165729522
 20
12.2440784913
 30
0.0
 11
5.2165729522
 21
12.3710784775
 31
0.0
  0
LINE
  5
A4
330
1F
100
AcDbEntity
  8
0
 62
   255
370
    15
100
AcDbLine
 10
5.2165729522
 20
12.3710784775
 30
0.0
 11
4.8205729435
 21
12.3710784775
 31
0.0
  0
LINE
  5
A5
330
1F
100
AcDbEntity
  8
0
 62
   255
370
    15
100
AcDbLine
 10
4.8205729435
 20
12.3710784775
 30
0.0
 11
4.8205729435
 21
12.2440784913
 31
0.0
  0
LINE
  5
A6
330
1F
100
AcDbEntity
  8
0
 62
   255
370
    15
100
AcDbLine
 10
4.8205729435
 20
12.2440784913
 30
0.0
 11
4.4205729593
 21
12.2440784913
 31
0.0
  0
LINE
  5
A7
330
1F
100
AcDbEntity
  8
0
 62
   255
370
    15
100
AcDbLine
 10
4.9380529522
 20
19.8574791607
 30
0.0
 11
4.9280529522
 21
19.8574791607
 31
0.0
  0
ARC
  5
A8
330
1F
100
AcDbEntity
  8
0
 62
   255
370
    15
100
AcDbCircle
 10
4.9280529522
 20
19.7574791607
 30
0.0
 40
0.1000000000000014
100
AcDbArc
 50
90.0
 51
180.0
  0
LINE
  5
A9
330
1F
100
AcDbEntity
  8
0
 62
   255
370
    15
100
AcDbLine
 10
4.828052952199998
 20
19.7574791607
 30
0.0
 11
4.828052952199998
 21
19.7474791607
 31
0.0
  0
ARC
  5
AA
330
1F
100
AcDbEntity
  8
0
 62
   255
370
    15
100
AcDbCircle
 10
4.9280529522
 20
19.7474791607
 30
0.0
 40
0.1000000000000014
100
AcDbArc
 50
180.0
 51
270.0
  0
LINE
  5
AB
330
1F
100
AcDbEntity
  8
0
 62
   255
370
    15
100
AcDbLine
 10
4.9280529522
 20
19.6474791607
 30
0.0
 11
4.9380529522
 21
19.6474791607
 31
0.0
  0
ARC
  5
AC
330
1F
100
AcDbEntity
  8
0
 62
   255
370
    15
100
AcDbCircle
 10
4.9380529522
 20
19.7474791607
 30
0.0
 40
0.1000000000000014
100
AcDbArc
 50
270.0
 51
0.0
  0
LINE
  5
AD
330
1F
100
AcDbEntity
  8
0
 62
   255
370
    15
100
AcDbLine
 10
5.038052952200001
 20
19.7474791607
 30
0.0
 11
5.0380529543
 21
19.757479161
 31
0.0
  0
ARC
  5
AE
330
1F
100
AcDbEntity
  8
0
 62
   255
370
    15
100
AcDbCircle
 10
4.9380529522
 20
19.7574791607
 30
0.0
 40
0.1000000000000014
100
AcDbArc
 50
0.0
 51
90.0
  0
LINE
  5
AF
330
1F
100
AcDbEntity
  8
0
 62
   255
370
    15
100
AcDbLine
 10
13.3500346268
 20
19.7568086784
 30
0.0
 11
13.3400346268
 21
19.7568086784
 31
0.0
  0
ARC
  5
B0
330
1F
100
AcDbEntity
  8
0
 62
   255
370
    15
100
AcDbCircle
 10
13.3400346268
 20
19.6568086784
 30
0.0
 40
0.1000000000000014
100
AcDbArc
 50
90.0
 51
180.0
  0
LINE
  5
B1
330
1F
100
AcDbEntity
  8
0
 62
   255
370
    15
100
AcDbLine
 10
13.2400346268
 20
19.6568086784
 30
0.0
 11
13.2400346247
 21
19.6468086781
 31
0.0
  0
ARC
  5
B2
330
1F
100
AcDbEntity
  8
0
 62
   255
370
    15
100
AcDbCircle
 10
13.3400346268
 20
19.6468086784
 30
0.0
 40
0.1000000000000014
100
AcDbArc
 50
180.0
 51
270.0
  0
LINE
  5
B3
330
1F
100
AcDbEntity
  8
0
 62
   255
370
    15
100
AcDbLine
 10
13.3400346268
 20
19.5468086784
 30
0.0
 11
13.3500346268
 21
19.5468086784
 31
0.0
  0
ARC
  5
B4
330
1F
100
AcDbEntity
  8
0
 62
   255
370
    15
100
AcDbCircle
 10
13.3500346268
 20
19.6468086784
 30
0.0
 40
0.1000000000000014
100
AcDbArc
 50
270.0
 51
0.0
  0
LINE
  5
B5
330
1F
100
AcDbEntity
  8
0
 62
   255
370
    15
100
AcDbLine
 10
13.4500346268
 20
19.6468086784
 30
0.0
 11
13.4500346268
 21
19.6568086784
 31
0.0
  0
ARC
  5
B6
330
1F
100
AcDbEntity
  8
0
 62
   255
370
    15
100
AcDbCircle
 10
13.3500346268
 20
19.6568086784
 30
0.0
 40
0.1000000000000014
100
AcDbArc
 50
0.0
 51
90.0
  0
LINE
  5
B7
330
1F
100
AcDbEntity
  8
0
 62
   255
370
    15
100
AcDbLine
 10
13.1430346286
 20
20.1228086807
 30
0.0
 11
13.1430346286
 21
20.2498086669
 31
0.0
  0
LINE
  5
B8
330
1F
100
AcDbEntity
  8
0
 62
   255
370
    15
100
AcDbLine
 10
13.1430346286
 20
20.2498086669
 30
0.0
 11
12.7470346382
 21
20.2498086669
 31
0.0
  0
LINE
  5
B9
330
1F
100
AcDbEntity
  8
0
 62
   255
370
    15
100
AcDbLine
 10
12.7470346382
 20
20.2498086669
 30
0.0
 11
12.7470346382
 21
19.8538086765
 31
0.0
  0
LINE
  5
BA
330
1F
100
AcDbEntity
  8
0
 62
   255
370
    15
100
AcDbLine
 10
12.7470346382
 20
19.8538086765
 30
0.0
 11
12.8740346245
 21
19.8538086765
 31
0.0
  0
LINE
  5
BB
330
1F
100
AcDbEntity
  8
0
 62
   255
370
    15
100
AcDbLine
 10
12.8740346245
 20
19.8538086765
 30
0.0
 11
12.8740346245
 21
19.4498086802
 31
0.0
  0
LINE
  5
BC
330
1F
100
AcDbEntity
  8
0
 62
   255
370
    15
100
AcDbLine
 10
12.8740346245
 20
19.4498086802
 30
0.0
 11
12.7470346382
 21
19.4498086802
 31
0.0
  0
LINE
  5
BD
330
1F
100
AcDbEntity
  8
0
 62
   255
370
    15
100
AcDbLine
 10
12.7470346382
 20
19.4498086802
 30
0.0
 11
12.7470346382
 21
19.0538086899
 31
0.0
  0
LINE
  5
BE
330
1F
100
AcDbEntity
  8
0
 62
   255
370
    15
100
AcDbLine
 10
12.7470346382
 20
19.0538086899
 30
0.0
 11
13.1430346286
 21
19.0538086899
 31
0.0
  0
LINE
  5
BF
330
1F
100
AcDbEntity
  8
0
 62
   255
370
    15
100
AcDbLine
 10
13.1430346286
 20
19.0538086899
 30
0.0
 11
13.1430346286
 21
19.1808086761
 31
0.0
  0
LINE
  5
C0
330
1F
100
AcDbEntity
  8
0
 62
   255
370
    15
100
AcDbLine
 10
13.1430346286
 20
19.1808086761
 30
0.0
 11
13.5470346249
 21
19.1808086761
 31
0.0
  0
LINE
  5
C1
330
1F
100
AcDbEntity
  8
0
 62
   255
370
    15
100
AcDbLine
 10
13.5470346249
 20
19.1808086761
 30
0.0
 11
13.5470346249
 21
19.0538086899
 31
0.0
  0
LINE
  5
C2
330
1F
100
AcDbEntity
  8
0
 62
   255
370
    15
100
AcDbLine
 10
13.5470346249
 20
19.0538086899
 30
0.0
 11
13.9430346153
 21
19.0538086899
 31
0.0
  0
LINE
  5
C3
330
1F
100
AcDbEntity
  8
0
 62
   255
370
    15
100
AcDbLine
 10
13.9430346153
 20
19.0538086899
 30
0.0
 11
13.9430346153
 21
19.4498086802
 31
0.0
  0
LINE
  5
C4
330
1F
100
AcDbEntity
  8
0
 62
   255
370
    15
100
AcDbLine
 10
13.9430346153
 20
19.4498086802
 30
0.0
 11
13.8160346291
 21
19.4498086802
 31
0.0
  0
LINE
  5
C5
330
1F
100
AcDbEntity
  8
0
 62
   255
370
    15
100
AcDbLine
 10
13.8160346291
 20
19.4498086802
 30
0.0
 11
13.8160346291
 21
19.8538086765
 31
0.0
  0
LINE
  5
C6
330
1F
100
AcDbEntity
  8
0
 62
   255
370
    15
100
AcDbLine
 10
13.8160346291
 20
19.8538086765
 30
0.0
 11
13.9430346153
 21
19.8538086765
 31
0.0
  0
LINE
  5
C7
330
1F
100
AcDbEntity
  8
0
 62
   255
370
    15
100
AcDbLine
 10
13.9430346153
 20
19.8538086765
 30
0.0
 11
13.9430346153
 21
20.2498086669
 31
0.0
  0
LINE
  5
C8
330
1F
100
AcDbEntity
  8
0
 62
   255
370
    15
100
AcDbLine
 10
13.9430346153
 20
20.2498086669
 30
0.0
 11
13.5470346249
 21
20.2498086669
 31
0.0
  0
LINE
  5
C9
330
1F
100
AcDbEntity
  8
0
 62
   255
370
    15
100
AcDbLine
 10
13.5470346249
 20
20.2498086669
 30
0.0
 11
13.5470346249
 21
20.1228086807
 31
0.0
  0
LINE
  5
CA
330
1F
100
AcDbEntity
  8
0
 62
   255
370
    15
100
AcDbLine
 10
13.5470346249
 20
20.1228086807
 30
0.0
 11
13.1430346286
 21
20.1228086807
 31
0.0
  0
LINE
  5
CB
330
1F
100
AcDbEntity
  8
0
 62
   255
370
    15
100
AcDbLine
 10
5.1310529566
 20
19.1544791722
 30
0.0
 11
5.1310529566
 21
19.2814791584
 31
0.0
  0
LINE
  5
CC
330
1F
100
AcDbEntity
  8
0
 62
   255
370
    15
100
AcDbLine
 10
5.1310529566
 20
19.2814791584
 30
0.0
 11
5.5310529407
 21
19.2814791584
 31
0.0
  0
LINE
  5
CD
330
1F
100
AcDbEntity
  8
0
 62
   255
370
    15
100
AcDbLine
 10
5.5310529407
 20
19.2814791584
 30
0.0
 11
5.5310529407
 21
19.5504791626
 31
0.0
  0
LINE
  5
CE
330
1F
100
AcDbEntity
  8
0
 62
   255
370
    15
100
AcDbLine
 10
5.5310529407
 20
19.5504791626
 30
0.0
 11
5.4040529545
 21
19.5504791626
 31
0.0
  0
LINE
  5
CF
330
1F
100
AcDbEntity
  8
0
 62
   255
370
    15
100
AcDbLine
 10
5.4040529545
 20
19.5504791626
 30
0.0
 11
5.4040529545
 21
19.9544791589
 31
0.0
  0
LINE
  5
D0
330
1F
100
AcDbEntity
  8
0
 62
   255
370
    15
100
AcDbLine
 10
5.4040529545
 20
19.9544791589
 30
0.0
 11
5.5310529407
 21
19.9544791589
 31
0.0
  0
LINE
  5
D1
330
1F
100
AcDbEntity
  8
0
 62
   255
370
    15
100
AcDbLine
 10
5.5310529407
 20
19.9544791589
 30
0.0
 11
5.5310529407
 21
20.223479163
 31
0.0
  0
LINE
  5
D2
330
1F
100
AcDbEntity
  8
0
 62
   255
370
    15
100
AcDbLine
 10
5.5310529407
 20
20.223479163
 30
0.0
 11
5.1310529566
 21
20.223479163
 31
0.0
  0
LINE
  5
D3
330
1F
100
AcDbEntity
  8
0
 62
   255
370
    15
100
AcDbLine
 10
5.1310529566
 20
20.223479163
 30
0.0
 11
5.1310529566
 21
20.3504791492
 31
0.0
  0
LINE
  5
D4
330
1F
100
AcDbEntity
  8
0
 62
   255
370
    15
100
AcDbLine
 10
5.1310529566
 20
20.3504791492
 30
0.0
 11
4.7350529479
 21
20.3504791492
 31
0.0
  0
LINE
  5
D5
330
1F
100
AcDbEntity
  8
0
 62
   255
370
    15
100
AcDbLine
 10
4.7350529479
 20
20.3504791492
 30
0.0
 11
4.7350529479
 21
20.223479163
 31
0.0
  0
LINE
  5
D6
330
1F
100
AcDbEntity
  8
0
 62
   255
370
    15
100
AcDbLine
 10
4.7350529479
 20
20.223479163
 30
0.0
 11
4.64193075703519
 21
20.22347916186362
 31
0.0
  0
SPLINE
  5
D7
330
1F
100
AcDbEntity
  8
0
 62
   255
370
    15
100
AcDbSpline
210
0.0
220
0.0
230
1.0
 70
     8
 71
     3
 72
    14
 73
    10
 74
     0
 42
0.0000000001
 43
0.0000000001
 40
-1.0
 40
-1.0
 40
-1.0
 40
-1.0
 40
-0.7500000000000003
 40
-0.6250000000000002
 40
-0.6250000000000002
 40
-0.5625000000000002
 40
-0.5625000000000002
 40
-0.5000000000000002
 40
0.0
 40
0.0
 40
0.0
 40
0.0
 10
4.64193075703519
 20
20.22347916186362
 30
0.0
 10
4.616212323318457
 20
20.18304153336382
 30
0.0
 10
4.577654615135281
 20
20.12237200353246
 30
0.0
 10
4.539126805241264
 20
20.06168285312352
 30
0.0
 10
4.519867881707923
 20
20.03133500889543
 30
0.0
 10
4.513442769714706
 20
20.02120857691266
 30
0.0
 10
4.500685662503044
 20
20.00109881717365
 30
0.0
 10
4.443286450901557
 20
19.91060067284079
 30
0.0
 10
4.38595716318661
 20
19.82006450643091
 30
0.0
 10
4.335052952226222
 20
19.73955792228723
 30
0.0
  0
LINE
  5
D8
330
1F
100
AcDbEntity
  8
0
 62
   255
370
    15
100
AcDbLine
 10
4.3350529637
 20
19.7395579228
 30
0.0
 11
4.3350529637
 21
19.5544791564
 31
0.0
  0
LINE
  5
D9
330
1F
100
AcDbEntity
  8
0
 62
   255
370
    15
100
AcDbLine
 10
4.3350529637
 20
19.5544791564
 30
0.0
 11
4.4620529499
 21
19.5544791564
 31
0.0
  0
LINE
  5
DA
330
1F
100
AcDbEntity
  8
0
 62
   255
370
    15
100
AcDbLine
 10
4.4620529499
 20
19.5544791564
 30
0.0
 11
4.4620529499
 21
19.2814791584
 31
0.0
  0
LINE
  5
DB
330
1F
100
AcDbEntity
  8
0
 62
   255
370
    15
100
AcDbLine
 10
4.4620529499
 20
19.2814791584
 30
0.0
 11
4.7350529479
 21
19.2814791584
 31
0.0
  0
LINE
  5
DC
330
1F
100
AcDbEntity
  8
0
 62
   255
370
    15
100
AcDbLine
 10
4.7350529479
 20
19.2814791584
 30
0.0
 11
4.7350529479
 21
19.1544791722
 31
0.0
  0
LINE
  5
DD
330
1F
100
AcDbEntity
  8
0
 62
   255
370
    15
100
AcDbLine
 10
4.7350529479
 20
19.1544791722
 30
0.0
 11
5.1310529566
 21
19.1544791722
 31
0.0
  0
MTEXT
  5
DE
330
1F
100
AcDbEntity
  8
0
 62
   255
370
     0
100
AcDbMText
 10
11.6575759016
 20
1.21782753372
 30
0.0
 40
0.1377952756
 41
0.8533345982939757
 71
     7
 72
     1
  1
\fArial;cube_12
 73
     2
 44
0.9638554216867471
  0
MTEXT
  5
101
330
1F
100
AcDbEntity
  8
0
 62
   255
370
     0
100
AcDbMText
 10
3.3388743193
 20
1.09346565012
 30
0.0
 40
0.1377952756
 41
0.8533345982939757
 71
     7
 72
     1
  1
\fArial;cube_12
 73
     2
 44
0.9638554216867471
  0
MTEXT
  5
102
330
1F
100
AcDbEntity
  8
0
 62
   255
370
     0
100
AcDbMText
 10
11.7981568612
 20
8.51202905612
 30
0.0
 40
0.1377952756
 41
0.8533345982939757
 71
     7
 72
     1
  1
\fArial;cube_12
 73
     2
 44
0.9638554216867471
  0
MTEXT
  5
103
330
1F
100
AcDbEntity
  8
0
 62
   255
370
     0
100
AcDbMText
 10
3.3983408701
 20
8.43379719522
 30
0.0
 40
0.1377952756
 41
0.8533345982939757
 71
     7
 72
     1
  1
\fArial;cube_12
 73
     2
 44
0.9638554216867471
  0
MTEXT
  5
104
330
1F
100
AcDbEntity
  8
0
 62
   255
370
     0
100
AcDbMText
 10
11.9255534149
 20
16.29402732522
 30
0.0
 40
0.1377952756
 41
0.8533345982939757
 71
     7
 72
     1
  1
\fArial;cube_12
 73
     2
 44
0.9638554216867471
  0
MTEXT
  5
105
330
1F
100
AcDbEntity
  8
0
 62
   255
370
     0
100
AcDbMText
 10
3.1295120906
 20
18.34993425332
 30
0.0
 40
0.1377952756
 41
1.728251589151807
 71
     7
 72
     1
  1
\fArial;acrylic_R^ cube_12
 73
     2
 44
0.9638554216867471
  0
VIEWPORT
  5
10F
330
10B
100
AcDbEntity
 67
     1
  8
0
100
AcDbViewport
 10
6.0
 20
4.5
 30
0.0
 40
12.696
 41
9.522
 68
     1
 69
     1
 12
6.0
 22
4.5
 13
0.0
 23
0.0
 14
0.5
 24
0.5
 15
0.5
 25
0.5
 16
0.0
 26
0.0
 36
1.0
 17
0.0
 27
0.0
 37
0.0
 42
50.0
 43
0.0
 44
0.0
 45
9.522
 50
0.0
 51
0.0
 72
   100
 90
   557152
  1

281
     0
 71
     1
 74
     0
110
0.0
120
0.0
130
0.0
111
1.0
121
0.0
131
0.0
112
0.0
122
1.0
132
0.0
 79
     0
146
0.0
170
     0
  0
ENDSEC
  0
SECTION
  2
OBJECTS
  0
DICTIONARY
  5
C
330
0
100
AcDbDictionary
281
     1
  3
ACAD_GROUP
350
D
  3
ACAD_LAYOUT
350
1A
  3
ACAD_MLEADERSTYLE
350
113
  3
ACAD_MLINESTYLE
350
17
  3
ACAD_PLOTSETTINGS
350
19
  3
ACAD_PLOTSTYLENAME
350
E
  3
ACAD_SCALELIST
350
DF
  3
ACAD_TABLESTYLE
350
112
  3
ACAD_VISUALSTYLE
350
2A
  3
AcDbVariableDictionary
350
110
  0
DICTIONARY
  5
D
102
{ACAD_REACTORS
330
C
102
}
330
C
100
AcDbDictionary
281
     1
  0
DICTIONARY
  5
1A
102
{ACAD_REACTORS
330
C
102
}
330
C
100
AcDbDictionary
281
     1
  3
LAYOUT1
350
107
  3
LAYOUT2
350
10C
  3
Model
350
22
  0
DICTIONARY
  5
113
102
{ACAD_REACTORS
330
C
102
}
330
C
100
AcDbDictionary
281
     1
  0
DICTIONARY
  5
17
102
{ACAD_REACTORS
330
C
102
}
330
C
100
AcDbDictionary
281
     1
  3
Standard
350
18
  0
DICTIONARY
  5
19
102
{ACAD_REACTORS
330
C
102
}
330
C
100
AcDbDictionary
281
     1
  0
ACDBDICTIONARYWDFLT
  5
E
102
{ACAD_REACTORS
330
C
102
}
330
C
100
AcDbDictionary
281
     1
  3
Normal
350
F
100
AcDbDictionaryWithDefault
340
F
  0
DICTIONARY
  5
DF
102
{ACAD_REACTORS
330
C
102
}
330
C
100
AcDbDictionary
281
     1
  3
A0
350
E0
  3
A1
350
E1
  3
A2
350
E2
  3
A3
350
E3
  3
A4
350
E4
  3
A5
350
E5
  3
A6
350
E6
  3
A7
350
E7
  3
A8
350
E8
  3
A9
350
E9
  3
B0
350
EA
  3
B1
350
EB
  3
B2
350
EC
  3
B3
350
ED
  3
B4
350
EE
  3
B5
350
EF
  3
B6
350
F0
  3
B7
350
F1
  3
B8
350
F2
  3
B9
350
F3
  3
C0
350
F4
  3
C1
350
F5
  3
C2
350
F6
  3
C3
350
F7
  3
C4
350
F8
  3
C5
350
F9
  3
C6
350
FA
  3
C7
350
FB
  3
C8
350
FC
  3
C9
350
FD
  3
D0
350
FE
  3
D1
350
FF
  3
D2
350
100
  0
DICTIONARY
  5
112
102
{ACAD_REACTORS
330
C
102
}
330
C
100
AcDbDictionary
281
     1
  0
DICTIONARY
  5
2A
102
{ACAD_REACTORS
330
C
102
}
330
C
100
AcDbDictionary
281
     1
  3
2dWireframe
350
2F
  3
3D Hidden
350
31
  3
3dWireframe
350
30
  3
Basic
350
32
  3
Brighten
350
36
  3
ColorChange
350
3A
  3
Conceptual
350
34
  3
Dim
350
35
  3
Facepattern
350
39
  3
Flat
350
2B
  3
FlatWithEdges
350
2C
  3
Gouraud
350
2D
  3
GouraudWithEdges
350
2E
  3
Linepattern
350
38
  3
Realistic
350
33
  3
Thicken
350
37
  0
DICTIONARY
  5
110
102
{ACAD_REACTORS
330
C
102
}
330
C
100
AcDbDictionary
281
     1
  3
CANNOSCALE
350
111
  0
LAYOUT
  5
107
102
{ACAD_REACTORS
330
1A
102
}
330
1A
100
AcDbPlotSettings
  1

  2
none_device
  4
Letter_(8.50_x_11.00_Inches)
  6

 40
6.35
 41
6.35
 42
6.35000508
 43
6.35000508
 44
215.9
 45
279.4
 46
0.0
 47
0.0
 48
0.0
 49
0.0
140
0.0
141
0.0
142
1.0
143
1.0
 70
   688
 72
     0
 73
     1
 74
     5
  7

 75
    16
 76
     0
 77
     2
 78
   300
147
1.0
148
0.0
149
0.0
100
AcDbLayout
  1
LAYOUT1
 70
     1
 71
     1
 10
0.0
 20
0.0
 11
0.0
 21
0.0
 12
0.0
 22
0.0
 32
0.0
 14
0.0
 24
0.0
 34
0.0
 15
0.0
 25
0.0
 35
0.0
146
0.0
 13
0.0
 23
0.0
 33
0.0
 16
1.0
 26
0.0
 36
0.0
 17
0.0
 27
1.0
 37
0.0
 76
     0
330
106
331
10A
  0
LAYOUT
  5
10C
102
{ACAD_REACTORS
330
1A
102
}
330
1A
100
AcDbPlotSettings
  1

  2
none_device
  4
Letter_(8.50_x_11.00_Inches)
  6

 40
6.35
 41
6.35
 42
6.35000508
 43
6.35000508
 44
215.9
 45
279.4
 46
0.0
 47
0.0
 48
0.0
 49
0.0
140
0.0
141
0.0
142
1.0
143
1.0
 70
   688
 72
     0
 73
     1
 74
     5
  7

 75
    16
 76
     0
 77
     2
 78
   300
147
1.0
148
0.0
149
0.0
100
AcDbLayout
  1
LAYOUT2
 70
     1
 71
     2
 10
0.0
 20
0.0
 11
0.0
 21
0.0
 12
0.0
 22
0.0
 32
0.0
 14
0.0
 24
0.0
 34
0.0
 15
0.0
 25
0.0
 35
0.0
146
0.0
 13
0.0
 23
0.0
 33
0.0
 16
1.0
 26
0.0
 36
0.0
 17
0.0
 27
1.0
 37
0.0
 76
     0
330
10B
331
10F
  0
LAYOUT
  5
22
102
{ACAD_REACTORS
330
1A
102
}
330
1A
100
AcDbPlotSettings
  1

  2
none_device
  4

  6

 40
0.0
 41
0.0
 42
0.0
 43
0.0
 44
0.0
 45
0.0
 46
0.0
 47
0.0
 48
0.0
 49
0.0
140
0.0
141
0.0
142
1.0
143
1.0
 70
  1712
 72
     0
 73
     0
 74
     0
  7

 75
     0
 76
     0
 77
     2
 78
   300
147
1.0
148
0.0
149
0.0
100
AcDbLayout
  1
Model
 70
     1
 71
     0
 10
0.0
 20
0.0
 11
12.0
 21
9.0
 12
0.0
 22
0.0
 32
0.0
 14
3.1295120906
 24
1.09346565012
 34
0.0
 15
13.944664286
 25
20.3504791492
 35
0.0
146
0.0
 13
0.0
 23
0.0
 33
0.0
 16
1.0
 26
0.0
 36
0.0
 17
0.0
 27
1.0
 37
0.0
 76
     0
330
1F
331
29
  0
MLINESTYLE
  5
18
102
{ACAD_REACTORS
330
17
102
}
330
17
100
AcDbMlineStyle
  2
Standard
 70
     0
  3

 62
   256
 51
90.0
 52
90.0
 71
     2
 49
0.5
 62
   256
  6
BYLAYER
 49
-0.5
 62
   256
  6
BYLAYER
  0
ACDBPLACEHOLDER
  5
F
102
{ACAD_REACTORS
330
E
102
}
330
E
  0
SCALE
  5
E0
102
{ACAD_REACTORS
330
DF
102
}
330
DF
100
AcDbScale
 70
     0
300
1:1
140
1.0
141
1.0
290
     1
  0
SCALE
  5
E1
102
{ACAD_REACTORS
330
DF
102
}
330
DF
100
AcDbScale
 70
     0
300
1:2
140
1.0
141
2.0
290
     0
  0
SCALE
  5
E2
102
{ACAD_REACTORS
330
DF
102
}
330
DF
100
AcDbScale
 70
     0
300
1:4
140
1.0
141
4.0
290
     0
  0
SCALE
  5
E3
102
{ACAD_REACTORS
330
DF
102
}
330
DF
100
AcDbScale
 70
     0
300
1:5
140
1.0
141
5.0
290
     0
  0
SCALE
  5
E4
102
{ACAD_REACTORS
330
DF
102
}
330
DF
100
AcDbScale
 70
     0
300
1:8
140
1.0
141
8.0
290
     0
  0
SCALE
  5
E5
102
{ACAD_REACTORS
330
DF
102
}
330
DF
100
AcDbScale
 70
     0
300
1:10
140
1.0
141
10.0
290
     0
  0
SCALE
  5
E6
102
{ACAD_REACTORS
330
DF
102
}
330
DF
100
AcDbScale
 70
     0
300
1:16
140
1.0
141
16.0
290
     0
  0
SCALE
  5
E7
102
{ACAD_REACTORS
330
DF
102
}
330
DF
100
AcDbScale
 70
     0
300
1:20
140
1.0
141
20.0
290
     0
  0
SCALE
  5
E8
102
{ACAD_REACTORS
330
DF
102
}
330
DF
100
AcDbScale
 70
     0
300
1:30
140
1.0
141
30.0
290
     0
  0
SCALE
  5
E9
102
{ACAD_REACTORS
330
DF
102
}
330
DF
100
AcDbScale
 70
     0
300
1:40
140
1.0
141
40.0
290
     0
  0
SCALE
  5
EA
102
{ACAD_REACTORS
330
DF
102
}
330
DF
100
AcDbScale
 70
     0
300
1:50
140
1.0
141
50.0
290
     0
  0
SCALE
  5
EB
102
{ACAD_REACTORS
330
DF
102
}
330
DF
100
AcDbScale
 70
     0
300
1:100
140
1.0
141
100.0
290
     0
  0
SCALE
  5
EC
102
{ACAD_REACTORS
330
DF
102
}
330
DF
100
AcDbScale
 70
     0
300
2:1
140
2.0
141
1.0
290
     0
  0
SCALE
  5
ED
102
{ACAD_REACTORS
330
DF
102
}
330
DF
100
AcDbScale
 70
     0
300
4:1
140
4.0
141
1.0
290
     0
  0
SCALE
  5
EE
102
{ACAD_REACTORS
330
DF
102
}
330
DF
100
AcDbScale
 70
     0
300
8:1
140
8.0
141
1.0
290
     0
  0
SCALE
  5
EF
102
{ACAD_REACTORS
330
DF
102
}
330
DF
100
AcDbScale
 70
     0
300
10:1
140
10.0
141
1.0
290
     0
  0
SCALE
  5
F0
102
{ACAD_REACTORS
330
DF
102
}
330
DF
100
AcDbScale
 70
     0
300
100:1
140
100.0
141
1.0
290
     0
  0
SCALE
  5
F1
102
{ACAD_REACTORS
330
DF
102
}
330
DF
100
AcDbScale
 70
     0
300
1/128" = 1'-0"
140
0.0078125
141
12.0
290
     0
  0
SCALE
  5
F2
102
{ACAD_REACTORS
330
DF
102
}
330
DF
100
AcDbScale
 70
     0
300
1/64" = 1'-0"
140
0.015625
141
12.0
290
     0
  0
SCALE
  5
F3
102
{ACAD_REACTORS
330
DF
102
}
330
DF
100
AcDbScale
 70
     0
300
1/32" = 1'-0"
140
0.03125
141
12.0
290
     0
  0
SCALE
  5
F4
102
{ACAD_REACTORS
330
DF
102
}
330
DF
100
AcDbScale
 70
     0
300
1/16" = 1'-0"
140
0.0625
141
12.0
290
     0
  0
SCALE
  5
F5
102
{ACAD_REACTORS
330
DF
102
}
330
DF
100
AcDbScale
 70
     0
300
3/32" = 1'-0"
140
0.09375
141
12.0
290
     0
  0
SCALE
  5
F6
102
{ACAD_REACTORS
330
DF
102
}
330
DF
100
AcDbScale
 70
     0
300
1/8" = 1'-0"
140
0.125
141
12.0
290
     0
  0
SCALE
  5
F7
102
{ACAD_REACTORS
330
DF
102
}
330
DF
100
AcDbScale
 70
     0
300
3/16" = 1'-0"
140
0.1875
141
12.0
290
     0
  0
SCALE
  5
F8
102
{ACAD_REACTORS
330
DF
102
}
330
DF
100
AcDbScale
 70
     0
300
1/4" = 1'-0"
140
0.25
141
12.0
290
     0
  0
SCALE
  5
F9
102
{ACAD_REACTORS
330
DF
102
}
330
DF
100
AcDbScale
 70
     0
300
3/8" = 1'-0"
140
0.375
141
12.0
290
     0
  0
SCALE
  5
FA
102
{ACAD_REACTORS
330
DF
102
}
330
DF
100
AcDbScale
 70
     0
300
1/2" = 1'-0"
140
0.5
141
12.0
290
     0
  0
SCALE
  5
FB
102
{ACAD_REACTORS
330
DF
102
}
330
DF
100
AcDbScale
 70
     0
300
3/4" = 1'-0"
140
0.75
141
12.0
290
     0
  0
SCALE
  5
FC
102
{ACAD_REACTORS
330
DF
102
}
330
DF
100
AcDbScale
 70
     0
300
1" = 1'-0"
140
1.0
141
12.0
290
     0
  0
SCALE
  5
FD
102
{ACAD_REACTORS
330
DF
102
}
330
DF
100
AcDbScale
 70
     0
300
1-1/2" = 1'-0"
140
1.5
141
12.0
290
     0
  0
SCALE
  5
FE
102
{ACAD_REACTORS
330
DF
102
}
330
DF
100
AcDbScale
 70
     0
300
3" = 1'-0"
140
3.0
141
12.0
290
     0
  0
SCALE
  5
FF
102
{ACAD_REACTORS
330
DF
102
}
330
DF
100
AcDbScale
 70
     0
300
6" = 1'-0"
140
6.0
141
12.0
290
     0
  0
SCALE
  5
100
102
{ACAD_REACTORS
330
DF
102
}
330
DF
100
AcDbScale
 70
     0
300
1'-0" = 1'-0"
140
12.0
141
12.0
290
     0
  0
VISUALSTYLE
  5
2F
102
{ACAD_REACTORS
330
2A
102
}
330
2A
100
AcDbVisualStyle
  2
2dWireframe
 70
     4
 71
     0
 72
     2
 73
     0
 90
        0
 40
-0.6
 41
-30.0
 62
     5
 63
     7
421
 16777215
 74
     1
 91
        4
 64
     7
 65
   257
 75
     1
175
     1
 42
1.0
 92
        0
 66
   257
 43
1.0
 76
     1
 77
     6
 78
     2
 67
     7
 79
     5
170
     0
171
     0
290
     0
174
     0
 93
        1
 44
0.0
173
     0
291
     0
 45
0.0
1001
ACAD
1000
AcDbSavedByObjectVersion
1070
     0
  0
VISUALSTYLE
  5
31
102
{ACAD_REACTORS
330
2A
102
}
330
2A
100
AcDbVisualStyle
  2
3D Hidden
 70
     6
 71
     1
 72
     2
 73
     2
 90
        0
 40
-0.6
 41
-30.0
 62
     5
 63
     7
421
 16777215
 74
     2
 91
        2
 64
     7
 65
   257
 75
     2
175
     1
 42
40.0
 92
        0
 66
   257
 43
1.0
 76
     1
 77
     6
 78
     2
 67
     7
 79
     3
170
     0
171
     0
290
     0
174
     0
 93
        1
 44
0.0
173
     0
291
     0
 45
0.0
1001
ACAD
1000
AcDbSavedByObjectVersion
1070
     0
  0
VISUALSTYLE
  5
30
102
{ACAD_REACTORS
330
2A
102
}
330
2A
100
AcDbVisualStyle
  2
3dWireframe
 70
     5
 71
     0
 72
     2
 73
     0
 90
        0
 40
-0.6
 41
-30.0
 62
     5
 63
     7
421
 16777215
 74
     1
 91
        4
 64
     7
 65
   257
 75
     1
175
     1
 42
1.0
 92
        0
 66
   257
 43
1.0
 76
     1
 77
     6
 78
     2
 67
     7
 79
     5
170
     0
171
     0
290
     0
174
     0
 93
        1
 44
0.0
173
     0
291
     0
 45
0.0
1001
ACAD
1000
AcDbSavedByObjectVersion
1070
     0
  0
VISUALSTYLE
  5
32
102
{ACAD_REACTORS
330
2A
102
}
330
2A
100
AcDbVisualStyle
  2
Basic
 70
     7
 71
     1
 72
     0
 73
     1
 90
        0
 40
-0.6
 41
-30.0
 62
     5
 63
     7
421
 16777215
 74
     0
 91
        4
 64
     7
 65
   257
 75
     1
175
     1
 42
1.0
 92
        8
 66
     7
 43
1.0
 76
     1
 77
     6
 78
     2
 67
     7
 79
     5
170
     0
171
     0
290
     0
174
     0
 93
        1
 44
0.0
173
     0
291
     1
 45
0.0
1001
ACAD
1000
AcDbSavedByObjectVersion
1070
     0
  0
VISUALSTYLE
  5
36
102
{ACAD_REACTORS
330
2A
102
}
330
2A
100
AcDbVisualStyle
  2
Brighten
 70
    12
 71
     2
 72
     2
 73
     0
 90
        0
 40
-0.6
 41
-30.0
 62
     5
 63
     7
421
 16777215
 74
     1
 91
        4
 64
     7
 65
   257
 75
     1
175
     1
 42
1.0
 92
        8
 66
     7
 43
1.0
 76
     1
 77
     6
 78
     2
 67
     7
 79
     5
170
     0
171
     0
290
     0
174
     0
 93
        1
 44
50.0
173
     0
291
     1
 45
0.0
1001
ACAD
1000
AcDbSavedByObjectVersion
1070
     0
  0
VISUALSTYLE
  5
3A
102
{ACAD_REACTORS
330
2A
102
}
330
2A
100
AcDbVisualStyle
  2
ColorChange
 70
    16
 71
     2
 72
     2
 73
     3
 90
        0
 40
-0.6
 41
-30.0
 62
     5
 63
     8
421
  8421504
 74
     1
 91
        4
 64
     7
 65
   257
 75
     1
175
     1
 42
1.0
 92
        8
 66
     8
424
  8421504
 43
1.0
 76
     1
 77
     6
 78
     2
 67
     7
 79
     5
170
     0
171
     0
290
     0
174
     0
 93
        1
 44
0.0
173
     0
291
     1
 45
0.0
1001
ACAD
1000
AcDbSavedByObjectVersion
1070
     0
  0
VISUALSTYLE
  5
34
102
{ACAD_REACTORS
330
2A
102
}
330
2A
100
AcDbVisualStyle
  2
Conceptual
 70
     9
 71
     3
 72
     2
 73
     0
 90
        0
 40
-0.6
 41
-30.0
 62
     5
 63
     7
421
 16777215
 74
     2
 91
        2
 64
     7
 65
   257
 75
     1
175
     1
 42
40.0
 92
        8
 66
     7
 43
1.0
 76
     1
 77
     6
 78
     2
 67
     7
 79
     3
170
     0
171
     0
290
     0
174
     0
 93
        1
 44
0.0
173
     0
291
     0
 45
0.0
1001
ACAD
1000
AcDbSavedByObjectVersion
1070
     0
  0
VISUALSTYLE
  5
35
102
{ACAD_REACTORS
330
2A
102
}
330
2A
100
AcDbVisualStyle
  2
Dim
 70
    11
 71
     2
 72
     2
 73
     0
 90
        0
 40
-0.6
 41
-30.0
 62
     5
 63
     7
421
 16777215
 74
     1
 91
        4
 64
     7
 65
   257
 75
     1
175
     1
 42
1.0
 92
        8
 66
     7
 43
1.0
 76
     1
 77
     6
 78
     2
 67
     7
 79
     5
170
     0
171
     0
290
     0
174
     0
 93
        1
 44
-50.0
173
     0
291
     1
 45
0.0
1001
ACAD
1000
AcDbSavedByObjectVersion
1070
     0
  0
VISUALSTYLE
  5
39
102
{ACAD_REACTORS
330
2A
102
}
330
2A
100
AcDbVisualStyle
  2
Facepattern
 70
    15
 71
     2
 72
     2
 73
     0
 90
        0
 40
-0.6
 41
-30.0
 62
     5
 63
     7
421
 16777215
 74
     1
 91
        4
 64
     7
 65
   257
 75
     1
175
     1
 42
1.0
 92
        8
 66
     7
 43
1.0
 76
     1
 77
     6
 78
     2
 67
     7
 79
     5
170
     0
171
     0
290
     0
174
     0
 93
        1
 44
0.0
173
     0
291
     1
 45
0.0
1001
ACAD
1000
AcDbSavedByObjectVersion
1070
     0
  0
VISUALSTYLE
  5
2B
102
{ACAD_REACTORS
330
2A
102
}
330
2A
100
AcDbVisualStyle
  2
Flat
 70
     0
 71
     2
 72
     1
 73
     1
 90
        2
 40
-0.6
 41
30.0
 62
     5
 63
     7
421
 16777215
 74
     0
 91
        4
 64
     7
 65
   257
 75
     1
175
     1
 42
1.0
 92
        8
 66
     7
 43
1.0
 76
     1
 77
     6
 78
     2
 67
     7
 79
     5
170
     0
171
     0
290
     0
174
     0
 93
       13
 44
0.0
173
     0
291
     1
 45
0.0
1001
ACAD
1000
AcDbSavedByObjectVersion
1070
     0
  0
VISUALSTYLE
  5
2C
102
{ACAD_REACTORS
330
2A
102
}
330
2A
100
AcDbVisualStyle
  2
FlatWithEdges
 70
     1
 71
     2
 72
     1
 73
     1
 90
        2
 40
-0.6
 41
30.0
 62
     5
 63
     7
421
 16777215
 74
     1
 91
        4
 64
     7
 65
   257
 75
     1
175
     1
 42
1.0
 92
        0
 66
   257
 43
1.0
 76
     1
 77
     6
 78
     2
 67
     7
 79
     5
170
     0
171
     0
290
     0
174
     0
 93
       13
 44
0.0
173
     0
291
     1
 45
0.0
1001
ACAD
1000
AcDbSavedByObjectVersion
1070
     0
  0
VISUALSTYLE
  5
2D
102
{ACAD_REACTORS
330
2A
102
}
330
2A
100
AcDbVisualStyle
  2
Gouraud
 70
     2
 71
     2
 72
     2
 73
     1
 90
        2
 40
-0.6
 41
30.0
 62
     5
 63
     7
421
 16777215
 74
     0
 91
        4
 64
     7
 65
   257
 75
     1
175
     1
 42
1.0
 92
        0
 66
     7
 43
1.0
 76
     1
 77
     6
 78
     2
 67
     7
 79
     5
170
     0
171
     0
290
     0
174
     0
 93
       13
 44
0.0
173
     0
291
     1
 45
0.0
1001
ACAD
1000
AcDbSavedByObjectVersion
1070
     0
  0
VISUALSTYLE
  5
2E
102
{ACAD_REACTORS
330
2A
102
}
330
2A
100
AcDbVisualStyle
  2
GouraudWithEdges
 70
     3
 71
     2
 72
     2
 73
     1
 90
        2
 40
-0.6
 41
30.0
 62
     5
 63
     7
421
 16777215
 74
     1
 91
        4
 64
     7
 65
   257
 75
     1
175
     1
 42
1.0
 92
        0
 66
   257
 43
1.0
 76
     1
 77
     6
 78
     2
 67
     7
 79
     5
170
     0
171
     0
290
     0
174
     0
 93
       13
 44
0.0
173
     0
291
     1
 45
0.0
1001
ACAD
1000
AcDbSavedByObjectVersion
1070
     0
  0
VISUALSTYLE
  5
38
102
{ACAD_REACTORS
330
2A
102
}
330
2A
100
AcDbVisualStyle
  2
Linepattern
 70
    14
 71
     2
 72
     2
 73
     0
 90
        0
 40
-0.6
 41
-30.0
 62
     5
 63
     7
421
 16777215
 74
     1
 91
        4
 64
     7
 65
   257
 75
     7
175
     7
 42
1.0
 92
        8
 66
     7
 43
1.0
 76
     1
 77
     6
 78
     2
 67
     7
 79
     5
170
     0
171
     0
290
     0
174
     0
 93
        1
 44
0.0
173
     0
291
     1
 45
0.0
1001
ACAD
1000
AcDbSavedByObjectVersion
1070
     0
  0
VISUALSTYLE
  5
33
102
{ACAD_REACTORS
330
2A
102
}
330
2A
100
AcDbVisualStyle
  2
Realistic
 70
     8
 71
     2
 72
     2
 73
     0
 90
        0
 40
-0.6
 41
-30.0
 62
     5
 63
     7
421
 16777215
 74
     1
 91
        0
 64
     7
 65
   257
 75
     1
175
     1
 42
1.0
 92
        8
 66
     8
424
  7895160
 43
1.0
 76
     1
 77
     6
 78
     2
 67
     7
 79
     5
170
     0
171
     0
290
     0
174
     0
 93
       13
 44
0.0
173
     0
291
     0
 45
0.0
1001
ACAD
1000
AcDbSavedByObjectVersion
1070
     0
  0
VISUALSTYLE
  5
37
102
{ACAD_REACTORS
330
2A
102
}
330
2A
100
AcDbVisualStyle
  2
Thicken
 70
    13
 71
     2
 72
     2
 73
     0
 90
        0
 40
-0.6
 41
-30.0
 62
     5
 63
     7
421
 16777215
 74
     1
 91
        4
 64
     7
 65
   257
 75
     1
175
     1
 42
1.0
 92
       12
 66
     7
 43
1.0
 76
     1
 77
     6
 78
     2
 67
     7
 79
     5
170
     0
171
     0
290
     0
174
     0
 93
        1
 44
0.0
173
     0
291
     1
 45
0.0
1001
ACAD
1000
AcDbSavedByObjectVersion
1070
     0
  0
DICTIONARYVAR
  5
111
102
{ACAD_REACTORS
330
110
102
}
330
110
100
DictionaryVariables
280
     0
  1
1:1
  0
ENDSEC
  0
EOF
