  0
SECTION
  2
HEADER
  9
$ACADVER
  1
AC1015
  9
$ACADMAINTVER
 70
     6
  9
$DWGCODEPAGE
  3
ANSI_1252
  9
$INSBASE
 10
0.0
 20
0.0
 30
0.0
  9
$EXTMIN
 10
0.0
 20
0.0
 30
0.0
  9
$EXTMAX
 10
11.0
 20
17.0
 30
0.0
  9
$LIMMIN
 10
0.0
 20
0.0
  9
$LIMMAX
 10
11.0
 20
17.0
  9
$ORTHOMODE
 70
     0
  9
$REGENMODE
 70
     1
  9
$FILLMODE
 70
     1
  9
$QTEXTMODE
 70
     0
  9
$MIRRTEXT
 70
     1
  9
$LTSCALE
 40
1.0
  9
$ATTMODE
 70
     1
  9
$TEXTSIZE
 40
0.1377952756
  9
$TRACEWID
 40
0.05
  9
$TEXTSTYLE
  7
Standard
  9
$CLAYER
  8
0
  9
$CELTYPE
  6
ByLayer
  9
$CECOLOR
 62
   256
  9
$CELTSCALE
 40
1.0
  9
$DISPSILH
 70
     0
  9
$DIMSCALE
 40
1.0
  9
$DIMASZ
 40
0.2362204724
  9
$DIMEXO
 40
0.0393700787
  9
$DIMDLI
 40
0.38
  9
$DIMRND
 40
0.0
  9
$DIMDLE
 40
0.0
  9
$DIMEXE
 40
0.0393700787
  9
$DIMTP
 40
0.0
  9
$DIMTM
 40
0.0
  9
$DIMTXT
 40
0.1377952756
  9
$DIMCEN
 40
0.09
  9
$DIMTSZ
 40
0.0
  9
$DIMTOL
 70
     0
  9
$DIMLIM
 70
     0
  9
$DIMTIH
 70
     1
  9
$DIMTOH
 70
     1
  9
$DIMSE1
 70
     0
  9
$DIMSE2
 70
     0
  9
$DIMTAD
 70
     1
  9
$DIMZIN
 70
     0
  9
$DIMBLK
  1

  9
$DIMASO
 70
     1
  9
$DIMSHO
 70
     1
  9
$DIMPOST
  1

  9
$DIMAPOST
  1

  9
$DIMALT
 70
     0
  9
$DIMALTD
 70
     2
  9
$DIMALTF
 40
25.4
  9
$DIMLFAC
 40
1.0
  9
$DIMTOFL
 70
     0
  9
$DIMTVP
 40
0.0
  9
$DIMTIX
 70
     0
  9
$DIMSOXD
 70
     0
  9
$DIMSAH
 70
     0
  9
$DIMBLK1
  1

  9
$DIMBLK2
  1

  9
$DIMSTYLE
  2
Standard
  9
$DIMCLRD
 70
     0
  9
$DIMCLRE
 70
     0
  9
$DIMCLRT
 70
     0
  9
$DIMTFAC
 40
1.0
  9
$DIMGAP
 40
0.06
  9
$DIMJUST
 70
     0
  9
$DIMSD1
 70
     0
  9
$DIMSD2
 70
     0
  9
$DIMTOLJ
 70
     1
  9
$DIMTZIN
 70
     0
  9
$DIMALTZ
 70
     0
  9
$DIMALTTZ
 70
     0
  9
$DIMUPT
 70
     0
  9
$DIMDEC
 70
     3
  9
$DIMTDEC
 70
     3
  9
$DIMALTU
 70
     2
  9
$DIMALTTD
 70
     2
  9
$DIMTXSTY
  7
Standard
  9
$DIMAUNIT
 70
     0
  9
$DIMADEC
 70
     2
  9
$DIMALTRND
 40
0.0
  9
$DIMAZIN
 70
     0
  9
$DIMDSEP
 70
    46
  9
$DIMATFIT
 70
     3
  9
$DIMFRAC
 70
     0
  9
$DIMLDRBLK
  1

  9
$DIMLUNIT
 70
     2
  9
$DIMLWD
 70
    -2
  9
$DIMLWE
 70
    -2
  9
$DIMTMOVE
 70
     0
  9
$LUNITS
 70
     2
  9
$LUPREC
 70
     2
  9
$SKETCHINC
 40
0.1
  9
$FILLETRAD
 40
0.5
  9
$AUNITS
 70
     0
  9
$AUPREC
 70
     2
  9
$MENU
  1
.
  9
$ELEVATION
 40
0.0
  9
$PELEVATION
 40
0.0
  9
$THICKNESS
 40
0.0
  9
$LIMCHECK
 70
     0
  9
$CHAMFERA
 40
0.5
  9
$CHAMFERB
 40
0.5
  9
$CHAMFERC
 40
1.0
  9
$CHAMFERD
 40
0.0
  9
$SKPOLY
 70
     0
  9
$TDCREATE
 40
2455381.538494537
  9
$TDUCREATE
 40
2455381.830161204
  9
$TDUPDATE
 40
2455381.538494549
  9
$TDUUPDATE
 40
2455381.830161215
  9
$TDINDWG
 40
0.0000000116
  9
$TDUSRTIMER
 40
0.0000000116
  9
$USRTIMER
 70
     1
  9
$ANGBASE
 50
0.0
  9
$ANGDIR
 70
     0
  9
$PDMODE
 70
     0
  9
$PDSIZE
 40
-1.0
  9
$PLINEWID
 40
0.0
  9
$SPLFRAME
 70
     0
  9
$SPLINETYPE
 70
     6
  9
$SPLINESEGS
 70
     8
  9
$HANDSEED
  5
F3
  9
$SURFTAB1
 70
     6
  9
$SURFTAB2
 70
     6
  9
$SURFTYPE
 70
     6
  9
$SURFU
 70
     6
  9
$SURFV
 70
     6
  9
$UCSBASE
  2

  9
$UCSNAME
  2

  9
$UCSORG
 10
0.0
 20
0.0
 30
0.0
  9
$UCSXDIR
 10
1.0
 20
0.0
 30
0.0
  9
$UCSYDIR
 10
0.0
 20
1.0
 30
0.0
  9
$UCSORTHOREF
  2

  9
$UCSORTHOVIEW
 70
     0
  9
$UCSORGTOP
 10
0.0
 20
0.0
 30
0.0
  9
$UCSORGBOTTOM
 10
0.0
 20
0.0
 30
0.0
  9
$UCSORGLEFT
 10
0.0
 20
0.0
 30
0.0
  9
$UCSORGRIGHT
 10
0.0
 20
0.0
 30
0.0
  9
$UCSORGFRONT
 10
0.0
 20
0.0
 30
0.0
  9
$UCSORGBACK
 10
0.0
 20
0.0
 30
0.0
  9
$PUCSBASE
  2

  9
$PUCSNAME
  2

  9
$PUCSORG
 10
0.0
 20
0.0
 30
0.0
  9
$PUCSXDIR
 10
1.0
 20
0.0
 30
0.0
  9
$PUCSYDIR
 10
0.0
 20
1.0
 30
0.0
  9
$PUCSORTHOREF
  2

  9
$PUCSORTHOVIEW
 70
     0
  9
$PUCSORGTOP
 10
0.0
 20
0.0
 30
0.0
  9
$PUCSORGBOTTOM
 10
0.0
 20
0.0
 30
0.0
  9
$PUCSORGLEFT
 10
0.0
 20
0.0
 30
0.0
  9
$PUCSORGRIGHT
 10
0.0
 20
0.0
 30
0.0
  9
$PUCSORGFRONT
 10
0.0
 20
0.0
 30
0.0
  9
$PUCSORGBACK
 10
0.0
 20
0.0
 30
0.0
  9
$USERI1
 70
     0
  9
$USERI2
 70
     0
  9
$USERI3
 70
     0
  9
$USERI4
 70
     0
  9
$USERI5
 70
     0
  9
$USERR1
 40
0.0
  9
$USERR2
 40
0.0
  9
$USERR3
 40
0.0
  9
$USERR4
 40
0.0
  9
$USERR5
 40
0.0
  9
$WORLDVIEW
 70
     1
  9
$SHADEDGE
 70
     3
  9
$SHADEDIF
 70
    70
  9
$TILEMODE
 70
     1
  9
$MAXACTVP
 70
    64
  9
$PINSBASE
 10
0.0
 20
0.0
 30
0.0
  9
$PLIMCHECK
 70
     0
  9
$PEXTMIN
 10
1.0000000000E+20
 20
1.0000000000E+20
 30
1.0000000000E+20
  9
$PEXTMAX
 10
-1.0000000000E+20
 20
-1.0000000000E+20
 30
-1.0000000000E+20
  9
$PLIMMIN
 10
0.0
 20
0.0
  9
$PLIMMAX
 10
12.0
 20
9.0
  9
$UNITMODE
 70
     0
  9
$VISRETAIN
 70
     1
  9
$PLINEGEN
 70
     0
  9
$PSLTSCALE
 70
     1
  9
$TREEDEPTH
 70
  3020
  9
$CMLSTYLE
  2
Standard
  9
$CMLJUST
 70
     0
  9
$CMLSCALE
 40
1.0
  9
$PROXYGRAPHICS
 70
     1
  9
$MEASUREMENT
 70
     0
  9
$CELWEIGHT
370
    -1
  9
$ENDCAPS
280
     0
  9
$JOINSTYLE
280
     0
  9
$LWDISPLAY
290
     1
  9
$INSUNITS
 70
     1
  9
$HYPERLINKBASE
  1

  9
$STYLESHEET
  1

  9
$XEDIT
290
     1
  9
$CEPSNTYPE
380
     0
  9
$PSTYLEMODE
290
     1
  9
$FINGERPRINTGUID
  2
{A4DBCBF5-74C5-4F5A-B899-E6F57FFD1FE1}
  9
$VERSIONGUID
  2
{FAEB1C32-E019-11D5-929B-00C0DF256EC4}
  9
$EXTNAMES
290
     1
  9
$PSVPSCALE
 40
0.0
  9
$OLESTARTUP
290
     0
  0
ENDSEC
  0
SECTION
  2
CLASSES
  0
CLASS
  1
ACDBDICTIONARYWDFLT
  2
AcDbDictionaryWithDefault
  3
ObjectDBX Classes
 90
        0
280
     0
281
     0
  0
CLASS
  1
VISUALSTYLE
  2
AcDbVisualStyle
  3
ObjectDBX Classes
 90
     4095
280
     0
281
     0
  0
CLASS
  1
SCALE
  2
AcDbScale
  3
ObjectDBX Classes
 90
     1153
280
     0
281
     0
  0
CLASS
  1
DICTIONARYVAR
  2
AcDbDictionaryVar
  3
ObjectDBX Classes
 90
        0
280
     0
281
     0
  0
CLASS
  1
ACDBPLACEHOLDER
  2
AcDbPlaceHolder
  3
ObjectDBX Classes
 90
        0
280
     0
281
     0
  0
CLASS
  1
LAYOUT
  2
AcDbLayout
  3
ObjectDBX Classes
 90
        0
280
     0
281
     0
  0
ENDSEC
  0
SECTION
  2
TABLES
  0
TABLE
  2
VPORT
  5
8
330
0
100
AcDbSymbolTable
 70
     1
  0
VPORT
  5
29
330
8
100
AcDbSymbolTableRecord
100
AcDbViewportTableRecord
  2
*Active
 70
     0
 10
0.0
 20
0.0
 11
1.0
 21
1.0
 12
5.5
 22
8.5
 13
0.0
 23
0.0
 14
0.5
 24
0.5
 15
0.5
 25
0.5
 16
0.0
 26
0.0
 36
1.0
 17
0.0
 27
0.0
 37
0.0
 40
17.0
 41
0.6470588235
 42
50.0
 43
0.0
 44
0.0
 50
0.0
 51
0.0
 71
     0
 72
  2000
 73
     1
 74
     3
 75
     0
 76
     0
 77
     0
 78
     0
281
     0
 65
     1
110
0.0
120
0.0
130
0.0
111
1.0
121
0.0
131
0.0
112
0.0
122
1.0
132
0.0
 79
     0
146
0.0
  0
ENDTAB
  0
TABLE
  2
LTYPE
  5
5
330
0
100
AcDbSymbolTable
 70
     6
  0
LTYPE
  5
14
330
5
100
AcDbSymbolTableRecord
100
AcDbLinetypeTableRecord
  2
ByBlock
 70
     0
  3

 72
    65
 73
     0
 40
0.0
  0
LTYPE
  5
15
330
5
100
AcDbSymbolTableRecord
100
AcDbLinetypeTableRecord
  2
ByLayer
 70
     0
  3

 72
    65
 73
     0
 40
0.0
  0
LTYPE
  5
16
330
5
100
AcDbSymbolTableRecord
100
AcDbLinetypeTableRecord
  2
Continuous
 70
     0
  3
Solid line
 72
    65
 73
     0
 40
0.0
  0
LTYPE
  5
3B
330
5
100
AcDbSymbolTableRecord
100
AcDbLinetypeTableRecord
  2
HIDDEN
 70
     0
  3
Hidden __ __ __ __ __ __ __ __ __ __ __ __ __ __
 72
    65
 73
     2
 40
0.075
 49
0.05
 74
     0
 49
-0.025
 74
     0
  0
LTYPE
  5
3C
330
5
100
AcDbSymbolTableRecord
100
AcDbLinetypeTableRecord
  2
PHANTOM
 70
     0
  3
Phantom ______  __  __  ______  __  __  ______
 72
    65
 73
     6
 40
0.5
 49
0.25
 74
     0
 49
-0.05
 74
     0
 49
0.05
 74
     0
 49
-0.05
 74
     0
 49
0.05
 74
     0
 49
-0.05
 74
     0
  0
LTYPE
  5
3D
330
5
100
AcDbSymbolTableRecord
100
AcDbLinetypeTableRecord
  2
CENTER
 70
     0
  3
Center ____ _ ____ _ ____ _ ____ _ ____ _ ____
 72
    65
 73
     4
 40
0.4
 49
0.25
 74
     0
 49
-0.05
 74
     0
 49
0.05
 74
     0
 49
-0.05
 74
     0
  0
LTYPE
  5
3E
330
5
100
AcDbSymbolTableRecord
100
AcDbLinetypeTableRecord
  2
CENTERX2
 70
     0
  3
Center (2x) ________  __  ________  __  _____
 72
    65
 73
     4
 40
0.8
 49
0.5
 74
     0
 49
-0.1
 74
     0
 49
0.1
 74
     0
 49
-0.1
 74
     0
  0
LTYPE
  5
3F
330
5
100
AcDbSymbolTableRecord
100
AcDbLinetypeTableRecord
  2
DOT2
 70
     0
  3
Dot (.5x) ........................................
 72
    65
 73
     2
 40
0.025
 49
0.0
 74
     0
 49
-0.025
 74
     0
  0
ENDTAB
  0
TABLE
  2
LAYER
  5
2
330
0
100
AcDbSymbolTable
 70
     1
  0
LAYER
  5
10
330
2
100
AcDbSymbolTableRecord
100
AcDbLayerTableRecord
  2
0
 70
     0
 62
     7
  6
Continuous
370
    -3
390
F
  0
ENDTAB
  0
TABLE
  2
STYLE
  5
3
330
0
100
AcDbSymbolTable
 70
     2
  0
STYLE
  5
11
330
3
100
AcDbSymbolTableRecord
100
AcDbTextStyleTableRecord
  2
Standard
 70
     0
 40
0.0
 41
1.0
 50
0.0
 71
     0
 42
0.2
  3
txt
  4

  0
STYLE
  5
54
330
3
100
AcDbSymbolTableRecord
100
AcDbTextStyleTableRecord
  2
SLDTEXTSTYLE0
 70
     0
 40
0.0
 41
0.75
 50
0.0
 71
     0
 42
0.2
  3
TXT
  4

  0
ENDTAB
  0
TABLE
  2
VIEW
  5
6
330
0
100
AcDbSymbolTable
 70
     0
  0
ENDTAB
  0
TABLE
  2
UCS
  5
7
330
0
100
AcDbSymbolTable
 70
     0
  0
ENDTAB
  0
TABLE
  2
APPID
  5
9
330
0
100
AcDbSymbolTable
 70
     1
  0
APPID
  5
12
330
9
100
AcDbSymbolTableRecord
100
AcDbRegAppTableRecord
  2
ACAD
 70
     0
  0
ENDTAB
  0
TABLE
  2
DIMSTYLE
  5
A
330
0
100
AcDbSymbolTable
 70
     1
100
AcDbDimStyleTable
  0
DIMSTYLE
105
27
330
A
100
AcDbSymbolTableRecord
100
AcDbDimStyleTableRecord
  2
Standard
 70
     0
340
11
  0
ENDTAB
  0
TABLE
  2
BLOCK_RECORD
  5
1
330
0
100
AcDbSymbolTable
 70
     1
  0
BLOCK_RECORD
  5
1F
330
1
100
AcDbSymbolTableRecord
100
AcDbBlockTableRecord
  2
*Model_Space
340
22
  0
BLOCK_RECORD
  5
1B
330
1
100
AcDbSymbolTableRecord
100
AcDbBlockTableRecord
  2
*Paper_Space
340
1E
  0
BLOCK_RECORD
  5
23
330
1
100
AcDbSymbolTableRecord
100
AcDbBlockTableRecord
  2
*Paper_Space0
340
26
  0
ENDTAB
  0
ENDSEC
  0
SECTION
  2
BLOCKS
  0
BLOCK
  5
20
330
1F
100
AcDbEntity
  8
0
100
AcDbBlockBegin
  2
*Model_Space
 70
     0
 10
0.0
 20
0.0
 30
0.0
  3
*Model_Space
  1

  0
ENDBLK
  5
21
330
1F
100
AcDbEntity
  8
0
100
AcDbBlockEnd
  0
BLOCK
  5
1C
330
1B
100
AcDbEntity
 67
     1
  8
0
100
AcDbBlockBegin
  2
*Paper_Space
 70
     0
 10
0.0
 20
0.0
 30
0.0
  3
*Paper_Space
  1

  0
ENDBLK
  5
1D
330
1B
100
AcDbEntity
 67
     1
  8
0
100
AcDbBlockEnd
  0
BLOCK
  5
24
330
23
100
AcDbEntity
  8
0
100
AcDbBlockBegin
  2
*Paper_Space0
 70
     0
 10
0.0
 20
0.0
 30
0.0
  3
*Paper_Space0
  1

  0
ENDBLK
  5
25
330
23
100
AcDbEntity
  8
0
100
AcDbBlockEnd
  0
ENDSEC
  0
SECTION
  2
ENTITIES
  0
SPLINE
  5
40
330
1F
100
AcDbEntity
  8
0
  6
Continuous
 62
     7
370
    15
100
AcDbSpline
210
0.0
220
0.0
230
1.0
 70
    24
 71
     3
 72
    14
 73
    10
 74
     0
 42
0.00000001
 43
0.00000001
 40
0.0
 40
0.0
 40
0.0
 40
0.0
 40
0.1916967982628906
 40
0.3822497361614962
 40
0.4962219642930644
 40
0.6101822738789825
 40
0.7594834445013381
 40
0.9093502258651832
 40
1.0
 40
1.0
 40
1.0
 40
1.0
 10
2.803943397953244
 20
14.03381044129112
 30
0.0
 10
2.800431828397383
 20
14.03029887173526
 30
0.0
 10
2.793429642923217
 20
14.02329668626109
 30
0.0
 10
2.783480931432914
 20
14.01334797477079
 30
0.0
 10
2.774682306780301
 20
14.00454935011818
 30
0.0
 10
2.76673345972374
 20
13.99660050306162
 30
0.0
 10
2.758394066642649
 20
13.98826110998053
 30
0.0
 10
2.750987147610215
 20
13.9808541909481
 30
0.0
 10
2.746600823626759
 20
13.97646786696464
 30
0.0
 10
2.744947634815876
 20
13.97481467815376
 30
0.0
  0
ARC
  5
41
330
1F
100
AcDbEntity
  8
0
  6
Continuous
 62
     7
370
    15
100
AcDbCircle
 10
2.8044455167
 20
13.97431256
 30
0.0
 40
0.0594999999999998
100
AcDbArc
 50
89.5164768914
 51
90.4835231086
  0
SPLINE
  5
42
330
1F
100
AcDbEntity
  8
0
  6
Continuous
 62
     7
370
    15
100
AcDbSpline
210
0.0
220
0.0
230
1.0
 70
    24
 71
     3
 72
    14
 73
    10
 74
     0
 42
0.00000001
 43
0.00000001
 40
0.0
 40
0.0
 40
0.0
 40
0.0
 40
0.1916967771948487
 40
0.3822497313990676
 40
0.4962219951152134
 40
0.6101823041304515
 40
0.7594834914303791
 40
0.9093502144323127
 40
1.0
 40
1.0
 40
1.0
 40
1.0
 10
2.863943398499993
 20
13.97481467815376
 30
0.0
 10
2.860431829450964
 20
13.97832624720279
 30
0.0
 10
2.853429644305114
 20
13.98532843234863
 30
0.0
 10
2.843480931876398
 20
13.99527714477735
 30
0.0
 10
2.834682306059638
 20
14.00407577059411
 30
0.0
 10
2.826733457993567
 20
14.01202461866018
 30
0.0
 10
2.818394065173271
 20
14.02036401148048
 30
0.0
 10
2.810987147972469
 20
14.02777092868128
 30
0.0
 10
2.806600824508706
 20
14.03215725214504
 30
0.0
 10
2.804947635362625
 20
14.03381044129112
 30
0.0
  0
ARC
  5
43
330
1F
100
AcDbEntity
  8
0
  6
Continuous
 62
     7
370
    15
100
AcDbCircle
 10
2.8044455167
 20
13.97431256
 30
0.0
 40
0.0595000000000002
100
AcDbArc
 50
179.5164768914
 51
0.4835231086
  0
CIRCLE
  5
44
330
1F
100
AcDbEntity
  8
0
  6
Continuous
 62
     7
370
    15
100
AcDbCircle
 10
2.8044455167
 20
13.97431256
 30
0.0
 40
0.0350000000000001
  0
ARC
  5
45
330
1F
100
AcDbEntity
  8
0
  6
Continuous
 62
     7
370
    15
100
AcDbCircle
 10
2.7444455167
 20
14.03431256
 30
0.0
 40
0.0595000000000016
100
AcDbArc
 50
89.5164768914
 51
270.4835231086
  0
SPLINE
  5
46
330
1F
100
AcDbEntity
  8
0
  6
Continuous
 62
     7
370
    15
100
AcDbSpline
210
0.0
220
0.0
230
1.0
 70
    24
 71
     3
 72
    14
 73
    10
 74
     0
 42
0.00000001
 43
0.00000001
 40
0.0
 40
0.0
 40
0.0
 40
0.0
 40
0.1916967982628906
 40
0.3822497361614962
 40
0.4962219642930644
 40
0.6101822738789825
 40
0.7594834445013381
 40
0.9093502258651832
 40
1.0
 40
1.0
 40
1.0
 40
1.0
 10
2.803943397953244
 20
14.0348146787005
 30
0.0
 10
2.800431828397383
 20
14.03832624825636
 30
0.0
 10
2.793429642923217
 20
14.04532843373053
 30
0.0
 10
2.783480931432914
 20
14.05527714522083
 30
0.0
 10
2.774682306780301
 20
14.06407576987345
 30
0.0
 10
2.76673345972374
 20
14.07202461693001
 30
0.0
 10
2.758394066642649
 20
14.0803640100111
 30
0.0
 10
2.750987147610215
 20
14.08777092904353
 30
0.0
 10
2.746600823626759
 20
14.09215725302699
 30
0.0
 10
2.744947634815876
 20
14.09381044183787
 30
0.0
  0
ARC
  5
47
330
1F
100
AcDbEntity
  8
0
  6
Continuous
 62
     7
370
    15
100
AcDbCircle
 10
2.7444455167
 20
14.03431256
 30
0.0
 40
0.0595000000000002
100
AcDbArc
 50
359.5164768914
 51
0.4835231086
  0
CIRCLE
  5
48
330
1F
100
AcDbEntity
  8
0
  6
Continuous
 62
     7
370
    15
100
AcDbCircle
 10
2.7444455167
 20
14.03431256
 30
0.0
 40
0.0350000000000001
  0
ARC
  5
49
330
1F
100
AcDbEntity
  8
0
  6
Continuous
 62
     7
370
    15
100
AcDbCircle
 10
2.8044455167
 20
14.09431256
 30
0.0
 40
0.0595000000000002
100
AcDbArc
 50
359.5164768914
 51
180.4835231086
  0
SPLINE
  5
4A
330
1F
100
AcDbEntity
  8
0
  6
Continuous
 62
     7
370
    15
100
AcDbSpline
210
0.0
220
0.0
230
1.0
 70
    24
 71
     3
 72
    14
 73
    10
 74
     0
 42
0.00000001
 43
0.00000001
 40
0.0
 40
0.0
 40
0.0
 40
0.0
 40
0.1916967982628906
 40
0.3822497361614962
 40
0.4962219642930644
 40
0.6101822738789825
 40
0.7594834445013381
 40
0.9093502258651832
 40
1.0
 40
1.0
 40
1.0
 40
1.0
 10
2.804947635362625
 20
14.0348146787005
 30
0.0
 10
2.808459204918486
 20
14.03832624825636
 30
0.0
 10
2.815461390392653
 20
14.04532843373053
 30
0.0
 10
2.825410101882956
 20
14.05527714522083
 30
0.0
 10
2.834208726535569
 20
14.06407576987345
 30
0.0
 10
2.842157573592129
 20
14.07202461693001
 30
0.0
 10
2.85049696667322
 20
14.0803640100111
 30
0.0
 10
2.857903885705654
 20
14.08777092904353
 30
0.0
 10
2.86229020968911
 20
14.09215725302699
 30
0.0
 10
2.863943398499993
 20
14.09381044183787
 30
0.0
  0
ARC
  5
4B
330
1F
100
AcDbEntity
  8
0
  6
Continuous
 62
     7
370
    15
100
AcDbCircle
 10
2.8044455167
 20
14.09431256
 30
0.0
 40
0.0594999999999998
100
AcDbArc
 50
269.5164768914
 51
270.4835231086
  0
CIRCLE
  5
4C
330
1F
100
AcDbEntity
  8
0
  6
Continuous
 62
     7
370
    15
100
AcDbCircle
 10
2.8044455167
 20
14.09431256
 30
0.0
 40
0.0350000000000001
  0
ARC
  5
4D
330
1F
100
AcDbEntity
  8
0
  6
Continuous
 62
     7
370
    15
100
AcDbCircle
 10
2.8644455167
 20
14.03431256
 30
0.0
 40
0.0595000000000002
100
AcDbArc
 50
179.5164768914
 51
180.4835231086
  0
ARC
  5
4E
330
1F
100
AcDbEntity
  8
0
  6
Continuous
 62
     7
370
    15
100
AcDbCircle
 10
2.8644455167
 20
14.03431256
 30
0.0
 40
0.0595000000000016
100
AcDbArc
 50
269.5164768914
 51
90.4835231086
  0
CIRCLE
  5
4F
330
1F
100
AcDbEntity
  8
0
  6
Continuous
 62
     7
370
    15
100
AcDbCircle
 10
2.8644455167
 20
14.03431256
 30
0.0
 40
0.0349999999999984
  0
LINE
  5
50
330
1F
100
AcDbEntity
  8
0
  6
Continuous
 62
     7
370
    15
100
AcDbLine
 10
3.2444455304
 20
13.5943125462
 30
0.0
 11
2.3644455029
 21
13.5943125462
 31
0.0
  0
LINE
  5
51
330
1F
100
AcDbEntity
  8
0
  6
Continuous
 62
     7
370
    15
100
AcDbLine
 10
2.3644455029
 20
13.5943125462
 30
0.0
 11
2.3644455029
 21
14.4743125737
 31
0.0
  0
LINE
  5
52
330
1F
100
AcDbEntity
  8
0
  6
Continuous
 62
     7
370
    15
100
AcDbLine
 10
2.3644455029
 20
14.4743125737
 30
0.0
 11
3.2444455304
 21
14.4743125737
 31
0.0
  0
LINE
  5
53
330
1F
100
AcDbEntity
  8
0
  6
Continuous
 62
     7
370
    15
100
AcDbLine
 10
3.2444455304
 20
14.4743125737
 30
0.0
 11
3.2444455304
 21
13.5943125462
 31
0.0
  0
MTEXT
  5
77
330
1F
100
AcDbEntity
  8
0
  6
Continuous
 62
     7
370
     0
100
AcDbMText
 10
2.0905271889
 20
13.1760551811
 30
0.0
 40
0.1377952756
 41
0.0
 71
     1
 72
     1
  1
panel_R^ cube_15
  7
SLDTEXTSTYLE0
 73
     1
 44
1.0
  0
SPLINE
  5
78
330
1F
100
AcDbEntity
  8
0
  6
Continuous
 62
     7
370
    15
100
AcDbSpline
210
0.0
220
0.0
230
1.0
 70
    24
 71
     3
 72
    14
 73
    10
 74
     0
 42
0.00000001
 43
0.00000001
 40
0.0
 40
0.0
 40
0.0
 40
0.0
 40
0.1916967982628906
 40
0.3822497361614962
 40
0.4962219642930644
 40
0.6101822738789825
 40
0.7594834445013381
 40
0.9093502258651832
 40
1.0
 40
1.0
 40
1.0
 40
1.0
 10
8.071550494112929
 20
14.03506273113166
 30
0.0
 10
8.068038924557067
 20
14.03857430068752
 30
0.0
 10
8.0610367390829
 20
14.04557648616169
 30
0.0
 10
8.051088027592597
 20
14.05552519765199
 30
0.0
 10
8.042289402939984
 20
14.0643238223046
 30
0.0
 10
8.034340555883423
 20
14.07227266936116
 30
0.0
 10
8.026001162802332
 20
14.08061206244225
 30
0.0
 10
8.018594243769899
 20
14.08801898147468
 30
0.0
 10
8.014207919786442
 20
14.09240530545814
 30
0.0
 10
8.012554730975559
 20
14.09405849426902
 30
0.0
  0
ARC
  5
79
330
1F
100
AcDbEntity
  8
0
  6
Continuous
 62
     7
370
    15
100
AcDbCircle
 10
8.0720526128
 20
14.0945606124
 30
0.0
 40
0.0594999999999998
100
AcDbArc
 50
359.5164768914
 51
180.4835231086
  0
SPLINE
  5
7A
330
1F
100
AcDbEntity
  8
0
  6
Continuous
 62
     7
370
    15
100
AcDbSpline
210
0.0
220
0.0
230
1.0
 70
    24
 71
     3
 72
    14
 73
    10
 74
     0
 42
0.00000001
 43
0.00000001
 40
0.0
 40
0.0
 40
0.0
 40
0.0
 40
0.1916967982628906
 40
0.3822497361614962
 40
0.4962219642930644
 40
0.6101822738789825
 40
0.7594834445013381
 40
0.9093502258651832
 40
1.0
 40
1.0
 40
1.0
 40
1.0
 10
8.072554731522308
 20
14.03506273113166
 30
0.0
 10
8.07606630107817
 20
14.03857430068752
 30
0.0
 10
8.083068486552337
 20
14.04557648616169
 30
0.0
 10
8.09301719804264
 20
14.05552519765199
 30
0.0
 10
8.101815822695253
 20
14.0643238223046
 30
0.0
 10
8.109764669751813
 20
14.07227266936116
 30
0.0
 10
8.118104062832904
 20
14.08061206244225
 30
0.0
 10
8.125510981865338
 20
14.08801898147468
 30
0.0
 10
8.129897305848795
 20
14.09240530545814
 30
0.0
 10
8.131550494659676
 20
14.09405849426902
 30
0.0
  0
ARC
  5
7B
330
1F
100
AcDbEntity
  8
0
  6
Continuous
 62
     7
370
    15
100
AcDbCircle
 10
8.0720526128
 20
14.0945606124
 30
0.0
 40
0.0594999999999998
100
AcDbArc
 50
269.5164768914
 51
270.4835231086
  0
CIRCLE
  5
7C
330
1F
100
AcDbEntity
  8
0
  6
Continuous
 62
     7
370
    15
100
AcDbCircle
 10
8.0720526128
 20
14.0945606124
 30
0.0
 40
0.0350000000000001
  0
SPLINE
  5
7D
330
1F
100
AcDbEntity
  8
0
  6
Continuous
 62
     7
370
    15
100
AcDbSpline
210
0.0
220
0.0
230
1.0
 70
    24
 71
     3
 72
    14
 73
    10
 74
     0
 42
0.00000001
 43
0.00000001
 40
0.0
 40
0.0
 40
0.0
 40
0.0
 40
0.1916967982628906
 40
0.3822497361614962
 40
0.4962219642930644
 40
0.6101822738789825
 40
0.7594834445013381
 40
0.9093502258651832
 40
1.0
 40
1.0
 40
1.0
 40
1.0
 10
8.071550494112929
 20
14.03405849372228
 30
0.0
 10
8.068038924557067
 20
14.03054692416642
 30
0.0
 10
8.0610367390829
 20
14.02354473869225
 30
0.0
 10
8.051088027592597
 20
14.01359602720195
 30
0.0
 10
8.042289402939984
 20
14.00479740254933
 30
0.0
 10
8.034340555883423
 20
13.99684855549277
 30
0.0
 10
8.026001162802332
 20
13.98850916241168
 30
0.0
 10
8.018594243769899
 20
13.98110224337925
 30
0.0
 10
8.014207919786442
 20
13.97671591939579
 30
0.0
 10
8.012554730975559
 20
13.97506273058491
 30
0.0
  0
ARC
  5
7E
330
1F
100
AcDbEntity
  8
0
  6
Continuous
 62
     7
370
    15
100
AcDbCircle
 10
8.0120526128
 20
14.0345606124
 30
0.0
 40
0.0595000000000016
100
AcDbArc
 50
89.5164768914
 51
270.4835231086
  0
ARC
  5
7F
330
1F
100
AcDbEntity
  8
0
  6
Continuous
 62
     7
370
    15
100
AcDbCircle
 10
8.0120526128
 20
14.0345606124
 30
0.0
 40
0.0595000000000016
100
AcDbArc
 50
359.5164768914
 51
0.4835231086
  0
CIRCLE
  5
80
330
1F
100
AcDbEntity
  8
0
  6
Continuous
 62
     7
370
    15
100
AcDbCircle
 10
8.0120526128
 20
14.0345606124
 30
0.0
 40
0.0350000000000001
  0
ARC
  5
81
330
1F
100
AcDbEntity
  8
0
  6
Continuous
 62
     7
370
    15
100
AcDbCircle
 10
8.1320526128
 20
14.0345606124
 30
0.0
 40
0.0595000000000016
100
AcDbArc
 50
269.5164768914
 51
90.4835231086
  0
SPLINE
  5
82
330
1F
100
AcDbEntity
  8
0
  6
Continuous
 62
     7
370
    15
100
AcDbSpline
210
0.0
220
0.0
230
1.0
 70
    24
 71
     3
 72
    14
 73
    10
 74
     0
 42
0.00000001
 43
0.00000001
 40
0.0
 40
0.0
 40
0.0
 40
0.0
 40
0.1916967771948487
 40
0.3822497313990676
 40
0.4962219951152134
 40
0.6101823041304515
 40
0.7594834914303791
 40
0.9093502144323127
 40
1.0
 40
1.0
 40
1.0
 40
1.0
 10
8.131550494659676
 20
13.97506273058491
 30
0.0
 10
8.128038925610648
 20
13.97857429963394
 30
0.0
 10
8.121036740464797
 20
13.98557648477979
 30
0.0
 10
8.111088028036082
 20
13.9955251972085
 30
0.0
 10
8.102289402219322
 20
14.00432382302526
 30
0.0
 10
8.09434055415325
 20
14.01227267109133
 30
0.0
 10
8.086001161332955
 20
14.02061206391163
 30
0.0
 10
8.078594244132152
 20
14.02801898111243
 30
0.0
 10
8.074207920668389
 20
14.03240530457619
 30
0.0
 10
8.072554731522308
 20
14.03405849372228
 30
0.0
  0
ARC
  5
83
330
1F
100
AcDbEntity
  8
0
  6
Continuous
 62
     7
370
    15
100
AcDbCircle
 10
8.1320526128
 20
14.0345606124
 30
0.0
 40
0.0595000000000016
100
AcDbArc
 50
179.5164768914
 51
180.4835231086
  0
CIRCLE
  5
84
330
1F
100
AcDbEntity
  8
0
  6
Continuous
 62
     7
370
    15
100
AcDbCircle
 10
8.1320526128
 20
14.0345606124
 30
0.0
 40
0.0349999999999984
  0
ARC
  5
85
330
1F
100
AcDbEntity
  8
0
  6
Continuous
 62
     7
370
    15
100
AcDbCircle
 10
8.0720526128
 20
13.9745606124
 30
0.0
 40
0.0594999999999998
100
AcDbArc
 50
89.5164768914
 51
90.4835231086
  0
ARC
  5
86
330
1F
100
AcDbEntity
  8
0
  6
Continuous
 62
     7
370
    15
100
AcDbCircle
 10
8.0720526128
 20
13.9745606124
 30
0.0
 40
0.0595000000000016
100
AcDbArc
 50
179.5164768914
 51
0.4835231086
  0
CIRCLE
  5
87
330
1F
100
AcDbEntity
  8
0
  6
Continuous
 62
     7
370
    15
100
AcDbCircle
 10
8.0720526128
 20
13.9745606124
 30
0.0
 40
0.0350000000000001
  0
LINE
  5
88
330
1F
100
AcDbEntity
  8
0
  6
Continuous
 62
     7
370
    15
100
AcDbLine
 10
8.5120526266
 20
13.5945605987
 30
0.0
 11
7.6320525991
 21
13.5945605987
 31
0.0
  0
LINE
  5
89
330
1F
100
AcDbEntity
  8
0
  6
Continuous
 62
     7
370
    15
100
AcDbLine
 10
7.6320525991
 20
13.5945605987
 30
0.0
 11
7.6320525991
 21
14.4745606262
 31
0.0
  0
LINE
  5
8A
330
1F
100
AcDbEntity
  8
0
  6
Continuous
 62
     7
370
    15
100
AcDbLine
 10
7.6320525991
 20
14.4745606262
 30
0.0
 11
8.5120526266
 21
14.4745606262
 31
0.0
  0
LINE
  5
8B
330
1F
100
AcDbEntity
  8
0
  6
Continuous
 62
     7
370
    15
100
AcDbLine
 10
8.5120526266
 20
14.4745606262
 30
0.0
 11
8.5120526266
 21
13.5945605987
 31
0.0
  0
MTEXT
  5
8C
330
1F
100
AcDbEntity
  8
0
  6
Continuous
 62
     7
370
     0
100
AcDbMText
 10
9.3670284835
 20
11.9928022722
 30
0.0
 40
0.1377952756
 41
0.0
 71
     1
 72
     1
  1
panel_C^ cube_15
  7
SLDTEXTSTYLE0
 73
     1
 44
1.0
  0
SPLINE
  5
8D
330
1F
100
AcDbEntity
  8
0
  6
Continuous
 62
     7
370
    15
100
AcDbSpline
210
0.0
220
0.0
230
1.0
 70
    24
 71
     3
 72
    14
 73
    10
 74
     0
 42
0.00000001
 43
0.00000001
 40
0.0
 40
0.0
 40
0.0
 40
0.0
 40
0.25
 40
0.25
 40
0.5
 40
0.5
 40
0.75
 40
0.75
 40
1.0
 40
1.0
 40
1.0
 40
1.0
 10
2.750589033356184
 20
8.464096782770012
 30
0.0
 10
2.755127348419031
 20
8.468635097832859
 30
0.0
 10
2.759761037288749
 20
8.473268786702578
 30
0.0
 10
2.769513479751511
 20
8.48302122916534
 30
0.0
 10
2.774785520876832
 20
8.48829327029066
 30
0.0
 10
2.785251088988009
 20
8.498758838401836
 30
0.0
 10
2.790526741910934
 20
8.504034491324763
 30
0.0
 10
2.800333407485966
 20
8.513841156899794
 30
0.0
 10
2.805025004874677
 20
8.518532754288506
 30
0.0
 10
2.809584795915881
 20
8.523092545329709
 30
0.0
  0
ARC
  5
8E
330
1F
100
AcDbEntity
  8
0
  6
Continuous
 62
     7
370
    15
100
AcDbCircle
 10
2.7500869146
 20
8.523594664
 30
0.0
 40
0.0594999999999998
100
AcDbArc
 50
269.5164768914
 51
270.4835231086
  0
SPLINE
  5
8F
330
1F
100
AcDbEntity
  8
0
  6
Continuous
 62
     7
370
    15
100
AcDbSpline
210
0.0
220
0.0
230
1.0
 70
    24
 71
     3
 72
    14
 73
    10
 74
     0
 42
0.00000001
 43
0.00000001
 40
0.0
 40
0.0
 40
0.0
 40
0.0
 40
0.25
 40
0.25
 40
0.5
 40
0.5
 40
0.75
 40
0.75
 40
1.0
 40
1.0
 40
1.0
 40
1.0
 10
2.690589033356185
 20
8.52309254532971
 30
0.0
 10
2.695127348419032
 20
8.518554230266863
 30
0.0
 10
2.699761037288749
 20
8.513920541397145
 30
0.0
 10
2.709513479751512
 20
8.504168098934382
 30
0.0
 10
2.714785520876832
 20
8.498896057809063
 30
0.0
 10
2.725251088988009
 20
8.488430489697885
 30
0.0
 10
2.730526741910935
 20
8.48315483677496
 30
0.0
 10
2.740333407485967
 20
8.473348171199927
 30
0.0
 10
2.745025004874678
 20
8.468656573811217
 30
0.0
 10
2.749584795915881
 20
8.464096782770012
 30
0.0
  0
ARC
  5
90
330
1F
100
AcDbEntity
  8
0
  6
Continuous
 62
     7
370
    15
100
AcDbCircle
 10
2.7500869146
 20
8.523594664
 30
0.0
 40
0.0595000000000002
100
AcDbArc
 50
359.5164768914
 51
180.4835231086
  0
CIRCLE
  5
91
330
1F
100
AcDbEntity
  8
0
  6
Continuous
 62
     7
370
    15
100
AcDbCircle
 10
2.7500869146
 20
8.523594664
 30
0.0
 40
0.0349999999999984
  0
ARC
  5
92
330
1F
100
AcDbEntity
  8
0
  6
Continuous
 62
     7
370
    15
100
AcDbCircle
 10
2.8100869146
 20
8.463594664
 30
0.0
 40
0.0594999999999998
100
AcDbArc
 50
269.5164768914
 51
90.4835231086
  0
SPLINE
  5
93
330
1F
100
AcDbEntity
  8
0
  6
Continuous
 62
     7
370
    15
100
AcDbSpline
210
0.0
220
0.0
230
1.0
 70
    24
 71
     3
 72
    14
 73
    10
 74
     0
 42
0.00000001
 43
0.00000001
 40
0.0
 40
0.0
 40
0.0
 40
0.0
 40
0.25
 40
0.25
 40
0.5
 40
0.5
 40
0.75
 40
0.75
 40
1.0
 40
1.0
 40
1.0
 40
1.0
 10
2.750589033356184
 20
8.46309254532971
 30
0.0
 10
2.755127348419031
 20
8.458554230266863
 30
0.0
 10
2.759761037288749
 20
8.453920541397146
 30
0.0
 10
2.769513479751511
 20
8.444168098934382
 30
0.0
 10
2.774785520876832
 20
8.438896057809062
 30
0.0
 10
2.785251088988008
 20
8.428430489697885
 30
0.0
 10
2.790526741910934
 20
8.423154836774959
 30
0.0
 10
2.800333407485966
 20
8.413348171199928
 30
0.0
 10
2.805025004874676
 20
8.408656573811218
 30
0.0
 10
2.80958479591588
 20
8.404096782770013
 30
0.0
  0
ARC
  5
94
330
1F
100
AcDbEntity
  8
0
  6
Continuous
 62
     7
370
    15
100
AcDbCircle
 10
2.8100869146
 20
8.463594664
 30
0.0
 40
0.0595000000000002
100
AcDbArc
 50
179.5164768914
 51
180.4835231086
  0
CIRCLE
  5
95
330
1F
100
AcDbEntity
  8
0
  6
Continuous
 62
     7
370
    15
100
AcDbCircle
 10
2.8100869146
 20
8.463594664
 30
0.0
 40
0.0350000000000001
  0
ARC
  5
96
330
1F
100
AcDbEntity
  8
0
  6
Continuous
 62
     7
370
    15
100
AcDbCircle
 10
2.7500869146
 20
8.403594664
 30
0.0
 40
0.0595000000000002
100
AcDbArc
 50
179.5164768914
 51
0.4835231086
  0
SPLINE
  5
97
330
1F
100
AcDbEntity
  8
0
  6
Continuous
 62
     7
370
    15
100
AcDbSpline
210
0.0
220
0.0
230
1.0
 70
    24
 71
     3
 72
    14
 73
    10
 74
     0
 42
0.00000001
 43
0.00000001
 40
0.0
 40
0.0
 40
0.0
 40
0.0
 40
0.2500000000000001
 40
0.2500000000000001
 40
0.5000000000000001
 40
0.5000000000000001
 40
0.7500000000000001
 40
0.7500000000000001
 40
1.0
 40
1.0
 40
1.0
 40
1.0
 10
2.749584795915881
 20
8.46309254532971
 30
0.0
 10
2.745046480853035
 20
8.458554230266863
 30
0.0
 10
2.740412791983317
 20
8.453920541397146
 30
0.0
 10
2.730660349520554
 20
8.444168098934382
 30
0.0
 10
2.725388308395234
 20
8.438896057809062
 30
0.0
 10
2.714922740284056
 20
8.428430489697886
 30
0.0
 10
2.709647087361131
 20
8.42315483677496
 30
0.0
 10
2.699840421786099
 20
8.413348171199928
 30
0.0
 10
2.695148824397388
 20
8.408656573811218
 30
0.0
 10
2.690589033356184
 20
8.404096782770013
 30
0.0
  0
ARC
  5
98
330
1F
100
AcDbEntity
  8
0
  6
Continuous
 62
     7
370
    15
100
AcDbCircle
 10
2.7500869146
 20
8.403594664
 30
0.0
 40
0.0594999999999998
100
AcDbArc
 50
89.5164768914
 51
90.4835231086
  0
CIRCLE
  5
99
330
1F
100
AcDbEntity
  8
0
  6
Continuous
 62
     7
370
    15
100
AcDbCircle
 10
2.7500869146
 20
8.403594664
 30
0.0
 40
0.0350000000000001
  0
ARC
  5
9A
330
1F
100
AcDbEntity
  8
0
  6
Continuous
 62
     7
370
    15
100
AcDbCircle
 10
2.6900869146
 20
8.463594664
 30
0.0
 40
0.0594999999999998
100
AcDbArc
 50
359.5164768914
 51
0.4835231086
  0
ARC
  5
9B
330
1F
100
AcDbEntity
  8
0
  6
Continuous
 62
     7
370
    15
100
AcDbCircle
 10
2.6900869146
 20
8.463594664
 30
0.0
 40
0.0595000000000016
100
AcDbArc
 50
89.5164768914
 51
270.4835231086
  0
CIRCLE
  5
9C
330
1F
100
AcDbEntity
  8
0
  6
Continuous
 62
     7
370
    15
100
AcDbCircle
 10
2.6900869146
 20
8.463594664
 30
0.0
 40
0.0350000000000001
  0
LINE
  5
9D
330
1F
100
AcDbEntity
  8
0
  6
Continuous
 62
     7
370
    15
100
AcDbLine
 10
2.3100869009
 20
8.9035946778
 30
0.0
 11
3.1900869284
 21
8.9035946778
 31
0.0
  0
LINE
  5
9E
330
1F
100
AcDbEntity
  8
0
  6
Continuous
 62
     7
370
    15
100
AcDbLine
 10
3.1900869284
 20
8.9035946778
 30
0.0
 11
3.1900869284
 21
8.0235946503
 31
0.0
  0
LINE
  5
9F
330
1F
100
AcDbEntity
  8
0
  6
Continuous
 62
     7
370
    15
100
AcDbLine
 10
3.1900869284
 20
8.0235946503
 30
0.0
 11
2.5824449829
 21
8.0235946503
 31
0.0
  0
SPLINE
  5
A0
330
1F
100
AcDbEntity
  8
0
  6
Continuous
 62
     7
370
    15
100
AcDbSpline
210
0.0
220
0.0
230
1.0
 70
     8
 71
     3
 72
     8
 73
     4
 74
     0
 42
0.00000001
 43
0.00000001
 40
0.0
 40
0.0
 40
0.0
 40
0.0
 40
1.0
 40
1.0
 40
1.0
 40
1.0
 10
2.310086914636033
 20
8.229202583732986
 30
0.0
 10
2.401021833170362
 20
8.160866318341935
 30
0.0
 10
2.491809661544476
 20
8.092326878697065
 30
0.0
 10
2.582444989706249
 20
8.023594664049703
 30
0.0
  0
LINE
  5
A1
330
1F
100
AcDbEntity
  8
0
  6
Continuous
 62
     7
370
    15
100
AcDbLine
 10
2.3100869009
 20
8.2292025884
 30
0.0
 11
2.3100869009
 21
8.9035946778
 31
0.0
  0
SPLINE
  5
A2
330
1F
100
AcDbEntity
  8
0
  6
Continuous
 62
     7
370
    15
100
AcDbSpline
210
0.0
220
0.0
230
1.0
 70
    24
 71
     3
 72
     8
 73
     4
 74
     0
 42
0.00000001
 43
0.00000001
 40
0.0
 40
0.0
 40
0.0
 40
0.0
 40
1.0
 40
1.0
 40
1.0
 40
1.0
 10
2.582444989706356
 20
8.02359466404986
 30
0.0
 10
2.572727721801951
 20
8.02359466404986
 30
0.0
 10
2.562651385711496
 20
8.02359466404986
 30
0.0
 10
2.552213781501108
 20
8.02359466404986
 30
0.0
  0
SPLINE
  5
A3
330
1F
100
AcDbEntity
  8
0
  6
Continuous
 62
     7
370
    15
100
AcDbSpline
210
0.0
220
0.0
230
1.0
 70
     8
 71
     3
 72
     8
 73
     4
 74
     0
 42
0.00000001
 43
0.00000001
 40
0.0
 40
0.0
 40
0.0
 40
0.0
 40
1.0
 40
1.0
 40
1.0
 40
1.0
 10
2.310086914636026
 20
8.204500680257524
 30
0.0
 10
2.390914439547152
 20
8.144359485485449
 30
0.0
 10
2.471624928071931
 20
8.08405467899238
 30
0.0
 10
2.552213781501109
 20
8.02359466404984
 30
0.0
  0
SPLINE
  5
A4
330
1F
100
AcDbEntity
  8
0
  6
Continuous
 62
     7
370
    15
100
AcDbSpline
210
0.0
220
0.0
230
1.0
 70
    24
 71
     3
 72
     8
 73
     4
 74
     0
 42
0.00000001
 43
0.00000001
 40
0.0
 40
0.0
 40
0.0
 40
0.0
 40
1.0
 40
1.0
 40
1.0
 40
1.0
 10
2.310086914636033
 20
8.20450068025753
 30
0.0
 10
2.310086914636033
 20
8.212947929662594
 30
0.0
 10
2.310086914636033
 20
8.221184947468746
 30
0.0
 10
2.310086914636033
 20
8.229202583732958
 30
0.0
  0
MTEXT
  5
A5
330
1F
100
AcDbEntity
  8
0
  6
Continuous
 62
     7
370
     0
100
AcDbMText
 10
1.7281200416
 20
7.9186689609
 30
0.0
 40
0.1377952756
 41
0.0
 71
     1
 72
     1
  1
panel_Y^ cube_15
  7
SLDTEXTSTYLE0
 73
     1
 44
1.0
  0
SPLINE
  5
A6
330
1F
100
AcDbEntity
  8
0
  6
Continuous
 62
     7
370
    15
100
AcDbSpline
210
0.0
220
0.0
230
1.0
 70
    24
 71
     3
 72
    14
 73
    10
 74
     0
 42
0.00000001
 43
0.00000001
 40
0.0
 40
0.0
 40
0.0
 40
0.0
 40
0.1916967771948487
 40
0.3822497313990676
 40
0.4962219951152134
 40
0.6101823041304515
 40
0.7594834914303791
 40
0.9093502144323127
 40
1.0
 40
1.0
 40
1.0
 40
1.0
 10
7.994077984917799
 20
8.408896374378628
 30
0.0
 10
7.997589553966828
 20
8.412407943427656
 30
0.0
 10
8.004591739112676
 20
8.419410128573507
 30
0.0
 10
8.014540451541393
 20
8.429358841002223
 30
0.0
 10
8.023339077358154
 20
8.438157466818982
 30
0.0
 10
8.031287925424223
 20
8.446106314885053
 30
0.0
 10
8.03962731824452
 20
8.45444570770535
 30
0.0
 10
8.047034235445322
 20
8.461852624906152
 30
0.0
 10
8.051420558909086
 20
8.466238948369915
 30
0.0
 10
8.053073748055168
 20
8.467892137515996
 30
0.0
  0
ARC
  5
A7
330
1F
100
AcDbEntity
  8
0
  6
Continuous
 62
     7
370
    15
100
AcDbCircle
 10
8.0535758668
 20
8.4083942562
 30
0.0
 40
0.0595000000000016
100
AcDbArc
 50
89.5164768914
 51
90.4835231086
  0
SPLINE
  5
A8
330
1F
100
AcDbEntity
  8
0
  6
Continuous
 62
     7
370
    15
100
AcDbSpline
210
0.0
220
0.0
230
1.0
 70
    24
 71
     3
 72
    14
 73
    10
 74
     0
 42
0.00000001
 43
0.00000001
 40
0.0
 40
0.0
 40
0.0
 40
0.0
 40
0.1916967982628906
 40
0.3822497361614962
 40
0.4962219642930644
 40
0.6101822738789825
 40
0.7594834445013381
 40
0.9093502258651832
 40
1.0
 40
1.0
 40
1.0
 40
1.0
 10
8.054077985464547
 20
8.467892137515996
 30
0.0
 10
8.057589555020408
 20
8.464380567960134
 30
0.0
 10
8.064591740494576
 20
8.457378382485967
 30
0.0
 10
8.074540451984879
 20
8.447429670995666
 30
0.0
 10
8.083339076637492
 20
8.438631046343053
 30
0.0
 10
8.091287923694052
 20
8.43068219928649
 30
0.0
 10
8.099627316775143
 20
8.4223428062054
 30
0.0
 10
8.107034235807577
 20
8.414935887172966
 30
0.0
 10
8.111420559791034
 20
8.41054956318951
 30
0.0
 10
8.113073748601915
 20
8.408896374378628
 30
0.0
  0
ARC
  5
A9
330
1F
100
AcDbEntity
  8
0
  6
Continuous
 62
     7
370
    15
100
AcDbCircle
 10
8.0535758668
 20
8.4083942562
 30
0.0
 40
0.0595000000000016
100
AcDbArc
 50
179.5164768914
 51
0.4835231086
  0
CIRCLE
  5
AA
330
1F
100
AcDbEntity
  8
0
  6
Continuous
 62
     7
370
    15
100
AcDbCircle
 10
8.0535758668
 20
8.4083942562
 30
0.0
 40
0.0350000000000001
  0
SPLINE
  5
AB
330
1F
100
AcDbEntity
  8
0
  6
Continuous
 62
     7
370
    15
100
AcDbSpline
210
0.0
220
0.0
230
1.0
 70
    24
 71
     3
 72
    14
 73
    10
 74
     0
 42
0.00000001
 43
0.00000001
 40
0.0
 40
0.0
 40
0.0
 40
0.0
 40
0.1916967982628906
 40
0.3822497361614962
 40
0.4962219642930644
 40
0.6101822738789825
 40
0.7594834445013381
 40
0.9093502258651832
 40
1.0
 40
1.0
 40
1.0
 40
1.0
 10
8.053073748055168
 20
8.468896374925377
 30
0.0
 10
8.049562178499306
 20
8.472407944481237
 30
0.0
 10
8.042559993025138
 20
8.479410129955404
 30
0.0
 10
8.032611281534836
 20
8.489358841445707
 30
0.0
 10
8.023812656882221
 20
8.49815746609832
 30
0.0
 10
8.015863809825662
 20
8.50610631315488
 30
0.0
 10
8.007524416744571
 20
8.514445706235971
 30
0.0
 10
8.000117497712138
 20
8.521852625268405
 30
0.0
 10
7.99573117372868
 20
8.526238949251862
 30
0.0
 10
7.994077984917799
 20
8.527892138062745
 30
0.0
  0
ARC
  5
AC
330
1F
100
AcDbEntity
  8
0
  6
Continuous
 62
     7
370
    15
100
AcDbCircle
 10
7.9935758668
 20
8.4683942562
 30
0.0
 40
0.0595000000000016
100
AcDbArc
 50
359.5164768914
 51
0.4835231086
  0
ARC
  5
AD
330
1F
100
AcDbEntity
  8
0
  6
Continuous
 62
     7
370
    15
100
AcDbCircle
 10
7.9935758668
 20
8.4683942562
 30
0.0
 40
0.0594999999999998
100
AcDbArc
 50
89.5164768914
 51
270.4835231086
  0
CIRCLE
  5
AE
330
1F
100
AcDbEntity
  8
0
  6
Continuous
 62
     7
370
    15
100
AcDbCircle
 10
7.9935758668
 20
8.4683942562
 30
0.0
 40
0.0350000000000001
  0
SPLINE
  5
AF
330
1F
100
AcDbEntity
  8
0
  6
Continuous
 62
     7
370
    15
100
AcDbSpline
210
0.0
220
0.0
230
1.0
 70
    24
 71
     3
 72
    14
 73
    10
 74
     0
 42
0.00000001
 43
0.00000001
 40
0.0
 40
0.0
 40
0.0
 40
0.0
 40
0.1916967982628906
 40
0.3822497361614962
 40
0.4962219642930644
 40
0.6101822738789825
 40
0.7594834445013381
 40
0.9093502258651832
 40
1.0
 40
1.0
 40
1.0
 40
1.0
 10
8.054077985464547
 20
8.468896374925377
 30
0.0
 10
8.057589555020408
 20
8.472407944481237
 30
0.0
 10
8.064591740494576
 20
8.479410129955404
 30
0.0
 10
8.074540451984879
 20
8.489358841445707
 30
0.0
 10
8.083339076637492
 20
8.49815746609832
 30
0.0
 10
8.091287923694052
 20
8.50610631315488
 30
0.0
 10
8.099627316775143
 20
8.514445706235971
 30
0.0
 10
8.107034235807577
 20
8.521852625268405
 30
0.0
 10
8.111420559791034
 20
8.526238949251862
 30
0.0
 10
8.113073748601915
 20
8.527892138062745
 30
0.0
  0
ARC
  5
B0
330
1F
100
AcDbEntity
  8
0
  6
Continuous
 62
     7
370
    15
100
AcDbCircle
 10
8.1135758668
 20
8.4683942562
 30
0.0
 40
0.0595000000000016
100
AcDbArc
 50
269.5164768914
 51
90.4835231086
  0
ARC
  5
B1
330
1F
100
AcDbEntity
  8
0
  6
Continuous
 62
     7
370
    15
100
AcDbCircle
 10
8.1135758668
 20
8.4683942562
 30
0.0
 40
0.0595000000000016
100
AcDbArc
 50
179.5164768914
 51
180.4835231086
  0
CIRCLE
  5
B2
330
1F
100
AcDbEntity
  8
0
  6
Continuous
 62
     7
370
    15
100
AcDbCircle
 10
8.1135758668
 20
8.4683942562
 30
0.0
 40
0.0349999999999984
  0
ARC
  5
B3
330
1F
100
AcDbEntity
  8
0
  6
Continuous
 62
     7
370
    15
100
AcDbCircle
 10
8.0535758668
 20
8.5283942562
 30
0.0
 40
0.0594999999999998
100
AcDbArc
 50
359.5164768914
 51
180.4835231086
  0
ARC
  5
B4
330
1F
100
AcDbEntity
  8
0
  6
Continuous
 62
     7
370
    15
100
AcDbCircle
 10
8.0535758668
 20
8.5283942562
 30
0.0
 40
0.0594999999999998
100
AcDbArc
 50
269.5164768914
 51
270.4835231086
  0
CIRCLE
  5
B5
330
1F
100
AcDbEntity
  8
0
  6
Continuous
 62
     7
370
    15
100
AcDbCircle
 10
8.0535758668
 20
8.5283942562
 30
0.0
 40
0.0350000000000001
  0
LINE
  5
B6
330
1F
100
AcDbEntity
  8
0
  6
Continuous
 62
     7
370
    15
100
AcDbLine
 10
7.613575853
 20
8.0283942425
 30
0.0
 11
7.613575853
 21
8.90839427
 31
0.0
  0
LINE
  5
B7
330
1F
100
AcDbEntity
  8
0
  6
Continuous
 62
     7
370
    15
100
AcDbLine
 10
7.613575853
 20
8.90839427
 30
0.0
 11
8.4935758805
 21
8.90839427
 31
0.0
  0
LINE
  5
B8
330
1F
100
AcDbEntity
  8
0
  6
Continuous
 62
     7
370
    15
100
AcDbLine
 10
8.4935758805
 20
8.90839427
 30
0.0
 11
8.4935758805
 21
8.0283942425
 31
0.0
  0
LINE
  5
B9
330
1F
100
AcDbEntity
  8
0
  6
Continuous
 62
     7
370
    15
100
AcDbLine
 10
8.4935758805
 20
8.0283942425
 30
0.0
 11
7.613575853
 21
8.0283942425
 31
0.0
  0
MTEXT
  5
BA
330
1F
100
AcDbEntity
  8
0
  6
Continuous
 62
     7
370
     0
100
AcDbMText
 10
8.8433240399
 20
7.3700578643
 30
0.0
 40
0.1377952756
 41
0.0
 71
     1
 72
     1
  1
panel_G^ cube_15
  7
SLDTEXTSTYLE0
 73
     1
 44
1.0
  0
SPLINE
  5
BB
330
1F
100
AcDbEntity
  8
0
  6
Continuous
 62
     7
370
    15
100
AcDbSpline
210
0.0
220
0.0
230
1.0
 70
    24
 71
     3
 72
    14
 73
    10
 74
     0
 42
0.00000001
 43
0.00000001
 40
0.0
 40
0.0
 40
0.0
 40
0.0
 40
0.1916967982628906
 40
0.3822497361614962
 40
0.4962219642930644
 40
0.6101822738789825
 40
0.7594834445013381
 40
0.9093502258651832
 40
1.0
 40
1.0
 40
1.0
 40
1.0
 10
2.74718394535364
 20
3.099249343836024
 30
0.0
 10
2.750695514909502
 20
3.095737774280163
 30
0.0
 10
2.757697700383669
 20
3.088735588805997
 30
0.0
 10
2.767646411873971
 20
3.078786877315694
 30
0.0
 10
2.776445036526585
 20
3.06998825266308
 30
0.0
 10
2.784393883583145
 20
3.06203940560652
 30
0.0
 10
2.792733276664236
 20
3.053700012525429
 30
0.0
 10
2.80014019569667
 20
3.046293093492995
 30
0.0
 10
2.804526519680126
 20
3.041906769509539
 30
0.0
 10
2.806179708491009
 20
3.040253580698656
 30
0.0
  0
ARC
  5
BC
330
1F
100
AcDbEntity
  8
0
  6
Continuous
 62
     7
370
    15
100
AcDbCircle
 10
2.8066818266
 20
3.0997514625
 30
0.0
 40
0.0594999999999998
100
AcDbArc
 50
179.5164768914
 51
180.4835231086
  0
SPLINE
  5
BD
330
1F
100
AcDbEntity
  8
0
  6
Continuous
 62
     7
370
    15
100
AcDbSpline
210
0.0
220
0.0
230
1.0
 70
    24
 71
     3
 72
    14
 73
    10
 74
     0
 42
0.00000001
 43
0.00000001
 40
0.0
 40
0.0
 40
0.0
 40
0.0
 40
0.1916967771948487
 40
0.3822497313990676
 40
0.4962219951152134
 40
0.6101823041304515
 40
0.7594834914303791
 40
0.9093502144323127
 40
1.0
 40
1.0
 40
1.0
 40
1.0
 10
2.806179708491009
 20
3.159249344382773
 30
0.0
 10
2.802668139441979
 20
3.155737775333744
 30
0.0
 10
2.79566595429613
 20
3.148735590187894
 30
0.0
 10
2.785717241867414
 20
3.138786877759178
 30
0.0
 10
2.776918616050653
 20
3.129988251942418
 30
0.0
 10
2.768969767984583
 20
3.122039403876347
 30
0.0
 10
2.760630375164287
 20
3.113700011056051
 30
0.0
 10
2.753223457963485
 20
3.106293093855249
 30
0.0
 10
2.748837134499722
 20
3.101906770391486
 30
0.0
 10
2.74718394535364
 20
3.100253581245405
 30
0.0
  0
ARC
  5
BE
330
1F
100
AcDbEntity
  8
0
  6
Continuous
 62
     7
370
    15
100
AcDbCircle
 10
2.8066818266
 20
3.0997514625
 30
0.0
 40
0.0595000000000002
100
AcDbArc
 50
269.5164768914
 51
90.4835231086
  0
CIRCLE
  5
BF
330
1F
100
AcDbEntity
  8
0
  6
Continuous
 62
     7
370
    15
100
AcDbCircle
 10
2.8066818266
 20
3.0997514625
 30
0.0
 40
0.0349999999999997
  0
ARC
  5
C0
330
1F
100
AcDbEntity
  8
0
  6
Continuous
 62
     7
370
    15
100
AcDbCircle
 10
2.7466818266
 20
3.1597514625
 30
0.0
 40
0.0595000000000002
100
AcDbArc
 50
269.5164768914
 51
270.4835231086
  0
SPLINE
  5
C1
330
1F
100
AcDbEntity
  8
0
  6
Continuous
 62
     7
370
    15
100
AcDbSpline
210
0.0
220
0.0
230
1.0
 70
    24
 71
     3
 72
    14
 73
    10
 74
     0
 42
0.00000001
 43
0.00000001
 40
0.0
 40
0.0
 40
0.0
 40
0.0
 40
0.1916967982628906
 40
0.3822497361614962
 40
0.4962219642930644
 40
0.6101822738789825
 40
0.7594834445013381
 40
0.9093502258651832
 40
1.0
 40
1.0
 40
1.0
 40
1.0
 10
2.74617970794426
 20
3.100253581245405
 30
0.0
 10
2.742668138388399
 20
3.103765150801266
 30
0.0
 10
2.735665952914232
 20
3.110767336275433
 30
0.0
 10
2.725717241423929
 20
3.120716047765736
 30
0.0
 10
2.716918616771316
 20
3.129514672418349
 30
0.0
 10
2.708969769714756
 20
3.137463519474909
 30
0.0
 10
2.700630376633665
 20
3.145802912556
 30
0.0
 10
2.693223457601231
 20
3.153209831588434
 30
0.0
 10
2.688837133617775
 20
3.15759615557189
 30
0.0
 10
2.687183944806892
 20
3.159249344382773
 30
0.0
  0
ARC
  5
C2
330
1F
100
AcDbEntity
  8
0
  6
Continuous
 62
     7
370
    15
100
AcDbCircle
 10
2.7466818266
 20
3.1597514625
 30
0.0
 40
0.0595000000000002
100
AcDbArc
 50
359.5164768914
 51
180.4835231086
  0
CIRCLE
  5
C3
330
1F
100
AcDbEntity
  8
0
  6
Continuous
 62
     7
370
    15
100
AcDbCircle
 10
2.7466818266
 20
3.1597514625
 30
0.0
 40
0.0349999999999993
  0
SPLINE
  5
C4
330
1F
100
AcDbEntity
  8
0
  6
Continuous
 62
     7
370
    15
100
AcDbSpline
210
0.0
220
0.0
230
1.0
 70
    24
 71
     3
 72
    14
 73
    10
 74
     0
 42
0.00000001
 43
0.00000001
 40
0.0
 40
0.0
 40
0.0
 40
0.0
 40
0.1916967982628906
 40
0.3822497361614962
 40
0.4962219642930644
 40
0.6101822738789825
 40
0.7594834445013381
 40
0.9093502258651832
 40
1.0
 40
1.0
 40
1.0
 40
1.0
 10
2.74617970794426
 20
3.099249343836024
 30
0.0
 10
2.742668138388399
 20
3.095737774280163
 30
0.0
 10
2.735665952914232
 20
3.088735588805997
 30
0.0
 10
2.725717241423929
 20
3.078786877315694
 30
0.0
 10
2.716918616771316
 20
3.06998825266308
 30
0.0
 10
2.708969769714756
 20
3.06203940560652
 30
0.0
 10
2.700630376633665
 20
3.053700012525429
 30
0.0
 10
2.693223457601231
 20
3.046293093492995
 30
0.0
 10
2.688837133617775
 20
3.041906769509539
 30
0.0
 10
2.687183944806892
 20
3.040253580698656
 30
0.0
  0
ARC
  5
C5
330
1F
100
AcDbEntity
  8
0
  6
Continuous
 62
     7
370
    15
100
AcDbCircle
 10
2.6866818266
 20
3.0997514625
 30
0.0
 40
0.0595000000000002
100
AcDbArc
 50
89.5164768914
 51
270.4835231086
  0
ARC
  5
C6
330
1F
100
AcDbEntity
  8
0
  6
Continuous
 62
     7
370
    15
100
AcDbCircle
 10
2.6866818266
 20
3.0997514625
 30
0.0
 40
0.0594999999999998
100
AcDbArc
 50
359.5164768914
 51
0.4835231086
  0
CIRCLE
  5
C7
330
1F
100
AcDbEntity
  8
0
  6
Continuous
 62
     7
370
    15
100
AcDbCircle
 10
2.6866818266
 20
3.0997514625
 30
0.0
 40
0.0350000000000001
  0
ARC
  5
C8
330
1F
100
AcDbEntity
  8
0
  6
Continuous
 62
     7
370
    15
100
AcDbCircle
 10
2.7466818266
 20
3.0397514625
 30
0.0
 40
0.0594999999999998
100
AcDbArc
 50
179.5164768914
 51
0.4835231086
  0
ARC
  5
C9
330
1F
100
AcDbEntity
  8
0
  6
Continuous
 62
     7
370
    15
100
AcDbCircle
 10
2.7466818266
 20
3.0397514625
 30
0.0
 40
0.0595000000000002
100
AcDbArc
 50
89.5164768914
 51
90.4835231086
  0
CIRCLE
  5
CA
330
1F
100
AcDbEntity
  8
0
  6
Continuous
 62
     7
370
    15
100
AcDbCircle
 10
2.7466818266
 20
3.0397514625
 30
0.0
 40
0.0349999999999997
  0
LINE
  5
CB
330
1F
100
AcDbEntity
  8
0
  6
Continuous
 62
     7
370
    15
100
AcDbLine
 10
2.3066818129
 20
3.5397514763
 30
0.0
 11
3.1866818404
 21
3.5397514763
 31
0.0
  0
LINE
  5
CC
330
1F
100
AcDbEntity
  8
0
  6
Continuous
 62
     7
370
    15
100
AcDbLine
 10
3.1866818404
 20
3.5397514763
 30
0.0
 11
3.1866818404
 21
2.6597514488
 31
0.0
  0
LINE
  5
CD
330
1F
100
AcDbEntity
  8
0
  6
Continuous
 62
     7
370
    15
100
AcDbLine
 10
3.1866818404
 20
2.6597514488
 30
0.0
 11
2.5663327501
 21
2.6597514488
 31
0.0
  0
SPLINE
  5
CE
330
1F
100
AcDbEntity
  8
0
  6
Continuous
 62
     7
370
    15
100
AcDbSpline
210
0.0
220
0.0
230
1.0
 70
     8
 71
     3
 72
    11
 73
     7
 74
     0
 42
0.00000001
 43
0.00000001
 40
0.0
 40
0.0
 40
0.0
 40
0.0
 40
0.2494136304723615
 40
0.4988243309928149
 40
0.7494139334766237
 40
1.0
 40
1.0
 40
1.0
 40
1.0
 10
2.306681812899989
 20
3.125780124980385
 30
0.0
 10
2.330515069111813
 20
3.088330596858144
 30
0.0
 10
2.378181301557603
 20
3.01343198054678
 30
0.0
 10
2.444938120083606
 20
2.897940400842085
 30
0.0
 10
2.50834858451146
 20
2.780334126115466
 30
0.0
 10
2.547004785785838
 20
2.699945485510157
 30
0.0
 10
2.566332750056873
 20
2.659751448791754
 30
0.0
  0
LINE
  5
CF
330
1F
100
AcDbEntity
  8
0
  6
Continuous
 62
     7
370
    15
100
AcDbLine
 10
2.3066818129
 20
3.125780125
 30
0.0
 11
2.3066818129
 21
3.5397514763
 31
0.0
  0
LINE
  5
D0
330
1F
100
AcDbEntity
  8
0
  6
Continuous
 62
     7
370
    15
100
AcDbLine
 10
2.5663327501
 20
2.6597514488
 30
0.0
 11
2.5208855834
 21
2.6597514488
 31
0.0
  0
SPLINE
  5
D1
330
1F
100
AcDbEntity
  8
0
  6
Continuous
 62
     7
370
    15
100
AcDbSpline
210
0.0
220
0.0
230
1.0
 70
     8
 71
     3
 72
    11
 73
     7
 74
     0
 42
0.00000001
 43
0.00000001
 40
0.0
 40
0.0
 40
0.0
 40
0.0
 40
0.2495627276585663
 40
0.4991235024362977
 40
0.7495628894124735
 40
1.0
 40
1.0
 40
1.0
 40
1.0
 10
2.306681812899989
 20
3.059281174640267
 30
0.0
 10
2.326168352168599
 20
3.026966689878567
 30
0.0
 10
2.36514127821955
 20
2.962337973222806
 30
0.0
 10
2.420042360342535
 20
2.863171626428881
 30
0.0
 10
2.472455213781641
 20
2.762515191892261
 30
0.0
 10
2.504742175773088
 20
2.694005926038051
 30
0.0
 10
2.520885583399754
 20
2.659751448791754
 30
0.0
  0
LINE
  5
D2
330
1F
100
AcDbEntity
  8
0
  6
Continuous
 62
     7
370
    15
100
AcDbLine
 10
2.3066818129
 20
3.0592811746
 30
0.0
 11
2.3066818129
 21
3.125780125
 31
0.0
  0
MTEXT
  5
D3
330
1F
100
AcDbEntity
  8
0
  6
Continuous
 62
     7
370
     0
100
AcDbMText
 10
1.9929398942
 20
2.4322699288
 30
0.0
 40
0.1377952756
 41
0.0
 71
     1
 72
     1
  1
panel_O^ cube_15
  7
SLDTEXTSTYLE0
 73
     1
 44
1.0
  0
SPLINE
  5
D4
330
1F
100
AcDbEntity
  8
0
  6
Continuous
 62
     7
370
    15
100
AcDbSpline
210
0.0
220
0.0
230
1.0
 70
    24
 71
     3
 72
    14
 73
    10
 74
     0
 42
0.00000001
 43
0.00000001
 40
0.0
 40
0.0
 40
0.0
 40
0.0
 40
0.1916967982628906
 40
0.3822497361614962
 40
0.4962219642930644
 40
0.6101822738789825
 40
0.7594834445013381
 40
0.9093502258651832
 40
1.0
 40
1.0
 40
1.0
 40
1.0
 10
8.115253452527282
 20
3.078204719043478
 30
0.0
 10
8.118765022083142
 20
3.074693149487616
 30
0.0
 10
8.12576720755731
 20
3.06769096401345
 30
0.0
 10
8.135715919047612
 20
3.057742252523147
 30
0.0
 10
8.144514543700225
 20
3.048943627870534
 30
0.0
 10
8.152463390756786
 20
3.040994780813973
 30
0.0
 10
8.160802783837877
 20
3.032655387732882
 30
0.0
 10
8.16820970287031
 20
3.025248468700448
 30
0.0
 10
8.172596026853768
 20
3.020862144716992
 30
0.0
 10
8.17424921566465
 20
3.01920895590611
 30
0.0
  0
ARC
  5
D5
330
1F
100
AcDbEntity
  8
0
  6
Continuous
 62
     7
370
    15
100
AcDbCircle
 10
8.1147513338
 20
3.0187068377
 30
0.0
 40
0.0594999999999998
100
AcDbArc
 50
179.5164768914
 51
0.4835231086
  0
SPLINE
  5
D6
330
1F
100
AcDbEntity
  8
0
  6
Continuous
 62
     7
370
    15
100
AcDbSpline
210
0.0
220
0.0
230
1.0
 70
    24
 71
     3
 72
    14
 73
    10
 74
     0
 42
0.00000001
 43
0.00000001
 40
0.0
 40
0.0
 40
0.0
 40
0.0
 40
0.1916967982628906
 40
0.3822497361614962
 40
0.4962219642930644
 40
0.6101822738789825
 40
0.7594834445013381
 40
0.9093502258651832
 40
1.0
 40
1.0
 40
1.0
 40
1.0
 10
8.114249215117901
 20
3.078204719043478
 30
0.0
 10
8.11073764556204
 20
3.074693149487616
 30
0.0
 10
8.103735460087872
 20
3.06769096401345
 30
0.0
 10
8.093786748597571
 20
3.057742252523147
 30
0.0
 10
8.084988123944958
 20
3.048943627870534
 30
0.0
 10
8.077039276888396
 20
3.040994780813973
 30
0.0
 10
8.068699883807305
 20
3.032655387732882
 30
0.0
 10
8.061292964774871
 20
3.025248468700448
 30
0.0
 10
8.056906640791416
 20
3.020862144716992
 30
0.0
 10
8.055253451980533
 20
3.01920895590611
 30
0.0
  0
ARC
  5
D7
330
1F
100
AcDbEntity
  8
0
  6
Continuous
 62
     7
370
    15
100
AcDbCircle
 10
8.1147513338
 20
3.0187068377
 30
0.0
 40
0.0595000000000002
100
AcDbArc
 50
89.5164768914
 51
90.4835231086
  0
CIRCLE
  5
D8
330
1F
100
AcDbEntity
  8
0
  6
Continuous
 62
     7
370
    15
100
AcDbCircle
 10
8.1147513338
 20
3.0187068377
 30
0.0
 40
0.0349999999999997
  0
SPLINE
  5
D9
330
1F
100
AcDbEntity
  8
0
  6
Continuous
 62
     7
370
    15
100
AcDbSpline
210
0.0
220
0.0
230
1.0
 70
    24
 71
     3
 72
    14
 73
    10
 74
     0
 42
0.00000001
 43
0.00000001
 40
0.0
 40
0.0
 40
0.0
 40
0.0
 40
0.1916967982628906
 40
0.3822497361614962
 40
0.4962219642930644
 40
0.6101822738789825
 40
0.7594834445013381
 40
0.9093502258651832
 40
1.0
 40
1.0
 40
1.0
 40
1.0
 10
8.115253452527282
 20
3.079208956452858
 30
0.0
 10
8.118765022083142
 20
3.082720526008719
 30
0.0
 10
8.12576720755731
 20
3.089722711482886
 30
0.0
 10
8.135715919047612
 20
3.099671422973189
 30
0.0
 10
8.144514543700225
 20
3.108470047625802
 30
0.0
 10
8.152463390756786
 20
3.116418894682362
 30
0.0
 10
8.160802783837877
 20
3.124758287763453
 30
0.0
 10
8.16820970287031
 20
3.132165206795888
 30
0.0
 10
8.172596026853768
 20
3.136551530779344
 30
0.0
 10
8.17424921566465
 20
3.138204719590227
 30
0.0
  0
ARC
  5
DA
330
1F
100
AcDbEntity
  8
0
  6
Continuous
 62
     7
370
    15
100
AcDbCircle
 10
8.1747513338
 20
3.0787068377
 30
0.0
 40
0.0595000000000002
100
AcDbArc
 50
269.5164768914
 51
90.4835231086
  0
ARC
  5
DB
330
1F
100
AcDbEntity
  8
0
  6
Continuous
 62
     7
370
    15
100
AcDbCircle
 10
8.1747513338
 20
3.0787068377
 30
0.0
 40
0.0594999999999998
100
AcDbArc
 50
179.5164768914
 51
180.4835231086
  0
CIRCLE
  5
DC
330
1F
100
AcDbEntity
  8
0
  6
Continuous
 62
     7
370
    15
100
AcDbCircle
 10
8.1747513338
 20
3.0787068377
 30
0.0
 40
0.0349999999999997
  0
SPLINE
  5
DD
330
1F
100
AcDbEntity
  8
0
  6
Continuous
 62
     7
370
    15
100
AcDbSpline
210
0.0
220
0.0
230
1.0
 70
    24
 71
     3
 72
    14
 73
    10
 74
     0
 42
0.00000001
 43
0.00000001
 40
0.0
 40
0.0
 40
0.0
 40
0.0
 40
0.1916967771948487
 40
0.3822497313990676
 40
0.4962219951152134
 40
0.6101823041304515
 40
0.7594834914303791
 40
0.9093502144323127
 40
1.0
 40
1.0
 40
1.0
 40
1.0
 10
8.055253451980533
 20
3.138204719590227
 30
0.0
 10
8.058765021029563
 20
3.134693150541197
 30
0.0
 10
8.065767206175412
 20
3.127690965395348
 30
0.0
 10
8.075715918604129
 20
3.117742252966631
 30
0.0
 10
8.084514544420887
 20
3.108943627149871
 30
0.0
 10
8.092463392486959
 20
3.100994779083801
 30
0.0
 10
8.100802785307256
 20
3.092655386263504
 30
0.0
 10
8.108209702508058
 20
3.085248469062702
 30
0.0
 10
8.11259602597182
 20
3.080862145598939
 30
0.0
 10
8.114249215117901
 20
3.079208956452858
 30
0.0
  0
ARC
  5
DE
330
1F
100
AcDbEntity
  8
0
  6
Continuous
 62
     7
370
    15
100
AcDbCircle
 10
8.0547513338
 20
3.0787068377
 30
0.0
 40
0.0594999999999998
100
AcDbArc
 50
359.5164768914
 51
0.4835231086
  0
ARC
  5
DF
330
1F
100
AcDbEntity
  8
0
  6
Continuous
 62
     7
370
    15
100
AcDbCircle
 10
8.0547513338
 20
3.0787068377
 30
0.0
 40
0.0595000000000002
100
AcDbArc
 50
89.5164768914
 51
270.4835231086
  0
CIRCLE
  5
E0
330
1F
100
AcDbEntity
  8
0
  6
Continuous
 62
     7
370
    15
100
AcDbCircle
 10
8.0547513338
 20
3.0787068377
 30
0.0
 40
0.0350000000000001
  0
ARC
  5
E1
330
1F
100
AcDbEntity
  8
0
  6
Continuous
 62
     7
370
    15
100
AcDbCircle
 10
8.1147513338
 20
3.1387068377
 30
0.0
 40
0.0595000000000002
100
AcDbArc
 50
269.5164768914
 51
270.4835231086
  0
ARC
  5
E2
330
1F
100
AcDbEntity
  8
0
  6
Continuous
 62
     7
370
    15
100
AcDbCircle
 10
8.1147513338
 20
3.1387068377
 30
0.0
 40
0.0595000000000016
100
AcDbArc
 50
359.5164768914
 51
180.4835231086
  0
CIRCLE
  5
E3
330
1F
100
AcDbEntity
  8
0
  6
Continuous
 62
     7
370
    15
100
AcDbCircle
 10
8.1147513338
 20
3.1387068377
 30
0.0
 40
0.0349999999999997
  0
LINE
  5
E4
330
1F
100
AcDbEntity
  8
0
  6
Continuous
 62
     7
370
    15
100
AcDbLine
 10
7.6747513201
 20
2.638706824
 30
0.0
 11
7.6747513201
 21
3.5187068515
 31
0.0
  0
LINE
  5
E5
330
1F
100
AcDbEntity
  8
0
  6
Continuous
 62
     7
370
    15
100
AcDbLine
 10
7.6747513201
 20
3.5187068515
 30
0.0
 11
8.5547513476
 21
3.5187068515
 31
0.0
  0
LINE
  5
E6
330
1F
100
AcDbEntity
  8
0
  6
Continuous
 62
     7
370
    15
100
AcDbLine
 10
8.5547513476
 20
3.5187068515
 30
0.0
 11
8.5547513476
 21
3.193268131
 31
0.0
  0
SPLINE
  5
E7
330
1F
100
AcDbEntity
  8
0
  6
Continuous
 62
     7
370
    15
100
AcDbSpline
210
0.0
220
0.0
230
1.0
 70
     8
 71
     3
 72
    14
 73
    10
 74
     0
 42
0.00000001
 43
0.00000001
 40
0.0
 40
0.0
 40
0.0
 40
0.0
 40
0.0429040121614346
 40
0.200750026667312
 40
0.3586945561691425
 40
0.5165509742025929
 40
0.6776663192235547
 40
0.838871588240966
 40
1.0
 40
1.0
 40
1.0
 40
1.0
 10
8.13851360306883
 20
2.638706823999207
 30
0.0
 10
8.143248736972048
 20
2.647460091331023
 30
0.0
 10
8.165404666206998
 20
2.688417068587054
 30
0.0
 10
8.207615184609361
 20
2.760166829777682
 30
0.0
 10
8.267779681868216
 20
2.852138743250942
 30
0.0
 10
8.332747429219479
 20
2.941733040986345
 30
0.0
 10
8.40242066558848
 20
3.028672544888879
 30
0.0
 10
8.476285479343307
 20
3.113123988969611
 30
0.0
 10
8.528600216138258
 20
3.166557663894544
 30
0.0
 10
8.554751347571553
 20
3.193268130992999
 30
0.0
  0
LINE
  5
E8
330
1F
100
AcDbEntity
  8
0
  6
Continuous
 62
     7
370
    15
100
AcDbLine
 10
8.1385136031
 20
2.638706824
 30
0.0
 11
7.6747513201
 21
2.638706824
 31
0.0
  0
LINE
  5
E9
330
1F
100
AcDbEntity
  8
0
  6
Continuous
 62
     7
370
    15
100
AcDbLine
 10
8.5547513476
 20
3.193268131
 30
0.0
 11
8.5547513476
 21
3.0959971679
 31
0.0
  0
SPLINE
  5
EA
330
1F
100
AcDbEntity
  8
0
  6
Continuous
 62
     7
370
    15
100
AcDbSpline
210
0.0
220
0.0
230
1.0
 70
     8
 71
     3
 72
    14
 73
    10
 74
     0
 42
0.00000001
 43
0.00000001
 40
0.0
 40
0.0
 40
0.0
 40
0.0
 40
0.1673498595794438
 40
0.3054002411766817
 40
0.4434928043813888
 40
0.5815465999402079
 40
0.7210167855786659
 40
0.8605258473758207
 40
1.0
 40
1.0
 40
1.0
 40
1.0
 10
8.222909005209276
 20
2.638706823999207
 30
0.0
 10
8.238489452157708
 20
2.66619809815495
 30
0.0
 10
8.266922534011792
 20
2.716367496435398
 30
0.0
 10
8.311839850636698
 20
2.787060338926988
 30
0.0
 10
8.355858239273987
 20
2.85170433707707
 30
0.0
 10
8.402241087097568
 20
2.915014434634237
 30
0.0
 10
8.450907592440096
 20
2.976918714105678
 30
0.0
 10
8.501626972717343
 20
3.037515578609526
 30
0.0
 10
8.537044699893691
 20
3.07650493105231
 30
0.0
 10
8.554751347571553
 20
3.095997167904632
 30
0.0
  0
LINE
  5
EB
330
1F
100
AcDbEntity
  8
0
  6
Continuous
 62
     7
370
    15
100
AcDbLine
 10
8.2229090052
 20
2.638706824
 30
0.0
 11
8.1385136031
 21
2.638706824
 31
0.0
  0
MTEXT
  5
EC
330
1F
100
AcDbEntity
  8
0
  6
Continuous
 62
     7
370
     0
100
AcDbMText
 10
6.3670887641
 20
2.3811273867
 30
0.0
 40
0.1377952756
 41
0.0
 71
     1
 72
     1
  1
panel_B^ cube_15
  7
SLDTEXTSTYLE0
 73
     1
 44
1.0
  0
ENDSEC
  0
SECTION
  2
OBJECTS
  0
DICTIONARY
  5
C
330
0
100
AcDbDictionary
281
     1
  3
ACAD_GROUP
350
D
  3
ACAD_LAYOUT
350
1A
  3
ACAD_MLEADERSTYLE
350
EF
  3
ACAD_MLINESTYLE
350
17
  3
ACAD_PLOTSETTINGS
350
19
  3
ACAD_PLOTSTYLENAME
350
E
  3
ACAD_SCALELIST
350
55
  3
ACAD_VISUALSTYLE
350
2A
  3
AcDbVariableDictionary
350
ED
  0
DICTIONARY
  5
D
102
{ACAD_REACTORS
330
C
102
}
330
C
100
AcDbDictionary
281
     1
  0
DICTIONARY
  5
1A
102
{ACAD_REACTORS
330
C
102
}
330
C
100
AcDbDictionary
281
     1
  3
Layout1
350
1E
  3
Layout2
350
26
  3
Model
350
22
  0
DICTIONARY
  5
EF
102
{ACAD_REACTORS
330
C
102
}
330
C
100
AcDbDictionary
281
     1
  0
DICTIONARY
  5
17
102
{ACAD_REACTORS
330
C
102
}
330
C
100
AcDbDictionary
281
     1
  3
Standard
350
18
  0
DICTIONARY
  5
19
102
{ACAD_REACTORS
330
C
102
}
330
C
100
AcDbDictionary
281
     1
  0
ACDBDICTIONARYWDFLT
  5
E
102
{ACAD_REACTORS
330
C
102
}
330
C
100
AcDbDictionary
281
     1
  3
Normal
350
F
100
AcDbDictionaryWithDefault
340
F
  0
DICTIONARY
  5
55
102
{ACAD_REACTORS
330
C
102
}
330
C
100
AcDbDictionary
281
     1
  3
A0
350
56
  3
A1
350
57
  3
A2
350
58
  3
A3
350
59
  3
A4
350
5A
  3
A5
350
5B
  3
A6
350
5C
  3
A7
350
5D
  3
A8
350
5E
  3
A9
350
5F
  3
B0
350
60
  3
B1
350
61
  3
B2
350
62
  3
B3
350
63
  3
B4
350
64
  3
B5
350
65
  3
B6
350
66
  3
B7
350
67
  3
B8
350
68
  3
B9
350
69
  3
C0
350
6A
  3
C1
350
6B
  3
C2
350
6C
  3
C3
350
6D
  3
C4
350
6E
  3
C5
350
6F
  3
C6
350
70
  3
C7
350
71
  3
C8
350
72
  3
C9
350
73
  3
D0
350
74
  3
D1
350
75
  3
D2
350
76
  0
DICTIONARY
  5
2A
102
{ACAD_REACTORS
330
C
102
}
330
C
100
AcDbDictionary
281
     1
  3
2dWireframe
350
2F
  3
3D Hidden
350
31
  3
3dWireframe
350
30
  3
Basic
350
32
  3
Brighten
350
36
  3
ColorChange
350
3A
  3
Conceptual
350
34
  3
Dim
350
35
  3
Facepattern
350
39
  3
Flat
350
2B
  3
FlatWithEdges
350
2C
  3
Gouraud
350
2D
  3
GouraudWithEdges
350
2E
  3
Linepattern
350
38
  3
Realistic
350
33
  3
Thicken
350
37
  0
DICTIONARY
  5
ED
102
{ACAD_REACTORS
330
C
102
}
330
C
100
AcDbDictionary
281
     1
  3
CANNOSCALE
350
F0
  3
DIMASSOC
350
F1
  3
HIDETEXT
350
F2
  0
LAYOUT
  5
1E
102
{ACAD_REACTORS
330
1A
102
}
330
1A
100
AcDbPlotSettings
  1

  2
none_device
  4

  6

 40
0.0
 41
0.0
 42
0.0
 43
0.0
 44
0.0
 45
0.0
 46
0.0
 47
0.0
 48
0.0
 49
0.0
140
0.0
141
0.0
142
1.0
143
1.0
 70
   688
 72
     0
 73
     0
 74
     5
  7

 75
    16
147
1.0
148
0.0
149
0.0
100
AcDbLayout
  1
Layout1
 70
     1
 71
     1
 10
0.0
 20
0.0
 11
12.0
 21
9.0
 12
0.0
 22
0.0
 32
0.0
 14
1.0000000000E+20
 24
1.0000000000E+20
 34
1.0000000000E+20
 15
-1.0000000000E+20
 25
-1.0000000000E+20
 35
-1.0000000000E+20
146
0.0
 13
0.0
 23
0.0
 33
0.0
 16
1.0
 26
0.0
 36
0.0
 17
0.0
 27
1.0
 37
0.0
 76
     0
330
1B
  0
LAYOUT
  5
26
102
{ACAD_REACTORS
330
1A
102
}
330
1A
100
AcDbPlotSettings
  1

  2
none_device
  4

  6

 40
0.0
 41
0.0
 42
0.0
 43
0.0
 44
0.0
 45
0.0
 46
0.0
 47
0.0
 48
0.0
 49
0.0
140
0.0
141
0.0
142
1.0
143
1.0
 70
   688
 72
     0
 73
     0
 74
     5
  7

 75
    16
147
1.0
148
0.0
149
0.0
100
AcDbLayout
  1
Layout2
 70
     1
 71
     2
 10
0.0
 20
0.0
 11
0.0
 21
0.0
 12
0.0
 22
0.0
 32
0.0
 14
0.0
 24
0.0
 34
0.0
 15
0.0
 25
0.0
 35
0.0
146
0.0
 13
0.0
 23
0.0
 33
0.0
 16
1.0
 26
0.0
 36
0.0
 17
0.0
 27
1.0
 37
0.0
 76
     0
330
23
  0
LAYOUT
  5
22
102
{ACAD_REACTORS
330
1A
102
}
330
1A
100
AcDbPlotSettings
  1

  2
none_device
  4

  6

 40
0.0
 41
0.0
 42
0.0
 43
0.0
 44
0.0
 45
0.0
 46
0.0
 47
0.0
 48
0.0
 49
0.0
140
0.0
141
0.0
142
1.0
143
1.0
 70
  1712
 72
     0
 73
     0
 74
     0
  7

 75
     0
147
1.0
148
0.0
149
0.0
100
AcDbLayout
  1
Model
 70
     1
 71
     0
 10
0.0
 20
0.0
 11
11.0
 21
17.0
 12
0.0
 22
0.0
 32
0.0
 14
0.0
 24
0.0
 34
0.0
 15
11.0
 25
17.0
 35
0.0
146
0.0
 13
0.0
 23
0.0
 33
0.0
 16
1.0
 26
0.0
 36
0.0
 17
0.0
 27
1.0
 37
0.0
 76
     0
330
1F
331
29
  0
MLINESTYLE
  5
18
102
{ACAD_REACTORS
330
17
102
}
330
17
100
AcDbMlineStyle
  2
Standard
 70
     0
  3

 62
   256
 51
90.0
 52
90.0
 71
     2
 49
0.5
 62
   256
  6
BYLAYER
 49
-0.5
 62
   256
  6
BYLAYER
  0
ACDBPLACEHOLDER
  5
F
102
{ACAD_REACTORS
330
E
102
}
330
E
  0
SCALE
  5
56
102
{ACAD_REACTORS
330
55
102
}
330
55
100
AcDbScale
 70
     0
300
1:1
140
1.0
141
1.0
290
     1
  0
SCALE
  5
57
102
{ACAD_REACTORS
330
55
102
}
330
55
100
AcDbScale
 70
     0
300
1:2
140
1.0
141
2.0
290
     0
  0
SCALE
  5
58
102
{ACAD_REACTORS
330
55
102
}
330
55
100
AcDbScale
 70
     0
300
1:4
140
1.0
141
4.0
290
     0
  0
SCALE
  5
59
102
{ACAD_REACTORS
330
55
102
}
330
55
100
AcDbScale
 70
     0
300
1:5
140
1.0
141
5.0
290
     0
  0
SCALE
  5
5A
102
{ACAD_REACTORS
330
55
102
}
330
55
100
AcDbScale
 70
     0
300
1:8
140
1.0
141
8.0
290
     0
  0
SCALE
  5
5B
102
{ACAD_REACTORS
330
55
102
}
330
55
100
AcDbScale
 70
     0
300
1:10
140
1.0
141
10.0
290
     0
  0
SCALE
  5
5C
102
{ACAD_REACTORS
330
55
102
}
330
55
100
AcDbScale
 70
     0
300
1:16
140
1.0
141
16.0
290
     0
  0
SCALE
  5
5D
102
{ACAD_REACTORS
330
55
102
}
330
55
100
AcDbScale
 70
     0
300
1:20
140
1.0
141
20.0
290
     0
  0
SCALE
  5
5E
102
{ACAD_REACTORS
330
55
102
}
330
55
100
AcDbScale
 70
     0
300
1:30
140
1.0
141
30.0
290
     0
  0
SCALE
  5
5F
102
{ACAD_REACTORS
330
55
102
}
330
55
100
AcDbScale
 70
     0
300
1:40
140
1.0
141
40.0
290
     0
  0
SCALE
  5
60
102
{ACAD_REACTORS
330
55
102
}
330
55
100
AcDbScale
 70
     0
300
1:50
140
1.0
141
50.0
290
     0
  0
SCALE
  5
61
102
{ACAD_REACTORS
330
55
102
}
330
55
100
AcDbScale
 70
     0
300
1:100
140
1.0
141
100.0
290
     0
  0
SCALE
  5
62
102
{ACAD_REACTORS
330
55
102
}
330
55
100
AcDbScale
 70
     0
300
2:1
140
2.0
141
1.0
290
     0
  0
SCALE
  5
63
102
{ACAD_REACTORS
330
55
102
}
330
55
100
AcDbScale
 70
     0
300
4:1
140
4.0
141
1.0
290
     0
  0
SCALE
  5
64
102
{ACAD_REACTORS
330
55
102
}
330
55
100
AcDbScale
 70
     0
300
8:1
140
8.0
141
1.0
290
     0
  0
SCALE
  5
65
102
{ACAD_REACTORS
330
55
102
}
330
55
100
AcDbScale
 70
     0
300
10:1
140
10.0
141
1.0
290
     0
  0
SCALE
  5
66
102
{ACAD_REACTORS
330
55
102
}
330
55
100
AcDbScale
 70
     0
300
100:1
140
100.0
141
1.0
290
     0
  0
SCALE
  5
67
102
{ACAD_REACTORS
330
55
102
}
330
55
100
AcDbScale
 70
     0
300
1/128" = 1'-0"
140
0.0078125
141
12.0
290
     0
  0
SCALE
  5
68
102
{ACAD_REACTORS
330
55
102
}
330
55
100
AcDbScale
 70
     0
300
1/64" = 1'-0"
140
0.015625
141
12.0
290
     0
  0
SCALE
  5
69
102
{ACAD_REACTORS
330
55
102
}
330
55
100
AcDbScale
 70
     0
300
1/32" = 1'-0"
140
0.03125
141
12.0
290
     0
  0
SCALE
  5
6A
102
{ACAD_REACTORS
330
55
102
}
330
55
100
AcDbScale
 70
     0
300
1/16" = 1'-0"
140
0.0625
141
12.0
290
     0
  0
SCALE
  5
6B
102
{ACAD_REACTORS
330
55
102
}
330
55
100
AcDbScale
 70
     0
300
3/32" = 1'-0"
140
0.09375
141
12.0
290
     0
  0
SCALE
  5
6C
102
{ACAD_REACTORS
330
55
102
}
330
55
100
AcDbScale
 70
     0
300
1/8" = 1'-0"
140
0.125
141
12.0
290
     0
  0
SCALE
  5
6D
102
{ACAD_REACTORS
330
55
102
}
330
55
100
AcDbScale
 70
     0
300
3/16" = 1'-0"
140
0.1875
141
12.0
290
     0
  0
SCALE
  5
6E
102
{ACAD_REACTORS
330
55
102
}
330
55
100
AcDbScale
 70
     0
300
1/4" = 1'-0"
140
0.25
141
12.0
290
     0
  0
SCALE
  5
6F
102
{ACAD_REACTORS
330
55
102
}
330
55
100
AcDbScale
 70
     0
300
3/8" = 1'-0"
140
0.375
141
12.0
290
     0
  0
SCALE
  5
70
102
{ACAD_REACTORS
330
55
102
}
330
55
100
AcDbScale
 70
     0
300
1/2" = 1'-0"
140
0.5
141
12.0
290
     0
  0
SCALE
  5
71
102
{ACAD_REACTORS
330
55
102
}
330
55
100
AcDbScale
 70
     0
300
3/4" = 1'-0"
140
0.75
141
12.0
290
     0
  0
SCALE
  5
72
102
{ACAD_REACTORS
330
55
102
}
330
55
100
AcDbScale
 70
     0
300
1" = 1'-0"
140
1.0
141
12.0
290
     0
  0
SCALE
  5
73
102
{ACAD_REACTORS
330
55
102
}
330
55
100
AcDbScale
 70
     0
300
1-1/2" = 1'-0"
140
1.5
141
12.0
290
     0
  0
SCALE
  5
74
102
{ACAD_REACTORS
330
55
102
}
330
55
100
AcDbScale
 70
     0
300
3" = 1'-0"
140
3.0
141
12.0
290
     0
  0
SCALE
  5
75
102
{ACAD_REACTORS
330
55
102
}
330
55
100
AcDbScale
 70
     0
300
6" = 1'-0"
140
6.0
141
12.0
290
     0
  0
SCALE
  5
76
102
{ACAD_REACTORS
330
55
102
}
330
55
100
AcDbScale
 70
     0
300
1'-0" = 1'-0"
140
12.0
141
12.0
290
     0
  0
VISUALSTYLE
  5
2F
102
{ACAD_REACTORS
330
2A
102
}
330
2A
100
AcDbVisualStyle
  2
2dWireframe
 70
     4
 71
     0
 72
     2
 73
     0
 90
        0
 40
-0.6
 41
-30.0
 62
     5
 63
     7
 74
     1
 91
        4
 64
     7
 65
   257
 75
     1
175
     1
 42
1.0
 92
        0
 66
   257
 43
1.0
 76
     1
 77
     6
 78
     2
 67
     7
 79
     5
170
     0
171
     0
290
     0
174
     0
 93
        1
 44
0.0
173
     0
291
     0
 45
0.0
1001
ACAD
1000
AcDbSavedByObjectVersion
1070
     0
  0
VISUALSTYLE
  5
31
102
{ACAD_REACTORS
330
2A
102
}
330
2A
100
AcDbVisualStyle
  2
3D Hidden
 70
     6
 71
     1
 72
     2
 73
     2
 90
        0
 40
-0.6
 41
-30.0
 62
     5
 63
     7
 74
     2
 91
        2
 64
     7
 65
   257
 75
     2
175
     1
 42
40.0
 92
        0
 66
   257
 43
1.0
 76
     1
 77
     6
 78
     2
 67
     7
 79
     3
170
     0
171
     0
290
     0
174
     0
 93
        1
 44
0.0
173
     0
291
     0
 45
0.0
1001
ACAD
1000
AcDbSavedByObjectVersion
1070
     0
  0
VISUALSTYLE
  5
30
102
{ACAD_REACTORS
330
2A
102
}
330
2A
100
AcDbVisualStyle
  2
3dWireframe
 70
     5
 71
     0
 72
     2
 73
     0
 90
        0
 40
-0.6
 41
-30.0
 62
     5
 63
     7
 74
     1
 91
        4
 64
     7
 65
   257
 75
     1
175
     1
 42
1.0
 92
        0
 66
   257
 43
1.0
 76
     1
 77
     6
 78
     2
 67
     7
 79
     5
170
     0
171
     0
290
     0
174
     0
 93
        1
 44
0.0
173
     0
291
     0
 45
0.0
1001
ACAD
1000
AcDbSavedByObjectVersion
1070
     0
  0
VISUALSTYLE
  5
32
102
{ACAD_REACTORS
330
2A
102
}
330
2A
100
AcDbVisualStyle
  2
Basic
 70
     7
 71
     1
 72
     0
 73
     1
 90
        0
 40
-0.6
 41
-30.0
 62
     5
 63
     7
 74
     0
 91
        4
 64
     7
 65
   257
 75
     1
175
     1
 42
1.0
 92
        8
 66
     7
 43
1.0
 76
     1
 77
     6
 78
     2
 67
     7
 79
     5
170
     0
171
     0
290
     0
174
     0
 93
        1
 44
0.0
173
     0
291
     1
 45
0.0
1001
ACAD
1000
AcDbSavedByObjectVersion
1070
     0
  0
VISUALSTYLE
  5
36
102
{ACAD_REACTORS
330
2A
102
}
330
2A
100
AcDbVisualStyle
  2
Brighten
 70
    12
 71
     2
 72
     2
 73
     0
 90
        0
 40
-0.6
 41
-30.0
 62
     5
 63
     7
 74
     1
 91
        4
 64
     7
 65
   257
 75
     1
175
     1
 42
1.0
 92
        8
 66
     7
 43
1.0
 76
     1
 77
     6
 78
     2
 67
     7
 79
     5
170
     0
171
     0
290
     0
174
     0
 93
        1
 44
50.0
173
     0
291
     1
 45
0.0
1001
ACAD
1000
AcDbSavedByObjectVersion
1070
     0
  0
VISUALSTYLE
  5
3A
102
{ACAD_REACTORS
330
2A
102
}
330
2A
100
AcDbVisualStyle
  2
ColorChange
 70
    16
 71
     2
 72
     2
 73
     3
 90
        0
 40
-0.6
 41
-30.0
 62
     5
 63
     8
 74
     1
 91
        4
 64
     7
 65
   257
 75
     1
175
     1
 42
1.0
 92
        8
 66
     8
 43
1.0
 76
     1
 77
     6
 78
     2
 67
     7
 79
     5
170
     0
171
     0
290
     0
174
     0
 93
        1
 44
0.0
173
     0
291
     1
 45
0.0
1001
ACAD
1000
AcDbSavedByObjectVersion
1070
     0
  0
VISUALSTYLE
  5
34
102
{ACAD_REACTORS
330
2A
102
}
330
2A
100
AcDbVisualStyle
  2
Conceptual
 70
     9
 71
     3
 72
     2
 73
     0
 90
        0
 40
-0.6
 41
-30.0
 62
     5
 63
     7
 74
     2
 91
        2
 64
     7
 65
   257
 75
     1
175
     1
 42
40.0
 92
        8
 66
     7
 43
1.0
 76
     1
 77
     6
 78
     2
 67
     7
 79
     3
170
     0
171
     0
290
     0
174
     0
 93
        1
 44
0.0
173
     0
291
     0
 45
0.0
1001
ACAD
1000
AcDbSavedByObjectVersion
1070
     0
  0
VISUALSTYLE
  5
35
102
{ACAD_REACTORS
330
2A
102
}
330
2A
100
AcDbVisualStyle
  2
Dim
 70
    11
 71
     2
 72
     2
 73
     0
 90
        0
 40
-0.6
 41
-30.0
 62
     5
 63
     7
 74
     1
 91
        4
 64
     7
 65
   257
 75
     1
175
     1
 42
1.0
 92
        8
 66
     7
 43
1.0
 76
     1
 77
     6
 78
     2
 67
     7
 79
     5
170
     0
171
     0
290
     0
174
     0
 93
        1
 44
-50.0
173
     0
291
     1
 45
0.0
1001
ACAD
1000
AcDbSavedByObjectVersion
1070
     0
  0
VISUALSTYLE
  5
39
102
{ACAD_REACTORS
330
2A
102
}
330
2A
100
AcDbVisualStyle
  2
Facepattern
 70
    15
 71
     2
 72
     2
 73
     0
 90
        0
 40
-0.6
 41
-30.0
 62
     5
 63
     7
 74
     1
 91
        4
 64
     7
 65
   257
 75
     1
175
     1
 42
1.0
 92
        8
 66
     7
 43
1.0
 76
     1
 77
     6
 78
     2
 67
     7
 79
     5
170
     0
171
     0
290
     0
174
     0
 93
        1
 44
0.0
173
     0
291
     1
 45
0.0
1001
ACAD
1000
AcDbSavedByObjectVersion
1070
     0
  0
VISUALSTYLE
  5
2B
102
{ACAD_REACTORS
330
2A
102
}
330
2A
100
AcDbVisualStyle
  2
Flat
 70
     0
 71
     2
 72
     1
 73
     1
 90
        2
 40
-0.6
 41
30.0
 62
     5
 63
     7
 74
     0
 91
        4
 64
     7
 65
   257
 75
     1
175
     1
 42
1.0
 92
        8
 66
     7
 43
1.0
 76
     1
 77
     6
 78
     2
 67
     7
 79
     5
170
     0
171
     0
290
     0
174
     0
 93
       13
 44
0.0
173
     0
291
     1
 45
0.0
1001
ACAD
1000
AcDbSavedByObjectVersion
1070
     0
  0
VISUALSTYLE
  5
2C
102
{ACAD_REACTORS
330
2A
102
}
330
2A
100
AcDbVisualStyle
  2
FlatWithEdges
 70
     1
 71
     2
 72
     1
 73
     1
 90
        2
 40
-0.6
 41
30.0
 62
     5
 63
     7
 74
     1
 91
        4
 64
     7
 65
   257
 75
     1
175
     1
 42
1.0
 92
        0
 66
   257
 43
1.0
 76
     1
 77
     6
 78
     2
 67
     7
 79
     5
170
     0
171
     0
290
     0
174
     0
 93
       13
 44
0.0
173
     0
291
     1
 45
0.0
1001
ACAD
1000
AcDbSavedByObjectVersion
1070
     0
  0
VISUALSTYLE
  5
2D
102
{ACAD_REACTORS
330
2A
102
}
330
2A
100
AcDbVisualStyle
  2
Gouraud
 70
     2
 71
     2
 72
     2
 73
     1
 90
        2
 40
-0.6
 41
30.0
 62
     5
 63
     7
 74
     0
 91
        4
 64
     7
 65
   257
 75
     1
175
     1
 42
1.0
 92
        0
 66
     7
 43
1.0
 76
     1
 77
     6
 78
     2
 67
     7
 79
     5
170
     0
171
     0
290
     0
174
     0
 93
       13
 44
0.0
173
     0
291
     1
 45
0.0
1001
ACAD
1000
AcDbSavedByObjectVersion
1070
     0
  0
VISUALSTYLE
  5
2E
102
{ACAD_REACTORS
330
2A
102
}
330
2A
100
AcDbVisualStyle
  2
GouraudWithEdges
 70
     3
 71
     2
 72
     2
 73
     1
 90
        2
 40
-0.6
 41
30.0
 62
     5
 63
     7
 74
     1
 91
        4
 64
     7
 65
   257
 75
     1
175
     1
 42
1.0
 92
        0
 66
   257
 43
1.0
 76
     1
 77
     6
 78
     2
 67
     7
 79
     5
170
     0
171
     0
290
     0
174
     0
 93
       13
 44
0.0
173
     0
291
     1
 45
0.0
1001
ACAD
1000
AcDbSavedByObjectVersion
1070
     0
  0
VISUALSTYLE
  5
38
102
{ACAD_REACTORS
330
2A
102
}
330
2A
100
AcDbVisualStyle
  2
Linepattern
 70
    14
 71
     2
 72
     2
 73
     0
 90
        0
 40
-0.6
 41
-30.0
 62
     5
 63
     7
 74
     1
 91
        4
 64
     7
 65
   257
 75
     7
175
     7
 42
1.0
 92
        8
 66
     7
 43
1.0
 76
     1
 77
     6
 78
     2
 67
     7
 79
     5
170
     0
171
     0
290
     0
174
     0
 93
        1
 44
0.0
173
     0
291
     1
 45
0.0
1001
ACAD
1000
AcDbSavedByObjectVersion
1070
     0
  0
VISUALSTYLE
  5
33
102
{ACAD_REACTORS
330
2A
102
}
330
2A
100
AcDbVisualStyle
  2
Realistic
 70
     8
 71
     2
 72
     2
 73
     0
 90
        0
 40
-0.6
 41
-30.0
 62
     5
 63
     7
 74
     1
 91
        0
 64
     7
 65
   257
 75
     1
175
     1
 42
1.0
 92
        8
 66
     8
 43
1.0
 76
     1
 77
     6
 78
     2
 67
     7
 79
     5
170
     0
171
     0
290
     0
174
     0
 93
       13
 44
0.0
173
     0
291
     0
 45
0.0
1001
ACAD
1000
AcDbSavedByObjectVersion
1070
     0
  0
VISUALSTYLE
  5
37
102
{ACAD_REACTORS
330
2A
102
}
330
2A
100
AcDbVisualStyle
  2
Thicken
 70
    13
 71
     2
 72
     2
 73
     0
 90
        0
 40
-0.6
 41
-30.0
 62
     5
 63
     7
 74
     1
 91
        4
 64
     7
 65
   257
 75
     1
175
     1
 42
1.0
 92
       12
 66
     7
 43
1.0
 76
     1
 77
     6
 78
     2
 67
     7
 79
     5
170
     0
171
     0
290
     0
174
     0
 93
        1
 44
0.0
173
     0
291
     1
 45
0.0
1001
ACAD
1000
AcDbSavedByObjectVersion
1070
     0
  0
DICTIONARYVAR
  5
F0
102
{ACAD_REACTORS
330
ED
102
}
330
ED
100
DictionaryVariables
280
     0
  1
1:1
  0
DICTIONARYVAR
  5
F1
102
{ACAD_REACTORS
330
ED
102
}
330
ED
100
DictionaryVariables
280
     0
  1
2
  0
DICTIONARYVAR
  5
F2
102
{ACAD_REACTORS
330
ED
102
}
330
ED
100
DictionaryVariables
280
     0
  1
1
  0
ENDSEC
  0
EOF
