  0
SECTION
  2
HEADER
  9
$ACADVER
  1
AC1018
  9
$ACADMAINTVER
 70
     0
  9
$DWGCODEPAGE
  3
ANSI_1252
  9
$INSBASE
 10
0.0
 20
0.0
 30
0.0
  9
$EXTMIN
 10
-0.0000000000000018
 20
0.0
 30
0.0
  9
$EXTMAX
 10
26.13982
 20
43.18277
 30
0.0
  9
$LIMMIN
 10
0.0
 20
0.0
  9
$LIMMAX
 10
12.0
 20
9.0
  9
$ORTHOMODE
 70
     0
  9
$REGENMODE
 70
     1
  9
$FILLMODE
 70
     1
  9
$QTEXTMODE
 70
     0
  9
$MIRRTEXT
 70
     1
  9
$LTSCALE
 40
0.0393700787401575
  9
$ATTMODE
 70
     1
  9
$TEXTSIZE
 40
0.2
  9
$TRACEWID
 40
0.05
  9
$TEXTSTYLE
  7
Standard
  9
$CLAYER
  8
PLASMA
  9
$CELTYPE
  6
ByLayer
  9
$CECOLOR
 62
   256
  9
$CELTSCALE
 40
1.0
  9
$DISPSILH
 70
     0
  9
$DIMSCALE
 40
1.0
  9
$DIMASZ
 40
0.18
  9
$DIMEXO
 40
0.0625
  9
$DIMDLI
 40
0.38
  9
$DIMRND
 40
0.0
  9
$DIMDLE
 40
0.0
  9
$DIMEXE
 40
0.18
  9
$DIMTP
 40
0.0
  9
$DIMTM
 40
0.0
  9
$DIMTXT
 40
0.18
  9
$DIMCEN
 40
0.09
  9
$DIMTSZ
 40
0.0
  9
$DIMTOL
 70
     0
  9
$DIMLIM
 70
     0
  9
$DIMTIH
 70
     1
  9
$DIMTOH
 70
     1
  9
$DIMSE1
 70
     0
  9
$DIMSE2
 70
     0
  9
$DIMTAD
 70
     0
  9
$DIMZIN
 70
     0
  9
$DIMBLK
  1

  9
$DIMASO
 70
     1
  9
$DIMSHO
 70
     1
  9
$DIMPOST
  1

  9
$DIMAPOST
  1

  9
$DIMALT
 70
     0
  9
$DIMALTD
 70
     2
  9
$DIMALTF
 40
25.4
  9
$DIMLFAC
 40
1.0
  9
$DIMTOFL
 70
     0
  9
$DIMTVP
 40
0.0
  9
$DIMTIX
 70
     0
  9
$DIMSOXD
 70
     0
  9
$DIMSAH
 70
     0
  9
$DIMBLK1
  1

  9
$DIMBLK2
  1

  9
$DIMSTYLE
  2
Standard
  9
$DIMCLRD
 70
     0
  9
$DIMCLRE
 70
     0
  9
$DIMCLRT
 70
     0
  9
$DIMTFAC
 40
1.0
  9
$DIMGAP
 40
0.09
  9
$DIMJUST
 70
     0
  9
$DIMSD1
 70
     0
  9
$DIMSD2
 70
     0
  9
$DIMTOLJ
 70
     1
  9
$DIMTZIN
 70
     0
  9
$DIMALTZ
 70
     0
  9
$DIMALTTZ
 70
     0
  9
$DIMUPT
 70
     0
  9
$DIMDEC
 70
     4
  9
$DIMTDEC
 70
     4
  9
$DIMALTU
 70
     2
  9
$DIMALTTD
 70
     2
  9
$DIMTXSTY
  7
Standard
  9
$DIMAUNIT
 70
     0
  9
$DIMADEC
 70
     0
  9
$DIMALTRND
 40
0.0
  9
$DIMAZIN
 70
     0
  9
$DIMDSEP
 70
    46
  9
$DIMATFIT
 70
     3
  9
$DIMFRAC
 70
     0
  9
$DIMLDRBLK
  1

  9
$DIMLUNIT
 70
     2
  9
$DIMLWD
 70
    -2
  9
$DIMLWE
 70
    -2
  9
$DIMTMOVE
 70
     2
  9
$LUNITS
 70
     2
  9
$LUPREC
 70
     3
  9
$SKETCHINC
 40
0.1
  9
$FILLETRAD
 40
0.5
  9
$AUNITS
 70
     0
  9
$AUPREC
 70
     0
  9
$MENU
  1
.
  9
$ELEVATION
 40
0.0
  9
$PELEVATION
 40
0.0
  9
$THICKNESS
 40
0.0
  9
$LIMCHECK
 70
     0
  9
$CHAMFERA
 40
0.5
  9
$CHAMFERB
 40
0.5
  9
$CHAMFERC
 40
1.0
  9
$CHAMFERD
 40
0.0
  9
$SKPOLY
 70
     0
  9
$TDCREATE
 40
2455360.687304537
  9
$TDUCREATE
 40
2455360.978971204
  9
$TDUPDATE
 40
2455360.687304548
  9
$TDUUPDATE
 40
2455360.978971215
  9
$TDINDWG
 40
0.0000000116
  9
$TDUSRTIMER
 40
0.0000000116
  9
$USRTIMER
 70
     1
  9
$ANGBASE
 50
0.0
  9
$ANGDIR
 70
     0
  9
$PDMODE
 70
     0
  9
$PDSIZE
 40
0.0
  9
$PLINEWID
 40
0.0
  9
$SPLFRAME
 70
     0
  9
$SPLINETYPE
 70
     6
  9
$SPLINESEGS
 70
     8
  9
$HANDSEED
  5
96
  9
$SURFTAB1
 70
     6
  9
$SURFTAB2
 70
     6
  9
$SURFTYPE
 70
     6
  9
$SURFU
 70
     6
  9
$SURFV
 70
     6
  9
$UCSBASE
  2

  9
$UCSNAME
  2

  9
$UCSORG
 10
0.0
 20
0.0
 30
0.0
  9
$UCSXDIR
 10
1.0
 20
0.0
 30
0.0
  9
$UCSYDIR
 10
0.0
 20
1.0
 30
0.0
  9
$UCSORTHOREF
  2

  9
$UCSORTHOVIEW
 70
     0
  9
$UCSORGTOP
 10
0.0
 20
0.0
 30
0.0
  9
$UCSORGBOTTOM
 10
0.0
 20
0.0
 30
0.0
  9
$UCSORGLEFT
 10
0.0
 20
0.0
 30
0.0
  9
$UCSORGRIGHT
 10
0.0
 20
0.0
 30
0.0
  9
$UCSORGFRONT
 10
0.0
 20
0.0
 30
0.0
  9
$UCSORGBACK
 10
0.0
 20
0.0
 30
0.0
  9
$PUCSBASE
  2

  9
$PUCSNAME
  2

  9
$PUCSORG
 10
0.0
 20
0.0
 30
0.0
  9
$PUCSXDIR
 10
1.0
 20
0.0
 30
0.0
  9
$PUCSYDIR
 10
0.0
 20
1.0
 30
0.0
  9
$PUCSORTHOREF
  2

  9
$PUCSORTHOVIEW
 70
     0
  9
$PUCSORGTOP
 10
0.0
 20
0.0
 30
0.0
  9
$PUCSORGBOTTOM
 10
0.0
 20
0.0
 30
0.0
  9
$PUCSORGLEFT
 10
0.0
 20
0.0
 30
0.0
  9
$PUCSORGRIGHT
 10
0.0
 20
0.0
 30
0.0
  9
$PUCSORGFRONT
 10
0.0
 20
0.0
 30
0.0
  9
$PUCSORGBACK
 10
0.0
 20
0.0
 30
0.0
  9
$USERI1
 70
     0
  9
$USERI2
 70
     0
  9
$USERI3
 70
     0
  9
$USERI4
 70
     0
  9
$USERI5
 70
     0
  9
$USERR1
 40
0.0
  9
$USERR2
 40
0.0
  9
$USERR3
 40
0.0
  9
$USERR4
 40
0.0
  9
$USERR5
 40
0.0
  9
$WORLDVIEW
 70
     1
  9
$SHADEDGE
 70
     3
  9
$SHADEDIF
 70
    70
  9
$TILEMODE
 70
     0
  9
$MAXACTVP
 70
    64
  9
$PINSBASE
 10
0.0
 20
0.0
 30
0.0
  9
$PLIMCHECK
 70
     0
  9
$PEXTMIN
 10
0.0
 20
0.0
 30
0.0
  9
$PEXTMAX
 10
0.0
 20
0.0
 30
0.0
  9
$PLIMMIN
 10
0.0
 20
0.0
  9
$PLIMMAX
 10
12.0
 20
9.0
  9
$UNITMODE
 70
     0
  9
$VISRETAIN
 70
     1
  9
$PLINEGEN
 70
     0
  9
$PSLTSCALE
 70
     1
  9
$TREEDEPTH
 70
  3020
  9
$CMLSTYLE
  2
Standard
  9
$CMLJUST
 70
     0
  9
$CMLSCALE
 40
1.0
  9
$PROXYGRAPHICS
 70
     1
  9
$MEASUREMENT
 70
     0
  9
$CELWEIGHT
370
    -1
  9
$ENDCAPS
280
     0
  9
$JOINSTYLE
280
     0
  9
$LWDISPLAY
290
     0
  9
$INSUNITS
 70
     1
  9
$HYPERLINKBASE
  1

  9
$STYLESHEET
  1

  9
$XEDIT
290
     1
  9
$CEPSNTYPE
380
     0
  9
$PSTYLEMODE
290
     1
  9
$FINGERPRINTGUID
  2
{CF39007B-C63F-4D2B-AFD9-56A9F6E59926}
  9
$VERSIONGUID
  2
{FAEB1C32-E019-11D5-929B-00C0DF256EC4}
  9
$EXTNAMES
290
     1
  9
$PSVPSCALE
 40
0.0
  9
$OLESTARTUP
290
     0
  9
$SORTENTS
280
   127
  9
$INDEXCTL
280
     0
  9
$HIDETEXT
280
     1
  9
$XCLIPFRAME
290
     0
  9
$HALOGAP
280
     0
  9
$OBSCOLOR
 70
   257
  9
$OBSLTYPE
280
     0
  9
$INTERSECTIONDISPLAY
280
     0
  9
$INTERSECTIONCOLOR
 70
   257
  9
$DIMASSOC
280
     2
  9
$PROJECTNAME
  1

  0
ENDSEC
  0
SECTION
  2
CLASSES
  0
CLASS
  1
ACDBDICTIONARYWDFLT
  2
AcDbDictionaryWithDefault
  3
ObjectDBX Classes
 90
        0
 91
        4
280
     0
281
     0
  0
CLASS
  1
VISUALSTYLE
  2
AcDbVisualStyle
  3
ObjectDBX Classes
 90
     4095
 91
        4
280
     0
281
     0
  0
CLASS
  1
SCALE
  2
AcDbScale
  3
ObjectDBX Classes
 90
     1153
 91
        4
280
     0
281
     0
  0
CLASS
  1
DICTIONARYVAR
  2
AcDbDictionaryVar
  3
ObjectDBX Classes
 90
        0
 91
        4
280
     0
281
     0
  0
ENDSEC
  0
SECTION
  2
TABLES
  0
TABLE
  2
VPORT
  5
8
330
0
100
AcDbSymbolTable
 70
     1
  0
VPORT
  5
29
330
8
100
AcDbSymbolTableRecord
100
AcDbViewportTableRecord
  2
*Active
 70
     0
 10
0.0
 20
0.0
 11
1.0
 21
1.0
 12
13.06991
 22
21.591385
 13
0.0
 23
0.0
 14
0.5
 24
0.5
 15
0.5
 25
0.5
 16
0.0
 26
0.0
 36
1.0
 17
0.0
 27
0.0
 37
0.0
 40
44.0464254
 41
0.6053298572555675
 42
50.0
 43
0.0
 44
0.0
 50
0.0
 51
0.0
 71
     0
 72
   100
 73
     1
 74
     3
 75
     0
 76
     0
 77
     0
 78
     0
281
     0
 65
     1
110
0.0
120
0.0
130
0.0
111
1.0
121
0.0
131
0.0
112
0.0
122
1.0
132
0.0
 79
     0
146
0.0
  0
ENDTAB
  0
TABLE
  2
LTYPE
  5
5
330
0
100
AcDbSymbolTable
 70
     1
  0
LTYPE
  5
14
330
5
100
AcDbSymbolTableRecord
100
AcDbLinetypeTableRecord
  2
ByBlock
 70
     0
  3

 72
    65
 73
     0
 40
0.0
  0
LTYPE
  5
15
330
5
100
AcDbSymbolTableRecord
100
AcDbLinetypeTableRecord
  2
ByLayer
 70
     0
  3

 72
    65
 73
     0
 40
0.0
  0
LTYPE
  5
16
330
5
100
AcDbSymbolTableRecord
100
AcDbLinetypeTableRecord
  2
Continuous
 70
     0
  3
Solid line
 72
    65
 73
     0
 40
0.0
  0
ENDTAB
  0
TABLE
  2
LAYER
  5
2
330
0
100
AcDbSymbolTable
 70
     2
  0
LAYER
  5
10
330
2
100
AcDbSymbolTableRecord
100
AcDbLayerTableRecord
  2
0
 70
     0
 62
     7
  6
Continuous
370
    -3
390
F
  0
LAYER
  5
3B
330
2
100
AcDbSymbolTableRecord
100
AcDbLayerTableRecord
  2
PLASMA
 70
     0
 62
     7
  6
Continuous
370
    -3
390
F
  0
ENDTAB
  0
TABLE
  2
STYLE
  5
3
330
0
100
AcDbSymbolTable
 70
     1
  0
STYLE
  5
11
330
3
100
AcDbSymbolTableRecord
100
AcDbTextStyleTableRecord
  2
Standard
 70
     0
 40
0.0
 41
1.0
 50
0.0
 71
     0
 42
0.2
  3
txt
  4

  0
ENDTAB
  0
TABLE
  2
VIEW
  5
6
330
0
100
AcDbSymbolTable
 70
     0
  0
ENDTAB
  0
TABLE
  2
UCS
  5
7
330
0
100
AcDbSymbolTable
 70
     0
  0
ENDTAB
  0
TABLE
  2
APPID
  5
9
330
0
100
AcDbSymbolTable
 70
     1
  0
APPID
  5
12
330
9
100
AcDbSymbolTableRecord
100
AcDbRegAppTableRecord
  2
ACAD
 70
     0
  0
ENDTAB
  0
TABLE
  2
DIMSTYLE
  5
A
330
0
100
AcDbSymbolTable
 70
     1
100
AcDbDimStyleTable
  0
DIMSTYLE
105
27
330
A
100
AcDbSymbolTableRecord
100
AcDbDimStyleTableRecord
  2
Standard
 70
     0
340
11
  0
ENDTAB
  0
TABLE
  2
BLOCK_RECORD
  5
1
330
0
100
AcDbSymbolTable
 70
     3
  0
BLOCK_RECORD
  5
1F
330
1
100
AcDbSymbolTableRecord
100
AcDbBlockTableRecord
  2
*Model_Space
340
22
  0
BLOCK_RECORD
  5
6B
330
1
100
AcDbSymbolTableRecord
100
AcDbBlockTableRecord
  2
*Paper_Space
340
6C
  0
BLOCK_RECORD
  5
23
330
1
100
AcDbSymbolTableRecord
100
AcDbBlockTableRecord
  2
*Paper_Space0
340
26
  0
BLOCK_RECORD
  5
1B
330
1
100
AcDbSymbolTableRecord
100
AcDbBlockTableRecord
  2
*Paper_Space1
340
1E
  0
BLOCK_RECORD
  5
66
330
1
100
AcDbSymbolTableRecord
100
AcDbBlockTableRecord
  2
*Paper_Space2
340
67
  0
ENDTAB
  0
ENDSEC
  0
SECTION
  2
BLOCKS
  0
BLOCK
  5
20
330
1F
100
AcDbEntity
  8
0
100
AcDbBlockBegin
  2
*Model_Space
 70
     0
 10
0.0
 20
0.0
 30
0.0
  3
*Model_Space
  1

  0
ENDBLK
  5
21
330
1F
100
AcDbEntity
  8
0
100
AcDbBlockEnd
  0
BLOCK
  5
6D
330
6B
100
AcDbEntity
 67
     1
  8
0
100
AcDbBlockBegin
  2
*Paper_Space
 70
     0
 10
0.0
 20
0.0
 30
0.0
  3
*Paper_Space
  1

  0
ENDBLK
  5
6E
330
6B
100
AcDbEntity
 67
     1
  8
0
100
AcDbBlockEnd
  0
BLOCK
  5
24
330
23
100
AcDbEntity
  8
0
100
AcDbBlockBegin
  2
*Paper_Space0
 70
     0
 10
0.0
 20
0.0
 30
0.0
  3
*Paper_Space0
  1

  0
ENDBLK
  5
25
330
23
100
AcDbEntity
  8
0
100
AcDbBlockEnd
  0
BLOCK
  5
1C
330
1B
100
AcDbEntity
  8
0
100
AcDbBlockBegin
  2
*Paper_Space1
 70
     0
 10
0.0
 20
0.0
 30
0.0
  3
*Paper_Space1
  1

  0
ENDBLK
  5
1D
330
1B
100
AcDbEntity
  8
0
100
AcDbBlockEnd
  0
BLOCK
  5
68
330
66
100
AcDbEntity
  8
0
100
AcDbBlockBegin
  2
*Paper_Space2
 70
     0
 10
0.0
 20
0.0
 30
0.0
  3
*Paper_Space2
  1

  0
VIEWPORT
  5
6A
330
66
100
AcDbEntity
  8
0
100
AcDbViewport
 10
6.0
 20
4.5
 30
0.0
 40
12.696
 41
9.522
 68
     1
 69
     1
 12
6.0
 22
4.5
 13
0.0
 23
0.0
 14
0.5
 24
0.5
 15
0.5
 25
0.5
 16
0.0
 26
0.0
 36
1.0
 17
0.0
 27
0.0
 37
0.0
 42
50.0
 43
0.0
 44
0.0
 45
9.522
 50
0.0
 51
0.0
 72
   100
 90
   557152
  1

281
     0
 71
     1
 74
     0
110
0.0
120
0.0
130
0.0
111
1.0
121
0.0
131
0.0
112
0.0
122
1.0
132
0.0
 79
     0
146
0.0
170
     0
  0
ENDBLK
  5
69
330
66
100
AcDbEntity
  8
0
100
AcDbBlockEnd
  0
ENDSEC
  0
SECTION
  2
ENTITIES
  0
SPLINE
  5
3C
330
1F
100
AcDbEntity
  8
PLASMA
100
AcDbSpline
210
0.0
220
0.0
230
1.0
 70
    24
 71
     3
 72
     8
 73
     4
 74
     0
 42
0.0000000001
 43
0.0000000001
 40
0.0
 40
0.0
 40
0.0
 40
0.0
 40
1.0
 40
1.0
 40
1.0
 40
1.0
 10
17.18277
 20
32.0
 30
0.0
 10
17.18277
 20
33.72759
 30
0.0
 10
17.18277
 20
35.45518
 30
0.0
 10
17.18277
 20
37.18277
 30
0.0
  0
SPLINE
  5
3D
330
1F
100
AcDbEntity
  8
PLASMA
100
AcDbSpline
210
0.0
220
0.0
230
1.0
 70
    24
 71
     2
 72
     6
 73
     3
 74
     0
 42
0.0000000001
 43
0.0000000001
 40
0.0
 40
0.0
 40
0.0
 40
1.0
 40
1.0
 40
1.0
 10
17.18277
 20
37.18277
 30
0.0
 10
14.59138500000001
 20
37.18277
 30
0.0
 10
12.00000000000001
 20
37.18277
 30
0.0
  0
SPLINE
  5
3E
330
1F
100
AcDbEntity
  8
PLASMA
100
AcDbSpline
210
0.0
220
0.0
230
1.0
 70
    24
 71
     3
 72
     8
 73
     4
 74
     0
 42
0.0000000001
 43
0.0000000001
 40
-1.0
 40
-1.0
 40
-1.0
 40
-1.0
 40
0.0
 40
0.0
 40
0.0
 40
0.0
 10
12.00000000000001
 20
37.18277
 30
0.0
 10
12.0
 20
35.45518
 30
0.0
 10
12.0
 20
33.72759
 30
0.0
 10
12.0
 20
32.0
 30
0.0
  0
SPLINE
  5
3F
330
1F
100
AcDbEntity
  8
PLASMA
100
AcDbSpline
210
0.0
220
0.0
230
1.0
 70
    24
 71
     2
 72
     6
 73
     3
 74
     0
 42
0.0000000001
 43
0.0000000001
 40
-1.0
 40
-1.0
 40
-1.0
 40
0.0
 40
0.0
 40
0.0
 10
12.0
 20
32.0
 30
0.0
 10
14.591385
 20
32.0
 30
0.0
 10
17.18277
 20
32.0
 30
0.0
  0
SPLINE
  5
40
330
1F
100
AcDbEntity
  8
PLASMA
100
AcDbSpline
210
0.0
220
0.0
230
1.0
 70
    11
 71
     3
 72
    60
 73
    56
 74
     0
 42
0.0000000001
 43
0.0000000001
 40
0.0
 40
0.0
 40
0.0
 40
0.0
 40
0.063079008832581
 40
0.063079008832581
 40
0.1250159182181429
 40
0.1250159182181429
 40
0.1880159619658918
 40
0.1880159619658918
 40
0.2500763281722807
 40
0.2500763281722807
 40
0.3128608386871067
 40
0.3128608386871067
 40
0.3439761027821627
 40
0.3439761027821627
 40
0.375005614229573
 40
0.375005614229573
 40
0.4062141507297718
 40
0.4062141507297718
 40
0.437415969085625
 40
0.437415969085625
 40
0.4686312044313947
 40
0.4686312044313947
 40
0.4999207409092416
 40
0.4999207409092416
 40
0.5621155503004378
 40
0.5621155503004378
 40
0.6249682914023016
 40
0.6249682914023016
 40
0.6869842706173227
 40
0.6869842706173227
 40
0.750028070234313
 40
0.750028070234313
 40
0.8119776925985621
 40
0.8119776925985621
 40
0.8433306856575485
 40
0.8433306856575485
 40
0.8749962138300457
 40
0.8749962138300457
 40
0.9058063534918365
 40
0.9058063534918365
 40
0.9369078988402755
 40
0.9369078988402755
 40
1.0
 40
1.0
 40
1.0
 40
2.0
 40
2.0
 40
2.0
 40
3.0
 40
3.0
 40
3.0
 40
4.0
 40
4.0
 40
4.0
 40
5.0
 40
5.0
 40
5.0
 40
5.0
 10
5.182770000000005
 20
35.25141629469836
 30
0.0
 10
5.123854172910441
 20
35.25287812216241
 30
0.0
 10
5.065359312314392
 20
35.25714466086915
 30
0.0
 10
4.949439269881019
 20
35.27154935849882
 30
0.0
 10
4.892731117794067
 20
35.28148761376059
 30
0.0
 10
4.778954891115248
 20
35.30766515231609
 30
0.0
 10
4.722706430794055
 20
35.32381720494695
 30
0.0
 10
4.612362063306914
 20
35.36234130762874
 30
0.0
 10
4.559084915523261
 20
35.38432024851244
 30
0.0
 10
4.453966170328755
 20
35.43496992383934
 30
0.0
 10
4.403034454536066
 20
35.46328446497346
 30
0.0
 10
4.329028424039187
 20
35.51046956217071
 30
0.0
 10
4.305025907168382
 20
35.52680038284599
 30
0.0
 10
4.258010516623415
 20
35.56091360692993
 30
0.0
 10
4.235101417048192
 20
35.57861460837205
 30
0.0
 10
4.190164272115396
 20
35.61555998740211
 30
0.0
 10
4.168246745053736
 20
35.6347278464829
 30
0.0
 10
4.125531992701099
 20
35.67445879656963
 30
0.0
 10
4.104834020728145
 20
35.69492858324523
 30
0.0
 10
4.064622635924728
 20
35.73719981134629
 30
0.0
 10
4.045204568939695
 20
35.75890437495414
 30
0.0
 10
4.00759623908138
 20
35.80361445041888
 30
0.0
 10
3.989495997193561
 20
35.82651852148881
 30
0.0
 10
3.93741517091204
 20
35.89668230092268
 30
0.0
 10
3.905861505759741
 20
35.9450200508181
 30
0.0
 10
3.847811149977968
 20
36.04645973321591
 30
0.0
 10
3.821883470990532
 20
36.09873060532286
 30
0.0
 10
3.77606390050283
 20
36.20605690859908
 30
0.0
 10
3.75646639434833
 20
36.26022714223184
 30
0.0
 10
3.722662396225154
 20
36.37209626454683
 30
0.0
 10
3.708810588240606
 20
36.42901249747571
 30
0.0
 10
3.687100517886385
 20
36.54376769438468
 30
0.0
 10
3.679293382917383
 20
36.60083445709664
 30
0.0
 10
3.671647399930496
 20
36.68766994191481
 30
0.0
 10
3.669794236156005
 20
36.71686970606075
 30
0.0
 10
3.667464087493748
 20
36.77570037053513
 30
0.0
 10
3.667003855820145
 20
36.80524796506279
 30
0.0
 10
3.6674534595933
 20
36.86361517543232
 30
0.0
 10
3.668327411034475
 20
36.89235778251064
 30
0.0
 10
3.671363716948484
 20
36.95011957179941
 30
0.0
 10
3.673534265722285
 20
36.97906698645394
 30
0.0
 10
3.68201281244054
 20
37.06665797501333
 30
0.0
 10
3.690235932810705
 20
37.1248056021696
 30
0.0
 10
3.700915241757961
 20
37.18277
 30
0.0
 10
2.467276827838639
 20
37.18277
 30
0.0
 10
1.233638413919319
 20
37.18277
 30
0.0
 10
0.0
 20
37.18277
 30
0.0
 10
0.0
 20
35.45518
 30
0.0
 10
0.0
 20
33.72759
 30
0.0
 10
0.0
 20
32.0
 30
0.0
 10
1.727589999999999
 20
32.0
 30
0.0
 10
3.455180000000002
 20
32.0
 30
0.0
 10
5.182770000000005
 20
32.0
 30
0.0
 10
5.182769999999998
 20
33.08380543156612
 30
0.0
 10
5.182770000000005
 20
34.16761086313224
 30
0.0
 10
5.182769999999998
 20
35.25141629469836
 30
0.0
  0
SPLINE
  5
41
330
1F
100
AcDbEntity
  8
PLASMA
100
AcDbSpline
210
0.0
220
0.0
230
1.0
 70
    24
 71
     3
 72
     8
 73
     4
 74
     0
 42
0.0000000001
 43
0.0000000001
 40
0.0
 40
0.0
 40
0.0
 40
0.0
 40
1.0
 40
1.0
 40
1.0
 40
1.0
 10
17.18277
 20
38.0
 30
0.0
 10
17.18277
 20
39.72759
 30
0.0
 10
17.18277
 20
41.45518
 30
0.0
 10
17.18277
 20
43.18277
 30
0.0
  0
SPLINE
  5
42
330
1F
100
AcDbEntity
  8
PLASMA
100
AcDbSpline
210
0.0
220
0.0
230
1.0
 70
    24
 71
     2
 72
     6
 73
     3
 74
     0
 42
0.0000000001
 43
0.0000000001
 40
0.0
 40
0.0
 40
0.0
 40
1.0
 40
1.0
 40
1.0
 10
17.18277
 20
43.18277
 30
0.0
 10
14.59138500000001
 20
43.18277
 30
0.0
 10
12.00000000000001
 20
43.18277
 30
0.0
  0
SPLINE
  5
43
330
1F
100
AcDbEntity
  8
PLASMA
100
AcDbSpline
210
0.0
220
0.0
230
1.0
 70
    24
 71
     3
 72
     8
 73
     4
 74
     0
 42
0.0000000001
 43
0.0000000001
 40
-1.0
 40
-1.0
 40
-1.0
 40
-1.0
 40
0.0
 40
0.0
 40
0.0
 40
0.0
 10
12.00000000000001
 20
43.18277
 30
0.0
 10
12.00000000000001
 20
41.45518000000001
 30
0.0
 10
12.0
 20
39.72759000000001
 30
0.0
 10
12.0
 20
38.0
 30
0.0
  0
SPLINE
  5
44
330
1F
100
AcDbEntity
  8
PLASMA
100
AcDbSpline
210
0.0
220
0.0
230
1.0
 70
    24
 71
     2
 72
     6
 73
     3
 74
     0
 42
0.0000000001
 43
0.0000000001
 40
-1.0
 40
-1.0
 40
-1.0
 40
0.0
 40
0.0
 40
0.0
 10
12.0
 20
38.0
 30
0.0
 10
14.591385
 20
38.0
 30
0.0
 10
17.18277
 20
38.0
 30
0.0
  0
SPLINE
  5
45
330
1F
100
AcDbEntity
  8
PLASMA
100
AcDbSpline
210
0.0
220
0.0
230
1.0
 70
    11
 71
     3
 72
    44
 73
    40
 74
     0
 42
0.0000000001
 43
0.0000000001
 40
0.0
 40
0.0
 40
0.0
 40
0.0
 40
0.2490973916394508
 40
0.2490973916394508
 40
0.3110968542964022
 40
0.3110968542964022
 40
0.3425054807487916
 40
0.3425054807487916
 40
0.374173906009278
 40
0.374173906009278
 40
0.436349653597826
 40
0.436349653597826
 40
0.4677443593018873
 40
0.4677443593018873
 40
0.4993315217969935
 40
0.4993315217969935
 40
0.561591272398932
 40
0.561591272398932
 40
0.6244160345496109
 40
0.6244160345496109
 40
0.6868123786446383
 40
0.6868123786446383
 40
0.749546778374196
 40
0.749546778374196
 40
0.8748149500723583
 40
0.8748149500723583
 40
1.0
 40
1.0
 40
1.0
 40
2.0
 40
2.0
 40
2.0
 40
3.0
 40
3.0
 40
3.0
 40
4.0
 40
4.0
 40
4.0
 40
5.0
 40
5.0
 40
5.0
 40
5.0
 10
8.5653774455184
 20
43.18277
 30
0.0
 10
8.38143620534781
 20
43.00376728196841
 30
0.0
 10
8.183756246203245
 20
42.83394928305283
 30
0.0
 10
7.931429478401277
 20
42.63656255963905
 30
0.0
 10
7.880702886911301
 20
42.59782033577446
 30
0.0
 10
7.803621584734813
 20
42.54028105458966
 30
0.0
 10
7.777597014721081
 20
42.52107930489603
 30
0.0
 10
7.725120906871979
 20
42.48279892396441
 30
0.0
 10
7.698671647701275
 20
42.46372536235106
 30
0.0
 10
7.619987536406242
 20
42.40762116509835
 30
0.0
 10
7.567479290040325
 20
42.37100772993234
 30
0.0
 10
7.487888066225445
 20
42.31669698602609
 30
0.0
 10
7.461092365430993
 20
42.29861215894425
 30
0.0
 10
7.407153080236377
 20
42.26259925207955
 30
0.0
 10
7.380011875079298
 20
42.24467497115955
 30
0.0
 10
7.299107154756079
 20
42.1918187610612
 30
0.0
 10
7.245103502440202
 20
42.15728556360781
 30
0.0
 10
7.135931136736502
 20
42.0889278960863
 30
0.0
 10
7.080781680238509
 20
42.05512802032938
 30
0.0
 10
6.970214205263062
 20
41.98877732360837
 30
0.0
 10
6.914823929040708
 20
41.9562349223629
 30
0.0
 10
6.803131600129404
 20
41.89198240569888
 30
0.0
 10
6.746850005081036
 20
41.86029113085365
 30
0.0
 10
6.577303741293733
 20
41.7668346968866
 30
0.0
 10
6.46329783396871
 20
41.70665947875882
 30
0.0
 10
6.233094167843241
 20
41.59037583359475
 30
0.0
 10
6.117082496226374
 20
41.53436108687798
 30
0.0
 10
6.0
 20
41.48042012790698
 30
0.0
 10
6.0
 20
40.32028008527132
 30
0.0
 10
6.0
 20
39.16014004263566
 30
0.0
 10
6.0
 20
38.0
 30
0.0
 10
7.727589999999999
 20
38.0
 30
0.0
 10
9.455179999999999
 20
38.0
 30
0.0
 10
11.18277
 20
38.0
 30
0.0
 10
11.18277
 20
39.72759
 30
0.0
 10
11.18277
 20
41.45518
 30
0.0
 10
11.18277
 20
43.18277
 30
0.0
 10
10.3103058151728
 20
43.18277
 30
0.0
 10
9.437841630345602
 20
43.18277
 30
0.0
 10
8.5653774455184
 20
43.18277
 30
0.0
  0
SPLINE
  5
46
330
1F
100
AcDbEntity
  8
PLASMA
100
AcDbSpline
210
0.0
220
0.0
230
1.0
 70
    11
 71
     3
 72
    26
 73
    22
 74
     0
 42
0.0000000001
 43
0.0000000001
 40
0.0
 40
0.0
 40
0.0
 40
0.0
 40
1.0
 40
1.0
 40
1.0
 40
2.0
 40
2.0
 40
2.0
 40
3.0
 40
3.0
 40
3.0
 40
4.0
 40
4.0
 40
4.0
 40
5.0
 40
5.0
 40
5.0
 40
6.0
 40
6.0
 40
6.0
 40
7.0
 40
7.0
 40
7.0
 40
7.0
 10
7.621176660045261
 20
2.847126264481721
 30
0.0
 10
7.223811187124395
 20
1.898084176321149
 30
0.0
 10
6.826445714203528
 20
0.9490420881605743
 30
0.0
 10
6.42908024128266
 20
0.0
 30
0.0
 10
6.999326827521773
 20
0.0
 30
0.0
 10
7.569573413760886
 20
0.0
 30
0.0
 10
8.13982
 20
0.0
 30
0.0
 10
8.139820000000004
 20
2.713273333333337
 30
0.0
 10
8.139819999999999
 20
5.426546666666665
 30
0.0
 10
8.139819999999999
 20
8.13982
 30
0.0
 10
5.426546666666666
 20
8.139819999999997
 30
0.0
 10
2.713273333333336
 20
8.139820000000004
 30
0.0
 10
0.0000000000000021
 20
8.139820000000002
 30
0.0
 10
0.0000000000000004
 20
7.154386906538996
 30
0.0
 10
0.0
 20
6.168953813077987
 30
0.0
 10
0.0000000000000001
 20
5.183520719616983
 30
0.0
 10
2.452956012783293
 20
4.563517869230235
 30
0.0
 10
4.905912025566588
 20
3.943515018843488
 30
0.0
 10
7.358868038349883
 20
3.323512168456741
 30
0.0
 10
7.446304245581676
 20
3.164716867131734
 30
0.0
 10
7.533740452813467
 20
3.005921565806728
 30
0.0
 10
7.621176660045261
 20
2.847126264481721
 30
0.0
  0
SPLINE
  5
47
330
1F
100
AcDbEntity
  8
PLASMA
100
AcDbSpline
210
0.0
220
0.0
230
1.0
 70
    11
 71
     3
 72
    23
 73
    19
 74
     0
 42
0.0000000001
 43
0.0000000001
 40
0.0
 40
0.0
 40
0.0
 40
0.0
 40
1.0
 40
1.0
 40
1.0
 40
2.0
 40
2.0
 40
2.0
 40
3.0
 40
3.0
 40
3.0
 40
4.0
 40
4.0
 40
4.0
 40
5.0
 40
5.0
 40
5.0
 40
6.0
 40
6.0
 40
6.0
 40
6.0
 10
20.06833917749862
 20
0.0
 30
0.0
 10
20.77779090871655
 20
1.779553175657746
 30
0.0
 10
21.48724263993447
 20
3.559106351315494
 30
0.0
 10
22.1966943711524
 20
5.33865952697324
 30
0.0
 10
23.51106958076826
 20
4.657656881786133
 30
0.0
 10
24.82544479038413
 20
3.976654236599027
 30
0.0
 10
26.13982
 20
3.295651591411922
 30
0.0
 10
26.13982
 20
4.910374394274614
 30
0.0
 10
26.13982
 20
6.525097197137306
 30
0.0
 10
26.13982
 20
8.13982
 30
0.0
 10
23.42654666666667
 20
8.139820000000002
 30
0.0
 10
20.71327333333333
 20
8.139819999999997
 30
0.0
 10
18.0
 20
8.139819999999999
 30
0.0
 10
17.99999999999999
 20
5.426546666666667
 30
0.0
 10
18.0
 20
2.713273333333333
 30
0.0
 10
18.0
 20
0.0
 30
0.0
 10
18.68944639249954
 20
0.0
 30
0.0
 10
19.37889278499908
 20
0.0
 30
0.0
 10
20.06833917749862
 20
0.0
 30
0.0
  0
SPLINE
  5
48
330
1F
100
AcDbEntity
  8
PLASMA
100
AcDbSpline
210
0.0
220
0.0
230
1.0
 70
    11
 71
     3
 72
    26
 73
    22
 74
     0
 42
0.0000000001
 43
0.0000000001
 40
0.0
 40
0.0
 40
0.0
 40
0.0
 40
1.0
 40
1.0
 40
1.0
 40
2.0
 40
2.0
 40
2.0
 40
3.0
 40
3.0
 40
3.0
 40
4.0
 40
4.0
 40
4.0
 40
5.0
 40
5.0
 40
5.0
 40
6.0
 40
6.0
 40
6.0
 40
7.0
 40
7.0
 40
7.0
 40
7.0
 10
7.805775462097603
 20
13.97294966480234
 30
0.0
 10
7.917123641398403
 20
13.86692904381719
 30
0.0
 10
8.028471820699203
 20
13.76090842283203
 30
0.0
 10
8.139820000000002
 20
13.65488780184688
 30
0.0
 10
8.139820000000002
 20
14.81653186789792
 30
0.0
 10
8.139820000000002
 20
15.97817593394896
 30
0.0
 10
8.13982
 20
17.13982
 30
0.0
 10
5.426546666666669
 20
17.13982
 30
0.0
 10
2.713273333333337
 20
17.13982
 30
0.0
 10
0.0000000000000054
 20
17.13982
 30
0.0
 10
-0.0000000000000056
 20
14.42654666666666
 30
0.0
 10
0.0000000000000058
 20
11.71327333333333
 30
0.0
 10
0.0
 20
9.0
 30
0.0
 10
1.648677348401807
 20
9.0
 30
0.0
 10
3.297354696803613
 20
9.0
 30
0.0
 10
4.946032045205421
 20
9.0
 30
0.0
 10
4.624504349998349
 20
10.12702951406032
 30
0.0
 10
4.302976654791276
 20
11.25405902812064
 30
0.0
 10
3.981448959584203
 20
12.38108854218096
 30
0.0
 10
5.256224460422002
 20
12.91170891638809
 30
0.0
 10
6.530999961259803
 20
13.44232929059521
 30
0.0
 10
7.805775462097603
 20
13.97294966480234
 30
0.0
  0
SPLINE
  5
49
330
1F
100
AcDbEntity
  8
PLASMA
100
AcDbSpline
210
0.0
220
0.0
230
1.0
 70
    24
 71
     3
 72
     8
 73
     4
 74
     0
 42
0.0000000001
 43
0.0000000001
 40
0.0
 40
0.0
 40
0.0
 40
0.0
 40
1.0
 40
1.0
 40
1.0
 40
1.0
 10
6.543409999999998
 20
25.0
 30
0.0
 10
6.543409999999998
 20
27.18113666666667
 30
0.0
 10
6.543409999999994
 20
29.36227333333333
 30
0.0
 10
6.54341
 20
31.54340999999999
 30
0.0
  0
SPLINE
  5
4A
330
1F
100
AcDbEntity
  8
PLASMA
100
AcDbSpline
210
0.0
220
0.0
230
1.0
 70
    24
 71
     2
 72
     6
 73
     3
 74
     0
 42
0.0000000001
 43
0.0000000001
 40
0.0
 40
0.0
 40
0.0
 40
1.0
 40
1.0
 40
1.0
 10
6.54341
 20
31.54340999999999
 30
0.0
 10
3.271704999999999
 20
31.54340999999999
 30
0.0
 10
-0.0000000000000018
 20
31.54340999999999
 30
0.0
  0
SPLINE
  5
4B
330
1F
100
AcDbEntity
  8
PLASMA
100
AcDbSpline
210
0.0
220
0.0
230
1.0
 70
    24
 71
     3
 72
     8
 73
     4
 74
     0
 42
0.0000000001
 43
0.0000000001
 40
-1.0
 40
-1.0
 40
-1.0
 40
-1.0
 40
0.0
 40
0.0
 40
0.0
 40
0.0
 10
-0.0000000000000018
 20
31.54340999999999
 30
0.0
 10
0.0000000000000018
 20
29.36227333333333
 30
0.0
 10
-0.0000000000000027
 20
27.18113666666667
 30
0.0
 10
0.0
 20
25.0
 30
0.0
  0
SPLINE
  5
4C
330
1F
100
AcDbEntity
  8
PLASMA
100
AcDbSpline
210
0.0
220
0.0
230
1.0
 70
    24
 71
     2
 72
     6
 73
     3
 74
     0
 42
0.0000000001
 43
0.0000000001
 40
-1.0
 40
-1.0
 40
-1.0
 40
0.0
 40
0.0
 40
0.0
 10
0.0
 20
25.0
 30
0.0
 10
3.271704999999999
 20
25.0
 30
0.0
 10
6.543409999999998
 20
25.0
 30
0.0
  0
SPLINE
  5
4D
330
1F
100
AcDbEntity
  8
PLASMA
100
AcDbSpline
210
0.0
220
0.0
230
1.0
 70
    11
 71
     3
 72
   141
 73
   137
 74
     0
 42
0.0000000001
 43
0.0000000001
 40
0.0
 40
0.0
 40
0.0
 40
0.0
 40
0.0648772866211724
 40
0.0648772866211724
 40
0.081343073533748
 40
0.081343073533748
 40
0.097879705283224
 40
0.097879705283224
 40
0.1144900417035396
 40
0.1144900417035396
 40
0.1311462881744809
 40
0.1311462881744809
 40
0.1475225652550113
 40
0.1475225652550113
 40
0.1639149987340829
 40
0.1639149987340829
 40
0.1803354704768931
 40
0.1803354704768931
 40
0.1967428408657911
 40
0.1967428408657911
 40
0.2131547870639166
 40
0.2131547870639166
 40
0.2295252224714329
 40
0.2295252224714329
 40
0.2458764695347266
 40
0.2458764695347266
 40
0.2621601516251456
 40
0.2621601516251456
 40
0.2954843042550587
 40
0.2954843042550587
 40
0.3284624235378983
 40
0.3284624235378983
 40
0.3610296816152292
 40
0.3610296816152292
 40
0.3931480309210443
 40
0.3931480309210443
 40
0.4264961247497999
 40
0.4264961247497999
 40
0.4593791436948044
 40
0.4593791436948044
 40
0.4918647593392344
 40
0.4918647593392344
 40
0.5240547437362321
 40
0.5240547437362321
 40
0.5567150804315553
 40
0.5567150804315553
 40
0.5893533606214515
 40
0.5893533606214515
 40
0.622114580056969
 40
0.622114580056969
 40
0.6551381191770578
 40
0.6551381191770578
 40
0.6871903604000285
 40
0.6871903604000285
 40
0.7196754493816975
 40
0.7196754493816975
 40
0.7526336359264776
 40
0.7526336359264776
 40
0.7860687892489718
 40
0.7860687892489718
 40
0.8183692646878918
 40
0.8183692646878918
 40
0.8346560530132777
 40
0.8346560530132777
 40
0.8510409496242402
 40
0.8510409496242402
 40
0.8674776856660373
 40
0.8674776856660373
 40
0.8839905124644889
 40
0.8839905124644889
 40
0.9005329761880079
 40
0.9005329761880079
 40
0.9171255297438193
 40
0.9171255297438193
 40
0.9335745843512359
 40
0.9335745843512359
 40
0.9500448782578432
 40
0.9500448782578432
 40
0.9664963227421253
 40
0.9664963227421253
 40
0.9829394272233728
 40
0.9829394272233728
 40
1.04820555793417
 40
1.04820555793417
 40
1.04820555793417
 40
2.096411115868341
 40
2.096411115868341
 40
2.096411115868341
 40
3.144616673802512
 40
3.144616673802512
 40
3.144616673802512
 40
4.192822231736682
 40
4.192822231736682
 40
4.192822231736682
 40
5.241027789670852
 40
5.241027789670852
 40
5.241027789670852
 40
6.289233347605022
 40
6.289233347605022
 40
6.289233347605022
 40
6.551534268550093
 40
6.551534268550093
 40
6.682526926496294
 40
6.682526926496294
 40
6.813400294235792
 40
6.813400294235792
 40
6.944397845930924
 40
6.944397845930924
 40
7.009624364509307
 40
7.009624364509307
 40
7.075274976392492
 40
7.075274976392492
 40
7.140482846955104
 40
7.140482846955104
 40
7.206161038702427
 40
7.206161038702427
 40
7.337438905539193
 40
7.337438905539193
 40
7.337438905539193
 40
8.129170487526343
 40
8.129170487526343
 40
8.524496769992115
 40
8.524496769992115
 40
8.918471275958664
 40
8.918471275958664
 40
9.309778460824639
 40
9.309778460824639
 40
9.699362552661432
 40
9.699362552661432
 40
10.08820550117812
 40
10.08820550117812
 40
10.30454001978273
 40
10.30454001978273
 40
10.36354815572441
 40
10.36354815572441
 40
10.4820555793417
 40
10.4820555793417
 40
10.4820555793417
 40
10.4820555793417
 10
0.5146174462051605
 20
19.69352901447063
 30
0.0
 10
0.5326510948145939
 20
19.858172203722
 30
0.0
 10
0.5721779082376449
 20
20.01993525629799
 30
0.0
 10
0.6454153572124195
 20
20.21408601132847
 30
0.0
 10
0.6614082452024691
 20
20.25284147278836
 30
0.0
 10
0.6958749022382067
 20
20.32965099960826
 30
0.0
 10
0.7142791976710513
 20
20.3675229225139
 30
0.0
 10
0.7535019400850909
 20
20.44243149204387
 30
0.0
 10
0.7742390962097944
 20
20.47929478992251
 30
0.0
 10
0.8180420253275932
 20
20.55197685902019
 30
0.0
 10
0.8410160705275728
 20
20.58762908225348
 30
0.0
 10
0.8887383321434931
 20
20.65707598738
 30
0.0
 10
0.913346116891568
 20
20.69074617496391
 30
0.0
 10
0.964610969180578
 20
20.75677077848409
 30
0.0
 10
0.9911623367289318
 20
20.78898411857508
 30
0.0
 10
1.046244344570696
 20
20.85200875924993
 30
0.0
 10
1.074659757013881
 20
20.88268843246567
 30
0.0
 10
1.133319520579876
 20
20.94245113487897
 30
0.0
 10
1.163440668467189
 20
20.97140953640605
 30
0.0
 10
1.225445850755601
 20
21.02766119287823
 30
0.0
 10
1.257197691167976
 20
21.05483985161911
 30
0.0
 10
1.322280838597981
 20
21.10735051889915
 30
0.0
 10
1.35547270299393
 20
21.13257522158819
 30
0.0
 10
1.423373736814284
 20
21.18112203391718
 30
0.0
 10
1.457934963881391
 20
21.20434749023165
 30
0.0
 10
1.528363697399662
 20
21.24873584067718
 30
0.0
 10
1.564076604040814
 20
21.26980977761756
 30
0.0
 10
1.674915697589754
 20
21.33087481475695
 30
0.0
 10
1.751795375673228
 20
21.36738310191269
 30
0.0
 10
1.908805377678942
 20
21.4303024148727
 30
0.0
 10
1.988776940707116
 20
21.45679487593139
 30
0.0
 10
2.15055394194486
 20
21.49916723879454
 30
0.0
 10
2.23221671330257
 20
21.51517316966445
 30
0.0
 10
2.395925913531945
 20
21.53625079903469
 30
0.0
 10
2.477847598817605
 20
21.54148204800863
 30
0.0
 10
2.64492226718586
 20
21.54087280396941
 30
0.0
 10
2.729915745879709
 20
21.53463134118536
 30
0.0
 10
2.897160475674496
 20
21.50995547791024
 30
0.0
 10
2.979127850128206
 20
21.49177248439792
 30
0.0
 10
3.138874214508458
 20
21.4434990420512
 30
0.0
 10
3.21621821043674
 20
21.41373434417468
 30
0.0
 10
3.365332919777173
 20
21.34278117793987
 30
0.0
 10
3.436547550840495
 20
21.30201994998317
 30
0.0
 10
3.573442732980863
 20
21.20884040349144
 30
0.0
 10
3.638323345816694
 20
21.15677221175042
 30
0.0
 10
3.75966262685398
 20
21.04239259076228
 30
0.0
 10
3.81541557934235
 20
20.98077421102947
 30
0.0
 10
3.917334535948685
 20
20.84847414940309
 30
0.0
 10
3.962855332720999
 20
20.7785272734158
 30
0.0
 10
4.043258719732969
 20
20.6310458389144
 30
0.0
 10
4.07762890891466
 20
20.5541717081633
 30
0.0
 10
4.133729118551208
 20
20.39778816943957
 30
0.0
 10
4.155570637408863
 20
20.31897002166317
 30
0.0
 10
4.188192890225565
 20
20.15748975194317
 30
0.0
 10
4.19869891413096
 20
20.07522970529426
 30
0.0
 10
4.208398290780755
 20
19.90848273403509
 30
0.0
 10
4.207373064064546
 20
19.82431852069556
 30
0.0
 10
4.193987924660237
 20
19.65542029879663
 30
0.0
 10
4.181450760541721
 20
19.57092352783093
 30
0.0
 10
4.146098839824415
 20
19.40696528990315
 30
0.0
 10
4.123653742469097
 20
19.3275805115838
 30
0.0
 10
4.082763194398684
 20
19.21056034474237
 30
0.0
 10
4.067886910717382
 20
19.1718454723876
 30
0.0
 10
4.035650461664856
 20
19.09497829700586
 30
0.0
 10
4.018352975014106
 20
19.0570066167139
 30
0.0
 10
3.98138155692302
 20
18.98187575114823
 30
0.0
 10
3.961779204205385
 20
18.94489081613216
 30
0.0
 10
3.920220929011893
 20
18.87182151936513
 30
0.0
 10
3.89834913003491
 20
18.83590337471814
 30
0.0
 10
3.852388727935499
 20
18.7651986248601
 30
0.0
 10
3.828392543477512
 20
18.73057130903953
 30
0.0
 10
3.778218295897701
 20
18.66253918399816
 30
0.0
 10
3.752144349469558
 20
18.62928499237002
 30
0.0
 10
3.698217850704467
 20
18.56449730892706
 30
0.0
 10
3.670492659373945
 20
18.53309097387518
 30
0.0
 10
3.613105608020891
 20
18.47177412402466
 30
0.0
 10
3.583563184196551
 20
18.44199410700838
 30
0.0
 10
3.522714486755789
 20
18.38410248778476
 30
0.0
 10
3.491534947959033
 20
18.35611341540787
 30
0.0
 10
3.427478633863836
 20
18.30189906748526
 30
0.0
 10
3.39473839933633
 20
18.27578697692458
 30
0.0
 10
3.228062453832613
 20
18.15060075020473
 30
0.0
 10
3.083373938713033
 20
18.06610423819189
 30
0.0
 10
2.93048785336074
 20
18.0
 30
0.0
 10
4.134795235573826
 20
18.0
 30
0.0
 10
5.339102617786915
 20
18.0
 30
0.0
 10
6.543410000000002
 20
18.0
 30
0.0
 10
6.543410000000005
 20
20.18113666666667
 30
0.0
 10
6.543410000000002
 20
22.36227333333333
 30
0.0
 10
6.543410000000004
 20
24.54341
 30
0.0
 10
4.362273333333336
 20
24.54341
 30
0.0
 10
2.181136666666669
 20
24.54341
 30
0.0
 10
0.0000000000000013
 20
24.54341
 30
0.0
 10
0.0000000000000034
 20
22.36227333333333
 30
0.0
 10
-0.0000000000000003
 20
20.18113666666667
 30
0.0
 10
0.0
 20
18.0
 30
0.0
 10
0.4726873796197201
 20
18.0
 30
0.0
 10
0.9453747592394397
 20
18.0
 30
0.0
 10
1.41806213885916
 20
18.0
 30
0.0
 10
1.272242699989234
 20
18.06947867340122
 30
0.0
 10
1.138010941078703
 20
18.16014107030426
 30
0.0
 10
0.9604503469272243
 20
18.3250183959806
 30
0.0
 10
0.9058648754421158
 20
18.38415170156686
 30
0.0
 10
0.805826814808798
 20
18.51072219133011
 30
0.0
 10
0.7609423145637608
 20
18.57744253964848
 30
0.0
 10
0.6812077316265661
 20
18.71768273063509
 30
0.0
 10
0.6468089298044962
 20
18.79046220257217
 30
0.0
 10
0.6032865696402521
 20
18.90322245373278
 30
0.0
 10
0.5902277549426258
 20
18.94110724471145
 30
0.0
 10
0.5667153885648745
 20
19.01821768051659
 30
0.0
 10
0.5563554960391693
 20
19.0571994213633
 30
0.0
 10
0.5384117285174107
 20
19.13577885817875
 30
0.0
 10
0.5308682424029866
 20
19.17512951010454
 30
0.0
 10
0.5184378095574097
 20
19.25478362266107
 30
0.0
 10
0.5136077493403811
 20
19.29485179568373
 30
0.0
 10
0.5031751269536889
 20
19.41571312765291
 30
0.0
 10
0.5017105551371245
 20
19.49584595318854
 30
0.0
 10
0.5054811380151503
 20
19.57660550169527
 30
0.0
 10
0.4880150353963399
 20
19.57498964366462
 30
0.0
 10
0.4707255018397228
 20
19.58115708927758
 30
0.0
 10
0.4519963347340988
 20
19.59962588497643
 30
0.0
 10
0.4473281950918086
 20
19.60684032780868
 30
0.0
 10
0.4411960148441566
 20
19.62321487088972
 30
0.0
 10
0.4400085322928395
 20
19.63181265449865
 30
0.0
 10
0.4413424758964457
 20
19.64914182627165
 30
0.0
 10
0.4439196713184217
 20
19.65752644337462
 30
0.0
 10
0.452377748172558
 20
19.67257897606324
 30
0.0
 10
0.4583108451097596
 20
19.67917639547686
 30
0.0
 10
0.472277725240045
 20
19.68921403457311
 30
0.0
 10
0.4804939514309418
 20
19.69273017902956
 30
0.0
 10
0.4936306735735292
 20
19.69521363540536
 30
0.0
 10
0.4982678107812623
 20
19.69551783845726
 30
0.0
 10
0.5043404570701209
 20
19.69520951821094
 30
0.0
 10
0.5056361875649981
 20
19.69510097733298
 30
0.0
 10
0.5095296800432673
 20
19.6946446032834
 30
0.0
 10
0.5120807705817494
 20
19.69417190481525
 30
0.0
 10
0.5146174462051605
 20
19.69352901447063
 30
0.0
  0
SPLINE
  5
4E
330
1F
100
AcDbEntity
  8
PLASMA
100
AcDbSpline
210
0.0
220
0.0
230
1.0
 70
    11
 71
     3
 72
   140
 73
   136
 74
     0
 42
0.0000000001
 43
0.0000000001
 40
0.0
 40
0.0
 40
0.0
 40
0.0
 40
0.0302218627063128
 40
0.0302218627063128
 40
0.045559010895142
 40
0.045559010895142
 40
0.0610804510215027
 40
0.0610804510215027
 40
0.092660163226631
 40
0.092660163226631
 40
0.1087294870655412
 40
0.1087294870655412
 40
0.1249819962462779
 40
0.1249819962462779
 40
0.1552669330817078
 40
0.1552669330817078
 40
0.1706598180286187
 40
0.1706598180286187
 40
0.1862011168797643
 40
0.1862011168797643
 40
0.217787133676256
 40
0.217787133676256
 40
0.2338212156298549
 40
0.2338212156298549
 40
0.2499956733655685
 40
0.2499956733655685
 40
0.3748119133574413
 40
0.3748119133574413
 40
0.4056200498964241
 40
0.4056200498964241
 40
0.43675719924442
 40
0.43675719924442
 40
0.468168453866274
 40
0.468168453866274
 40
0.4998349563412137
 40
0.4998349563412137
 40
0.5309210768198248
 40
0.5309210768198248
 40
0.5621741416661789
 40
0.5621741416661789
 40
0.6249755231651233
 40
0.6249755231651233
 40
0.6563122644576764
 40
0.6563122644576764
 40
0.6876439306177847
 40
0.6876439306177847
 40
0.7188718341095027
 40
0.7188718341095027
 40
0.750001967331831
 40
0.750001967331831
 40
0.7816527102027646
 40
0.7816527102027646
 40
0.7973964153358609
 40
0.7973964153358609
 40
0.8130950454121102
 40
0.8130950454121102
 40
0.8442734432494052
 40
0.8442734432494052
 40
0.8751589917946017
 40
0.8751589917946017
 40
1.0
 40
1.0
 40
1.0
 40
2.0
 40
2.0
 40
2.0
 40
3.0
 40
3.0
 40
3.0
 40
4.0
 40
4.0
 40
4.0
 40
5.0
 40
5.0
 40
5.0
 40
6.0
 40
6.0
 40
6.0
 40
6.062830945035823
 40
6.062830945035823
 40
6.125139358895321
 40
6.125139358895321
 40
6.156827998562334
 40
6.156827998562334
 40
6.18825001946267
 40
6.18825001946267
 40
6.219396432053231
 40
6.219396432053231
 40
6.250239780545146
 40
6.250239780545146
 40
6.28215642910282
 40
6.28215642910282
 40
6.297977167198535
 40
6.297977167198535
 40
6.313684628836223
 40
6.313684628836223
 40
6.344761228995963
 40
6.344761228995963
 40
6.360136055709773
 40
6.360136055709773
 40
6.375399622305612
 40
6.375399622305612
 40
6.407520344303705
 40
6.407520344303705
 40
6.423371658252337
 40
6.423371658252337
 40
6.439092547480195
 40
6.439092547480195
 40
6.47008370986029
 40
6.47008370986029
 40
6.485358419106729
 40
6.485358419106729
 40
6.500501664842707
 40
6.500501664842707
 40
6.625513172501099
 40
6.625513172501099
 40
6.657508193628239
 40
6.657508193628239
 40
6.688939353639152
 40
6.688939353639152
 40
6.719844704311943
 40
6.719844704311943
 40
6.750360512507889
 40
6.750360512507889
 40
6.812859964775525
 40
6.812859964775525
 40
6.875134375190439
 40
6.875134375190439
 40
6.905776365037007
 40
6.905776365037007
 40
6.936715256765583
 40
6.936715256765583
 40
6.968099040617994
 40
6.968099040617994
 40
7.0
 40
7.0
 40
7.0
 40
7.0
 10
21.29463389413678
 20
14.17014412200052
 30
0.0
 10
21.25203898996897
 20
14.17014412200052
 30
0.0
 10
21.20963163828865
 20
14.17196191049906
 30
0.0
 10
21.14564721980659
 20
14.17730286334604
 30
0.0
 10
21.12416629488821
 20
14.17954076815516
 30
0.0
 10
21.08100911216248
 20
14.18490284649334
 30
0.0
 10
21.05937682659239
 20
14.18803126867493
 30
0.0
 10
20.99387749152002
 20
14.19880264158839
 30
0.0
 10
20.95040921163662
 20
14.20772441367992
 30
0.0
 10
20.88517496851906
 20
14.22363604475762
 30
0.0
 10
20.86329437936135
 20
14.22940932159392
 30
0.0
 10
20.81947069059976
 20
14.24182080501772
 30
0.0
 10
20.79756639488834
 20
14.24845841095187
 30
0.0
 10
20.73515126614569
 20
14.26858287026332
 30
0.0
 10
20.69506902745129
 20
14.2829795124386
 30
0.0
 10
20.63519125942205
 20
14.30659110267682
 30
0.0
 10
20.61514951871573
 20
14.31485836364089
 30
0.0
 10
20.57511032333575
 20
14.33208913591069
 30
0.0
 10
20.55513878552543
 20
14.34104885576871
 30
0.0
 10
20.49496090303811
 20
14.36912904472749
 30
0.0
 10
20.45528410017064
 20
14.38912504257789
 30
0.0
 10
20.3962438248309
 20
14.42100750222751
 30
0.0
 10
20.37652872098154
 20
14.43202262889545
 30
0.0
 10
20.33722389009186
 20
14.45471079588376
 30
0.0
 10
20.31765640646426
 20
14.46637749947739
 30
0.0
 10
20.14843822025153
 20
14.57045072980216
 30
0.0
 10
20.00805895896405
 20
14.67863020129569
 30
0.0
 10
19.84693045308241
 20
14.82700502347097
 30
0.0
 10
19.81571056934929
 20
14.85703977670337
 30
0.0
 10
19.75416471874211
 20
14.91879268714221
 30
0.0
 10
19.72392104378658
 20
14.95045493905592
 30
0.0
 10
19.6644467177732
 20
15.01536061920556
 30
0.0
 10
19.63529224927134
 20
15.04854475321284
 30
0.0
 10
19.57806404306477
 20
15.11641580023098
 30
0.0
 10
19.55005974203575
 20
15.15104022820317
 30
0.0
 10
19.49591204463584
 20
15.22081461694199
 30
0.0
 10
19.46979702947503
 20
15.25587554286803
 30
0.0
 10
19.41876151631363
 20
15.3272428731263
 30
0.0
 10
19.39389486663365
 20
15.36348574245859
 30
0.0
 10
19.32112378859146
 20
15.47406310270896
 30
0.0
 10
19.27556469067153
 20
15.54949987505878
 30
0.0
 10
19.21144858249935
 20
15.6654429187152
 30
0.0
 10
19.19086353919164
 20
15.7044110472912
 30
0.0
 10
19.15116895482173
 20
15.78317352793191
 30
0.0
 10
19.13209417368117
 20
15.82289484560737
 30
0.0
 10
19.09551043679782
 20
15.90298126618822
 30
0.0
 10
19.07803216697661
 20
15.94327109649567
 30
0.0
 10
19.04467262801759
 20
16.02444696474429
 30
0.0
 10
19.02881694801469
 20
16.06525472301632
 30
0.0
 10
18.99842877872194
 20
16.14822332116474
 30
0.0
 10
18.98395500924144
 20
16.19031407440269
 30
0.0
 10
18.96354970128078
 20
16.25382021527441
 30
0.0
 10
18.95698619440089
 20
16.27497902850376
 30
0.0
 10
18.94430674440404
 20
16.31737623007721
 30
0.0
 10
18.93819273024642
 20
16.33860323932535
 30
0.0
 10
18.92058317438722
 20
16.40218547130646
 30
0.0
 10
18.90974487935645
 20
16.44466844500143
 30
0.0
 10
18.88993615487182
 20
16.52974366029615
 30
0.0
 10
18.88097055873949
 20
16.57223901735178
 30
0.0
 10
18.84032001813895
 20
16.78761279685875
 30
0.0
 10
18.82254679263569
 20
16.96393779706972
 30
0.0
 10
18.8228700729535
 20
17.13982
 30
0.0
 10
18.54858004863566
 20
17.13982
 30
0.0
 10
18.27429002431783
 20
17.13982
 30
0.0
 10
17.99999999999999
 20
17.13982
 30
0.0
 10
18.0
 20
14.42654666666667
 30
0.0
 10
18.0
 20
11.71327333333334
 30
0.0
 10
18.0
 20
9.0
 30
0.0
 10
20.71327333333333
 20
9.0
 30
0.0
 10
23.42654666666667
 20
9.0
 30
0.0
 10
26.13982
 20
9.0
 30
0.0
 10
26.13982
 20
11.71327333333334
 30
0.0
 10
26.13982
 20
14.42654666666667
 30
0.0
 10
26.13982
 20
17.13982000000001
 30
0.0
 10
24.88873051525455
 20
17.13982
 30
0.0
 10
23.6376410305091
 20
17.13982
 30
0.0
 10
22.38655154576366
 20
17.13982
 30
0.0
 10
22.42002657345938
 20
17.06805962670605
 30
0.0
 10
22.45093836387326
 20
16.99536535167773
 30
0.0
 10
22.50751433480012
 20
16.84814990973545
 30
0.0
 10
22.53305980793859
 20
16.77410023367018
 30
0.0
 10
22.56763444698021
 20
16.66079011190979
 30
0.0
 10
22.57858075883591
 20
16.62240951885135
 30
0.0
 10
22.5989655646683
 20
16.54552517675398
 30
0.0
 10
22.60839682571147
 20
16.50709088763477
 30
0.0
 10
22.62572563868417
 20
16.43016046258036
 30
0.0
 10
22.63362045966944
 20
16.39173647108533
 30
0.0
 10
22.64785908167412
 20
16.31491578630695
 30
0.0
 10
22.65420518988448
 20
16.27659354542957
 30
0.0
 10
22.66557400046037
 20
16.19831419229585
 30
0.0
 10
22.67053091124722
 20
16.15842940526055
 30
0.0
 10
22.67667772703442
 20
16.09857699057138
 30
0.0
 10
22.67850493812537
 20
16.07872527756263
 30
0.0
 10
22.68172193896321
 20
16.03911816089257
 30
0.0
 10
22.68311358259531
 20
16.01937435771991
 30
0.0
 10
22.68661648281441
 20
15.96051263876206
 30
0.0
 10
22.68809615520301
 20
15.92141011428472
 30
0.0
 10
22.68898942430302
 20
15.86286950464029
 30
0.0
 10
22.68906871369396
 20
15.8434961294294
 30
0.0
 10
22.68878715941727
 20
15.80488043115621
 30
0.0
 10
22.68842983033877
 20
15.78565051648634
 30
0.0
 10
22.68662824280552
 20
15.72595425594044
 30
0.0
 10
22.68442321775014
 20
15.68557959359156
 30
0.0
 10
22.67957423425087
 20
15.62530875673286
 30
0.0
 10
22.67771991072755
 20
15.6054220576127
 30
0.0
 10
22.67351040579241
 20
15.56585054526764
 30
0.0
 10
22.67116158761685
 20
15.54618183027637
 30
0.0
 10
22.66340612110605
 20
15.48781704674705
 30
0.0
 10
22.65725946918375
 20
15.44929782476788
 30
0.0
 10
22.6464783065823
 20
15.3919860025752
 30
0.0
 10
22.64266229019935
 20
15.37312202971143
 30
0.0
 10
22.63453414782342
 20
15.33565224543306
 30
0.0
 10
22.63023076798636
 20
15.31706363125042
 30
0.0
 10
22.58793334273197
 20
15.14553883860276
 30
0.0
 10
22.53206416879761
 20
14.99675663620624
 30
0.0
 10
22.43522131820714
 20
14.82352200278831
 30
0.0
 10
22.41420195350654
 20
14.78911819270188
 30
0.0
 10
22.36962513532645
 20
14.72247216264828
 30
0.0
 10
22.34630331788474
 20
14.6904690242495
 30
0.0
 10
22.29723058644792
 20
14.62880539920447
 30
0.0
 10
22.27173653302481
 20
14.59938460878873
 30
0.0
 10
22.21836942279739
 20
14.54297482323238
 30
0.0
 10
22.19078078847678
 20
14.51621620399231
 30
0.0
 10
22.10278581133717
 20
14.43819372169328
 30
0.0
 10
22.03899188587978
 20
14.39133308297956
 30
0.0
 10
21.90350086842956
 20
14.31045983601166
 30
0.0
 10
21.83232917330867
 20
14.27667833107978
 30
0.0
 10
21.72193183537208
 20
14.23645810041948
 30
0.0
 10
21.68510692995008
 20
14.22492479211529
 30
0.0
 10
21.6098314894509
 20
14.20499784004107
 30
0.0
 10
21.5717491786937
 20
14.19674148061933
 30
0.0
 10
21.49408178004652
 20
14.18341537327423
 30
0.0
 10
21.45486045542125
 20
14.17845284673033
 30
0.0
 10
21.37512498349621
 20
14.17177359436734
 30
0.0
 10
21.33496545741917
 20
14.17014412200052
 30
0.0
 10
21.29463389413678
 20
14.17014412200052
 30
0.0
  0
SPLINE
  5
4F
330
1F
100
AcDbEntity
  8
PLASMA
100
AcDbSpline
210
0.0
220
0.0
230
1.0
 70
    24
 71
     3
 72
     8
 73
     4
 74
     0
 42
0.0000000001
 43
0.0000000001
 40
0.0
 40
0.0
 40
0.0
 40
0.0
 40
1.0
 40
1.0
 40
1.0
 40
1.0
 10
13.54341
 20
25.0
 30
0.0
 10
13.54341
 20
27.18113666666667
 30
0.0
 10
13.54341000000001
 20
29.36227333333333
 30
0.0
 10
13.54341
 20
31.54340999999999
 30
0.0
  0
SPLINE
  5
50
330
1F
100
AcDbEntity
  8
PLASMA
100
AcDbSpline
210
0.0
220
0.0
230
1.0
 70
    24
 71
     2
 72
     6
 73
     3
 74
     0
 42
0.0000000001
 43
0.0000000001
 40
0.0
 40
0.0
 40
0.0
 40
1.0
 40
1.0
 40
1.0
 10
13.54341
 20
31.54340999999999
 30
0.0
 10
10.271705
 20
31.54340999999999
 30
0.0
 10
7.000000000000004
 20
31.54340999999999
 30
0.0
  0
SPLINE
  5
51
330
1F
100
AcDbEntity
  8
PLASMA
100
AcDbSpline
210
0.0
220
0.0
230
1.0
 70
    24
 71
     3
 72
     8
 73
     4
 74
     0
 42
0.0000000001
 43
0.0000000001
 40
-1.0
 40
-1.0
 40
-1.0
 40
-1.0
 40
0.0
 40
0.0
 40
0.0
 40
0.0
 10
7.000000000000004
 20
31.54340999999999
 30
0.0
 10
6.999999999999998
 20
29.36227333333333
 30
0.0
 10
7.000000000000004
 20
27.18113666666667
 30
0.0
 10
7.0
 20
25.0
 30
0.0
  0
SPLINE
  5
52
330
1F
100
AcDbEntity
  8
PLASMA
100
AcDbSpline
210
0.0
220
0.0
230
1.0
 70
    24
 71
     2
 72
     6
 73
     3
 74
     0
 42
0.0000000001
 43
0.0000000001
 40
-1.0
 40
-1.0
 40
-1.0
 40
0.0
 40
0.0
 40
0.0
 10
7.0
 20
25.0
 30
0.0
 10
10.271705
 20
25.0
 30
0.0
 10
13.54341
 20
25.0
 30
0.0
  0
SPLINE
  5
53
330
1F
100
AcDbEntity
  8
PLASMA
100
AcDbSpline
210
0.0
220
0.0
230
1.0
 70
    24
 71
     3
 72
     8
 73
     4
 74
     0
 42
0.0000000001
 43
0.0000000001
 40
0.0
 40
0.0
 40
0.0
 40
0.0
 40
1.0
 40
1.0
 40
1.0
 40
1.0
 10
13.54341
 20
18.0
 30
0.0
 10
13.54341
 20
20.18113666666667
 30
0.0
 10
13.54341
 20
22.36227333333333
 30
0.0
 10
13.54341
 20
24.54341
 30
0.0
  0
SPLINE
  5
54
330
1F
100
AcDbEntity
  8
PLASMA
100
AcDbSpline
210
0.0
220
0.0
230
1.0
 70
    24
 71
     2
 72
     6
 73
     3
 74
     0
 42
0.0000000001
 43
0.0000000001
 40
0.0
 40
0.0
 40
0.0
 40
1.0
 40
1.0
 40
1.0
 10
13.54341
 20
24.54341
 30
0.0
 10
10.271705
 20
24.54341
 30
0.0
 10
7.000000000000002
 20
24.54341
 30
0.0
  0
SPLINE
  5
55
330
1F
100
AcDbEntity
  8
PLASMA
100
AcDbSpline
210
0.0
220
0.0
230
1.0
 70
    24
 71
     3
 72
     8
 73
     4
 74
     0
 42
0.0000000001
 43
0.0000000001
 40
-1.0
 40
-1.0
 40
-1.0
 40
-1.0
 40
0.0
 40
0.0
 40
0.0
 40
0.0
 10
7.000000000000002
 20
24.54341
 30
0.0
 10
7.000000000000004
 20
22.36227333333333
 30
0.0
 10
7.000000000000002
 20
20.18113666666667
 30
0.0
 10
7.0
 20
18.0
 30
0.0
  0
SPLINE
  5
56
330
1F
100
AcDbEntity
  8
PLASMA
100
AcDbSpline
210
0.0
220
0.0
230
1.0
 70
    24
 71
     2
 72
     6
 73
     3
 74
     0
 42
0.0000000001
 43
0.0000000001
 40
-1.0
 40
-1.0
 40
-1.0
 40
0.0
 40
0.0
 40
0.0
 10
7.0
 20
18.0
 30
0.0
 10
10.271705
 20
18.0
 30
0.0
 10
13.54341
 20
18.0
 30
0.0
  0
SPLINE
  5
57
330
1F
100
AcDbEntity
  8
PLASMA
100
AcDbSpline
210
0.0
220
0.0
230
1.0
 70
    24
 71
     3
 72
     8
 73
     4
 74
     0
 42
0.0000000001
 43
0.0000000001
 40
0.0
 40
0.0
 40
0.0
 40
0.0
 40
1.0
 40
1.0
 40
1.0
 40
1.0
 10
20.54341
 20
25.0
 30
0.0
 10
20.54341
 20
27.18113666666667
 30
0.0
 10
20.54341
 20
29.36227333333333
 30
0.0
 10
20.54341
 20
31.54340999999999
 30
0.0
  0
SPLINE
  5
58
330
1F
100
AcDbEntity
  8
PLASMA
100
AcDbSpline
210
0.0
220
0.0
230
1.0
 70
    24
 71
     2
 72
     6
 73
     3
 74
     0
 42
0.0000000001
 43
0.0000000001
 40
0.0
 40
0.0
 40
0.0
 40
1.0
 40
1.0
 40
1.0
 10
20.54341
 20
31.54340999999999
 30
0.0
 10
17.271705
 20
31.54341
 30
0.0
 10
14.0
 20
31.54341
 30
0.0
  0
SPLINE
  5
59
330
1F
100
AcDbEntity
  8
PLASMA
100
AcDbSpline
210
0.0
220
0.0
230
1.0
 70
    24
 71
     3
 72
     8
 73
     4
 74
     0
 42
0.0000000001
 43
0.0000000001
 40
-1.0
 40
-1.0
 40
-1.0
 40
-1.0
 40
0.0
 40
0.0
 40
0.0
 40
0.0
 10
14.0
 20
31.54341
 30
0.0
 10
14.0
 20
29.36227333333333
 30
0.0
 10
14.0
 20
27.18113666666667
 30
0.0
 10
14.0
 20
25.0
 30
0.0
  0
SPLINE
  5
5A
330
1F
100
AcDbEntity
  8
PLASMA
100
AcDbSpline
210
0.0
220
0.0
230
1.0
 70
    24
 71
     2
 72
     6
 73
     3
 74
     0
 42
0.0000000001
 43
0.0000000001
 40
-1.0
 40
-1.0
 40
-1.0
 40
0.0
 40
0.0
 40
0.0
 10
14.0
 20
25.0
 30
0.0
 10
17.271705
 20
25.0
 30
0.0
 10
20.54341
 20
25.0
 30
0.0
  0
SPLINE
  5
5B
330
1F
100
AcDbEntity
  8
PLASMA
100
AcDbSpline
210
0.0
220
0.0
230
1.0
 70
    11
 71
     3
 72
   140
 73
   136
 74
     0
 42
0.0000000001
 43
0.0000000001
 40
0.0
 40
0.0
 40
0.0
 40
0.0
 40
0.0569295785326474
 40
0.0569295785326474
 40
0.1068957631273115
 40
0.1068957631273115
 40
0.1073974973439425
 40
0.1073974973439425
 40
0.1076483644522579
 40
0.1076483644522579
 40
0.1190791628382541
 40
0.1190791628382541
 40
0.2130536575224158
 40
0.2130536575224158
 40
0.3079469611812647
 40
0.3079469611812647
 40
0.4036656342029595
 40
0.4036656342029595
 40
0.500085387641467
 40
0.500085387641467
 40
0.5622736892273572
 40
0.5622736892273572
 40
0.624633234023174
 40
0.624633234023174
 40
0.6871481923167573
 40
0.6871481923167573
 40
0.7497480975885452
 40
0.7497480975885452
 40
0.8748806506378417
 40
0.8748806506378417
 40
0.9997759489225885
 40
0.9997759489225885
 40
1.063336653877599
 40
1.063336653877599
 40
1.126687188475503
 40
1.126687188475503
 40
1.252386669218285
 40
1.252386669218285
 40
1.314827489012929
 40
1.314827489012929
 40
1.376890306709526
 40
1.376890306709526
 40
1.438544413096525
 40
1.438544413096525
 40
1.499801104904323
 40
1.499801104904323
 40
1.56380333399767
 40
1.56380333399767
 40
1.627315963946574
 40
1.627315963946574
 40
1.690359876236403
 40
1.690359876236403
 40
1.752957307967431
 40
1.752957307967431
 40
1.815117818797102
 40
1.815117818797102
 40
1.876862196867968
 40
1.876862196867968
 40
1.938253293654196
 40
1.938253293654196
 40
1.999339678690005
 40
1.999339678690005
 40
2.062048490042121
 40
2.062048490042121
 40
2.124538567895012
 40
2.124538567895012
 40
2.249172666829978
 40
2.249172666829978
 40
2.373831137648699
 40
2.373831137648699
 40
2.436410002792243
 40
2.436410002792243
 40
2.499235455372341
 40
2.499235455372341
 40
2.667332129244607
 40
2.667332129244607
 40
2.838465671069101
 40
2.838465671069101
 40
2.931742031735658
 40
2.931742031735658
 40
3.000114663868927
 40
3.000114663868927
 40
3.06141813679516
 40
3.06141813679516
 40
3.123126751462175
 40
3.123126751462175
 40
3.247600628135747
 40
3.247600628135747
 40
3.310373863156305
 40
3.310373863156305
 40
3.373430064151063
 40
3.373430064151063
 40
3.500120615262738
 40
3.500120615262738
 40
3.62520413106946
 40
3.62520413106946
 40
3.68787667960774
 40
3.68787667960774
 40
3.750539913777805
 40
3.750539913777805
 40
3.8131424953174
 40
3.8131424953174
 40
3.875633963492117
 40
3.875633963492117
 40
4.0
 40
4.0
 40
4.0
 40
5.0
 40
5.0
 40
5.0
 40
6.0
 40
6.0
 40
6.0
 40
7.0
 40
7.0
 40
7.0
 40
8.0
 40
8.0
 40
8.0
 40
9.0
 40
9.0
 40
9.0
 40
9.249717023230831
 40
9.249717023230831
 40
9.37477166189194
 40
9.37477166189194
 40
9.499844743976011
 40
9.499844743976011
 40
9.625053267303118
 40
9.625053267303118
 40
9.749895813688575
 40
9.749895813688575
 40
9.874939318713828
 40
9.874939318713828
 40
10.0
 40
10.0
 40
10.0
 40
10.0
 10
15.42657602480315
 20
24.11515654897586
 30
0.0
 10
15.46492194111747
 20
24.11515654897586
 30
0.0
 10
15.50317482918413
 20
24.11395741649473
 30
0.0
 10
15.57503638450881
 20
24.10948135795855
 30
0.0
 10
15.60851021983787
 20
24.10649871433149
 30
0.0
 10
15.64227453410645
 20
24.10255675385552
 30
0.0
 10
15.64261020698872
 20
24.10251756427731
 30
0.0
 10
15.64311371631213
 20
24.10245877990999
 30
0.0
 10
15.64328155275327
 20
24.10243918512089
 30
0.0
 10
15.65109688245618
 20
24.10152675075157
 30
0.0
 10
15.65873752117122
 20
24.10058205994432
 30
0.0
 10
15.72914769422064
 20
24.09146908437722
 30
0.0
 10
15.79114223399878
 20
24.08028775497523
 30
0.0
 10
15.91509972122368
 20
24.0517130802009
 30
0.0
 10
15.9763238310819
 20
24.03442112353308
 30
0.0
 10
16.09808182848723
 20
23.99373078418877
 30
0.0
 10
16.15791167823996
 20
23.97050477417503
 30
0.0
 10
16.2762324206612
 20
23.91811544800898
 30
0.0
 10
16.3340584305187
 20
23.88919224256347
 30
0.0
 10
16.42729310708134
 20
23.83706941769595
 30
0.0
 10
16.46316203776246
 20
23.81559141303856
 30
0.0
 10
16.53382794233208
 20
23.77040722510956
 30
0.0
 10
16.56846690246023
 20
23.74679127206069
 30
0.0
 10
16.63653307788399
 20
23.69740326506452
 30
0.0
 10
16.66981262006082
 20
23.67173489599347
 30
0.0
 10
16.73499942358258
 20
23.61834868341005
 30
0.0
 10
16.76676515638999
 20
23.59074146636207
 30
0.0
 10
16.85973836768751
 20
23.505068977637
 30
0.0
 10
16.91840991024636
 20
23.4443144850074
 30
0.0
 10
17.0281175011764
 20
23.3165804788044
 30
0.0
 10
17.07920946225231
 20
23.2495690074697
 30
0.0
 10
17.15008847138843
 20
23.14428700025074
 30
0.0
 10
17.17288079888417
 20
23.10814514039376
 30
0.0
 10
17.21626320344143
 20
23.0345029784566
 30
0.0
 10
17.23676380199704
 20
22.99717559300564
 30
0.0
 10
17.2946288791503
 20
22.883765153019
 30
0.0
 10
17.32857205788759
 20
22.80594309015947
 30
0.0
 10
17.3719033859762
 20
22.68686587422793
 30
0.0
 10
17.38503166924852
 20
22.6469980014579
 30
0.0
 10
17.40874174989765
 20
22.5665631505585
 30
0.0
 10
17.41927867008684
 20
22.52619760127093
 30
0.0
 10
17.43775181287605
 20
22.44494350609528
 30
0.0
 10
17.44565611091008
 20
22.4042625872938
 30
0.0
 10
17.45881306492843
 20
22.32252898840441
 30
0.0
 10
17.46405239360384
 20
22.28169070254554
 30
0.0
 10
17.47204066554718
 20
22.19770099025899
 30
0.0
 10
17.47464511729699
 20
22.15477340056436
 30
0.0
 10
17.47685022710889
 20
22.06891211170615
 30
0.0
 10
17.47646290383008
 20
22.02623882065356
 30
0.0
 10
17.47266698354178
 20
21.94107784663808
 30
0.0
 10
17.46929339474255
 20
21.89885463110489
 30
0.0
 10
17.45951378691087
 20
21.81479070216541
 30
0.0
 10
17.45316503028366
 20
21.77321708282381
 30
0.0
 10
17.43745003433968
 20
21.69066199071591
 30
0.0
 10
17.4281556975493
 20
21.6499497414304
 30
0.0
 10
17.40658410808255
 20
21.5693213571385
 30
0.0
 10
17.39439599669827
 20
21.52967474643312
 30
0.0
 10
17.36706848586137
 20
21.45135840681031
 30
0.0
 10
17.35204329567065
 20
21.41295452637992
 30
0.0
 10
17.31908813845217
 20
21.33731643240442
 30
0.0
 10
17.30129334759868
 20
21.30034367742503
 30
0.0
 10
17.26228043999171
 20
21.22663739139058
 30
0.0
 10
17.24113194859186
 20
21.19022022703666
 30
0.0
 10
17.19591976337341
 20
21.11902182853186
 30
0.0
 10
17.17203903253162
 20
21.08451526537778
 30
0.0
 10
17.09622486276512
 20
20.9838038011775
 30
0.0
 10
17.04054284804239
 20
20.92094496653087
 30
0.0
 10
16.91947441495606
 20
20.8045526402636
 30
0.0
 10
16.85440284954031
 20
20.75133636607487
 30
0.0
 10
16.75073417988485
 20
20.67948772168641
 30
0.0
 10
16.71526988141537
 20
20.65694212403521
 30
0.0
 10
16.64224386115474
 20
20.6144715404744
 30
0.0
 10
16.60496198537297
 20
20.59471883561345
 30
0.0
 10
16.46476208891237
 20
20.52732240896405
 30
0.0
 10
16.35796327434315
 20
20.48913519525663
 30
0.0
 10
16.13626062115899
 20
20.43404526005723
 30
0.0
 10
16.02193822575665
 20
20.41770835206399
 30
0.0
 10
15.84413544514231
 20
20.40949448295438
 30
0.0
 10
15.78167621920088
 20
20.4098671632887
 30
0.0
 10
15.67303848446209
 20
20.41600105304934
 30
0.0
 10
15.62733809736124
 20
20.42028117417811
 30
0.0
 10
15.54078248930229
 20
20.43155825895464
 30
0.0
 10
15.50014200632321
 20
20.43819800536357
 30
0.0
 10
15.41889069516241
 20
20.45413966202948
 30
0.0
 10
15.3784888854216
 20
20.46341639703574
 30
0.0
 10
15.2572879837279
 20
20.49528018184562
 30
0.0
 10
15.17767589344136
 20
20.52169494792747
 30
0.0
 10
15.06071103069002
 20
20.56861503351785
 30
0.0
 10
15.02207594196417
 20
20.58551513416113
 30
0.0
 10
14.94555292551484
 20
20.62179451152875
 30
0.0
 10
14.90784821123972
 20
20.641102338684
 30
0.0
 10
14.79598425738423
 20
20.70270576549483
 30
0.0
 10
14.72379113225118
 20
20.74836730912055
 30
0.0
 10
14.5862234644099
 20
20.84729251626588
 30
0.0
 10
14.52077715915986
 20
20.90044633078767
 30
0.0
 10
14.42749513173562
 20
20.98567884167791
 30
0.0
 10
14.39725115274657
 20
21.01497446165437
 30
0.0
 10
14.33840130001745
 20
21.07540194555714
 30
0.0
 10
14.30991914280732
 20
21.10640469514778
 30
0.0
 10
14.25472123986081
 20
21.17012323681432
 30
0.0
 10
14.228121202544
 20
21.20270228462863
 30
0.0
 10
14.1768079782175
 20
21.26944330489523
 30
0.0
 10
14.15220220001004
 20
21.30346099692876
 30
0.0
 10
14.08152652078594
 20
21.40747447651954
 30
0.0
 10
14.03854556299279
 20
21.47945959025801
 30
0.0
 10
14.0
 20
21.55375669230995
 30
0.0
 10
14.0
 20
20.36917112820663
 30
0.0
 10
14.0
 20
19.18458556410332
 30
0.0
 10
14.0
 20
18.0
 30
0.0
 10
16.18113666666667
 20
18.0
 30
0.0
 10
18.36227333333333
 20
18.0
 30
0.0
 10
20.54341
 20
18.0
 30
0.0
 10
20.54341
 20
20.18113666666667
 30
0.0
 10
20.54341
 20
22.36227333333333
 30
0.0
 10
20.54341
 20
24.54341
 30
0.0
 10
18.36227333333333
 20
24.54340999999999
 30
0.0
 10
16.18113666666667
 20
24.54341
 30
0.0
 10
14.0
 20
24.54341
 30
0.0
 10
14.0
 20
24.1355849463088
 30
0.0
 10
14.0
 20
23.72775989261759
 30
0.0
 10
14.0
 20
23.31993483892639
 30
0.0
 10
14.07201548871853
 20
23.44331830074846
 30
0.0
 10
14.16003396395759
 20
23.55621202875065
 30
0.0
 10
14.31368118465457
 20
23.70582198126488
 30
0.0
 10
14.36773154368817
 20
23.75171437346955
 30
0.0
 10
14.48284571166238
 20
23.83676671831051
 30
0.0
 10
14.54261328085218
 20
23.87495718518053
 30
0.0
 10
14.66814659019479
 20
23.94387438890623
 30
0.0
 10
14.73254540699982
 20
23.97382718526134
 30
0.0
 10
14.86590616988329
 20
24.02561697849596
 30
0.0
 10
14.93347200984108
 20
24.04692792785361
 30
0.0
 10
15.07223561929196
 20
24.08129736181647
 30
0.0
 10
15.14208081761365
 20
24.0939951543307
 30
0.0
 10
15.28413375981775
 20
24.11100705971672
 30
0.0
 10
15.35504353812421
 20
24.11515654897586
 30
0.0
 10
15.42657602480315
 20
24.11515654897586
 30
0.0
  0
SPLINE
  5
5C
330
1F
100
AcDbEntity
  8
PLASMA
100
AcDbSpline
210
0.0
220
0.0
230
1.0
 70
    11
 71
     3
 72
    65
 73
    61
 74
     0
 42
0.0000000001
 43
0.0000000001
 40
0.0
 40
0.0
 40
0.0
 40
0.0
 40
0.2487892923247311
 40
0.2487892923247311
 40
0.2811569491283402
 40
0.2811569491283402
 40
0.2970678607940513
 40
0.2970678607940513
 40
0.3127997863217472
 40
0.3127997863217472
 40
0.3436822641003823
 40
0.3436822641003823
 40
0.3588385876728541
 40
0.3588385876728541
 40
0.3738196656362229
 40
0.3738196656362229
 40
0.4063911588504764
 40
0.4063911588504764
 40
0.4223289653798619
 40
0.4223289653798619
 40
0.438059233152156
 40
0.438059233152156
 40
0.4688706817358556
 40
0.4688706817358556
 40
0.4839562853566761
 40
0.4839562853566761
 40
0.4988570646306075
 40
0.4988570646306075
 40
0.62419429947351
 40
0.62419429947351
 40
0.7497638002252208
 40
0.7497638002252208
 40
0.8749824380266147
 40
0.8749824380266147
 40
0.8898783391022744
 40
0.8898783391022744
 40
0.9049584195700738
 40
0.9049584195700738
 40
0.9357701987726764
 40
0.9357701987726764
 40
0.9514941581649518
 40
0.9514941581649518
 40
0.9674263497036173
 40
0.9674263497036173
 40
1.0
 40
1.0
 40
1.0
 40
2.0
 40
2.0
 40
2.0
 40
3.0
 40
3.0
 40
3.0
 40
4.0
 40
4.0
 40
4.0
 40
5.0
 40
5.0
 40
5.0
 40
6.0
 40
6.0
 40
6.0
 40
6.0
 10
10.18340414103938
 20
0.0
 30
0.0
 10
10.37773080180032
 20
0.2321866729932784
 30
0.0
 10
10.60394250876815
 20
0.4479162973001145
 30
0.0
 10
10.8881461179489
 20
0.6413064695735793
 30
0.0
 10
10.92131101849383
 20
0.6628254448244144
 30
0.0
 10
10.97157102153107
 20
0.6937844627380585
 30
0.0
 10
10.9882470779031
 20
0.7037927873336445
 30
0.0
 10
11.02165585205881
 20
0.7233053388507775
 30
0.0
 10
11.03837405564922
 20
0.7328074293567788
 30
0.0
 10
11.08826602047216
 20
0.7603624643105755
 30
0.0
 10
11.1217075634494
 20
0.7777976907969304
 30
0.0
 10
11.17228084762518
 20
0.8025221127753746
 30
0.0
 10
11.18902646236119
 20
0.8104467476822732
 30
0.0
 10
11.2225398398298
 20
0.825769963082374
 30
0.0
 10
11.23929085956049
 20
0.8331672486385564
 30
0.0
 10
11.29279199383489
 20
0.8559368792993336
 30
0.0
 10
11.32981081498815
 20
0.8704255783016155
 30
0.0
 10
11.38571172902316
 20
0.8902676182017863
 30
0.0
 10
11.40416852569812
 20
0.8964952140813018
 30
0.0
 10
11.44105751408982
 20
0.9082760739850881
 30
0.0
 10
11.4594629675958
 20
0.91382971345908
 30
0.0
 10
11.51421683195681
 20
0.929356328628737
 30
0.0
 10
11.55069802220185
 20
0.9384201119260425
 30
0.0
 10
11.60561864589419
 20
0.9500000652647262
 30
0.0
 10
11.62372253122589
 20
0.9534876105926555
 30
0.0
 10
11.65985162425212
 20
0.9597690042401998
 30
0.0
 10
11.67784595462045
 20
0.9625661185178132
 30
0.0
 10
11.84777394300781
 20
0.9857475666397866
 30
0.0
 10
12.00170062589075
 20
0.9824425479006296
 30
0.0
 10
12.30227123495933
 20
0.9128498186092608
 30
0.0
 10
12.44099289068875
 20
0.8481597041615832
 30
0.0
 10
12.68732106903549
 20
0.6626122987082175
 30
0.0
 10
12.7885908215864
 20
0.5469095229808927
 30
0.0
 10
12.87983141609484
 20
0.4018558187464096
 30
0.0
 10
12.88923532939438
 20
0.3862669085642763
 30
0.0
 10
12.90760313832063
 20
0.3545390638799937
 30
0.0
 10
12.91654483802261
 20
0.3384220803893419
 30
0.0
 10
12.94290757734587
 20
0.2888728511768708
 30
0.0
 10
12.95936386522521
 20
0.2550732925759531
 30
0.0
 10
12.9825803326449
 20
0.2031147487472316
 30
0.0
 10
12.990125019415
 20
0.1854389248493575
 30
0.0
 10
13.00474526826028
 20
0.1495931201973715
 30
0.0
 10
13.01180349376067
 20
0.1314436884071482
 30
0.0
 10
13.032431857197
 20
0.0758280960788875
 30
0.0
 10
13.04505411561862
 20
0.0381267788879303
 30
0.0
 10
13.05658472394864
 20
0.0
 30
0.0
 10
14.41766314929909
 20
0.0
 30
0.0
 10
15.77874157464955
 20
0.0
 30
0.0
 10
17.13982
 20
0.0
 30
0.0
 10
17.13982
 20
2.713273333333335
 30
0.0
 10
17.13982
 20
5.426546666666667
 30
0.0
 10
17.13982
 20
8.13982
 30
0.0
 10
14.42654666666666
 20
8.139819999999999
 30
0.0
 10
11.71327333333333
 20
8.13982
 30
0.0
 10
8.999999999999998
 20
8.13982
 30
0.0
 10
8.999999999999998
 20
5.426546666666669
 30
0.0
 10
8.999999999999998
 20
2.713273333333333
 30
0.0
 10
9.0
 20
0.0
 30
0.0
 10
9.394468047013127
 20
0.0
 30
0.0
 10
9.788936094026253
 20
0.0
 30
0.0
 10
10.18340414103938
 20
0.0
 30
0.0
  0
SPLINE
  5
5D
330
1F
100
AcDbEntity
  8
PLASMA
100
AcDbSpline
210
0.0
220
0.0
230
1.0
 70
    24
 71
     3
 72
     8
 73
     4
 74
     0
 42
0.0000000001
 43
0.0000000001
 40
0.0
 40
0.0
 40
0.0
 40
0.0
 40
1.0
 40
1.0
 40
1.0
 40
1.0
 10
17.13982
 20
9.0
 30
0.0
 10
17.13982
 20
11.71327333333333
 30
0.0
 10
17.13982
 20
14.42654666666667
 30
0.0
 10
17.13981999999999
 20
17.13982
 30
0.0
  0
SPLINE
  5
5E
330
1F
100
AcDbEntity
  8
PLASMA
100
AcDbSpline
210
0.0
220
0.0
230
1.0
 70
    24
 71
     2
 72
     6
 73
     3
 74
     0
 42
0.0000000001
 43
0.0000000001
 40
0.0
 40
0.0
 40
0.0
 40
1.0
 40
1.0
 40
1.0
 10
17.13981999999999
 20
17.13982
 30
0.0
 10
13.06991
 20
17.13982
 30
0.0
 10
8.999999999999998
 20
17.13982
 30
0.0
  0
SPLINE
  5
5F
330
1F
100
AcDbEntity
  8
PLASMA
100
AcDbSpline
210
0.0
220
0.0
230
1.0
 70
    24
 71
     3
 72
     8
 73
     4
 74
     0
 42
0.0000000001
 43
0.0000000001
 40
-1.0
 40
-1.0
 40
-1.0
 40
-1.0
 40
0.0
 40
0.0
 40
0.0
 40
0.0
 10
8.999999999999998
 20
17.13982
 30
0.0
 10
8.999999999999991
 20
14.42654666666667
 30
0.0
 10
9.0
 20
11.71327333333334
 30
0.0
 10
9.0
 20
9.0
 30
0.0
  0
SPLINE
  5
60
330
1F
100
AcDbEntity
  8
PLASMA
100
AcDbSpline
210
0.0
220
0.0
230
1.0
 70
    24
 71
     2
 72
     6
 73
     3
 74
     0
 42
0.0000000001
 43
0.0000000001
 40
-1.0
 40
-1.0
 40
-1.0
 40
0.0
 40
0.0
 40
0.0
 10
9.0
 20
9.0
 30
0.0
 10
13.06991
 20
9.0
 30
0.0
 10
17.13982
 20
9.0
 30
0.0
  0
SPLINE
  5
61
330
1F
100
AcDbEntity
  8
PLASMA
100
AcDbSpline
210
0.0
220
0.0
230
1.0
 70
    24
 71
     3
 72
     8
 73
     4
 74
     0
 42
0.0000000001
 43
0.0000000001
 40
0.0
 40
0.0
 40
0.0
 40
0.0
 40
1.0
 40
1.0
 40
1.0
 40
1.0
 10
5.182770000000005
 20
38.0
 30
0.0
 10
5.182770000000005
 20
39.72759
 30
0.0
 10
5.182770000000005
 20
41.45518
 30
0.0
 10
5.182770000000005
 20
43.18277
 30
0.0
  0
SPLINE
  5
62
330
1F
100
AcDbEntity
  8
PLASMA
100
AcDbSpline
210
0.0
220
0.0
230
1.0
 70
    24
 71
     2
 72
     6
 73
     3
 74
     0
 42
0.0000000001
 43
0.0000000001
 40
0.0
 40
0.0
 40
0.0
 40
1.0
 40
1.0
 40
1.0
 10
5.182770000000005
 20
43.18277
 30
0.0
 10
2.591385000000004
 20
43.18277
 30
0.0
 10
0.0000000000000036
 20
43.18277
 30
0.0
  0
SPLINE
  5
63
330
1F
100
AcDbEntity
  8
PLASMA
100
AcDbSpline
210
0.0
220
0.0
230
1.0
 70
    24
 71
     3
 72
     8
 73
     4
 74
     0
 42
0.0000000001
 43
0.0000000001
 40
-1.0
 40
-1.0
 40
-1.0
 40
-1.0
 40
0.0
 40
0.0
 40
0.0
 40
0.0
 10
0.0000000000000036
 20
43.18277
 30
0.0
 10
0.0
 20
41.45518
 30
0.0
 10
0.0000000000000036
 20
39.72759
 30
0.0
 10
0.0
 20
38.0
 30
0.0
  0
SPLINE
  5
64
330
1F
100
AcDbEntity
  8
PLASMA
100
AcDbSpline
210
0.0
220
0.0
230
1.0
 70
    24
 71
     2
 72
     6
 73
     3
 74
     0
 42
0.0000000001
 43
0.0000000001
 40
-1.0
 40
-1.0
 40
-1.0
 40
0.0
 40
0.0
 40
0.0
 10
0.0
 20
38.0
 30
0.0
 10
2.591385000000002
 20
38.0
 30
0.0
 10
5.182770000000005
 20
38.0
 30
0.0
  0
SPLINE
  5
65
330
1F
100
AcDbEntity
  8
PLASMA
100
AcDbSpline
210
0.0
220
0.0
230
1.0
 70
    11
 71
     3
 72
    30
 73
    26
 74
     0
 42
0.0000000001
 43
0.0000000001
 40
0.0
 40
0.0
 40
0.0
 40
0.0
 40
0.2500887048759898
 40
0.2500887048759898
 40
0.5000944094657286
 40
0.5000944094657286
 40
0.7501933539815899
 40
0.7501933539815899
 40
0.8129028385380985
 40
0.8129028385380985
 40
0.8750272408313706
 40
0.8750272408313706
 40
1.0
 40
1.0
 40
1.0
 40
2.0
 40
2.0
 40
2.0
 40
3.0
 40
3.0
 40
3.0
 40
4.0
 40
4.0
 40
4.0
 40
5.0
 40
5.0
 40
5.0
 40
5.0
 10
7.214469154748464
 20
37.18277
 30
0.0
 10
7.141036808524341
 20
36.97040842898315
 30
0.0
 10
7.060112453679835
 20
36.76138207381835
 30
0.0
 10
6.884008415070909
 20
36.34804138265589
 30
0.0
 10
6.789322861018206
 20
36.14490844266236
 30
0.0
 10
6.586288895787597
 20
35.74410639423014
 30
0.0
 10
6.478494267388996
 20
35.54752987349313
 30
0.0
 10
6.33503895025423
 20
35.30586522286865
 30
0.0
 10
6.305871446521287
 20
35.25767288801458
 30
0.0
 10
6.246958461686539
 20
35.16223763916338
 30
0.0
 10
6.21723205872847
 20
35.11500818080621
 30
0.0
 10
6.126421836708381
 20
34.97355479013326
 30
0.0
 10
6.064114945359826
 20
34.88024134430142
 30
0.0
 10
6.0
 20
34.78806622378235
 30
0.0
 10
6.0
 20
33.85871081585491
 30
0.0
 10
6.0
 20
32.92935540792745
 30
0.0
 10
6.0
 20
32.0
 30
0.0
 10
7.727589999999999
 20
32.0
 30
0.0
 10
9.455179999999999
 20
32.0
 30
0.0
 10
11.18277
 20
32.0
 30
0.0
 10
11.18277
 20
33.72759
 30
0.0
 10
11.18277
 20
35.45518
 30
0.0
 10
11.18277
 20
37.18277
 30
0.0
 10
9.860003051582822
 20
37.18277
 30
0.0
 10
8.53723610316564
 20
37.18277
 30
0.0
 10
7.214469154748464
 20
37.18277
 30
0.0
  0
VIEWPORT
  5
6F
330
6B
100
AcDbEntity
 67
     1
  8
0
100
AcDbViewport
 10
6.0
 20
4.5
 30
0.0
 40
12.696
 41
9.522
 68
     1
 69
     1
 12
6.0
 22
4.5
 13
0.0
 23
0.0
 14
0.5
 24
0.5
 15
0.5
 25
0.5
 16
0.0
 26
0.0
 36
1.0
 17
0.0
 27
0.0
 37
0.0
 42
50.0
 43
0.0
 44
0.0
 45
9.522
 50
0.0
 51
0.0
 72
   100
 90
   557152
  1

281
     0
 71
     1
 74
     0
110
0.0
120
0.0
130
0.0
111
1.0
121
0.0
131
0.0
112
0.0
122
1.0
132
0.0
 79
     0
146
0.0
170
     0
  0
ENDSEC
  0
SECTION
  2
OBJECTS
  0
DICTIONARY
  5
C
330
0
100
AcDbDictionary
281
     1
  3
ACAD_GROUP
350
D
  3
ACAD_LAYOUT
350
1A
  3
ACAD_MLEADERSTYLE
350
95
  3
ACAD_MLINESTYLE
350
17
  3
ACAD_PLOTSETTINGS
350
19
  3
ACAD_PLOTSTYLENAME
350
E
  3
ACAD_SCALELIST
350
70
  3
ACAD_TABLESTYLE
350
94
  3
ACAD_VISUALSTYLE
350
2A
  3
AcDbVariableDictionary
350
92
  0
DICTIONARY
  5
D
102
{ACAD_REACTORS
330
C
102
}
330
C
100
AcDbDictionary
281
     1
  0
DICTIONARY
  5
1A
102
{ACAD_REACTORS
330
C
102
}
330
C
100
AcDbDictionary
281
     1
  3
LAYOUT1
350
67
  3
LAYOUT2
350
6C
  3
Model
350
22
  0
DICTIONARY
  5
95
102
{ACAD_REACTORS
330
C
102
}
330
C
100
AcDbDictionary
281
     1
  0
DICTIONARY
  5
17
102
{ACAD_REACTORS
330
C
102
}
330
C
100
AcDbDictionary
281
     1
  3
Standard
350
18
  0
DICTIONARY
  5
19
102
{ACAD_REACTORS
330
C
102
}
330
C
100
AcDbDictionary
281
     1
  0
ACDBDICTIONARYWDFLT
  5
E
102
{ACAD_REACTORS
330
C
102
}
330
C
100
AcDbDictionary
281
     1
  3
Normal
350
F
100
AcDbDictionaryWithDefault
340
F
  0
DICTIONARY
  5
70
102
{ACAD_REACTORS
330
C
102
}
330
C
100
AcDbDictionary
281
     1
  3
A0
350
71
  3
A1
350
72
  3
A2
350
73
  3
A3
350
74
  3
A4
350
75
  3
A5
350
76
  3
A6
350
77
  3
A7
350
78
  3
A8
350
79
  3
A9
350
7A
  3
B0
350
7B
  3
B1
350
7C
  3
B2
350
7D
  3
B3
350
7E
  3
B4
350
7F
  3
B5
350
80
  3
B6
350
81
  3
B7
350
82
  3
B8
350
83
  3
B9
350
84
  3
C0
350
85
  3
C1
350
86
  3
C2
350
87
  3
C3
350
88
  3
C4
350
89
  3
C5
350
8A
  3
C6
350
8B
  3
C7
350
8C
  3
C8
350
8D
  3
C9
350
8E
  3
D0
350
8F
  3
D1
350
90
  3
D2
350
91
  0
DICTIONARY
  5
94
102
{ACAD_REACTORS
330
C
102
}
330
C
100
AcDbDictionary
281
     1
  0
DICTIONARY
  5
2A
102
{ACAD_REACTORS
330
C
102
}
330
C
100
AcDbDictionary
281
     1
  3
2dWireframe
350
2F
  3
3D Hidden
350
31
  3
3dWireframe
350
30
  3
Basic
350
32
  3
Brighten
350
36
  3
ColorChange
350
3A
  3
Conceptual
350
34
  3
Dim
350
35
  3
Facepattern
350
39
  3
Flat
350
2B
  3
FlatWithEdges
350
2C
  3
Gouraud
350
2D
  3
GouraudWithEdges
350
2E
  3
Linepattern
350
38
  3
Realistic
350
33
  3
Thicken
350
37
  0
DICTIONARY
  5
92
102
{ACAD_REACTORS
330
C
102
}
330
C
100
AcDbDictionary
281
     1
  3
CANNOSCALE
350
93
  0
LAYOUT
  5
67
102
{ACAD_REACTORS
330
1A
102
}
330
1A
100
AcDbPlotSettings
  1

  2
none_device
  4
Letter_(8.50_x_11.00_Inches)
  6

 40
6.35
 41
6.35
 42
6.35000508
 43
6.35000508
 44
215.9
 45
279.4
 46
0.0
 47
0.0
 48
0.0
 49
0.0
140
0.0
141
0.0
142
1.0
143
1.0
 70
   688
 72
     0
 73
     1
 74
     5
  7

 75
    16
 76
     0
 77
     2
 78
   300
147
1.0
148
0.0
149
0.0
100
AcDbLayout
  1
LAYOUT1
 70
     1
 71
     1
 10
0.0
 20
0.0
 11
0.0
 21
0.0
 12
0.0
 22
0.0
 32
0.0
 14
0.0
 24
0.0
 34
0.0
 15
0.0
 25
0.0
 35
0.0
146
0.0
 13
0.0
 23
0.0
 33
0.0
 16
1.0
 26
0.0
 36
0.0
 17
0.0
 27
1.0
 37
0.0
 76
     0
330
66
331
6A
  0
LAYOUT
  5
6C
102
{ACAD_REACTORS
330
1A
102
}
330
1A
100
AcDbPlotSettings
  1

  2
none_device
  4
Letter_(8.50_x_11.00_Inches)
  6

 40
6.35
 41
6.35
 42
6.35000508
 43
6.35000508
 44
215.9
 45
279.4
 46
0.0
 47
0.0
 48
0.0
 49
0.0
140
0.0
141
0.0
142
1.0
143
1.0
 70
   688
 72
     0
 73
     1
 74
     5
  7

 75
    16
 76
     0
 77
     2
 78
   300
147
1.0
148
0.0
149
0.0
100
AcDbLayout
  1
LAYOUT2
 70
     1
 71
     2
 10
0.0
 20
0.0
 11
0.0
 21
0.0
 12
0.0
 22
0.0
 32
0.0
 14
0.0
 24
0.0
 34
0.0
 15
0.0
 25
0.0
 35
0.0
146
0.0
 13
0.0
 23
0.0
 33
0.0
 16
1.0
 26
0.0
 36
0.0
 17
0.0
 27
1.0
 37
0.0
 76
     0
330
6B
331
6F
  0
LAYOUT
  5
22
102
{ACAD_REACTORS
330
1A
102
}
330
1A
100
AcDbPlotSettings
  1

  2
none_device
  4

  6

 40
0.0
 41
0.0
 42
0.0
 43
0.0
 44
0.0
 45
0.0
 46
0.0
 47
0.0
 48
0.0
 49
0.0
140
0.0
141
0.0
142
1.0
143
1.0
 70
  1712
 72
     0
 73
     0
 74
     0
  7

 75
     0
 76
     0
 77
     2
 78
   300
147
1.0
148
0.0
149
0.0
100
AcDbLayout
  1
Model
 70
     1
 71
     0
 10
0.0
 20
0.0
 11
12.0
 21
9.0
 12
0.0
 22
0.0
 32
0.0
 14
-0.0000000000000018
 24
0.0
 34
0.0
 15
26.13982
 25
43.18277
 35
0.0
146
0.0
 13
0.0
 23
0.0
 33
0.0
 16
1.0
 26
0.0
 36
0.0
 17
0.0
 27
1.0
 37
0.0
 76
     0
330
1F
331
29
  0
MLINESTYLE
  5
18
102
{ACAD_REACTORS
330
17
102
}
330
17
100
AcDbMlineStyle
  2
Standard
 70
     0
  3

 62
   256
 51
90.0
 52
90.0
 71
     2
 49
0.5
 62
   256
  6
BYLAYER
 49
-0.5
 62
   256
  6
BYLAYER
  0
ACDBPLACEHOLDER
  5
F
102
{ACAD_REACTORS
330
E
102
}
330
E
  0
SCALE
  5
71
102
{ACAD_REACTORS
330
70
102
}
330
70
100
AcDbScale
 70
     0
300
1:1
140
1.0
141
1.0
290
     1
  0
SCALE
  5
72
102
{ACAD_REACTORS
330
70
102
}
330
70
100
AcDbScale
 70
     0
300
1:2
140
1.0
141
2.0
290
     0
  0
SCALE
  5
73
102
{ACAD_REACTORS
330
70
102
}
330
70
100
AcDbScale
 70
     0
300
1:4
140
1.0
141
4.0
290
     0
  0
SCALE
  5
74
102
{ACAD_REACTORS
330
70
102
}
330
70
100
AcDbScale
 70
     0
300
1:5
140
1.0
141
5.0
290
     0
  0
SCALE
  5
75
102
{ACAD_REACTORS
330
70
102
}
330
70
100
AcDbScale
 70
     0
300
1:8
140
1.0
141
8.0
290
     0
  0
SCALE
  5
76
102
{ACAD_REACTORS
330
70
102
}
330
70
100
AcDbScale
 70
     0
300
1:10
140
1.0
141
10.0
290
     0
  0
SCALE
  5
77
102
{ACAD_REACTORS
330
70
102
}
330
70
100
AcDbScale
 70
     0
300
1:16
140
1.0
141
16.0
290
     0
  0
SCALE
  5
78
102
{ACAD_REACTORS
330
70
102
}
330
70
100
AcDbScale
 70
     0
300
1:20
140
1.0
141
20.0
290
     0
  0
SCALE
  5
79
102
{ACAD_REACTORS
330
70
102
}
330
70
100
AcDbScale
 70
     0
300
1:30
140
1.0
141
30.0
290
     0
  0
SCALE
  5
7A
102
{ACAD_REACTORS
330
70
102
}
330
70
100
AcDbScale
 70
     0
300
1:40
140
1.0
141
40.0
290
     0
  0
SCALE
  5
7B
102
{ACAD_REACTORS
330
70
102
}
330
70
100
AcDbScale
 70
     0
300
1:50
140
1.0
141
50.0
290
     0
  0
SCALE
  5
7C
102
{ACAD_REACTORS
330
70
102
}
330
70
100
AcDbScale
 70
     0
300
1:100
140
1.0
141
100.0
290
     0
  0
SCALE
  5
7D
102
{ACAD_REACTORS
330
70
102
}
330
70
100
AcDbScale
 70
     0
300
2:1
140
2.0
141
1.0
290
     0
  0
SCALE
  5
7E
102
{ACAD_REACTORS
330
70
102
}
330
70
100
AcDbScale
 70
     0
300
4:1
140
4.0
141
1.0
290
     0
  0
SCALE
  5
7F
102
{ACAD_REACTORS
330
70
102
}
330
70
100
AcDbScale
 70
     0
300
8:1
140
8.0
141
1.0
290
     0
  0
SCALE
  5
80
102
{ACAD_REACTORS
330
70
102
}
330
70
100
AcDbScale
 70
     0
300
10:1
140
10.0
141
1.0
290
     0
  0
SCALE
  5
81
102
{ACAD_REACTORS
330
70
102
}
330
70
100
AcDbScale
 70
     0
300
100:1
140
100.0
141
1.0
290
     0
  0
SCALE
  5
82
102
{ACAD_REACTORS
330
70
102
}
330
70
100
AcDbScale
 70
     0
300
1/128" = 1'-0"
140
0.0078125
141
12.0
290
     0
  0
SCALE
  5
83
102
{ACAD_REACTORS
330
70
102
}
330
70
100
AcDbScale
 70
     0
300
1/64" = 1'-0"
140
0.015625
141
12.0
290
     0
  0
SCALE
  5
84
102
{ACAD_REACTORS
330
70
102
}
330
70
100
AcDbScale
 70
     0
300
1/32" = 1'-0"
140
0.03125
141
12.0
290
     0
  0
SCALE
  5
85
102
{ACAD_REACTORS
330
70
102
}
330
70
100
AcDbScale
 70
     0
300
1/16" = 1'-0"
140
0.0625
141
12.0
290
     0
  0
SCALE
  5
86
102
{ACAD_REACTORS
330
70
102
}
330
70
100
AcDbScale
 70
     0
300
3/32" = 1'-0"
140
0.09375
141
12.0
290
     0
  0
SCALE
  5
87
102
{ACAD_REACTORS
330
70
102
}
330
70
100
AcDbScale
 70
     0
300
1/8" = 1'-0"
140
0.125
141
12.0
290
     0
  0
SCALE
  5
88
102
{ACAD_REACTORS
330
70
102
}
330
70
100
AcDbScale
 70
     0
300
3/16" = 1'-0"
140
0.1875
141
12.0
290
     0
  0
SCALE
  5
89
102
{ACAD_REACTORS
330
70
102
}
330
70
100
AcDbScale
 70
     0
300
1/4" = 1'-0"
140
0.25
141
12.0
290
     0
  0
SCALE
  5
8A
102
{ACAD_REACTORS
330
70
102
}
330
70
100
AcDbScale
 70
     0
300
3/8" = 1'-0"
140
0.375
141
12.0
290
     0
  0
SCALE
  5
8B
102
{ACAD_REACTORS
330
70
102
}
330
70
100
AcDbScale
 70
     0
300
1/2" = 1'-0"
140
0.5
141
12.0
290
     0
  0
SCALE
  5
8C
102
{ACAD_REACTORS
330
70
102
}
330
70
100
AcDbScale
 70
     0
300
3/4" = 1'-0"
140
0.75
141
12.0
290
     0
  0
SCALE
  5
8D
102
{ACAD_REACTORS
330
70
102
}
330
70
100
AcDbScale
 70
     0
300
1" = 1'-0"
140
1.0
141
12.0
290
     0
  0
SCALE
  5
8E
102
{ACAD_REACTORS
330
70
102
}
330
70
100
AcDbScale
 70
     0
300
1-1/2" = 1'-0"
140
1.5
141
12.0
290
     0
  0
SCALE
  5
8F
102
{ACAD_REACTORS
330
70
102
}
330
70
100
AcDbScale
 70
     0
300
3" = 1'-0"
140
3.0
141
12.0
290
     0
  0
SCALE
  5
90
102
{ACAD_REACTORS
330
70
102
}
330
70
100
AcDbScale
 70
     0
300
6" = 1'-0"
140
6.0
141
12.0
290
     0
  0
SCALE
  5
91
102
{ACAD_REACTORS
330
70
102
}
330
70
100
AcDbScale
 70
     0
300
1'-0" = 1'-0"
140
12.0
141
12.0
290
     0
  0
VISUALSTYLE
  5
2F
102
{ACAD_REACTORS
330
2A
102
}
330
2A
100
AcDbVisualStyle
  2
2dWireframe
 70
     4
 71
     0
 72
     2
 73
     0
 90
        0
 40
-0.6
 41
-30.0
 62
     5
 63
     7
421
 16777215
 74
     1
 91
        4
 64
     7
 65
   257
 75
     1
175
     1
 42
1.0
 92
        0
 66
   257
 43
1.0
 76
     1
 77
     6
 78
     2
 67
     7
 79
     5
170
     0
171
     0
290
     0
174
     0
 93
        1
 44
0.0
173
     0
291
     0
 45
0.0
1001
ACAD
1000
AcDbSavedByObjectVersion
1070
     0
  0
VISUALSTYLE
  5
31
102
{ACAD_REACTORS
330
2A
102
}
330
2A
100
AcDbVisualStyle
  2
3D Hidden
 70
     6
 71
     1
 72
     2
 73
     2
 90
        0
 40
-0.6
 41
-30.0
 62
     5
 63
     7
421
 16777215
 74
     2
 91
        2
 64
     7
 65
   257
 75
     2
175
     1
 42
40.0
 92
        0
 66
   257
 43
1.0
 76
     1
 77
     6
 78
     2
 67
     7
 79
     3
170
     0
171
     0
290
     0
174
     0
 93
        1
 44
0.0
173
     0
291
     0
 45
0.0
1001
ACAD
1000
AcDbSavedByObjectVersion
1070
     0
  0
VISUALSTYLE
  5
30
102
{ACAD_REACTORS
330
2A
102
}
330
2A
100
AcDbVisualStyle
  2
3dWireframe
 70
     5
 71
     0
 72
     2
 73
     0
 90
        0
 40
-0.6
 41
-30.0
 62
     5
 63
     7
421
 16777215
 74
     1
 91
        4
 64
     7
 65
   257
 75
     1
175
     1
 42
1.0
 92
        0
 66
   257
 43
1.0
 76
     1
 77
     6
 78
     2
 67
     7
 79
     5
170
     0
171
     0
290
     0
174
     0
 93
        1
 44
0.0
173
     0
291
     0
 45
0.0
1001
ACAD
1000
AcDbSavedByObjectVersion
1070
     0
  0
VISUALSTYLE
  5
32
102
{ACAD_REACTORS
330
2A
102
}
330
2A
100
AcDbVisualStyle
  2
Basic
 70
     7
 71
     1
 72
     0
 73
     1
 90
        0
 40
-0.6
 41
-30.0
 62
     5
 63
     7
421
 16777215
 74
     0
 91
        4
 64
     7
 65
   257
 75
     1
175
     1
 42
1.0
 92
        8
 66
     7
 43
1.0
 76
     1
 77
     6
 78
     2
 67
     7
 79
     5
170
     0
171
     0
290
     0
174
     0
 93
        1
 44
0.0
173
     0
291
     1
 45
0.0
1001
ACAD
1000
AcDbSavedByObjectVersion
1070
     0
  0
VISUALSTYLE
  5
36
102
{ACAD_REACTORS
330
2A
102
}
330
2A
100
AcDbVisualStyle
  2
Brighten
 70
    12
 71
     2
 72
     2
 73
     0
 90
        0
 40
-0.6
 41
-30.0
 62
     5
 63
     7
421
 16777215
 74
     1
 91
        4
 64
     7
 65
   257
 75
     1
175
     1
 42
1.0
 92
        8
 66
     7
 43
1.0
 76
     1
 77
     6
 78
     2
 67
     7
 79
     5
170
     0
171
     0
290
     0
174
     0
 93
        1
 44
50.0
173
     0
291
     1
 45
0.0
1001
ACAD
1000
AcDbSavedByObjectVersion
1070
     0
  0
VISUALSTYLE
  5
3A
102
{ACAD_REACTORS
330
2A
102
}
330
2A
100
AcDbVisualStyle
  2
ColorChange
 70
    16
 71
     2
 72
     2
 73
     3
 90
        0
 40
-0.6
 41
-30.0
 62
     5
 63
     8
421
  8421504
 74
     1
 91
        4
 64
     7
 65
   257
 75
     1
175
     1
 42
1.0
 92
        8
 66
     8
424
  8421504
 43
1.0
 76
     1
 77
     6
 78
     2
 67
     7
 79
     5
170
     0
171
     0
290
     0
174
     0
 93
        1
 44
0.0
173
     0
291
     1
 45
0.0
1001
ACAD
1000
AcDbSavedByObjectVersion
1070
     0
  0
VISUALSTYLE
  5
34
102
{ACAD_REACTORS
330
2A
102
}
330
2A
100
AcDbVisualStyle
  2
Conceptual
 70
     9
 71
     3
 72
     2
 73
     0
 90
        0
 40
-0.6
 41
-30.0
 62
     5
 63
     7
421
 16777215
 74
     2
 91
        2
 64
     7
 65
   257
 75
     1
175
     1
 42
40.0
 92
        8
 66
     7
 43
1.0
 76
     1
 77
     6
 78
     2
 67
     7
 79
     3
170
     0
171
     0
290
     0
174
     0
 93
        1
 44
0.0
173
     0
291
     0
 45
0.0
1001
ACAD
1000
AcDbSavedByObjectVersion
1070
     0
  0
VISUALSTYLE
  5
35
102
{ACAD_REACTORS
330
2A
102
}
330
2A
100
AcDbVisualStyle
  2
Dim
 70
    11
 71
     2
 72
     2
 73
     0
 90
        0
 40
-0.6
 41
-30.0
 62
     5
 63
     7
421
 16777215
 74
     1
 91
        4
 64
     7
 65
   257
 75
     1
175
     1
 42
1.0
 92
        8
 66
     7
 43
1.0
 76
     1
 77
     6
 78
     2
 67
     7
 79
     5
170
     0
171
     0
290
     0
174
     0
 93
        1
 44
-50.0
173
     0
291
     1
 45
0.0
1001
ACAD
1000
AcDbSavedByObjectVersion
1070
     0
  0
VISUALSTYLE
  5
39
102
{ACAD_REACTORS
330
2A
102
}
330
2A
100
AcDbVisualStyle
  2
Facepattern
 70
    15
 71
     2
 72
     2
 73
     0
 90
        0
 40
-0.6
 41
-30.0
 62
     5
 63
     7
421
 16777215
 74
     1
 91
        4
 64
     7
 65
   257
 75
     1
175
     1
 42
1.0
 92
        8
 66
     7
 43
1.0
 76
     1
 77
     6
 78
     2
 67
     7
 79
     5
170
     0
171
     0
290
     0
174
     0
 93
        1
 44
0.0
173
     0
291
     1
 45
0.0
1001
ACAD
1000
AcDbSavedByObjectVersion
1070
     0
  0
VISUALSTYLE
  5
2B
102
{ACAD_REACTORS
330
2A
102
}
330
2A
100
AcDbVisualStyle
  2
Flat
 70
     0
 71
     2
 72
     1
 73
     1
 90
        2
 40
-0.6
 41
30.0
 62
     5
 63
     7
421
 16777215
 74
     0
 91
        4
 64
     7
 65
   257
 75
     1
175
     1
 42
1.0
 92
        8
 66
     7
 43
1.0
 76
     1
 77
     6
 78
     2
 67
     7
 79
     5
170
     0
171
     0
290
     0
174
     0
 93
       13
 44
0.0
173
     0
291
     1
 45
0.0
1001
ACAD
1000
AcDbSavedByObjectVersion
1070
     0
  0
VISUALSTYLE
  5
2C
102
{ACAD_REACTORS
330
2A
102
}
330
2A
100
AcDbVisualStyle
  2
FlatWithEdges
 70
     1
 71
     2
 72
     1
 73
     1
 90
        2
 40
-0.6
 41
30.0
 62
     5
 63
     7
421
 16777215
 74
     1
 91
        4
 64
     7
 65
   257
 75
     1
175
     1
 42
1.0
 92
        0
 66
   257
 43
1.0
 76
     1
 77
     6
 78
     2
 67
     7
 79
     5
170
     0
171
     0
290
     0
174
     0
 93
       13
 44
0.0
173
     0
291
     1
 45
0.0
1001
ACAD
1000
AcDbSavedByObjectVersion
1070
     0
  0
VISUALSTYLE
  5
2D
102
{ACAD_REACTORS
330
2A
102
}
330
2A
100
AcDbVisualStyle
  2
Gouraud
 70
     2
 71
     2
 72
     2
 73
     1
 90
        2
 40
-0.6
 41
30.0
 62
     5
 63
     7
421
 16777215
 74
     0
 91
        4
 64
     7
 65
   257
 75
     1
175
     1
 42
1.0
 92
        0
 66
     7
 43
1.0
 76
     1
 77
     6
 78
     2
 67
     7
 79
     5
170
     0
171
     0
290
     0
174
     0
 93
       13
 44
0.0
173
     0
291
     1
 45
0.0
1001
ACAD
1000
AcDbSavedByObjectVersion
1070
     0
  0
VISUALSTYLE
  5
2E
102
{ACAD_REACTORS
330
2A
102
}
330
2A
100
AcDbVisualStyle
  2
GouraudWithEdges
 70
     3
 71
     2
 72
     2
 73
     1
 90
        2
 40
-0.6
 41
30.0
 62
     5
 63
     7
421
 16777215
 74
     1
 91
        4
 64
     7
 65
   257
 75
     1
175
     1
 42
1.0
 92
        0
 66
   257
 43
1.0
 76
     1
 77
     6
 78
     2
 67
     7
 79
     5
170
     0
171
     0
290
     0
174
     0
 93
       13
 44
0.0
173
     0
291
     1
 45
0.0
1001
ACAD
1000
AcDbSavedByObjectVersion
1070
     0
  0
VISUALSTYLE
  5
38
102
{ACAD_REACTORS
330
2A
102
}
330
2A
100
AcDbVisualStyle
  2
Linepattern
 70
    14
 71
     2
 72
     2
 73
     0
 90
        0
 40
-0.6
 41
-30.0
 62
     5
 63
     7
421
 16777215
 74
     1
 91
        4
 64
     7
 65
   257
 75
     7
175
     7
 42
1.0
 92
        8
 66
     7
 43
1.0
 76
     1
 77
     6
 78
     2
 67
     7
 79
     5
170
     0
171
     0
290
     0
174
     0
 93
        1
 44
0.0
173
     0
291
     1
 45
0.0
1001
ACAD
1000
AcDbSavedByObjectVersion
1070
     0
  0
VISUALSTYLE
  5
33
102
{ACAD_REACTORS
330
2A
102
}
330
2A
100
AcDbVisualStyle
  2
Realistic
 70
     8
 71
     2
 72
     2
 73
     0
 90
        0
 40
-0.6
 41
-30.0
 62
     5
 63
     7
421
 16777215
 74
     1
 91
        0
 64
     7
 65
   257
 75
     1
175
     1
 42
1.0
 92
        8
 66
     8
424
  7895160
 43
1.0
 76
     1
 77
     6
 78
     2
 67
     7
 79
     5
170
     0
171
     0
290
     0
174
     0
 93
       13
 44
0.0
173
     0
291
     0
 45
0.0
1001
ACAD
1000
AcDbSavedByObjectVersion
1070
     0
  0
VISUALSTYLE
  5
37
102
{ACAD_REACTORS
330
2A
102
}
330
2A
100
AcDbVisualStyle
  2
Thicken
 70
    13
 71
     2
 72
     2
 73
     0
 90
        0
 40
-0.6
 41
-30.0
 62
     5
 63
     7
421
 16777215
 74
     1
 91
        4
 64
     7
 65
   257
 75
     1
175
     1
 42
1.0
 92
       12
 66
     7
 43
1.0
 76
     1
 77
     6
 78
     2
 67
     7
 79
     5
170
     0
171
     0
290
     0
174
     0
 93
        1
 44
0.0
173
     0
291
     1
 45
0.0
1001
ACAD
1000
AcDbSavedByObjectVersion
1070
     0
  0
DICTIONARYVAR
  5
93
102
{ACAD_REACTORS
330
92
102
}
330
92
100
DictionaryVariables
280
     0
  1
1:1
  0
ENDSEC
  0
EOF
